<svg width="216" height="33" viewBox="0 0 216 33" fill="none" xmlns="http://www.w3.org/2000/svg">
<path d="M28.2026 2.63272H26.248L24.8119 12.725L21.9199 0.538468L21.88 0.378906H15.8166L15.2781 2.63272H13.5229L11.0098 13.2636L9.21472 0.558414L9.19477 0.378906H2.21393L2.63278 2.63272H0L5.56473 32.1517H11.2491L11.7278 30.3168H13.8819L17.4721 16.734L21.5409 32.1517H27.2253L27.5644 30.3168H29.8381L35.4228 0.638195L35.4627 0.398852H28.5018L28.2026 2.63272ZM34.984 0.777812L29.4991 29.8979H24.1338L18.8483 9.83297L13.5628 29.8979H8.19751L2.71256 0.777812H8.83576L11.5683 20.1247L16.1357 0.777812H21.5409L26.1084 20.1247L28.8409 0.777812H34.984Z" fill="#292929"/>
<path d="M48.6468 5.04614C45.8346 5.04614 44.6777 7.41963 44.6777 13.2437V17.4322C44.6777 23.2562 45.8346 25.6297 48.6468 25.6297C51.4591 25.6297 52.616 23.2562 52.616 17.4322V13.2437C52.616 7.41963 51.4791 5.04614 48.6468 5.04614ZM49.9632 19.4865C49.9632 22.0595 49.7239 23.8944 49.2452 25.1709C49.0457 25.2108 48.8662 25.2308 48.6468 25.2308C46.1138 25.2308 45.0966 22.9769 45.0966 17.4322V13.2437C45.0966 10.5111 45.3559 8.57646 45.9143 7.3199C46.0141 7.3199 46.0939 7.29996 46.1936 7.29996C48.8064 7.29996 49.9632 9.47399 49.9632 15.298V19.4865Z" fill="#292929"/>
<path d="M48.6464 0C45.2956 0 42.7625 1.21666 41.0871 3.57021C38.0953 5.42512 36.4199 9.2945 36.4199 15.298V19.4865C36.4199 28.3423 40.0101 32.5308 46.1732 32.5308C48.9854 32.5308 51.2592 31.6332 52.8947 29.8581C56.6444 28.1827 58.5991 23.9742 58.5991 17.4322V13.2437C58.5991 4.56747 55.1685 0 48.6464 0ZM58.2002 17.4322C58.2002 25.8291 54.8893 30.2769 48.6464 30.2769C42.4035 30.2769 39.0926 25.8291 39.0926 17.4322V13.2437C39.0926 4.8467 42.4035 0.398906 48.6464 0.398906C54.8893 0.398906 58.2002 4.8467 58.2002 13.2437V17.4322Z" fill="#292929"/>
<path d="M73.7562 5.04614C70.9439 5.04614 69.7871 7.41963 69.7871 13.2437V17.4322C69.7871 23.2562 70.9439 25.6297 73.7562 25.6297C76.5685 25.6297 77.7253 23.2562 77.7253 17.4322V13.2437C77.7253 7.41963 76.5685 5.04614 73.7562 5.04614ZM75.0527 19.4865C75.0527 22.0595 74.8133 23.8944 74.3346 25.1709C74.1352 25.2108 73.9557 25.2308 73.7363 25.2308C71.2032 25.2308 70.186 22.9769 70.186 17.4322V13.2437C70.186 10.5111 70.4453 8.57646 71.0038 7.3199C71.1035 7.3199 71.1833 7.29996 71.283 7.29996C73.8958 7.29996 75.0527 9.47399 75.0527 15.298V19.4865Z" fill="#292929"/>
<path d="M73.7577 0C70.4069 0 67.8739 1.21666 66.1985 3.57021C63.2067 5.42512 61.5312 9.2945 61.5312 15.298V19.4865C61.5312 28.3423 65.1214 32.5308 71.2845 32.5308C74.0968 32.5308 76.3706 31.6332 78.0061 29.8581C81.7558 28.1827 83.7104 23.9742 83.7104 17.4322V13.2437C83.7104 4.56747 80.2799 0 73.7577 0ZM83.3115 17.4322C83.3115 25.8291 80.0006 30.2769 73.7577 30.2769C67.5148 30.2769 64.2039 25.8291 64.2039 17.4322V13.2437C64.2039 4.8467 67.5148 0.398906 73.7577 0.398906C80.0006 0.398906 83.3115 4.8467 83.3115 13.2437V17.4322Z" fill="#292929"/>
<path d="M113.089 2.63285H111.134L109.698 12.7252L106.806 0.53859L106.766 0.379028H100.703L100.164 2.63285H98.4092L95.8961 13.2637L94.101 0.558536L94.0811 0.379028H87.1202L87.539 2.63285H84.9062L90.471 32.1519H96.1554L96.6341 30.3169H98.7682L102.358 16.7342L106.427 32.1519H112.112L112.451 30.3169H114.724L120.309 0.638317L120.389 0.379028H113.408L113.089 2.63285ZM119.89 0.777934L114.405 29.8981H109.04L103.755 9.83309L98.4491 29.8981H93.0838L87.5989 0.777934H93.7221L96.4546 20.1249L101.042 0.777934H106.447L111.015 20.1249L113.747 0.777934H119.89Z" fill="#292929"/>
<path d="M142.329 20.7431H136.225L136.206 20.9226C136.106 21.7404 135.966 22.4185 135.787 22.9969H133.952C133.852 23.8745 133.692 24.5925 133.493 25.1909C133.353 25.2108 133.214 25.2308 133.074 25.2308C130.621 25.2308 129.524 22.8174 129.524 17.4322V13.2437C129.524 10.5112 129.783 8.57647 130.342 7.31992C130.441 7.31992 130.521 7.29997 130.621 7.29997C132.556 7.29997 133.653 8.79587 133.952 11.7877H139.636C139.556 11.1295 139.437 10.5311 139.297 9.9527H142.329L142.309 9.71335C141.511 3.45053 138.22 0 133.074 0C129.763 0 127.23 1.25655 125.535 3.63004C122.563 5.52484 120.848 9.37428 120.848 15.298V19.4865C120.848 28.2226 124.577 32.5308 130.601 32.5308C133.333 32.5308 135.448 31.6931 136.963 29.9379C139.915 28.6614 141.671 25.6895 142.289 20.9625L142.329 20.7431ZM133.074 30.2769C126.911 30.2769 123.52 25.7095 123.52 17.4322V13.2437C123.52 4.96638 126.911 0.398906 133.074 0.398906C138.001 0.398906 141.032 3.55026 141.87 9.53385H136.604C136.265 6.562 135.089 5.04616 133.074 5.04616C130.262 5.04616 129.105 7.41965 129.105 13.2437V17.4322C129.105 23.0966 130.322 25.6297 133.074 25.6297C135.148 25.6297 136.166 24.3332 136.584 21.142H141.85C140.992 27.3849 138.2 30.2769 133.074 30.2769Z" fill="#292929"/>
<path d="M159.043 0.379028H152.92L152.262 2.63285H150.606L142.09 32.1519H148.333L148.791 30.3169H150.946L151.903 26.5472H157.288L158.704 32.1519H164.947L164.409 30.3169H167.68L159.043 0.379028ZM161.317 29.8981L159.901 24.2934H152.062L150.646 29.8981H144.842L153.219 0.777934H158.724L167.121 29.8981H161.317Z" fill="#292929"/>
<path d="M153.218 19.4068L153.158 19.6661H158.823L155.99 8.21753L153.218 19.4068ZM153.677 19.2473L154.614 15.4976L155.552 19.2473H153.677Z" fill="#292929"/>
<path d="M180.585 5.46509H177.812V13.6626H180.585C183.617 13.6626 184.893 12.4459 184.893 9.61371C184.893 6.74159 183.577 5.46509 180.585 5.46509ZM182.061 13.1041C181.622 13.1839 181.143 13.2437 180.585 13.2437H178.231V7.7189C180.904 7.73885 182.24 8.77601 182.24 11.6481C182.24 12.2265 182.181 12.6853 182.061 13.1041Z" fill="#292929"/>
<path d="M186.827 17.5719C189.52 16.1159 190.876 13.4232 190.876 9.6137C190.876 3.74978 187.366 0.379028 181.263 0.379028H171.809V2.63285H169.555V32.1519H175.538V30.297H178.231V20.5437H178.51L182.838 32.1319H189.121L188.403 30.297H191.893L186.827 17.5719ZM185.431 29.8981L181.163 18.4295L181.123 18.2899H177.832V29.8981H172.247V0.777934H181.283C187.126 0.777934 190.497 3.98913 190.497 9.59375C190.497 13.3834 189.181 15.8965 186.508 17.2926L186.349 17.3724L191.315 29.8781H185.431V29.8981Z" fill="#292929"/>
<path d="M205.376 0.379028H196.021V2.63285H193.768V32.1519H202.922C205.874 32.1519 208.128 31.2543 209.744 29.4593C213.434 27.8038 215.289 23.735 215.289 17.2527V13.4232C215.289 4.76699 211.958 0.379028 205.376 0.379028ZM214.87 17.2727C214.87 25.6497 211.678 29.8981 205.356 29.8981H196.4V0.777934H205.356C211.658 0.777934 214.87 5.02628 214.87 13.4033V17.2727Z" fill="#292929"/>
<path d="M205.377 5.46509H202.006V25.2109H205.377C208.668 25.2109 209.306 22.2989 209.306 17.2528V13.4233C209.306 8.3771 208.648 5.46509 205.377 5.46509ZM206.633 19.3071C206.633 21.7005 206.474 23.4757 206.015 24.7322C205.815 24.7721 205.596 24.7921 205.357 24.7921H202.405V7.7189H202.903C205.815 7.7189 206.633 10.1123 206.633 15.4577V19.3071Z" fill="#292929"/>
</svg>
