<svg width="44" height="34" viewBox="0 0 44 34" fill="none" xmlns="http://www.w3.org/2000/svg">
<path d="M7.9984 33.8311V31.5807C7.9984 30.718 7.47017 30.1554 6.56463 30.1554C6.11186 30.1554 5.62136 30.3054 5.28178 30.793C5.01767 30.3805 4.64036 30.1554 4.0744 30.1554C3.69709 30.1554 3.31978 30.2679 3.01793 30.6805V30.2304H2.22559V33.8311H3.01793V31.8432C3.01793 31.2056 3.35751 30.9056 3.88574 30.9056C4.41397 30.9056 4.67809 31.2431 4.67809 31.8432V33.8311H5.47044V31.8432C5.47044 31.2056 5.84774 30.9056 6.33825 30.9056C6.86648 30.9056 7.13059 31.2431 7.13059 31.8432V33.8311H7.9984ZM19.7327 30.2304H18.4498V29.1427H17.6575V30.2304H16.9406V30.9431H17.6575V32.5934C17.6575 33.4185 17.9971 33.9061 18.9026 33.9061C19.2422 33.9061 19.6195 33.7936 19.8836 33.6435L19.6572 32.9684C19.4308 33.1185 19.1667 33.156 18.9781 33.156C18.6008 33.156 18.4498 32.9309 18.4498 32.5559V30.9431H19.7327V30.2304ZM26.4488 30.1554C25.996 30.1554 25.6942 30.3805 25.5055 30.6805V30.2304H24.7132V33.8311H25.5055V31.8057C25.5055 31.2056 25.7696 30.868 26.2601 30.868C26.411 30.868 26.5997 30.9056 26.7506 30.9431L26.977 30.1929C26.8261 30.1554 26.5997 30.1554 26.4488 30.1554ZM16.2992 30.5305C15.9219 30.2679 15.3936 30.1554 14.8277 30.1554C13.9221 30.1554 13.3184 30.6055 13.3184 31.3181C13.3184 31.9182 13.7712 32.2558 14.5636 32.3683L14.9409 32.4058C15.3559 32.4808 15.5823 32.5934 15.5823 32.7809C15.5823 33.0434 15.2804 33.231 14.7522 33.231C14.224 33.231 13.8089 33.0434 13.5448 32.8559L13.1675 33.456C13.5826 33.7561 14.1485 33.9061 14.7145 33.9061C15.7709 33.9061 16.3746 33.4185 16.3746 32.7434C16.3746 32.1058 15.8841 31.7682 15.1295 31.6557L14.7522 31.6182C14.4126 31.5807 14.1485 31.5057 14.1485 31.2806C14.1485 31.0181 14.4126 30.868 14.8277 30.868C15.2804 30.868 15.7332 31.0556 15.9596 31.1681L16.2992 30.5305ZM37.353 30.1554C36.9002 30.1554 36.5984 30.3805 36.4097 30.6805V30.2304H35.6174V33.8311H36.4097V31.8057C36.4097 31.2056 36.6738 30.868 37.1643 30.868C37.3153 30.868 37.5039 30.9056 37.6548 30.9431L37.8812 30.1929C37.7303 30.1554 37.5039 30.1554 37.353 30.1554ZM27.2411 32.0308C27.2411 33.1185 27.9957 33.9061 29.1654 33.9061C29.6936 33.9061 30.0709 33.7936 30.4482 33.4935L30.0709 32.8559C29.7691 33.0809 29.4672 33.1935 29.1277 33.1935C28.4862 33.1935 28.0335 32.7434 28.0335 32.0308C28.0335 31.3556 28.4862 30.9056 29.1277 30.868C29.4672 30.868 29.7691 30.9806 30.0709 31.2056L30.4482 30.568C30.0709 30.2679 29.6936 30.1554 29.1654 30.1554C27.9957 30.1554 27.2411 30.9431 27.2411 32.0308ZM34.5609 32.0308V30.2304H33.7686V30.6805C33.5044 30.343 33.1271 30.1554 32.6366 30.1554C31.6179 30.1554 30.8255 30.9431 30.8255 32.0308C30.8255 33.1185 31.6179 33.9061 32.6366 33.9061C33.1649 33.9061 33.5422 33.7186 33.7686 33.381V33.8311H34.5609V32.0308ZM31.6556 32.0308C31.6556 31.3931 32.0707 30.868 32.7498 30.868C33.3912 30.868 33.844 31.3556 33.844 32.0308C33.844 32.6684 33.3912 33.1935 32.7498 33.1935C32.0707 33.156 31.6556 32.6684 31.6556 32.0308ZM22.1852 30.1554C21.1287 30.1554 20.3741 30.9056 20.3741 32.0308C20.3741 33.156 21.1287 33.9061 22.2229 33.9061C22.7512 33.9061 23.2794 33.7561 23.6944 33.4185L23.3171 32.8559C23.0153 33.0809 22.638 33.231 22.2607 33.231C21.7702 33.231 21.2796 33.0059 21.1665 32.3683H23.8453V32.0683C23.8831 30.9056 23.2039 30.1554 22.1852 30.1554ZM22.1852 30.8305C22.6757 30.8305 23.0153 31.1306 23.0907 31.6932H21.2042C21.2796 31.2056 21.6192 30.8305 22.1852 30.8305ZM41.8429 32.0308V28.8052H41.0506V30.6805C40.7865 30.343 40.4092 30.1554 39.9187 30.1554C38.8999 30.1554 38.1076 30.9431 38.1076 32.0308C38.1076 33.1185 38.8999 33.9061 39.9187 33.9061C40.4469 33.9061 40.8242 33.7186 41.0506 33.381V33.8311H41.8429V32.0308ZM38.9377 32.0308C38.9377 31.3931 39.3527 30.868 40.0319 30.868C40.6733 30.868 41.1261 31.3556 41.1261 32.0308C41.1261 32.6684 40.6733 33.1935 40.0319 33.1935C39.3527 33.156 38.9377 32.6684 38.9377 32.0308ZM12.4506 32.0308V30.2304H11.6583V30.6805C11.3942 30.343 11.0169 30.1554 10.5264 30.1554C9.50763 30.1554 8.71529 30.9431 8.71529 32.0308C8.71529 33.1185 9.50763 33.9061 10.5264 33.9061C11.0546 33.9061 11.4319 33.7186 11.6583 33.381V33.8311H12.4506V32.0308ZM9.50763 32.0308C9.50763 31.3931 9.92267 30.868 10.6018 30.868C11.2433 30.868 11.696 31.3556 11.696 32.0308C11.696 32.6684 11.2433 33.1935 10.6018 33.1935C9.92267 33.156 9.50763 32.6684 9.50763 32.0308Z" fill="black"/>
<path d="M27.9213 2.88806H16.0361V24.1169H27.9213V2.88806Z" fill="#FF5F00"/>
<path d="M16.7902 13.5024C16.7902 9.18915 18.8277 5.36346 21.9593 2.88802C19.6578 1.0877 16.7525 0 13.5831 0C6.07466 0 0 6.03859 0 13.5024C0 20.9663 6.07466 27.0049 13.5831 27.0049C16.7525 27.0049 19.6578 25.9172 21.9593 24.1168C18.8277 21.6789 16.7902 17.8157 16.7902 13.5024Z" fill="#EB001B"/>
<path d="M43.9564 13.5024C43.9564 20.9663 37.8818 27.0049 30.3733 27.0049C27.2039 27.0049 24.2987 25.9172 21.9971 24.1168C25.1665 21.6414 27.1662 17.8157 27.1662 13.5024C27.1662 9.18915 25.1287 5.36346 21.9971 2.88802C24.2987 1.0877 27.2039 0 30.3733 0C37.8818 0 43.9564 6.07609 43.9564 13.5024Z" fill="#F79E1B"/>
</svg>
