<svg aria-hidden="true" style="position: absolute; width: 0; height: 0; overflow: hidden;" version="1.1" xmlns="http://www.w3.org/2000/svg" xmlns:xlink="http://www.w3.org/1999/xlink">
<defs>
<symbol id="icon-chat" viewBox="0 0 35 32">
<path d="M17.602 0c-9.72 0-17.598 6.65-17.598 14.857 0 3.4 1.368 6.514 3.636 9.021-1.024 2.814-3.155 5.2-3.19 5.229-0.454 0.5-0.577 1.229-0.316 1.857s0.859 1.036 1.519 1.036c4.228 0 7.562-1.836 9.562-3.307 1.987 0.65 4.131 1.021 6.386 1.021 9.72 0 17.598-6.65 17.598-14.857s-7.878-14.857-17.598-14.857zM17.602 26.286c-1.835 0-3.65-0.293-5.389-0.864l-1.56-0.514-1.34 0.986c-0.983 0.721-2.33 1.529-3.953 2.071 0.502-0.864 0.99-1.836 1.368-2.871l0.729-2.007-1.416-1.557c-1.244-1.379-2.736-3.657-2.736-6.671 0-6.3 6.414-11.429 14.298-11.429s14.298 5.129 14.298 11.429c0 6.3-6.414 11.429-14.298 11.429z"></path>
</symbol>
<symbol id="icon-close" viewBox="0 0 32 32">
<path d="M18.613 15.912l12.96-12.96c0.291-0.34 0.443-0.778 0.426-1.225s-0.203-0.872-0.519-1.188c-0.317-0.317-0.741-0.502-1.188-0.519s-0.885 0.135-1.225 0.426l-12.96 12.96-12.96-12.978c-0.34-0.291-0.778-0.443-1.225-0.426s-0.872 0.203-1.188 0.519c-0.317 0.317-0.502 0.741-0.519 1.188s0.135 0.885 0.426 1.225l12.96 12.978-12.978 12.96c-0.186 0.159-0.337 0.355-0.444 0.576s-0.167 0.461-0.176 0.706 0.032 0.489 0.121 0.717c0.089 0.228 0.225 0.435 0.398 0.609s0.38 0.309 0.609 0.398 0.472 0.131 0.717 0.121c0.245-0.009 0.485-0.069 0.706-0.176s0.417-0.258 0.576-0.444l12.978-12.96 12.96 12.96c0.34 0.291 0.778 0.443 1.225 0.426s0.872-0.203 1.188-0.519c0.317-0.317 0.502-0.741 0.519-1.188s-0.135-0.885-0.426-1.225l-12.96-12.96z"></path>
</symbol>
<symbol id="icon-dropdown" viewBox="0 0 36 32">
<path d="M3.079 6.031c-1.369-2.37 0.342-5.333 3.079-5.333h24.634c2.737 0 4.448 2.963 3.079 5.333l-12.317 21.333c-1.369 2.37-4.79 2.37-6.158 0l-12.317-21.333z"></path>
</symbol>
<symbol id="icon-fb" viewBox="0 0 17 32">
<path d="M4.399 32v-15.015h-4.399v-5.406h4.399v-4.618c0-3.629 2.598-6.961 8.585-6.961 2.424 0 4.217 0.21 4.217 0.21l-0.141 5.048c0 0-1.828-0.016-3.823-0.016-2.159 0-2.505 0.898-2.505 2.389v3.948h6.499l-0.283 5.406h-6.217v15.015h-6.333z"></path>
</symbol>
<symbol id="icon-instagram" viewBox="0 0 32 32">
<path d="M15.996 7.79c-4.543 0-8.209 3.667-8.209 8.21s3.666 8.21 8.209 8.21c4.543 0 8.209-3.666 8.209-8.21s-3.666-8.21-8.209-8.21zM15.996 21.336c-2.938 0-5.335-2.398-5.335-5.336s2.398-5.336 5.335-5.336c2.938 0 5.335 2.398 5.335 5.336s-2.398 5.336-5.335 5.336zM24.541 5.541c-1.061 0-1.917 0.857-1.917 1.917s0.857 1.917 1.917 1.917c1.061 0 1.917-0.853 1.917-1.917 0-0.252-0.049-0.501-0.145-0.734s-0.238-0.444-0.416-0.622c-0.178-0.178-0.39-0.319-0.623-0.416s-0.482-0.146-0.734-0.145zM31.998 16c0-2.21 0.020-4.399-0.104-6.604-0.124-2.562-0.708-4.835-2.582-6.709-1.877-1.877-4.147-2.458-6.708-2.582-2.209-0.124-4.399-0.104-6.604-0.104-2.209 0-4.399-0.020-6.604 0.104-2.562 0.124-4.835 0.708-6.708 2.582-1.877 1.877-2.458 4.147-2.582 6.709-0.124 2.209-0.104 4.399-0.104 6.604s-0.020 4.399 0.104 6.604c0.124 2.562 0.708 4.835 2.582 6.709 1.877 1.877 4.147 2.458 6.708 2.582 2.209 0.124 4.399 0.104 6.604 0.104 2.209 0 4.399 0.020 6.604-0.104 2.562-0.124 4.835-0.708 6.708-2.582 1.877-1.877 2.458-4.147 2.582-6.709 0.128-2.206 0.104-4.395 0.104-6.604zM28.476 25.438c-0.292 0.729-0.644 1.273-1.209 1.833-0.564 0.564-1.105 0.917-1.833 1.209-2.105 0.836-7.105 0.648-9.438 0.648s-7.337 0.188-9.442-0.644c-0.729-0.292-1.273-0.644-1.833-1.209-0.564-0.564-0.917-1.105-1.209-1.833-0.833-2.11-0.644-7.109-0.644-9.442s-0.188-7.337 0.644-9.442c0.292-0.729 0.644-1.273 1.209-1.833s1.105-0.917 1.833-1.209c2.105-0.833 7.109-0.644 9.442-0.644s7.337-0.188 9.442 0.644c0.729 0.292 1.273 0.644 1.833 1.209 0.564 0.564 0.917 1.105 1.209 1.833 0.832 2.105 0.644 7.109 0.644 9.442s0.188 7.333-0.649 9.438z"></path>
</symbol>
<symbol id="icon-person" viewBox="0 0 38 32">
<path d="M36 32h-19.2c0 0-2.4 0-2.4-2.667s2.4-10.667 12-10.667 12 8 12 10.667c0 2.667-2.4 2.667-2.4 2.667zM16.812 29.483v0zM16.853 29.333h19.094c0.011-0.001 0.022-0.003 0.034-0.005l0.019-0.005c-0.005-0.704-0.401-2.747-1.824-4.587-1.325-1.725-3.653-3.403-7.776-3.403-4.121 0-6.449 1.68-7.776 3.403-1.423 1.84-1.822 3.885-1.824 4.587 0.018 0.004 0.035 0.007 0.053 0.011zM35.988 29.483v0zM26.4 13.333c1.273 0 2.494-0.562 3.394-1.562s1.406-2.357 1.406-3.771c0-1.415-0.506-2.771-1.406-3.771s-2.121-1.562-3.394-1.562c-1.273 0-2.494 0.562-3.394 1.562s-1.406 2.357-1.406 3.771c0 1.414 0.506 2.771 1.406 3.771s2.121 1.562 3.394 1.562zM33.6 8c0 1.051-0.186 2.091-0.548 3.061s-0.892 1.852-1.561 2.595c-0.669 0.743-1.462 1.332-2.336 1.734s-1.81 0.609-2.755 0.609c-0.945 0-1.882-0.207-2.755-0.609s-1.667-0.991-2.336-1.734c-0.669-0.743-1.199-1.625-1.561-2.595s-0.548-2.011-0.548-3.061c0-2.122 0.759-4.157 2.109-5.657s3.182-2.343 5.091-2.343c1.91 0 3.741 0.843 5.091 2.343s2.109 3.535 2.109 5.657zM16.646 19.413c-0.768 0.659-1.447 1.392-2.030 2.176-1.711 2.299-2.616 5.051-2.616 7.744-0.015 0.921 0.163 1.834 0.518 2.667h-10.118c-1.601 0-2.4-0.888-2.4-2.667 0-2.667 2.4-10.667 12-10.667 0.566-0.001 1.131 0.028 1.694 0.088 1.002 0.102 1.992 0.323 2.952 0.659zM11.808 21.333c-4.003 0.053-6.276 1.707-7.584 3.403-1.433 1.851-1.824 3.901-1.824 4.597h7.2c0-2.787 0.775-5.563 2.208-8zM3.6 9.333c0-2.122 0.759-4.157 2.109-5.657s3.182-2.343 5.091-2.343c1.91 0 3.741 0.843 5.091 2.343s2.109 3.535 2.109 5.657c0 2.122-0.759 4.157-2.109 5.657s-3.182 2.343-5.091 2.343-3.741-0.843-5.091-2.343c-1.35-1.5-2.109-3.535-2.109-5.657zM10.8 4c-1.273 0-2.494 0.562-3.394 1.562s-1.406 2.357-1.406 3.771c0 1.415 0.506 2.771 1.406 3.771s2.121 1.562 3.394 1.562c1.273 0 2.494-0.562 3.394-1.562s1.406-2.357 1.406-3.771c0-1.414-0.506-2.771-1.406-3.771s-2.121-1.562-3.394-1.562z"></path>
</symbol>
<symbol id="icon-search" viewBox="0 0 32 32">
<path d="M31.609 29.726l-9.1-9.1c1.763-2.177 2.824-4.944 2.824-7.957 0-6.984-5.683-12.667-12.667-12.667s-12.666 5.683-12.666 12.666c0 6.984 5.683 12.667 12.667 12.667 3.013 0 5.78-1.061 7.957-2.824l9.1 9.1c0.26 0.26 0.601 0.391 0.943 0.391s0.683-0.131 0.943-0.391c0.521-0.521 0.521-1.364-0-1.885zM12.667 22.668c-5.515 0-10-4.485-10-10s4.485-10 10-10c5.515 0 10 4.485 10 10s-4.485 10-10 10z"></path>
</symbol>
<symbol id="icon-tag" viewBox="0 0 35 32">
<path d="M6.581 2.194v10.061l15.357 15.357 10.061-10.061-15.357-15.357h-10.061zM4.388 2.194c0-0.582 0.231-1.14 0.643-1.551s0.969-0.643 1.551-0.643h10.061c0.582 0 1.14 0.231 1.551 0.643l15.358 15.357c0.411 0.411 0.642 0.969 0.642 1.551s-0.231 1.14-0.642 1.551l-10.061 10.061c-0.411 0.411-0.969 0.642-1.551 0.642s-1.14-0.231-1.551-0.642l-15.357-15.357c-0.411-0.411-0.643-0.969-0.643-1.551v-10.061z"></path>
<path d="M12.066 8.776c-0.291 0-0.57-0.116-0.776-0.321s-0.321-0.485-0.321-0.776c0-0.291 0.116-0.57 0.321-0.776s0.485-0.321 0.776-0.321c0.291 0 0.57 0.116 0.776 0.321s0.321 0.485 0.321 0.776c0 0.291-0.116 0.57-0.321 0.776s-0.485 0.321-0.776 0.321zM12.066 10.97c0.873 0 1.71-0.347 2.327-0.964s0.964-1.454 0.964-2.327c0-0.873-0.347-1.71-0.964-2.327s-1.454-0.964-2.327-0.964c-0.873 0-1.71 0.347-2.327 0.964s-0.964 1.454-0.964 2.327c0 0.873 0.347 1.71 0.964 2.327s1.454 0.964 2.327 0.964z"></path>
<path d="M2.194 13.352c0 0.582 0.231 1.14 0.643 1.551l16.36 16.36-0.094 0.094c-0.411 0.411-0.969 0.642-1.551 0.642s-1.14-0.231-1.551-0.642l-15.357-15.357c-0.411-0.411-0.643-0.969-0.643-1.551v-10.061c0-0.582 0.231-1.14 0.643-1.551s0.969-0.643 1.551-0.643v11.158z"></path>
</symbol>
<symbol id="icon-time" viewBox="0 0 32 32">
<path d="M16 30c3.713 0 7.274-1.475 9.899-4.101s4.101-6.186 4.101-9.899c0-3.713-1.475-7.274-4.101-9.899s-6.186-4.101-9.899-4.101c-3.713 0-7.274 1.475-9.899 4.101s-4.101 6.186-4.101 9.899c0 3.713 1.475 7.274 4.101 9.899s6.186 4.101 9.899 4.101zM32 16c0 4.243-1.686 8.313-4.686 11.314s-7.070 4.686-11.314 4.686-8.313-1.686-11.314-4.686c-3.001-3.001-4.686-7.070-4.686-11.314s1.686-8.313 4.686-11.314c3.001-3.001 7.070-4.686 11.314-4.686s8.313 1.686 11.314 4.686c3.001 3.001 4.686 7.070 4.686 11.314z"></path>
<path d="M15 6c0.265 0 0.52 0.105 0.707 0.293s0.293 0.442 0.293 0.707v10.42l6.496 3.712c0.224 0.135 0.386 0.352 0.451 0.605s0.030 0.521-0.1 0.748c-0.13 0.227-0.343 0.394-0.594 0.465s-0.52 0.042-0.75-0.082l-7-4c-0.153-0.087-0.28-0.214-0.369-0.366s-0.135-0.326-0.135-0.502v-11c0-0.265 0.105-0.52 0.293-0.707s0.442-0.293 0.707-0.293z"></path>
</symbol>
<symbol id="icon-twitter" viewBox="0 0 39 32">
<path d="M39.385 3.801c-1.448 0.625-3.025 1.075-4.648 1.25 1.685-1.001 2.948-2.584 3.55-4.45-1.582 0.941-3.314 1.601-5.121 1.95-0.755-0.807-1.669-1.451-2.683-1.89s-2.109-0.664-3.214-0.662c-4.473 0-8.070 3.626-8.070 8.076 0 0.625 0.076 1.25 0.199 1.851-6.697-0.35-12.671-3.55-16.642-8.45-0.724 1.236-1.103 2.643-1.098 4.076 0 2.802 1.425 5.273 3.597 6.727-1.28-0.050-2.531-0.402-3.649-1.027v0.099c0 3.924 2.774 7.176 6.47 7.924-0.694 0.18-1.408 0.273-2.125 0.275-0.525 0-1.022-0.052-1.524-0.123 1.022 3.2 4 5.524 7.545 5.6-2.774 2.173-6.248 3.451-10.020 3.451-0.677 0-1.302-0.024-1.95-0.099 3.578 2.296 7.824 3.621 12.396 3.621 14.843 0 22.965-12.298 22.965-22.973 0-0.35 0-0.701-0.024-1.051 1.571-1.15 2.949-2.575 4.047-4.175z"></path>
</symbol>
<symbol id="icon-vk" viewBox="0 0 54 32">
<path d="M52.912 2.167c0.378-1.25 0-2.167-1.789-2.167h-5.927c-1.508 0-2.197 0.793-2.575 1.664 0 0-3.013 7.31-7.283 12.050-1.378 1.379-2.008 1.815-2.759 1.815-0.376 0-0.922-0.436-0.922-1.686v-11.677c0-1.5-0.435-2.167-1.692-2.167h-9.313c-0.94 0-1.508 0.694-1.508 1.355 0 1.42 2.135 1.748 2.354 5.748v8.679c0 1.901-0.343 2.248-1.1 2.248-2.008 0-6.894-7.337-9.794-15.736-0.565-1.632-1.135-2.291-2.648-2.291h-5.924c-1.694 0-2.032 0.793-2.032 1.664 0 1.565 2.008 9.308 9.353 19.549 4.897 6.993 11.791 10.784 18.072 10.784 3.764 0 4.229-0.842 4.229-2.293v-5.286c0-1.683 0.359-2.022 1.551-2.022 0.876 0 2.383 0.441 5.9 3.81 4.016 3.995 4.681 5.789 6.937 5.789h5.924c1.692 0 2.538-0.842 2.051-2.503-0.532-1.653-2.451-4.060-4.997-6.907-1.384-1.624-3.451-3.372-4.081-4.245-0.878-1.127-0.624-1.624 0-2.624 0.003 0.003 7.221-10.112 7.972-13.551z"></path>
</symbol>
</defs>
</svg>
