<?xml version="1.0" encoding="utf-8"?>
<svg version="1.1" xmlns:xlink="http://www.w3.org/1999/xlink" width="20px" height="30px" xmlns="http://www.w3.org/2000/svg">
  <g transform="matrix(1 0 0 1 -660 -560 )">
    <path d="M 19.6563573883161 1.80360721442889  C 19.885452462772 2.00400801603212  20 2.2344689378757  20 2.49498997995988  C 20 2.75551102204406  19.885452462772 2.98597194388776  19.6563573883161 3.18637274549098  L 6.15120274914085 15  L 19.6563573883161 26.813627254509  C 19.885452462772 27.0140280561122  20 27.2444889779559  20 27.5050100200401  C 20 27.7655310621243  19.885452462772 27.9959919839679  19.6563573883161 28.1963927855711  L 17.9381443298969 29.6993987975952  C 17.709049255441 29.8997995991984  17.4455899198168 30  17.1477663230241 30  C 16.8499427262313 30  16.5864833906071 29.8997995991984  16.3573883161512 29.6993987975952  L 0.34364261168389 15.6913827655311  C 0.114547537227963 15.4909819639279  0 15.2605210420842  0 15  C 0 14.7394789579158  0.114547537227963 14.5090180360721  0.34364261168389 14.3086172344689  L 16.3573883161512 0.300601202404778  C 16.5864833906071 0.100200400801555  16.8499427262313 0  17.1477663230241 0  C 17.4455899198168 0  17.709049255441 0.100200400801555  17.9381443298969 0.300601202404778  L 19.6563573883161 1.80360721442889  Z " fill-rule="nonzero" fill="#c9c9c9" stroke="none" transform="matrix(1 0 0 1 660 560 )" />
  </g>
</svg>