<?xml version="1.0" encoding="UTF-8"?>
<svg version="1.1" xmlns:xlink="http://www.w3.org/1999/xlink" width="30px" height="30px" xmlns="http://www.w3.org/2000/svg">
  <g transform="matrix(1 0 0 1 -690 -560 )">
    <path d="M 705 561  C 712.84 561  719 567.16  719 575  C 719 582.84  712.84 589  705 589  C 697.16 589  691 582.84  691 575  C 691 567.16  697.16 561  705 561  Z " fill-rule="nonzero" fill="#ffffff" stroke="none"/>
    <path d="M 705 561  C 712.84 561  719 567.16  719 575  C 719 582.84  712.84 589  705 589  C 697.16 589  691 582.84  691 575  C 691 567.16  697.16 561  705 561  Z " stroke-width="2" stroke="#949494" fill="none"/>
  </g>
</svg>