<?xml version="1.0" encoding="UTF-8"?>
<svg version="1.1" xmlns:xlink="http://www.w3.org/1999/xlink" width="30px" height="30px" xmlns="http://www.w3.org/2000/svg">
  <g transform="matrix(1 0 0 1 -730 -560 )">
    <path d="M 745 561  C 752.84 561  759 567.16  759 575  C 759 582.84  752.84 589  745 589  C 737.16 589  731 582.84  731 575  C 731 567.16  737.16 561  745 561  Z " fill-rule="nonzero" fill="#e4e4e4" stroke="none"/>
    <path d="M 745 561  C 752.84 561  759 567.16  759 575  C 759 582.84  752.84 589  745 589  C 737.16 589  731 582.84  731 575  C 731 567.16  737.16 561  745 561  Z " stroke-width="2" stroke="#949494" fill="none"/>
  </g>
</svg>