<svg width="70" height="23" viewBox="0 0 70 23" fill="none" xmlns="http://www.w3.org/2000/svg">
<path d="M45.7218 0.244019C40.1543 0.244019 36.2435 3.20449 36.209 7.43763C36.1737 10.5736 39.0057 12.3223 41.1358 13.3645C43.3333 14.43 44.0673 15.1148 44.0601 16.068C44.0383 17.5292 42.3017 18.1948 40.688 18.1948C38.4382 18.1948 37.2389 17.8662 35.3953 17.0553L34.6643 16.7078L33.8769 21.5867C35.1932 22.1938 37.6239 22.7199 40.1509 22.7474C46.0589 22.7474 49.9029 19.8209 49.9486 15.3023C49.9719 12.815 48.4686 10.9326 45.2184 9.37835C43.2563 8.36783 42.0431 7.69778 42.0612 6.67385C42.0627 5.76913 43.0793 4.7995 45.2859 4.7995C47.1289 4.76848 48.4543 5.19158 49.4978 5.63724L49.9998 5.88773L50.7655 1.16151C49.6534 0.722128 47.8984 0.244143 45.7215 0.244143L45.7218 0.244019ZM28.2441 0.624257L24.7228 22.4251H30.3488L33.8722 0.624008H28.2448L28.2441 0.624257ZM20.0017 0.64541L14.4926 15.5034L13.9053 12.4843C12.5333 8.78223 9.56329 4.89891 6.10449 3.32508L11.144 22.4043L17.1014 22.4015L25.9607 0.645574H20.0017V0.64541ZM60.8524 0.64682C59.5044 0.64682 58.4943 1.03113 57.8993 2.4563L49.5447 22.4323H55.4557C55.4557 22.4323 56.4222 19.7434 56.6407 19.1547C57.2858 19.1547 63.0269 19.1671 63.846 19.1671C64.0202 19.9273 64.5313 22.432 64.5313 22.432H69.7577L65.2005 0.646833H60.8526L60.8524 0.64682ZM61.2501 6.52431L61.6251 8.40373C61.6251 8.40373 62.7066 13.6054 62.9323 14.6948H58.2601C58.7276 13.4439 60.5021 8.60111 60.5021 8.60111C60.4676 8.66034 60.9638 7.34013 61.25 6.52424L61.2501 6.52431Z" fill="#004CA8"/>
<path d="M9.38297 0.633961H0.305807L0.25293 1.00911C7.31027 2.81439 11.9663 7.2476 13.9049 12.49L11.9323 2.47023C11.5932 1.09226 10.6055 0.682574 9.38297 0.633911" fill="#FFA600"/>
</svg>
