<svg width="60" height="60" viewBox="0 0 60 60" fill="none" xmlns="http://www.w3.org/2000/svg">
<path d="M30.0004 59.9389C46.5352 59.9389 59.9393 46.5348 59.9393 30C59.9393 13.4653 46.5352 0.0611572 30.0004 0.0611572C13.4656 0.0611572 0.0615234 13.4653 0.0615234 30C0.0615234 46.5348 13.4656 59.9389 30.0004 59.9389Z" fill="#FC3F1D"/>
<path d="M40.8336 48.7945H34.2614V16.289H31.3336C25.9669 16.289 23.1558 18.9723 23.1558 22.9778C23.1558 27.5223 25.0947 29.6278 29.1058 32.3112L32.4114 34.539L22.9114 48.789H15.8447L24.3947 36.0667C19.4781 32.5556 16.7114 29.1278 16.7114 23.3445C16.7114 16.1167 21.7503 11.2001 31.2892 11.2001H40.7892V48.7834H40.8336V48.7945Z" fill="white"/>
</svg>
