<?xml version="1.0" standalone="no"?>
<!DOCTYPE svg PUBLIC "-//W3C//DTD SVG 1.1//EN" "http://www.w3.org/Graphics/SVG/1.1/DTD/svg11.dtd" >
<svg>
<metadata>
Created by FontForge 20090914 at Tue Jul 27 13:30:21 2021
 By www-data
Copyright &#194;&#169; 2014 ParaType Inc., ParaType Ltd. All rights reserved.
</metadata>
<defs>
<font id="DIN2014-Bold" horiz-adv-x="486" >
  <font-face 
    font-family="DIN 2014"
    font-weight="700"
    font-stretch="normal"
    units-per-em="1000"
    panose-1="2 11 7 4 2 2 2 2 2 4"
    ascent="779"
    descent="-221"
    x-height="500"
    cap-height="690"
    bbox="-378 -297.001 3054 1010"
    underline-thickness="50"
    underline-position="-200"
    unicode-range="U+0020-U+1F4F1"
  />
<missing-glyph horiz-adv-x="250" 
 />
    <glyph glyph-name="afii10017.var.accented" unicode="&#x410;`" horiz-adv-x="607" 
d="M188 131l-42 -131h-150l240 690h134l240 -690h-149l-42 131h-231zM381 249l-78 243l-78 -243h156zM368 742h-124l80 129h147z" />
    <glyph glyph-name="afii10022.var.accented" unicode="&#x415;`" horiz-adv-x="527" 
d="M68 0v690h430v-119h-290v-155h260v-118h-260v-180h290v-118h-430zM325 742h-124l80 129h147z" />
    <glyph glyph-name="afii10026.var.accented" unicode="&#x418;`" horiz-adv-x="676" 
d="M68 0v690h140v-433l288 433h112v-690h-140v428l-285 -428h-115zM395 742h-124l80 129h147z" />
    <glyph glyph-name="afii10032.var.accented" unicode="&#x41e;`" horiz-adv-x="623" 
d="M576 394v-98c0 -100 -23.333 -175.833 -70 -227.5s-111.667 -77.5 -195 -77.5s-148.166 25.833 -194.499 77.5s-69.5 127.5 -69.5 227.5v98c0 100.667 23.167 176.667 69.5 228s111.166 77 194.499 77c84 0 149.167 -25.667 195.5 -77s69.5 -127.333 69.5 -228zM187 394
v-98c0 -124.667 41.333 -187 124 -187c83.333 0 125 62.333 125 187v98c0 124.667 -41.667 187 -125 187c-82.667 0 -124 -62.333 -124 -187zM361 742h-124l80 129h147z" />
    <glyph glyph-name="afii10037.var.accented" unicode="&#x423;`" horiz-adv-x="579" 
d="M311 346l123.999 344h144l-212 -550c-22.667 -58 -52 -97.333 -88 -118c-35.333 -20.667 -89 -31 -161 -31v122c38 0 65.833 3.5 83.5 10.5s31.834 20.5 42.501 40.5l-236 526h155zM356.999 742h-124l80 129h147z" />
    <glyph glyph-name="afii10045.var.accented" unicode="&#x42b;`" horiz-adv-x="816" 
d="M68 0l0.000976562 690h140v-253h97c85.333 0 149.666 -19.5 192.999 -58.5s65 -92.5 65 -160.5c0 -67.333 -22.667 -120.5 -68 -159.5s-113.333 -58.5 -204 -58.5h-223zM608.001 690h140v-690h-140v690zM297.001 319h-89v-201h89c84 0 126 33.333 126 100
c0 67.333 -42 101 -126 101zM448.001 742h-124l80 129h147z" />
    <glyph glyph-name="afii10047.var.accented" unicode="&#x42d;`" horiz-adv-x="594" 
d="M407 288h-208v118h208c-2.66699 116.667 -44.334 175 -125.001 175c-65.333 0 -104.666 -35 -117.999 -105h-134c11.333 73.333 38.5 128.833 81.5 166.5s99.833 56.5 170.5 56.5c84 0 149.167 -25.667 195.5 -77s69.5 -127.333 69.5 -228v-98
c0 -100 -23.333 -175.833 -70 -227.5s-111.667 -77.5 -195 -77.5c-145.333 0 -229.333 74.333 -252 223h134c7.33301 -36 20.5 -62.5 39.5 -79.5s45.167 -25.5 78.5 -25.5c81.333 0 123 59.667 125 179zM333 742h-124l80 129h147z" />
    <glyph glyph-name="afii10048.var.accented" unicode="&#x42e;`" horiz-adv-x="842" 
d="M795 384v-78c0 -210 -83.333 -315 -250 -315c-164.667 0 -248 102.333 -250 307h-87v-298h-140v690h140v-274h87c8.66699 188.667 92 283 250 283c166.667 0 250 -105 250 -315zM435 378v-65.001c0 -72 8.5 -124 25.5 -156s45.167 -48 84.5 -48
c40 0 68.333 15.833 85 47.5s25 83.834 25 156.501v65c0 71.333 -8.33301 123 -25 155s-45 48 -85 48c-39.333 0 -67.5 -16 -84.5 -48s-25.5 -83.667 -25.5 -155zM394 741.999h-124l80 129h147z" />
    <glyph glyph-name="afii10049.var.accented" unicode="&#x42f;`" horiz-adv-x="614" 
d="M310 271l-143.001 -271h-154l160 289c-88 31.333 -132 95.333 -132 192c0 68 22.833 119.833 68.5 155.5s109.834 53.5 192.501 53.5h244v-690h-140v271h-96zM311.999 389h94v182h-94c-45.333 0 -78.5 -7 -99.5 -21s-31.5 -37 -31.5 -69
c0 -32.667 9.66699 -56.167 29 -70.5s53.333 -21.5 102 -21.5zM372.999 742h-124l80 129h147z" />
    <glyph glyph-name="afii10023.var.accented" unicode="&#x401;`" horiz-adv-x="527" 
d="M68 0v690h430v-119h-290v-155h260v-118h-260v-180h290v-118h-430zM243 752h-124v117h124v-117zM446 752h-124v117h124v-117zM341 881h-124l80 129h147z" />
    <glyph glyph-name="afii10065.var.accented" unicode="&#x430;`" 
d="M26 148c0 49.333 16.667 87 50 113s78.333 39 135 39h99v29c0 28.667 -6 48.167 -18 58.5s-35.667 15.5 -71 15.5c-26 0 -45.667 -2.66699 -59 -8s-25 -16 -35 -32l-90 63c18 30 42.167 51.333 72.5 64s71.5 19 123.5 19c70.667 0 122 -13.667 154 -41s48 -74 48 -140
v-328h-125v44c-21.333 -35.333 -57.333 -53 -108 -53c-54 0 -96.833 13.833 -128.5 41.5s-47.5 66.167 -47.5 115.5zM310 187v19.001h-84c-50 0 -75 -18.667 -75 -56s24.333 -56 73 -56c30 0 51.833 7.16699 65.5 21.5s20.5 38.166 20.5 71.499zM284 567.001h-122l70 158
h143z" />
    <glyph glyph-name="afii10070.var.accented" unicode="&#x435;`" 
d="M343 142l95.002 -66c-32.667 -56.667 -93.667 -85 -183 -85c-70.667 0 -125.334 20.5 -164.001 61.5s-58 95.833 -58 164.5v68c0 73.333 17.667 129 53 167s86.333 57 153 57c137.333 0 206 -78 206 -234v-57h-285c1.33301 -79.333 32.666 -119 93.999 -119
c24 0 42.167 3.16699 54.5 9.5s23.833 17.5 34.5 33.5zM240.002 401c-48 0 -74.667 -30.667 -80 -92h157c-3.33301 61.333 -29 92 -77 92zM301.002 567h-122l70 158h143z" />
    <glyph glyph-name="afii10074.var.accented" unicode="&#x438;`" horiz-adv-x="532" 
d="M51 500h128v-273l191 273h110v-500h-127v283l-193 -283h-109v500zM324 567h-122l70 158h143z" />
    <glyph glyph-name="afii10080.var.accented" unicode="&#x43e;`" horiz-adv-x="499" 
d="M465 281l-0.000976562 -59.999c0 -72.667 -18.167 -129.167 -54.5 -169.5s-90.166 -60.5 -161.499 -60.5c-70 0 -123.5 20.167 -160.5 60.5s-55.5 96.833 -55.5 169.5v60c0 74 18.5 130.5 55.5 169.5s90.5 58.5 160.5 58.5s123.5 -19.333 160.5 -58
s55.5 -95.334 55.5 -170.001zM248.999 99.001c59.333 0 89 42 89 126v52c0 82.667 -29.667 124 -89 124s-89 -41.333 -89 -124v-52c0 -42 6.83301 -73.5 20.5 -94.5s36.5 -31.5 68.5 -31.5zM300.999 567.001h-122l70 158h143z" />
    <glyph glyph-name="afii10085.var.accented" unicode="&#x443;`" horiz-adv-x="479" 
d="M192 -7l-187.002 507h134l111 -320l100 320h129l-175 -523c-23.333 -68 -49.666 -112.667 -78.999 -134c-30 -22 -80 -33 -150 -33v114c36.667 0 62.834 4.5 78.501 13.5s28.5 27.5 38.5 55.5zM306.998 567h-122l70 158h143z" />
    <glyph glyph-name="afii10093.var.accented" unicode="&#x44b;`" horiz-adv-x="661" 
d="M51 0v500h128v-172h53c140.667 0 211 -54.333 211 -163c0 -54 -17.5 -95 -52.5 -123s-84.5 -42 -148.5 -42h-191zM482 0v500h127v-500h-127zM223 220h-44v-112h56c47.333 0 71 19 71 57c0 36.667 -27.667 55 -83 55zM373 567h-122l70 158h143z" />
    <glyph glyph-name="afii10095.var.accented" unicode="&#x44d;`" horiz-adv-x="451" 
d="M290 204h-155.999v99h156c-3.33301 65.333 -35.333 98 -96 98c-36 0 -63.667 -14 -83 -42l-95 67c42 55.333 99.667 83 173 83c75.333 0 132.333 -19.167 171 -57.5s58 -93.833 58 -166.5v-68c0 -71.333 -19.667 -126.833 -59 -166.5s-96 -59.5 -170 -59.5
c-82.667 0 -141.334 28.333 -176.001 85l93 66c20 -28.667 49.333 -43 88 -43c62.667 0 94.667 35 96 105zM260.001 567h-122l70 158h143z" />
    <glyph glyph-name="afii10096.var.accented" unicode="&#x44e;`" horiz-adv-x="691" 
d="M657 285l-0.000976562 -67.999c0 -70 -18 -125.167 -54 -165.5s-86 -60.5 -150 -60.5c-60.667 0 -109.167 18.167 -145.5 54.5s-55.833 88.166 -58.5 155.499h-70v-201h-128v500h128v-190h71c4 64 23.667 113.167 59 147.5s83.333 51.5 144 51.5
c64.667 0 114.834 -19.167 150.501 -57.5s53.5 -93.833 53.5 -166.5zM452.999 99.001c51.333 0 77 41.333 77 124v56c0 81.333 -25.667 122 -77 122s-77 -40.667 -77 -122v-56c0 -42.667 6 -74 18 -94s31.667 -30 59 -30zM332.999 567.001h-122l70 158h143z" />
    <glyph glyph-name="afii10097.var.accented" unicode="&#x44f;`" horiz-adv-x="500" 
d="M448 500v-500.001h-127v178h-63l-105 -178h-135l120 199c-62.667 26.667 -94 75.334 -94 146.001c0 48 17 85.833 51 113.5s85 41.5 153 41.5h200zM262 283.999h59v108h-67c-48.667 0 -73 -17.667 -73 -53c0 -36.667 27 -55 81 -55zM325 566.999h-122l70 158h143z" />
    <glyph glyph-name="afii10071.var.accented" unicode="&#x451;`" 
d="M343 142l95.002 -66c-32.667 -56.667 -93.667 -85 -183 -85c-70.667 0 -125.334 20.5 -164.001 61.5s-58 95.833 -58 164.5v68c0 73.333 17.667 129 53 167s86.333 57 153 57c137.333 0 206 -78 206 -234v-57h-285c1.33301 -79.333 32.666 -119 93.999 -119
c24 0 42.167 3.16699 54.5 9.5s23.833 17.5 34.5 33.5zM240.002 401c-48 0 -74.667 -30.667 -80 -92h157c-3.33301 61.333 -29 92 -77 92zM293.002 717h-122l70 158h143zM197.002 573h-124v117h124v-117zM400.002 573h-123v117h123v-117z" />
    <glyph glyph-name="fi" unicode="fi" horiz-adv-x="494" 
d="M14 392v108h64v27c0 62 12.667 104.667 38 128c26.667 23.333 71 35 133 35h37v-112h-24c-22 0 -37 -5.16699 -45 -15.5s-12 -28.833 -12 -55.5v-7h252v-500h-128v392h-124v-392h-127v392h-64z" />
    <glyph glyph-name="fl" unicode="fl" horiz-adv-x="553" 
d="M330 160l-0.000976562 418h-68c-22 0 -37 -5.16699 -45 -15.5s-12 -28.833 -12 -55.5v-7h81v-108h-81v-392h-127v392h-64v108h64v27c0 62 12.667 104.667 38 128c26.667 23.333 71 35 133 35h209v-501c0 -28.667 5.16699 -49 15.5 -61s28.5 -18 54.5 -18v-110
c-71.333 -0 -122.166 11.833 -152.499 35.5s-45.5 65.167 -45.5 124.5z" />
    <glyph glyph-name=".notdef" horiz-adv-x="250" 
 />
    <glyph glyph-name="space" unicode=" " horiz-adv-x="250" 
 />
    <glyph glyph-name="exclam" unicode="!" horiz-adv-x="250" 
d="M62 690h126v-501h-126v501zM193 0h-136v136h136v-136z" />
    <glyph glyph-name="quotedbl" unicode="&#x22;" horiz-adv-x="362" 
d="M40 690h120v-183h-120v183zM203 690h119v-183h-119v183z" />
    <glyph glyph-name="numbersign" unicode="#" horiz-adv-x="615" 
d="M51 389v112h105l35 189h128l-35 -189h96l35 189h128l-35 -189h79v-112h-100l-16 -85h79v-112h-100l-36 -192h-127l35 192h-96l-35 -192h-129l36 192h-84v112h105l16 85h-84zM359 389h-96l-16 -85h96z" />
    <glyph glyph-name="dollar" unicode="$" horiz-adv-x="540" 
d="M515 583l-104.998 -74.999c-22.667 34.667 -50.334 56.667 -83.001 66v-174c69.333 -19.333 119 -44.333 149 -75c30.667 -30.667 46 -74.334 46 -131.001c0 -54.667 -16 -99.667 -48 -135s-78.333 -57 -139 -65v-110h-116v111c-86 11.333 -153 48.666 -201 111.999
l107 75c29.333 -37.333 63 -60 101 -68v180c-64.667 18.667 -112.334 44.834 -143.001 78.501s-46 77.167 -46 130.5c0 52 15.5 95 46.5 129s76.167 55 135.5 63v117h116v-118c79.333 -12 139.333 -49 180 -111zM382.002 187.001c0 32 -18.333 56.999 -55 74.999v-146
c36.667 10.667 55 34.334 55 71.001zM177.002 504c0 -31.333 16.333 -55.333 49 -72v141c-32.667 -10.667 -49 -33.667 -49 -69z" />
    <glyph glyph-name="percent" unicode="%" horiz-adv-x="759" 
d="M124 0l386 690h123l-385 -690h-124zM739 200l0.000976562 -59.001c0 -100 -50.333 -150 -151 -150c-48.667 0 -85.834 12.833 -111.501 38.5s-38.5 62.834 -38.5 111.501v59c0 48 13 84.667 39 110s63 38 111 38c100.667 0 151 -49.333 151 -148zM588.001 77.999
c32 0 48 21 48 63v56c0 42 -16 63 -48 63c-30.667 0 -46 -21 -46 -63v-56c0 -42 15.333 -63 46 -63zM323.001 550.999v-59.001c0 -100 -50.667 -150 -152 -150c-48.667 0 -85.667 12.833 -111 38.5s-38 62.834 -38 111.501v59c0 48 12.833 84.667 38.5 110s62.5 38 110.5 38
c101.333 0 152 -49.333 152 -148zM172.001 428.998c32 0 48 21 48 63v56c0 42 -16 63 -48 63c-30.667 0 -46 -21 -46 -63v-56c0 -42 15.333 -63 46 -63z" />
    <glyph glyph-name="ampersand" unicode="&#x26;" horiz-adv-x="666" 
d="M35 183c0 40 9.66797 75.666 29.001 106.999s48.333 62.333 87 93c-44 54 -66 107 -66 159c0 46 17.667 83.667 53 113s80.666 44 135.999 44c58 0 103.667 -13 137 -39s50 -58.667 50 -98c0 -23.333 -7.66699 -47.333 -23 -72c-14.667 -23.333 -31 -43 -49 -59
c-13.333 -11.333 -37 -29.666 -71 -54.999l132 -147c9.33301 29.333 14 60.333 14 93h132c0 -73.333 -18 -138.333 -54 -195l115 -127h-161l-38 41c-51.333 -33.333 -113 -50 -185 -50c-72.667 0 -130.667 19 -174 57c-42.667 38 -64 83 -64 135zM279.001 108.999
c37.333 0 69.666 7.66699 96.999 23l-153 168c-34.667 -32.667 -52 -65 -52 -97c0 -28.667 9.83301 -51.5 29.5 -68.5s45.834 -25.5 78.501 -25.5zM218.001 541.999c0 -25.333 11.667 -54.668 35 -88.001c28.667 20 49.5 37.5 62.5 52.5s19.5 30.833 19.5 47.5
c0 14 -5.33301 25.5 -16 34.5s-25 13.5 -43 13.5s-32.167 -5.16699 -42.5 -15.5s-15.5 -25.166 -15.5 -44.499z" />
    <glyph glyph-name="quotesingle" unicode="'" horiz-adv-x="200" 
d="M40 690h120v-183h-120v183z" />
    <glyph glyph-name="parenleft" unicode="(" horiz-adv-x="317" 
d="M307 -17l-70 -99c-68 43.333 -114 84.666 -138 123.999c-24 40 -36 89 -36 147v386c0 58 12 106.667 36 146c24 40.667 70 82.334 138 125.001l70 -99c-31.333 -23.333 -54.666 -42.333 -69.999 -57c-31.333 -31.333 -47 -78.333 -47 -141v-334c0 -36 4.33301 -65 13 -87
s20 -40 34 -54c15.333 -14.667 38.666 -33.667 69.999 -57z" />
    <glyph glyph-name="parenright" unicode=")" horiz-adv-x="317" 
d="M93 -116l-70.001 99c32.667 24.667 55.667 43.667 69 57c32 30.667 48 77.667 48 141v334c0 34 -4.66699 63 -14 87c-9.33301 23.333 -20.666 41.333 -33.999 54c-13.333 13.333 -36.333 32.333 -69 57l70 99c68 -42.667 114 -84.334 138 -125.001
c24 -39.333 36 -88 36 -146v-386c0 -58 -12 -107 -36 -147c-24 -39.333 -70 -80.666 -138 -123.999z" />
    <glyph glyph-name="asterisk" unicode="*" horiz-adv-x="425" 
d="M159 690h95l-5 -102l85 56l47 -82l-88 -46l89 -47l-48 -81l-85 54l5 -101h-95l4 100l-83 -54l-48 82l90 46l-89 47l46 82l84 -54z" />
    <glyph glyph-name="plus" unicode="+" horiz-adv-x="540" 
d="M197 300h-139v108h139v141h110v-141h140v-108h-140v-140h-110v140z" />
    <glyph glyph-name="comma" unicode="," horiz-adv-x="256" 
d="M60 156h136v-202l-136 -116v318z" />
    <glyph glyph-name="hyphen" unicode="-" horiz-adv-x="319" 
d="M289 233h-259v112h259v-112z" />
    <glyph glyph-name="period" unicode="." horiz-adv-x="276" 
d="M60 156h156v-156h-156v156z" />
    <glyph glyph-name="slash" unicode="/" horiz-adv-x="485" 
d="M498 812l-336 -928h-115l336 928h115z" />
    <glyph glyph-name="zero" unicode="0" horiz-adv-x="540" 
d="M502 480v-269.001c0 -72.667 -22 -127.667 -66 -165c-42.667 -36.667 -98 -55 -166 -55s-123.667 18.333 -167 55c-43.333 37.333 -65 92.333 -65 165v268c0 76 21.667 131.667 65 167s99 53 167 53s123.667 -17.667 167 -53s65 -90.666 65 -165.999zM362 222.999v244
c0 76 -30.667 114 -92 114c-62 0 -93 -38 -93 -114v-244c0 -76 31 -114 93 -114c61.333 0 92 38 92 114z" />
    <glyph glyph-name="one" unicode="1" horiz-adv-x="540" 
d="M238 690h126v-690h-140v544l-99 -65v135z" />
    <glyph glyph-name="two" unicode="2" horiz-adv-x="540" 
d="M239 118h237.999v-118h-426v90l231 272c42.667 48.667 64 94.334 64 137.001c0 26 -8.16699 46.5 -24.5 61.5s-36.833 22.5 -61.5 22.5c-24 0 -43.833 -7.5 -59.5 -22.5s-24.5 -35.5 -26.5 -61.5h-124c0 59.333 21 107.333 63 144c42.667 37.333 94 56 154 56
c62.667 0 114.334 -19.333 155.001 -58c42 -38 63 -85.333 63 -142c0 -29.333 -6.33301 -58 -19 -86c-14 -30.667 -26.333 -53.334 -37 -68.001c-11.333 -15.333 -27.333 -35.333 -48 -60z" />
    <glyph glyph-name="three" unicode="3" horiz-adv-x="540" 
d="M245 297l-51.001 -0.000976562v118h51c30 0 53.5 7.66699 70.5 23s25.5 37 25.5 65c0 23.333 -8 42.5 -24 57.5s-36.667 22.5 -62 22.5c-23.333 0 -42.666 -6.66699 -57.999 -20s-24.666 -31.333 -27.999 -54h-124c3.33301 56.667 25 102.334 65 137.001
c41.333 35.333 92 53 152 53c62 0 113.667 -18.667 155 -56c42 -36.667 63 -81.334 63 -134.001c0 -66.667 -31.333 -117 -94 -151c69.333 -34 104 -89 104 -165c0 -57.333 -19.667 -105.666 -59 -144.999c-39.333 -38 -93 -57 -161 -57c-70.667 0 -126.667 17.667 -168 53
s-63.333 82.333 -66 141h123c8.66699 -50.667 42.667 -76 102 -76c27.333 0 49.166 8.5 65.499 25.5s24.5 38.833 24.5 65.5c0 64.667 -35.333 97 -106 97z" />
    <glyph glyph-name="four" unicode="4" horiz-adv-x="540" 
d="M9 195l236 495h153l-215 -473h132v176h140v-176h63v-119h-63v-98h-140v98h-306v97z" />
    <glyph glyph-name="five" unicode="5" horiz-adv-x="540" 
d="M272 355c-32 0 -56.333 -16.999 -73 -50.999h-126v386h393v-127h-256v-118c25.333 24 59.333 36 102 36c55.333 0 99.166 -21.333 131.499 -64s48.5 -103.334 48.5 -182.001c0 -162.667 -72 -244 -216 -244c-61.333 0 -112.666 16.333 -153.999 49
c-42 33.333 -65.333 79.333 -70 138h138c10.667 -46 38 -69 82 -69c53.333 0 80 39.667 80 119c0 84.667 -26.667 127 -80 127z" />
    <glyph glyph-name="six" unicode="6" horiz-adv-x="540" 
d="M240 690l150.001 -0.00195312l-144 -284c17.333 8.66699 39.666 13 66.999 13c53.333 0 98 -19.667 134 -59c36.667 -38.667 55 -87.667 55 -147c0 -71.333 -21 -126.166 -63 -164.499s-98 -57.5 -168 -57.5c-68.667 0 -124.667 18.667 -168 56s-65 92.333 -65 165
c0 46.667 21 112.334 63 197.001zM178.001 206.998c0 -30.667 8.16699 -54.667 24.5 -72s39.166 -26 68.499 -26s51.833 8.66699 67.5 26s23.5 41.333 23.5 72c0 30 -7.83301 53.667 -23.5 71s-38.167 26 -67.5 26s-52.166 -8.66699 -68.499 -26s-24.5 -41 -24.5 -71z" />
    <glyph glyph-name="seven" unicode="7" horiz-adv-x="540" 
d="M185 571v-107h-119v226h422v-98l-199 -592h-145l200 571h-159z" />
    <glyph glyph-name="eight" unicode="8" horiz-adv-x="540" 
d="M35 192c0 36 9.83398 69.167 29.501 99.5s44.167 52.5 73.5 66.5c-28 14 -50.5 34.833 -67.5 62.5s-25.5 57.5 -25.5 89.5c0 58 22 104 66 138s97 51 159 51c62.667 0 115.667 -17 159 -51c44 -33.333 66 -79.333 66 -138c0 -32 -8.5 -61.833 -25.5 -89.5
s-39.5 -48.5 -67.5 -62.5c30 -14 54.667 -36 74 -66s29 -63.333 29 -100c0 -62 -22.667 -111 -68 -147c-44.667 -36 -100.334 -54 -167.001 -54s-122.667 18 -168 54c-44.667 36 -67 85 -67 147zM175.001 205c0 -26.667 8.99805 -49.499 26.998 -68.499
s40.667 -28.5 68 -28.5c26.667 0 49.334 9.5 68.001 28.5s28 41.833 28 68.5c0 27.333 -9.66699 50.166 -29 68.499s-41.666 27.5 -66.999 27.5c-26 0 -48.333 -9 -67 -27s-28 -41 -28 -69zM183.999 496.001c0 -24 8.33301 -44.5 25 -61.5s37 -25.5 61 -25.5
c23.333 0 43.5 8.5 60.5 25.5s25.5 37.5 25.5 61.5c0 23.333 -8.5 43.333 -25.5 60s-37.167 25 -60.5 25c-24 0 -44.333 -8.33301 -61 -25s-25 -36.667 -25 -60z" />
    <glyph glyph-name="nine" unicode="9" horiz-adv-x="540" 
d="M300 0h-150l145 284c-18 -8.66699 -40.333 -13 -67 -13c-53.333 0 -98.333 19.333 -135 58s-55 88 -55 148c0 72.667 21.667 127.667 65 165c43.333 38 99 57 167 57c68.667 0 124.667 -18.667 168 -56s65 -92.333 65 -165c0 -45.333 -21.333 -111 -64 -197zM363 483
c0 30.667 -8.16699 54.667 -24.5 72s-39.166 26 -68.499 26s-52 -8.66699 -68 -26s-24 -41.333 -24 -72c0 -30 8 -53.667 24 -71s38.667 -26 68 -26s52.166 8.66699 68.499 26s24.5 41 24.5 71z" />
    <glyph glyph-name="colon" unicode=":" horiz-adv-x="246" 
d="M60 500h136v-137h-136v137zM60 136h136v-136h-136v136z" />
    <glyph glyph-name="semicolon" unicode=";" horiz-adv-x="246" 
d="M60 136h136v-188l-136 -117v305zM60 500h136v-137h-136v137z" />
    <glyph glyph-name="less" unicode="&#x3c;" horiz-adv-x="540" 
d="M426 580v-144l-181 -94l181 -93v-144l-325 183v109z" />
    <glyph glyph-name="equal" unicode="=" horiz-adv-x="540" 
d="M465 359h-389v120h389v-120zM465 182h-389v119h389v-119z" />
    <glyph glyph-name="greater" unicode="&#x3e;" horiz-adv-x="540" 
d="M112 249l181 93l-181 94v144l325 -183v-109l-325 -183v144z" />
    <glyph glyph-name="question" unicode="?" horiz-adv-x="487" 
d="M297 220l0.00195312 -31.0029h-121v69c0 22.667 2.66699 41.167 8 55.5s15.666 28.5 30.999 42.5l45 43c24.667 23.333 41.5 42.333 50.5 57s13.5 32.334 13.5 53.001c0 22 -7.16699 39.667 -21.5 53s-32.833 20 -55.5 20s-41.167 -6 -55.5 -18
s-21.833 -28.667 -22.5 -50h-132c0 59.333 19.667 105 59 137c40 32 90.333 48 151 48c62.667 0 114.334 -16.333 155.001 -49c41.333 -33.333 62 -80.666 62 -141.999c0 -34.667 -8.16699 -66.667 -24.5 -96s-41.5 -60.666 -75.5 -93.999l-33 -32
c-16.667 -17.333 -26.334 -30.333 -29.001 -39c-2.66699 -6.66699 -4.33398 -15.667 -5.00098 -27zM305.002 -0.00292969h-137v136h137v-136z" />
    <glyph glyph-name="at" unicode="@" horiz-adv-x="898" 
d="M513 484l126.996 -0.000976562v-243c0 -27.333 3.66699 -46.666 11 -57.999s19 -17 35 -17c38.667 0 58 42.333 58 127c0 98.667 -27.667 170.667 -83 216s-126 68 -212 68c-52 0 -97.333 -8.83301 -136 -26.5s-68.667 -41.334 -90 -71.001s-37.166 -61.5 -47.499 -95.5
s-15.5 -70 -15.5 -108c0 -99.333 27.333 -174.333 82 -225c54.667 -50 125.334 -75 212.001 -75c78.667 0 152.334 17.333 221.001 52l47 -91c-64 -46 -155 -69 -273 -69c-111.333 0 -207 34 -287 102c-40 33.333 -71.5 76.5 -94.5 129.5s-34.5 111.833 -34.5 176.5
c0 84.667 19.667 158.667 59 222c38.667 62 88.834 108.667 150.501 140s130.5 47 206.5 47c123.333 0 224.333 -35 303 -105c79.333 -70 119 -166 119 -288c0 -74 -15.833 -131.5 -47.5 -172.5s-76.5 -61.5 -134.5 -61.5c-61.333 0 -105.666 21.667 -132.999 65
c-22 -43.333 -65.667 -65 -131 -65c-52 0 -93 17 -123 51s-45 80.333 -45 139v52c0 60.667 15.167 107.334 45.5 140.001s71.166 49 122.499 49c34 0 63.333 -7.66699 88 -23v18zM445.996 165.999c24 0 41.167 6.33301 51.5 19s15.5 33 15.5 61v50
c0 31.333 -5.16699 53.333 -15.5 66s-27.5 19 -51.5 19c-40.667 0 -61 -28.333 -61 -85v-38c0 -32 4.66699 -55.333 14 -70s25 -22 47 -22z" />
    <glyph glyph-name="A" unicode="A" horiz-adv-x="607" 
d="M188 131l-42 -131h-150l240 690h134l240 -690h-149l-42 131h-231zM381 249l-78 243l-78 -243h156z" />
    <glyph glyph-name="B" unicode="B" horiz-adv-x="606" 
d="M68 0l-0.000976562 690.001h231c168 0 252 -60.333 252 -181c0 -68 -30.333 -117 -91 -147c75.333 -27.333 113 -82 113 -164c0 -60.667 -21.167 -108.834 -63.5 -144.501s-105.166 -53.5 -188.499 -53.5h-253zM295.999 299.001h-88v-181h101c82.667 0 124 30.333 124 91
c0 32 -10.833 55 -32.5 69s-56.5 21 -104.5 21zM285.999 572.001h-78v-155h93c73.333 0 110 26.333 110 79c0 26.667 -9.16699 46 -27.5 58s-50.833 18 -97.5 18z" />
    <glyph glyph-name="C" unicode="C" horiz-adv-x="594" 
d="M564 476l-133.999 -0.000976562c-14 70 -53.667 105 -119 105c-82.667 0 -124 -62.333 -124 -187v-98c0 -124.667 41.333 -187 124 -187c34 0 60.333 8.33301 79 25s32 43.334 40 80.001h133c-22 -148.667 -106 -223 -252 -223c-83.333 0 -148.166 25.833 -194.499 77.5
s-69.5 127.5 -69.5 227.5v98c0 100.667 23.167 176.667 69.5 228s111.166 77 194.499 77c70.667 0 127.667 -18.833 171 -56.5s70.666 -93.167 81.999 -166.5z" />
    <glyph glyph-name="D" unicode="D" horiz-adv-x="625" 
d="M313 0h-245v690h245c176.667 0 265 -100 265 -300v-90c0 -200 -88.333 -300 -265 -300zM208 118h105c44.667 0 76.667 14.5 96 43.5s29 75.167 29 138.5v90c0 62.667 -9.66699 108.5 -29 137.5s-51.333 43.5 -96 43.5h-105v-453z" />
    <glyph glyph-name="E" unicode="E" horiz-adv-x="527" 
d="M68 0v690h430v-119h-290v-155h260v-118h-260v-180h290v-118h-430z" />
    <glyph glyph-name="F" unicode="F" horiz-adv-x="521" 
d="M68 0v690h430v-119h-290v-171h260v-118h-260v-282h-140z" />
    <glyph glyph-name="G" unicode="G" horiz-adv-x="612" 
d="M314 241v118h251v-63c0 -101.333 -21.833 -177.5 -65.5 -228.5s-106.5 -76.5 -188.5 -76.5c-83.333 0 -148.166 25.833 -194.499 77.5s-69.5 127.5 -69.5 227.5v88c0 105.333 23 184.166 69 236.499s111 78.5 195 78.5c71.333 0 128.666 -19.167 171.999 -57.5
s70.333 -93.5 81 -165.5h-134c-13.333 70 -53 105 -119 105c-82.667 0 -124 -62.333 -124 -187v-98c0 -124.667 41.333 -187 124 -187c37.333 0 65.5 10.833 84.5 32.5s30.5 54.834 34.5 99.501h-116z" />
    <glyph glyph-name="H" unicode="H" horiz-adv-x="656" 
d="M68 690h140v-274h239v274h140v-690h-140v298h-239v-298h-140v690z" />
    <glyph glyph-name="I" unicode="I" horiz-adv-x="296" 
d="M78 690h140v-690h-140v690z" />
    <glyph glyph-name="J" unicode="J" horiz-adv-x="512" 
d="M-9 94l116 64.999c23.333 -33.333 54.666 -50 93.999 -50c36 0 62.167 11.833 78.5 35.5s24.5 63.834 24.5 120.501v425h140v-425c0 -94 -19.667 -163.167 -59 -207.5s-97.666 -66.5 -174.999 -66.5c-98 0 -171 34.333 -219 103z" />
    <glyph glyph-name="K" unicode="K" horiz-adv-x="645" 
d="M381 411l252 -411h-167l-176 291l-82 -108v-183h-140v690h140v-298l218 298h166z" />
    <glyph glyph-name="L" unicode="L" horiz-adv-x="504" 
d="M68 690h140v-572h290v-118h-430v690z" />
    <glyph glyph-name="M" unicode="M" horiz-adv-x="786" 
d="M68 690h131l194 -376l192 376h133v-690h-134v428l-150 -304h-85l-148 301v-425h-133v690z" />
    <glyph glyph-name="N" unicode="N" horiz-adv-x="656" 
d="M454 257v433h133v-690h-117l-269 427v-427h-133v690h116z" />
    <glyph glyph-name="O" unicode="O" horiz-adv-x="623" 
d="M576 394v-98c0 -100 -23.333 -175.833 -70 -227.5s-111.667 -77.5 -195 -77.5s-148.166 25.833 -194.499 77.5s-69.5 127.5 -69.5 227.5v98c0 100.667 23.167 176.667 69.5 228s111.166 77 194.499 77c84 0 149.167 -25.667 195.5 -77s69.5 -127.333 69.5 -228zM187 394
v-98c0 -124.667 41.333 -187 124 -187c83.333 0 125 62.333 125 187v98c0 124.667 -41.667 187 -125 187c-82.667 0 -124 -62.333 -124 -187z" />
    <glyph glyph-name="P" unicode="P" horiz-adv-x="590" 
d="M315 243h-106.999v-243h-140v690h247c82 0 145.5 -18.833 190.5 -56.5s67.5 -92.5 67.5 -164.5c0 -71.333 -22.833 -126.833 -68.5 -166.5s-108.834 -59.5 -189.501 -59.5zM208.001 571v-209.999h87c48 0 83 8.66699 105 26s33 44.666 33 81.999c0 68 -46 102 -138 102
h-87z" />
    <glyph glyph-name="Q" unicode="Q" horiz-adv-x="630" 
d="M576 394v-98c0 -66 -10.333 -121 -31 -165l96 -82l-74 -88l-93 79c-42.667 -32.667 -97 -49 -163 -49c-83.333 0 -148.166 25.833 -194.499 77.5s-69.5 127.5 -69.5 227.5v98c0 100.667 23.167 176.667 69.5 228s111.166 77 194.499 77c84 0 149.167 -25.667 195.5 -77
s69.5 -127.333 69.5 -228zM187 394v-98c0 -124.667 41.333 -187 124 -187c25.333 0 46.333 5.33301 63 16l-78 67l76 89l59 -52c3.33301 24.667 5 47 5 67v98c0 124.667 -41.667 187 -125 187c-82.667 0 -124 -62.333 -124 -187z" />
    <glyph glyph-name="R" unicode="R" horiz-adv-x="617" 
d="M455 294l143 -293.999h-154l-124 271h-112v-271h-140v690h247c82 0 145.5 -18.167 190.5 -54.5s67.5 -88.5 67.5 -156.5c0 -90.667 -39.333 -152.334 -118 -185.001zM208 571.001v-181.999h94c46 0 79.333 6.66699 100 20s31 36.666 31 69.999s-10.5 57 -31.5 71
s-54.167 21 -99.5 21h-94z" />
    <glyph glyph-name="S" unicode="S" horiz-adv-x="575" 
d="M532 586l-105.001 -75.001c-16 24.667 -34.333 42.5 -55 53.5s-47.667 16.5 -81 16.5c-31.333 0 -55.333 -6.66699 -72 -20s-25 -32 -25 -56c0 -25.333 10.333 -45.5 31 -60.5s55.667 -28.5 105 -40.5c74 -19.333 127.333 -44.666 160 -75.999
c32.667 -30.667 49 -76 49 -136c0 -61.333 -20.667 -110.166 -62 -146.499s-100 -54.5 -176 -54.5c-120 0 -208.667 37.667 -266 113l107 74c20 -24.667 41.5 -42.334 64.5 -53.001s51.5 -16 85.5 -16c71.333 0 107 25.667 107 77c0 24.667 -10.167 44.667 -30.5 60
s-57.166 30 -110.499 44c-70 18 -121.5 44.333 -154.5 79s-49.5 80 -49.5 136c0 59.333 20.167 106.5 60.5 141.5s98.833 52.5 175.5 52.5c112 0 192.667 -37.667 242 -113z" />
    <glyph glyph-name="T" unicode="T" horiz-adv-x="536" 
d="M8 571v119h520v-119h-190v-571h-140v571h-190z" />
    <glyph glyph-name="U" unicode="U" horiz-adv-x="666" 
d="M458 279v411.001h140v-410c0 -95.333 -23.5 -167.333 -70.5 -216s-111.833 -73 -194.5 -73s-147.5 24.167 -194.5 72.5s-70.5 120.166 -70.5 215.499v411h140v-411c0 -58.667 10 -101.667 30 -129s51.667 -41 95 -41s75 13.667 95 41s30 70.333 30 129z" />
    <glyph glyph-name="V" unicode="V" horiz-adv-x="614" 
d="M244 0l-241 690h153l151 -464l151 464h153l-240 -690h-127z" />
    <glyph glyph-name="W" unicode="W" horiz-adv-x="889" 
d="M590 0l-146 475l-146 -475h-133l-158 690h150l92 -454l131 454h126l135 -457l91 457h151l-159 -690h-134z" />
    <glyph glyph-name="X" unicode="X" horiz-adv-x="592" 
d="M296 235l-131 -235h-152l194 356l-173 334h152l110 -220l111 220h151l-174 -334l195 -356h-151z" />
    <glyph glyph-name="Y" unicode="Y" horiz-adv-x="583" 
d="M221 282l-215 408h162l123 -257l124 257h161l-215 -408v-282h-140v282z" />
    <glyph glyph-name="Z" unicode="Z" horiz-adv-x="519" 
d="M30 571v119h456v-92l-278 -480h288v-118h-466v92l280 479h-280z" />
    <glyph glyph-name="bracketleft" unicode="[" horiz-adv-x="335" 
d="M309 -102h-239v894h239v-108h-112v-678h112v-108z" />
    <glyph glyph-name="backslash" unicode="\" horiz-adv-x="485" 
d="M361 -116l-336 928h116l336 -928h-116z" />
    <glyph glyph-name="bracketright" unicode="]" horiz-adv-x="335" 
d="M26 686v106h239v-894h-239v106h112v682h-112z" />
    <glyph glyph-name="asciicircum" unicode="^" horiz-adv-x="540" 
d="M38 437l174 253h115l176 -253h-144l-89 129l-82 -129h-150z" />
    <glyph glyph-name="underscore" unicode="_" horiz-adv-x="526" 
d="M0 -169v103h526v-103h-526z" />
    <glyph glyph-name="grave" unicode="`" horiz-adv-x="337" 
d="M62 725h143l70 -158h-122z" />
    <glyph glyph-name="a" unicode="a" 
d="M26 148c0 49.333 16.667 87 50 113s78.333 39 135 39h99v29c0 28.667 -6 48.167 -18 58.5s-35.667 15.5 -71 15.5c-26 0 -45.667 -2.66699 -59 -8s-25 -16 -35 -32l-90 63c18 30 42.167 51.333 72.5 64s71.5 19 123.5 19c70.667 0 122 -13.667 154 -41s48 -74 48 -140
v-328h-125v44c-21.333 -35.333 -57.333 -53 -108 -53c-54 0 -96.833 13.833 -128.5 41.5s-47.5 66.167 -47.5 115.5zM310 187v19.001h-84c-50 0 -75 -18.667 -75 -56s24.333 -56 73 -56c30 0 51.833 7.16699 65.5 21.5s20.5 38.166 20.5 71.499z" />
    <glyph glyph-name="b" unicode="b" horiz-adv-x="510" 
d="M51 690l121 -0.000976562v-221c24.667 26.667 60.667 40 108 40c62 0 110.333 -19.667 145 -59s52 -95.666 52 -168.999v-60c0 -71.333 -17 -127.5 -51 -168.5s-82.667 -61.5 -146 -61.5c-48 0 -84 13 -108 39v-30h-121v690zM350 224.999v52
c0 82.667 -29.667 124 -89 124s-89 -41.333 -89 -124v-52c0 -84 29.667 -126 89 -126s89 42 89 126z" />
    <glyph glyph-name="c" unicode="c" horiz-adv-x="446" 
d="M343 142l95.002 -66c-32.667 -56.667 -93.334 -85 -182.001 -85c-70 0 -124.667 20.167 -164 60.5s-59 95.5 -59 165.5v68c0 72.667 19.667 128.167 59 166.5s96.333 57.5 171 57.5c81.333 0 139.666 -27.667 174.999 -83l-96 -67c-20 28 -47.333 42 -82 42
c-66.667 0 -100 -41.333 -100 -124v-52c0 -40 7 -71 21 -93c15.333 -22 41.666 -33 78.999 -33c38.667 0 66.334 14.333 83.001 43z" />
    <glyph glyph-name="d" unicode="d" horiz-adv-x="517" 
d="M338 474v216h127v-690h-127v29c-27.333 -25.333 -63 -38 -107 -38c-63.333 0 -112.166 20.333 -146.499 61s-51.5 95.667 -51.5 165v68c0 70.667 17.667 125.667 53 165s83.666 59 144.999 59c44 0 79.667 -11.667 107 -35zM249 99c32 0 54.833 10.5 68.5 31.5
s20.5 52.5 20.5 94.5v63c0 75.333 -29.667 113 -89 113s-89 -41.333 -89 -124v-52c0 -84 29.667 -126 89 -126z" />
    <glyph glyph-name="e" unicode="e" 
d="M343 142l95.002 -66c-32.667 -56.667 -93.667 -85 -183 -85c-70.667 0 -125.334 20.5 -164.001 61.5s-58 95.833 -58 164.5v68c0 73.333 17.667 129 53 167s86.333 57 153 57c137.333 0 206 -78 206 -234v-57h-285c1.33301 -79.333 32.666 -119 93.999 -119
c24 0 42.167 3.16699 54.5 9.5s23.833 17.5 34.5 33.5zM240.002 401c-48 0 -74.667 -30.667 -80 -92h157c-3.33301 61.333 -29 92 -77 92z" />
    <glyph glyph-name="f" unicode="f" horiz-adv-x="301" 
d="M14 392v108h64v27c0 62 12.667 104.667 38 128c26.667 23.333 71 35 133 35h37v-112h-24c-22 0 -37 -5.16699 -45 -15.5s-12 -28.833 -12 -55.5v-7h81v-108h-81v-392h-127v392h-64z" />
    <glyph glyph-name="g" unicode="g" horiz-adv-x="517" 
d="M338 474l-0.00195312 26h127v-490c0 -80.667 -21 -136 -63 -166c-38 -26.667 -90.333 -40 -157 -40c-48.667 0 -88.167 6.83301 -118.5 20.5s-56.166 36.834 -77.499 69.501l86 62c22 -30 54.667 -45 98 -45c38.667 0 65.834 7.16699 81.501 21.5
s23.5 40.166 23.5 77.499v16c-27.333 -23.333 -63 -35 -107 -35c-63.333 0 -112.166 20.333 -146.499 61s-51.5 95.667 -51.5 165v68c0 70.667 17.667 125.667 53 165s83.666 59 144.999 59c44 0 79.667 -11.667 107 -35zM337.998 214v63c0 82.667 -29.667 124 -89 124
s-89 -41.333 -89 -124v-52c0 -84 29.667 -126 89 -126s89 38.333 89 115z" />
    <glyph glyph-name="h" unicode="h" horiz-adv-x="526" 
d="M179 0h-128v690h128v-229c24 32 61.333 48 112 48c122 0 183 -65.333 183 -196v-313h-127v293c0 37.333 -6.5 64.333 -19.5 81s-33.167 25 -60.5 25c-58.667 0 -88 -35 -88 -105v-294z" />
    <glyph glyph-name="i" unicode="i" horiz-adv-x="260" 
d="M194 0h-128v500h128v-500zM199 566h-138v124h138v-124z" />
    <glyph glyph-name="j" unicode="j" horiz-adv-x="251" 
d="M67 500h127.001v-527c0 -62 -15 -104.667 -45 -128c-30.667 -23.333 -80.334 -35 -149.001 -35v110c24.667 0 42 5.5 52 16.5s15 29.167 15 54.5v509zM199.001 566h-137v124h137v-124z" />
    <glyph glyph-name="k" unicode="k" horiz-adv-x="502" 
d="M179 318l140 182h152l-173 -209l202 -291h-150l-137 188l-34 -42v-146h-128v690h128v-372z" />
    <glyph glyph-name="l" unicode="l" horiz-adv-x="285" 
d="M51 160l-0.000976562 530h128v-501c0 -28.667 5.16699 -49 15.5 -61s28.5 -18 54.5 -18v-110c-71.333 -0 -122.166 11.833 -152.499 35.5s-45.5 65.167 -45.5 124.5z" />
    <glyph glyph-name="m" unicode="m" horiz-adv-x="795" 
d="M461 294v-294h-127v293c0 70.667 -25.333 106 -76 106c-24.667 0 -44 -9 -58 -27s-21 -44 -21 -78v-294h-128v500h125v-42c25.333 34 62.333 51 111 51c62.667 0 109.334 -22.333 140.001 -67c36.667 44.667 84.667 67 144 67c56 0 98.833 -16.667 128.5 -50
s44.5 -82 44.5 -146v-313h-128v293c0 70.667 -25.667 106 -77 106c-24.667 0 -43.834 -9 -57.501 -27s-20.5 -44 -20.5 -78z" />
    <glyph glyph-name="n" unicode="n" horiz-adv-x="526" 
d="M179 0h-128v500h125v-42c26 34 64.333 51 115 51c122 0 183 -65.333 183 -196v-313h-127v293c0 37.333 -6.5 64.333 -19.5 81s-33.167 25 -60.5 25c-58.667 0 -88 -35 -88 -105v-294z" />
    <glyph glyph-name="o" unicode="o" horiz-adv-x="499" 
d="M465 281l-0.000976562 -59.999c0 -72.667 -18.167 -129.167 -54.5 -169.5s-90.166 -60.5 -161.499 -60.5c-70 0 -123.5 20.167 -160.5 60.5s-55.5 96.833 -55.5 169.5v60c0 74 18.5 130.5 55.5 169.5s90.5 58.5 160.5 58.5s123.5 -19.333 160.5 -58
s55.5 -95.334 55.5 -170.001zM248.999 99.001c59.333 0 89 42 89 126v52c0 82.667 -29.667 124 -89 124s-89 -41.333 -89 -124v-52c0 -42 6.83301 -73.5 20.5 -94.5s36.5 -31.5 68.5 -31.5z" />
    <glyph glyph-name="p" unicode="p" horiz-adv-x="517" 
d="M484 285v-68c0 -67.333 -17 -122 -51 -164c-33.333 -41.333 -81.333 -62 -144 -62c-50 0 -86.667 9.66699 -110 29v-210h-128v690h128v-33c24.667 28 61.667 42 111 42c59.333 0 106.5 -19.833 141.5 -59.5s52.5 -94.5 52.5 -164.5zM268 99c58.667 0 88 42 88 126v52
c0 82.667 -29.333 124 -88 124c-59.333 0 -89 -37.667 -89 -113v-63c0 -42 6.83301 -73.5 20.5 -94.5s36.5 -31.5 68.5 -31.5z" />
    <glyph glyph-name="q" unicode="q" horiz-adv-x="517" 
d="M338 475v25h127v-690h-127v218c-27.333 -24.667 -63 -37 -107 -37c-63.333 0 -112.166 20.333 -146.499 61s-51.5 95.667 -51.5 165v68c0 70.667 17.667 125.667 53 165s83.666 59 144.999 59c44 0 79.667 -11.333 107 -34zM249 99c32 0 54.833 10.5 68.5 31.5
s20.5 52.5 20.5 94.5v52c0 82.667 -29.667 124 -89 124s-89 -41.333 -89 -124v-52c0 -84 29.667 -126 89 -126z" />
    <glyph glyph-name="r" unicode="r" horiz-adv-x="410" 
d="M420 431l-98 -70.001c-17.333 25.333 -38.333 38 -63 38s-44.167 -9.16699 -58.5 -27.5s-21.5 -44.166 -21.5 -77.499v-294h-128v500h125v-42c22.667 34 59 51 109 51c60 0 105 -26 135 -78z" />
    <glyph glyph-name="s" unicode="s" horiz-adv-x="464" 
d="M419 426l-94.001 -66.999c-12.667 14.667 -26 25 -40 31s-33.333 9 -58 9c-42 0 -63 -13 -63 -39c0 -14 6.16699 -24.667 18.5 -32s32.833 -13 61.5 -17c63.333 -10 110 -28 140 -54s45 -63 45 -111c0 -48.667 -17 -86.667 -51 -114s-82.333 -41 -145 -41
c-98 0 -167 27.667 -207 83l98 70c20.667 -28.667 56.334 -43 107.001 -43c47.333 0 71 13.667 71 41c0 15.333 -5.83301 26.166 -17.5 32.499s-34.167 12.5 -67.5 18.5c-120 19.333 -180 73.333 -180 162c0 48.667 16.833 86.5 50.5 113.5s81.167 40.5 142.5 40.5
c92 0 155 -27.667 189 -83z" />
    <glyph glyph-name="t" unicode="t" horiz-adv-x="331" 
d="M78 392h-64.001v108h64v110h127v-110h98v-108h-98v-209c0 -26.667 4 -45.167 12 -55.5s23 -15.5 45 -15.5h41v-112h-54c-63.333 -0 -107.666 11.333 -132.999 34c-25.333 23.333 -38 66.333 -38 129v229z" />
    <glyph glyph-name="u" unicode="u" horiz-adv-x="526" 
d="M347 500l127.001 0.000976562v-500h-125v42c-12 -18.667 -26.333 -31.834 -43 -39.501s-40.334 -11.5 -71.001 -11.5c-58 0 -103.167 16 -135.5 48s-48.5 81.667 -48.5 149v312h128v-293c0 -37.333 6.5 -64.333 19.5 -81s33.5 -25 61.5 -25c58 0 87 35 87 105v294z" />
    <glyph glyph-name="v" unicode="v" horiz-adv-x="504" 
d="M252 176l111 324h141l-190 -500h-120l-194 500h140z" />
    <glyph glyph-name="w" unicode="w" horiz-adv-x="716" 
d="M471 0l-113 313l-113 -313h-104l-138 500h132l71 -286l101 286h94l108 -287l71 287h133l-139 -500h-103z" />
    <glyph glyph-name="x" unicode="x" horiz-adv-x="490" 
d="M319 256l165 -256h-142l-97 152l-97 -152h-141l164 256l-151 244h141l84 -143l84 143h141z" />
    <glyph glyph-name="y" unicode="y" horiz-adv-x="479" 
d="M192 -7l-187.002 507h134l111 -320l100 320h129l-175 -523c-23.333 -68 -49.666 -112.667 -78.999 -134c-30 -22 -80 -33 -150 -33v114c36.667 0 62.834 4.5 78.501 13.5s28.5 27.5 38.5 55.5z" />
    <glyph glyph-name="z" unicode="z" horiz-adv-x="449" 
d="M30 0v89l220 303h-217v108h382v-89l-217 -303h224v-108h-392z" />
    <glyph glyph-name="braceleft" unicode="{" horiz-adv-x="328" 
d="M227 606v-190c0 -20 -3.5 -35.333 -10.5 -46s-18.5 -18.667 -34.5 -24c30 -10 45 -33.333 45 -70v-190c0 -29.333 4.5 -48.833 13.5 -58.5s25.833 -14.5 50.5 -14.5h14v-108h-41c-55.333 0 -96.666 10.667 -123.999 32c-26.667 20.667 -40 61.667 -40 123v178
c0 18.667 -3.83301 32 -11.5 40s-20.5 12 -38.5 12h-19v112h19c18 0 30.833 4 38.5 12s11.5 21.333 11.5 40v178c0 61.333 13.333 102.333 40 123c27.333 21.333 68.666 32 123.999 32h41v-108h-14c-24.667 0 -41.5 -4.83301 -50.5 -14.5s-13.5 -29.167 -13.5 -58.5z" />
    <glyph glyph-name="bar" unicode="|" horiz-adv-x="290" 
d="M85 812h121v-928h-121v928z" />
    <glyph glyph-name="braceright" unicode="}" horiz-adv-x="317" 
d="M108 416v190c0 30 -4.33301 49.667 -13 59s-25.334 14 -50.001 14h-14v108h41c55.333 0 96.666 -10.667 123.999 -32c26.667 -20.667 40 -61.667 40 -123v-178c0 -18.667 3.83301 -32 11.5 -40s20.5 -12 38.5 -12h19v-112h-19c-18 0 -30.833 -4 -38.5 -12
s-11.5 -21.333 -11.5 -40v-178c0 -61.333 -13.333 -102.333 -40 -123c-27.333 -21.333 -68.666 -32 -123.999 -32h-41v108h14c24.667 0 41.334 4.66699 50.001 14s13 29 13 59v190c0 36.667 15 60 45 70c-16 5.33301 -27.5 13.333 -34.5 24s-10.5 26 -10.5 46z" />
    <glyph glyph-name="asciitilde" unicode="~" horiz-adv-x="540" 
d="M355 259c-32 0 -64 7.33301 -96 22c-32.667 15.333 -57.667 23 -75 23c-36 0 -65.333 -15 -88 -45l-85 69c46 57.333 103.667 86 173 86c31.333 0 63.333 -7.66699 96 -23c32 -14.667 57 -22 75 -22c36 0 65.333 15.333 88 46l86 -70
c-47.333 -57.333 -105.333 -86 -174 -86z" />
    <glyph glyph-name="uni00A0" unicode="&#xa0;" horiz-adv-x="250" 
 />
    <glyph glyph-name="exclamdown" unicode="&#xa1;" horiz-adv-x="250" 
d="M188 -190h-126v501h126v-501zM57 500h136v-136h-136v136z" />
    <glyph glyph-name="cent" unicode="&#xa2;" horiz-adv-x="540" 
d="M371 145l94.999 -66.0049c-26 -45.333 -68 -72.666 -126 -81.999v-113h-114v115c-52 10.667 -92.5 35.334 -121.5 74.001s-43.5 87.334 -43.5 146.001v64c0 124.667 55 197.334 165 218.001v121h114v-120c57.333 -11.333 99.333 -37.666 126 -78.999l-96 -67
c-20 28 -47.333 42 -82 42c-66.667 0 -100 -41.333 -100 -124v-46c0 -42 7.5 -73.5 22.5 -94.5s40.833 -31.5 77.5 -31.5c38.667 0 66.334 14.333 83.001 43z" />
    <glyph glyph-name="sterling" unicode="&#xa3;" horiz-adv-x="540" 
d="M499 0h-472.002v118h73v159h-73v119h73v31c0 181.333 73 272 219 272c90.667 0 158.334 -34.333 203.001 -103l-115 -65c-25.333 33.333 -52.666 50 -81.999 50c-28.667 0 -50 -12 -64 -36s-21 -63.333 -21 -118v-31h131v-119h-131v-159h259v-118z" />
    <glyph glyph-name="currency" unicode="&#xa4;" horiz-adv-x="540" 
d="M72 366c0 32.667 7.33301 63.332 22 91.999l-79 79l84 84l77 -78c30 16 61.667 24 95 24s64.666 -7.66699 93.999 -23l78 78l84 -84l-78 -78c15.333 -29.333 23 -60.666 23 -93.999c0 -32.667 -8 -64 -24 -94l79 -78l-84 -84l-79 78c-28.667 -14.667 -59.667 -22 -93 -22
s-64.666 7.66699 -93.999 23l-78 -78l-84 84l79 79c-14.667 27.333 -22 58 -22 92zM271 270.998c26.667 0 48.833 9.16699 66.5 27.5s26.5 40.833 26.5 67.5s-9 49.334 -27 68.001s-40 28 -66 28s-47.833 -9.33301 -65.5 -28s-26.5 -41.334 -26.5 -68.001
s8.83301 -49.167 26.5 -67.5s39.5 -27.5 65.5 -27.5z" />
    <glyph glyph-name="yen" unicode="&#xa5;" horiz-adv-x="540" 
d="M60 119v112h137v51h-137v112h74l-112 296h155l90 -293l95 293h157l-119 -296h74v-112h-137v-51h137v-112h-137v-119h-140v119h-137z" />
    <glyph glyph-name="brokenbar" unicode="&#xa6;" horiz-adv-x="268" 
d="M69 243h140v-243h-140v243zM69 690h140v-243h-140v243z" />
    <glyph glyph-name="section" unicode="&#xa7;" horiz-adv-x="533" 
d="M72 -35l126.999 -0.000976562c1.33301 -15.333 5.83301 -26.833 13.5 -34.5s20.167 -11.5 37.5 -11.5c35.333 0 53 14.333 53 43c0 16 -6.33301 30 -19 42s-33.667 23 -63 33c-61.333 20.667 -106.666 46.334 -135.999 77.001c-28 30 -42 75.333 -42 136
c0 74 30.333 127.333 91 160c-41.333 33.333 -62 75 -62 125c0 48 16.5 86 49.5 114s77.5 42 133.5 42c117.333 0 176 -52 176 -156h-126c-2 15.333 -6.83301 26.833 -14.5 34.5s-20.167 11.5 -37.5 11.5c-34.667 0 -52 -14.333 -52 -43c0 -16 6.5 -30 19.5 -42
s35.5 -23.667 67.5 -35c58.667 -20 102 -45 130 -75s42 -75.333 42 -136c0 -74.667 -30.333 -128.334 -91 -161.001c41.333 -33.333 62 -74.666 62 -123.999c0 -48 -16.5 -86 -49.5 -114s-77.167 -42 -132.5 -42c-116.667 0 -175.667 52 -177 156zM332.999 249.999
c0 25.333 -7.33105 45.168 -21.998 59.501s-34.334 21.5 -59.001 21.5c-25.333 0 -45.333 -7.33301 -60 -22c-14.667 -14 -22 -33.667 -22 -59s7.33301 -45.333 22 -60c14.667 -14 34.667 -21 60 -21s45.166 7.16699 59.499 21.5s21.5 34.166 21.5 59.499z" />
    <glyph glyph-name="dieresis" unicode="&#xa8;" horiz-adv-x="426" 
d="M173 573h-124v117h124v-117zM376 573h-123v117h123v-117z" />
    <glyph glyph-name="copyright" unicode="&#xa9;" horiz-adv-x="956" 
d="M162 -62c-85.333 85.333 -128 189.333 -128 312s42.667 226.667 128 312c86.667 85.333 190.667 128 312 128c122 0 225.667 -42.667 311 -128c86 -85.333 129 -189.333 129 -312s-43 -226.667 -129 -312c-85.333 -85.333 -189 -128 -311 -128
c-121.333 0 -225.333 42.667 -312 128zM474 -77c90 0 165.667 31.668 227 95.001s92 140.666 92 231.999c0 90.667 -30.667 167.667 -92 231s-137 95 -227 95c-89.333 0 -165 -31.667 -227 -95s-93 -140.333 -93 -231c0 -92 31 -169.333 93 -232
c62 -63.333 137.667 -95 227 -95zM565 142.001l95.002 -66c-32.667 -56.667 -93.334 -85 -182.001 -85c-70 0 -124.667 20.167 -164 60.5s-59 95.5 -59 165.5v68c0 72.667 19.667 128.167 59 166.5s96.333 57.5 171 57.5c81.333 0 139.666 -27.667 174.999 -83l-96 -67
c-20 28 -47.333 42 -82 42c-66.667 0 -100 -41.333 -100 -124v-52c0 -40 7 -71 21 -93c15.333 -22 41.666 -33 78.999 -33c38.667 0 66.334 14.333 83.001 43z" />
    <glyph glyph-name="ordfeminine" unicode="&#xaa;" horiz-adv-x="316" 
d="M16 467c0 65.333 40.001 98 120.001 98h60v15c0 16 -3.66699 27.333 -11 34s-21 10 -41 10c-15.333 0 -27.333 -2.5 -36 -7.5s-17 -13.5 -25 -25.5l-60 41c21.333 40 64.666 60 129.999 60c44 0 76.667 -8 98 -24s32 -41.667 32 -77v-217h-87v23
c-14 -18 -37.667 -27 -71 -27c-32.667 0 -59 8.33301 -79 25s-30 40.667 -30 72zM196.001 489v11.001h-47c-30 0 -45 -11 -45 -33c0 -19.333 13.667 -29 41 -29c18 0 31 3.66699 39 11s12 20.666 12 39.999z" />
    <glyph glyph-name="guillemotleft" unicode="&#xab;" horiz-adv-x="519" 
d="M262 52l-232 231l232 231v-143l-90 -88l90 -89v-142zM477 52l-232 231l232 231v-143l-89 -88l89 -89v-142z" />
    <glyph glyph-name="logicalnot" unicode="&#xac;" horiz-adv-x="534" 
d="M484 412v-245h-129v133h-318v112h447z" />
    <glyph glyph-name="uni00AD" unicode="&#xad;" horiz-adv-x="319" 
d="M289 233h-259v112h259v-112z" />
    <glyph glyph-name="registered" unicode="&#xae;" horiz-adv-x="544" 
d="M84 316c-51.333 51.333 -77 113 -77 185s25.667 133.667 77 185s113 77 185 77s133.667 -25.667 185 -77s77 -113 77 -185s-25.667 -133.667 -77 -185s-113 -77 -185 -77s-133.667 25.667 -185 77zM137 633c-36.667 -36.667 -55 -80.667 -55 -132s18.333 -95.333 55 -132
s80.667 -55 132 -55s95.333 18.333 132 55s55 80.667 55 132s-18.333 95.333 -55 132s-80.667 55 -132 55s-95.333 -18.333 -132 -55zM230 464v-90h-67v261h111c32.667 0 57.667 -7.66699 75 -23s26 -35.333 26 -60c0 -36.667 -16 -62 -48 -76l61 -102h-76l-51 90h-31z
M230 579v-59h30c30.667 0 46 10.333 46 31c0 18.667 -13.667 28 -41 28h-35z" />
    <glyph glyph-name="overscore" unicode="&#xaf;" horiz-adv-x="405" 
d="M344 573h-283v111h283v-111z" />
    <glyph glyph-name="degree" unicode="&#xb0;" horiz-adv-x="308" 
d="M54 458c-27.333 27.333 -40.998 61 -40.998 101c0 39.333 13.667 72.666 41 99.999s60.666 41 99.999 41s72.666 -13.667 99.999 -41s41 -60.666 41 -99.999c0 -40 -13.667 -73.667 -41 -101c-26.667 -26.667 -60 -40 -100 -40s-73.333 13.333 -100 40zM204.002 559
c0 14.667 -4.66699 27 -14 37s-21.333 15 -36 15s-27 -5 -37 -15s-15 -22.333 -15 -37s5 -27.167 15 -37.5s22.333 -15.5 37 -15.5s26.667 5 36 15s14 22.667 14 38z" />
    <glyph glyph-name="plusminus" unicode="&#xb1;" horiz-adv-x="506" 
d="M198 340h-139v108h139v141h109v-141h141v-108h-141v-105h-109v105zM448 104h-389v108h389v-108z" />
    <glyph glyph-name="twosuperior" unicode="&#xb2;" horiz-adv-x="278" 
d="M149 442l115 0.000976562v-68h-233v63l103 89c24 21.333 36 40.666 36 57.999c0 20.667 -10 31 -30 31c-20.667 0 -31.667 -11 -33 -33h-82c0 34 11.167 61 33.5 81s50.833 30 85.5 30s62.5 -9.33301 83.5 -28s31.5 -44 31.5 -76c0 -34.667 -21 -70 -63 -106z" />
    <glyph glyph-name="threesuperior" unicode="&#xb3;" horiz-adv-x="301" 
d="M132 507l-13 0.000976562v59h13c26 0 39 10 39 30c0 16.667 -9.66699 25 -29 25s-30 -9 -32 -27h-84c0 29.333 11.167 53.166 33.5 71.499s50.833 27.5 85.5 27.5c34 0 60.833 -7.83301 80.5 -23.5s29.5 -37.5 29.5 -65.5c0 -31.333 -14.333 -53.333 -43 -66
c32.667 -10.667 49 -34 49 -70c0 -30.667 -10.5 -54.5 -31.5 -71.5s-49.167 -25.5 -84.5 -25.5c-36.667 0 -66 9.33301 -88 28s-33.667 43 -35 73h85c3.33301 -18 15 -27 35 -27c22 0 33 10 33 30c0 21.333 -14.333 32 -43 32z" />
    <glyph glyph-name="acute" unicode="&#xb4;" horiz-adv-x="399" 
d="M215 567h-122l70 158h143z" />
    <glyph glyph-name="mu" unicode="&#x3bc;" horiz-adv-x="518" 
d="M175 6l-0.000976562 -142.999h-127v637h127v-291c0 -40.667 7 -68.834 21 -84.501s35 -23.5 63 -23.5c56.667 0 85 35.333 85 106v293h113v-500h-111v42c-21.333 -34 -55.666 -51 -102.999 -51c-27.333 0 -50 5 -68 15z" />
    <glyph glyph-name="mu" unicode="&#xb5;" horiz-adv-x="518" 
d="M175 6l-0.000976562 -142.999h-127v637h127v-291c0 -40.667 7 -68.834 21 -84.501s35 -23.5 63 -23.5c56.667 0 85 35.333 85 106v293h113v-500h-111v42c-21.333 -34 -55.666 -51 -102.999 -51c-27.333 0 -50 5 -68 15z" />
    <glyph glyph-name="paragraph" unicode="&#xb6;" horiz-adv-x="655" 
d="M235 690l341 -0.000976562v-880h-133v761h-75v-761h-133v500c-53.333 0 -98.333 18.333 -135 55s-55 81.667 -55 135c0 52.667 18.333 97.334 55 134.001c37.333 37.333 82.333 56 135 56z" />
    <glyph glyph-name="middot" unicode="&#xb7;" horiz-adv-x="216" 
d="M33 423h150v-150h-150v150z" />
    <glyph glyph-name="cedilla" unicode="&#xb8;" horiz-adv-x="350" 
d="M116 -72l20 97l81 -3l-12 -44c34.667 -12.667 52 -36.667 52 -72c0 -26.667 -10.667 -47.667 -32 -63s-50 -23 -86 -23c-20.667 0 -36 1.33301 -46 4l15 65c10.667 -1.33301 17 -2 19 -2c22 0 33 7 33 21c0 13.333 -14.667 20 -44 20z" />
    <glyph glyph-name="onesuperior" unicode="&#xb9;" horiz-adv-x="277" 
d="M134 690h81v-316h-88v223l-57 -37v87z" />
    <glyph glyph-name="ordmasculine" unicode="&#xba;" horiz-adv-x="350" 
d="M308 555v-45.002c0 -44 -12.333 -78.167 -37 -102.5s-59 -36.5 -103 -36.5c-42.667 0 -76.5 12.167 -101.5 36.5s-37.5 58.5 -37.5 102.5v45c0 44.667 12.5 78.834 37.5 102.501s58.833 35.5 101.5 35.5c43.333 0 77.5 -11.667 102.5 -35s37.5 -57.666 37.5 -102.999z
M168 450.998c34.667 0 52 20 52 60v43c0 39.333 -17.333 59 -52 59c-34 0 -51 -19.667 -51 -59v-43c0 -40 17 -60 51 -60z" />
    <glyph glyph-name="guillemotright" unicode="&#xbb;" horiz-adv-x="519" 
d="M257 371v143l232 -231l-232 -231v142l89 89zM41 371v143l232 -231l-232 -231v142l90 89z" />
    <glyph glyph-name="onequarter" unicode="&#xbc;" horiz-adv-x="658" 
d="M129 690h81v-316h-88v223l-57 -37v87zM326 111l131 205h102l-123 -198h51v45h88v-45h39v-71h-39v-47h-88v47h-161v64zM13 0l475 690h127l-474 -690h-128z" />
    <glyph glyph-name="onehalf" unicode="&#xbd;" horiz-adv-x="650" 
d="M129 690h81v-316h-88v223l-57 -37v87zM496 68h115v-68h-233v63l103 89c24 20.667 36 40 36 58c0 20.667 -10 31 -30 31c-18.667 0 -29.667 -11 -33 -33h-82c0 34 11.167 61 33.5 81s50.833 30 85.5 30s62.5 -9.33301 83.5 -28s31.5 -44 31.5 -76
c0 -34.667 -21 -70 -63 -106zM13 0l475 690h127l-474 -690h-128z" />
    <glyph glyph-name="threequarters" unicode="&#xbe;" horiz-adv-x="632" 
d="M126 507l-13 0.000976562v59h13c26 0 39 10 39 30c0 16.667 -9.66699 25 -29 25s-30 -9 -32 -27h-84c0 29.333 11.167 53.166 33.5 71.499s50.833 27.5 85.5 27.5c34 0 60.833 -7.83301 80.5 -23.5s29.5 -37.5 29.5 -65.5c0 -31.333 -14.333 -53.333 -43 -66
c32.667 -10.667 49 -34 49 -70c0 -30.667 -10.5 -54.5 -31.5 -71.5s-49.167 -25.5 -84.5 -25.5c-36.667 0 -66 9.33301 -88 28s-33.667 43 -35 73h85c3.33301 -18 15 -27 35 -27c22 0 33 10 33 30c0 21.333 -14.333 32 -43 32zM326 111.001l131 205h102l-123 -198h51v45h88
v-45h39v-71h-39v-47h-88v47h-161v64zM13 0.000976562l475 690h127l-474 -690h-128z" />
    <glyph glyph-name="questiondown" unicode="&#xbf;" horiz-adv-x="487" 
d="M204 280v31.002h121v-69c0 -22.667 -2.66699 -41.167 -8 -55.5s-15.666 -28.5 -30.999 -42.5l-45 -43c-24.667 -23.333 -41.5 -42.333 -50.5 -57s-13.5 -32.334 -13.5 -53.001c0 -22 7.16699 -39.667 21.5 -53s32.833 -20 55.5 -20s41.167 6 55.5 18
s21.833 28.667 22.5 50h132c0 -59.333 -20 -105 -60 -137c-38.667 -32 -88.667 -48 -150 -48c-63.333 0 -115.333 16.333 -156 49s-61 80 -61 142c0 34.667 8.16699 66.667 24.5 96s41.5 60.666 75.5 93.999l33 32c9.33301 9.33301 15.666 16 18.999 20s6.5 9.66699 9.5 17
s4.83301 17 5.5 29zM333 364.002h-137v136h137v-136z" />
    <glyph glyph-name="Agrave" unicode="&#xc0;" horiz-adv-x="607" 
d="M188 131l-42 -131h-150l240 690h134l240 -690h-149l-42 131h-231zM381 249l-78 243l-78 -243h156zM134 871h148l80 -129h-125z" />
    <glyph glyph-name="Aacute" unicode="&#xc1;" horiz-adv-x="607" 
d="M188 131l-42 -131h-150l240 690h134l240 -690h-149l-42 131h-231zM381 249l-78 243l-78 -243h156zM368 742h-124l80 129h147z" />
    <glyph glyph-name="Acircumflex" unicode="&#xc2;" horiz-adv-x="607" 
d="M188 131l-42 -131h-150l240 690h134l240 -690h-149l-42 131h-231zM381 249l-78 243l-78 -243h156zM113 737l138 142h105l138 -142h-133l-58 61l-57 -61h-133z" />
    <glyph glyph-name="Atilde" unicode="&#xc3;" horiz-adv-x="607" 
d="M188 131l-42 -131h-150l240 690h134l240 -690h-149l-42 131h-231zM381 249l-78 243l-78 -243h156zM365 738c-17.333 0 -39.002 4.66699 -65.002 14c-25.333 10 -43 15 -53 15c-19.333 0 -36.666 -8.66699 -51.999 -26l-68 69c33.333 40 72.666 60 117.999 60
c16.667 0 37.334 -5 62.001 -15c26 -9.33301 44.333 -14 55 -14c18.667 0 35.334 9 50.001 27l68 -69c-32.667 -40.667 -71 -61 -115 -61z" />
    <glyph glyph-name="Adieresis" unicode="&#xc4;" horiz-adv-x="607" 
d="M188 131l-42 -131h-150l240 690h134l240 -690h-149l-42 131h-231zM381 249l-78 243l-78 -243h156zM264 752h-124v117h124v-117zM467 752h-124v117h124v-117z" />
    <glyph glyph-name="Aring" unicode="&#xc5;" horiz-adv-x="607" 
d="M188 131l-42.001 -131h-150l230 661c-25.333 18 -38 43.333 -38 76c0 30 10.667 54 32 72s49 27 83 27c34.667 0 62.834 -9 84.501 -27s32.5 -42 32.5 -72c0 -33.333 -13.333 -59 -40 -77l230 -660h-149l-42 131h-231zM380.999 249l-78 243l-78 -243h156zM302.999 706
c24.667 0 37 10.333 37 31s-12.333 31 -37 31c-24 0 -36 -10.333 -36 -31s12 -31 36 -31z" />
    <glyph glyph-name="AE" unicode="&#xc6;" horiz-adv-x="894" 
d="M237 138l-77 -138h-164l391 690h477v-119h-289v-155h259v-118h-259v-180h289v-118h-429v138h-198zM435 494l-133 -238h133v238z" />
    <glyph glyph-name="Ccedilla" unicode="&#xc7;" horiz-adv-x="594" 
d="M262 -72l13.002 64.999c-72 6.66699 -128 35.667 -168 87s-60 123.333 -60 216v98c0 100.667 23.167 176.667 69.5 228s111.166 77 194.499 77c70.667 0 127.667 -18.833 171 -56.5s70.666 -93.167 81.999 -166.5h-134c-14 70 -53.667 105 -119 105
c-82.667 0 -124 -62.333 -124 -187v-98c0 -124.667 41.333 -187 124 -187c34 0 60.333 8.33301 79 25s32 43.334 40 80.001h133c-20 -134 -89.333 -207.333 -208 -220l-4 -16c35.333 -13.333 53 -37.333 53 -72c0 -26 -10.833 -46.833 -32.5 -62.5s-50.5 -23.5 -86.5 -23.5
c-20.667 0 -36 1.33301 -46 4l15 65c10.667 -1.33301 17 -2 19 -2c22 0 33 7 33 21c0 13.333 -14.667 20 -44 20z" />
    <glyph glyph-name="Egrave" unicode="&#xc8;" horiz-adv-x="527" 
d="M68 0v690h430v-119h-290v-155h260v-118h-260v-180h290v-118h-430zM141 871h148l80 -129h-125z" />
    <glyph glyph-name="Eacute" unicode="&#xc9;" horiz-adv-x="527" 
d="M68 0v690h430v-119h-290v-155h260v-118h-260v-180h290v-118h-430zM325 742h-124l80 129h147z" />
    <glyph glyph-name="Ecircumflex" unicode="&#xca;" horiz-adv-x="527" 
d="M68 0v690h430v-119h-290v-155h260v-118h-260v-180h290v-118h-430zM92 737l138 142h105l138 -142h-133l-58 61l-57 -61h-133z" />
    <glyph glyph-name="Edieresis" unicode="&#xcb;" horiz-adv-x="527" 
d="M68 0v690h430v-119h-290v-155h260v-118h-260v-180h290v-118h-430zM243 752h-124v117h124v-117zM446 752h-124v117h124v-117z" />
    <glyph glyph-name="Igrave" unicode="&#xcc;" horiz-adv-x="296" 
d="M78 690h140v-690h-140v690zM-9 871h148l80 -129h-125z" />
    <glyph glyph-name="Iacute" unicode="&#xcd;" horiz-adv-x="296" 
d="M78 690h140v-690h-140v690zM202 742h-124l80 129h147z" />
    <glyph glyph-name="Icircumflex" unicode="&#xce;" horiz-adv-x="296" 
d="M78 690h140v-690h-140v690zM-42 737l138 142h105l138 -142h-133l-58 61l-57 -61h-133z" />
    <glyph glyph-name="Idieresis" unicode="&#xcf;" horiz-adv-x="296" 
d="M78 690h140v-690h-140v690zM109 752h-124v117h124v-117zM312 752h-124v117h124v-117z" />
    <glyph glyph-name="Eth" unicode="&#xd0;" horiz-adv-x="626" 
d="M314 0h-245v298h-79v118h79v274h245c176.667 0 265 -100 265 -300v-90c0 -200 -88.333 -300 -265 -300zM209 118h105c44.667 0 76.667 14.5 96 43.5s29 75.167 29 138.5v90c0 62.667 -9.66699 108.5 -29 137.5s-51.333 43.5 -96 43.5h-105v-155h136v-118h-136v-180z" />
    <glyph glyph-name="Ntilde" unicode="&#xd1;" horiz-adv-x="656" 
d="M454 257v433h133v-690h-117l-269 427v-427h-133v690h116zM389 738c-17.333 0 -39.001 4.66699 -65.001 14c-24.667 10 -42.334 15 -53.001 15c-19.333 0 -36.666 -8.66699 -51.999 -26l-68 69c32.667 40 72 60 118 60c16.667 0 37.334 -5 62.001 -15
c26 -9.33301 44.333 -14 55 -14c18 0 34.667 9 50 27l68 -69c-32.667 -40.667 -71 -61 -115 -61z" />
    <glyph glyph-name="Ograve" unicode="&#xd2;" horiz-adv-x="623" 
d="M576 394v-98c0 -100 -23.333 -175.833 -70 -227.5s-111.667 -77.5 -195 -77.5s-148.166 25.833 -194.499 77.5s-69.5 127.5 -69.5 227.5v98c0 100.667 23.167 176.667 69.5 228s111.166 77 194.499 77c84 0 149.167 -25.667 195.5 -77s69.5 -127.333 69.5 -228zM187 394
v-98c0 -124.667 41.333 -187 124 -187c83.333 0 125 62.333 125 187v98c0 124.667 -41.667 187 -125 187c-82.667 0 -124 -62.333 -124 -187zM164 871h148l80 -129h-125z" />
    <glyph glyph-name="Oacute" unicode="&#xd3;" horiz-adv-x="623" 
d="M576 394v-98c0 -100 -23.333 -175.833 -70 -227.5s-111.667 -77.5 -195 -77.5s-148.166 25.833 -194.499 77.5s-69.5 127.5 -69.5 227.5v98c0 100.667 23.167 176.667 69.5 228s111.166 77 194.499 77c84 0 149.167 -25.667 195.5 -77s69.5 -127.333 69.5 -228zM187 394
v-98c0 -124.667 41.333 -187 124 -187c83.333 0 125 62.333 125 187v98c0 124.667 -41.667 187 -125 187c-82.667 0 -124 -62.333 -124 -187zM361 742h-124l80 129h147z" />
    <glyph glyph-name="Ocircumflex" unicode="&#xd4;" horiz-adv-x="623" 
d="M576 394v-98c0 -100 -23.333 -175.833 -70 -227.5s-111.667 -77.5 -195 -77.5s-148.166 25.833 -194.499 77.5s-69.5 127.5 -69.5 227.5v98c0 100.667 23.167 176.667 69.5 228s111.166 77 194.499 77c84 0 149.167 -25.667 195.5 -77s69.5 -127.333 69.5 -228zM187 394
v-98c0 -124.667 41.333 -187 124 -187c83.333 0 125 62.333 125 187v98c0 124.667 -41.667 187 -125 187c-82.667 0 -124 -62.333 -124 -187zM121 737l138 142h105l138 -142h-133l-58 61l-57 -61h-133z" />
    <glyph glyph-name="Otilde" unicode="&#xd5;" horiz-adv-x="623" 
d="M576 394v-98c0 -100 -23.333 -175.833 -70 -227.5s-111.667 -77.5 -195 -77.5s-148.166 25.833 -194.499 77.5s-69.5 127.5 -69.5 227.5v98c0 100.667 23.167 176.667 69.5 228s111.166 77 194.499 77c84 0 149.167 -25.667 195.5 -77s69.5 -127.333 69.5 -228zM187 394
v-98c0 -124.667 41.333 -187 124 -187c83.333 0 125 62.333 125 187v98c0 124.667 -41.667 187 -125 187c-82.667 0 -124 -62.333 -124 -187zM373 738c-17.333 0 -39.002 4.66699 -65.002 14c-24.667 10 -42.334 15 -53.001 15c-19.333 0 -36.666 -8.66699 -51.999 -26
l-68 69c32.667 40 72 60 118 60c16.667 0 37.334 -5 62.001 -15c26 -9.33301 44.333 -14 55 -14c18.667 0 35.334 9 50.001 27l68 -69c-32.667 -40.667 -71 -61 -115 -61z" />
    <glyph glyph-name="Odieresis" unicode="&#xd6;" horiz-adv-x="623" 
d="M576 394v-98c0 -100 -23.333 -175.833 -70 -227.5s-111.667 -77.5 -195 -77.5s-148.166 25.833 -194.499 77.5s-69.5 127.5 -69.5 227.5v98c0 100.667 23.167 176.667 69.5 228s111.166 77 194.499 77c84 0 149.167 -25.667 195.5 -77s69.5 -127.333 69.5 -228zM187 394
v-98c0 -124.667 41.333 -187 124 -187c83.333 0 125 62.333 125 187v98c0 124.667 -41.667 187 -125 187c-82.667 0 -124 -62.333 -124 -187zM272 752h-124v117h124v-117zM475 752h-124v117h124v-117z" />
    <glyph glyph-name="multiply" unicode="&#xd7;" horiz-adv-x="563" 
d="M286 276l-116 -117l-78 78l117 117l-117 118l77 77l118 -118l118 118l77 -77l-118 -118l117 -117l-78 -78z" />
    <glyph glyph-name="Oslash" unicode="&#xd8;" horiz-adv-x="623" 
d="M245 -2l-40.998 -114h-115l57 157c-66 51.333 -99 136.333 -99 255v98c0 100.667 23.167 176.667 69.5 228s111.166 77 194.499 77c23.333 0 46.666 -2.33301 69.999 -7l44 120h115l-60 -166c64 -50.667 96 -134.667 96 -252v-98c0 -100 -23.333 -175.833 -70 -227.5
s-111.667 -77.5 -195 -77.5c-20.667 0 -42.667 2.33301 -66 7zM187.002 394v-98c0 -44 4.33301 -79 13 -105l140 387c-9.33301 2 -19 3 -29 3c-82.667 0 -124 -62.333 -124 -187zM436.002 296v98c0 38.667 -4 71.667 -12 99l-138 -382c6.66699 -1.33301 15 -2 25 -2
c83.333 0 125 62.333 125 187z" />
    <glyph glyph-name="Ugrave" unicode="&#xd9;" horiz-adv-x="666" 
d="M458 279v411.001h140v-410c0 -95.333 -23.5 -167.333 -70.5 -216s-111.833 -73 -194.5 -73s-147.5 24.167 -194.5 72.5s-70.5 120.166 -70.5 215.499v411h140v-411c0 -58.667 10 -101.667 30 -129s51.667 -41 95 -41s75 13.667 95 41s30 70.333 30 129zM177 871.001h148
l80 -129h-125z" />
    <glyph glyph-name="Uacute" unicode="&#xda;" horiz-adv-x="666" 
d="M458 279v411.001h140v-410c0 -95.333 -23.5 -167.333 -70.5 -216s-111.833 -73 -194.5 -73s-147.5 24.167 -194.5 72.5s-70.5 120.166 -70.5 215.499v411h140v-411c0 -58.667 10 -101.667 30 -129s51.667 -41 95 -41s75 13.667 95 41s30 70.333 30 129zM385 742.001h-124
l80 129h147z" />
    <glyph glyph-name="Ucircumflex" unicode="&#xdb;" horiz-adv-x="666" 
d="M458 279v411.001h140v-410c0 -95.333 -23.5 -167.333 -70.5 -216s-111.833 -73 -194.5 -73s-147.5 24.167 -194.5 72.5s-70.5 120.166 -70.5 215.499v411h140v-411c0 -58.667 10 -101.667 30 -129s51.667 -41 95 -41s75 13.667 95 41s30 70.333 30 129zM143 737.001
l138 142h105l138 -142h-133l-58 61l-57 -61h-133z" />
    <glyph glyph-name="Udieresis" unicode="&#xdc;" horiz-adv-x="666" 
d="M458 279v411.001h140v-410c0 -95.333 -23.5 -167.333 -70.5 -216s-111.833 -73 -194.5 -73s-147.5 24.167 -194.5 72.5s-70.5 120.166 -70.5 215.499v411h140v-411c0 -58.667 10 -101.667 30 -129s51.667 -41 95 -41s75 13.667 95 41s30 70.333 30 129zM294 752.001h-124
v117h124v-117zM497 752.001h-124v117h124v-117z" />
    <glyph glyph-name="Yacute" unicode="&#xdd;" horiz-adv-x="583" 
d="M221 282l-215 408h162l123 -257l124 257h161l-215 -408v-282h-140v282zM345 742h-124l80 129h147z" />
    <glyph glyph-name="Thorn" unicode="&#xde;" horiz-adv-x="590" 
d="M315 136h-106.999v-136h-140v690h140v-107h107c82 0 145.5 -18.833 190.5 -56.5s67.5 -92.167 67.5 -163.5c0 -72 -22.833 -127.833 -68.5 -167.5s-108.834 -59.5 -189.501 -59.5zM208.001 465v-209.999h87c48 0 83 8.66699 105 26s33 44.666 33 81.999
c0 68 -46 102 -138 102h-87z" />
    <glyph glyph-name="germandbls" unicode="&#xdf;" horiz-adv-x="513" 
d="M462 565c0 -46.667 -20.332 -79.333 -60.999 -98c22.667 -8 38.5 -20.833 47.5 -38.5s13.5 -43.167 13.5 -76.5v-212c0 -56 -11 -93.667 -33 -113c-22 -18 -59.667 -27 -113 -27h-63v106h33c18 0 30.667 4.33301 38 13s11 23 11 43v187c0 20.667 -3.66699 35.667 -11 45
s-20 14 -38 14h-33v99h33c32.667 0 49 15.667 49 47c0 30.667 -23 46 -69 46c-30.667 0 -52.834 -9 -66.501 -27s-20.5 -45.333 -20.5 -82v-491h-128v499c0 133.333 71.667 200 215 200c64 0 112.667 -12.5 146 -37.5s50 -57.167 50 -96.5z" />
    <glyph glyph-name="agrave" unicode="&#xe0;" 
d="M26 148c0 49.333 16.667 87 50 113s78.333 39 135 39h99v29c0 28.667 -6 48.167 -18 58.5s-35.667 15.5 -71 15.5c-26 0 -45.667 -2.66699 -59 -8s-25 -16 -35 -32l-90 63c18 30 42.167 51.333 72.5 64s71.5 19 123.5 19c70.667 0 122 -13.667 154 -41s48 -74 48 -140
v-328h-125v44c-21.333 -35.333 -57.333 -53 -108 -53c-54 0 -96.833 13.833 -128.5 41.5s-47.5 66.167 -47.5 115.5zM310 187v19.001h-84c-50 0 -75 -18.667 -75 -56s24.333 -56 73 -56c30 0 51.833 7.16699 65.5 21.5s20.5 38.166 20.5 71.499zM107 725.001h143l70 -158
h-122z" />
    <glyph glyph-name="aacute" unicode="&#xe1;" 
d="M26 148c0 49.333 16.667 87 50 113s78.333 39 135 39h99v29c0 28.667 -6 48.167 -18 58.5s-35.667 15.5 -71 15.5c-26 0 -45.667 -2.66699 -59 -8s-25 -16 -35 -32l-90 63c18 30 42.167 51.333 72.5 64s71.5 19 123.5 19c70.667 0 122 -13.667 154 -41s48 -74 48 -140
v-328h-125v44c-21.333 -35.333 -57.333 -53 -108 -53c-54 0 -96.833 13.833 -128.5 41.5s-47.5 66.167 -47.5 115.5zM310 187v19.001h-84c-50 0 -75 -18.667 -75 -56s24.333 -56 73 -56c30 0 51.833 7.16699 65.5 21.5s20.5 38.166 20.5 71.499zM284 567.001h-122l70 158
h143z" />
    <glyph glyph-name="acircumflex" unicode="&#xe2;" 
d="M26 148c0 49.333 16.667 87 50 113s78.333 39 135 39h99v29c0 28.667 -6 48.167 -18 58.5s-35.667 15.5 -71 15.5c-26 0 -45.667 -2.66699 -59 -8s-25 -16 -35 -32l-90 63c18 30 42.167 51.333 72.5 64s71.5 19 123.5 19c70.667 0 122 -13.667 154 -41s48 -74 48 -140
v-328h-125v44c-21.333 -35.333 -57.333 -53 -108 -53c-54 0 -96.833 13.833 -128.5 41.5s-47.5 66.167 -47.5 115.5zM310 187v19.001h-84c-50 0 -75 -18.667 -75 -56s24.333 -56 73 -56c30 0 51.833 7.16699 65.5 21.5s20.5 38.166 20.5 71.499zM80 568.001l108 142h106
l108 -142h-114l-47 65l-47 -65h-114z" />
    <glyph glyph-name="atilde" unicode="&#xe3;" 
d="M26 148c0 49.333 16.667 87 50 113s78.333 39 135 39h99v29c0 28.667 -6 48.167 -18 58.5s-35.667 15.5 -71 15.5c-26 0 -45.667 -2.66699 -59 -8s-25 -16 -35 -32l-90 63c18 30 42.167 51.333 72.5 64s71.5 19 123.5 19c70.667 0 122 -13.667 154 -41s48 -74 48 -140
v-328h-125v44c-21.333 -35.333 -57.333 -53 -108 -53c-54 0 -96.833 13.833 -128.5 41.5s-47.5 66.167 -47.5 115.5zM310 187v19.001h-84c-50 0 -75 -18.667 -75 -56s24.333 -56 73 -56c30 0 51.833 7.16699 65.5 21.5s20.5 38.166 20.5 71.499zM307 569.001
c-16.667 0 -38 4.66699 -64 14c-24.667 10 -42.334 15 -53.001 15c-20 0 -37.667 -9 -53 -27l-67 64c32 40.667 71 61 117 61c16.667 0 37.334 -5 62.001 -15c26 -9.33301 44.333 -14 55 -14c18 0 35 9 51 27l67 -64c-30.667 -40.667 -69 -61 -115 -61z" />
    <glyph glyph-name="adieresis" unicode="&#xe4;" 
d="M26 148c0 49.333 16.667 87 50 113s78.333 39 135 39h99v29c0 28.667 -6 48.167 -18 58.5s-35.667 15.5 -71 15.5c-26 0 -45.667 -2.66699 -59 -8s-25 -16 -35 -32l-90 63c18 30 42.167 51.333 72.5 64s71.5 19 123.5 19c70.667 0 122 -13.667 154 -41s48 -74 48 -140
v-328h-125v44c-21.333 -35.333 -57.333 -53 -108 -53c-54 0 -96.833 13.833 -128.5 41.5s-47.5 66.167 -47.5 115.5zM310 187v19.001h-84c-50 0 -75 -18.667 -75 -56s24.333 -56 73 -56c30 0 51.833 7.16699 65.5 21.5s20.5 38.166 20.5 71.499zM193 573.001h-124v117h124
v-117zM396 573.001h-123v117h123v-117z" />
    <glyph glyph-name="aring" unicode="&#xe5;" 
d="M26 148c0 49.333 16.667 87 50 113s78.333 39 135 39h99v29c0 28.667 -6 48.167 -18 58.5s-35.667 15.5 -71 15.5c-26 0 -45.667 -2.66699 -59 -8s-25 -16 -35 -32l-90 63c18 30 42.167 51.333 72.5 64s71.5 19 123.5 19c70.667 0 122 -13.667 154 -41s48 -74 48 -140
v-328h-125v44c-21.333 -35.333 -57.333 -53 -108 -53c-54 0 -96.833 13.833 -128.5 41.5s-47.5 66.167 -47.5 115.5zM310 187v19.001h-84c-50 0 -75 -18.667 -75 -56s24.333 -56 73 -56c30 0 51.833 7.16699 65.5 21.5s20.5 38.166 20.5 71.499zM155 567.001
c-22.667 20.667 -34.002 47 -34.002 79s11.333 58.333 34 79s52.334 31 89.001 31s66.334 -10.333 89.001 -31s34 -47 34 -79s-11.333 -58.333 -34 -79c-23.333 -20 -53 -30 -89 -30s-65.667 10 -89 30zM206.998 646.001c0 -13.333 3.33301 -24 10 -32s15.667 -12 27 -12
c24.667 0 37 14.667 37 44c0 28.667 -12.333 43 -37 43s-37 -14.333 -37 -43z" />
    <glyph glyph-name="ae" unicode="&#xe6;" horiz-adv-x="760" 
d="M618 142l94.001 -65.999c-32.667 -56.667 -93.334 -85 -182.001 -85c-76 0 -130.333 23 -163 69c-36.667 -46 -91.334 -69 -164.001 -69c-54.667 0 -97.834 13.833 -129.501 41.5s-47.5 65.5 -47.5 113.5c0 50.667 16.833 89 50.5 115s79.834 39 138.501 39h95v25
c0 29.333 -5.66699 49.666 -17 60.999s-34.333 17 -69 17c-28 0 -48.667 -2.83301 -62 -8.5s-25 -16.167 -35 -31.5l-90 61c34 56.667 100.333 85 199 85c68 0 116.667 -16 146 -48c32 32 76 48 132 48c137.333 0 206 -78.333 206 -235v-58h-285
c0.666992 -78 32.334 -117 95.001 -117c22 0 39.5 3.16699 52.5 9.5s24.833 17.5 35.5 33.5zM310.001 186.001v20h-85c-49.333 0 -74 -18.667 -74 -56s24.333 -56 73 -56c29.333 0 51 7 65 21s21 37.667 21 71zM435.001 307.001h157.002
c-2.66699 62.667 -28.334 94 -77.001 94s-75.334 -31.333 -80.001 -94z" />
    <glyph glyph-name="ccedilla" unicode="&#xe7;" horiz-adv-x="446" 
d="M204 -72l13.001 65.998c-58 6.66699 -103.167 29.834 -135.5 69.501s-48.5 90.834 -48.5 153.501v68c0 72.667 19.667 128.167 59 166.5s96.333 57.5 171 57.5c81.333 0 139.666 -27.667 174.999 -83l-96 -67c-20 28 -47.333 42 -82 42c-66.667 0 -100 -41.333 -100 -124
v-52c0 -40 7 -71 21 -93c15.333 -22 41.666 -33 78.999 -33c38.667 0 66.334 14.333 83.001 43l95 -66c-28.667 -48 -75.667 -75.667 -141 -83l-4 -15c34.667 -12.667 52 -36.667 52 -72c0 -26.667 -10.667 -47.667 -32 -63s-50 -23 -86 -23c-20.667 0 -36 1.33301 -46 4
l15 65c10.667 -1.33301 17 -2 19 -2c22 0 33 7 33 21c0 13.333 -14.667 20 -44 20z" />
    <glyph glyph-name="egrave" unicode="&#xe8;" 
d="M343 142l95.002 -66c-32.667 -56.667 -93.667 -85 -183 -85c-70.667 0 -125.334 20.5 -164.001 61.5s-58 95.833 -58 164.5v68c0 73.333 17.667 129 53 167s86.333 57 153 57c137.333 0 206 -78 206 -234v-57h-285c1.33301 -79.333 32.666 -119 93.999 -119
c24 0 42.167 3.16699 54.5 9.5s23.833 17.5 34.5 33.5zM240.002 401c-48 0 -74.667 -30.667 -80 -92h157c-3.33301 61.333 -29 92 -77 92zM113.002 725h143l70 -158h-122z" />
    <glyph glyph-name="eacute" unicode="&#xe9;" 
d="M343 142l95.002 -66c-32.667 -56.667 -93.667 -85 -183 -85c-70.667 0 -125.334 20.5 -164.001 61.5s-58 95.833 -58 164.5v68c0 73.333 17.667 129 53 167s86.333 57 153 57c137.333 0 206 -78 206 -234v-57h-285c1.33301 -79.333 32.666 -119 93.999 -119
c24 0 42.167 3.16699 54.5 9.5s23.833 17.5 34.5 33.5zM240.002 401c-48 0 -74.667 -30.667 -80 -92h157c-3.33301 61.333 -29 92 -77 92zM286.002 567h-122l70 158h143z" />
    <glyph glyph-name="ecircumflex" unicode="&#xea;" 
d="M343 142l95.002 -66c-32.667 -56.667 -93.667 -85 -183 -85c-70.667 0 -125.334 20.5 -164.001 61.5s-58 95.833 -58 164.5v68c0 73.333 17.667 129 53 167s86.333 57 153 57c137.333 0 206 -78 206 -234v-57h-285c1.33301 -79.333 32.666 -119 93.999 -119
c24 0 42.167 3.16699 54.5 9.5s23.833 17.5 34.5 33.5zM240.002 401c-48 0 -74.667 -30.667 -80 -92h157c-3.33301 61.333 -29 92 -77 92zM78.002 568l108 142h106l108 -142h-114l-47 65l-47 -65h-114z" />
    <glyph glyph-name="edieresis" unicode="&#xeb;" 
d="M343 142l95.002 -66c-32.667 -56.667 -93.667 -85 -183 -85c-70.667 0 -125.334 20.5 -164.001 61.5s-58 95.833 -58 164.5v68c0 73.333 17.667 129 53 167s86.333 57 153 57c137.333 0 206 -78 206 -234v-57h-285c1.33301 -79.333 32.666 -119 93.999 -119
c24 0 42.167 3.16699 54.5 9.5s23.833 17.5 34.5 33.5zM240.002 401c-48 0 -74.667 -30.667 -80 -92h157c-3.33301 61.333 -29 92 -77 92zM199.002 573h-124v117h124v-117zM402.002 573h-123v117h123v-117z" />
    <glyph glyph-name="igrave" unicode="&#xec;" horiz-adv-x="260" 
d="M194 0h-128v500h128v-500zM-24 725h143l70 -158h-122z" />
    <glyph glyph-name="iacute" unicode="&#xed;" horiz-adv-x="260" 
d="M194 0h-128v500h128v-500zM183 567h-122l70 158h143z" />
    <glyph glyph-name="icircumflex" unicode="&#xee;" horiz-adv-x="260" 
d="M194 0h-128v500h128v-500zM-36 568l108 142h106l108 -142h-114l-47 65l-47 -65h-114z" />
    <glyph glyph-name="idieresis" unicode="&#xef;" horiz-adv-x="260" 
d="M194 0h-128v500h128v-500zM85 573h-124v117h124v-117zM288 573h-123v117h123v-117z" />
    <glyph glyph-name="eth" unicode="&#xf0;" horiz-adv-x="505" 
d="M238 524l-73.0029 38.001l22 42c-16.667 6 -34.667 13 -54 21l45 85l53 -22l26 50l73 -39l-24 -45c60.667 -28.667 102.334 -61 125.001 -97c22.667 -35.333 34 -91 34 -167v-98v-14v-57c0 -72.667 -18.167 -129.167 -54.5 -169.5s-90.166 -60.5 -161.499 -60.5
c-70 0 -123.5 20.167 -160.5 60.5s-55.5 96.833 -55.5 169.5v60c0 73.333 18.333 129.666 55 168.999s89 59 157 59c46.667 0 83.334 -11.667 110.001 -35c-4 23.333 -12.667 42 -26 56s-35.333 28 -66 42zM248.997 99.001c59.333 0 89 42 89 126v52
c0 82.667 -29.667 124 -89 124s-89 -41.333 -89 -124v-52c0 -42 6.83301 -73.5 20.5 -94.5s36.5 -31.5 68.5 -31.5z" />
    <glyph glyph-name="ntilde" unicode="&#xf1;" horiz-adv-x="526" 
d="M179 0h-128v500h125v-42c26 34 64.333 51 115 51c122 0 183 -65.333 183 -196v-313h-127v293c0 37.333 -6.5 64.333 -19.5 81s-33.167 25 -60.5 25c-58.667 0 -88 -35 -88 -105v-294zM324 569c-16.667 0 -37.999 4.66699 -63.999 14c-25.333 10 -43 15 -53 15
c-20.667 0 -38.334 -9 -53.001 -27l-67 64c32 40.667 71 61 117 61c16 0 36.667 -5 62 -15c26 -9.33301 44.333 -14 55 -14c18 0 35 9 51 27l67 -64c-30.667 -40.667 -69 -61 -115 -61z" />
    <glyph glyph-name="ograve" unicode="&#xf2;" horiz-adv-x="499" 
d="M465 281l-0.000976562 -59.999c0 -72.667 -18.167 -129.167 -54.5 -169.5s-90.166 -60.5 -161.499 -60.5c-70 0 -123.5 20.167 -160.5 60.5s-55.5 96.833 -55.5 169.5v60c0 74 18.5 130.5 55.5 169.5s90.5 58.5 160.5 58.5s123.5 -19.333 160.5 -58
s55.5 -95.334 55.5 -170.001zM248.999 99.001c59.333 0 89 42 89 126v52c0 82.667 -29.667 124 -89 124s-89 -41.333 -89 -124v-52c0 -42 6.83301 -73.5 20.5 -94.5s36.5 -31.5 68.5 -31.5zM125.999 725.001h143l70 -158h-122z" />
    <glyph glyph-name="oacute" unicode="&#xf3;" horiz-adv-x="499" 
d="M465 281l-0.000976562 -59.999c0 -72.667 -18.167 -129.167 -54.5 -169.5s-90.166 -60.5 -161.499 -60.5c-70 0 -123.5 20.167 -160.5 60.5s-55.5 96.833 -55.5 169.5v60c0 74 18.5 130.5 55.5 169.5s90.5 58.5 160.5 58.5s123.5 -19.333 160.5 -58
s55.5 -95.334 55.5 -170.001zM248.999 99.001c59.333 0 89 42 89 126v52c0 82.667 -29.667 124 -89 124s-89 -41.333 -89 -124v-52c0 -42 6.83301 -73.5 20.5 -94.5s36.5 -31.5 68.5 -31.5zM300.999 567.001h-122l70 158h143z" />
    <glyph glyph-name="ocircumflex" unicode="&#xf4;" horiz-adv-x="499" 
d="M465 281l-0.000976562 -59.999c0 -72.667 -18.167 -129.167 -54.5 -169.5s-90.166 -60.5 -161.499 -60.5c-70 0 -123.5 20.167 -160.5 60.5s-55.5 96.833 -55.5 169.5v60c0 74 18.5 130.5 55.5 169.5s90.5 58.5 160.5 58.5s123.5 -19.333 160.5 -58
s55.5 -95.334 55.5 -170.001zM248.999 99.001c59.333 0 89 42 89 126v52c0 82.667 -29.667 124 -89 124s-89 -41.333 -89 -124v-52c0 -42 6.83301 -73.5 20.5 -94.5s36.5 -31.5 68.5 -31.5zM87.999 568.001l108 142h106l108 -142h-114l-47 65l-47 -65h-114z" />
    <glyph glyph-name="otilde" unicode="&#xf5;" horiz-adv-x="499" 
d="M465 281l-0.000976562 -59.999c0 -72.667 -18.167 -129.167 -54.5 -169.5s-90.166 -60.5 -161.499 -60.5c-70 0 -123.5 20.167 -160.5 60.5s-55.5 96.833 -55.5 169.5v60c0 74 18.5 130.5 55.5 169.5s90.5 58.5 160.5 58.5s123.5 -19.333 160.5 -58
s55.5 -95.334 55.5 -170.001zM248.999 99.001c59.333 0 89 42 89 126v52c0 82.667 -29.667 124 -89 124s-89 -41.333 -89 -124v-52c0 -42 6.83301 -73.5 20.5 -94.5s36.5 -31.5 68.5 -31.5zM310.999 569.001c-16.667 0 -38.001 4.66699 -64.001 14c-25.333 10 -43 15 -53 15
c-20 0 -37.667 -9 -53 -27l-67 64c32 40.667 71 61 117 61c16.667 0 37.334 -5 62.001 -15c26 -9.33301 44.333 -14 55 -14c18 0 35 9 51 27l67 -64c-30.667 -40.667 -69 -61 -115 -61z" />
    <glyph glyph-name="odieresis" unicode="&#xf6;" horiz-adv-x="499" 
d="M465 281l-0.000976562 -59.999c0 -72.667 -18.167 -129.167 -54.5 -169.5s-90.166 -60.5 -161.499 -60.5c-70 0 -123.5 20.167 -160.5 60.5s-55.5 96.833 -55.5 169.5v60c0 74 18.5 130.5 55.5 169.5s90.5 58.5 160.5 58.5s123.5 -19.333 160.5 -58
s55.5 -95.334 55.5 -170.001zM248.999 99.001c59.333 0 89 42 89 126v52c0 82.667 -29.667 124 -89 124s-89 -41.333 -89 -124v-52c0 -42 6.83301 -73.5 20.5 -94.5s36.5 -31.5 68.5 -31.5zM208.999 573.001h-124v117h124v-117zM411.999 573.001h-123v117h123v-117z" />
    <glyph glyph-name="divide" unicode="&#xf7;" horiz-adv-x="506" 
d="M447 298h-389v112h389v-112zM313 460h-121v121h121v-121zM313 128h-121v120h121v-120z" />
    <glyph glyph-name="oslash" unicode="&#xf8;" horiz-adv-x="499" 
d="M175 0l-35.001 -79.001h-77l49 109c-52.667 38.667 -79 102.334 -79 191.001v60c0 74 18.5 130.5 55.5 169.5s90.5 58.5 160.5 58.5c26.667 0 51 -3 73 -9l37 82h77l-50 -111c52.667 -36.667 79 -100 79 -190v-60c0 -72.667 -18.167 -129.167 -54.5 -169.5
s-90.166 -60.5 -161.499 -60.5c-27.333 0 -52 3 -74 9zM159.999 276.999v-52c0 -26.667 2.66699 -49.667 8 -69l108 241c-10 2.66699 -19 4 -27 4c-59.333 0 -89 -41.333 -89 -124zM248.999 98.999c59.333 0 89 42 89 126v52c0 26 -3 48 -9 66l-108 -241
c8 -2 17.333 -3 28 -3z" />
    <glyph glyph-name="ugrave" unicode="&#xf9;" horiz-adv-x="526" 
d="M347 500l127.001 0.000976562v-500h-125v42c-12 -18.667 -26.333 -31.834 -43 -39.501s-40.334 -11.5 -71.001 -11.5c-58 0 -103.167 16 -135.5 48s-48.5 81.667 -48.5 149v312h128v-293c0 -37.333 6.5 -64.333 19.5 -81s33.5 -25 61.5 -25c58 0 87 35 87 105v294z
M138.001 725.001h143l70 -158h-122z" />
    <glyph glyph-name="uacute" unicode="&#xfa;" horiz-adv-x="526" 
d="M347 500l127.001 0.000976562v-500h-125v42c-12 -18.667 -26.333 -31.834 -43 -39.501s-40.334 -11.5 -71.001 -11.5c-58 0 -103.167 16 -135.5 48s-48.5 81.667 -48.5 149v312h128v-293c0 -37.333 6.5 -64.333 19.5 -81s33.5 -25 61.5 -25c58 0 87 35 87 105v294z
M318.001 567.001h-122l70 158h143z" />
    <glyph glyph-name="ucircumflex" unicode="&#xfb;" horiz-adv-x="526" 
d="M347 500l127.001 0.000976562v-500h-125v42c-12 -18.667 -26.333 -31.834 -43 -39.501s-40.334 -11.5 -71.001 -11.5c-58 0 -103.167 16 -135.5 48s-48.5 81.667 -48.5 149v312h128v-293c0 -37.333 6.5 -64.333 19.5 -81s33.5 -25 61.5 -25c58 0 87 35 87 105v294z
M102.001 568.001l108 142h106l108 -142h-114l-47 65l-47 -65h-114z" />
    <glyph glyph-name="udieresis" unicode="&#xfc;" horiz-adv-x="526" 
d="M347 500l127.001 0.000976562v-500h-125v42c-12 -18.667 -26.333 -31.834 -43 -39.501s-40.334 -11.5 -71.001 -11.5c-58 0 -103.167 16 -135.5 48s-48.5 81.667 -48.5 149v312h128v-293c0 -37.333 6.5 -64.333 19.5 -81s33.5 -25 61.5 -25c58 0 87 35 87 105v294z
M223.001 573.001h-124v117h124v-117zM426.001 573.001h-123v117h123v-117z" />
    <glyph glyph-name="yacute" unicode="&#xfd;" horiz-adv-x="479" 
d="M192 -7l-187.002 507h134l111 -320l100 320h129l-175 -523c-23.333 -68 -49.666 -112.667 -78.999 -134c-30 -22 -80 -33 -150 -33v114c36.667 0 62.834 4.5 78.501 13.5s28.5 27.5 38.5 55.5zM308.998 567h-122l70 158h143z" />
    <glyph glyph-name="thorn" unicode="&#xfe;" horiz-adv-x="517" 
d="M484 285v-68c0 -67.333 -17 -122 -51 -164c-33.333 -41.333 -81.333 -62 -144 -62c-50 0 -86.667 9.66699 -110 29v-210h-128v880h128v-223c24.667 28 61.667 42 111 42c59.333 0 106.5 -19.833 141.5 -59.5s52.5 -94.5 52.5 -164.5zM268 99c58.667 0 88 42 88 126v52
c0 82.667 -29.333 124 -88 124c-59.333 0 -89 -37.667 -89 -113v-63c0 -42 6.83301 -73.5 20.5 -94.5s36.5 -31.5 68.5 -31.5z" />
    <glyph glyph-name="ydieresis" unicode="&#xff;" horiz-adv-x="479" 
d="M192 -7l-187.002 507h134l111 -320l100 320h129l-175 -523c-23.333 -68 -49.666 -112.667 -78.999 -134c-30 -22 -80 -33 -150 -33v114c36.667 0 62.834 4.5 78.501 13.5s28.5 27.5 38.5 55.5zM207.998 573h-124v117h124v-117zM410.998 573h-123v117h123v-117z" />
    <glyph glyph-name="Amacron" unicode="&#x100;" horiz-adv-x="607" 
d="M188 131l-42 -131h-150l240 690h134l240 -690h-149l-42 131h-231zM381 249l-78 243l-78 -243h156zM465 744h-322v112h322v-112z" />
    <glyph glyph-name="amacron" unicode="&#x101;" 
d="M26 148c0 49.333 16.667 87 50 113s78.333 39 135 39h99v29c0 28.667 -6 48.167 -18 58.5s-35.667 15.5 -71 15.5c-26 0 -45.667 -2.66699 -59 -8s-25 -16 -35 -32l-90 63c18 30 42.167 51.333 72.5 64s71.5 19 123.5 19c70.667 0 122 -13.667 154 -41s48 -74 48 -140
v-328h-125v44c-21.333 -35.333 -57.333 -53 -108 -53c-54 0 -96.833 13.833 -128.5 41.5s-47.5 66.167 -47.5 115.5zM310 187v19.001h-84c-50 0 -75 -18.667 -75 -56s24.333 -56 73 -56c30 0 51.833 7.16699 65.5 21.5s20.5 38.166 20.5 71.499zM386 573.001h-283v111h283
v-111z" />
    <glyph glyph-name="Abreve" unicode="&#x102;" horiz-adv-x="607" 
d="M188 131l-42 -131h-150l240 690h134l240 -690h-149l-42 131h-231zM381 249l-78 243l-78 -243h156zM383 879h112c0 -47.333 -17.5 -84.5 -52.5 -111.5s-81.167 -40.5 -138.5 -40.5s-103.5 13.5 -138.5 40.5s-52.5 64.167 -52.5 111.5h111
c6.66699 -36 33.334 -54 80.001 -54c45.333 0 71.666 18 78.999 54z" />
    <glyph glyph-name="abreve" unicode="&#x103;" 
d="M26 148c0 49.333 16.667 87 50 113s78.333 39 135 39h99v29c0 28.667 -6 48.167 -18 58.5s-35.667 15.5 -71 15.5c-26 0 -45.667 -2.66699 -59 -8s-25 -16 -35 -32l-90 63c18 30 42.167 51.333 72.5 64s71.5 19 123.5 19c70.667 0 122 -13.667 154 -41s48 -74 48 -140
v-328h-125v44c-21.333 -35.333 -57.333 -53 -108 -53c-54 0 -96.833 13.833 -128.5 41.5s-47.5 66.167 -47.5 115.5zM310 187v19.001h-84c-50 0 -75 -18.667 -75 -56s24.333 -56 73 -56c30 0 51.833 7.16699 65.5 21.5s20.5 38.166 20.5 71.499zM310 690.001h91.999
c-1.33301 -42 -15 -74.5 -41 -97.5s-62 -34.5 -108 -34.5s-82.167 11.5 -108.5 34.5s-40.166 55.5 -41.499 97.5h93c5.33301 -35.333 24.333 -53 57 -53s51.667 17.667 57 53z" />
    <glyph glyph-name="Aogonek" unicode="&#x104;" horiz-adv-x="607" 
d="M188 131l-41.998 -131h-150l240 690h134l240 -690c-38.667 -34 -52.334 -58.667 -41.001 -74c4.66699 -6 12.667 -9 24 -9c3.33301 0 9.66602 0.666992 18.999 2l15 -65c-10 -2.66699 -26 -4 -48 -4c-32 0 -58.333 6.5 -79 19.5s-31 31.833 -31 56.5
c0 28 11.667 52.667 35 74h-43l-42 131h-231zM381.002 249l-78 243l-78 -243h156z" />
    <glyph glyph-name="aogonek" unicode="&#x105;" horiz-adv-x="495" 
d="M26 148c0 49.333 16.6689 86.999 50.002 112.999s78.333 39 135 39h99v29c0 28.667 -6 48.167 -18 58.5s-35.667 15.5 -71 15.5c-26 0 -45.667 -2.66699 -59 -8s-25 -16 -35 -32l-90 63c18 30 42.167 51.333 72.5 64s71.5 19 123.5 19c70.667 0 122 -13.667 154 -41
s48 -74 48 -140v-328c-16.667 -14.667 -27.834 -25.667 -33.501 -33s-9.5 -16.666 -11.5 -27.999c0 -14.667 9 -22 27 -22c3.33301 0 9.66602 0.666992 18.999 2l15 -65c-10 -2.66699 -26 -4 -48 -4c-32 0 -58.333 6.5 -79 19.5s-31 31.833 -31 56.5
c0 28 11.667 52.667 35 74h-18v44c-21.333 -35.333 -57.333 -53 -108 -53c-54 0 -96.833 13.833 -128.5 41.5s-47.5 66.167 -47.5 115.5zM310.002 186.999v19.001h-84c-50 0 -75 -18.667 -75 -56s24.333 -56 73 -56c30 0 51.833 7.16699 65.5 21.5s20.5 38.166 20.5 71.499z
" />
    <glyph glyph-name="Cacute" unicode="&#x106;" horiz-adv-x="594" 
d="M564 476l-133.999 -0.000976562c-14 70 -53.667 105 -119 105c-82.667 0 -124 -62.333 -124 -187v-98c0 -124.667 41.333 -187 124 -187c34 0 60.333 8.33301 79 25s32 43.334 40 80.001h133c-22 -148.667 -106 -223 -252 -223c-83.333 0 -148.166 25.833 -194.499 77.5
s-69.5 127.5 -69.5 227.5v98c0 100.667 23.167 176.667 69.5 228s111.166 77 194.499 77c70.667 0 127.667 -18.833 171 -56.5s70.666 -93.167 81.999 -166.5zM345.001 741.999h-124l80 129h147z" />
    <glyph glyph-name="cacute" unicode="&#x107;" horiz-adv-x="446" 
d="M343 142l95.002 -66c-32.667 -56.667 -93.334 -85 -182.001 -85c-70 0 -124.667 20.167 -164 60.5s-59 95.5 -59 165.5v68c0 72.667 19.667 128.167 59 166.5s96.333 57.5 171 57.5c81.333 0 139.666 -27.667 174.999 -83l-96 -67c-20 28 -47.333 42 -82 42
c-66.667 0 -100 -41.333 -100 -124v-52c0 -40 7 -71 21 -93c15.333 -22 41.666 -33 78.999 -33c38.667 0 66.334 14.333 83.001 43zM305.002 567h-122l70 158h143z" />
    <glyph glyph-name="Ccircumflex" unicode="&#x108;" horiz-adv-x="594" 
d="M564 476l-133.999 -0.000976562c-14 70 -53.667 105 -119 105c-82.667 0 -124 -62.333 -124 -187v-98c0 -124.667 41.333 -187 124 -187c34 0 60.333 8.33301 79 25s32 43.334 40 80.001h133c-22 -148.667 -106 -223 -252 -223c-83.333 0 -148.166 25.833 -194.499 77.5
s-69.5 127.5 -69.5 227.5v98c0 100.667 23.167 176.667 69.5 228s111.166 77 194.499 77c70.667 0 127.667 -18.833 171 -56.5s70.666 -93.167 81.999 -166.5zM118.001 736.999l138 142h105l138 -142h-133l-58 61l-57 -61h-133z" />
    <glyph glyph-name="ccircumflex" unicode="&#x109;" horiz-adv-x="446" 
d="M343 142l95.002 -66c-32.667 -56.667 -93.334 -85 -182.001 -85c-70 0 -124.667 20.167 -164 60.5s-59 95.5 -59 165.5v68c0 72.667 19.667 128.167 59 166.5s96.333 57.5 171 57.5c81.333 0 139.666 -27.667 174.999 -83l-96 -67c-20 28 -47.333 42 -82 42
c-66.667 0 -100 -41.333 -100 -124v-52c0 -40 7 -71 21 -93c15.333 -22 41.666 -33 78.999 -33c38.667 0 66.334 14.333 83.001 43zM98.002 568l108 142h106l108 -142h-114l-47 65l-47 -65h-114z" />
    <glyph glyph-name="Cdotaccent" unicode="&#x10a;" horiz-adv-x="594" 
d="M564 476l-133.999 -0.000976562c-14 70 -53.667 105 -119 105c-82.667 0 -124 -62.333 -124 -187v-98c0 -124.667 41.333 -187 124 -187c34 0 60.333 8.33301 79 25s32 43.334 40 80.001h133c-22 -148.667 -106 -223 -252 -223c-83.333 0 -148.166 25.833 -194.499 77.5
s-69.5 127.5 -69.5 227.5v98c0 100.667 23.167 176.667 69.5 228s111.166 77 194.499 77c70.667 0 127.667 -18.833 171 -56.5s70.666 -93.167 81.999 -166.5zM380.001 758.999h-141v110h141v-110z" />
    <glyph glyph-name="cdotaccent" unicode="&#x10b;" horiz-adv-x="446" 
d="M343 142l95.002 -66c-32.667 -56.667 -93.334 -85 -182.001 -85c-70 0 -124.667 20.167 -164 60.5s-59 95.5 -59 165.5v68c0 72.667 19.667 128.167 59 166.5s96.333 57.5 171 57.5c81.333 0 139.666 -27.667 174.999 -83l-96 -67c-20 28 -47.333 42 -82 42
c-66.667 0 -100 -41.333 -100 -124v-52c0 -40 7 -71 21 -93c15.333 -22 41.666 -33 78.999 -33c38.667 0 66.334 14.333 83.001 43zM320.002 566h-138v124h138v-124z" />
    <glyph glyph-name="Ccaron" unicode="&#x10c;" horiz-adv-x="594" 
d="M564 476l-133.999 -0.000976562c-14 70 -53.667 105 -119 105c-82.667 0 -124 -62.333 -124 -187v-98c0 -124.667 41.333 -187 124 -187c34 0 60.333 8.33301 79 25s32 43.334 40 80.001h133c-22 -148.667 -106 -223 -252 -223c-83.333 0 -148.166 25.833 -194.499 77.5
s-69.5 127.5 -69.5 227.5v98c0 100.667 23.167 176.667 69.5 228s111.166 77 194.499 77c70.667 0 127.667 -18.833 171 -56.5s70.666 -93.167 81.999 -166.5zM496.001 878.999l-138 -142h-105l-138 142h133l57 -61l58 61h133z" />
    <glyph glyph-name="ccaron" unicode="&#x10d;" horiz-adv-x="446" 
d="M343 142l95.002 -66c-32.667 -56.667 -93.334 -85 -182.001 -85c-70 0 -124.667 20.167 -164 60.5s-59 95.5 -59 165.5v68c0 72.667 19.667 128.167 59 166.5s96.333 57.5 171 57.5c81.333 0 139.666 -27.667 174.999 -83l-96 -67c-20 28 -47.333 42 -82 42
c-66.667 0 -100 -41.333 -100 -124v-52c0 -40 7 -71 21 -93c15.333 -22 41.666 -33 78.999 -33c38.667 0 66.334 14.333 83.001 43zM416.002 710l-108 -142h-106l-108 142h114l47 -65l47 65h114z" />
    <glyph glyph-name="Dcaron" unicode="&#x10e;" horiz-adv-x="625" 
d="M313 0h-245v690h245c176.667 0 265 -100 265 -300v-90c0 -200 -88.333 -300 -265 -300zM208 118h105c44.667 0 76.667 14.5 96 43.5s29 75.167 29 138.5v90c0 62.667 -9.66699 108.5 -29 137.5s-51.333 43.5 -96 43.5h-105v-453zM479 879l-138 -142h-105l-138 142h133
l57 -61l58 61h133z" />
    <glyph glyph-name="dcaron" unicode="&#x10f;" horiz-adv-x="538" 
d="M338 474v216h127v-690h-127v29c-27.333 -25.333 -63 -38 -107 -38c-63.333 0 -112.166 20.333 -146.499 61s-51.5 95.667 -51.5 165v68c0 70.667 17.667 125.667 53 165s83.666 59 144.999 59c44 0 79.667 -11.667 107 -35zM249 99c32 0 54.833 10.5 68.5 31.5
s20.5 52.5 20.5 94.5v63c0 75.333 -29.667 113 -89 113s-89 -41.333 -89 -124v-52c0 -84 29.667 -126 89 -126zM499 689h137v-129l-137 -117v246z" />
    <glyph glyph-name="Dcroat" unicode="&#x110;" horiz-adv-x="636" 
d="M324 0h-245v298h-89v118h89v274h245c176.667 0 265 -100 265 -300v-90c0 -200 -88.333 -300 -265 -300zM219 118h105c44.667 0 76.667 14.5 96 43.5s29 75.167 29 138.5v90c0 62.667 -9.66699 108.5 -29 137.5s-51.333 43.5 -96 43.5h-105v-155h140v-118h-140v-180z" />
    <glyph glyph-name="dslash" unicode="&#x111;" horiz-adv-x="517" 
d="M338 474v64h-124v105h124v47h127v-47h75v-105h-75v-538h-127v29c-27.333 -25.333 -63 -38 -107 -38c-63.333 0 -112.166 20.333 -146.499 61s-51.5 95.667 -51.5 165v68c0 70.667 17.667 125.667 53 165s83.666 59 144.999 59c44 0 79.667 -11.667 107 -35zM249 99
c32 0 54.833 10.5 68.5 31.5s20.5 52.5 20.5 94.5v63c0 75.333 -29.667 113 -89 113s-89 -41.333 -89 -124v-52c0 -84 29.667 -126 89 -126z" />
    <glyph glyph-name="Emacron" unicode="&#x112;" horiz-adv-x="527" 
d="M68 0v690h430v-119h-290v-155h260v-118h-260v-180h290v-118h-430zM444 744h-322v112h322v-112z" />
    <glyph glyph-name="emacron" unicode="&#x113;" 
d="M343 142l95.002 -66c-32.667 -56.667 -93.667 -85 -183 -85c-70.667 0 -125.334 20.5 -164.001 61.5s-58 95.833 -58 164.5v68c0 73.333 17.667 129 53 167s86.333 57 153 57c137.333 0 206 -78 206 -234v-57h-285c1.33301 -79.333 32.666 -119 93.999 -119
c24 0 42.167 3.16699 54.5 9.5s23.833 17.5 34.5 33.5zM240.002 401c-48 0 -74.667 -30.667 -80 -92h157c-3.33301 61.333 -29 92 -77 92zM381.002 573h-283v111h283v-111z" />
    <glyph glyph-name="Edotaccent" unicode="&#x116;" horiz-adv-x="527" 
d="M68 0v690h430v-119h-290v-155h260v-118h-260v-180h290v-118h-430zM353 759h-141v110h141v-110z" />
    <glyph glyph-name="edotaccent" unicode="&#x117;" 
d="M343 142l95.002 -66c-32.667 -56.667 -93.667 -85 -183 -85c-70.667 0 -125.334 20.5 -164.001 61.5s-58 95.833 -58 164.5v68c0 73.333 17.667 129 53 167s86.333 57 153 57c137.333 0 206 -78 206 -234v-57h-285c1.33301 -79.333 32.666 -119 93.999 -119
c24 0 42.167 3.16699 54.5 9.5s23.833 17.5 34.5 33.5zM240.002 401c-48 0 -74.667 -30.667 -80 -92h157c-3.33301 61.333 -29 92 -77 92zM308.002 566h-138v124h138v-124z" />
    <glyph glyph-name="Eogonek" unicode="&#x118;" horiz-adv-x="527" 
d="M68 0l0.00195312 689.999h430v-119h-290v-155h260v-118h-260v-180h290v-118h-111c-16.667 -14.667 -27.834 -25.667 -33.501 -33s-9.5 -16.666 -11.5 -27.999c0 -14.667 9 -22 27 -22c3.33301 0 9.66602 0.666992 18.999 2l15 -65c-10 -2.66699 -26 -4 -48 -4
c-32 0 -58.333 6.5 -79 19.5s-31 31.833 -31 56.5c0 28 11.667 52.667 35 74h-212z" />
    <glyph glyph-name="eogonek" unicode="&#x119;" 
d="M343 142l95.0029 -65.999c-25.333 -43.333 -65.333 -70 -120 -80c-26.667 -22.667 -40 -41.667 -40 -57c0 -14.667 9 -22 27 -22c3.33301 0 9.66602 0.666992 18.999 2l15 -65c-10 -2.66699 -26 -4 -48 -4c-32 0 -58.333 6.5 -79 19.5s-31 31.833 -31 56.5
s9.66699 47.667 29 69c-56.667 8 -100.334 31.667 -131.001 71s-46 89.666 -46 150.999v68c0 73.333 17.667 129 53 167s86.333 57 153 57c137.333 0 206 -78 206 -234v-57h-285c1.33301 -79.333 32.666 -119 93.999 -119c24 0 42.167 3.16699 54.5 9.5
s23.833 17.5 34.5 33.5zM240.003 401.001c-48 0 -74.667 -30.667 -80 -92h157c-3.33301 61.333 -29 92 -77 92z" />
    <glyph glyph-name="Ecaron" unicode="&#x11a;" horiz-adv-x="527" 
d="M68 0v690h430v-119h-290v-155h260v-118h-260v-180h290v-118h-430zM473 879l-138 -142h-105l-138 142h133l57 -61l58 61h133z" />
    <glyph glyph-name="ecaron" unicode="&#x11b;" 
d="M343 142l95.002 -66c-32.667 -56.667 -93.667 -85 -183 -85c-70.667 0 -125.334 20.5 -164.001 61.5s-58 95.833 -58 164.5v68c0 73.333 17.667 129 53 167s86.333 57 153 57c137.333 0 206 -78 206 -234v-57h-285c1.33301 -79.333 32.666 -119 93.999 -119
c24 0 42.167 3.16699 54.5 9.5s23.833 17.5 34.5 33.5zM240.002 401c-48 0 -74.667 -30.667 -80 -92h157c-3.33301 61.333 -29 92 -77 92zM403.002 710l-108 -142h-106l-108 142h114l47 -65l47 65h114z" />
    <glyph glyph-name="Gcircumflex" unicode="&#x11c;" horiz-adv-x="612" 
d="M314 241v118h251v-63c0 -101.333 -21.833 -177.5 -65.5 -228.5s-106.5 -76.5 -188.5 -76.5c-83.333 0 -148.166 25.833 -194.499 77.5s-69.5 127.5 -69.5 227.5v88c0 105.333 23 184.166 69 236.499s111 78.5 195 78.5c71.333 0 128.666 -19.167 171.999 -57.5
s70.333 -93.5 81 -165.5h-134c-13.333 70 -53 105 -119 105c-82.667 0 -124 -62.333 -124 -187v-98c0 -124.667 41.333 -187 124 -187c37.333 0 65.5 10.833 84.5 32.5s30.5 54.834 34.5 99.501h-116zM115 737l138 142h105l138 -142h-133l-58 61l-57 -61h-133z" />
    <glyph glyph-name="gcircumflex" unicode="&#x11d;" horiz-adv-x="517" 
d="M338 474l-0.00195312 26h127v-490c0 -80.667 -21 -136 -63 -166c-38 -26.667 -90.333 -40 -157 -40c-48.667 0 -88.167 6.83301 -118.5 20.5s-56.166 36.834 -77.499 69.501l86 62c22 -30 54.667 -45 98 -45c38.667 0 65.834 7.16699 81.501 21.5
s23.5 40.166 23.5 77.499v16c-27.333 -23.333 -63 -35 -107 -35c-63.333 0 -112.166 20.333 -146.499 61s-51.5 95.667 -51.5 165v68c0 70.667 17.667 125.667 53 165s83.666 59 144.999 59c44 0 79.667 -11.667 107 -35zM337.998 214v63c0 82.667 -29.667 124 -89 124
s-89 -41.333 -89 -124v-52c0 -84 29.667 -126 89 -126s89 38.333 89 115zM121.998 568l108 142h106l108 -142h-114l-47 65l-47 -65h-114z" />
    <glyph glyph-name="Gbreve" unicode="&#x11e;" horiz-adv-x="612" 
d="M314 241v118h251v-63c0 -101.333 -21.833 -177.5 -65.5 -228.5s-106.5 -76.5 -188.5 -76.5c-83.333 0 -148.166 25.833 -194.499 77.5s-69.5 127.5 -69.5 227.5v88c0 105.333 23 184.166 69 236.499s111 78.5 195 78.5c71.333 0 128.666 -19.167 171.999 -57.5
s70.333 -93.5 81 -165.5h-134c-13.333 70 -53 105 -119 105c-82.667 0 -124 -62.333 -124 -187v-98c0 -124.667 41.333 -187 124 -187c37.333 0 65.5 10.833 84.5 32.5s30.5 54.834 34.5 99.501h-116zM385 879h112c0 -47.333 -17.5 -84.5 -52.5 -111.5
s-81.167 -40.5 -138.5 -40.5s-103.5 13.5 -138.5 40.5s-52.5 64.167 -52.5 111.5h111c6.66699 -36 33.334 -54 80.001 -54c45.333 0 71.666 18 78.999 54z" />
    <glyph glyph-name="gbreve" unicode="&#x11f;" horiz-adv-x="517" 
d="M338 474l-0.00195312 26h127v-490c0 -80.667 -21 -136 -63 -166c-38 -26.667 -90.333 -40 -157 -40c-48.667 0 -88.167 6.83301 -118.5 20.5s-56.166 36.834 -77.499 69.501l86 62c22 -30 54.667 -45 98 -45c38.667 0 65.834 7.16699 81.501 21.5
s23.5 40.166 23.5 77.499v16c-27.333 -23.333 -63 -35 -107 -35c-63.333 0 -112.166 20.333 -146.499 61s-51.5 95.667 -51.5 165v68c0 70.667 17.667 125.667 53 165s83.666 59 144.999 59c44 0 79.667 -11.667 107 -35zM337.998 214v63c0 82.667 -29.667 124 -89 124
s-89 -41.333 -89 -124v-52c0 -84 29.667 -126 89 -126s89 38.333 89 115zM340.998 690h91.999c-1.33301 -42 -15 -74.5 -41 -97.5s-62 -34.5 -108 -34.5s-82.167 11.5 -108.5 34.5s-40.166 55.5 -41.499 97.5h93c5.33301 -35.333 24.333 -53 57 -53s51.667 17.667 57 53z
" />
    <glyph glyph-name="Gdotaccent" unicode="&#x120;" horiz-adv-x="612" 
d="M314 241v118h251v-63c0 -101.333 -21.833 -177.5 -65.5 -228.5s-106.5 -76.5 -188.5 -76.5c-83.333 0 -148.166 25.833 -194.499 77.5s-69.5 127.5 -69.5 227.5v88c0 105.333 23 184.166 69 236.499s111 78.5 195 78.5c71.333 0 128.666 -19.167 171.999 -57.5
s70.333 -93.5 81 -165.5h-134c-13.333 70 -53 105 -119 105c-82.667 0 -124 -62.333 -124 -187v-98c0 -124.667 41.333 -187 124 -187c37.333 0 65.5 10.833 84.5 32.5s30.5 54.834 34.5 99.501h-116zM381 759h-141v110h141v-110z" />
    <glyph glyph-name="gdotaccent" unicode="&#x121;" horiz-adv-x="517" 
d="M338 474l-0.00195312 26h127v-490c0 -80.667 -21 -136 -63 -166c-38 -26.667 -90.333 -40 -157 -40c-48.667 0 -88.167 6.83301 -118.5 20.5s-56.166 36.834 -77.499 69.501l86 62c22 -30 54.667 -45 98 -45c38.667 0 65.834 7.16699 81.501 21.5
s23.5 40.166 23.5 77.499v16c-27.333 -23.333 -63 -35 -107 -35c-63.333 0 -112.166 20.333 -146.499 61s-51.5 95.667 -51.5 165v68c0 70.667 17.667 125.667 53 165s83.666 59 144.999 59c44 0 79.667 -11.667 107 -35zM337.998 214v63c0 82.667 -29.667 124 -89 124
s-89 -41.333 -89 -124v-52c0 -84 29.667 -126 89 -126s89 38.333 89 115zM345.998 566h-138v124h138v-124z" />
    <glyph glyph-name="Gcommaaccent" unicode="&#x122;" horiz-adv-x="612" 
d="M314 241v118h251v-63c0 -101.333 -21.833 -177.5 -65.5 -228.5s-106.5 -76.5 -188.5 -76.5c-83.333 0 -148.166 25.833 -194.499 77.5s-69.5 127.5 -69.5 227.5v88c0 105.333 23 184.166 69 236.499s111 78.5 195 78.5c71.333 0 128.666 -19.167 171.999 -57.5
s70.333 -93.5 81 -165.5h-134c-13.333 70 -53 105 -119 105c-82.667 0 -124 -62.333 -124 -187v-98c0 -124.667 41.333 -187 124 -187c37.333 0 65.5 10.833 84.5 32.5s30.5 54.834 34.5 99.501h-116zM238 -51h137v-129l-137 -117v246z" />
    <glyph glyph-name="gcommaaccent" unicode="&#x123;" horiz-adv-x="517" 
d="M338 474l-0.00195312 26h127v-490c0 -80.667 -21 -136 -63 -166c-38 -26.667 -90.333 -40 -157 -40c-48.667 0 -88.167 6.83301 -118.5 20.5s-56.166 36.834 -77.499 69.501l86 62c22 -30 54.667 -45 98 -45c38.667 0 65.834 7.16699 81.501 21.5
s23.5 40.166 23.5 77.499v16c-27.333 -23.333 -63 -35 -107 -35c-63.333 0 -112.166 20.333 -146.499 61s-51.5 95.667 -51.5 165v68c0 70.667 17.667 125.667 53 165s83.666 59 144.999 59c44 0 79.667 -11.667 107 -35zM337.998 214v63c0 82.667 -29.667 124 -89 124
s-89 -41.333 -89 -124v-52c0 -84 29.667 -126 89 -126s89 38.333 89 115zM325.998 542h-137v129l137 117v-246z" />
    <glyph glyph-name="Hcircumflex" unicode="&#x124;" horiz-adv-x="656" 
d="M68 690h140v-274h239v274h140v-690h-140v298h-239v-298h-140v690zM137 737l138 142h105l138 -142h-133l-58 61l-57 -61h-133z" />
    <glyph glyph-name="hcircumflex" unicode="&#x125;" horiz-adv-x="526" 
d="M179 0h-128v690h128v-229c24 32 61.333 48 112 48c122 0 183 -65.333 183 -196v-313h-127v293c0 37.333 -6.5 64.333 -19.5 81s-33.167 25 -60.5 25c-58.667 0 -88 -35 -88 -105v-294zM-46 734l108 142h106l108 -142h-114l-47 65l-47 -65h-114z" />
    <glyph glyph-name="Hbar" unicode="&#x126;" horiz-adv-x="672" 
d="M76 690h140v-97h239v97h140v-97h87v-125h-87v-468h-140v298h-239v-298h-140v468h-86v125h86v97zM216 468v-52h239v52h-239z" />
    <glyph glyph-name="hbar" unicode="&#x127;" horiz-adv-x="529" 
d="M54 538h-80v105h80v47h128v-47h131v-105h-131v-77c24 32 61.333 48 112 48c122 0 183 -65.333 183 -196v-313h-127v293c0 37.333 -6.5 64.333 -19.5 81s-33.167 25 -60.5 25c-58.667 0 -88 -35 -88 -105v-294h-128v538z" />
    <glyph glyph-name="Imacron" unicode="&#x12a;" horiz-adv-x="296" 
d="M78 690h140v-690h-140v690zM310 744h-322v112h322v-112z" />
    <glyph glyph-name="imacron" unicode="&#x12b;" horiz-adv-x="260" 
d="M194 0h-128v500h128v-500zM267 573h-283v111h283v-111z" />
    <glyph glyph-name="Iogonek" unicode="&#x12e;" horiz-adv-x="296" 
d="M78 690l140.002 -0.000976562v-690c-16.667 -14.667 -27.834 -25.667 -33.501 -33s-9.5 -16.666 -11.5 -27.999c0 -14.667 9 -22 27 -22c3.33301 0 9.66602 0.666992 18.999 2l15 -65c-10 -2.66699 -26 -4 -48 -4c-32 0 -58.333 6.5 -79 19.5s-31 31.833 -31 56.5
c0 28 11.667 52.667 35 74h-33v690z" />
    <glyph glyph-name="iogonek" unicode="&#x12f;" horiz-adv-x="260" 
d="M87 0l-20.998 -0.000976562v500h128v-500c-16.667 -14.667 -27.834 -25.667 -33.501 -33s-9.5 -16.666 -11.5 -27.999c0 -14.667 9 -22 27 -22c3.33301 0 9.66602 0.666992 18.999 2l15 -65c-10 -2.66699 -26 -4 -48 -4c-32 0 -58.333 6.5 -79 19.5s-31 31.833 -31 56.5
c0 28 11.667 52.667 35 74zM199.002 565.999h-138v124h138v-124z" />
    <glyph glyph-name="Idot" unicode="&#x130;" horiz-adv-x="296" 
d="M78 690h140v-690h-140v690zM219 759h-141v110h141v-110z" />
    <glyph glyph-name="dotlessi" unicode="&#x131;" horiz-adv-x="260" 
d="M194 0h-128v500h128v-500z" />
    <glyph glyph-name="Jcircumflex" unicode="&#x134;" horiz-adv-x="512" 
d="M-9 94l116 64.999c23.333 -33.333 54.666 -50 93.999 -50c36 0 62.167 11.833 78.5 35.5s24.5 63.834 24.5 120.501v425h140v-425c0 -94 -19.667 -163.167 -59 -207.5s-97.666 -66.5 -174.999 -66.5c-98 0 -171 34.333 -219 103zM187 736.999l138 142h105l138 -142h-133
l-58 61l-57 -61h-133z" />
    <glyph glyph-name="jcircumflex" unicode="&#x135;" horiz-adv-x="251" 
d="M67 500h127.001v-527c0 -62 -15 -104.667 -45 -128c-30.667 -23.333 -80.334 -35 -149.001 -35v110c24.667 0 42 5.5 52 16.5s15 29.167 15 54.5v509zM-33.999 568l108 142h106l108 -142h-114l-47 65l-47 -65h-114z" />
    <glyph glyph-name="Kcommaaccent" unicode="&#x136;" horiz-adv-x="645" 
d="M381 411l252 -411h-167l-176 291l-82 -108v-183h-140v690h140v-298l218 298h166zM256 -51h137v-129l-137 -117v246z" />
    <glyph glyph-name="kcommaaccent" unicode="&#x137;" horiz-adv-x="502" 
d="M179 318l140 182h152l-173 -209l202 -291h-150l-137 188l-34 -42v-146h-128v690h128v-372zM192 -51h137v-129l-137 -117v246z" />
    <glyph glyph-name="Lacute" unicode="&#x139;" horiz-adv-x="504" 
d="M68 690h140v-572h290v-118h-430v690zM208 742h-124l80 129h147z" />
    <glyph glyph-name="lacute" unicode="&#x13a;" horiz-adv-x="285" 
d="M51 160l-0.000976562 530h128v-501c0 -28.667 5.16699 -49 15.5 -61s28.5 -18 54.5 -18v-110c-71.333 -0 -122.166 11.833 -152.499 35.5s-45.5 65.167 -45.5 124.5zM175.999 723h-122l70 158h143z" />
    <glyph glyph-name="Lcommaaccent" unicode="&#x13b;" horiz-adv-x="504" 
d="M68 690h140v-572h290v-118h-430v690zM215 -51h137v-129l-137 -117v246z" />
    <glyph glyph-name="lcommaaccent" unicode="&#x13c;" horiz-adv-x="285" 
d="M51 160l-0.000976562 530h128v-501c0 -28.667 5.16699 -49 15.5 -61s28.5 -18 54.5 -18v-110c-71.333 -0 -122.166 11.833 -152.499 35.5s-45.5 65.167 -45.5 124.5zM85.999 -51h137v-129l-137 -117v246z" />
    <glyph glyph-name="Lcaron" unicode="&#x13d;" horiz-adv-x="504" 
d="M68 690h140v-572h290v-118h-430v690zM307 706h134v-165l-134 -114v279z" />
    <glyph glyph-name="lcaron" unicode="&#x13e;" horiz-adv-x="281" 
d="M51 160l-0.000976562 530h128v-501c0 -28.667 5.16699 -49 15.5 -61s28.5 -18 54.5 -18v-110c-71.333 -0 -122.166 11.833 -152.499 35.5s-45.5 65.167 -45.5 124.5zM221.999 689h137v-129l-137 -117v246z" />
    <glyph glyph-name="Ldot" unicode="&#x13f;" horiz-adv-x="504" 
d="M68 690h140v-572h290v-118h-430v690zM459 326h-138v124h138v-124z" />
    <glyph glyph-name="ldot" unicode="&#x140;" horiz-adv-x="367" 
d="M51 160l-0.000976562 530h128v-501c0 -28.667 5.16699 -49 15.5 -61s28.5 -18 54.5 -18v-110c-71.333 -0 -122.166 11.833 -152.499 35.5s-45.5 65.167 -45.5 124.5zM364.999 353h-141v110h141v-110z" />
    <glyph glyph-name="Lslash" unicode="&#x141;" horiz-adv-x="538" 
d="M101 690h140v-192l94 75l71 -90l-165 -132v-233h290v-118h-430v239l-57 -45l-71 90l128 102v304z" />
    <glyph glyph-name="lslash" unicode="&#x142;" horiz-adv-x="294" 
d="M81 271l-51.001 -35l-40 60l91 62v332h128v-243l54 37l40 -59l-94 -65v-171c0 -28.667 5.16699 -49 15.5 -61s28.5 -18 54.5 -18v-110c-71.333 -0 -122.166 11.833 -152.499 35.5s-45.5 65.167 -45.5 124.5v111z" />
    <glyph glyph-name="Nacute" unicode="&#x143;" horiz-adv-x="656" 
d="M454 257v433h133v-690h-117l-269 427v-427h-133v690h116zM386 742h-124l80 129h147z" />
    <glyph glyph-name="nacute" unicode="&#x144;" horiz-adv-x="526" 
d="M179 0h-128v500h125v-42c26 34 64.333 51 115 51c122 0 183 -65.333 183 -196v-313h-127v293c0 37.333 -6.5 64.333 -19.5 81s-33.167 25 -60.5 25c-58.667 0 -88 -35 -88 -105v-294zM313 567h-122l70 158h143z" />
    <glyph glyph-name="Ncommaaccent" unicode="&#x145;" horiz-adv-x="656" 
d="M454 257v433h133v-690h-117l-269 427v-427h-133v690h116zM264 -51h137v-129l-137 -117v246z" />
    <glyph glyph-name="ncommaaccent" unicode="&#x146;" horiz-adv-x="526" 
d="M179 0h-128v500h125v-42c26 34 64.333 51 115 51c122 0 183 -65.333 183 -196v-313h-127v293c0 37.333 -6.5 64.333 -19.5 81s-33.167 25 -60.5 25c-58.667 0 -88 -35 -88 -105v-294zM197 -51h137v-129l-137 -117v246z" />
    <glyph glyph-name="Ncaron" unicode="&#x147;" horiz-adv-x="656" 
d="M454 257v433h133v-690h-117l-269 427v-427h-133v690h116zM518 879l-138 -142h-105l-138 142h133l57 -61l58 61h133z" />
    <glyph glyph-name="ncaron" unicode="&#x148;" horiz-adv-x="526" 
d="M179 0h-128v500h125v-42c26 34 64.333 51 115 51c122 0 183 -65.333 183 -196v-313h-127v293c0 37.333 -6.5 64.333 -19.5 81s-33.167 25 -60.5 25c-58.667 0 -88 -35 -88 -105v-294zM424 710l-108 -142h-106l-108 142h114l47 -65l47 65h114z" />
    <glyph glyph-name="Omacron" unicode="&#x14c;" horiz-adv-x="623" 
d="M576 394v-98c0 -100 -23.333 -175.833 -70 -227.5s-111.667 -77.5 -195 -77.5s-148.166 25.833 -194.499 77.5s-69.5 127.5 -69.5 227.5v98c0 100.667 23.167 176.667 69.5 228s111.166 77 194.499 77c84 0 149.167 -25.667 195.5 -77s69.5 -127.333 69.5 -228zM187 394
v-98c0 -124.667 41.333 -187 124 -187c83.333 0 125 62.333 125 187v98c0 124.667 -41.667 187 -125 187c-82.667 0 -124 -62.333 -124 -187zM473 744h-322v112h322v-112z" />
    <glyph glyph-name="omacron" unicode="&#x14d;" horiz-adv-x="499" 
d="M465 281l-0.000976562 -59.999c0 -72.667 -18.167 -129.167 -54.5 -169.5s-90.166 -60.5 -161.499 -60.5c-70 0 -123.5 20.167 -160.5 60.5s-55.5 96.833 -55.5 169.5v60c0 74 18.5 130.5 55.5 169.5s90.5 58.5 160.5 58.5s123.5 -19.333 160.5 -58
s55.5 -95.334 55.5 -170.001zM248.999 99.001c59.333 0 89 42 89 126v52c0 82.667 -29.667 124 -89 124s-89 -41.333 -89 -124v-52c0 -42 6.83301 -73.5 20.5 -94.5s36.5 -31.5 68.5 -31.5zM390.999 573.001h-283v111h283v-111z" />
    <glyph glyph-name="Ohungarumlaut" unicode="&#x150;" horiz-adv-x="623" 
d="M576 394v-98c0 -100 -23.333 -175.833 -70 -227.5s-111.667 -77.5 -195 -77.5s-148.166 25.833 -194.499 77.5s-69.5 127.5 -69.5 227.5v98c0 100.667 23.167 176.667 69.5 228s111.166 77 194.499 77c84 0 149.167 -25.667 195.5 -77s69.5 -127.333 69.5 -228zM187 394
v-98c0 -124.667 41.333 -187 124 -187c83.333 0 125 62.333 125 187v98c0 124.667 -41.667 187 -125 187c-82.667 0 -124 -62.333 -124 -187zM255 742h-125l80 129h148zM458 742h-124l90 129h147z" />
    <glyph glyph-name="ohungarumlaut" unicode="&#x151;" horiz-adv-x="499" 
d="M465 281l-0.000976562 -59.999c0 -72.667 -18.167 -129.167 -54.5 -169.5s-90.166 -60.5 -161.499 -60.5c-70 0 -123.5 20.167 -160.5 60.5s-55.5 96.833 -55.5 169.5v60c0 74 18.5 130.5 55.5 169.5s90.5 58.5 160.5 58.5s123.5 -19.333 160.5 -58
s55.5 -95.334 55.5 -170.001zM248.999 99.001c59.333 0 89 42 89 126v52c0 82.667 -29.667 124 -89 124s-89 -41.333 -89 -124v-52c0 -42 6.83301 -73.5 20.5 -94.5s36.5 -31.5 68.5 -31.5zM385.999 567.001h-123l90 158h144zM210.999 567.001h-122l70 158h143z" />
    <glyph glyph-name="OE" unicode="&#x152;" horiz-adv-x="896" 
d="M436 690h430v-119h-290v-155h260v-118h-260v-180h290v-118h-430v24c-32 -22 -73.667 -33 -125 -33c-83.333 0 -148.166 25.833 -194.499 77.5s-69.5 127.5 -69.5 227.5v98c0 100.667 23.167 176.667 69.5 228s111.166 77 194.499 77c51.333 0 93 -11 125 -33v24zM187 394
v-98c0 -124.667 41.333 -187 124 -187c83.333 0 125 59 125 177v118c0 118 -41.667 177 -125 177c-82.667 0 -124 -62.333 -124 -187z" />
    <glyph glyph-name="oe" unicode="&#x153;" horiz-adv-x="791" 
d="M648 142l95.001 -66c-18 -30 -41.167 -51.667 -69.5 -65s-66.833 -20 -115.5 -20c-65.333 0 -116.333 22.333 -153 67c-34 -44.667 -86 -67 -156 -67c-68.667 0 -121.834 20 -159.501 60s-56.5 95.333 -56.5 166v68c0 71.333 18.667 126.5 56 165.5
s90.666 58.5 159.999 58.5c68 0 119 -21 153 -63c34 42 83.333 63 148 63c65.333 0 115 -19.833 149 -59.5s51 -96.5 51 -170.5v-63h-285c0 -78 31.333 -117 94 -117c23.333 0 41.333 3.16699 54 9.5s24.334 17.5 35.001 33.5zM338.001 217v68c0 77.333 -29.667 116 -89 116
s-89 -38.667 -89 -116v-68c0 -78.667 29.667 -118 89 -118s89 39.333 89 118zM544.001 401c-48 0 -74.333 -31.333 -79 -94h157c-2.66699 62.667 -28.667 94 -78 94z" />
    <glyph glyph-name="Racute" unicode="&#x154;" horiz-adv-x="617" 
d="M455 294l143 -293.999h-154l-124 271h-112v-271h-140v690h247c82 0 145.5 -18.167 190.5 -54.5s67.5 -88.5 67.5 -156.5c0 -90.667 -39.333 -152.334 -118 -185.001zM208 571.001v-181.999h94c46 0 79.333 6.66699 100 20s31 36.666 31 69.999s-10.5 57 -31.5 71
s-54.167 21 -99.5 21h-94zM332 742.002h-124l80 129h147z" />
    <glyph glyph-name="racute" unicode="&#x155;" horiz-adv-x="410" 
d="M420 431l-98 -70.001c-17.333 25.333 -38.333 38 -63 38s-44.167 -9.16699 -58.5 -27.5s-21.5 -44.166 -21.5 -77.499v-294h-128v500h125v-42c22.667 34 59 51 109 51c60 0 105 -26 135 -78zM258 566.999h-122l70 158h143z" />
    <glyph glyph-name="Rcommaaccent" unicode="&#x156;" horiz-adv-x="617" 
d="M455 294l143 -293.999h-154l-124 271h-112v-271h-140v690h247c82 0 145.5 -18.167 190.5 -54.5s67.5 -88.5 67.5 -156.5c0 -90.667 -39.333 -152.334 -118 -185.001zM208 571.001v-181.999h94c46 0 79.333 6.66699 100 20s31 36.666 31 69.999s-10.5 57 -31.5 71
s-54.167 21 -99.5 21h-94zM252 -50.998h137v-129l-137 -117v246z" />
    <glyph glyph-name="rcommaaccent" unicode="&#x157;" horiz-adv-x="410" 
d="M420 431l-98 -70.001c-17.333 25.333 -38.333 38 -63 38s-44.167 -9.16699 -58.5 -27.5s-21.5 -44.166 -21.5 -77.499v-294h-128v500h125v-42c22.667 34 59 51 109 51c60 0 105 -26 135 -78zM48 -51.001h137v-129l-137 -117v246z" />
    <glyph glyph-name="Rcaron" unicode="&#x158;" horiz-adv-x="617" 
d="M455 294l143 -293.999h-154l-124 271h-112v-271h-140v690h247c82 0 145.5 -18.167 190.5 -54.5s67.5 -88.5 67.5 -156.5c0 -90.667 -39.333 -152.334 -118 -185.001zM208 571.001v-181.999h94c46 0 79.333 6.66699 100 20s31 36.666 31 69.999s-10.5 57 -31.5 71
s-54.167 21 -99.5 21h-94zM493 879.002l-138 -142h-105l-138 142h133l57 -61l58 61h133z" />
    <glyph glyph-name="rcaron" unicode="&#x159;" horiz-adv-x="410" 
d="M420 431l-98 -70.001c-17.333 25.333 -38.333 38 -63 38s-44.167 -9.16699 -58.5 -27.5s-21.5 -44.166 -21.5 -77.499v-294h-128v500h125v-42c22.667 34 59 51 109 51c60 0 105 -26 135 -78zM393 709.999l-108 -142h-106l-108 142h114l47 -65l47 65h114z" />
    <glyph glyph-name="Sacute" unicode="&#x15a;" horiz-adv-x="575" 
d="M532 586l-105.001 -75.001c-16 24.667 -34.333 42.5 -55 53.5s-47.667 16.5 -81 16.5c-31.333 0 -55.333 -6.66699 -72 -20s-25 -32 -25 -56c0 -25.333 10.333 -45.5 31 -60.5s55.667 -28.5 105 -40.5c74 -19.333 127.333 -44.666 160 -75.999
c32.667 -30.667 49 -76 49 -136c0 -61.333 -20.667 -110.166 -62 -146.499s-100 -54.5 -176 -54.5c-120 0 -208.667 37.667 -266 113l107 74c20 -24.667 41.5 -42.334 64.5 -53.001s51.5 -16 85.5 -16c71.333 0 107 25.667 107 77c0 24.667 -10.167 44.667 -30.5 60
s-57.166 30 -110.499 44c-70 18 -121.5 44.333 -154.5 79s-49.5 80 -49.5 136c0 59.333 20.167 106.5 60.5 141.5s98.833 52.5 175.5 52.5c112 0 192.667 -37.667 242 -113zM338.999 741.999h-124l80 129h147z" />
    <glyph glyph-name="sacute" unicode="&#x15b;" horiz-adv-x="464" 
d="M419 426l-94.001 -66.999c-12.667 14.667 -26 25 -40 31s-33.333 9 -58 9c-42 0 -63 -13 -63 -39c0 -14 6.16699 -24.667 18.5 -32s32.833 -13 61.5 -17c63.333 -10 110 -28 140 -54s45 -63 45 -111c0 -48.667 -17 -86.667 -51 -114s-82.333 -41 -145 -41
c-98 0 -167 27.667 -207 83l98 70c20.667 -28.667 56.334 -43 107.001 -43c47.333 0 71 13.667 71 41c0 15.333 -5.83301 26.166 -17.5 32.499s-34.167 12.5 -67.5 18.5c-120 19.333 -180 73.333 -180 162c0 48.667 16.833 86.5 50.5 113.5s81.167 40.5 142.5 40.5
c92 0 155 -27.667 189 -83zM275.999 567.001h-122l70 158h143z" />
    <glyph glyph-name="Scircumflex" unicode="&#x15c;" horiz-adv-x="575" 
d="M532 586l-105.001 -75.001c-16 24.667 -34.333 42.5 -55 53.5s-47.667 16.5 -81 16.5c-31.333 0 -55.333 -6.66699 -72 -20s-25 -32 -25 -56c0 -25.333 10.333 -45.5 31 -60.5s55.667 -28.5 105 -40.5c74 -19.333 127.333 -44.666 160 -75.999
c32.667 -30.667 49 -76 49 -136c0 -61.333 -20.667 -110.166 -62 -146.499s-100 -54.5 -176 -54.5c-120 0 -208.667 37.667 -266 113l107 74c20 -24.667 41.5 -42.334 64.5 -53.001s51.5 -16 85.5 -16c71.333 0 107 25.667 107 77c0 24.667 -10.167 44.667 -30.5 60
s-57.166 30 -110.499 44c-70 18 -121.5 44.333 -154.5 79s-49.5 80 -49.5 136c0 59.333 20.167 106.5 60.5 141.5s98.833 52.5 175.5 52.5c112 0 192.667 -37.667 242 -113zM103.999 736.999l138 142h105l138 -142h-133l-58 61l-57 -61h-133z" />
    <glyph glyph-name="scircumflex" unicode="&#x15d;" horiz-adv-x="464" 
d="M419 426l-94.001 -66.999c-12.667 14.667 -26 25 -40 31s-33.333 9 -58 9c-42 0 -63 -13 -63 -39c0 -14 6.16699 -24.667 18.5 -32s32.833 -13 61.5 -17c63.333 -10 110 -28 140 -54s45 -63 45 -111c0 -48.667 -17 -86.667 -51 -114s-82.333 -41 -145 -41
c-98 0 -167 27.667 -207 83l98 70c20.667 -28.667 56.334 -43 107.001 -43c47.333 0 71 13.667 71 41c0 15.333 -5.83301 26.166 -17.5 32.499s-34.167 12.5 -67.5 18.5c-120 19.333 -180 73.333 -180 162c0 48.667 16.833 86.5 50.5 113.5s81.167 40.5 142.5 40.5
c92 0 155 -27.667 189 -83zM67.999 568.001l108 142h106l108 -142h-114l-47 65l-47 -65h-114z" />
    <glyph glyph-name="Scedilla" unicode="&#x15e;" horiz-adv-x="575" 
d="M241 -72l12.999 65c-96 8 -169 45 -219 111l107 74c20 -24.667 41.5 -42.334 64.5 -53.001s51.5 -16 85.5 -16c71.333 0 107 25.667 107 77c0 24.667 -10.167 44.667 -30.5 60s-57.166 30 -110.499 44c-70 18 -121.5 44.333 -154.5 79s-49.5 80 -49.5 136
c0 59.333 20.167 106.5 60.5 141.5s98.833 52.5 175.5 52.5c112 0 192.667 -37.667 242 -113l-105 -75c-16 24.667 -34.333 42.5 -55 53.5s-47.667 16.5 -81 16.5c-31.333 0 -55.333 -6.66699 -72 -20s-25 -32 -25 -56c0 -25.333 10.333 -45.5 31 -60.5
s55.667 -28.5 105 -40.5c74 -19.333 127.333 -44.666 160 -75.999c32.667 -30.667 49 -76 49 -136c0 -56 -17.667 -101.833 -53 -137.5s-86 -56.167 -152 -61.5l-4 -15c35.333 -13.333 53 -37.333 53 -72c0 -26 -10.833 -46.833 -32.5 -62.5s-50.5 -23.5 -86.5 -23.5
c-20.667 0 -36 1.33301 -46 4l15 65c10.667 -1.33301 17 -2 19 -2c22 0 33 7 33 21c0 13.333 -14.667 20 -44 20z" />
    <glyph glyph-name="scedilla" unicode="&#x15f;" horiz-adv-x="464" 
d="M182 -72l12.999 64c-78 6 -134.333 33.333 -169 82l98 70c20.667 -28.667 56.334 -43 107.001 -43c47.333 0 71 13.667 71 41c0 15.333 -5.83301 26.166 -17.5 32.499s-34.167 12.5 -67.5 18.5c-120 19.333 -180 73.333 -180 162c0 48.667 16.833 86.5 50.5 113.5
s81.167 40.5 142.5 40.5c92 0 155 -27.667 189 -83l-94 -67c-12.667 14.667 -26 25 -40 31s-33.333 9 -58 9c-42 0 -63 -13 -63 -39c0 -14 6.16699 -24.667 18.5 -32s32.833 -13 61.5 -17c63.333 -10 110 -28 140 -54s45 -63 45 -111c0 -44 -13.167 -79.167 -39.5 -105.5
s-64.5 -42.166 -114.5 -47.499l-4 -15c34.667 -12.667 52 -36.667 52 -72c0 -26.667 -10.667 -47.667 -32 -63s-50 -23 -86 -23c-20.667 0 -36 1.33301 -46 4l15 65c10.667 -1.33301 17 -2 19 -2c22 0 33 7 33 21c0 13.333 -14.667 20 -44 20z" />
    <glyph glyph-name="Scaron" unicode="&#x160;" horiz-adv-x="575" 
d="M532 586l-105.001 -75.001c-16 24.667 -34.333 42.5 -55 53.5s-47.667 16.5 -81 16.5c-31.333 0 -55.333 -6.66699 -72 -20s-25 -32 -25 -56c0 -25.333 10.333 -45.5 31 -60.5s55.667 -28.5 105 -40.5c74 -19.333 127.333 -44.666 160 -75.999
c32.667 -30.667 49 -76 49 -136c0 -61.333 -20.667 -110.166 -62 -146.499s-100 -54.5 -176 -54.5c-120 0 -208.667 37.667 -266 113l107 74c20 -24.667 41.5 -42.334 64.5 -53.001s51.5 -16 85.5 -16c71.333 0 107 25.667 107 77c0 24.667 -10.167 44.667 -30.5 60
s-57.166 30 -110.499 44c-70 18 -121.5 44.333 -154.5 79s-49.5 80 -49.5 136c0 59.333 20.167 106.5 60.5 141.5s98.833 52.5 175.5 52.5c112 0 192.667 -37.667 242 -113zM477.999 878.999l-138 -142h-105l-138 142h133l57 -61l58 61h133z" />
    <glyph glyph-name="scaron" unicode="&#x161;" horiz-adv-x="464" 
d="M419 426l-94.001 -66.999c-12.667 14.667 -26 25 -40 31s-33.333 9 -58 9c-42 0 -63 -13 -63 -39c0 -14 6.16699 -24.667 18.5 -32s32.833 -13 61.5 -17c63.333 -10 110 -28 140 -54s45 -63 45 -111c0 -48.667 -17 -86.667 -51 -114s-82.333 -41 -145 -41
c-98 0 -167 27.667 -207 83l98 70c20.667 -28.667 56.334 -43 107.001 -43c47.333 0 71 13.667 71 41c0 15.333 -5.83301 26.166 -17.5 32.499s-34.167 12.5 -67.5 18.5c-120 19.333 -180 73.333 -180 162c0 48.667 16.833 86.5 50.5 113.5s81.167 40.5 142.5 40.5
c92 0 155 -27.667 189 -83zM389.999 710.001l-108 -142h-106l-108 142h114l47 -65l47 65h114z" />
    <glyph glyph-name="Tcedilla" unicode="&#x162;" horiz-adv-x="536" 
d="M211 -72l15 72h-28v571h-190v119h520v-119h-190v-571h-32l-6 -22c35.333 -13.333 53 -37.333 53 -72c0 -26 -10.833 -46.833 -32.5 -62.5s-50.5 -23.5 -86.5 -23.5c-20.667 0 -36 1.33301 -46 4l15 65c10.667 -1.33301 17 -2 19 -2c22 0 33 7 33 21
c0 13.333 -14.667 20 -44 20z" />
    <glyph glyph-name="tcedilla" unicode="&#x163;" horiz-adv-x="331" 
d="M156 -72l16 79c-33.333 7.33301 -57.333 23 -72 47s-22 60.333 -22 109v229h-64v108h64v110h127v-110h98v-108h-98v-209c0 -26.667 4 -45.167 12 -55.5s23 -15.5 45 -15.5h41v-112h-52l-6 -22c34.667 -12.667 52 -36.667 52 -72c0 -26.667 -10.667 -47.667 -32 -63
s-50 -23 -86 -23c-20.667 0 -36 1.33301 -46 4l15 65c10.667 -1.33301 17 -2 19 -2c22 0 33 7 33 21c0 13.333 -14.667 20 -44 20z" />
    <glyph glyph-name="Tcaron" unicode="&#x164;" horiz-adv-x="536" 
d="M8 571v119h520v-119h-190v-571h-140v571h-190zM459 879l-138 -142h-105l-138 142h133l57 -61l58 61h133z" />
    <glyph glyph-name="tcaron" unicode="&#x165;" horiz-adv-x="367" 
d="M78 392h-64.001v108h64v110h127v-110h98v-108h-98v-209c0 -26.667 4 -45.167 12 -55.5s23 -15.5 45 -15.5h41v-112h-54c-63.333 -0 -107.666 11.333 -132.999 34c-25.333 23.333 -38 66.333 -38 129v229zM321.999 689h137v-129l-137 -117v246z" />
    <glyph glyph-name="Umacron" unicode="&#x16a;" horiz-adv-x="666" 
d="M458 279v411.001h140v-410c0 -95.333 -23.5 -167.333 -70.5 -216s-111.833 -73 -194.5 -73s-147.5 24.167 -194.5 72.5s-70.5 120.166 -70.5 215.499v411h140v-411c0 -58.667 10 -101.667 30 -129s51.667 -41 95 -41s75 13.667 95 41s30 70.333 30 129zM494 744.001h-322
v112h322v-112z" />
    <glyph glyph-name="umacron" unicode="&#x16b;" horiz-adv-x="526" 
d="M347 500l127.001 0.000976562v-500h-125v42c-12 -18.667 -26.333 -31.834 -43 -39.501s-40.334 -11.5 -71.001 -11.5c-58 0 -103.167 16 -135.5 48s-48.5 81.667 -48.5 149v312h128v-293c0 -37.333 6.5 -64.333 19.5 -81s33.5 -25 61.5 -25c58 0 87 35 87 105v294z
M405.001 573.001h-283v111h283v-111z" />
    <glyph glyph-name="Ubreve" unicode="&#x16c;" horiz-adv-x="666" 
d="M458 279v411.001h140v-410c0 -95.333 -23.5 -167.333 -70.5 -216s-111.833 -73 -194.5 -73s-147.5 24.167 -194.5 72.5s-70.5 120.166 -70.5 215.499v411h140v-411c0 -58.667 10 -101.667 30 -129s51.667 -41 95 -41s75 13.667 95 41s30 70.333 30 129zM413 879.001
h112.001c0 -47.333 -17.5 -84.5 -52.5 -111.5s-81.167 -40.5 -138.5 -40.5s-103.5 13.5 -138.5 40.5s-52.5 64.167 -52.5 111.5h111c7.33301 -36 34 -54 80 -54c45.333 0 71.666 18 78.999 54z" />
    <glyph glyph-name="ubreve" unicode="&#x16d;" horiz-adv-x="526" 
d="M347 500l127.001 0.000976562v-500h-125v42c-12 -18.667 -26.333 -31.834 -43 -39.501s-40.334 -11.5 -71.001 -11.5c-58 0 -103.167 16 -135.5 48s-48.5 81.667 -48.5 149v312h128v-293c0 -37.333 6.5 -64.333 19.5 -81s33.5 -25 61.5 -25c58 0 87 35 87 105v294z
M320.001 690.001h91.999c-1.33301 -42 -15 -74.5 -41 -97.5s-62 -34.5 -108 -34.5s-82.167 11.5 -108.5 34.5s-40.166 55.5 -41.499 97.5h93c5.33301 -35.333 24.333 -53 57 -53s51.667 17.667 57 53z" />
    <glyph glyph-name="Uring" unicode="&#x16e;" horiz-adv-x="666" 
d="M458 279v411.001h140v-410c0 -95.333 -23.5 -167.333 -70.5 -216s-111.833 -73 -194.5 -73s-147.5 24.167 -194.5 72.5s-70.5 120.166 -70.5 215.499v411h140v-411c0 -58.667 10 -101.667 30 -129s51.667 -41 95 -41s75 13.667 95 41s30 70.333 30 129zM218 800.001
c0 30 10.667 54 32 72s49 27 83 27c34.667 0 62.834 -9 84.501 -27s32.5 -42 32.5 -72c0 -29.333 -10.833 -53 -32.5 -71s-49.834 -27 -84.501 -27c-34 0 -61.667 9 -83 27s-32 41.667 -32 71zM333 769.001c24.667 0 37 10.333 37 31s-12.333 31 -37 31
c-24 0 -36 -10.333 -36 -31s12 -31 36 -31z" />
    <glyph glyph-name="uring" unicode="&#x16f;" horiz-adv-x="526" 
d="M347 500l127.001 0.000976562v-500h-125v42c-12 -18.667 -26.333 -31.834 -43 -39.501s-40.334 -11.5 -71.001 -11.5c-58 0 -103.167 16 -135.5 48s-48.5 81.667 -48.5 149v312h128v-293c0 -37.333 6.5 -64.333 19.5 -81s33.5 -25 61.5 -25c58 0 87 35 87 105v294z
M174.001 567.001c-22.667 20.667 -34 47 -34 79s11.333 58.333 34 79s52.334 31 89.001 31s66.334 -10.333 89.001 -31s34 -47 34 -79s-11.333 -58.333 -34 -79c-22.667 -20 -52.334 -30 -89.001 -30s-66.334 10 -89.001 30zM226.001 646.001c0 -13.333 3.33301 -24 10 -32
s15.667 -12 27 -12c24.667 0 37 14.667 37 44c0 28.667 -12.333 43 -37 43s-37 -14.333 -37 -43z" />
    <glyph glyph-name="Uhungarumlaut" unicode="&#x170;" horiz-adv-x="666" 
d="M458 279v411.001h140v-410c0 -95.333 -23.5 -167.333 -70.5 -216s-111.833 -73 -194.5 -73s-147.5 24.167 -194.5 72.5s-70.5 120.166 -70.5 215.499v411h140v-411c0 -58.667 10 -101.667 30 -129s51.667 -41 95 -41s75 13.667 95 41s30 70.333 30 129zM284 742.001h-125
l80 129h148zM487 742.001h-124l90 129h147z" />
    <glyph glyph-name="uhungarumlaut" unicode="&#x171;" horiz-adv-x="526" 
d="M347 500l127.001 0.000976562v-500h-125v42c-12 -18.667 -26.333 -31.834 -43 -39.501s-40.334 -11.5 -71.001 -11.5c-58 0 -103.167 16 -135.5 48s-48.5 81.667 -48.5 149v312h128v-293c0 -37.333 6.5 -64.333 19.5 -81s33.5 -25 61.5 -25c58 0 87 35 87 105v294z
M407.001 567.001h-123l90 158h144zM232.001 567.001h-122l70 158h143z" />
    <glyph glyph-name="Uogonek" unicode="&#x172;" horiz-adv-x="666" 
d="M458 279v411h140v-410c0 -83.333 -18.167 -149 -54.5 -197s-87.166 -77 -152.499 -87c-16 -14.667 -26.667 -25.667 -32 -33s-8 -15.333 -8 -24c0 -14.667 9 -22 27 -22c3.33301 0 9.66602 0.666992 18.999 2l15 -65c-10 -2.66699 -26 -4 -48 -4
c-32 0 -58.333 6.5 -79 19.5s-31 31.833 -31 56.5c0 24 9.66699 46.667 29 68c-68 8.66699 -120.833 37.167 -158.5 85.5s-56.5 114.833 -56.5 199.5v411h140v-411c0 -58.667 10 -101.667 30 -129s51.667 -41 95 -41s75 13.667 95 41s30 70.333 30 129z" />
    <glyph glyph-name="uogonek" unicode="&#x173;" horiz-adv-x="526" 
d="M347 500h127.003v-497l1 -3c-16.667 -14.667 -27.834 -25.667 -33.501 -33s-9.5 -16.666 -11.5 -27.999c0 -14.667 9 -22 27 -22c3.33301 0 9.66602 0.666992 18.999 2l15 -65c-10 -2.66699 -26 -4 -48 -4c-32 0 -58.333 6.5 -79 19.5s-31 31.833 -31 56.5
c0 28 11.667 52.667 35 74h-19v42c-12 -18.667 -26.333 -31.834 -43 -39.501s-40.334 -11.5 -71.001 -11.5c-58 0 -103.167 16 -135.5 48s-48.5 81.667 -48.5 149v312h128v-293c0 -37.333 6.5 -64.333 19.5 -81s33.5 -25 61.5 -25c58 0 87 35 87 105v294z" />
    <glyph glyph-name="Ydieresis" unicode="&#x178;" horiz-adv-x="583" 
d="M221 282l-215 408h162l123 -257l124 257h161l-215 -408v-282h-140v282zM252 752h-124v117h124v-117zM455 752h-124v117h124v-117z" />
    <glyph glyph-name="Zacute" unicode="&#x179;" horiz-adv-x="519" 
d="M30 571v119h456v-92l-278 -480h288v-118h-466v92l280 479h-280zM312 742h-124l80 129h147z" />
    <glyph glyph-name="zacute" unicode="&#x17a;" horiz-adv-x="449" 
d="M30 0v89l220 303h-217v108h382v-89l-217 -303h224v-108h-392zM285 567h-122l70 158h143z" />
    <glyph glyph-name="Zdotaccent" unicode="&#x17b;" horiz-adv-x="519" 
d="M30 571v119h456v-92l-278 -480h288v-118h-466v92l280 479h-280zM336 759h-141v110h141v-110z" />
    <glyph glyph-name="zdotaccent" unicode="&#x17c;" horiz-adv-x="449" 
d="M30 0v89l220 303h-217v108h382v-89l-217 -303h224v-108h-392zM301 566h-138v124h138v-124z" />
    <glyph glyph-name="Zcaron" unicode="&#x17d;" horiz-adv-x="519" 
d="M30 571v119h456v-92l-278 -480h288v-118h-466v92l280 479h-280zM456 879l-138 -142h-105l-138 142h133l57 -61l58 61h133z" />
    <glyph glyph-name="zcaron" unicode="&#x17e;" horiz-adv-x="449" 
d="M30 0v89l220 303h-217v108h382v-89l-217 -303h224v-108h-392zM396 710l-108 -142h-106l-108 142h114l47 -65l47 65h114z" />
    <glyph glyph-name="uni018F" unicode="&#x18f;" horiz-adv-x="602" 
d="M47 296l-0.000976562 72.999h378v25c0 124.667 -41.333 187 -124 187c-66 0 -105.333 -35 -118 -105h-134c10 72 36.5 127.167 79.5 165.5s100.5 57.5 172.5 57.5c84 0 149 -26.167 195 -78.5s69 -131.166 69 -236.499v-88c0 -100 -23.167 -175.833 -69.5 -227.5
s-111.166 -77.5 -194.499 -77.5c-82 0 -144.833 25.5 -188.5 76.5s-65.5 127.167 -65.5 228.5zM300.999 108.999c37.333 0 65.832 11.168 85.499 33.501s31.834 58.166 36.501 107.499h-242c3.33301 -48 14.333 -83.5 33 -106.5s47.667 -34.5 87 -34.5z" />
    <glyph glyph-name="florin" unicode="&#x192;" horiz-adv-x="540" 
d="M121 381l-0.000976562 119h64v27c0 60.667 13.833 103 41.5 127s73.834 36 138.501 36h37v-119h-21c-22 0 -37.333 -5 -46 -15s-13 -27 -13 -51v-5h80v-119h-80v-408c0 -60 -16 -102.167 -48 -126.5s-84 -36.5 -156 -36.5v119c24.667 0 42 5.33301 52 16s15 28.667 15 54
v382h-64z" />
    <glyph glyph-name="uni01DD" unicode="&#x1dd;" 
d="M143 358l-95.002 66c32.667 56.667 93.667 85 183 85c70.667 0 125.334 -20.5 164.001 -61.5s58 -95.833 58 -164.5v-68c0 -73.333 -17.667 -129 -53 -167s-86.333 -57 -153 -57c-137.333 0 -206 78 -206 234v57h285c-1.33301 79.333 -32.666 119 -93.999 119
c-24 0 -42.167 -3.16699 -54.5 -9.5s-23.833 -17.5 -34.5 -33.5zM245.998 99c48 0 74.667 30.667 80 92h-157c3.33301 -61.333 29 -92 77 -92z" />
    <glyph glyph-name="Scommaaccent" unicode="&#x218;" horiz-adv-x="575" 
d="M532 586l-105.001 -75.001c-16 24.667 -34.333 42.5 -55 53.5s-47.667 16.5 -81 16.5c-31.333 0 -55.333 -6.66699 -72 -20s-25 -32 -25 -56c0 -25.333 10.333 -45.5 31 -60.5s55.667 -28.5 105 -40.5c74 -19.333 127.333 -44.666 160 -75.999
c32.667 -30.667 49 -76 49 -136c0 -61.333 -20.667 -110.166 -62 -146.499s-100 -54.5 -176 -54.5c-120 0 -208.667 37.667 -266 113l107 74c20 -24.667 41.5 -42.334 64.5 -53.001s51.5 -16 85.5 -16c71.333 0 107 25.667 107 77c0 24.667 -10.167 44.667 -30.5 60
s-57.166 30 -110.499 44c-70 18 -121.5 44.333 -154.5 79s-49.5 80 -49.5 136c0 59.333 20.167 106.5 60.5 141.5s98.833 52.5 175.5 52.5c112 0 192.667 -37.667 242 -113zM234.999 -51.001h137v-129l-137 -117v246z" />
    <glyph glyph-name="scommaaccent" unicode="&#x219;" horiz-adv-x="464" 
d="M419 426l-94.001 -66.999c-12.667 14.667 -26 25 -40 31s-33.333 9 -58 9c-42 0 -63 -13 -63 -39c0 -14 6.16699 -24.667 18.5 -32s32.833 -13 61.5 -17c63.333 -10 110 -28 140 -54s45 -63 45 -111c0 -48.667 -17 -86.667 -51 -114s-82.333 -41 -145 -41
c-98 0 -167 27.667 -207 83l98 70c20.667 -28.667 56.334 -43 107.001 -43c47.333 0 71 13.667 71 41c0 15.333 -5.83301 26.166 -17.5 32.499s-34.167 12.5 -67.5 18.5c-120 19.333 -180 73.333 -180 162c0 48.667 16.833 86.5 50.5 113.5s81.167 40.5 142.5 40.5
c92 0 155 -27.667 189 -83zM168.999 -50.999h137v-129l-137 -117v246z" />
    <glyph glyph-name="Tcommaaccent" unicode="&#x21a;" horiz-adv-x="536" 
d="M8 571v119h520v-119h-190v-571h-140v571h-190zM200 -51h137v-129l-137 -117v246z" />
    <glyph glyph-name="tcommaaccent" unicode="&#x21b;" horiz-adv-x="331" 
d="M78 392h-64.001v108h64v110h127v-110h98v-108h-98v-209c0 -26.667 4 -45.167 12 -55.5s23 -15.5 45 -15.5h41v-112h-54c-63.333 -0 -107.666 11.333 -132.999 34c-25.333 23.333 -38 66.333 -38 129v229zM126.999 -51h137v-129l-137 -117v246z" />
    <glyph glyph-name="uni0237" unicode="&#x237;" horiz-adv-x="251" 
d="M67 500h127.001v-527c0 -62 -15 -104.667 -45 -128c-30.667 -23.333 -80.334 -35 -149.001 -35v110c24.667 0 42 5.5 52 16.5s15 29.167 15 54.5v509z" />
    <glyph glyph-name="uni0259" unicode="&#x259;" 
d="M143 358l-95.002 66c32.667 56.667 93.667 85 183 85c70.667 0 125.334 -20.5 164.001 -61.5s58 -95.833 58 -164.5v-68c0 -73.333 -17.667 -129 -53 -167s-86.333 -57 -153 -57c-137.333 0 -206 78 -206 234v57h285c-1.33301 79.333 -32.666 119 -93.999 119
c-24 0 -42.167 -3.16699 -54.5 -9.5s-23.833 -17.5 -34.5 -33.5zM245.998 99c48 0 74.667 30.667 80 92h-157c3.33301 -61.333 29 -92 77 -92z" />
    <glyph glyph-name="afii57929" unicode="&#x2bc;" horiz-adv-x="185" 
d="M35 500h136v-146l-136 -117v263z" />
    <glyph glyph-name="circumflex" unicode="&#x2c6;" horiz-adv-x="414" 
d="M46 568l108 142h106l108 -142h-114l-47 65l-47 -65h-114z" />
    <glyph glyph-name="caron" unicode="&#x2c7;" horiz-adv-x="414" 
d="M368 710l-108 -142h-106l-108 142h114l47 -65l47 65h114z" />
    <glyph glyph-name="breve" unicode="&#x2d8;" horiz-adv-x="412" 
d="M263 690h91.999c-1.33301 -42 -15 -74.5 -41 -97.5s-62 -34.5 -108 -34.5s-82.167 11.5 -108.5 34.5s-40.166 55.5 -41.499 97.5h93c5.33301 -35.333 24.333 -53 57 -53s51.667 17.667 57 53z" />
    <glyph glyph-name="dotaccent" unicode="&#x2d9;" horiz-adv-x="329" 
d="M233 566h-138v124h138v-124z" />
    <glyph glyph-name="ring" unicode="&#x2da;" horiz-adv-x="386" 
d="M104 567c-22.667 20.667 -34 47 -34 79s11.333 58.333 34 79s52.334 31 89.001 31s66.334 -10.333 89.001 -31s34 -47 34 -79s-11.333 -58.333 -34 -79c-22.667 -20 -52.334 -30 -89.001 -30s-66.334 10 -89.001 30zM156 646c0 -13.333 3.33301 -24 10 -32
s15.667 -12 27 -12c24.667 0 37 14.667 37 44c0 28.667 -12.333 43 -37 43s-37 -14.333 -37 -43z" />
    <glyph glyph-name="ogonek" unicode="&#x2db;" horiz-adv-x="343" 
d="M215 55l19.002 -55c-16.667 -14.667 -27.834 -25.667 -33.501 -33s-9.5 -16.666 -11.5 -27.999c0 -14.667 9 -22 27 -22c3.33301 0 9.66602 0.666992 18.999 2l15 -65c-10 -2.66699 -26 -4 -48 -4c-32 0 -58.333 6.5 -79 19.5s-31 31.833 -31 56.5
c0 25.333 10 48.166 30 68.499s51 40.5 93 60.5z" />
    <glyph glyph-name="tilde" unicode="&#x2dc;" horiz-adv-x="437" 
d="M279 569c-16.667 0 -38 4.66699 -64 14c-24.667 10 -42.334 15 -53.001 15c-20 0 -37.667 -9 -53 -27l-67 64c32 40.667 71 61 117 61c16.667 0 37.334 -5 62.001 -15c26 -9.33301 44.333 -14 55 -14c18 0 35 9 51 27l67 -64c-30.667 -40.667 -69 -61 -115 -61z" />
    <glyph glyph-name="hungarumlaut" unicode="&#x2dd;" horiz-adv-x="505" 
d="M345 567h-123l90 158h144zM170 567h-122l70 158h143z" />
    <glyph glyph-name="acutecomb" unicode="&#x301;" horiz-adv-x="0" 
d="M-192 567h-122l70 158h143z" />
    <glyph glyph-name="uni0394" unicode="&#x2206;" horiz-adv-x="590" 
d="M368 690l202 -690h-550l202 690h146zM195 118h199l-99 389z" />
    <glyph glyph-name="uni0394" unicode="&#x394;" horiz-adv-x="590" 
d="M368 690l202 -690h-550l202 690h146zM195 118h199l-99 389z" />
    <glyph glyph-name="uni03A9" unicode="&#x2126;" horiz-adv-x="629" 
d="M516 118h64v-118h-213v118c26.667 14.667 45.5 35.167 56.5 61.5s16.5 66.5 16.5 120.5v94c0 124.667 -41.667 187 -125 187s-125 -62.333 -125 -187v-94c0 -54.667 5.5 -95.5 16.5 -122.5s29.5 -46.833 55.5 -59.5v-118h-212v118h64c-23.333 24 -39.833 49.5 -49.5 76.5
s-14.5 62.167 -14.5 105.5v94c0 100.667 23.167 176.667 69.5 228s111.5 77 195.5 77c83.333 0 148.333 -25.667 195 -77s70 -127.333 70 -228v-94c0 -43.333 -4.83301 -78.5 -14.5 -105.5s-26.167 -52.5 -49.5 -76.5z" />
    <glyph glyph-name="uni03A9" unicode="&#x3a9;" horiz-adv-x="629" 
d="M516 118h64v-118h-213v118c26.667 14.667 45.5 35.167 56.5 61.5s16.5 66.5 16.5 120.5v94c0 124.667 -41.667 187 -125 187s-125 -62.333 -125 -187v-94c0 -54.667 5.5 -95.5 16.5 -122.5s29.5 -46.833 55.5 -59.5v-118h-212v118h64c-23.333 24 -39.833 49.5 -49.5 76.5
s-14.5 62.167 -14.5 105.5v94c0 100.667 23.167 176.667 69.5 228s111.5 77 195.5 77c83.333 0 148.333 -25.667 195 -77s70 -127.333 70 -228v-94c0 -43.333 -4.83301 -78.5 -14.5 -105.5s-26.167 -52.5 -49.5 -76.5z" />
    <glyph glyph-name="pi" unicode="&#x3c0;" horiz-adv-x="565" 
d="M340 160v232h-158v-392h-121v392h-74v108h550v-108h-70v-203c0 -28.667 5.16699 -49 15.5 -61s28.5 -18 54.5 -18v-110c-70 -0 -120.333 11.333 -151 34s-46 64.667 -46 126z" />
    <glyph glyph-name="afii10023" unicode="&#x401;" horiz-adv-x="527" 
d="M68 0v690h430v-119h-290v-155h260v-118h-260v-180h290v-118h-430zM243 752h-124v117h124v-117zM446 752h-124v117h124v-117z" />
    <glyph glyph-name="afii10051" unicode="&#x402;" horiz-adv-x="727" 
d="M-2 571l0.00195312 119h520v-119h-190v-186c13.333 12.667 33.666 23.667 60.999 33s56 14 86 14c74 0 128.333 -17.5 163 -52.5s52 -88.833 52 -161.5v-61c0 -69.333 -22.333 -114 -67 -134c-34.667 -15.333 -78.334 -23 -131.001 -23h-23v112h23
c21.333 0 36.333 5.16699 45 15.5s13 26.833 13 49.5v32c0 37.333 -8.5 64 -25.5 80s-44.5 24 -82.5 24c-49.333 0 -87.333 -18 -114 -54v-259h-140v571h-190z" />
    <glyph glyph-name="afii10052" unicode="&#x403;" horiz-adv-x="491" 
d="M68 690h423v-119h-283v-571h-140v690zM328 742h-124l80 129h147z" />
    <glyph glyph-name="afii10053" unicode="&#x404;" horiz-adv-x="585" 
d="M560 476h-134.001c-13.333 70 -52.666 105 -117.999 105c-81.333 0 -123 -58.333 -125 -175h208v-118h-208c2 -119.333 43.667 -179 125 -179c33.333 0 59.5 8.5 78.5 25.5s32.167 43.5 39.5 79.5h134c-22.667 -148.667 -106.667 -223 -252 -223
c-83.333 0 -148.333 25.833 -195 77.5s-70 127.5 -70 227.5v98c0 100.667 23.167 176.667 69.5 228s111.5 77 195.5 77c70.667 0 127.5 -18.833 170.5 -56.5s70.167 -93.167 81.5 -166.5z" />
    <glyph glyph-name="afii10054" unicode="&#x405;" horiz-adv-x="575" 
d="M532 586l-105.001 -75.001c-16 24.667 -34.333 42.5 -55 53.5s-47.667 16.5 -81 16.5c-31.333 0 -55.333 -6.66699 -72 -20s-25 -32 -25 -56c0 -25.333 10.333 -45.5 31 -60.5s55.667 -28.5 105 -40.5c74 -19.333 127.333 -44.666 160 -75.999
c32.667 -30.667 49 -76 49 -136c0 -61.333 -20.667 -110.166 -62 -146.499s-100 -54.5 -176 -54.5c-120 0 -208.667 37.667 -266 113l107 74c20 -24.667 41.5 -42.334 64.5 -53.001s51.5 -16 85.5 -16c71.333 0 107 25.667 107 77c0 24.667 -10.167 44.667 -30.5 60
s-57.166 30 -110.499 44c-70 18 -121.5 44.333 -154.5 79s-49.5 80 -49.5 136c0 59.333 20.167 106.5 60.5 141.5s98.833 52.5 175.5 52.5c112 0 192.667 -37.667 242 -113z" />
    <glyph glyph-name="afii10055" unicode="&#x406;" horiz-adv-x="296" 
d="M78 690h140v-690h-140v690zM219 759h-141v110h141v-110z" />
    <glyph glyph-name="afii10056" unicode="&#x407;" horiz-adv-x="296" 
d="M78 690h140v-690h-140v690zM109 752h-124v117h124v-117zM312 752h-124v117h124v-117z" />
    <glyph glyph-name="afii10057" unicode="&#x408;" horiz-adv-x="512" 
d="M-9 94l116 64.999c23.333 -33.333 54.666 -50 93.999 -50c36 0 62.167 11.833 78.5 35.5s24.5 63.834 24.5 120.501v425h140v-425c0 -94 -19.667 -163.167 -59 -207.5s-97.666 -66.5 -174.999 -66.5c-98 0 -171 34.333 -219 103z" />
    <glyph glyph-name="afii10058" unicode="&#x409;" horiz-adv-x="977" 
d="M124 495l0.00195312 195.001h462v-253h106c85.333 0 149.666 -19.5 192.999 -58.5s65 -92.5 65 -160.5c0 -66.667 -21.833 -119.667 -65.5 -159s-107.834 -59 -192.501 -59h-246v571h-182v-76c0 -108 -2.66699 -188.667 -8 -242c-5.33301 -52 -14 -93.333 -26 -124
c-30 -79.333 -102.333 -125.333 -217 -138v146c47.333 9.33301 77.333 30.666 90 63.999c14 36 21 134 21 294zM685.002 319.001h-99v-201h99c83.333 0 125 33.333 125 100c0 67.333 -41.667 101 -125 101z" />
    <glyph glyph-name="afii10059" unicode="&#x40a;" horiz-adv-x="979" 
d="M68 690h140.002v-274h239v274h140v-253h107c85.333 0 149.666 -19.5 192.999 -58.5s65 -92.5 65 -160.5c0 -66.667 -21.833 -119.667 -65.5 -159s-107.834 -59 -192.501 -59h-247v298h-239v-298h-140v690zM686.002 319h-99v-201h99c84 0 126 33.333 126 100
c0 67.333 -42 101 -126 101z" />
    <glyph glyph-name="afii10060" unicode="&#x40b;" horiz-adv-x="737" 
d="M8 571l0.000976562 119h520v-119h-190v-186c13.333 12.667 33.666 23.667 60.999 33s56 14 86 14c74 0 128.333 -17.5 163 -52.5s52 -88.833 52 -161.5v-218h-140v209c0 37.333 -8.5 64 -25.5 80s-44.5 24 -82.5 24c-49.333 0 -87.333 -18 -114 -54v-259h-140v571h-190z
" />
    <glyph glyph-name="afii10061" unicode="&#x40c;" horiz-adv-x="623" 
d="M390 356l220 -356h-166l-177 288h-59v-288h-140v690h140v-284h56l158 284h154zM356 742h-124l80 129h147z" />
    <glyph glyph-name="afii10062" unicode="&#x40e;" horiz-adv-x="579" 
d="M311 346l123.999 344h144l-212 -550c-22.667 -58 -52 -97.333 -88 -118c-35.333 -20.667 -89 -31 -161 -31v122c38 0 65.833 3.5 83.5 10.5s31.834 20.5 42.501 40.5l-236 526h155zM358.999 879h128c0 -100.667 -63.333 -151 -190 -151c-127.333 0 -191 50.333 -191 151
h129c0 -20.667 4.66699 -36.167 14 -46.5s25.333 -15.5 48 -15.5s38.667 5.16699 48 15.5s14 25.833 14 46.5z" />
    <glyph glyph-name="afii10145" unicode="&#x40f;" horiz-adv-x="638" 
d="M396 0v-130h-126v130h-202v690h140v-572h250v572h140v-690h-202z" />
    <glyph glyph-name="afii10017" unicode="&#x410;" horiz-adv-x="607" 
d="M188 131l-42 -131h-150l240 690h134l240 -690h-149l-42 131h-231zM381 249l-78 243l-78 -243h156z" />
    <glyph glyph-name="afii10018" unicode="&#x411;" horiz-adv-x="596" 
d="M68 690l454 0.000976562v-119h-314v-134h107c84 0 148 -19.667 192 -59s66 -92.333 66 -159s-22 -119.834 -66 -159.501s-108 -59.5 -192 -59.5h-247v690zM307 319.001h-99v-201h99c84 0 126 33.667 126 101c0 66.667 -42 100 -126 100z" />
    <glyph glyph-name="afii10019" unicode="&#x412;" horiz-adv-x="606" 
d="M68 0l-0.000976562 690.001h231c168 0 252 -60.333 252 -181c0 -68 -30.333 -117 -91 -147c75.333 -27.333 113 -82 113 -164c0 -60.667 -21.167 -108.834 -63.5 -144.501s-105.166 -53.5 -188.499 -53.5h-253zM295.999 299.001h-88v-181h101c82.667 0 124 30.333 124 91
c0 32 -10.833 55 -32.5 69s-56.5 21 -104.5 21zM285.999 572.001h-78v-155h93c73.333 0 110 26.333 110 79c0 26.667 -9.16699 46 -27.5 58s-50.833 18 -97.5 18z" />
    <glyph glyph-name="afii10020" unicode="&#x413;" horiz-adv-x="491" 
d="M68 690h423v-119h-283v-571h-140v690z" />
    <glyph glyph-name="afii10021" unicode="&#x414;" horiz-adv-x="697" 
d="M136 0v-130h-126v248h44c17.333 18.667 32.333 46.667 45 84c20.667 66 31 167 31 303v185h461v-572h86v-248h-126v130h-415zM228 156c-2 -6.66699 -8.33301 -19.333 -19 -38h242v453h-181v-66c0 -94 -3.33301 -164.667 -10 -212c-7.33301 -53.333 -18 -99 -32 -137z" />
    <glyph glyph-name="afii10022" unicode="&#x415;" horiz-adv-x="527" 
d="M68 0v690h430v-119h-290v-155h260v-118h-260v-180h290v-118h-430z" />
    <glyph glyph-name="afii10024" unicode="&#x416;" horiz-adv-x="908" 
d="M329 288l-169 -288h-157l206 348l-172 342h148l140 -284h59v284h140v-284h58l141 284h148l-172 -342l206 -348h-157l-169 288h-55v-288h-140v288h-55z" />
    <glyph glyph-name="afii10025" unicode="&#x417;" horiz-adv-x="592" 
d="M285 299h-73v118h75c73.333 0 110 28 110 84c0 54 -34.333 81 -103 81c-33.333 0 -59.5 -6.83301 -78.5 -20.5s-33.833 -34.834 -44.5 -63.501h-123c6 60 32.667 108.667 80 146c46.667 36.667 103.667 55 171 55s123.666 -16 168.999 -48c46 -32 69 -77.667 69 -137
c0 -65.333 -30 -115.666 -90 -150.999c74.667 -30.667 112 -85.667 112 -165c0 -64 -23.167 -114.5 -69.5 -151.5s-110.166 -55.5 -191.499 -55.5c-154.667 0 -245 69.667 -271 209h134c12.667 -32 29.167 -55.167 49.5 -69.5s47.833 -21.5 82.5 -21.5
c84 0 126 31.667 126 95s-44.667 95 -134 95z" />
    <glyph glyph-name="afii10026" unicode="&#x418;" horiz-adv-x="676" 
d="M68 0v690h140v-433l288 433h112v-690h-140v428l-285 -428h-115z" />
    <glyph glyph-name="afii10027" unicode="&#x419;" horiz-adv-x="676" 
d="M68 0v690h140v-433l288 433h112v-690h-140v428l-285 -428h-115zM408 879h128c0 -100.667 -63.333 -151 -190 -151c-127.333 0 -191 50.333 -191 151h129c0 -20.667 4.66699 -36.167 14 -46.5s25.333 -15.5 48 -15.5s38.667 5.16699 48 15.5s14 25.833 14 46.5z" />
    <glyph glyph-name="afii10028" unicode="&#x41a;" horiz-adv-x="623" 
d="M390 356l220 -356h-166l-177 288h-59v-288h-140v690h140v-284h56l158 284h154z" />
    <glyph glyph-name="afii10029" unicode="&#x41b;" horiz-adv-x="654" 
d="M124 495v195.001h462v-690h-140v571h-182v-76c0 -108 -2.66699 -188.667 -8 -242c-5.33301 -52 -14 -93.333 -26 -124c-30 -79.333 -102.333 -125.333 -217 -138v146c47.333 9.33301 77.333 30.666 90 63.999c14 36 21 134 21 294z" />
    <glyph glyph-name="afii10030" unicode="&#x41c;" horiz-adv-x="786" 
d="M68 690h131l194 -376l192 376h133v-690h-134v428l-150 -304h-85l-148 301v-425h-133v690z" />
    <glyph glyph-name="afii10031" unicode="&#x41d;" horiz-adv-x="656" 
d="M68 690h140v-274h239v274h140v-690h-140v298h-239v-298h-140v690z" />
    <glyph glyph-name="afii10032" unicode="&#x41e;" horiz-adv-x="623" 
d="M576 394v-98c0 -100 -23.333 -175.833 -70 -227.5s-111.667 -77.5 -195 -77.5s-148.166 25.833 -194.499 77.5s-69.5 127.5 -69.5 227.5v98c0 100.667 23.167 176.667 69.5 228s111.166 77 194.499 77c84 0 149.167 -25.667 195.5 -77s69.5 -127.333 69.5 -228zM187 394
v-98c0 -124.667 41.333 -187 124 -187c83.333 0 125 62.333 125 187v98c0 124.667 -41.667 187 -125 187c-82.667 0 -124 -62.333 -124 -187z" />
    <glyph glyph-name="afii10033" unicode="&#x41f;" horiz-adv-x="666" 
d="M68 0v690h530v-690h-140v571h-250v-571h-140z" />
    <glyph glyph-name="afii10034" unicode="&#x420;" horiz-adv-x="590" 
d="M315 243h-106.999v-243h-140v690h247c82 0 145.5 -18.833 190.5 -56.5s67.5 -92.5 67.5 -164.5c0 -71.333 -22.833 -126.833 -68.5 -166.5s-108.834 -59.5 -189.501 -59.5zM208.001 571v-209.999h87c48 0 83 8.66699 105 26s33 44.666 33 81.999c0 68 -46 102 -138 102
h-87z" />
    <glyph glyph-name="afii10035" unicode="&#x421;" horiz-adv-x="594" 
d="M564 476l-133.999 -0.000976562c-14 70 -53.667 105 -119 105c-82.667 0 -124 -62.333 -124 -187v-98c0 -124.667 41.333 -187 124 -187c34 0 60.333 8.33301 79 25s32 43.334 40 80.001h133c-22 -148.667 -106 -223 -252 -223c-83.333 0 -148.166 25.833 -194.499 77.5
s-69.5 127.5 -69.5 227.5v98c0 100.667 23.167 176.667 69.5 228s111.166 77 194.499 77c70.667 0 127.667 -18.833 171 -56.5s70.666 -93.167 81.999 -166.5z" />
    <glyph glyph-name="afii10036" unicode="&#x422;" horiz-adv-x="536" 
d="M8 571v119h520v-119h-190v-571h-140v571h-190z" />
    <glyph glyph-name="afii10037" unicode="&#x423;" horiz-adv-x="579" 
d="M311 346l123.999 344h144l-212 -550c-22.667 -58 -52 -97.333 -88 -118c-35.333 -20.667 -89 -31 -161 -31v122c38 0 65.833 3.5 83.5 10.5s31.834 20.5 42.501 40.5l-236 526h155z" />
    <glyph glyph-name="afii10038" unicode="&#x424;" horiz-adv-x="786" 
d="M323 640v50h140v-50c186.667 0 280 -93 280 -279v-32c0 -186 -93.333 -279 -280 -279v-50h-140v50c-186.667 0 -280 93 -280 279v32c0 186 93.333 279 280 279zM463 522v-354c49.333 0 85 12 107 36s33 65.667 33 125v32c0 59.333 -11 101 -33 125s-57.667 36 -107 36z
M323 168v354c-49.333 0 -85 -12 -107 -36s-33 -65.667 -33 -125v-32c0 -59.333 11 -101 33 -125s57.667 -36 107 -36z" />
    <glyph glyph-name="afii10039" unicode="&#x425;" horiz-adv-x="592" 
d="M296 235l-131 -235h-152l194 356l-173 334h152l110 -220l111 220h151l-174 -334l195 -356h-151z" />
    <glyph glyph-name="afii10040" unicode="&#x426;" horiz-adv-x="714" 
d="M68 690h140v-572h250v572h140v-572h100v-248h-127v130h-503v690z" />
    <glyph glyph-name="afii10041" unicode="&#x427;" horiz-adv-x="598" 
d="M21 690h139.998v-203c0 -47.333 9 -81 27 -101s48.667 -30 92 -30c56.667 0 93.334 14.333 110.001 43v291h140v-690h-140v270c-31.333 -21.333 -76.666 -32 -135.999 -32c-85.333 0 -145.333 19.333 -180 58c-35.333 39.333 -53 103 -53 191v203z" />
    <glyph glyph-name="afii10042" unicode="&#x428;" horiz-adv-x="934" 
d="M68 690h140v-572h189v572h140v-572h189v572h140v-690h-798v690z" />
    <glyph glyph-name="afii10043" unicode="&#x429;" horiz-adv-x="982" 
d="M68 690h140v-572h189v572h140v-572h189v572h140v-572h100v-248h-127v130h-771v690z" />
    <glyph glyph-name="afii10044" unicode="&#x42a;" horiz-adv-x="657" 
d="M-27 571v119.001h293v-253h107c84 0 148 -19.833 192 -59.5s66 -92.834 66 -159.501c0 -66 -22 -118.833 -66 -158.5s-108 -59.5 -192 -59.5h-247v571h-153zM365 319.001h-99v-201h99c84 0 126 33.333 126 100c0 67.333 -42 101 -126 101z" />
    <glyph glyph-name="afii10045" unicode="&#x42b;" horiz-adv-x="816" 
d="M68 0l0.000976562 690h140v-253h97c85.333 0 149.666 -19.5 192.999 -58.5s65 -92.5 65 -160.5c0 -67.333 -22.667 -120.5 -68 -159.5s-113.333 -58.5 -204 -58.5h-223zM608.001 690h140v-690h-140v690zM297.001 319h-89v-201h89c84 0 126 33.333 126 100
c0 67.333 -42 101 -126 101z" />
    <glyph glyph-name="afii10046" unicode="&#x42c;" horiz-adv-x="599" 
d="M68 0v690.001h140v-253h107c84 0 148 -19.833 192 -59.5s66 -92.834 66 -159.501c0 -66 -22 -118.833 -66 -158.5s-108 -59.5 -192 -59.5h-247zM307 319.001h-99v-201h99c84 0 126 33.333 126 100c0 67.333 -42 101 -126 101z" />
    <glyph glyph-name="afii10047" unicode="&#x42d;" horiz-adv-x="594" 
d="M407 288h-208v118h208c-2.66699 116.667 -44.334 175 -125.001 175c-65.333 0 -104.666 -35 -117.999 -105h-134c11.333 73.333 38.5 128.833 81.5 166.5s99.833 56.5 170.5 56.5c84 0 149.167 -25.667 195.5 -77s69.5 -127.333 69.5 -228v-98
c0 -100 -23.333 -175.833 -70 -227.5s-111.667 -77.5 -195 -77.5c-145.333 0 -229.333 74.333 -252 223h134c7.33301 -36 20.5 -62.5 39.5 -79.5s45.167 -25.5 78.5 -25.5c81.333 0 123 59.667 125 179z" />
    <glyph glyph-name="afii10048" unicode="&#x42e;" horiz-adv-x="842" 
d="M795 384v-78c0 -210 -83.333 -315 -250 -315c-164.667 0 -248 102.333 -250 307h-87v-298h-140v690h140v-274h87c8.66699 188.667 92 283 250 283c166.667 0 250 -105 250 -315zM435 378v-65.001c0 -72 8.5 -124 25.5 -156s45.167 -48 84.5 -48
c40 0 68.333 15.833 85 47.5s25 83.834 25 156.501v65c0 71.333 -8.33301 123 -25 155s-45 48 -85 48c-39.333 0 -67.5 -16 -84.5 -48s-25.5 -83.667 -25.5 -155z" />
    <glyph glyph-name="afii10049" unicode="&#x42f;" horiz-adv-x="614" 
d="M310 271l-143.001 -271h-154l160 289c-88 31.333 -132 95.333 -132 192c0 68 22.833 119.833 68.5 155.5s109.834 53.5 192.501 53.5h244v-690h-140v271h-96zM311.999 389h94v182h-94c-45.333 0 -78.5 -7 -99.5 -21s-31.5 -37 -31.5 -69
c0 -32.667 9.66699 -56.167 29 -70.5s53.333 -21.5 102 -21.5z" />
    <glyph glyph-name="afii10065" unicode="&#x430;" 
d="M26 148c0 49.333 16.667 87 50 113s78.333 39 135 39h99v29c0 28.667 -6 48.167 -18 58.5s-35.667 15.5 -71 15.5c-26 0 -45.667 -2.66699 -59 -8s-25 -16 -35 -32l-90 63c18 30 42.167 51.333 72.5 64s71.5 19 123.5 19c70.667 0 122 -13.667 154 -41s48 -74 48 -140
v-328h-125v44c-21.333 -35.333 -57.333 -53 -108 -53c-54 0 -96.833 13.833 -128.5 41.5s-47.5 66.167 -47.5 115.5zM310 187v19.001h-84c-50 0 -75 -18.667 -75 -56s24.333 -56 73 -56c30 0 51.833 7.16699 65.5 21.5s20.5 38.166 20.5 71.499z" />
    <glyph glyph-name="afii10066" unicode="&#x431;" horiz-adv-x="502" 
d="M404 723l66.002 -82c-8.66699 -18 -20.334 -31.333 -35.001 -40s-35.667 -13.667 -63 -15l-92 -5c-51.333 -3.33301 -84.666 -18 -99.999 -44c-8 -12.667 -14 -32.667 -18 -60c29.333 21.333 65 32 107 32c65.333 0 115 -19 149 -57s51 -93.667 51 -167v-68
c0 -70.667 -18.333 -126 -55 -166s-90.334 -60 -161.001 -60s-124.334 19.833 -161.001 59.5s-55 95.167 -55 166.5v65c0 145.333 14.667 248 44 308c32 63.333 88.333 97 169 101l100 5c25.333 1.33301 43.333 10.333 54 27zM253.002 99c59.333 0 89 42 89 126v60
c0 77.333 -29.667 116 -89 116s-89 -38.667 -89 -116v-60c0 -42 6.83301 -73.5 20.5 -94.5s36.5 -31.5 68.5 -31.5z" />
    <glyph glyph-name="afii10067" unicode="&#x432;" horiz-adv-x="497" 
d="M51 0l0.000976562 500h200c124 0 186 -42.333 186 -127c0 -24 -6.33301 -44.667 -19 -62s-29 -30.333 -49 -39c30 -8.66699 53.667 -24 71 -46s26 -48.667 26 -80c0 -44.667 -15.833 -80.167 -47.5 -106.5s-79.834 -39.5 -144.501 -39.5h-223zM244.001 212h-65v-113h73
c51.333 0 77 18.667 77 56c0 20 -6.33301 34.5 -19 43.5s-34.667 13.5 -66 13.5zM227.001 401h-48v-95h54c44.667 0 67 15.667 67 47c0 32 -24.333 48 -73 48z" />
    <glyph glyph-name="afii10068" unicode="&#x433;" horiz-adv-x="373" 
d="M51 500h332v-108h-204v-392h-128v500z" />
    <glyph glyph-name="afii10069" unicode="&#x434;" horiz-adv-x="567" 
d="M129 0l-0.000976562 -117h-117v225h39c14.667 11.333 27.334 31.333 38.001 60c14.667 36 22 106.667 22 212v120h373v-392h66v-225h-116v117h-305zM194.999 118l-5 -10h167v284h-125v-31c0 -112.667 -12.333 -193.667 -37 -243z" />
    <glyph glyph-name="afii10070" unicode="&#x435;" 
d="M343 142l95.002 -66c-32.667 -56.667 -93.667 -85 -183 -85c-70.667 0 -125.334 20.5 -164.001 61.5s-58 95.833 -58 164.5v68c0 73.333 17.667 129 53 167s86.333 57 153 57c137.333 0 206 -78 206 -234v-57h-285c1.33301 -79.333 32.666 -119 93.999 -119
c24 0 42.167 3.16699 54.5 9.5s23.833 17.5 34.5 33.5zM240.002 401c-48 0 -74.667 -30.667 -80 -92h157c-3.33301 61.333 -29 92 -77 92z" />
    <glyph glyph-name="afii10072" unicode="&#x436;" horiz-adv-x="693" 
d="M457 306l82 194h133l-105 -243l126 -257h-141l-92 199h-50v-199h-127v199h-50l-92 -199h-141l126 257l-105 243h133l81 -194h48v194h127v-194h47z" />
    <glyph glyph-name="afii10073" unicode="&#x437;" horiz-adv-x="454" 
d="M182 212h-48.001v94h51c51.333 0 77 18 77 54c0 14.667 -5.66699 26.5 -17 35.5s-27.333 13.5 -48 13.5c-35.333 0 -65.666 -13.667 -90.999 -41l-87 61c43.333 53.333 108.333 80 195 80c58 0 103.333 -11.833 136 -35.5s49 -54.167 49 -91.5
c0 -52 -24 -89.667 -72 -113c60.667 -22.667 91 -65 91 -127c0 -46.667 -17.667 -83.5 -53 -110.5s-86 -40.5 -152 -40.5c-94.667 0 -161 29 -199 87l82 64c25.333 -34 61.333 -51 108 -51c24.667 0 43.667 5.66699 57 17s20 26.333 20 45c0 39.333 -33 59 -99 59z" />
    <glyph glyph-name="afii10074" unicode="&#x438;" horiz-adv-x="532" 
d="M51 500h128v-273l191 273h110v-500h-127v283l-193 -283h-109v500z" />
    <glyph glyph-name="afii10075" unicode="&#x439;" horiz-adv-x="532" 
d="M51 500h128v-273l191 273h110v-500h-127v283l-193 -283h-109v500zM315 687l104 0.000976562c0 -86 -51.333 -129 -154 -129c-49.333 0 -87.5 10.667 -114.5 32s-40.5 53.666 -40.5 96.999h104c0 -36.667 17 -55 51 -55c33.333 0 50 18.333 50 55z" />
    <glyph glyph-name="afii10076" unicode="&#x43a;" horiz-adv-x="492" 
d="M227 306l110 194h140l-137 -242l151 -258h-147l-114 199h-51v-199h-128v500h128v-194h48z" />
    <glyph glyph-name="afii10077" unicode="&#x43b;" horiz-adv-x="519" 
d="M91 335l-0.000976562 164.999h377v-500h-127v392h-129v-116c0 -51.333 -2.33301 -89.666 -7 -114.999c-4 -26.667 -12 -52 -24 -76c-31.333 -60 -89 -92 -173 -96v112c34.667 10 57.334 30 68.001 60c10 27.333 15 85.333 15 174z" />
    <glyph glyph-name="afii10078" unicode="&#x43c;" horiz-adv-x="636" 
d="M51 500h112l155 -272l155 272h111v-500h-127v258l-100 -183h-85l-93 180v-255h-128v500z" />
    <glyph glyph-name="afii10079" unicode="&#x43d;" horiz-adv-x="515" 
d="M51 500h128v-190h157v190h128v-500h-128v201h-157v-201h-128v500z" />
    <glyph glyph-name="afii10080" unicode="&#x43e;" horiz-adv-x="499" 
d="M465 281l-0.000976562 -59.999c0 -72.667 -18.167 -129.167 -54.5 -169.5s-90.166 -60.5 -161.499 -60.5c-70 0 -123.5 20.167 -160.5 60.5s-55.5 96.833 -55.5 169.5v60c0 74 18.5 130.5 55.5 169.5s90.5 58.5 160.5 58.5s123.5 -19.333 160.5 -58
s55.5 -95.334 55.5 -170.001zM248.999 99.001c59.333 0 89 42 89 126v52c0 82.667 -29.667 124 -89 124s-89 -41.333 -89 -124v-52c0 -42 6.83301 -73.5 20.5 -94.5s36.5 -31.5 68.5 -31.5z" />
    <glyph glyph-name="afii10081" unicode="&#x43f;" horiz-adv-x="515" 
d="M51 0v500h413v-500h-128v392h-157v-392h-128z" />
    <glyph glyph-name="afii10082" unicode="&#x440;" horiz-adv-x="517" 
d="M484 285v-68c0 -67.333 -17 -122 -51 -164c-33.333 -41.333 -81.333 -62 -144 -62c-50 0 -86.667 9.66699 -110 29v-210h-128v690h128v-33c24.667 28 61.667 42 111 42c59.333 0 106.5 -19.833 141.5 -59.5s52.5 -94.5 52.5 -164.5zM268 99c58.667 0 88 42 88 126v52
c0 82.667 -29.333 124 -88 124c-59.333 0 -89 -37.667 -89 -113v-63c0 -42 6.83301 -73.5 20.5 -94.5s36.5 -31.5 68.5 -31.5z" />
    <glyph glyph-name="afii10083" unicode="&#x441;" horiz-adv-x="446" 
d="M343 142l95.002 -66c-32.667 -56.667 -93.334 -85 -182.001 -85c-70 0 -124.667 20.167 -164 60.5s-59 95.5 -59 165.5v68c0 72.667 19.667 128.167 59 166.5s96.333 57.5 171 57.5c81.333 0 139.666 -27.667 174.999 -83l-96 -67c-20 28 -47.333 42 -82 42
c-66.667 0 -100 -41.333 -100 -124v-52c0 -40 7 -71 21 -93c15.333 -22 41.666 -33 78.999 -33c38.667 0 66.334 14.333 83.001 43z" />
    <glyph glyph-name="afii10084" unicode="&#x442;" horiz-adv-x="420" 
d="M0 392v108h420v-108h-147v-392h-127v392h-146z" />
    <glyph glyph-name="afii10085" unicode="&#x443;" horiz-adv-x="479" 
d="M192 -7l-187.002 507h134l111 -320l100 320h129l-175 -523c-23.333 -68 -49.666 -112.667 -78.999 -134c-30 -22 -80 -33 -150 -33v114c36.667 0 62.834 4.5 78.501 13.5s28.5 27.5 38.5 55.5z" />
    <glyph glyph-name="afii10086" unicode="&#x444;" horiz-adv-x="698" 
d="M285 690h127.998v-181c168 0 252 -74.667 252 -224v-68c0 -73.333 -21.167 -129.333 -63.5 -168s-105.166 -58 -188.499 -58v-181h-128v181c-83.333 0 -146.166 19.333 -188.499 58s-63.5 94.667 -63.5 168v68c0 149.333 84 224 252 224v181zM159.998 278v-55.998
c0 -42.667 9.83301 -73.834 29.5 -93.501s51.5 -29.5 95.5 -29.5v302c-43.333 0 -75 -9.33301 -95 -28s-30 -50.334 -30 -95.001zM536.998 222.002v55.998c0 44.667 -9.83301 76.334 -29.5 95.001s-51.167 28 -94.5 28v-302c44 0 75.667 9.83301 95 29.5
s29 50.834 29 93.501z" />
    <glyph glyph-name="afii10087" unicode="&#x445;" horiz-adv-x="490" 
d="M319 256l165 -256h-142l-97 152l-97 -152h-141l164 256l-151 244h141l84 -143l84 143h141z" />
    <glyph glyph-name="afii10088" unicode="&#x446;" horiz-adv-x="546" 
d="M530 108v-225h-117v117h-362v500h128v-392h157v392h128v-392h66z" />
    <glyph glyph-name="afii10089" unicode="&#x447;" horiz-adv-x="470" 
d="M25 500h127v-144c0 -30.667 5.83301 -52 17.5 -64s29.5 -18 53.5 -18c34 0 56.667 11 68 33v193h127v-500h-127v186c-20.667 -16 -52 -24 -94 -24c-114.667 0 -172 58.333 -172 175v163z" />
    <glyph glyph-name="afii10090" unicode="&#x448;" horiz-adv-x="746" 
d="M695 500v-500h-644v500h128v-392h130v392h128v-392h130v392h128z" />
    <glyph glyph-name="afii10091" unicode="&#x449;" horiz-adv-x="778" 
d="M761 108v-225h-117v117h-593v500h128v-392h130v392h128v-392h130v392h128v-392h66z" />
    <glyph glyph-name="afii10092" unicode="&#x44a;" horiz-adv-x="545" 
d="M-13 392v107.999h249v-172h77c140.667 0 211 -54.333 211 -163c0 -53.333 -17 -94.166 -51 -122.499s-84 -42.5 -150 -42.5h-214v392h-122zM304 219.999h-68v-112h80c47.333 0 71 19 71 57c0 36.667 -27.667 55 -83 55z" />
    <glyph glyph-name="afii10093" unicode="&#x44b;" horiz-adv-x="661" 
d="M51 0v500h128v-172h53c140.667 0 211 -54.333 211 -163c0 -54 -17.5 -95 -52.5 -123s-84.5 -42 -148.5 -42h-191zM482 0v500h127v-500h-127zM223 220h-44v-112h56c47.333 0 71 19 71 57c0 36.667 -27.667 55 -83 55z" />
    <glyph glyph-name="afii10094" unicode="&#x44c;" horiz-adv-x="488" 
d="M51 0v499.999h128v-172h76c140.667 0 211 -54.333 211 -163c0 -53.333 -17 -94.166 -51 -122.499s-84 -42.5 -150 -42.5h-214zM246 219.999h-67v-112h79c47.333 0 71 19 71 57c0 36.667 -27.667 55 -83 55z" />
    <glyph glyph-name="afii10095" unicode="&#x44d;" horiz-adv-x="451" 
d="M290 204h-155.999v99h156c-3.33301 65.333 -35.333 98 -96 98c-36 0 -63.667 -14 -83 -42l-95 67c42 55.333 99.667 83 173 83c75.333 0 132.333 -19.167 171 -57.5s58 -93.833 58 -166.5v-68c0 -71.333 -19.667 -126.833 -59 -166.5s-96 -59.5 -170 -59.5
c-82.667 0 -141.334 28.333 -176.001 85l93 66c20 -28.667 49.333 -43 88 -43c62.667 0 94.667 35 96 105z" />
    <glyph glyph-name="afii10096" unicode="&#x44e;" horiz-adv-x="691" 
d="M657 285l-0.000976562 -67.999c0 -70 -18 -125.167 -54 -165.5s-86 -60.5 -150 -60.5c-60.667 0 -109.167 18.167 -145.5 54.5s-55.833 88.166 -58.5 155.499h-70v-201h-128v500h128v-190h71c4 64 23.667 113.167 59 147.5s83.333 51.5 144 51.5
c64.667 0 114.834 -19.167 150.501 -57.5s53.5 -93.833 53.5 -166.5zM452.999 99.001c51.333 0 77 41.333 77 124v56c0 81.333 -25.667 122 -77 122s-77 -40.667 -77 -122v-56c0 -42.667 6 -74 18 -94s31.667 -30 59 -30z" />
    <glyph glyph-name="afii10097" unicode="&#x44f;" horiz-adv-x="500" 
d="M448 500v-500.001h-127v178h-63l-105 -178h-135l120 199c-62.667 26.667 -94 75.334 -94 146.001c0 48 17 85.833 51 113.5s85 41.5 153 41.5h200zM262 283.999h59v108h-67c-48.667 0 -73 -17.667 -73 -53c0 -36.667 27 -55 81 -55z" />
    <glyph glyph-name="afii10071" unicode="&#x451;" 
d="M343 142l95.002 -66c-32.667 -56.667 -93.667 -85 -183 -85c-70.667 0 -125.334 20.5 -164.001 61.5s-58 95.833 -58 164.5v68c0 73.333 17.667 129 53 167s86.333 57 153 57c137.333 0 206 -78 206 -234v-57h-285c1.33301 -79.333 32.666 -119 93.999 -119
c24 0 42.167 3.16699 54.5 9.5s23.833 17.5 34.5 33.5zM240.002 401c-48 0 -74.667 -30.667 -80 -92h157c-3.33301 61.333 -29 92 -77 92zM197.002 573h-124v117h124v-117zM400.002 573h-123v117h123v-117z" />
    <glyph glyph-name="afii10099" unicode="&#x452;" horiz-adv-x="526" 
d="M65 538l-94.001 0.000976562v99h94v53h127v-53h138v-99h-138v-108c22.667 30.667 60.334 46 113.001 46c122 0 183 -65.333 183 -196v-300c0 -59.333 -14.833 -102.5 -44.5 -129.5s-74.167 -40.5 -133.5 -40.5h-13v110h11c18.667 0 32.167 4.66699 40.5 14
s12.5 24.666 12.5 45.999v280c0 37.333 -6.5 64.333 -19.5 81s-33.5 25 -61.5 25c-58.667 0 -88 -35 -88 -105v-261h-127v538z" />
    <glyph glyph-name="afii10100" unicode="&#x453;" horiz-adv-x="373" 
d="M51 500h332v-108h-204v-392h-128v500zM269 567h-122l70 158h143z" />
    <glyph glyph-name="afii10101" unicode="&#x454;" horiz-adv-x="459" 
d="M157 303h157.001v-99h-157c0.666992 -70 33 -105 97 -105c39.333 0 68.333 14.333 87 43l94 -66c-34.667 -56.667 -93.334 -85 -176.001 -85c-74 0 -130.667 19.833 -170 59.5s-59 95.167 -59 166.5v68c0 72.667 19.333 128.167 58 166.5s95.667 57.5 171 57.5
c73.333 0 131 -27.667 173 -83l-96 -67c-18.667 28 -46 42 -82 42c-62.667 0 -95 -32.667 -97 -98z" />
    <glyph glyph-name="afii10102" unicode="&#x455;" horiz-adv-x="464" 
d="M419 426l-94.001 -66.999c-12.667 14.667 -26 25 -40 31s-33.333 9 -58 9c-42 0 -63 -13 -63 -39c0 -14 6.16699 -24.667 18.5 -32s32.833 -13 61.5 -17c63.333 -10 110 -28 140 -54s45 -63 45 -111c0 -48.667 -17 -86.667 -51 -114s-82.333 -41 -145 -41
c-98 0 -167 27.667 -207 83l98 70c20.667 -28.667 56.334 -43 107.001 -43c47.333 0 71 13.667 71 41c0 15.333 -5.83301 26.166 -17.5 32.499s-34.167 12.5 -67.5 18.5c-120 19.333 -180 73.333 -180 162c0 48.667 16.833 86.5 50.5 113.5s81.167 40.5 142.5 40.5
c92 0 155 -27.667 189 -83z" />
    <glyph glyph-name="afii10103" unicode="&#x456;" horiz-adv-x="260" 
d="M194 0h-128v500h128v-500zM199 566h-138v124h138v-124z" />
    <glyph glyph-name="afii10104" unicode="&#x457;" horiz-adv-x="260" 
d="M194 0h-128v500h128v-500zM86 573h-124v117h124v-117zM289 573h-123v117h123v-117z" />
    <glyph glyph-name="afii10105" unicode="&#x458;" horiz-adv-x="251" 
d="M67 500h127.001v-527c0 -62 -15 -104.667 -45 -128c-30.667 -23.333 -80.334 -35 -149.001 -35v110c24.667 0 42 5.5 52 16.5s15 29.167 15 54.5v509zM199.001 566h-137v124h137v-124z" />
    <glyph glyph-name="afii10106" unicode="&#x459;" horiz-adv-x="777" 
d="M91 335l-0.000976562 165h377v-172h77c140.667 0 211 -54.333 211 -163c0 -52.667 -17.167 -93.334 -51.5 -122.001s-84.5 -43 -150.5 -43h-213v392h-129v-116c0 -51.333 -2.33301 -89.666 -7 -114.999c-4 -26.667 -12 -52 -24 -76c-31.333 -60 -89 -92 -173 -96v112
c34.667 10 57.334 30 68.001 60c10 27.333 15 85.333 15 174zM535.999 220h-68v-112h80c46.667 0 70 19 70 57c0 36.667 -27.333 55 -82 55z" />
    <glyph glyph-name="afii10107" unicode="&#x45a;" horiz-adv-x="773" 
d="M51 500l128 -0.000976562v-190h157v190h128v-172h76c140.667 0 211 -54.333 211 -163c0 -53.333 -17 -94.166 -51 -122.499s-84.333 -42.5 -151 -42.5h-213v201h-157v-201h-128v500zM531 219.999h-67v-112h79c47.333 0 71 19 71 57c0 36.667 -27.667 55 -83 55z" />
    <glyph glyph-name="afii10108" unicode="&#x45b;" horiz-adv-x="526" 
d="M65 538h-94.001v99h94v53h127v-53h138v-99h-138v-108c22.667 30.667 60.334 46 113.001 46c122 0 183 -65.333 183 -196v-280h-127v260c0 37.333 -6.5 64.333 -19.5 81s-33.5 25 -61.5 25c-58.667 0 -88 -35 -88 -105v-261h-127v538z" />
    <glyph glyph-name="afii10109" unicode="&#x45c;" horiz-adv-x="492" 
d="M227 306l110 194h140l-137 -242l151 -258h-147l-114 199h-51v-199h-128v500h128v-194h48zM307 567h-122l70 158h143z" />
    <glyph glyph-name="afii10110" unicode="&#x45e;" horiz-adv-x="479" 
d="M192 -7l-187.002 507h134l111 -320l100 320h129l-175 -523c-23.333 -68 -49.666 -112.667 -78.999 -134c-30 -22 -80 -33 -150 -33v114c36.667 0 62.834 4.5 78.501 13.5s28.5 27.5 38.5 55.5zM298.998 687l104 0.000976562c0 -86 -51.333 -129 -154 -129
c-49.333 0 -87.5 10.667 -114.5 32s-40.5 53.666 -40.5 96.999h104c0 -36.667 17 -55 51 -55c33.333 0 50 18.333 50 55z" />
    <glyph glyph-name="afii10193" unicode="&#x45f;" horiz-adv-x="526" 
d="M304 0v-117h-93v117h-160v500h128v-391h157v391h128v-500h-160z" />
    <glyph glyph-name="afii10146" unicode="&#x462;" horiz-adv-x="599" 
d="M68 618v72.001h140v-72h151v-118h-151v-63h107c84 0 148 -19.833 192 -59.5s66 -92.834 66 -159.501c0 -66 -22 -118.833 -66 -158.5s-108 -59.5 -192 -59.5h-247v500h-78v118h78zM307 319.001h-99v-201h99c84 0 126 33.333 126 100c0 67.333 -42 101 -126 101z" />
    <glyph glyph-name="afii10194" unicode="&#x463;" horiz-adv-x="488" 
d="M51 401l-80 -0.000976562v99h80v190h128v-190h151v-99h-151v-73h76c140.667 0 211 -54.333 211 -163c0 -53.333 -17 -94.166 -51 -122.499s-84 -42.5 -150 -42.5h-214v401zM246 219.999h-67v-112h79c47.333 0 71 19 71 57c0 36.667 -27.667 55 -83 55z" />
    <glyph glyph-name="afii10147" unicode="&#x472;" horiz-adv-x="623" 
d="M576 394v-98c0 -100 -23.333 -175.833 -70 -227.5s-111.667 -77.5 -195 -77.5s-148.166 25.833 -194.499 77.5s-69.5 127.5 -69.5 227.5v98c0 100.667 23.167 176.667 69.5 228s111.166 77 194.499 77c84 0 149.167 -25.667 195.5 -77s69.5 -127.333 69.5 -228zM311 109
c83.333 0 125 62.333 125 187v2h-249v-2c0 -124.667 41.333 -187 124 -187zM311 581c-78 0 -119.333 -55 -124 -165h248c-4 110 -45.333 165 -124 165z" />
    <glyph glyph-name="afii10195" unicode="&#x473;" horiz-adv-x="499" 
d="M465 281l-0.000976562 -59.999c0 -72.667 -18.167 -129.167 -54.5 -169.5s-90.166 -60.5 -161.499 -60.5c-70 0 -123.5 20.167 -160.5 60.5s-55.5 96.833 -55.5 169.5v60c0 74 18.5 130.5 55.5 169.5s90.5 58.5 160.5 58.5s123.5 -19.333 160.5 -58
s55.5 -95.334 55.5 -170.001zM336.999 201.001h-176c4.66699 -68 34 -102 88 -102s83.333 34 88 102zM248.999 401.001c-52 0 -81.333 -30.333 -88 -91h175c-6 60.667 -35 91 -87 91z" />
    <glyph glyph-name="afii10148" unicode="&#x474;" horiz-adv-x="617" 
d="M244 0l-241.003 690h154l151 -464l108 332c16 51.333 39.333 87.333 70 108c30.667 22 79.334 33 146.001 33v-115c-23.333 0 -40.666 -5 -51.999 -15s-21.666 -29 -30.999 -57l-178 -512h-127z" />
    <glyph glyph-name="afii10196" unicode="&#x475;" horiz-adv-x="501" 
d="M511 509l0.000976562 -107c-18 0 -31.5 -4.16699 -40.5 -12.5s-17.833 -24.5 -26.5 -48.5l-130 -341h-120l-194 500h140l112 -324l77 221c16.667 48 37 78.333 61 91c25.333 14 65.666 21 120.999 21z" />
    <glyph glyph-name="afii10050" unicode="&#x490;" horiz-adv-x="491" 
d="M68 690h307v108h116v-227h-283v-571h-140v690z" />
    <glyph glyph-name="afii10098" unicode="&#x491;" horiz-adv-x="373" 
d="M51 500h224v93h108v-201h-204v-392h-128v500z" />
    <glyph glyph-name="uni0492" unicode="&#x492;" horiz-adv-x="492" 
d="M69 690h423v-119h-283v-155h136v-118h-136v-298h-140v298h-79v118h79v274z" />
    <glyph glyph-name="uni0493" unicode="&#x493;" horiz-adv-x="395" 
d="M73 500h332v-108h-204v-82h106v-109h-106v-201h-128v201h-86v109h86v190z" />
    <glyph glyph-name="uni0496" unicode="&#x496;" horiz-adv-x="962" 
d="M329 288l-169 -288h-157l206 348l-172 342h148l140 -284h59v284h140v-284h58l141 284h148l-172 -342l136 -230h111v-248h-127v130h-71l-169 288h-55v-288h-140v288h-55z" />
    <glyph glyph-name="uni0497" unicode="&#x497;" horiz-adv-x="725" 
d="M457 306l82 194h133l-105 -243l73 -149h75v-225h-117v117h-46l-92 199h-50v-199h-127v199h-50l-92 -199h-141l126 257l-105 243h133l81 -194h48v194h127v-194h47z" />
    <glyph glyph-name="uni0498" unicode="&#x498;" horiz-adv-x="592" 
d="M362 -4v-126h-127v126c-115.333 16.667 -184.666 84.667 -207.999 204h134c12.667 -32 29.167 -55.167 49.5 -69.5s47.833 -21.5 82.5 -21.5c84 0 126 31.667 126 95s-44.667 95 -134 95h-73v118h75c73.333 0 110 28 110 84c0 54 -34.333 81 -103 81
c-33.333 0 -59.5 -6.83301 -78.5 -20.5s-33.833 -34.834 -44.5 -63.501h-123c6 60 32.667 108.667 80 146c46.667 36.667 103.667 55 171 55s123.666 -16 168.999 -48c46 -32 69 -77.667 69 -137c0 -65.333 -30 -115.666 -90 -150.999c74.667 -30.667 112 -85.667 112 -165
c0 -54 -17.333 -99 -52 -135s-83 -58.333 -145 -67z" />
    <glyph glyph-name="uni0499" unicode="&#x499;" horiz-adv-x="454" 
d="M277 -4l-0.000976562 -113h-117v111c-66 8.66699 -114.667 36.667 -146 84l82 64c25.333 -34 61.333 -51 108 -51c24.667 0 43.667 5.66699 57 17s20 26.333 20 45c0 39.333 -33 59 -99 59h-48v94h51c51.333 0 77 18 77 54c0 14.667 -5.66699 26.5 -17 35.5
s-27.333 13.5 -48 13.5c-35.333 0 -65.666 -13.667 -90.999 -41l-87 61c43.333 53.333 108.333 80 195 80c58 0 103.333 -11.833 136 -35.5s49 -54.167 49 -91.5c0 -52 -24 -89.667 -72 -113c60.667 -22.667 91 -65 91 -127c0 -38.667 -12 -70.667 -36 -96s-59 -42 -105 -50
z" />
    <glyph glyph-name="uni049A" unicode="&#x49a;" horiz-adv-x="665" 
d="M648 118v-248h-126v130h-78l-177 288h-59v-288h-140v690h140v-284h56l158 284h154l-186 -334l147 -238h111z" />
    <glyph glyph-name="uni049B" unicode="&#x49b;" horiz-adv-x="522" 
d="M227 306l110 194h140l-137 -242l88 -150h81v-225h-117v117h-48l-114 199h-51v-199h-128v500h128v-194h48z" />
    <glyph glyph-name="uni049C" unicode="&#x49c;" horiz-adv-x="720" 
d="M486 356l220 -356h-165l-178 288h-19v-107h-105v107h-31v-288h-140v690h140v-284h31v114h105v-114h17l157 284h154z" />
    <glyph glyph-name="uni049D" unicode="&#x49d;" horiz-adv-x="569" 
d="M304 306l110 194h140l-137 -242l151 -258h-147l-114 199h-10v-96h-95v96h-23v-199h-128v500h128v-194h23v98h95v-98h7z" />
    <glyph glyph-name="uni04A0" unicode="&#x4a0;" horiz-adv-x="681" 
d="M448 356l220 -356h-166l-177 288h-59v-288h-140v571h-153v119h293v-284h56l158 284h154z" />
    <glyph glyph-name="uni04A1" unicode="&#x4a1;" horiz-adv-x="549" 
d="M284 306l110 194h140l-137 -242l151 -258h-147l-114 199h-51v-199h-128v392h-121v108h249v-194h48z" />
    <glyph glyph-name="uni04A2" unicode="&#x4a2;" horiz-adv-x="704" 
d="M68 690h140v-274h239v274h140v-572h100v-248h-127v130h-113v298h-239v-298h-140v690z" />
    <glyph glyph-name="uni04A3" unicode="&#x4a3;" horiz-adv-x="546" 
d="M51 500h128v-190h157v190h128v-392h66v-225h-117v117h-77v201h-157v-201h-128v500z" />
    <glyph glyph-name="uni04AA" unicode="&#x4aa;" horiz-adv-x="594" 
d="M375 -3l0.00292969 -127.001h-127v127c-64 12 -113.5 43.333 -148.5 94s-52.5 119 -52.5 205v98c0 100.667 23.167 176.667 69.5 228s111.166 77 194.499 77c70.667 0 127.667 -18.833 171 -56.5s70.666 -93.167 81.999 -166.5h-134c-14 70 -53.667 105 -119 105
c-82.667 0 -124 -62.333 -124 -187v-98c0 -124.667 41.333 -187 124 -187c34 0 60.333 8.33301 79 25s32 43.334 40 80.001h133c-18.667 -126.667 -81.334 -199 -188.001 -217z" />
    <glyph glyph-name="uni04AB" unicode="&#x4ab;" horiz-adv-x="446" 
d="M318 -4l0.000976562 -113h-116v113c-54 9.33301 -95.667 33.5 -125 72.5s-44 88.5 -44 148.5v68c0 72.667 19.667 128.167 59 166.5s96.333 57.5 171 57.5c81.333 0 139.666 -27.667 174.999 -83l-96 -67c-20 28 -47.333 42 -82 42c-66.667 0 -100 -41.333 -100 -124v-52
c0 -40 7 -71 21 -93c15.333 -22 41.666 -33 78.999 -33c38.667 0 66.334 14.333 83.001 43l95 -66c-26 -43.333 -66 -70 -120 -80z" />
    <glyph glyph-name="uni04AE" unicode="&#x4ae;" horiz-adv-x="583" 
d="M221 282l-215 408h162l123 -257l124 257h161l-215 -408v-282h-140v282z" />
    <glyph glyph-name="uni04AF" unicode="&#x4af;" horiz-adv-x="504" 
d="M252 176l111 324h141l-186 -490v-200h-128v200l-190 490h140z" />
    <glyph glyph-name="uni04B0" unicode="&#x4b0;" horiz-adv-x="583" 
d="M207 309l-201 381h162l123 -257l124 257h161l-201 -381h115v-118h-129v-191h-140v191h-127v118h113z" />
    <glyph glyph-name="uni04B1" unicode="&#x4b1;" horiz-adv-x="504" 
d="M252 176l111 324h141l-190 -500h99v-108h-99v-82h-120v82h-102v108h102l-194 500h140z" />
    <glyph glyph-name="uni04B2" unicode="&#x4b2;" horiz-adv-x="642" 
d="M296 235l-131 -235h-152l194 356l-173 334h152l110 -220l111 220h151l-174 -334l130 -238h111v-248h-127v130h-70z" />
    <glyph glyph-name="uni04B3" unicode="&#x4b3;" horiz-adv-x="511" 
d="M501 108v-225h-116v117h-43l-97 152l-97 -152h-141l164 256l-151 244h141l84 -143l84 143h141l-151 -244l95 -148h87z" />
    <glyph glyph-name="uni04B6" unicode="&#x4b6;" horiz-adv-x="646" 
d="M21 690h139.998v-203c0 -47.333 9 -81 27 -101s48.667 -30 92 -30c56.667 0 93.334 14.333 110.001 43v291h140v-572h99v-248h-126v130h-113v270c-31.333 -21.333 -76.666 -32 -135.999 -32c-85.333 0 -145.333 19.333 -180 58c-35.333 39.333 -53 103 -53 191v203z" />
    <glyph glyph-name="uni04B7" unicode="&#x4b7;" horiz-adv-x="503" 
d="M27 500h127v-144c0 -30.667 5.83301 -52 17.5 -64s29.5 -18 53.5 -18c34 0 56.667 11 68 33v193h127v-392h66v-225h-117v117h-76v186c-20.667 -16 -52 -24 -94 -24c-114.667 0 -172 58.333 -172 175v163z" />
    <glyph glyph-name="uni04B8" unicode="&#x4b8;" horiz-adv-x="618" 
d="M230 473l117.999 0.00195312v-109c32 7.33301 52.667 19 62 35v291h140v-690h-140v270c-11.333 -8.66699 -32 -16.334 -62 -23.001v-113h-118v104c-75.333 3.33301 -129 24.333 -161 63s-48 100.667 -48 186v203h140v-203c0 -38 5.33301 -66.833 16 -86.5
s28.334 -32.834 53.001 -39.501v112z" />
    <glyph glyph-name="uni04B9" unicode="&#x4b9;" horiz-adv-x="512" 
d="M26 500l128 -0.000976562v-144c0 -44.667 14 -71 42 -79v104h95v-97c18 4.66699 32 12 42 22v194h127v-500h-127v186c-10 -5.33301 -24 -9.66602 -42 -12.999v-92h-95v81c-113.333 0 -170 58.333 -170 175v163z" />
    <glyph glyph-name="uni04BA" unicode="&#x4ba;" horiz-adv-x="598" 
d="M577 0l-140 -0.000976562v260c0 47.333 -9 81 -27 101s-48.667 30 -92 30c-56.667 0 -93.334 -14.333 -110.001 -43v-348h-140v690h140v-213c31.333 21.333 77 32 137 32c84.667 0 144.334 -19.333 179.001 -58c35.333 -39.333 53 -102.666 53 -189.999v-261z" />
    <glyph glyph-name="uni04BB" unicode="&#x4bb;" horiz-adv-x="526" 
d="M179 0h-128v690h128v-229c24 32 61.333 48 112 48c122 0 183 -65.333 183 -196v-313h-127v293c0 37.333 -6.5 64.333 -19.5 81s-33.167 25 -60.5 25c-58.667 0 -88 -35 -88 -105v-294z" />
    <glyph glyph-name="uni04D8" unicode="&#x4d8;" horiz-adv-x="602" 
d="M47 296l-0.000976562 72.999h378v25c0 124.667 -41.333 187 -124 187c-66 0 -105.333 -35 -118 -105h-134c10 72 36.5 127.167 79.5 165.5s100.5 57.5 172.5 57.5c84 0 149 -26.167 195 -78.5s69 -131.166 69 -236.499v-88c0 -100 -23.167 -175.833 -69.5 -227.5
s-111.166 -77.5 -194.499 -77.5c-82 0 -144.833 25.5 -188.5 76.5s-65.5 127.167 -65.5 228.5zM300.999 108.999c37.333 0 65.832 11.168 85.499 33.501s31.834 58.166 36.501 107.499h-242c3.33301 -48 14.333 -83.5 33 -106.5s47.667 -34.5 87 -34.5z" />
    <glyph glyph-name="afii10846" unicode="&#x4d9;" 
d="M143 358l-95.002 66c32.667 56.667 93.667 85 183 85c70.667 0 125.334 -20.5 164.001 -61.5s58 -95.833 58 -164.5v-68c0 -73.333 -17.667 -129 -53 -167s-86.333 -57 -153 -57c-137.333 0 -206 78 -206 234v57h285c-1.33301 79.333 -32.666 119 -93.999 119
c-24 0 -42.167 -3.16699 -54.5 -9.5s-23.833 -17.5 -34.5 -33.5zM245.998 99c48 0 74.667 30.667 80 92h-157c3.33301 -61.333 29 -92 77 -92z" />
    <glyph glyph-name="uni04E2" unicode="&#x4e2;" horiz-adv-x="676" 
d="M68 0v690h140v-433l288 433h112v-690h-140v428l-285 -428h-115zM500 744h-322v112h322v-112z" />
    <glyph glyph-name="uni04E3" unicode="&#x4e3;" horiz-adv-x="532" 
d="M51 500h128v-273l191 273h110v-500h-127v283l-193 -283h-109v500zM408 573h-283v111h283v-111z" />
    <glyph glyph-name="uni04E8" unicode="&#x4e8;" horiz-adv-x="623" 
d="M576 394v-98c0 -100 -23.333 -175.833 -70 -227.5s-111.667 -77.5 -195 -77.5s-148.166 25.833 -194.499 77.5s-69.5 127.5 -69.5 227.5v98c0 100.667 23.167 176.667 69.5 228s111.166 77 194.499 77c84 0 149.167 -25.667 195.5 -77s69.5 -127.333 69.5 -228zM311 109
c83.333 0 125 62.333 125 187v2h-249v-2c0 -124.667 41.333 -187 124 -187zM311 581c-78 0 -119.333 -55 -124 -165h248c-4 110 -45.333 165 -124 165z" />
    <glyph glyph-name="uni04E9" unicode="&#x4e9;" horiz-adv-x="499" 
d="M465 281l-0.000976562 -59.999c0 -72.667 -18.167 -129.167 -54.5 -169.5s-90.166 -60.5 -161.499 -60.5c-70 0 -123.5 20.167 -160.5 60.5s-55.5 96.833 -55.5 169.5v60c0 74 18.5 130.5 55.5 169.5s90.5 58.5 160.5 58.5s123.5 -19.333 160.5 -58
s55.5 -95.334 55.5 -170.001zM336.999 201.001h-176c4.66699 -68 34 -102 88 -102s83.333 34 88 102zM248.999 401.001c-52 0 -81.333 -30.333 -88 -91h175c-6 60.667 -35 91 -87 91z" />
    <glyph glyph-name="uni04EE" unicode="&#x4ee;" horiz-adv-x="579" 
d="M311 346l123.999 344h144l-212 -550c-22.667 -58 -52 -97.333 -88 -118c-35.333 -20.667 -89 -31 -161 -31v122c38 0 65.833 3.5 83.5 10.5s31.834 20.5 42.501 40.5l-236 526h155zM463.999 744h-322v112h322v-112z" />
    <glyph glyph-name="uni04EF" unicode="&#x4ef;" horiz-adv-x="479" 
d="M192 -7l-187.002 507h134l111 -320l100 320h129l-175 -523c-23.333 -68 -49.666 -112.667 -78.999 -134c-30 -22 -80 -33 -150 -33v114c36.667 0 62.834 4.5 78.501 13.5s28.5 27.5 38.5 55.5zM387.998 573h-283v111h283v-111z" />
    <glyph glyph-name="uni1E9E" unicode="&#x1e9e;" horiz-adv-x="607" 
d="M541 642l-98.999 -178.999c35.333 -8 60.666 -22 75.999 -42s23 -48.333 23 -85v-196c0 -56.667 -11.333 -94.334 -34 -113.001c-22 -18 -60 -27 -114 -27h-91v118h50c18 0 30.667 4.33301 38 13s11 23 11 43v132c0 21.333 -3.5 36.5 -10.5 45.5s-19.833 13.5 -38.5 13.5
h-50v90l67 116c-19.333 6.66699 -40.333 10 -63 10c-34 0 -58.833 -7.83301 -74.5 -23.5s-23.5 -41.5 -23.5 -77.5v-480h-140v488c0 68 19.667 120.167 59 156.5s99 54.5 179 54.5c47.333 0 93 -6.33301 137 -19c47.333 -14 80 -26.667 98 -38z" />
    <glyph glyph-name="uni2010" unicode="&#x2010;" horiz-adv-x="319" 
d="M289 233h-259v112h259v-112z" />
    <glyph glyph-name="uni2011" unicode="&#x2011;" horiz-adv-x="319" 
d="M289 233h-259v112h259v-112z" />
    <glyph glyph-name="figuredash" unicode="&#x2012;" horiz-adv-x="540" 
d="M476 287h-412v124h412v-124z" />
    <glyph glyph-name="endash" unicode="&#x2013;" horiz-adv-x="509" 
d="M449 227h-389v124h389v-124z" />
    <glyph glyph-name="emdash" unicode="&#x2014;" horiz-adv-x="706" 
d="M686 227h-666v124h666v-124z" />
    <glyph glyph-name="quoteleft" unicode="&#x2018;" horiz-adv-x="243" 
d="M183 534h-137v162l137 117v-279z" />
    <glyph glyph-name="quoteright" unicode="&#x2019;" horiz-adv-x="249" 
d="M46 706h134v-165l-134 -114v279z" />
    <glyph glyph-name="quotesinglbase" unicode="&#x201a;" horiz-adv-x="256" 
d="M60 136h136v-162l-136 -117v279z" />
    <glyph glyph-name="quotedblleft" unicode="&#x201c;" horiz-adv-x="386" 
d="M156 534h-137v162l137 117v-279zM335 534h-136v162l136 117v-279z" />
    <glyph glyph-name="quotedblright" unicode="&#x201d;" horiz-adv-x="386" 
d="M19 706h137v-162l-137 -117v279zM199 706h136v-162l-136 -117v279z" />
    <glyph glyph-name="quotedblbase" unicode="&#x201e;" horiz-adv-x="427" 
d="M239 136h137v-162l-137 -117v279zM60 136h136v-162l-136 -117v279z" />
    <glyph glyph-name="dagger" unicode="&#x2020;" horiz-adv-x="580" 
d="M33 381v119h187v190h140v-190h186v-119h-186v-571h-140v571h-187z" />
    <glyph glyph-name="daggerdbl" unicode="&#x2021;" horiz-adv-x="580" 
d="M33 381v119h187v190h140v-190h186v-119h-186v-263h186v-118h-186v-190h-140v190h-187v118h187v263h-187z" />
    <glyph glyph-name="bullet" unicode="&#x2022;" horiz-adv-x="296" 
d="M67 259c-22.667 22.667 -34 50 -34 82s11.333 59.333 34 82s50 34 82 34s59.333 -11.333 82 -34s34 -50 34 -82s-11.333 -59.333 -34 -82s-50 -34 -82 -34s-59.333 11.333 -82 34z" />
    <glyph glyph-name="ellipsis" unicode="&#x2026;" horiz-adv-x="882" 
d="M60 156h156v-156h-156v156zM666 156h156v-156h-156v156zM363 156h156v-156h-156v156z" />
    <glyph glyph-name="perthousand" unicode="&#x2030;" horiz-adv-x="1112" 
d="M124 0l386 690h123l-385 -690h-124zM739 200l0.000976562 -59.001c0 -100 -50.333 -150 -151 -150c-48.667 0 -85.834 12.833 -111.501 38.5s-38.5 62.834 -38.5 111.501v59c0 48 13 84.667 39 110s63 38 111 38c100.667 0 151 -49.333 151 -148zM588.001 77.999
c32 0 48 21 48 63v56c0 42 -16 63 -48 63c-30.667 0 -46 -21 -46 -63v-56c0 -42 15.333 -63 46 -63zM323.001 550.999v-59.001c0 -100 -50.667 -150 -152 -150c-48.667 0 -85.667 12.833 -111 38.5s-38 62.834 -38 111.501v59c0 48 12.833 84.667 38.5 110s62.5 38 110.5 38
c101.333 0 152 -49.333 152 -148zM172.001 428.998c32 0 48 21 48 63v56c0 42 -16 63 -48 63c-30.667 0 -46 -21 -46 -63v-56c0 -42 15.333 -63 46 -63zM1077 199.998l0.000976562 -59.001c0 -100 -50.667 -150 -152 -150c-48.667 0 -85.834 12.833 -111.501 38.5
s-38.5 62.834 -38.5 111.501v59c0 48 13 84.667 39 110s63 38 111 38c101.333 0 152 -49.333 152 -148zM926.002 77.9971c31.333 0 47 21 47 63v56c0 42 -15.667 63 -47 63c-30.667 0 -46 -21 -46 -63v-56c0 -42 15.333 -63 46 -63z" />
    <glyph glyph-name="guilsinglleft" unicode="&#x2039;" horiz-adv-x="330" 
d="M262 52l-232 231l232 231v-143l-90 -88l90 -89v-142z" />
    <glyph glyph-name="guilsinglright" unicode="&#x203a;" horiz-adv-x="330" 
d="M58 371v143l232 -231l-232 -231v142l89 89z" />
    <glyph glyph-name="fraction" unicode="&#x2044;" horiz-adv-x="566" 
d="M10 0l475 690h127l-474 -690h-128z" />
    <glyph glyph-name="uni2074" unicode="&#x2074;" horiz-adv-x="349" 
d="M18 485l131 205h102l-123 -198h51v45h88v-45h39v-71h-39v-47h-88v47h-161v64z" />
    <glyph glyph-name="Euro" unicode="&#x20ac;" horiz-adv-x="540" 
d="M10 204l-0.00390625 112h68v51h-68v112h73c18.667 146.667 94.334 220 227.001 220c129.333 0 201.333 -74.333 216 -223h-134c-4 36 -12.333 62.5 -25 79.5s-31.667 25.5 -57 25.5c-26.667 0 -46.834 -7.66699 -60.501 -23s-22.834 -41.666 -27.501 -78.999h111v-112
h-115v-51h115v-112h-110c5.33301 -33.333 15 -57.5 29 -72.5s33.333 -22.5 58 -22.5s43.334 8.16699 56.001 24.5s21.334 43.166 26.001 80.499h133c-7.33301 -77.333 -28.166 -133.833 -62.499 -169.5s-85.166 -53.5 -152.499 -53.5c-129.333 0 -204.666 71 -225.999 213
h-74z" />
    <glyph glyph-name="uni20B4" unicode="&#x20b4;" horiz-adv-x="540" 
d="M52 219l-45 0.00195312v106h526v-106h-338c-4 -10 -6 -21 -6 -33c0 -23.333 8.16699 -42 24.5 -56s40.166 -21 71.499 -21c24.667 0 45.334 5.16699 62.001 15.5s35.334 28.166 56.001 53.499l106 -74c-34 -42.667 -67.667 -72 -101 -88
c-33.333 -16.667 -78 -25 -134 -25c-70.667 0 -125.834 18 -165.501 54s-59.5 82.667 -59.5 140c0 11.333 1 22.666 3 33.999zM533 366.002l-526.001 0.000976562v106h336c5.33301 12 8 23 8 33c0 24 -7.16699 42.667 -21.5 56s-35.166 20 -62.499 20
c-22.667 0 -42 -5.33301 -58 -16s-32.333 -28.334 -49 -53.001l-104 74c50 75.333 120.667 113 212 113c71.333 0 126.5 -17 165.5 -51s58.167 -79 57.5 -135c0 -15.333 -2 -29 -6 -41h48v-106z" />
    <glyph glyph-name="uni20B8" unicode="&#x20b8;" horiz-adv-x="540" 
d="M14 405v119h513v-119h-187v-405h-140v405h-186zM14 571v119h513v-119h-513z" />
    <glyph glyph-name="uni20BD" unicode="&#x20bd;" horiz-adv-x="540" 
d="M93 243h-83.999v118h84v329h192c82 0 145.5 -18.833 190.5 -56.5s67.5 -92.5 67.5 -164.5c0 -71.333 -22.833 -126.833 -68.5 -166.5s-108.834 -59.5 -189.501 -59.5h-52v-39h115v-118h-115v-86h-140v86h-84v118h84v39zM233.001 571v-209.999h32c48 0 83 8.66699 105 26
s33 44.666 33 81.999c0 68 -46 102 -138 102h-32z" />
    <glyph glyph-name="afii61352" unicode="&#x2116;" horiz-adv-x="946" 
d="M927 537l-0.00292969 -47c0 -50.667 -13.167 -90.5 -39.5 -119.5s-64.166 -43.5 -113.499 -43.5c-48 0 -85.5 14.5 -112.5 43.5s-40.5 68.833 -40.5 119.5v47c0 51.333 13.333 91.166 40 119.499s64.334 42.5 113.001 42.5s86.334 -14.167 113.001 -42.5
s40 -68.166 40 -119.499zM903.997 166h-259v119h259v-119zM773.997 426c30 0 45 22.667 45 68v39c0 44.667 -15 67 -45 67c-30.667 0 -46 -22.333 -46 -67v-39c0 -45.333 15.333 -68 46 -68zM443.997 257v433h133v-690h-117l-269 427v-427h-133v690h116z" />
    <glyph glyph-name="trademark" unicode="&#x2122;" horiz-adv-x="910" 
d="M406 690h105l123 -215l123 215h106v-417h-112v195l-77 -131h-85l-72 131v-195h-111v417zM24 590v100h351v-100h-119v-317h-112v317h-120z" />
    <glyph glyph-name="uni2190" unicode="&#x2190;" horiz-adv-x="875" 
d="M209 222l314 -314h-110l-353 353l353 353h110l-314 -314h606v-78h-606z" />
    <glyph glyph-name="uni2191" unicode="&#x2191;" horiz-adv-x="826" 
d="M413 639l353 -353v-110l-314 314v-606h-78v606l-314 -314v110z" />
    <glyph glyph-name="uni2192" unicode="&#x2192;" horiz-adv-x="875" 
d="M815 261l-353 -353h-110l314 314h-606v78h606l-314 314h110z" />
    <glyph glyph-name="uni2193" unicode="&#x2193;" horiz-adv-x="826" 
d="M413 -117l-353 353v110l314 -314v606h78v-606l314 314v-110z" />
    <glyph glyph-name="uni2196" unicode="&#x2196;" horiz-adv-x="698" 
d="M137 367v-445l-77 78v500h500l78 -77h-445l428 -429l-55 -55z" />
    <glyph glyph-name="uni2197" unicode="&#x2197;" horiz-adv-x="698" 
d="M638 500v-500l-77 -78v445l-429 -428l-55 55l428 429h-445l78 77h500z" />
    <glyph glyph-name="uni2198" unicode="&#x2198;" horiz-adv-x="698" 
d="M561 133v445l77 -78v-500h-500l-78 77h445l-428 429l55 55z" />
    <glyph glyph-name="uni2199" unicode="&#x2199;" horiz-adv-x="698" 
d="M60 0v500l77 78v-445l429 428l55 -55l-428 -429h445l-78 -77h-500z" />
    <glyph glyph-name="uni21A3" unicode="&#x21a3;" horiz-adv-x="1375" 
d="M203 405l61 59l124 -124h768l-64 65l60 59l183 -183l-183 -183l-60 59l64 65h-768l-124 -124l-61 59l124 124zM40 405l60 59l183 -183l-183 -183l-60 59l124 124z" />
    <glyph glyph-name="partialdiff" unicode="&#x2202;" horiz-adv-x="503" 
d="M465 460l-0.00292969 -238.999c0 -72.667 -18.167 -129.167 -54.5 -169.5s-90.166 -60.5 -161.499 -60.5c-70 0 -123.5 20.167 -160.5 60.5s-55.5 96.833 -55.5 169.5v60c0 73.333 18.167 129.666 54.5 168.999s87.5 59 153.5 59c38 0 70.333 -8 97 -24
c-3.33301 71.333 -36.666 107 -99.999 107c-33.333 0 -68.666 -11.667 -105.999 -35l-58 79c45.333 42 104.333 63 177 63c142.667 0 214 -79.667 214 -239zM248.997 99.001c59.333 0 89 42 89 126v52c0 82.667 -29.667 124 -89 124s-89 -41.333 -89 -124v-52
c0 -42 6.83301 -73.5 20.5 -94.5s36.5 -31.5 68.5 -31.5z" />
    <glyph glyph-name="product" unicode="&#x220f;" horiz-adv-x="638" 
d="M58 -190v880h522v-880h-140v761h-242v-761h-140z" />
    <glyph glyph-name="summation" unicode="&#x2211;" horiz-adv-x="519" 
d="M30 690h469v-118h-291l176 -268v-110l-176 -266h291v-118h-469v103l225 337l-225 337v103z" />
    <glyph glyph-name="minus" unicode="&#x2212;" horiz-adv-x="506" 
d="M447 298h-389v112h389v-112z" />
    <glyph glyph-name="uni2215" unicode="&#x2215;" horiz-adv-x="485" 
d="M498 812l-336 -928h-115l336 928h115z" />
    <glyph glyph-name="radical" unicode="&#x221a;" horiz-adv-x="697" 
d="M7 381v119h214l126 -302l106 492h298v-119h-184l-142 -571h-132l-177 381h-109z" />
    <glyph glyph-name="infinity" unicode="&#x221e;" horiz-adv-x="802" 
d="M400 266c-60 -71.333 -123.668 -107 -191.001 -107c-51.333 0 -93.666 17.667 -126.999 53c-32.667 34.667 -49 78 -49 130c0 51.333 16.667 94.666 50 129.999s76.666 53 129.999 53c70.667 0 135 -35 193 -105c30.667 36 60.334 62.5 89.001 79.5s61 25.5 97 25.5
c50.667 0 92.667 -17.667 126 -53s50 -78.666 50 -129.999c0 -52 -16.333 -95.333 -49 -130c-32 -35.333 -72.333 -53 -121 -53c-72 0 -138 35.667 -198 107zM587.999 272c20 0 36.501 6.66699 49.501 20s19.5 30 19.5 50s-7 36.333 -21 49s-31.333 19 -52 19
c-13.333 0 -26.333 -3.33301 -39 -10c-18 -9.33301 -40 -28.333 -66 -57c43.333 -47.333 79.666 -71 108.999 -71zM216 272c19.333 0 37.166 5.5 53.499 16.5s35.833 28.833 58.5 53.5c-41.333 45.333 -78.666 68 -111.999 68c-20 0 -36.833 -6.33301 -50.5 -19
s-20.5 -29 -20.5 -49s6.83301 -36.667 20.5 -50s30.5 -20 50.5 -20z" />
    <glyph glyph-name="integral" unicode="&#x222b;" horiz-adv-x="309" 
d="M213 507v-534c0 -62.667 -13.333 -105.334 -40 -128.001c-27.333 -23.333 -72 -35 -134 -35h-37v114h24c22 0 37 4.83301 45 14.5s12 27.5 12 53.5v535c0 62.667 13.333 105.334 40 128.001c27.333 23.333 72 35 134 35h37v-114h-23c-22 0 -37.167 -5 -45.5 -15
s-12.5 -28 -12.5 -54z" />
    <glyph glyph-name="approxequal" unicode="&#x2248;" horiz-adv-x="500" 
d="M416 485l44.999 -93c-33.333 -35.333 -71 -53 -113 -53c-24 0 -58 8.66699 -102 26c-42 18 -72.333 27 -91 27c-22 0 -45.333 -9.66699 -70 -29l-46 95c35.333 35.333 73 53 113 53c24 0 58 -9 102 -27c44.667 -17.333 76.334 -26 95.001 -26c22.667 0 45 9 67 27z
M415.999 311l45 -92c-33.333 -35.333 -71 -53 -113 -53c-24 0 -58 8.66699 -102 26c-42 18 -72.333 27 -91 27c-22 0 -45.333 -9.66699 -70 -29l-46 95c35.333 35.333 73 53 113 53c24 0 58 -9 102 -27c44.667 -17.333 76.334 -26 95.001 -26
c23.333 0 45.666 8.66699 66.999 26z" />
    <glyph glyph-name="notequal" unicode="&#x2260;" horiz-adv-x="500" 
d="M209 359h-154v120h206l68 156l100 -40l-51 -116h66v-120h-118l-25 -58h143v-119h-195l-64 -148l-100 40l47 108h-77v119h129z" />
    <glyph glyph-name="lessequal" unicode="&#x2264;" horiz-adv-x="385" 
d="M315 170l-232 231l232 231v-143l-90 -88l90 -89v-142zM315 -36l-232 231v141l232 -229v-143z" />
    <glyph glyph-name="greaterequal" unicode="&#x2265;" horiz-adv-x="385" 
d="M83 489v143l232 -231l-232 -231v142l89 89zM83 107l232 229v-141l-232 -231v143z" />
    <glyph glyph-name="uni231A" unicode="&#x231a;" horiz-adv-x="666" 
d="M446 -205h-260.999v235c-38.667 22.667 -69.167 53.667 -91.5 93s-33.5 81.666 -33.5 126.999s11.167 87.5 33.5 126.5s52.833 69.833 91.5 92.5v235h261v-234c32.667 -20 59.667 -45.667 81 -77s35 -65.666 41 -102.999h38v-80h-38
c-12.667 -78.667 -53.334 -138.667 -122.001 -180v-235zM167.001 398c-41.333 -41.333 -62 -90.666 -62 -147.999c0 -58 20.667 -107.667 62 -149s91 -62 149 -62c57.333 0 106.666 20.667 147.999 62s62 91 62 149c0 57.333 -20.667 106.666 -62 147.999
s-90.666 62 -147.999 62c-58 0 -107.667 -20.667 -149 -62zM488.001 337l-6 -19l-166 -93l-133 75l-6 20l20 5l119 -70l153 87z" />
    <glyph glyph-name="uni23F2" unicode="&#x23f2;" horiz-adv-x="1072" 
d="M199 5c-92.667 92.667 -138.999 204.999 -138.999 336.999c0 131.333 46.333 243.333 139 336c93.333 93.333 205.666 140 336.999 140c130.667 0 242.667 -46.667 336 -140s140 -205.333 140 -336c0 -131.333 -46.667 -243.666 -140 -336.999
c-92.667 -92.667 -204.667 -139 -336 -139c-132 0 -244.333 46.333 -337 139zM237.001 639.999c-82 -82 -123 -181.333 -123 -298c0 -116 41 -215.667 123 -299c82.667 -82 182.334 -123 299.001 -123s216 41 298 123c82 83.333 123 183 123 299c0 116.667 -41 216 -123 298
s-181.333 123 -298 123s-216.334 -41 -299.001 -123zM881.001 543.999l-10 -36l-335 -192l-248 142l-10 35l36 10l222 -129l309 179zM802.001 317.999v46h126v-46h-126zM559.001 -50.001h-46v126h46v-126zM145.001 317.999v46h126v-46h-126zM559.001 606.999h-46v126h46
v-126z" />
    <glyph glyph-name="uni2550" unicode="&#x2550;" horiz-adv-x="2158" 
d="M0 417h2158v-119h-2158v119zM0 255h2158v-119h-2158v119z" />
    <glyph glyph-name="lozenge" unicode="&#x25ca;" horiz-adv-x="564" 
d="M23 296l192 291h136l190 -291l-190 -296h-136zM393 296l-111 180l-112 -180l112 -186z" />
    <glyph glyph-name="uni261D" unicode="&#x261d;" horiz-adv-x="705" 
d="M645 249l0.00292969 -276.997h-370l-215 292c5.33301 5.33301 15 11.666 29 18.999c41.333 20 79.666 11.667 114.999 -25l71 -74v450c0 40.667 16.667 61 50 61s50 -19.333 50 -58v-229h36c19.333 0 33.166 -4.33301 41.499 -13s12.5 -22.334 12.5 -41.001h36
c19.333 0 33.166 -4.33301 41.499 -13s12.5 -22.334 12.5 -41.001h34c20 0 34.333 -4 43 -12s13 -21 13 -39zM645.003 -242.997h-370v161h370v-161zM584.003 -141.997c-7.33301 7.33301 -15.999 9.16797 -25.999 5.50098s-16.5 -9.83398 -19.5 -18.501
s-0.833008 -17.667 6.5 -27c8 -8 17 -10.167 27 -6.5s16.167 10.167 18.5 19.5s0.166016 18.333 -6.50098 27z" />
    <glyph glyph-name="uni261E" unicode="&#x261e;" horiz-adv-x="1061" 
d="M555 51l-276.999 -0.00195312v370l292 215c6 -6 12.333 -16 19 -30c20.667 -41.333 12.334 -79.333 -24.999 -114l-74 -71h450c40.667 0 61 -16.667 61 -50s-19.333 -50 -58 -50h-229v-36c0 -19.333 -4.33301 -33.166 -13 -41.499s-22.334 -12.5 -41.001 -12.5v-36
c0 -19.333 -4.33301 -33.166 -13 -41.499s-22.334 -12.5 -41.001 -12.5v-34c0 -20 -4 -34.333 -12 -43s-21 -13 -39 -13zM60.001 50.998v370h164v-370h-164zM161.001 110.998c8 8 10.333 17.166 7 27.499s-9.5 16.833 -18.5 19.5s-18.167 0.333984 -27.5 -6.99902
c-8 -8 -10.167 -17 -6.5 -27s10.167 -16.167 19.5 -18.5s18 -0.5 26 5.5z" />
    <glyph glyph-name="uni26F3" unicode="&#x26f3;" horiz-adv-x="674" 
d="M60 513c0 76.667 27 142.001 81 196.001s119.333 81 196 81s142 -27 196 -81s81 -119.333 81 -196c0 -57.333 -27.333 -129.333 -82 -216l-195 -307l-197 309c-53.333 85.333 -80 156.666 -80 213.999zM258 591.001c-21.333 -21.333 -32 -47.333 -32 -78
s10.667 -56.667 32 -78c22.667 -21.333 49 -32 79 -32c30.667 0 56.667 10.667 78 32s32 47.333 32 78s-10.667 56.667 -32 78s-47.333 32 -78 32c-30 0 -56.333 -10.667 -79 -32z" />
    <glyph glyph-name="uni2709" unicode="&#x2709;" horiz-adv-x="1236" 
d="M60 518v60h1116v-60l-558 -334zM60 37v444l338 -201zM810 263l366 -263h-1116l366 263l192 -114zM1176 37l-338 243l338 201v-444z" />
    <glyph glyph-name="uniF040" unicode="&#xf040;" horiz-adv-x="3054" 
d="M1576 409l61 60l129 -129h1288v-118h-1286l-131 -131l-61 59l130 130zM1286 222h-1286v118h1288l129 129l61 -60l-130 -129l130 -130l-61 -59z" />
    <glyph glyph-name="uniF041" unicode="&#xf041;" horiz-adv-x="2855" 
d="M1403 168l156 272l80 -46l-31 -54h1247v-118h-1316l-57 -99zM1315 340l58 100l79 -46l-156 -271l-80 45l31 54h-1247v118h1315z" />
    <glyph glyph-name="uniF042" unicode="&#xf042;" horiz-adv-x="2825" 
d="M2825 222h-1388v118h1388v-118zM0 340h1268v-118h-1268v118z" />
    <glyph glyph-name="uniF043" unicode="&#xf043;" horiz-adv-x="705" 
d="M275 -28l-214.998 292.002l8 6c8.66699 8 19.167 14.333 31.5 19s28.5 5.16699 48.5 1.5s38.667 -14.5 56 -32.5l71 -74v450c0 40.667 16.667 61 50 61s50 -19.333 50 -58v-229h36c19.333 0 33.166 -4.33301 41.499 -13s12.5 -22.334 12.5 -41.001h36
c19.333 0 33.166 -4.33301 41.499 -13s12.5 -22.334 12.5 -41.001h34c20 0 34.333 -4 43 -12s13 -21 13 -39v-277h-370zM275.002 -81.998h370v-161h-370v161zM545.002 -141.998c-8 -8 -10.167 -17.168 -6.5 -27.501s10.167 -16.833 19.5 -19.5s18 -0.333984 26 6.99902
c12.667 12.667 12.667 25.334 0 38.001s-25.667 13.334 -39 2.00098zM83.002 605.001v55h158v-55h-158zM409.002 605.001v55h158v-55h-158zM352.002 725.001h-55v158h55v-158z" />
    <glyph glyph-name="uniF044" unicode="&#xf044;" horiz-adv-x="931" 
d="M177 126l3.00098 10.0039c6 19.333 18.833 36.666 38.5 51.999s46.834 19.666 81.501 12.999l201 -45v478c0 40.667 16.667 61 50 61s50 -19.333 50 -58v-229h36c19.333 0 33.166 -4.33301 41.499 -13s12.5 -22.334 12.5 -41.001h36c19.333 0 33.166 -4.33301 41.499 -13
s12.5 -22.334 12.5 -41.001h34c20 0 34.333 -4 43 -12s13 -21 13 -39v-277h-370zM501.001 -81.9961h370v-161h-370v161zM553.001 759.004v55h158v-158h-55v103h-103zM218.001 70.0039v-55h-158v158h55v-103h103zM771.001 -141.996c-8 -8 -10.167 -17.168 -6.5 -27.501
s10.167 -16.833 19.5 -19.5s18 -0.333984 26 6.99902c12.667 12.667 12.667 25.334 0 38.001s-25.667 13.334 -39 2.00098z" />
    <glyph glyph-name="uniF045" unicode="&#xf045;" horiz-adv-x="903" 
d="M370 665l503.003 0.00292969v-55h-498v-202h36c19.333 0 33.166 -4.33301 41.499 -13s12.5 -22.334 12.5 -41.001h36c19.333 0 33.166 -4.33301 41.499 -13s12.5 -22.334 12.5 -41.001h34c20 0 34.333 -4 43 -12s13 -21 13 -39v-277h-370l-215 292
c5.33301 5.33301 15 11.666 29 18.999c41.333 20 79.666 11.667 114.999 -25l71 -74v450c0 40.667 16.667 61 50 61c23.333 0 38.333 -10 45 -30zM645.003 -242.997h-370v161h370v-161zM199.003 525.003l-112 112l112 112l39 -39l-73 -73l73 -73zM584.003 -141.997
c-7.33301 7.33301 -15.999 9.16797 -25.999 5.50098s-16.5 -9.83398 -19.5 -18.501s-0.833008 -17.667 6.5 -27c8 -8 17 -10.167 27 -6.5s16.167 10.167 18.5 19.5s0.166016 18.333 -6.50098 27z" />
    <glyph glyph-name="uniF046" unicode="&#xf046;" horiz-adv-x="952" 
d="M892 249l0.000976562 -276.999h-370l-215 292c5.33301 5.33301 15 11.666 29 18.999c41.333 20 79.666 11.667 114.999 -25l71 -74v426h-492v55h497c7.33301 20 22.333 30 45 30c33.333 0 50 -19.333 50 -58v-229h36c36 0 54 -18 54 -54h36c36 0 54 -18 54 -54h34
c20 0 34.333 -4 43 -12s13 -21 13 -39zM892.001 -242.999h-370v161h370v-161zM704.001 749.001l112 -112l-112 -112l-39 39l73 73l-73 73zM831.001 -141.999c-7.33301 7.33301 -15.999 9.16797 -25.999 5.50098s-16.5 -9.83398 -19.5 -18.501s-0.833008 -17.667 6.5 -27
c8 -8 17 -10.167 27 -6.5s16.167 10.167 18.5 19.5s0.166016 18.333 -6.50098 27z" />
    <glyph glyph-name="uniF047" unicode="&#xf047;" horiz-adv-x="1010" 
d="M872 514l-6 -3.99609v-634h-55v603l-137 -79l17 -31c18 -32 11.667 -56.333 -19 -73l18 -32c18 -30.667 11.333 -55 -20 -73l17 -30c19.333 -32 13.666 -56.667 -17.001 -74l-239 -139l-185 321l145 332l5 -2c3.33301 -1.33301 7.83301 -3.33301 13.5 -6
s11.334 -6.33398 17.001 -11.001s11.5 -10.334 17.5 -17.001s10.667 -14.334 14 -23.001s5.33301 -18.834 6 -30.501s-1.33301 -24.5 -6 -38.5l-29 -99l391 226c35.333 19.333 61.333 15 78 -13c16.667 -28.667 8 -53 -26 -73zM245 -158.996l-185 321l140 81l184 -321z
M765 651.004l-39 39l112 112l112 -112l-39 -39l-73 73zM295 -26.9961c-7.33301 7.33301 -15.999 9.16797 -25.999 5.50098s-16.5 -9.83398 -19.5 -18.501s-0.833008 -17.667 6.5 -27c8 -8 17 -10.167 27 -6.5s16.167 10.167 18.5 19.5s0.166016 18.333 -6.50098 27z" />
    <glyph glyph-name="uniF048" unicode="&#xf048;" horiz-adv-x="1145" 
d="M485 0l-240 137l186 321l360 40c2 -11.333 2.33301 -23 1 -35c-2.66699 -46 -28.667 -75 -78 -87l-100 -24l332 -192v603h55v-635l4 -2c34 -20 43 -44.667 27 -74c-16.667 -28.667 -42 -33.334 -76 -14.001l-198 115l-18 -30c-18.667 -32 -43 -39 -73 -21l-18 -31
c-18 -30.667 -42.667 -37 -74 -19l-17 -30c-18.667 -31.333 -43 -38.666 -73 -21.999zM60 245l185 320l140 -80l-186 -320zM1085 -51l-112 -112l-112 112l39 39l73 -73l73 73zM191 293c-7.33301 8 -15.999 10.333 -25.999 7s-16.5 -9.5 -19.5 -18.5
s-0.833008 -18.167 6.5 -27.5c8 -8 17.167 -10.167 27.5 -6.5s16.666 10.167 18.999 19.5s-0.166992 18 -7.5 26z" />
    <glyph glyph-name="uniF400" unicode="&#xf400;" horiz-adv-x="0" 
d="M-192 567h-122l70 158h143z" />
    <glyph glyph-name="uniF401" unicode="&#xf401;" horiz-adv-x="0" 
d="M-254 742h-124l80 129h147z" />
    <glyph glyph-name="uniF406" unicode="&#xf406;" horiz-adv-x="519" 
d="M338 879h112c0 -47.333 -17.5 -84.5 -52.5 -111.5s-81.167 -40.5 -138.5 -40.5s-103.5 13.5 -138.5 40.5s-52.5 64.167 -52.5 111.5h111c7.33301 -36 34 -54 80 -54s72.333 18 79 54z" />
    <glyph glyph-name="uniF407" unicode="&#xf407;" horiz-adv-x="410" 
d="M145 -72l20 97l81 -3l-12 -44c35.333 -13.333 53 -37.333 53 -72c0 -26 -10.833 -46.833 -32.5 -62.5s-50.5 -23.5 -86.5 -23.5c-20.667 0 -36 1.33301 -46 4l15 65c10.667 -1.33301 17 -2 19 -2c22 0 33 7 33 21c0 13.333 -14.667 20 -44 20z" />
    <glyph glyph-name="uniF408" unicode="&#xf408;" horiz-adv-x="519" 
d="M69 737l138 142h105l138 -142h-133l-58 61l-57 -61h-133z" />
    <glyph glyph-name="uniF409" unicode="&#xf409;" horiz-adv-x="397" 
d="M130 -51h137v-129l-137 -117v246z" />
    <glyph glyph-name="uniF40A" unicode="&#xf40a;" horiz-adv-x="205" 
d="M57 690h136v-150l-136 -116v266z" />
    <glyph glyph-name="uniF40B" unicode="&#xf40b;" horiz-adv-x="399" 
d="M270 759h-141v110h141v-110z" />
    <glyph glyph-name="uniF40C" unicode="&#xf40c;" horiz-adv-x="445" 
d="M106 800c0 30 10.667 54 32 72s49 27 83 27c34.667 0 62.834 -9 84.501 -27s32.5 -42 32.5 -72c0 -29.333 -10.833 -53 -32.5 -71s-49.834 -27 -84.501 -27c-34 0 -61.667 9 -83 27s-32 41.667 -32 71zM221 769c24.667 0 37 10.333 37 31s-12.333 31 -37 31
c-24 0 -36 -10.333 -36 -31s12 -31 36 -31z" />
    <glyph glyph-name="uniF40D" unicode="&#xf40d;" horiz-adv-x="504" 
d="M313 738c-17.333 0 -39.002 4.66699 -65.002 14c-24.667 10 -42.334 15 -53.001 15c-19.333 0 -36.666 -8.66699 -51.999 -26l-68 69c32.667 40 72 60 118 60c16.667 0 37.334 -5 62.001 -15c26 -9.33301 44.333 -14 55 -14c18.667 0 35.334 9 50.001 27l68 -69
c-32.667 -40.667 -71 -61 -115 -61z" />
    <glyph glyph-name="uniF40E" unicode="&#xf40e;" horiz-adv-x="413" 
d="M235 48l34.002 -48.001c-16.667 -14.667 -27.834 -25.667 -33.501 -33s-9.5 -16.666 -11.5 -27.999c0 -14.667 9 -22 27 -22c3.33301 0 9.66602 0.666992 18.999 2l15 -65c-10 -2.66699 -26 -4 -48 -4c-32 0 -58.333 6.5 -79 19.5s-31 31.833 -31 56.5
c0 45.333 36 86 108 122z" />
    <glyph glyph-name="dollar.fitted" unicode="&#xf5f5;" horiz-adv-x="575" 
d="M532 586l-104.999 -74.998c-22.667 34.667 -50.334 56 -83.001 64v-175c69.333 -18.667 119.166 -43.834 149.499 -75.501s45.5 -75.834 45.5 -132.501c0 -53.333 -16.167 -97.666 -48.5 -132.999s-78.5 -57 -138.5 -65v-110h-116v111
c-87.333 10 -154.333 46.333 -201 109l107 74c26.667 -34.667 60.334 -56.334 101.001 -65.001v181c-64 18.667 -111.5 45 -142.5 79s-46.5 78 -46.5 132c0 51.333 15.5 93.833 46.5 127.5s76.167 54.5 135.5 62.5v117h116v-118c81.333 -12 141.333 -48 180 -108z
M399.001 186.002c0 33.333 -18.333 58.332 -55 74.999v-146c36.667 10.667 55 34.334 55 71.001zM194.001 505.001c0 -31.333 16.333 -55.332 49 -71.999v140c-32.667 -10.667 -49 -33.334 -49 -68.001z" />
    <glyph glyph-name="Euro.fitted" unicode="&#xf5f6;" horiz-adv-x="639" 
d="M8 204l0.000976562 111.998h84v51h-84v112h90c12 72.667 40.333 127.5 85 164.5s102.334 55.5 173.001 55.5s127.667 -18.833 171 -56.5s70.666 -93.167 81.999 -166.5h-134c-14 70 -53.667 105 -119 105c-62.667 0 -101.334 -34 -116.001 -102h148v-112h-156v-51h156
v-112h-146c17.333 -63.333 55.333 -95 114 -95c34 0 60.333 8.33301 79 25s32 43.334 40 80.001h133c-22 -148.667 -106 -223 -252 -223c-69.333 0 -126 17.833 -170 53.5s-72.667 88.834 -86 159.501h-92z" />
    <glyph glyph-name="cent.fitted" unicode="&#xf5f7;" horiz-adv-x="446" 
d="M343 145l94.999 -66.0049c-26 -45.333 -68 -72.666 -126 -81.999v-113h-114v115c-52 10.667 -92.5 35.334 -121.5 74.001s-43.5 87.334 -43.5 146.001v64c0 124.667 55 197.334 165 218.001v121h114v-120c57.333 -11.333 99.333 -37.666 126 -78.999l-96 -67
c-20 28 -47.333 42 -82 42c-66.667 0 -100 -41.333 -100 -124v-46c0 -42 7.5 -73.5 22.5 -94.5s40.833 -31.5 77.5 -31.5c38.667 0 66.334 14.333 83.001 43z" />
    <glyph glyph-name="sterling.fitted" unicode="&#xf5f8;" horiz-adv-x="536" 
d="M497 0h-472.002v118h73v159h-73v119h73v31c0 181.333 73 272 219 272c90.667 0 158.334 -34.333 203.001 -103l-115 -65c-25.333 33.333 -52.666 50 -81.999 50c-28.667 0 -50 -12 -64 -36s-21 -63.333 -21 -118v-31h131v-119h-131v-159h259v-118z" />
    <glyph glyph-name="yen.fitted" unicode="&#xf5f9;" horiz-adv-x="596" 
d="M85 119v112h143v51h-143v112h84l-156 296h162l123 -257l124 257h161l-156 -296h85v-112h-144v-51h144v-112h-144v-119h-140v119h-143z" />
    <glyph glyph-name="florin.fitted" unicode="&#xf5fa;" horiz-adv-x="324" 
d="M24 381l-0.000976562 119h64v27c0 60.667 13.833 103 41.5 127s73.834 36 138.501 36h37v-119h-21c-22 0 -37.333 -5 -46 -15s-13 -27 -13 -51v-5h80v-119h-80v-408c0 -60 -16 -102.167 -48 -126.5s-84 -36.5 -156 -36.5v119c24.667 0 42 5.33301 52 16s15 28.667 15 54
v382h-64z" />
    <glyph glyph-name="uni20B4.fitted" unicode="&#xf5fb;" horiz-adv-x="596" 
d="M80 219l-45 0.000976562v106h526v-106h-338c-4 -10 -6 -21 -6 -33c0 -23.333 8 -42 24 -56s40 -21 72 -21c24 0 44.5 5 61.5 15s35.833 28 56.5 54l106 -74c-34 -42.667 -67.667 -72 -101 -88c-33.333 -16.667 -78.333 -25 -135 -25c-70 0 -124.833 18 -164.5 54
s-59.5 82.667 -59.5 140c0 11.333 1 22.666 3 33.999zM561 366.001l-525.998 0.000976562v106h336c5.33301 12 8 23 8 33c0 24 -7.33301 42.667 -22 56s-35.334 20 -62.001 20c-22.667 0 -42 -5.33301 -58 -16s-32.333 -28.334 -49 -53.001l-104 74
c49.333 75.333 119.666 113 210.999 113c71.333 0 126.5 -17 165.5 -51s58.5 -79 58.5 -135c0 -15.333 -2 -29 -6 -41h48v-106z" />
    <glyph glyph-name="uni20BD.fitted" unicode="&#xf5fc;" horiz-adv-x="540" 
d="M93 243h-83.999v118h84v329h192c82 0 145.5 -18.833 190.5 -56.5s67.5 -92.5 67.5 -164.5c0 -71.333 -22.833 -126.833 -68.5 -166.5s-108.834 -59.5 -189.501 -59.5h-52v-39h115v-118h-115v-86h-140v86h-84v118h84v39zM233.001 571v-209.999h32c48 0 83 8.66699 105 26
s33 44.666 33 81.999c0 68 -46 102 -138 102h-32z" />
    <glyph glyph-name="uni20B8.fitted" unicode="&#xf5fd;" horiz-adv-x="536" 
d="M8 405v119h520v-119h-190v-405h-140v405h-190zM8 571v119h520v-119h-520z" />
    <glyph glyph-name="currency.fitted" unicode="&#xf5fe;" horiz-adv-x="578" 
d="M90 366c0 32.667 7.33301 63.332 22 91.999l-79 79l84 84l77 -78c30 16 61.667 24 95 24s64.666 -7.66699 93.999 -23l78 78l84 -84l-78 -78c15.333 -29.333 23 -60.666 23 -93.999c0 -32.667 -8 -64 -24 -94l79 -78l-84 -84l-79 78c-28.667 -14.667 -59.667 -22 -93 -22
s-64.666 7.66699 -93.999 23l-78 -78l-84 84l79 79c-14.667 27.333 -22 58 -22 92zM289 270.998c26.667 0 48.833 9.16699 66.5 27.5s26.5 40.833 26.5 67.5s-9 49.334 -27 68.001s-40 28 -66 28s-47.833 -9.33301 -65.5 -28s-26.5 -41.334 -26.5 -68.001
s8.83301 -49.167 26.5 -67.5s39.5 -27.5 65.5 -27.5z" />
    <glyph glyph-name="uniF639" unicode="&#xf639;" horiz-adv-x="570" 
d="M517 480v-269.001c0 -72.667 -22 -127.667 -66 -165c-42.667 -36.667 -98 -55 -166 -55s-123.667 18.333 -167 55c-43.333 37.333 -65 92.333 -65 165v268c0 76 21.667 131.667 65 167s99 53 167 53s123.667 -17.667 167 -53s65 -90.666 65 -165.999zM377 222.999v244
c0 76 -30.667 114 -92 114c-62 0 -93 -38 -93 -114v-244c0 -76 31 -114 93 -114c61.333 0 92 38 92 114z" />
    <glyph glyph-name="uniF63A" unicode="&#xf63a;" horiz-adv-x="515" 
d="M224 118h237.999v-118h-426v90l231 272c42.667 48.667 64 94.334 64 137.001c0 26 -8.16699 46.5 -24.5 61.5s-36.833 22.5 -61.5 22.5c-24 0 -43.833 -7.5 -59.5 -22.5s-24.5 -35.5 -26.5 -61.5h-124c0 59.333 21 107.333 63 144c42.667 37.333 94 56 154 56
c62.667 0 114.334 -19.333 155.001 -58c42 -38 63 -85.333 63 -142c0 -29.333 -6.33301 -58 -19 -86c-14 -30.667 -26.333 -53.334 -37 -68.001c-10.667 -15.333 -26.667 -35.333 -48 -60z" />
    <glyph glyph-name="uniF63B" unicode="&#xf63b;" horiz-adv-x="513" 
d="M234 297l-51 -0.000976562v118h51c30 0 53.5 7.66699 70.5 23s25.5 37 25.5 65c0 23.333 -8 42.5 -24 57.5s-36.667 22.5 -62 22.5c-23.333 0 -42.666 -6.66699 -57.999 -20s-24.666 -31.333 -27.999 -54h-124c3.33301 56.667 25 102.334 65 137.001
c41.333 35.333 92 53 152 53c62 0 113.667 -18.667 155 -56c42 -36.667 63 -81.334 63 -134.001c0 -66.667 -31.333 -117 -94 -151c69.333 -34 104 -89 104 -165c0 -57.333 -19.667 -105.666 -59 -144.999c-38.667 -38 -92.334 -57 -161.001 -57
c-70.667 0 -126.667 17.667 -168 53s-63.333 82.333 -66 141h123c8.66699 -50.667 42.667 -76 102 -76c27.333 0 49.166 8.5 65.499 25.5s24.5 38.833 24.5 65.5c0 64.667 -35.333 97 -106 97z" />
    <glyph glyph-name="uniF63C" unicode="&#xf63c;" horiz-adv-x="545" 
d="M13 195l236 495h153l-215 -473h132v176h140v-176h63v-119h-63v-98h-140v98h-306v97z" />
    <glyph glyph-name="uniF63D" unicode="&#xf63d;" horiz-adv-x="526" 
d="M266 355c-32 0 -56.333 -16.999 -73 -50.999h-126v386h393v-127h-256v-118c25.333 24 59.333 36 102 36c55.333 0 99.166 -21.333 131.499 -64s48.5 -103.334 48.5 -182.001c0 -162.667 -72 -244 -216 -244c-61.333 0 -112.666 16.333 -153.999 49
c-42 33.333 -65.333 79.333 -70 138h138c10.667 -46 38 -69 82 -69c53.333 0 80 39.667 80 119c0 84.667 -26.667 127 -80 127z" />
    <glyph glyph-name="uniF63E" unicode="&#xf63e;" horiz-adv-x="531" 
d="M235 690l150.001 -0.00195312l-144 -284c17.333 8.66699 39.666 13 66.999 13c53.333 0 98 -19.667 134 -59c36.667 -38.667 55 -87.667 55 -147c0 -71.333 -21 -126.166 -63 -164.499s-98 -57.5 -168 -57.5c-68.667 0 -124.667 18.667 -168 56s-65 92.333 -65 165
c0 46.667 21 112.334 63 197.001zM173.001 206.998c0 -30.667 8.16699 -54.667 24.5 -72s39.166 -26 68.499 -26s51.833 8.66699 67.5 26s23.5 41.333 23.5 72c0 30 -7.83301 53.667 -23.5 71s-38.167 26 -67.5 26s-52.166 -8.66699 -68.499 -26s-24.5 -41 -24.5 -71z" />
    <glyph glyph-name="uniF63F" unicode="&#xf63f;" horiz-adv-x="452" 
d="M135 571v-107h-119v226h422v-98l-199 -592h-145l200 571h-159z" />
    <glyph glyph-name="uniF640" unicode="&#xf640;" horiz-adv-x="536" 
d="M33 192c0 36 9.83398 69.167 29.501 99.5s44.167 52.5 73.5 66.5c-28 14 -50.5 34.833 -67.5 62.5s-25.5 57.5 -25.5 89.5c0 58 22 104 66 138s97 51 159 51c62.667 0 115.667 -17 159 -51c44 -33.333 66 -79.333 66 -138c0 -32 -8.5 -61.833 -25.5 -89.5
s-39.5 -48.5 -67.5 -62.5c30 -14 54.667 -36 74 -66s29 -63.333 29 -100c0 -62 -22.667 -111 -68 -147c-44.667 -36 -100.334 -54 -167.001 -54s-122.667 18 -168 54c-44.667 36 -67 85 -67 147zM173.001 205c0 -26.667 8.99805 -49.499 26.998 -68.499
s40.667 -28.5 68 -28.5c26.667 0 49.334 9.5 68.001 28.5s28 41.833 28 68.5c0 27.333 -9.66699 50.166 -29 68.499s-41.666 27.5 -66.999 27.5c-26 0 -48.333 -9 -67 -27s-28 -41 -28 -69zM181.999 496.001c0 -24 8.33301 -44.5 25 -61.5s37 -25.5 61 -25.5
c23.333 0 43.5 8.5 60.5 25.5s25.5 37.5 25.5 61.5c0 23.333 -8.5 43.333 -25.5 60s-37.167 25 -60.5 25c-24 0 -44.333 -8.33301 -61 -25s-25 -36.667 -25 -60z" />
    <glyph glyph-name="uniF641" unicode="&#xf641;" horiz-adv-x="531" 
d="M295 0h-150.001l145 284c-18 -8.66699 -40.333 -13 -67 -13c-53.333 0 -98.333 19.333 -135 58s-55 88 -55 148c0 72.667 21.667 127.667 65 165c42.667 38 98.334 57 167.001 57s124.667 -18.667 168 -56s65 -92.333 65 -165c0 -45.333 -21.333 -111 -64 -197z
M357.999 483c0 30.667 -8.16699 54.667 -24.5 72s-39.166 26 -68.499 26s-52 -8.66699 -68 -26s-24 -41.333 -24 -72c0 -30 8 -53.667 24 -71s38.667 -26 68 -26s52.166 8.66699 68.499 26s24.5 41 24.5 71z" />
    <glyph glyph-name="uniF6BA" unicode="&#xf6ba;" horiz-adv-x="319" 
d="M289 289h-259v112h259v-112z" />
    <glyph glyph-name="uniF6BB" unicode="&#xf6bb;" horiz-adv-x="509" 
d="M449 283h-389v124h389v-124z" />
    <glyph glyph-name="uniF6BC" unicode="&#xf6bc;" horiz-adv-x="706" 
d="M686 283h-666v124h666v-124z" />
    <glyph glyph-name="uniF6C3" unicode="&#xf6c3;" horiz-adv-x="332" 
d="M97 -51h137v-129l-137 -117v246z" />
    <glyph glyph-name="uniF6C9" unicode="&#xf6c9;" horiz-adv-x="379" 
d="M200 742h-124l80 129h147z" />
    <glyph glyph-name="uniF6CA" unicode="&#xf6ca;" horiz-adv-x="519" 
d="M450 879l-138 -142h-105l-138 142h133l57 -61l58 61h133z" />
    <glyph glyph-name="uniF6CB" unicode="&#xf6cb;" horiz-adv-x="492" 
d="M206 752h-124v117h124v-117zM409 752h-124v117h124v-117z" />
    <glyph glyph-name="uniF6CE" unicode="&#xf6ce;" horiz-adv-x="404" 
d="M88 871h148l80 -129h-125z" />
    <glyph glyph-name="uniF6CF" unicode="&#xf6cf;" horiz-adv-x="590" 
d="M199 742h-125l80 129h148zM402 742h-124l90 129h147z" />
    <glyph glyph-name="uniF6D0" unicode="&#xf6d0;" horiz-adv-x="490" 
d="M406 744h-322v112h322v-112z" />
    <glyph glyph-name="uniF6D1" unicode="&#xf6d1;" horiz-adv-x="455" 
d="M290 879h128c0 -100.667 -63.333 -151 -190 -151c-127.333 0 -191 50.333 -191 151h129c0 -20.667 4.66699 -36.167 14 -46.5s25.333 -15.5 48 -15.5s38.667 5.16699 48 15.5s14 25.833 14 46.5z" />
    <glyph glyph-name="uniF6D4" unicode="&#xf6d4;" horiz-adv-x="417" 
d="M259 687l104 0.000976562c0 -86 -51.333 -129 -154 -129c-49.333 0 -87.5 10.667 -114.5 32s-40.5 53.666 -40.5 96.999h104c0 -36.667 17 -55 51 -55c33.333 0 50 18.333 50 55z" />
    <glyph glyph-name="uniF6DC" unicode="&#xf6dc;" horiz-adv-x="337" 
d="M143 690h126v-690h-140v544l-99 -65v135z" />
    <glyph glyph-name="uniFEFF" unicode="&#xfeff;" horiz-adv-x="0" 
 />
    <glyph glyph-name="uniF4D3" unicode="&#x1f4d3;" horiz-adv-x="752" 
d="M60 60v815c0 16.667 6 31 18 43s26.333 18 43 18h510c16.667 0 31 -6 43 -18s18 -26.333 18 -43v-815c0 -16.667 -6 -30.834 -18 -42.501s-26.333 -17.5 -43 -17.5h-510c-16.667 0 -31 5.83301 -43 17.5s-18 25.834 -18 42.501zM376 25c11.333 0 21 4 29 12
s12 17.667 12 29s-4 21 -12 29s-17.667 12 -29 12c-12 0 -22 -4 -30 -12s-12 -17.667 -12 -29s4 -21 12 -29s18 -12 30 -12zM648 132v691h-544v-691h544zM357 879c0 -11.333 6 -17 18 -17s18 5.66699 18 17s-6 17 -18 17s-18 -5.66699 -18 -17z" />
    <glyph glyph-name="uniF4F1" unicode="&#x1f4f1;" horiz-adv-x="552" 
d="M60 60v715c0 16.667 6 31 18 43s26.333 18 43 18h310c16.667 0 31 -6 43 -18s18 -26.333 18 -43v-715c0 -16.667 -6 -30.834 -18 -42.501s-26.333 -17.5 -43 -17.5h-310c-16.667 0 -31 5.83301 -43 17.5s-18 25.834 -18 42.501zM276 25c11.333 0 21 4 29 12
s12 17.667 12 29s-4 21 -12 29s-17.667 12 -29 12c-12 0 -22 -4 -30 -12s-12 -17.667 -12 -29s4 -21 12 -29s18 -12 30 -12zM448 132v591h-344v-591h344zM323 790h-94c-7.33301 0 -11 -4 -11 -12s3.66699 -12 11 -12h94c7.33301 0 11 4 11 12s-3.66699 12 -11 12z" />
    <glyph glyph-name=".null" horiz-adv-x="0" 
 />
    <glyph glyph-name="nonmarkingreturn" horiz-adv-x="333" 
 />
    <glyph glyph-name="NULL" horiz-adv-x="0" 
 />
    <glyph glyph-name="CR" horiz-adv-x="333" 
 />
    <glyph glyph-name="uni2197.ss02" horiz-adv-x="667" 
d="M607 500v-500h-78v367l-414 -414l-55 55l414 414h-367v78h500z" />
    <glyph glyph-name="uni2199.ss02" horiz-adv-x="667" 
d="M60 0v500h78v-367l414 414l55 -55l-414 -414h367v-78h-500z" />
    <glyph glyph-name="a.ss01" horiz-adv-x="517" 
d="M33 217v68c0 70.667 17.667 125.667 53 165s83.666 59 144.999 59c44 0 79.667 -11.333 107 -34v25h127v-500h-127v28c-27.333 -24.667 -63 -37 -107 -37c-63.333 0 -112.166 20.333 -146.499 61s-51.5 95.667 -51.5 165zM249 99c32 0 54.833 10.5 68.5 31.5
s20.5 52.5 20.5 94.5v52c0 82.667 -29.667 124 -89 124s-89 -41.333 -89 -124v-52c0 -84 29.667 -126 89 -126z" />
    <glyph glyph-name="uni2198.ss02" horiz-adv-x="667" 
d="M529 133v367h78v-500h-500v78h367l-414 414l55 55z" />
    <glyph glyph-name="afii10069.ss01" horiz-adv-x="517" 
d="M465 460l-0.00292969 -238.999c0 -72.667 -18.167 -129.167 -54.5 -169.5s-90.166 -60.5 -161.499 -60.5c-70 0 -123.5 20.167 -160.5 60.5s-55.5 96.833 -55.5 169.5v60c0 73.333 18.167 129.666 54.5 168.999s87.5 59 153.5 59c38 0 70.333 -8 97 -24
c-3.33301 71.333 -36.666 107 -99.999 107c-33.333 0 -68.666 -11.667 -105.999 -35l-58 79c45.333 42 104.333 63 177 63c142.667 0 214 -79.667 214 -239zM248.997 99.001c59.333 0 89 42 89 126v52c0 82.667 -29.667 124 -89 124s-89 -41.333 -89 -124v-52
c0 -42 6.83301 -73.5 20.5 -94.5s36.5 -31.5 68.5 -31.5z" />
    <glyph glyph-name="afii10074.ss01" horiz-adv-x="526" 
d="M347 500l127.001 0.000976562v-500h-125v42c-12 -18.667 -26.333 -31.834 -43 -39.501s-40.334 -11.5 -71.001 -11.5c-58 0 -103.167 16 -135.5 48s-48.5 81.667 -48.5 149v312h128v-293c0 -37.333 6.5 -64.333 19.5 -81s33.5 -25 61.5 -25c58 0 87 35 87 105v294z" />
    <glyph glyph-name="afii10075.ss01" horiz-adv-x="526" 
d="M347 500l127.001 0.000976562v-500h-125v42c-12 -18.667 -26.333 -31.834 -43 -39.501s-40.334 -11.5 -71.001 -11.5c-58 0 -103.167 16 -135.5 48s-48.5 81.667 -48.5 149v312h128v-293c0 -37.333 6.5 -64.333 19.5 -81s33.5 -25 61.5 -25c58 0 87 35 87 105v294z
M313.001 687.001l104 0.000976562c0 -86 -51.333 -129 -154 -129c-49.333 0 -87.5 10.667 -114.5 32s-40.5 53.666 -40.5 96.999h104c0 -36.667 17 -55 51 -55c33.333 0 50 18.333 50 55z" />
    </font>
</defs>
</svg>
