<?xml version="1.0" standalone="no"?>
<!DOCTYPE svg PUBLIC "-//W3C//DTD SVG 1.1//EN" "http://www.w3.org/Graphics/SVG/1.1/DTD/svg11.dtd" >
<svg>
<metadata>
Created by FontForge 20090914 at Tue Jul 27 13:37:44 2021
 By www-data
Copyright &#194;&#169; 2014 ParaType Inc., ParaType Ltd. All rights reserved.
</metadata>
<defs>
<font id="DIN2014-Regular" horiz-adv-x="500" >
  <font-face 
    font-family="DIN 2014"
    font-weight="400"
    font-stretch="normal"
    units-per-em="1000"
    panose-1="2 11 5 4 2 2 2 2 2 4"
    ascent="779"
    descent="-221"
    x-height="500"
    cap-height="690"
    bbox="-344 -243.002 3054 969"
    underline-thickness="50"
    underline-position="-200"
    unicode-range="U+0020-U+1F4F1"
  />
<missing-glyph horiz-adv-x="250" 
 />
    <glyph glyph-name="afii10017.var.accented" unicode="&#x410;`" horiz-adv-x="580" 
d="M154 158l-53 -158h-91l240 690h80l240 -690h-91l-53 158h-272zM399 236l-109 324l-109 -324h218zM333 747h-77l80 129h100z" />
    <glyph glyph-name="afii10022.var.accented" unicode="&#x415;`" horiz-adv-x="541" 
d="M85 0v690h416v-78h-330v-216h300v-78h-300v-240h330v-78h-416zM322 747h-77l80 129h100z" />
    <glyph glyph-name="afii10026.var.accented" unicode="&#x418;`" horiz-adv-x="656" 
d="M85 0v690h86v-519l328 519h72v-690h-86v514l-326 -514h-74zM349 747h-77l80 129h100z" />
    <glyph glyph-name="afii10032.var.accented" unicode="&#x41e;`" horiz-adv-x="600" 
d="M550 383v-76c0 -210 -83.333 -315 -250 -315s-250 105 -250 315v76c0 210 83.333 315 250 315s250 -105 250 -315zM136 383v-76c0 -82 13.5 -142 40.5 -180s68.167 -57 123.5 -57s96.5 19 123.5 57s40.5 98 40.5 180v76c0 82 -13.5 142 -40.5 180s-68.167 57 -123.5 57
s-96.5 -19 -123.5 -57s-40.5 -98 -40.5 -180zM305 747h-77l80 129h100z" />
    <glyph glyph-name="afii10037.var.accented" unicode="&#x423;`" horiz-adv-x="582" 
d="M306 263l172 427h90l-235 -574c-20 -48 -43.667 -80.667 -71 -98s-69.666 -26 -126.999 -26v79c37.333 0 63.666 4.33301 78.999 13c17.333 9.33301 32.333 30.333 45 63l3 8l-237 535h94zM334 747h-77l80 129h100z" />
    <glyph glyph-name="afii10045.var.accented" unicode="&#x42b;`" horiz-adv-x="776" 
d="M85 0v690h86v-273h117c80.667 0 140.667 -20.667 180 -62c38.667 -40.667 58 -89.667 58 -147s-19.333 -106.333 -58 -147s-98.667 -61 -180 -61h-203zM288 339h-117v-261h117c49.333 0 87 11.667 113 35s39 55 39 95c0 40.667 -13 72.667 -39 96s-63.667 35 -113 35z
M605 690h86v-690h-86v690zM404 747h-77l80 129h100z" />
    <glyph glyph-name="afii10047.var.accented" unicode="&#x42d;`" horiz-adv-x="578" 
d="M442 308l-260.997 -0.000976562v78h261c-0.666992 80.667 -14.5 139.834 -41.5 177.501s-67.833 56.5 -122.5 56.5c-44.667 0 -80.334 -11.333 -107.001 -34s-45.667 -59.667 -57 -111h-84c10.667 73.333 37.167 128.833 79.5 166.5s98.5 56.5 168.5 56.5
c166.667 0 250 -105 250 -315v-76c0 -210 -83.333 -315 -250 -315c-69.333 0 -125.333 18.667 -168 56s-69 93 -79 167h83c11.333 -50 30.166 -86.667 56.499 -110s62.166 -35 107.499 -35c55.333 0 96.5 19 123.5 57s40.5 98.333 40.5 181zM305.003 746.999h-77l80 129h100
z" />
    <glyph glyph-name="afii10048.var.accented" unicode="&#x42e;`" horiz-adv-x="788" 
d="M738 383v-76c0 -210 -76.667 -315 -230 -315s-230 105 -230 315v11h-107v-318h-86v690h86v-294h107c3.33301 201.333 80 302 230 302c153.333 0 230 -105 230 -315zM364 383v-76c0 -83.333 11.5 -143.666 34.5 -180.999s59.5 -56 109.5 -56s86.5 18.667 109.5 56
s34.5 97.666 34.5 180.999v76c0 83.333 -11.5 143.666 -34.5 180.999s-59.5 56 -109.5 56s-86.5 -18.667 -109.5 -56s-34.5 -97.666 -34.5 -180.999zM343 747h-77l80 129h100z" />
    <glyph glyph-name="afii10049.var.accented" unicode="&#x42f;`" horiz-adv-x="604" 
d="M286 291l-170 -291h-96l178 302c-100 24 -150 86.667 -150 188c0 65.333 21.5 115 64.5 149s105.167 51 186.5 51h220v-690h-86v291h-147zM299 369h134v243h-134c-58.667 0 -100.834 -9.5 -126.501 -28.5s-38.5 -50.167 -38.5 -93.5c0 -42.667 12.833 -73.5 38.5 -92.5
s67.834 -28.5 126.501 -28.5zM329 747h-77l80 129h100z" />
    <glyph glyph-name="afii10023.var.accented" unicode="&#x401;`" horiz-adv-x="541" 
d="M85 0v690h416v-78h-330v-216h300v-78h-300v-240h330v-78h-416zM233 779h-90v90h90v-90zM443 779h-90v90h90v-90zM316 840h-77l80 129h100z" />
    <glyph glyph-name="afii10065.var.accented" unicode="&#x430;`" horiz-adv-x="491" 
d="M40 146c0 95.333 62.3311 143.002 186.998 143.002h119v58c0 33.333 -8.16699 56.166 -24.5 68.499s-45.166 18.5 -86.499 18.5c-34.667 0 -60 -3.33301 -76 -10s-30.667 -20.334 -44 -41.001l-60 42c18 30 40.833 51.333 68.5 64s65.167 19 112.5 19
c66.667 0 115 -12.333 145 -37s45 -66 45 -124v-347h-80v49c-13.333 -22 -29.166 -37 -47.499 -45s-44.833 -12 -79.5 -12c-57.333 0 -101.5 13.5 -132.5 40.5s-46.5 64.833 -46.5 113.5zM345.998 192.002v29h-119c-37.333 0 -64.5 -6.16699 -81.5 -18.5
s-25.5 -31.833 -25.5 -58.5c0 -52 33 -78 99 -78c42 0 73.667 8 95 24c21.333 17.333 32 51.333 32 102zM275.998 567.002h-75l70 158h96z" />
    <glyph glyph-name="afii10070.var.accented" unicode="&#x435;`" horiz-adv-x="488" 
d="M367 120l62.001 -44c-17.333 -30 -39.833 -51.5 -67.5 -64.5s-63.5 -19.5 -107.5 -19.5c-66.667 0 -119 20.167 -157 60.5s-57 95.5 -57 165.5v66c0 72 17 127.333 51 166s83 58 147 58c65.333 0 114.666 -19.167 147.999 -57.5s50 -93.833 50 -166.5v-52h-316v-14
c0 -46.667 11 -84 33 -112s53.667 -42 95 -42c58 0 97.667 18.667 119 56zM238.001 436c-73.333 0 -112.667 -44.667 -118 -134h235c-4 89.333 -43 134 -117 134zM270 567h-75l70 158h96z" />
    <glyph glyph-name="afii10074.var.accented" unicode="&#x438;`" horiz-adv-x="536" 
d="M65 500h80v-361l249 361h77v-500h-80v368l-251 -368h-75v500zM294 567h-75l70 158h96z" />
    <glyph glyph-name="afii10080.var.accented" unicode="&#x43e;`" horiz-adv-x="496" 
d="M456 284v-66c0 -70 -17.667 -125.167 -53 -165.5s-87 -60.5 -155 -60.5c-65.333 0 -116.333 20 -153 60s-55 95.333 -55 166v66c0 70.667 18.333 125.667 55 165s87.667 59 153 59c66 0 117.167 -19.5 153.5 -58.5s54.5 -94.167 54.5 -165.5zM248 64
c40 0 71.333 14.333 94 43s34 65.667 34 111v66c0 48 -11.167 85.333 -33.5 112s-53.833 40 -94.5 40s-72.167 -13.5 -94.5 -40.5s-33.5 -64.167 -33.5 -111.5v-66c0 -47.333 10.833 -84.833 32.5 -112.5s53.5 -41.5 95.5 -41.5zM270 567h-75l70 158h96z" />
    <glyph glyph-name="afii10085.var.accented" unicode="&#x443;`" horiz-adv-x="466" 
d="M199 -12l2.00098 7l-196 505h86l149 -388l131 388h85l-176 -516l-20 -55c-14.667 -37.333 -30.334 -63 -47.001 -77c-32 -28 -79 -42 -141 -42v78c36 0 62.333 6.33301 79 19c18 12 34 39 48 81zM272.001 567h-75l70 158h96z" />
    <glyph glyph-name="afii10093.var.accented" unicode="&#x44b;`" horiz-adv-x="639" 
d="M65 0v500h80v-192h73c70.667 0 123.167 -12.333 157.5 -37s51.5 -62.667 51.5 -114c0 -48.667 -15.167 -87 -45.5 -115s-75.5 -42 -135.5 -42h-181zM494 0v500h80v-500h-80zM215 236l-70 0.000976562v-164h82c73.333 0 110 28.667 110 86
c0 27.333 -9.5 47.166 -28.5 59.499s-50.167 18.5 -93.5 18.5zM331 567.001h-75l70 158h96z" />
    <glyph glyph-name="afii10095.var.accented" unicode="&#x44d;`" horiz-adv-x="459" 
d="M339 218h-197.001v72h197c-1.33301 46 -13.833 81.833 -37.5 107.5s-56.5 38.5 -98.5 38.5c-50 0 -86.667 -16.667 -110 -50l-63 44c37.333 52 95 78 173 78c68 0 121 -19.667 159 -59s57 -94.333 57 -165v-66c0 -70 -19.167 -125.167 -57.5 -165.5
s-91.166 -60.5 -158.499 -60.5c-85.333 0 -143 28 -173 84l62 44c19.333 -37.333 56.333 -56 111 -56c44.667 0 78.5 13.833 101.5 41.5s34.5 65.167 34.5 112.5zM244.999 567h-75l70 158h96z" />
    <glyph glyph-name="afii10096.var.accented" unicode="&#x44e;`" horiz-adv-x="665" 
d="M625 284l-0.000976562 -66c0 -71.333 -16 -126.833 -48 -166.5s-80 -59.5 -144 -59.5c-61.333 0 -108.666 19.833 -141.999 59.5s-50 95.167 -50 166.5h-96v-218h-80v500h80v-210h96c1.33301 70 18.333 123.833 51 161.5s79.667 56.5 141 56.5
c62 0 109.5 -19.333 142.5 -58s49.5 -94 49.5 -166zM432.999 64c36.667 0 64.5 13.833 83.5 41.5s28.5 65.167 28.5 112.5v66c0 101.333 -37.333 152 -112 152c-36.667 0 -64.5 -13.167 -83.5 -39.5s-28.5 -63.833 -28.5 -112.5v-66c0 -102.667 37.333 -154 112 -154z
M296.999 567h-75l70 158h96z" />
    <glyph glyph-name="afii10097.var.accented" unicode="&#x44f;`" 
d="M435 500v-500.001h-80v192h-105l-125 -192h-90l133 203c-76.667 20.667 -115 70.334 -115 149.001c0 44 16 79.667 48 107s79.333 41 142 41h192zM265 263.999h90v164h-102c-73.333 0 -110 -26 -110 -78c0 -30 9.66699 -51.833 29 -65.5s50.333 -20.5 93 -20.5z
M302 566.999h-75l70 158h96z" />
    <glyph glyph-name="afii10071.var.accented" unicode="&#x451;`" horiz-adv-x="488" 
d="M367 120l62.001 -44c-17.333 -30 -39.833 -51.5 -67.5 -64.5s-63.5 -19.5 -107.5 -19.5c-66.667 0 -119 20.167 -157 60.5s-57 95.5 -57 165.5v66c0 72 17 127.333 51 166s83 58 147 58c65.333 0 114.666 -19.167 147.999 -57.5s50 -93.833 50 -166.5v-52h-316v-14
c0 -46.667 11 -84 33 -112s53.667 -42 95 -42c58 0 97.667 18.667 119 56zM238.001 436c-73.333 0 -112.667 -44.667 -118 -134h235c-4 89.333 -43 134 -117 134zM268 717h-75l70 158h96zM175 600h-90v90h90v-90zM385 600h-90v90h90v-90z" />
    <glyph glyph-name="fi" unicode="fi" horiz-adv-x="465" 
d="M21 428l-0.000976562 72h64v36c0 55.333 11.167 94.833 33.5 118.5s61.833 35.5 118.5 35.5h23v-76h-20c-31.333 0 -51.666 -6.66699 -60.999 -20s-14 -39.333 -14 -78v-16h235v-500h-80v428h-155v-428h-80v428h-64z" />
    <glyph glyph-name="fl" unicode="fl" horiz-adv-x="510" 
d="M320 154l-0.000976562 460h-80c-31.333 0 -51.666 -6.66699 -60.999 -20s-14 -39.333 -14 -78v-16h95v-72h-95v-428h-80v428h-64v72h64v36c0 55.333 11.167 94.833 33.5 118.5s61.833 35.5 118.5 35.5h163v-516c0 -28 3.66699 -51.333 11 -70
c10.667 -20 35.334 -30 74.001 -30v-74c-60.667 0 -103.334 12 -128.001 36s-37 63.333 -37 118z" />
    <glyph glyph-name=".notdef" horiz-adv-x="250" 
 />
    <glyph glyph-name="space" unicode=" " horiz-adv-x="250" 
 />
    <glyph glyph-name="exclam" unicode="!" horiz-adv-x="216" 
d="M65 690h86v-501h-86v501zM156 0h-96v96h96v-96z" />
    <glyph glyph-name="quotedbl" unicode="&#x22;" horiz-adv-x="322" 
d="M40 690h86v-169h-86v169zM196 690h86v-169h-86v169z" />
    <glyph glyph-name="numbersign" unicode="#" horiz-adv-x="605" 
d="M18 416v78h130l37 196h87l-37 -196h150l37 196h88l-37 -196h108v-78h-123l-24 -132h110v-78h-125l-38 -206h-87l38 206h-150l-38 -206h-88l38 206h-113v78h128l24 132h-115zM371 416h-150l-25 -132h150z" />
    <glyph glyph-name="dollar" unicode="$" 
d="M291 616l0.00195312 -234.997c68 -12.667 118 -34.167 150 -64.5s48 -73.833 48 -130.5c0 -48.667 -16.333 -91.334 -49 -128.001c-32.667 -38 -82.334 -59.333 -149.001 -64v-110h-74v110c-91.333 8 -160 45.667 -206 113l71 49c22 -26 43 -45.5 63 -58.5
s44 -21.5 72 -25.5v242c-127.333 25.333 -191 91 -191 197c0 51.333 16.333 93.666 49 126.999s80 52.666 142 57.999v116h74v-116c81.333 -9.33301 143.333 -47 186 -113l-67 -48c-34.667 46.667 -74.334 73.667 -119.001 81zM291.002 300.003v-228.001
c74.667 8.66699 112 45.334 112 110.001c0 30.667 -8.5 55.5 -25.5 74.5s-45.833 33.5 -86.5 43.5zM217.002 397.002v221.001c-32.667 -4 -58.334 -15.333 -77.001 -34s-28 -43 -28 -73c0 -30.667 8.33301 -54.834 25 -72.501s43.334 -31.5 80.001 -41.5z" />
    <glyph glyph-name="percent" unicode="%" horiz-adv-x="725" 
d="M125 0l386 690h83l-385 -690h-84zM705 192v-43c0 -48.667 -12.333 -87 -37 -115s-60.667 -42 -108 -42c-45.333 0 -80.5 14 -105.5 42s-37.5 66.333 -37.5 115v43c0 48.667 12.667 86.667 38 114s60.333 41 105 41c46 0 81.667 -13.5 107 -40.5s38 -65.167 38 -114.5z
M560 52c26.667 0 47 8.66797 61 26.001s21 41.333 21 72v40c0 64 -27.333 96 -82 96c-25.333 0 -44.833 -8.33301 -58.5 -25s-20.5 -40.334 -20.5 -71.001v-40c0 -65.333 26.333 -98 79 -98zM313 543.001v-43c0 -48.667 -12.333 -87 -37 -115s-60.667 -42 -108 -42
c-45.333 0 -80.5 14 -105.5 42s-37.5 66.333 -37.5 115v43c0 48.667 12.667 86.667 38 114s60.333 41 105 41c46 0 81.667 -13.5 107 -40.5s38 -65.167 38 -114.5zM168 403.001c26.667 0 47 8.66797 61 26.001s21 41.333 21 72v40c0 64 -27.333 96 -82 96
c-25.333 0 -44.833 -8.33301 -58.5 -25s-20.5 -40.334 -20.5 -71.001v-40c0 -65.333 26.333 -98 79 -98z" />
    <glyph glyph-name="ampersand" unicode="&#x26;" horiz-adv-x="653" 
d="M45 186c0 74.667 40.334 142.332 121.001 202.999c-47.333 57.333 -71 108.666 -71 153.999c0 46 15.667 83.333 47 112s72 43 122 43c54.667 0 96.167 -12.667 124.5 -38s42.5 -57.666 42.5 -96.999c0 -37.333 -16.333 -71 -49 -101l-44 -39
c-8.66699 -7.33301 -27.667 -20.666 -57 -39.999l181 -197c21.333 40.667 32 86 32 136h78c0 -74 -18.333 -139.333 -55 -196l116 -126h-113l-57 62c-52.667 -46.667 -119.334 -70 -200.001 -70c-69.333 0 -123 19 -161 57s-57 83.667 -57 137zM263.001 69.998
c58.667 0 107.667 16.667 147 50l-195 215c-58.667 -46.667 -88 -96 -88 -148c0 -36 12.5 -64.5 37.5 -85.5s57.833 -31.5 98.5 -31.5zM181.001 542.998c0 -31.333 17.334 -67.333 52.001 -108c2.66699 2 22 15.333 58 40c14 10.667 26.5 23.667 37.5 39
s16.5 29.666 16.5 42.999c0 17.333 -7.33301 32.333 -22 45s-34.334 19 -59.001 19s-44.667 -7.16699 -60 -21.5s-23 -33.166 -23 -56.499z" />
    <glyph glyph-name="quotesingle" unicode="'" horiz-adv-x="166" 
d="M40 690h86v-169h-86v169z" />
    <glyph glyph-name="parenleft" unicode="(" horiz-adv-x="317" 
d="M287 -52l-50 -64.002c-67.333 49.333 -112 93.333 -134 132s-33 87.334 -33 146.001v372c0 58.667 11 107.334 33 146.001s66.667 82.667 134 132l50 -64c-54.667 -40 -91 -75.333 -109 -106c-18.667 -30.667 -28 -73 -28 -127v-334c0 -54 9.33301 -96.667 28 -128
c18.667 -30 55 -65 109 -105z" />
    <glyph glyph-name="parenright" unicode=")" horiz-adv-x="317" 
d="M80 -116l-50 64.0029c53.333 38.667 89.333 73.667 108 105c19.333 32.667 29 75.334 29 128.001v334c0 53.333 -9.66699 95.666 -29 126.999c-18.667 31.333 -54.667 66.666 -108 105.999l50 64c67.333 -49.333 112 -93.333 134 -132s33 -87.334 33 -146.001v-372
c0 -58.667 -11 -107.334 -33 -146.001s-66.667 -82.667 -134 -132z" />
    <glyph glyph-name="asterisk" unicode="*" horiz-adv-x="416" 
d="M174 690h68l-3 -121l103 63l34 -59l-106 -58l106 -57l-34 -59l-103 62l3 -120h-68l3 120l-103 -62l-34 59l105 57l-105 58l34 59l103 -63z" />
    <glyph glyph-name="plus" unicode="+" 
d="M213 318h-158v72h158v159h72v-159h159v-72h-159v-158h-72v158z" />
    <glyph glyph-name="comma" unicode="," horiz-adv-x="216" 
d="M60 116h96v-175l-96 -83v258z" />
    <glyph glyph-name="hyphen" unicode="-" horiz-adv-x="319" 
d="M289 253h-259v72h259v-72z" />
    <glyph glyph-name="period" unicode="." horiz-adv-x="236" 
d="M60 116h116v-116h-116v116z" />
    <glyph glyph-name="slash" unicode="/" horiz-adv-x="485" 
d="M460 812l-336 -928h-77l336 928h77z" />
    <glyph glyph-name="zero" unicode="0" 
d="M448 499v-308c0 -60.667 -19.333 -109 -58 -145s-85.334 -54 -140.001 -54s-101.334 18 -140.001 54s-58 84.667 -58 146v306c0 61.333 19.333 110 58 146s85.334 54 140.001 54s101.334 -18 140.001 -54s58 -84.333 58 -145zM362 191v308
c0 35.333 -10.667 64.333 -32 87s-48 34 -80 34c-32.667 0 -59.667 -11.333 -81 -34s-32 -51.667 -32 -87v-308c0 -35.333 10.667 -64.333 32 -87s48.333 -34 81 -34c32 0 58.667 11.333 80 34s32 51.667 32 87z" />
    <glyph glyph-name="one" unicode="1" 
d="M223 690h86v-690h-86v591l-99 -71v94z" />
    <glyph glyph-name="two" unicode="2" 
d="M151 78l292 -0.00195312v-78h-405v72l243 287c52 60.667 78 112 78 154c0 32.667 -10.833 58.834 -32.5 78.501s-48.167 29.5 -79.5 29.5c-32.667 0 -59.5 -9.66699 -80.5 -29s-31.833 -45.666 -32.5 -78.999h-85c0 55.333 19 100 57 134s85 51 141 51
c57.333 0 104.333 -17.333 141 -52c38 -34 57 -79.667 57 -137c0 -23.333 -5.66699 -48.333 -17 -75c-11.333 -26 -22.333 -45.667 -33 -59l-45 -56l-9 -11z" />
    <glyph glyph-name="three" unicode="3" 
d="M229 317l-43.002 0.000976562v78h43c86.667 0 130 40.667 130 122c0 28.667 -10.667 53.167 -32 73.5s-48 30.5 -80 30.5c-31.333 0 -57.666 -9.33301 -78.999 -28s-32.666 -42.334 -33.999 -71.001h-84c0 52.667 19.333 95 58 127c38.667 32.667 85 49 139 49
c58 0 105.333 -17.333 142 -52c37.333 -34 56 -77.667 56 -131c0 -34 -9.16699 -64.833 -27.5 -92.5s-43.5 -49.167 -75.5 -64.5c75.333 -31.333 113 -88 113 -170c0 -54 -18.667 -100.333 -56 -139c-36.667 -38 -85 -57 -145 -57c-63.333 0 -113.833 16.5 -151.5 49.5
s-58.167 76.833 -61.5 131.5h84c4.66699 -31.333 18 -56.333 40 -75s51.667 -28 89 -28c32.667 0 60 11.167 82 33.5s33 49.833 33 82.5c0 42 -12 74.333 -36 97s-58.667 34 -104 34z" />
    <glyph glyph-name="four" unicode="4" 
d="M20 175l243 515h85l-228 -500h199v203h86v-203h63v-78h-63v-112h-86v112h-299v63z" />
    <glyph glyph-name="five" unicode="5" 
d="M248 382c-41.333 0 -73.998 -16.999 -97.998 -50.999h-79v359h350v-86h-267v-181c26.667 30 63.334 45 110.001 45c61.333 0 107.666 -21.833 138.999 -65.5s47 -106.167 47 -187.5c0 -70 -17.667 -124.667 -53 -164s-85 -59 -149 -59
c-52.667 0 -97.334 16.333 -134.001 49c-36.667 33.333 -56.334 73.666 -59.001 120.999h84c6.66699 -29.333 19.5 -52 38.5 -68s42.5 -24 70.5 -24c77.333 0 116 48.333 116 145c0 111.333 -38.667 167 -116 167z" />
    <glyph glyph-name="six" unicode="6" 
d="M239 690l96 0.000976562l-133 -304c15.333 9.33301 37 14 65 14c54 0 97.667 -19 131 -57c33.333 -38.667 50 -87 50 -145c0 -60.667 -18.667 -110.334 -56 -149.001c-37.333 -38 -85 -57 -143 -57s-105.667 18.667 -143 56s-56 86 -56 146c0 32.667 15.667 86 47 160z
M249 326.001c-34 0 -61.333 -11.667 -82 -35s-31 -54.333 -31 -93s10.333 -69.667 31 -93s48 -35 82 -35s61.333 11.667 82 35s31 54.333 31 93s-10.5 69.667 -31.5 93s-48.167 35 -81.5 35z" />
    <glyph glyph-name="seven" unicode="7" 
d="M134 612v-121h-78v199h388v-78l-219 -612h-91l220 612h-220z" />
    <glyph glyph-name="eight" unicode="8" 
d="M42 194c0 36.667 10.1699 69.999 30.5029 99.999s45.166 51.333 74.499 64c-28.667 14 -51.667 34.667 -69 62s-26 56.666 -26 87.999c0 56.667 19.333 102.334 58 137.001c39.333 35.333 86 53 140 53c53.333 0 99.666 -17.667 138.999 -53s59 -81 59 -137
c0 -31.333 -8.83301 -60.666 -26.5 -87.999s-40.834 -48 -69.501 -62c30 -12 55.167 -33.167 75.5 -63.5s30.5 -63.833 30.5 -100.5c0 -59.333 -20.667 -108 -62 -146c-41.333 -37.333 -90 -56 -146 -56s-104.667 18.667 -146 56c-41.333 38 -62 86.667 -62 146z
M128.003 193.999c0 -34.667 11.665 -63.998 34.998 -87.998s52.333 -36 87 -36s63.334 12 86.001 36c24 25.333 36 54.666 36 87.999c0 35.333 -12.667 64.666 -38 87.999s-53.333 35 -84 35c-31.333 0 -59.666 -11.667 -84.999 -35c-24.667 -22.667 -37 -52 -37 -88z
M250.001 394.001c30.667 0 57 11 79 33c22 23.333 33 50.333 33 81s-11 57 -33 79s-48.333 33 -79 33c-31.333 0 -58 -10.833 -80 -32.5s-33 -48.167 -33 -79.5c0 -30.667 11 -57.667 33 -81c22 -22 48.667 -33 80 -33z" />
    <glyph glyph-name="nine" unicode="9" 
d="M261 0h-96l133 304c-15.333 -9.33301 -37 -14 -65 -14c-54 0 -97.667 19 -131 57c-33.333 38.667 -50 87 -50 145c0 62 18.333 111.667 55 149c36.667 38 84.667 57 144 57c58 0 105.667 -18.667 143 -56s56 -86 56 -146c0 -32.667 -15.667 -86 -47 -160zM251 364
c34 0 61.333 11.667 82 35s31 54.333 31 93s-10.333 69.667 -31 93s-48 35 -82 35s-61.333 -11.667 -82 -35s-31 -54.333 -31 -93s10.5 -69.667 31.5 -93s48.167 -35 81.5 -35z" />
    <glyph glyph-name="colon" unicode=":" horiz-adv-x="216" 
d="M60 96h96v-96h-96v96zM60 500h96v-96h-96v96z" />
    <glyph glyph-name="semicolon" unicode=";" horiz-adv-x="216" 
d="M60 96h96v-175l-96 -83v258zM60 500h96v-96h-96v96z" />
    <glyph glyph-name="less" unicode="&#x3c;" 
d="M392 580v-90l-242 -134l242 -134v-90l-325 183v82z" />
    <glyph glyph-name="equal" unicode="=" 
d="M444 400h-389v72h389v-72zM444 236h-389v72h389v-72z" />
    <glyph glyph-name="greater" unicode="&#x3e;" 
d="M102 222l242 134l-242 134v90l325 -183v-82l-325 -183v90z" />
    <glyph glyph-name="question" unicode="?" horiz-adv-x="486" 
d="M284 226l-0.000976562 -37.0029h-80v77c0 29.333 9.66699 52.666 29 69.999l49 44c28.667 26 48.834 48.667 60.501 68s17.5 41 17.5 65c0 32.667 -10.833 58.834 -32.5 78.501s-48.167 29.5 -79.5 29.5c-32.667 0 -59.5 -9.66699 -80.5 -29
s-31.833 -45.666 -32.5 -78.999h-85c0 55.333 19 100 57 134s85 51 141 51c57.333 0 104.333 -17.333 141 -52c38 -34 57 -79.667 57 -137c0 -24.667 -6 -49.667 -18 -75c-10.667 -24.667 -22.667 -44 -36 -58c-8 -8.66699 -24.667 -25.667 -50 -51l-29 -28
c-12 -11.333 -19.833 -21.666 -23.5 -30.999s-5.5 -22.666 -5.5 -39.999zM291.999 -0.00292969h-96v96h96v-96z" />
    <glyph glyph-name="at" unicode="@" horiz-adv-x="898" 
d="M540 484l79.998 -0.000976562v-259c0 -63.333 23.667 -95 71 -95c58 0 87 48.667 87 146c0 56.667 -9.5 107.667 -28.5 153s-45.167 81 -78.5 107c-63.333 51.333 -137.333 77 -222 77c-54.667 0 -103.834 -10.167 -147.501 -30.5s-78.167 -47 -103.5 -80
s-44.666 -68.833 -57.999 -107.5s-20 -78.334 -20 -119.001c0 -106 32.333 -188.333 97 -247c65.333 -59.333 144.333 -89 237 -89c78.667 0 152 16.667 220 50l31 -57c-16 -14.667 -48.667 -29 -98 -43c-46 -14.667 -98.667 -22 -158 -22c-105.333 0 -199 34.667 -281 104
c-39.333 34.667 -70.5 78.334 -93.5 131.001s-34.5 110.334 -34.5 173.001c0 83.333 19.333 156.333 58 219s88.5 110 149.5 142s128.167 48 201.5 48s140.666 -15.667 201.999 -47c60.667 -30.667 110.334 -78 149.001 -142c38.667 -62.667 58 -136 58 -220
c0 -67.333 -14.333 -120.5 -43 -159.5s-70.667 -58.5 -126 -58.5c-27.333 0 -51.833 6 -73.5 18s-37.5 29 -47.5 51c-20 -46 -63 -69 -129 -69c-53.333 0 -94.666 17 -123.999 51s-44 80.333 -44 139v52c0 60 14.833 106.5 44.5 139.5s70.834 49.5 123.501 49.5
c43.333 0 77 -11 101 -33v28zM445.998 129.999c33.333 0 57.333 10 72 30s22 50.667 22 92v55c0 73.333 -31.333 110 -94 110c-63.333 0 -95 -40.333 -95 -121v-44c0 -81.333 31.667 -122 95 -122z" />
    <glyph glyph-name="A" unicode="A" horiz-adv-x="580" 
d="M154 158l-53 -158h-91l240 690h80l240 -690h-91l-53 158h-272zM399 236l-109 324l-109 -324h218z" />
    <glyph glyph-name="B" unicode="B" horiz-adv-x="596" 
d="M85 0l-0.000976562 690h211c158.667 0 238 -58.667 238 -176c0 -36 -10.667 -68.667 -32 -98s-48.666 -48 -81.999 -56c43.333 -8 76.833 -26 100.5 -54s35.5 -64 35.5 -108c0 -56 -19.333 -103 -58 -141c-38 -38 -98 -57 -180 -57h-233zM301.999 319h-131.001v-241h147
c101.333 0 152 40 152 120c0 41.333 -13.667 71.833 -41 91.5s-69.666 29.5 -126.999 29.5zM295.998 613l-125 -0.000976562v-216h140c45.333 0 79.5 10.333 102.5 31s34.5 49.334 34.5 86.001c0 34 -11.5 59 -34.5 75s-62.167 24 -117.5 24z" />
    <glyph glyph-name="C" unicode="C" horiz-adv-x="578" 
d="M548 475h-83.9971c-11.333 51.333 -30.333 88.333 -57 111s-62.334 34 -107.001 34c-55.333 0 -96.5 -19 -123.5 -57s-40.5 -98 -40.5 -180v-76c0 -82 13.5 -142 40.5 -180s68.167 -57 123.5 -57c45.333 0 81.166 11.667 107.499 35s45.166 60 56.499 110h83
c-10 -74 -36.333 -129.667 -79 -167s-98.667 -56 -168 -56c-166.667 0 -250 105 -250 315v76c0 210 83.333 315 250 315c70 0 126.167 -18.833 168.5 -56.5s68.833 -93.167 79.5 -166.5z" />
    <glyph glyph-name="D" unicode="D" horiz-adv-x="605" 
d="M305 0h-220v690h220c166.667 0 250 -103 250 -309v-72c0 -206 -83.333 -309 -250 -309zM171 78l134 0.00195312c56 0 97.333 18.167 124 54.5s40 95.166 40 176.499v72c0 81.333 -13.333 140.166 -40 176.499s-68 54.5 -124 54.5h-134v-534z" />
    <glyph glyph-name="E" unicode="E" horiz-adv-x="541" 
d="M85 0v690h416v-78h-330v-216h300v-78h-300v-240h330v-78h-416z" />
    <glyph glyph-name="F" unicode="F" horiz-adv-x="531" 
d="M85 0v690h416v-78h-330v-232h300v-78h-300v-302h-86z" />
    <glyph glyph-name="G" unicode="G" horiz-adv-x="604" 
d="M303 269l-0.00195312 77.999h251v-40c0 -105.333 -21.833 -184.166 -65.5 -236.499s-106.5 -78.5 -188.5 -78.5c-166.667 0 -250 105 -250 315v76c0 210 83.333 315 250 315c69.333 0 125.333 -18.833 168 -56.5s69.334 -93.167 80.001 -166.5h-84
c-20 96.667 -74.667 145 -164 145c-55.333 0 -96.5 -19 -123.5 -57s-40.5 -98 -40.5 -180v-76c0 -82 13.5 -142 40.5 -180s68.167 -57 123.5 -57c102.667 0 158.334 66.333 167.001 199h-164z" />
    <glyph glyph-name="H" unicode="H" horiz-adv-x="638" 
d="M85 690h86v-294h296v294h86v-690h-86v318h-296v-318h-86v690z" />
    <glyph glyph-name="I" unicode="I" horiz-adv-x="276" 
d="M95 690h86v-690h-86v690z" />
    <glyph glyph-name="J" unicode="J" horiz-adv-x="505" 
d="M5 78l74.001 42c25.333 -33.333 61.666 -50 108.999 -50c50.667 0 87.667 16.5 111 49.5s35 87.833 35 164.5v406h86v-406c0 -194.667 -77.333 -292 -232 -292c-86 0 -147 28.667 -183 86z" />
    <glyph glyph-name="K" unicode="K" horiz-adv-x="638" 
d="M355 413l278 -413h-103l-232 344l-127 -156v-188h-86v690h86v-371l300 371h111z" />
    <glyph glyph-name="L" unicode="L" horiz-adv-x="501" 
d="M85 690h86v-612h330v-78h-416v690z" />
    <glyph glyph-name="M" unicode="M" horiz-adv-x="752" 
d="M85 690h84l207 -430l206 430h85v-690h-86v506l-168 -362h-77l-165 359v-503h-86v690z" />
    <glyph glyph-name="N" unicode="N" horiz-adv-x="638" 
d="M467 163v527h86v-690h-84l-298 522v-522h-86v690h82z" />
    <glyph glyph-name="O" unicode="O" horiz-adv-x="600" 
d="M550 383v-76c0 -210 -83.333 -315 -250 -315s-250 105 -250 315v76c0 210 83.333 315 250 315s250 -105 250 -315zM136 383v-76c0 -82 13.5 -142 40.5 -180s68.167 -57 123.5 -57s96.5 19 123.5 57s40.5 98 40.5 180v76c0 82 -13.5 142 -40.5 180s-68.167 57 -123.5 57
s-96.5 -19 -123.5 -57s-40.5 -98 -40.5 -180z" />
    <glyph glyph-name="P" unicode="P" horiz-adv-x="588" 
d="M305 263l-134 0.000976562v-263h-86v690h220c79.333 0 141 -18.833 185 -56.5s66 -90.167 66 -157.5c0 -66.667 -22 -118.834 -66 -156.501s-105.667 -56.5 -185 -56.5zM171 612.001v-271h134c110 0 165 45 165 135c0 90.667 -55 136 -165 136h-134z" />
    <glyph glyph-name="Q" unicode="Q" horiz-adv-x="600" 
d="M550 383v-76c0 -77.333 -12.667 -142.333 -38 -195l90 -85l-53 -56l-83 77c-40.667 -37.333 -96 -56 -166 -56c-166.667 0 -250 105 -250 315v76c0 210 83.333 315 250 315s250 -105 250 -315zM136 383v-75.999c0 -82 13.5 -142 40.5 -180s68.167 -57 123.5 -57
c43.333 0 78.333 11.667 105 35l-100 94l55 58l87 -83c11.333 37.333 17 81.666 17 132.999v76c0 82 -13.5 142 -40.5 180s-68.167 57 -123.5 57s-96.5 -19 -123.5 -57s-40.5 -98 -40.5 -180z" />
    <glyph glyph-name="R" unicode="R" horiz-adv-x="604" 
d="M420 306l154 -306h-96l-144 291h-163v-291h-86v690h220c81.333 0 143.5 -17 186.5 -51s64.5 -83.667 64.5 -149c0 -96 -45.333 -157.333 -136 -184zM171 612v-243h134c58.667 0 100.834 9.5 126.501 28.5s38.5 49.833 38.5 92.5c0 43.333 -12.833 74.5 -38.5 93.5
s-67.834 28.5 -126.501 28.5h-134z" />
    <glyph glyph-name="S" unicode="S" horiz-adv-x="571" 
d="M511 585l-67 -47.9971c-22.667 29.333 -46.167 50.5 -70.5 63.5s-55.5 19.5 -93.5 19.5c-42 0 -74.833 -9.16699 -98.5 -27.5s-35.5 -45.166 -35.5 -80.499c0 -37.333 12.667 -65.333 38 -84s67 -33.334 125 -44.001c74 -12.667 128.167 -34.334 162.5 -65.001
s51.5 -75.334 51.5 -134.001c0 -24 -4.16699 -46.833 -12.5 -68.5s-21.166 -42.167 -38.499 -61.5s-41.5 -34.666 -72.5 -45.999s-67.167 -17 -108.5 -17c-112 0 -194 37.667 -246 113l71 49c25.333 -30.667 50.666 -52.334 75.999 -65.001s58.333 -19 99 -19
c97.333 0 146 37 146 111c0 36 -12.167 64.167 -36.5 84.5s-66.5 35.166 -126.5 44.499c-142.667 22 -214 89.333 -214 202c0 56 19.167 101 57.5 135s93.5 51 165.5 51c102.667 0 178.667 -37.667 228 -113z" />
    <glyph glyph-name="T" unicode="T" horiz-adv-x="516" 
d="M5 612v78h506v-78h-210v-612h-86v612h-210z" />
    <glyph glyph-name="U" unicode="U" horiz-adv-x="670" 
d="M499 280v409.999h86v-409c0 -96.667 -21.5 -169 -64.5 -217s-104.833 -72 -185.5 -72s-142.5 23.833 -185.5 71.5s-64.5 119.834 -64.5 216.501v410h86v-410c0 -72.667 13.5 -125.834 40.5 -159.501s68.167 -50.5 123.5 -50.5s96.5 16.833 123.5 50.5
s40.5 86.834 40.5 159.501z" />
    <glyph glyph-name="V" unicode="V" horiz-adv-x="601" 
d="M260 0l-250 690h95l194 -550l197 550h95l-250 -690h-81z" />
    <glyph glyph-name="W" unicode="W" horiz-adv-x="842" 
d="M577 0l-157 536l-156 -536h-86l-168 690h90l125 -542l152 542h85l155 -545l125 545h90l-168 -690h-87z" />
    <glyph glyph-name="X" unicode="X" horiz-adv-x="552" 
d="M276 271l-161 -271h-95l206 356l-185 334h95l140 -256l140 256h95l-186 -334l207 -356h-95z" />
    <glyph glyph-name="Y" unicode="Y" horiz-adv-x="556" 
d="M235 296l-215 394h101l157 -300l157 300h101l-215 -394v-296h-86v296z" />
    <glyph glyph-name="Z" unicode="Z" horiz-adv-x="519" 
d="M30 612v78h449v-58l-338 -554h348v-78h-459v58l337 554h-337z" />
    <glyph glyph-name="bracketleft" unicode="[" horiz-adv-x="335" 
d="M275 -102h-205v894h205v-72h-125v-750h125v-72z" />
    <glyph glyph-name="backslash" unicode="\" horiz-adv-x="485" 
d="M383 -116l-336 928h77l336 -928h-77z" />
    <glyph glyph-name="bracketright" unicode="]" horiz-adv-x="335" 
d="M60 720v72h205v-894h-205v72h125v750h-125z" />
    <glyph glyph-name="asciicircum" unicode="^" 
d="M31 437l174 253h88l176 -253h-90l-129 190l-129 -190h-90z" />
    <glyph glyph-name="underscore" unicode="_" horiz-adv-x="526" 
d="M0 -155v62h526v-62h-526z" />
    <glyph glyph-name="grave" unicode="`" horiz-adv-x="319" 
d="M76 725h96l70 -158h-75z" />
    <glyph glyph-name="a" unicode="a" horiz-adv-x="491" 
d="M40 146c0 95.333 62.3311 143.002 186.998 143.002h119v58c0 33.333 -8.16699 56.166 -24.5 68.499s-45.166 18.5 -86.499 18.5c-34.667 0 -60 -3.33301 -76 -10s-30.667 -20.334 -44 -41.001l-60 42c18 30 40.833 51.333 68.5 64s65.167 19 112.5 19
c66.667 0 115 -12.333 145 -37s45 -66 45 -124v-347h-80v49c-13.333 -22 -29.166 -37 -47.499 -45s-44.833 -12 -79.5 -12c-57.333 0 -101.5 13.5 -132.5 40.5s-46.5 64.833 -46.5 113.5zM345.998 192.002v29h-119c-37.333 0 -64.5 -6.16699 -81.5 -18.5
s-25.5 -31.833 -25.5 -58.5c0 -52 33 -78 99 -78c42 0 73.667 8 95 24c21.333 17.333 32 51.333 32 102z" />
    <glyph glyph-name="b" unicode="b" horiz-adv-x="521" 
d="M65 690h80v-240c28 38.667 73.333 58 136 58s111.667 -19.5 147 -58.5s53 -94.167 53 -165.5v-66c0 -69.333 -17.333 -124.333 -52 -165s-84 -61 -148 -61s-109.333 17.333 -136 52v-44h-80v690zM273 64c40 0 71.333 14.333 94 43s34 65.667 34 111v66
c0 48 -11.167 85.333 -33.5 112s-53.833 40 -94.5 40c-40 0 -71.333 -12.833 -94 -38.5s-34 -61.167 -34 -106.5v-73c0 -47.333 10.833 -84.833 32.5 -112.5s53.5 -41.5 95.5 -41.5z" />
    <glyph glyph-name="c" unicode="c" horiz-adv-x="444" 
d="M367 120l61.998 -44c-30 -56 -87.667 -84 -173 -84c-67.333 0 -120.166 20.167 -158.499 60.5s-57.5 95.5 -57.5 165.5v66c0 70.667 19 125.667 57 165s91 59 159 59c78.667 0 136.334 -26 173.001 -78l-63 -44c-23.333 33.333 -60 50 -110 50
c-42.667 0 -76 -13.5 -100 -40.5s-36 -64.167 -36 -111.5v-66c0 -47.333 11.5 -84.833 34.5 -112.5s56.833 -41.5 101.5 -41.5c54.667 0 91.667 18.667 111 56z" />
    <glyph glyph-name="d" unicode="d" horiz-adv-x="521" 
d="M376 450v240h80v-690h-80v44c-26.667 -34.667 -72 -52 -136 -52s-113.333 20.333 -148 61s-52 95.667 -52 165v66c0 70.667 17.667 125.667 53 165s84.333 59 147 59s108 -19.333 136 -58zM248 64c41.333 0 73 13.168 95 39.501s33 62.166 33 107.499v73
c0 47.333 -11.167 84.5 -33.5 111.5s-53.833 40.5 -94.5 40.5s-72.167 -13.333 -94.5 -40s-33.5 -64 -33.5 -112v-66c0 -45.333 11.333 -82.333 34 -111s54 -43 94 -43z" />
    <glyph glyph-name="e" unicode="e" horiz-adv-x="488" 
d="M367 120l62.001 -44c-17.333 -30 -39.833 -51.5 -67.5 -64.5s-63.5 -19.5 -107.5 -19.5c-66.667 0 -119 20.167 -157 60.5s-57 95.5 -57 165.5v66c0 72 17 127.333 51 166s83 58 147 58c65.333 0 114.666 -19.167 147.999 -57.5s50 -93.833 50 -166.5v-52h-316v-14
c0 -46.667 11 -84 33 -112s53.667 -42 95 -42c58 0 97.667 18.667 119 56zM238.001 436c-73.333 0 -112.667 -44.667 -118 -134h235c-4 89.333 -43 134 -117 134z" />
    <glyph glyph-name="f" unicode="f" horiz-adv-x="285" 
d="M21 428l-0.000976562 72h64v36c0 55.333 11.167 94.833 33.5 118.5s61.833 35.5 118.5 35.5h23v-76h-20c-31.333 0 -51.666 -6.66699 -60.999 -20s-14 -39.333 -14 -78v-16h95v-72h-95v-428h-80v428h-64z" />
    <glyph glyph-name="g" unicode="g" horiz-adv-x="521" 
d="M376 450v50h80v-490c0 -67.333 -18.5 -118.5 -55.5 -153.5s-89.833 -52.5 -158.5 -52.5c-44 0 -79.833 6.5 -107.5 19.5s-50.167 34.5 -67.5 64.5l62 44c21.333 -37.333 61 -56 119 -56c85.333 0 128 44.667 128 134v34c-26.667 -34.667 -72 -52 -136 -52
s-113.333 20.333 -148 61s-52 95.667 -52 165v66c0 70.667 17.667 125.667 53 165s84.333 59 147 59s108 -19.333 136 -58zM248 64c42 0 73.833 13.833 95.5 41.5s32.5 65.167 32.5 112.5v66c0 47.333 -11.167 84.5 -33.5 111.5s-53.833 40.5 -94.5 40.5
s-72.167 -13.333 -94.5 -40s-33.5 -64 -33.5 -112v-66c0 -45.333 11.333 -82.333 34 -111s54 -43 94 -43z" />
    <glyph glyph-name="h" unicode="h" horiz-adv-x="526" 
d="M145 0l-80 -0.000976562v690h80v-239c14 20.667 31 35.334 51 44.001s47.667 13 83 13c58 0 102.833 -16.167 134.5 -48.5s47.5 -81.5 47.5 -147.5v-312h-80v311c0 82 -38 123 -114 123c-36 0 -65.333 -11.333 -88 -34s-34 -52 -34 -88v-312z" />
    <glyph glyph-name="i" unicode="i" horiz-adv-x="240" 
d="M160 0h-80v500h80v-500zM165 600h-90v90h90v-90z" />
    <glyph glyph-name="j" unicode="j" horiz-adv-x="235" 
d="M85 500h80.001v-536c0 -54.667 -12.333 -94 -37 -118s-67.334 -36 -128.001 -36v74c40.667 0 65 10.333 73 31c8 15.333 12 38.333 12 69v516zM170.001 600h-90v90h90v-90z" />
    <glyph glyph-name="k" unicode="k" horiz-adv-x="487" 
d="M145 296l202 204h104l-216 -221l247 -279h-104l-202 218l-31 -33v-185h-80v690h80v-394z" />
    <glyph glyph-name="l" unicode="l" horiz-adv-x="274" 
d="M65 154v536h80v-516c0 -28 3.66699 -51.333 11 -70c10.667 -20 35.334 -30 74.001 -30v-74c-60.667 0 -103.334 12 -128.001 36s-37 63.333 -37 118z" />
    <glyph glyph-name="m" unicode="m" horiz-adv-x="802" 
d="M145 0h-80.001v500h80v-49c24.667 38 66 57 124 57c68.667 0 117.334 -26.333 146.001 -79c34 52.667 84 79 150 79c54.667 0 97 -16.833 127 -50.5s45 -82.167 45 -145.5v-312h-80v311c0 82 -34.667 123 -104 123c-32 0 -58.667 -11.5 -80 -34.5s-32 -52.167 -32 -87.5
v-312h-80v311c0 82 -34.667 123 -104 123c-32 0 -58.667 -11.667 -80 -35s-32 -52.333 -32 -87v-312z" />
    <glyph glyph-name="n" unicode="n" horiz-adv-x="526" 
d="M145 0l-80 -0.000976562v500h80v-49c14 20.667 31 35.334 51 44.001s47.667 13 83 13c58 0 102.833 -16.167 134.5 -48.5s47.5 -81.5 47.5 -147.5v-312h-80v311c0 82 -38 123 -114 123c-36 0 -65.333 -11.333 -88 -34s-34 -52 -34 -88v-312z" />
    <glyph glyph-name="o" unicode="o" horiz-adv-x="496" 
d="M456 284v-66c0 -70 -17.667 -125.167 -53 -165.5s-87 -60.5 -155 -60.5c-65.333 0 -116.333 20 -153 60s-55 95.333 -55 166v66c0 70.667 18.333 125.667 55 165s87.667 59 153 59c66 0 117.167 -19.5 153.5 -58.5s54.5 -94.167 54.5 -165.5zM248 64
c40 0 71.333 14.333 94 43s34 65.667 34 111v66c0 48 -11.167 85.333 -33.5 112s-53.833 40 -94.5 40s-72.167 -13.5 -94.5 -40.5s-33.5 -64.167 -33.5 -111.5v-66c0 -47.333 10.833 -84.833 32.5 -112.5s53.5 -41.5 95.5 -41.5z" />
    <glyph glyph-name="p" unicode="p" horiz-adv-x="521" 
d="M145 500v-50c28 38.667 73.333 58 136 58s111.667 -19.5 147 -58.5s53 -94.167 53 -165.5v-66c0 -69.333 -17.333 -124.333 -52 -165s-84 -61 -148 -61c-62.667 0 -108 19.333 -136 58v-240h-80v690h80zM273 64c40 0 71.333 14.333 94 43s34 65.667 34 111v66
c0 48 -11.167 85.333 -33.5 112s-53.833 40 -94.5 40c-40 0 -71.333 -12.833 -94 -38.5s-34 -61.167 -34 -106.5v-73c0 -47.333 10.833 -84.833 32.5 -112.5s53.5 -41.5 95.5 -41.5z" />
    <glyph glyph-name="q" unicode="q" horiz-adv-x="521" 
d="M376 450v50h80v-690h-80v234c-26.667 -34.667 -72 -52 -136 -52s-113.333 20.333 -148 61s-52 95.667 -52 165v66c0 70.667 17.667 125.667 53 165s84.333 59 147 59s108 -19.333 136 -58zM248 64c41.333 0 73 13.168 95 39.501s33 62.166 33 107.499v73
c0 47.333 -11.167 84.5 -33.5 111.5s-53.833 40.5 -94.5 40.5s-72.167 -13.333 -94.5 -40s-33.5 -64 -33.5 -112v-66c0 -45.333 11.333 -82.333 34 -111s54 -43 94 -43z" />
    <glyph glyph-name="r" unicode="r" horiz-adv-x="394" 
d="M404 440l-68 -48c-20 28 -48 42 -84 42c-32 0 -57.833 -11.167 -77.5 -33.5s-29.5 -51.5 -29.5 -87.5v-313h-80v500h80v-49c23.333 38 62 57 116 57c63.333 0 111 -22.667 143 -68z" />
    <glyph glyph-name="s" unicode="s" horiz-adv-x="466" 
d="M406 425l-59.9971 -42.002c-14 18.667 -30 31.834 -48 39.501s-43.333 11.5 -76 11.5c-30 0 -53.667 -5.83301 -71 -17.5s-26 -28.167 -26 -49.5c0 -47.333 38.667 -73.666 116 -78.999c51.333 -4 92.666 -15.333 123.999 -34c37.333 -20.667 56 -59 56 -115
c0 -46.667 -16 -82.834 -48 -108.501s-78.667 -38.5 -140 -38.5c-88.667 0 -153 27.667 -193 83l59 42c14 -18 31.167 -31 51.5 -39s48.166 -12 83.499 -12c33.333 0 59.5 6.16699 78.5 18.5s28.5 29.833 28.5 52.5c0 26.667 -9.33301 45.834 -28 57.501
s-52.334 19.167 -101.001 22.5c-111.333 8 -167 57.667 -167 149c0 43.333 15.667 77.833 47 103.5s75.333 38.5 132 38.5c86 0 146.667 -27.667 182 -83z" />
    <glyph glyph-name="t" unicode="t" horiz-adv-x="315" 
d="M85 428h-63.999v72h64v110h80v-110h115v-72h-115v-254c0 -38.667 4.66699 -64.667 14 -78s29.666 -20 60.999 -20h40v-76h-43c-56.667 -0 -96.167 11.833 -118.5 35.5s-33.5 63.167 -33.5 118.5v274z" />
    <glyph glyph-name="u" unicode="u" horiz-adv-x="526" 
d="M381 500l80 0.000976562v-500h-80v49c-14 -20.667 -31 -35.334 -51 -44.001s-47.667 -13 -83 -13c-58 0 -102.833 16.167 -134.5 48.5s-47.5 81.5 -47.5 147.5v312h80v-311c0 -82 38 -123 114 -123c36 0 65.333 11.333 88 34s34 52 34 88v312z" />
    <glyph glyph-name="v" unicode="v" horiz-adv-x="504" 
d="M252 102l152 398h90l-200 -500h-80l-204 500h90z" />
    <glyph glyph-name="w" unicode="w" horiz-adv-x="716" 
d="M491 0l-133 374l-133 -374h-70l-145 500h85l100 -351l126 351h67l133 -354l100 354h85l-145 -500h-70z" />
    <glyph glyph-name="x" unicode="x" horiz-adv-x="478" 
d="M286 256l182 -256h-94l-135 186l-135 -186h-94l182 256l-162 244h94l115 -177l115 177h94z" />
    <glyph glyph-name="y" unicode="y" horiz-adv-x="466" 
d="M199 -12l2.00098 7l-196 505h86l149 -388l131 388h85l-176 -516l-20 -55c-14.667 -37.333 -30.334 -63 -47.001 -77c-32 -28 -79 -42 -141 -42v78c36 0 62.333 6.33301 79 19c18 12 34 39 48 81z" />
    <glyph glyph-name="z" unicode="z" horiz-adv-x="450" 
d="M41 0v62l264 366h-264v72h369v-62l-262 -366h262v-72h-369z" />
    <glyph glyph-name="braceleft" unicode="{" horiz-adv-x="317" 
d="M180 629v-213c0 -20 -3.5 -35.333 -10.5 -46s-18.5 -18.667 -34.5 -24c30 -10 45 -33.333 45 -70v-213c0 -34.667 6.16699 -57.667 18.5 -69s34.166 -17 65.499 -17h23v-72h-23c-55.333 0 -96.666 10.667 -123.999 32c-26.667 20.667 -40 61.667 -40 123v198
c0 18.667 -3.83301 32 -11.5 40s-20.5 12 -38.5 12h-19v72h19c18 0 30.833 4 38.5 12s11.5 21.333 11.5 40v198c0 61.333 13.333 102.333 40 123c27.333 21.333 68.666 32 123.999 32h23v-72h-23c-31.333 0 -53.166 -5.66699 -65.499 -17s-18.5 -34.333 -18.5 -69z" />
    <glyph glyph-name="bar" unicode="|" horiz-adv-x="255" 
d="M85 812h74v-928h-74v928z" />
    <glyph glyph-name="braceright" unicode="}" horiz-adv-x="317" 
d="M138 416v213c0 34.667 -6.16699 57.667 -18.5 69s-34.166 17 -65.499 17h-23v72h23c55.333 0 96.666 -10.667 123.999 -32c26.667 -20.667 40 -61.667 40 -123v-198c0 -18.667 3.83301 -32 11.5 -40s20.5 -12 38.5 -12h19v-72h-19c-18 0 -30.833 -4 -38.5 -12
s-11.5 -21.333 -11.5 -40v-198c0 -61.333 -13.333 -102.333 -40 -123c-27.333 -21.333 -68.666 -32 -123.999 -32h-23v72h23c31.333 0 53.166 5.66699 65.499 17s18.5 34.333 18.5 69v213c0 36.667 15 60 45 70c-16 5.33301 -27.5 13.333 -34.5 24s-10.5 26 -10.5 46z" />
    <glyph glyph-name="asciitilde" unicode="~" 
d="M333 277c-28.667 0 -59.332 7.66699 -91.999 23c-32 15.333 -57 23 -75 23c-40 0 -73.333 -16 -100 -48l-56 46c41.333 49.333 93.333 74 156 74c28.667 0 59 -7.66699 91 -23c32.667 -15.333 58 -23 76 -23c39.333 0 72.666 16 99.999 48l56 -46
c-41.333 -49.333 -93.333 -74 -156 -74z" />
    <glyph glyph-name="uni00A0" unicode="&#xa0;" horiz-adv-x="250" 
 />
    <glyph glyph-name="exclamdown" unicode="&#xa1;" horiz-adv-x="216" 
d="M151 -190h-86v501h86v-501zM60 500h96v-96h-96v96z" />
    <glyph glyph-name="cent" unicode="&#xa2;" 
d="M367 120l62 -44c-25.333 -48 -71 -75.333 -137 -82v-110h-74v111c-56 6.66699 -99.667 29.834 -131 69.501s-47 90.834 -47 153.501v66c0 63.333 15.667 114.166 47 152.499s75 61.166 131 68.499v117h74v-117c60 -6.66699 105.667 -31.667 137 -75l-63 -44
c-23.333 33.333 -60 50 -110 50c-42.667 0 -76 -13.5 -100 -40.5s-36 -64.167 -36 -111.5v-66c0 -47.333 11.5 -84.833 34.5 -112.5s56.833 -41.5 101.5 -41.5c54.667 0 91.667 18.667 111 56z" />
    <glyph glyph-name="sterling" unicode="&#xa3;" 
d="M459 0h-437v78h71v240h-71v78h71v10c0 194.667 70 292 210 292c79.333 0 137 -28.667 173 -86l-74 -42c-25.333 33.333 -58.333 50 -99 50c-44 0 -75.667 -16.5 -95 -49.5s-29 -87.833 -29 -164.5v-10h156v-78h-156v-240h280v-78z" />
    <glyph glyph-name="currency" unicode="&#xa4;" 
d="M50 366c0 40 10.667 76.668 32 110.001l-68 68l57 57l67 -68c34.667 22.667 71.667 34 111 34c40.667 0 77.334 -11.333 110.001 -34l69 69l57 -57l-69 -69c22.667 -32.667 34 -69.334 34 -110.001c0 -39.333 -11.333 -76.333 -34 -111l69 -68l-57 -57l-69 68
c-33.333 -21.333 -70 -32 -110 -32c-40.667 0 -77.334 11 -110.001 33l-68 -68l-57 57l68 68c-21.333 31.333 -32 68 -32 110zM168 449.001c-21.333 -23.333 -32 -51 -32 -83s10.667 -59.667 32 -83c22 -22.667 49 -34 81 -34s59 11.333 81 34c22.667 23.333 34 51 34 83
s-11.333 59.667 -34 83c-22 23.333 -49 35 -81 35s-59 -11.667 -81 -35z" />
    <glyph glyph-name="yen" unicode="&#xa5;" 
d="M57 146v78h140v72h-140v78h97l-129 316h93l122 -311l139 311h96l-150 -316h98v-78h-140v-72h140v-78h-140v-146h-86v146h-140z" />
    <glyph glyph-name="brokenbar" unicode="&#xa6;" horiz-adv-x="246" 
d="M80 243h86v-243h-86v243zM80 690h86v-243h-86v243z" />
    <glyph glyph-name="section" unicode="&#xa7;" horiz-adv-x="499" 
d="M79 -47l86.001 -0.000976562c2.66699 -22.667 10.167 -39.334 22.5 -50.001s32.5 -16 60.5 -16c28.667 0 50.5 6 65.5 18s22.5 28.667 22.5 50c0 22 -8.16699 40 -24.5 54s-43.5 26.333 -81.5 37c-10.667 3.33301 -22.667 6.66602 -36 9.99902
c-30.667 10 -53.667 20.333 -69 31c-27.333 20.667 -45.333 40.334 -54 59.001c-14 32 -21 66.667 -21 104c0 79.333 33.667 133.666 101 162.999c-52.667 28.667 -79 71.667 -79 129c0 44 16 79.833 48 107.5s74 41.5 126 41.5c109.333 0 165.666 -48 168.999 -144h-86
c-2.66699 22.667 -10.167 39.334 -22.5 50.001s-32.5 16 -60.5 16c-28.667 0 -50.5 -6 -65.5 -18s-22.5 -28.667 -22.5 -50c0 -22 8.16699 -40 24.5 -54s43.5 -26.333 81.5 -37l35 -11c5.33301 -0.666992 16.666 -4.66699 33.999 -12c15.333 -6.66699 27 -12.667 35 -18
c28.667 -21.333 47 -40 55 -56c14 -29.333 21 -62.333 21 -99v-8c0 -39.333 -9 -73.166 -27 -101.499s-43 -49.166 -75 -62.499c53.333 -27.333 80 -70 80 -128c0 -44 -16 -79.833 -48 -107.5s-74 -41.5 -126 -41.5c-109.333 0 -165.666 48 -168.999 144zM357.001 249.999
l-0.000976562 17.002c0 29.333 -10.167 52.333 -30.5 69s-46.833 25 -79.5 25c-35.333 0 -62.666 -9.83301 -81.999 -29.5s-29 -46.834 -29 -81.501v-15c0 -30 10 -53.5 30 -70.5s47 -25.5 81 -25.5c34.667 0 61.667 9.66699 81 29s29 46.666 29 81.999z" />
    <glyph glyph-name="dieresis" unicode="&#xa8;" horiz-adv-x="413" 
d="M146 600h-90v90h90v-90zM356 600h-90v90h90v-90z" />
    <glyph glyph-name="copyright" unicode="&#xa9;" horiz-adv-x="980" 
d="M178 -62c-85.333 85.333 -128 189.333 -128 312s42.667 226.667 128 312c86.667 85.333 190.667 128 312 128c122 0 225.667 -42.667 311 -128c86 -85.333 129 -189.333 129 -312s-43 -226.667 -129 -312c-85.333 -85.333 -189 -128 -311 -128
c-121.333 0 -225.333 42.667 -312 128zM234 511c-69.333 -71.333 -104 -158.333 -104 -261s34.667 -189.667 104 -261c70 -72 155.333 -108 256 -108c101.333 0 186.333 36 255 108c70 71.333 105 158.333 105 261s-35 189.667 -105 261
c-69.333 71.333 -154.333 107 -255 107s-186 -35.667 -256 -107zM609 120l61.998 -44c-30 -56 -87.667 -84 -173 -84c-67.333 0 -120.166 20.167 -158.499 60.5s-57.5 95.5 -57.5 165.5v66c0 70.667 19 125.667 57 165s91 59 159 59c78.667 0 136.334 -26 173.001 -78
l-63 -44c-23.333 33.333 -60 50 -110 50c-42.667 0 -76 -13.5 -100 -40.5s-36 -64.167 -36 -111.5v-66c0 -47.333 11.5 -84.833 34.5 -112.5s56.833 -41.5 101.5 -41.5c54.667 0 91.667 18.667 111 56z" />
    <glyph glyph-name="ordfeminine" unicode="&#xaa;" horiz-adv-x="316" 
d="M25 466c0 61.333 39.333 92 118 92h75v28c0 21.333 -5.16699 36.166 -15.5 44.499s-28.5 12.5 -54.5 12.5c-20 0 -35.167 -2.5 -45.5 -7.5s-19.833 -14.5 -28.5 -28.5l-42 30c22.667 36.667 61.667 55 117 55c42 0 73 -8 93 -24s30 -41.667 30 -77v-217h-54v30
c-8 -13.333 -17.667 -22.333 -29 -27s-28.333 -7 -51 -7c-36.667 0 -64.667 8.33301 -84 25s-29 40.334 -29 71.001zM218 496v16.001h-72c-24 0 -41.167 -3.83301 -51.5 -11.5s-15.5 -19.834 -15.5 -36.501c0 -30 20.667 -45 62 -45c26.667 0 46.167 5.66699 58.5 17
s18.5 31.333 18.5 60z" />
    <glyph glyph-name="guillemotleft" unicode="&#xab;" horiz-adv-x="519" 
d="M262 52l-232 231l232 231v-102l-130 -129l130 -129v-102zM464 52l-232 231l232 231v-102l-130 -129l130 -129v-102z" />
    <glyph glyph-name="logicalnot" unicode="&#xac;" 
d="M457 392v-205h-74v127h-359v78h433z" />
    <glyph glyph-name="uni00AD" unicode="&#xad;" horiz-adv-x="319" 
d="M289 253h-259v72h259v-72z" />
    <glyph glyph-name="registered" unicode="&#xae;" horiz-adv-x="576" 
d="M109 322c-49.333 50.667 -73.999 110.334 -73.999 179.001c0 69.333 24.667 128.666 74 177.999c50 50 109.667 75 179 75s128.666 -25 177.999 -75c50 -48.667 75 -108 75 -178c0 -69.333 -25 -129 -75 -179c-49.333 -49.333 -108.666 -74 -177.999 -74
c-68.667 0 -128.334 24.667 -179.001 74zM149.001 639c-38 -38 -56.999 -84 -56.999 -138s19 -100.333 57 -139c39.333 -38 85.666 -57 138.999 -57c54 0 100 19 138 57c38.667 38.667 58 85 58 139s-19.333 100 -58 138c-38 38.667 -84 58 -138 58
s-100.333 -19.333 -139 -58zM238.002 471v-97h-52v261h107c31.333 0 55.333 -7.5 72 -22.5s25 -33.833 25 -56.5c0 -38.667 -18.667 -64.667 -56 -78l69 -104h-59l-64 97h-42zM238.002 590v-75h44c37.333 0 56 13.333 56 40c0 23.333 -17 35 -51 35h-49z" />
    <glyph glyph-name="overscore" unicode="&#xaf;" horiz-adv-x="398" 
d="M333 600h-269v72h269v-72z" />
    <glyph glyph-name="degree" unicode="&#xb0;" horiz-adv-x="308" 
d="M59 463c-26 26 -38.998 58 -38.998 96s13 69.667 39 95c26 26 57.667 39 95 39s69 -13 95 -39c26 -25.333 39 -57 39 -95s-13 -70 -39 -96c-26.667 -25.333 -58.334 -38 -95.001 -38s-68.334 12.667 -95.001 38zM88.002 559c0 -19.333 6.33301 -35.5 19 -48.5
s28.334 -19.5 47.001 -19.5s34.167 6.5 46.5 19.5s18.5 29.167 18.5 48.5s-6.16699 35.333 -18.5 48s-27.833 19 -46.5 19s-34.334 -6.5 -47.001 -19.5s-19 -28.833 -19 -47.5z" />
    <glyph glyph-name="plusminus" unicode="&#xb1;" 
d="M214 358h-158v72h158v159h72v-159h159v-72h-159v-128h-72v128zM445 128h-389v72h389v-72z" />
    <glyph glyph-name="twosuperior" unicode="&#xb2;" horiz-adv-x="278" 
d="M109 424l135.999 -0.000976562v-50h-207v50l107 102c26.667 26 40 49.333 40 70c0 14 -4.16699 25.333 -12.5 34s-18.833 13 -31.5 13c-14 0 -25.667 -4.33301 -35 -13s-14.333 -20 -15 -34h-52c0 28 9.83301 51.167 29.5 69.5s43.834 27.5 72.501 27.5
c30 0 53.833 -8.16699 71.5 -24.5s26.5 -39.166 26.5 -68.499c0 -34.667 -18 -69 -54 -103z" />
    <glyph glyph-name="threesuperior" unicode="&#xb3;" horiz-adv-x="301" 
d="M127 512l-18.998 0.000976562v50h19c39.333 0 59 14.333 59 43c0 12 -4 21.333 -12 28s-18.333 10 -31 10c-27.333 0 -43.666 -12.667 -48.999 -38h-54c0 24.667 9.83301 45.5 29.5 62.5s44.167 25.5 73.5 25.5s52.666 -7.5 69.999 -22.5s26 -35.5 26 -61.5
c0 -32.667 -17.333 -56.334 -52 -71.001c17.333 -4.66699 31.333 -13.667 42 -27s16 -29.333 16 -48c0 -28 -9.33301 -50.333 -28 -67s-43.334 -25 -74.001 -25s-55.834 8.5 -75.501 25.5s-30.167 38.5 -31.5 64.5h55c4.66699 -26.667 22 -40 52 -40c32 0 48 14.667 48 44
c0 31.333 -21.333 47 -64 47z" />
    <glyph glyph-name="acute" unicode="&#xb4;" horiz-adv-x="365" 
d="M174 567h-75l70 158h96z" />
    <glyph glyph-name="mu" unicode="&#x3bc;" 
d="M134 21v-157.999h-80v637h80v-309c0 -83.333 38 -125 114 -125c36 0 65.333 11.333 88 34s34 52 34 88v312h80v-500h-80v49c-14 -20.667 -31 -35.334 -51 -44.001s-47.667 -13 -83 -13c-44.667 0 -78.667 9.66699 -102 29z" />
    <glyph glyph-name="mu" unicode="&#xb5;" 
d="M134 21v-157.999h-80v637h80v-309c0 -83.333 38 -125 114 -125c36 0 65.333 11.333 88 34s34 52 34 88v312h80v-500h-80v49c-14 -20.667 -31 -35.334 -51 -44.001s-47.667 -13 -83 -13c-44.667 0 -78.667 9.66699 -102 29z" />
    <glyph glyph-name="paragraph" unicode="&#xb6;" horiz-adv-x="595" 
d="M235 690l260 -0.000976562v-880h-86v802h-88v-802h-86v500c-53.333 0 -98.333 18.333 -135 55s-55 81.667 -55 135c0 52.667 18.333 97.334 55 134.001c37.333 37.333 82.333 56 135 56z" />
    <glyph glyph-name="middot" unicode="&#xb7;" horiz-adv-x="216" 
d="M60 396h96v-96h-96v96z" />
    <glyph glyph-name="cedilla" unicode="&#xb8;" horiz-adv-x="343" 
d="M120 -69l18.999 94l57 -3l-13 -45c41.333 -11.333 62 -36 62 -74c0 -25.333 -10.167 -45.333 -30.5 -60s-47.166 -22 -80.499 -22c-16.667 0 -29 1 -37 3l12 52c2.66699 -0.666992 9 -1 19 -1c31.333 0 47 9.33301 47 28s-18.333 28 -55 28z" />
    <glyph glyph-name="onesuperior" unicode="&#xb9;" horiz-adv-x="277" 
d="M127 690h54v-316h-54v254l-57 -41v60z" />
    <glyph glyph-name="ordmasculine" unicode="&#xba;" horiz-adv-x="337" 
d="M301 555v-45c0 -42.667 -11.5 -76.5 -34.5 -101.5s-55.833 -37.5 -98.5 -37.5c-40.667 0 -72.834 12.5 -96.501 37.5s-35.5 58.833 -35.5 101.5v45c0 43.333 11.833 77.166 35.5 101.499s55.834 36.5 96.501 36.5c41.333 0 73.833 -12.167 97.5 -36.5
s35.5 -58.166 35.5 -101.499zM168 421c24.667 0 44 7.83301 58 23.5s21 37.5 21 65.5v45c0 58.667 -26.333 88 -79 88c-52 0 -78 -29.333 -78 -88v-45c0 -59.333 26 -89 78 -89z" />
    <glyph glyph-name="guillemotright" unicode="&#xbb;" horiz-adv-x="519" 
d="M257 412v102l232 -231l-232 -231v102l130 129zM55 412v102l232 -231l-232 -231v102l130 129z" />
    <glyph glyph-name="onequarter" unicode="&#xbc;" horiz-adv-x="604" 
d="M111 690h54v-316h-54v254l-57 -41v60zM309 104l131 212h64l-123 -205h85v56h54v-56h39v-50h-39v-61h-54v61h-157v43zM10 0l475 690h79l-474 -690h-80z" />
    <glyph glyph-name="onehalf" unicode="&#xbd;" horiz-adv-x="605" 
d="M111 690h54v-316h-54v254l-57 -41v60zM429 50l135.999 -0.000976562v-50h-207v50l107 102c26.667 26 40 49.333 40 70c0 14 -4.16699 25.333 -12.5 34s-18.833 13 -31.5 13c-14 0 -25.667 -4.33301 -35 -13s-14.333 -20 -15 -34h-52c0 28 9.83301 51.167 29.5 69.5
s43.834 27.5 72.501 27.5c30 0 53.833 -8.16699 71.5 -24.5s26.5 -39.166 26.5 -68.499c0 -34.667 -18 -69 -54 -103zM9.99902 -0.000976562l475 690h79l-474 -690h-80z" />
    <glyph glyph-name="threequarters" unicode="&#xbe;" horiz-adv-x="604" 
d="M109 512l-18.998 0.000976562v50h19c39.333 0 59 14.333 59 43c0 12 -4 21.333 -12 28s-18.333 10 -31 10c-27.333 0 -43.666 -12.667 -48.999 -38h-54c0 24.667 9.83301 45.5 29.5 62.5s44.167 25.5 73.5 25.5s52.666 -7.5 69.999 -22.5s26 -35.5 26 -61.5
c0 -32.667 -17.333 -56.334 -52 -71.001c17.333 -4.66699 31.333 -13.667 42 -27s16 -29.333 16 -48c0 -28 -9.33301 -50.333 -28 -67s-43.334 -25 -74.001 -25s-55.834 8.5 -75.501 25.5s-30.167 38.5 -31.5 64.5h55c4.66699 -26.667 22 -40 52 -40c32 0 48 14.667 48 44
c0 31.333 -21.333 47 -64 47zM309.002 104.001l131 212h64l-123 -205h85v56h54v-56h39v-50h-39v-61h-54v61h-157v43zM10.002 0.000976562l475 690h79l-474 -690h-80z" />
    <glyph glyph-name="questiondown" unicode="&#xbf;" horiz-adv-x="486" 
d="M212 274v37.002h80v-77c0 -29.333 -9.66699 -52.666 -29 -69.999l-49 -44c-28.667 -26 -48.834 -48.667 -60.501 -68s-17.5 -41 -17.5 -65c0 -32.667 10.833 -58.834 32.5 -78.501s48.167 -29.5 79.5 -29.5c32.667 0 59.5 9.66699 80.5 29s31.833 45.666 32.5 78.999h85
c0 -55.333 -19 -100 -57 -134s-85 -51 -141 -51c-57.333 0 -104.666 17.333 -141.999 52c-37.333 34 -56 79.667 -56 137c0 24 5.66699 49 17 75c12 25.333 24 44.333 36 57c8.66699 9.33301 25.667 26.666 51 51.999l29 28c11.333 12 19 22.5 23 31.5s6 22.167 6 39.5z
M300 404.002h-96v96h96v-96z" />
    <glyph glyph-name="Agrave" unicode="&#xc0;" horiz-adv-x="580" 
d="M154 158l-53 -158h-91l240 690h80l240 -690h-91l-53 158h-272zM399 236l-109 324l-109 -324h218zM141 876h100l80 -129h-77z" />
    <glyph glyph-name="Aacute" unicode="&#xc1;" horiz-adv-x="580" 
d="M154 158l-53 -158h-91l240 690h80l240 -690h-91l-53 158h-272zM399 236l-109 324l-109 -324h218zM333 747h-77l80 129h100z" />
    <glyph glyph-name="Acircumflex" unicode="&#xc2;" horiz-adv-x="580" 
d="M154 158l-53 -158h-91l240 690h80l240 -690h-91l-53 158h-272zM399 236l-109 324l-109 -324h218zM106 737l138 142h92l138 -142h-97l-87 91l-87 -91h-97z" />
    <glyph glyph-name="Atilde" unicode="&#xc3;" horiz-adv-x="580" 
d="M154 158l-53 -158h-91l240 690h80l240 -690h-91l-53 158h-272zM399 236l-109 324l-109 -324h218zM348 762c-15.333 0 -34.998 4.33301 -58.998 13c-24.667 9.33301 -43.334 14 -56.001 14c-22 0 -41.667 -8.66699 -59 -26l-47 49c29.333 33.333 64.666 50 105.999 50
c12.667 0 32 -4.66699 58 -14c24 -8.66699 43.333 -13 58 -13c20.667 0 39.667 8.66699 57 26l47 -49c-29.333 -33.333 -64.333 -50 -105 -50z" />
    <glyph glyph-name="Adieresis" unicode="&#xc4;" horiz-adv-x="580" 
d="M154 158l-53 -158h-91l240 690h80l240 -690h-91l-53 158h-272zM399 236l-109 324l-109 -324h218zM230 779h-90v90h90v-90zM440 779h-90v90h90v-90z" />
    <glyph glyph-name="Aring" unicode="&#xc5;" horiz-adv-x="580" 
d="M154 158l-53 -158h-91l226 650c-36.667 18 -55 47 -55 87c0 29.333 10.333 53.166 31 71.499s46.667 27.5 78 27.5c32 0 58.333 -9.16699 79 -27.5s31 -42.166 31 -71.499c0 -40.667 -18.667 -69.667 -56 -87l226 -650h-91l-53 158h-272zM399 236l-109 324l-109 -324h218
zM233 737c0 -14 5.33105 -25.333 15.998 -34s24.334 -13 41.001 -13s30.334 4.33301 41.001 13s16 20 16 34c2 19.333 -7 33.166 -27 41.499s-40 8.33301 -60 0s-29 -22.166 -27 -41.499z" />
    <glyph glyph-name="AE" unicode="&#xc6;" horiz-adv-x="857" 
d="M195 158l-88 -158h-97l391 690h416v-78h-330v-216h300v-78h-300v-240h330v-78h-416v158h-206zM401 528l-163 -292h163v292z" />
    <glyph glyph-name="Ccedilla" unicode="&#xc7;" horiz-adv-x="578" 
d="M268 -69l12.001 62c-153.333 7.33301 -230 112 -230 314v76c0 210 83.333 315 250 315c70 0 126.167 -18.833 168.5 -56.5s68.833 -93.167 79.5 -166.5h-84c-11.333 51.333 -30.333 88.333 -57 111s-62.334 34 -107.001 34c-55.333 0 -96.5 -19 -123.5 -57
s-40.5 -98 -40.5 -180v-76c0 -82 13.5 -142 40.5 -180s68.167 -57 123.5 -57c45.333 0 81.166 11.667 107.499 35s45.166 60 56.499 110h83c-19.333 -135.333 -89.666 -209 -210.999 -221l-5 -17c41.333 -11.333 62 -36 62 -74c0 -25.333 -10.167 -45.333 -30.5 -60
s-47.166 -22 -80.499 -22c-16.667 0 -29 1 -37 3l12 52c2.66699 -0.666992 9 -1 19 -1c31.333 0 47 9.33301 47 28s-18.333 28 -55 28z" />
    <glyph glyph-name="Egrave" unicode="&#xc8;" horiz-adv-x="541" 
d="M85 0v690h416v-78h-330v-216h300v-78h-300v-240h330v-78h-416zM173 876h100l80 -129h-77z" />
    <glyph glyph-name="Eacute" unicode="&#xc9;" horiz-adv-x="541" 
d="M85 0v690h416v-78h-330v-216h300v-78h-300v-240h330v-78h-416zM322 747h-77l80 129h100z" />
    <glyph glyph-name="Ecircumflex" unicode="&#xca;" horiz-adv-x="541" 
d="M85 0v690h416v-78h-330v-216h300v-78h-300v-240h330v-78h-416zM109 737l138 142h92l138 -142h-97l-87 91l-87 -91h-97z" />
    <glyph glyph-name="Edieresis" unicode="&#xcb;" horiz-adv-x="541" 
d="M85 0v690h416v-78h-330v-216h300v-78h-300v-240h330v-78h-416zM233 779h-90v90h90v-90zM443 779h-90v90h90v-90z" />
    <glyph glyph-name="Igrave" unicode="&#xcc;" horiz-adv-x="276" 
d="M95 690h86v-690h-86v690zM2 876h100l80 -129h-77z" />
    <glyph glyph-name="Iacute" unicode="&#xcd;" horiz-adv-x="276" 
d="M95 690h86v-690h-86v690zM172 747h-77l80 129h100z" />
    <glyph glyph-name="Icircumflex" unicode="&#xce;" horiz-adv-x="276" 
d="M95 690h86v-690h-86v690zM-46 737l138 142h92l138 -142h-97l-87 91l-87 -91h-97z" />
    <glyph glyph-name="Idieresis" unicode="&#xcf;" horiz-adv-x="276" 
d="M95 690h86v-690h-86v690zM78 779h-90v90h90v-90zM288 779h-90v90h90v-90z" />
    <glyph glyph-name="Eth" unicode="&#xd0;" horiz-adv-x="613" 
d="M313 0h-220v318h-103v78h103v294h220c166.667 0 250 -103 250 -309v-72c0 -206 -83.333 -309 -250 -309zM179 78l134 0.00195312c56 0 97.333 18.167 124 54.5s40 95.166 40 176.499v72c0 81.333 -13.333 140.166 -40 176.499s-68 54.5 -124 54.5h-134v-216h180v-78h-180
v-240z" />
    <glyph glyph-name="Ntilde" unicode="&#xd1;" horiz-adv-x="638" 
d="M467 163v527h86v-690h-84l-298 522v-522h-86v690h82zM377 762c-15.333 0 -34.9971 4.33301 -58.9971 13c-24.667 9.33301 -43.334 14 -56.001 14c-22 0 -41.667 -8.66699 -59 -26l-47 49c29.333 33.333 64.666 50 105.999 50c14 0 33.333 -4.66699 58 -14
c23.333 -8.66699 42.666 -13 57.999 -13c20.667 0 39.667 8.66699 57 26l47 -49c-29.333 -33.333 -64.333 -50 -105 -50z" />
    <glyph glyph-name="Ograve" unicode="&#xd2;" horiz-adv-x="600" 
d="M550 383v-76c0 -210 -83.333 -315 -250 -315s-250 105 -250 315v76c0 210 83.333 315 250 315s250 -105 250 -315zM136 383v-76c0 -82 13.5 -142 40.5 -180s68.167 -57 123.5 -57s96.5 19 123.5 57s40.5 98 40.5 180v76c0 82 -13.5 142 -40.5 180s-68.167 57 -123.5 57
s-96.5 -19 -123.5 -57s-40.5 -98 -40.5 -180zM180 876h100l80 -129h-77z" />
    <glyph glyph-name="Oacute" unicode="&#xd3;" horiz-adv-x="600" 
d="M550 383v-76c0 -210 -83.333 -315 -250 -315s-250 105 -250 315v76c0 210 83.333 315 250 315s250 -105 250 -315zM136 383v-76c0 -82 13.5 -142 40.5 -180s68.167 -57 123.5 -57s96.5 19 123.5 57s40.5 98 40.5 180v76c0 82 -13.5 142 -40.5 180s-68.167 57 -123.5 57
s-96.5 -19 -123.5 -57s-40.5 -98 -40.5 -180zM305 747h-77l80 129h100z" />
    <glyph glyph-name="Ocircumflex" unicode="&#xd4;" horiz-adv-x="600" 
d="M550 383v-76c0 -210 -83.333 -315 -250 -315s-250 105 -250 315v76c0 210 83.333 315 250 315s250 -105 250 -315zM136 383v-76c0 -82 13.5 -142 40.5 -180s68.167 -57 123.5 -57s96.5 19 123.5 57s40.5 98 40.5 180v76c0 82 -13.5 142 -40.5 180s-68.167 57 -123.5 57
s-96.5 -19 -123.5 -57s-40.5 -98 -40.5 -180zM116 737l138 142h92l138 -142h-97l-87 91l-87 -91h-97z" />
    <glyph glyph-name="Otilde" unicode="&#xd5;" horiz-adv-x="600" 
d="M550 383v-76c0 -210 -83.333 -315 -250 -315s-250 105 -250 315v76c0 210 83.333 315 250 315s250 -105 250 -315zM136 383v-76c0 -82 13.5 -142 40.5 -180s68.167 -57 123.5 -57s96.5 19 123.5 57s40.5 98 40.5 180v76c0 82 -13.5 142 -40.5 180s-68.167 57 -123.5 57
s-96.5 -19 -123.5 -57s-40.5 -98 -40.5 -180zM357 762c-15.333 0 -34.9971 4.33301 -58.9971 13c-24.667 9.33301 -43.334 14 -56.001 14c-22 0 -41.667 -8.66699 -59 -26l-47 49c29.333 33.333 64.666 50 105.999 50c14 0 33.333 -4.66699 58 -14
c23.333 -8.66699 42.666 -13 57.999 -13c20.667 0 39.667 8.66699 57 26l47 -49c-29.333 -33.333 -64.333 -50 -105 -50z" />
    <glyph glyph-name="Odieresis" unicode="&#xd6;" horiz-adv-x="600" 
d="M550 383v-76c0 -210 -83.333 -315 -250 -315s-250 105 -250 315v76c0 210 83.333 315 250 315s250 -105 250 -315zM136 383v-76c0 -82 13.5 -142 40.5 -180s68.167 -57 123.5 -57s96.5 19 123.5 57s40.5 98 40.5 180v76c0 82 -13.5 142 -40.5 180s-68.167 57 -123.5 57
s-96.5 -19 -123.5 -57s-40.5 -98 -40.5 -180zM240 779h-90v90h90v-90zM450 779h-90v90h90v-90z" />
    <glyph glyph-name="multiply" unicode="&#xd7;" 
d="M250 303l-126 -126l-51 51l126 126l-126 127l50 50l127 -127l127 127l50 -50l-127 -127l127 -126l-51 -51z" />
    <glyph glyph-name="Oslash" unicode="&#xd8;" horiz-adv-x="600" 
d="M220 2l-43 -118.001h-77l54 149c-69.333 48 -104 139.333 -104 274v76c0 210 83.333 315 250 315c32 0 62 -4.33301 90 -13l46 127h77l-59 -161c64 -51.333 96 -140.666 96 -267.999v-76c0 -210 -83.333 -315 -250 -315c-27.333 0 -54 3.33301 -80 10zM136 382.999v-76
c0 -88.667 16 -152 48 -190l179 493c-17.333 6.66699 -38.333 10 -63 10c-55.333 0 -96.5 -19 -123.5 -57s-40.5 -98 -40.5 -180zM464 306.999v76.001c0 81.333 -13.667 141.666 -41 180.999l-176 -488c16 -4 33.667 -6 53 -6c55.333 0 96.5 19 123.5 57s40.5 98 40.5 180z
" />
    <glyph glyph-name="Ugrave" unicode="&#xd9;" horiz-adv-x="670" 
d="M499 280v409.999h86v-409c0 -96.667 -21.5 -169 -64.5 -217s-104.833 -72 -185.5 -72s-142.5 23.833 -185.5 71.5s-64.5 119.834 -64.5 216.501v410h86v-410c0 -72.667 13.5 -125.834 40.5 -159.501s68.167 -50.5 123.5 -50.5s96.5 16.833 123.5 50.5
s40.5 86.834 40.5 159.501zM218 875.999h100l80 -129h-77z" />
    <glyph glyph-name="Uacute" unicode="&#xda;" horiz-adv-x="670" 
d="M499 280v409.999h86v-409c0 -96.667 -21.5 -169 -64.5 -217s-104.833 -72 -185.5 -72s-142.5 23.833 -185.5 71.5s-64.5 119.834 -64.5 216.501v410h86v-410c0 -72.667 13.5 -125.834 40.5 -159.501s68.167 -50.5 123.5 -50.5s96.5 16.833 123.5 50.5
s40.5 86.834 40.5 159.501zM347 746.999h-77l80 129h100z" />
    <glyph glyph-name="Ucircumflex" unicode="&#xdb;" horiz-adv-x="670" 
d="M499 280v409.999h86v-409c0 -96.667 -21.5 -169 -64.5 -217s-104.833 -72 -185.5 -72s-142.5 23.833 -185.5 71.5s-64.5 119.834 -64.5 216.501v410h86v-410c0 -72.667 13.5 -125.834 40.5 -159.501s68.167 -50.5 123.5 -50.5s96.5 16.833 123.5 50.5
s40.5 86.834 40.5 159.501zM151 736.999l138 142h92l138 -142h-97l-87 91l-87 -91h-97z" />
    <glyph glyph-name="Udieresis" unicode="&#xdc;" horiz-adv-x="670" 
d="M499 280v409.999h86v-409c0 -96.667 -21.5 -169 -64.5 -217s-104.833 -72 -185.5 -72s-142.5 23.833 -185.5 71.5s-64.5 119.834 -64.5 216.501v410h86v-410c0 -72.667 13.5 -125.834 40.5 -159.501s68.167 -50.5 123.5 -50.5s96.5 16.833 123.5 50.5
s40.5 86.834 40.5 159.501zM275 778.999h-90v90h90v-90zM485 778.999h-90v90h90v-90z" />
    <glyph glyph-name="Yacute" unicode="&#xdd;" horiz-adv-x="556" 
d="M235 296l-215 394h101l157 -300l157 300h101l-215 -394v-296h-86v296zM307 747h-77l80 129h100z" />
    <glyph glyph-name="Thorn" unicode="&#xde;" horiz-adv-x="588" 
d="M305 143l-134 0.000976562v-143h-86v690h86v-120h134c79.333 0 141 -18.833 185 -56.5s66 -90.167 66 -157.5c0 -66.667 -22 -118.834 -66 -156.501s-105.667 -56.5 -185 -56.5zM171 492.001v-271h134c110 0 165 45 165 135c0 90.667 -55 136 -165 136h-134z" />
    <glyph glyph-name="germandbls" unicode="&#xdf;" horiz-adv-x="527" 
d="M462 564c0 -46 -20.335 -78.332 -61.002 -96.999c22.667 -8 38.5 -20.833 47.5 -38.5s13.5 -43.167 13.5 -76.5v-212c0 -57.333 -11 -95 -33 -113c-21.333 -18 -60 -27 -116 -27h-40v72h40c24.667 0 42.334 5 53.001 15s16 27.667 16 53v212c0 28.667 -5 48.5 -15 59.5
s-28 16.5 -54 16.5h-40v72h40c46 0 69 19.667 69 59c0 20.667 -9 37 -27 49s-45.333 18 -82 18c-44.667 0 -77.167 -10.333 -97.5 -31s-30.5 -55.334 -30.5 -104.001v-491h-80v499c0 132.667 69.333 199 208 199c62.667 0 109.834 -12.333 141.501 -37s47.5 -57 47.5 -97z
" />
    <glyph glyph-name="agrave" unicode="&#xe0;" horiz-adv-x="491" 
d="M40 146c0 95.333 62.3311 143.002 186.998 143.002h119v58c0 33.333 -8.16699 56.166 -24.5 68.499s-45.166 18.5 -86.499 18.5c-34.667 0 -60 -3.33301 -76 -10s-30.667 -20.334 -44 -41.001l-60 42c18 30 40.833 51.333 68.5 64s65.167 19 112.5 19
c66.667 0 115 -12.333 145 -37s45 -66 45 -124v-347h-80v49c-13.333 -22 -29.166 -37 -47.499 -45s-44.833 -12 -79.5 -12c-57.333 0 -101.5 13.5 -132.5 40.5s-46.5 64.833 -46.5 113.5zM345.998 192.002v29h-119c-37.333 0 -64.5 -6.16699 -81.5 -18.5
s-25.5 -31.833 -25.5 -58.5c0 -52 33 -78 99 -78c42 0 73.667 8 95 24c21.333 17.333 32 51.333 32 102zM139.998 725.002h96l70 -158h-75z" />
    <glyph glyph-name="aacute" unicode="&#xe1;" horiz-adv-x="491" 
d="M40 146c0 95.333 62.3311 143.002 186.998 143.002h119v58c0 33.333 -8.16699 56.166 -24.5 68.499s-45.166 18.5 -86.499 18.5c-34.667 0 -60 -3.33301 -76 -10s-30.667 -20.334 -44 -41.001l-60 42c18 30 40.833 51.333 68.5 64s65.167 19 112.5 19
c66.667 0 115 -12.333 145 -37s45 -66 45 -124v-347h-80v49c-13.333 -22 -29.166 -37 -47.499 -45s-44.833 -12 -79.5 -12c-57.333 0 -101.5 13.5 -132.5 40.5s-46.5 64.833 -46.5 113.5zM345.998 192.002v29h-119c-37.333 0 -64.5 -6.16699 -81.5 -18.5
s-25.5 -31.833 -25.5 -58.5c0 -52 33 -78 99 -78c42 0 73.667 8 95 24c21.333 17.333 32 51.333 32 102zM275.998 567.002h-75l70 158h96z" />
    <glyph glyph-name="acircumflex" unicode="&#xe2;" horiz-adv-x="491" 
d="M40 146c0 95.333 62.3311 143.002 186.998 143.002h119v58c0 33.333 -8.16699 56.166 -24.5 68.499s-45.166 18.5 -86.499 18.5c-34.667 0 -60 -3.33301 -76 -10s-30.667 -20.334 -44 -41.001l-60 42c18 30 40.833 51.333 68.5 64s65.167 19 112.5 19
c66.667 0 115 -12.333 145 -37s45 -66 45 -124v-347h-80v49c-13.333 -22 -29.166 -37 -47.499 -45s-44.833 -12 -79.5 -12c-57.333 0 -101.5 13.5 -132.5 40.5s-46.5 64.833 -46.5 113.5zM345.998 192.002v29h-119c-37.333 0 -64.5 -6.16699 -81.5 -18.5
s-25.5 -31.833 -25.5 -58.5c0 -52 33 -78 99 -78c42 0 73.667 8 95 24c21.333 17.333 32 51.333 32 102zM93.998 558.002l108 142h92l108 -142h-82l-72 97l-72 -97h-82z" />
    <glyph glyph-name="atilde" unicode="&#xe3;" horiz-adv-x="491" 
d="M40 146c0 95.333 62.3311 143.002 186.998 143.002h119v58c0 33.333 -8.16699 56.166 -24.5 68.499s-45.166 18.5 -86.499 18.5c-34.667 0 -60 -3.33301 -76 -10s-30.667 -20.334 -44 -41.001l-60 42c18 30 40.833 51.333 68.5 64s65.167 19 112.5 19
c66.667 0 115 -12.333 145 -37s45 -66 45 -124v-347h-80v49c-13.333 -22 -29.166 -37 -47.499 -45s-44.833 -12 -79.5 -12c-57.333 0 -101.5 13.5 -132.5 40.5s-46.5 64.833 -46.5 113.5zM345.998 192.002v29h-119c-37.333 0 -64.5 -6.16699 -81.5 -18.5
s-25.5 -31.833 -25.5 -58.5c0 -52 33 -78 99 -78c42 0 73.667 8 95 24c21.333 17.333 32 51.333 32 102zM305.998 589.002c-15.333 0 -34.998 4.33301 -58.998 13c-24.667 9.33301 -43.334 14 -56.001 14c-22 0 -41.667 -8.66699 -59 -26l-47 44
c29.333 33.333 64.666 50 105.999 50c12.667 0 32 -4.66699 58 -14c24 -8.66699 43.333 -13 58 -13c20.667 0 39.667 8.66699 57 26l47 -44c-29.333 -33.333 -64.333 -50 -105 -50z" />
    <glyph glyph-name="adieresis" unicode="&#xe4;" horiz-adv-x="491" 
d="M40 146c0 95.333 62.3311 143.002 186.998 143.002h119v58c0 33.333 -8.16699 56.166 -24.5 68.499s-45.166 18.5 -86.499 18.5c-34.667 0 -60 -3.33301 -76 -10s-30.667 -20.334 -44 -41.001l-60 42c18 30 40.833 51.333 68.5 64s65.167 19 112.5 19
c66.667 0 115 -12.333 145 -37s45 -66 45 -124v-347h-80v49c-13.333 -22 -29.166 -37 -47.499 -45s-44.833 -12 -79.5 -12c-57.333 0 -101.5 13.5 -132.5 40.5s-46.5 64.833 -46.5 113.5zM345.998 192.002v29h-119c-37.333 0 -64.5 -6.16699 -81.5 -18.5
s-25.5 -31.833 -25.5 -58.5c0 -52 33 -78 99 -78c42 0 73.667 8 95 24c21.333 17.333 32 51.333 32 102zM181.998 600.002h-90v90h90v-90zM391.998 600.002h-90v90h90v-90z" />
    <glyph glyph-name="aring" unicode="&#xe5;" horiz-adv-x="491" 
d="M40 146c0 95.333 62.3311 143.002 186.998 143.002h119v58c0 33.333 -8.16699 56.166 -24.5 68.499s-45.166 18.5 -86.499 18.5c-34.667 0 -60 -3.33301 -76 -10s-30.667 -20.334 -44 -41.001l-60 42c18 30 40.833 51.333 68.5 64s65.167 19 112.5 19
c66.667 0 115 -12.333 145 -37s45 -66 45 -124v-347h-80v49c-13.333 -22 -29.166 -37 -47.499 -45s-44.833 -12 -79.5 -12c-57.333 0 -101.5 13.5 -132.5 40.5s-46.5 64.833 -46.5 113.5zM345.998 192.002v29h-119c-37.333 0 -64.5 -6.16699 -81.5 -18.5
s-25.5 -31.833 -25.5 -58.5c0 -52 33 -78 99 -78c42 0 73.667 8 95 24c21.333 17.333 32 51.333 32 102zM135.998 646.002c0 30.667 10.667 56.667 32 78s47 32 77 32c30.667 0 56.667 -10.667 78 -32s32 -47.333 32 -78c0 -30 -10.667 -55.667 -32 -77s-47.333 -32 -78 -32
c-30 0 -55.667 10.667 -77 32s-32 47 -32 77zM187.998 646.002c0 -15.333 5.66699 -28.666 17 -39.999s24.666 -17 39.999 -17c16 0 29.5 5.66699 40.5 17s16.5 24.666 16.5 39.999c0 16 -5.5 29.5 -16.5 40.5s-24.5 16.5 -40.5 16.5c-15.333 0 -28.666 -5.5 -39.999 -16.5
s-17 -24.5 -17 -40.5z" />
    <glyph glyph-name="ae" unicode="&#xe6;" horiz-adv-x="794" 
d="M673 120l61.998 -43.998c-17.333 -30 -39.833 -51.5 -67.5 -64.5s-63.5 -19.5 -107.5 -19.5c-80.667 0 -137.334 30.333 -170.001 91c-16 -33.333 -37.667 -56.833 -65 -70.5s-62.666 -20.5 -105.999 -20.5c-58 0 -102.333 13.333 -133 40s-46 64.334 -46 113.001
c0 96 62.333 144 187 144h119v58c0 33.333 -8.16699 56.166 -24.5 68.499s-45.166 18.5 -86.499 18.5c-34.667 0 -60 -3.33301 -76 -10s-30.667 -20.334 -44 -41.001l-60 42c18 30 40.833 51.333 68.5 64s65.167 19 112.5 19c82.667 0 136.667 -23.667 162 -71
c31.333 47.333 80 71 146 71c62.667 0 111.334 -18.167 146.001 -54.5s52 -87.5 52 -153.5v-70h-316v-10c0 -46.667 11.167 -84.334 33.5 -113.001s53.833 -43 94.5 -43c58 0 97.667 18.667 119 56zM345.998 194.002l-0.000976562 27.002h-119
c-37.333 0 -64.5 -6.33301 -81.5 -19s-25.5 -32.334 -25.5 -59.001c0 -51.333 33 -77 99 -77c42.667 0 74.334 8.33301 95.001 25c21.333 17.333 32 51.666 32 102.999zM543.997 436.004c-74 0 -113.333 -45.333 -118 -136h235c-4 90.667 -43 136 -117 136z" />
    <glyph glyph-name="ccedilla" unicode="&#xe7;" horiz-adv-x="444" 
d="M214 -69l11.9961 63c-59.333 5.33301 -105.166 27.833 -137.499 67.5s-48.5 91.834 -48.5 156.501v66c0 70.667 19 125.667 57 165s91 59 159 59c78.667 0 136.334 -26 173.001 -78l-63 -44c-23.333 33.333 -60 50 -110 50c-42.667 0 -76 -13.5 -100 -40.5
s-36 -64.167 -36 -111.5v-66c0 -47.333 11.5 -84.833 34.5 -112.5s56.833 -41.5 101.5 -41.5c54.667 0 91.667 18.667 111 56l62 -44c-27.333 -50.667 -76.666 -78.334 -147.999 -83.001l-4 -16c41.333 -11.333 62 -36 62 -74c0 -25.333 -10.167 -45.333 -30.5 -60
s-47.166 -22 -80.499 -22c-16.667 0 -29 1 -37 3l12 52c2.66699 -0.666992 9 -1 19 -1c31.333 0 47 9.33301 47 28s-18.333 28 -55 28z" />
    <glyph glyph-name="egrave" unicode="&#xe8;" horiz-adv-x="488" 
d="M367 120l62.001 -44c-17.333 -30 -39.833 -51.5 -67.5 -64.5s-63.5 -19.5 -107.5 -19.5c-66.667 0 -119 20.167 -157 60.5s-57 95.5 -57 165.5v66c0 72 17 127.333 51 166s83 58 147 58c65.333 0 114.666 -19.167 147.999 -57.5s50 -93.833 50 -166.5v-52h-316v-14
c0 -46.667 11 -84 33 -112s53.667 -42 95 -42c58 0 97.667 18.667 119 56zM238.001 436c-73.333 0 -112.667 -44.667 -118 -134h235c-4 89.333 -43 134 -117 134zM134 725h96l70 -158h-75z" />
    <glyph glyph-name="eacute" unicode="&#xe9;" horiz-adv-x="488" 
d="M367 120l62.001 -44c-17.333 -30 -39.833 -51.5 -67.5 -64.5s-63.5 -19.5 -107.5 -19.5c-66.667 0 -119 20.167 -157 60.5s-57 95.5 -57 165.5v66c0 72 17 127.333 51 166s83 58 147 58c65.333 0 114.666 -19.167 147.999 -57.5s50 -93.833 50 -166.5v-52h-316v-14
c0 -46.667 11 -84 33 -112s53.667 -42 95 -42c58 0 97.667 18.667 119 56zM238.001 436c-73.333 0 -112.667 -44.667 -118 -134h235c-4 89.333 -43 134 -117 134zM263 567h-75l70 158h96z" />
    <glyph glyph-name="ecircumflex" unicode="&#xea;" horiz-adv-x="488" 
d="M367 120l62.001 -44c-17.333 -30 -39.833 -51.5 -67.5 -64.5s-63.5 -19.5 -107.5 -19.5c-66.667 0 -119 20.167 -157 60.5s-57 95.5 -57 165.5v66c0 72 17 127.333 51 166s83 58 147 58c65.333 0 114.666 -19.167 147.999 -57.5s50 -93.833 50 -166.5v-52h-316v-14
c0 -46.667 11 -84 33 -112s53.667 -42 95 -42c58 0 97.667 18.667 119 56zM238.001 436c-73.333 0 -112.667 -44.667 -118 -134h235c-4 89.333 -43 134 -117 134zM84 558l108 142h92l108 -142h-82l-72 97l-72 -97h-82z" />
    <glyph glyph-name="edieresis" unicode="&#xeb;" horiz-adv-x="488" 
d="M367 120l62.001 -44c-17.333 -30 -39.833 -51.5 -67.5 -64.5s-63.5 -19.5 -107.5 -19.5c-66.667 0 -119 20.167 -157 60.5s-57 95.5 -57 165.5v66c0 72 17 127.333 51 166s83 58 147 58c65.333 0 114.666 -19.167 147.999 -57.5s50 -93.833 50 -166.5v-52h-316v-14
c0 -46.667 11 -84 33 -112s53.667 -42 95 -42c58 0 97.667 18.667 119 56zM238.001 436c-73.333 0 -112.667 -44.667 -118 -134h235c-4 89.333 -43 134 -117 134zM178 600h-90v90h90v-90zM388 600h-90v90h90v-90z" />
    <glyph glyph-name="igrave" unicode="&#xec;" horiz-adv-x="230" 
d="M155 0h-80v500h80v-500zM-11 725h96l70 -158h-75z" />
    <glyph glyph-name="iacute" unicode="&#xed;" horiz-adv-x="230" 
d="M155 0h-80v500h80v-500zM150 567h-75l70 158h96z" />
    <glyph glyph-name="icircumflex" unicode="&#xee;" horiz-adv-x="230" 
d="M155 0h-80v500h80v-500zM-39 558l108 142h92l108 -142h-82l-72 97l-72 -97h-82z" />
    <glyph glyph-name="idieresis" unicode="&#xef;" horiz-adv-x="230" 
d="M155 0h-80v500h80v-500zM55 600h-90v90h90v-90zM265 600h-90v90h90v-90z" />
    <glyph glyph-name="eth" unicode="&#xf0;" horiz-adv-x="496" 
d="M235 530l-61.999 36.001l30 52l-57 23l37 65l58 -25l36 61l61 -37l-32 -54c59.333 -30 98.666 -61.333 117.999 -94s30 -88.334 32 -167.001v-172c0 -70 -17.667 -125.167 -53 -165.5s-87 -60.5 -155 -60.5c-65.333 0 -116.333 20 -153 60s-55 95.333 -55 166v66
c0 70.667 18.333 125.667 55 165s87.667 59 153 59c57.333 0 100.333 -16 129 -48c-3.33301 30 -13 54.5 -29 73.5s-42.333 37.167 -79 54.5zM248.001 64.001c40 0 71.333 14.333 94 43s34 65.667 34 111v66c0 48 -11.167 85.333 -33.5 112s-53.833 40 -94.5 40
s-72.167 -13.5 -94.5 -40.5s-33.5 -64.167 -33.5 -111.5v-66c0 -47.333 10.833 -84.833 32.5 -112.5s53.5 -41.5 95.5 -41.5z" />
    <glyph glyph-name="ntilde" unicode="&#xf1;" horiz-adv-x="526" 
d="M145 0l-80 -0.000976562v500h80v-49c14 20.667 31 35.334 51 44.001s47.667 13 83 13c58 0 102.833 -16.167 134.5 -48.5s47.5 -81.5 47.5 -147.5v-312h-80v311c0 82 -38 123 -114 123c-36 0 -65.333 -11.333 -88 -34s-34 -52 -34 -88v-312zM321 588.999
c-15.333 0 -34.9971 4.33301 -58.9971 13c-24.667 9.33301 -43.334 14 -56.001 14c-22 0 -41.667 -8.66699 -59 -26l-47 44c29.333 33.333 64.666 50 105.999 50c14 0 33.333 -4.66699 58 -14c23.333 -8.66699 42.666 -13 57.999 -13c20.667 0 39.667 8.66699 57 26l47 -44
c-29.333 -33.333 -64.333 -50 -105 -50z" />
    <glyph glyph-name="ograve" unicode="&#xf2;" horiz-adv-x="496" 
d="M456 284v-66c0 -70 -17.667 -125.167 -53 -165.5s-87 -60.5 -155 -60.5c-65.333 0 -116.333 20 -153 60s-55 95.333 -55 166v66c0 70.667 18.333 125.667 55 165s87.667 59 153 59c66 0 117.167 -19.5 153.5 -58.5s54.5 -94.167 54.5 -165.5zM248 64
c40 0 71.333 14.333 94 43s34 65.667 34 111v66c0 48 -11.167 85.333 -33.5 112s-53.833 40 -94.5 40s-72.167 -13.5 -94.5 -40.5s-33.5 -64.167 -33.5 -111.5v-66c0 -47.333 10.833 -84.833 32.5 -112.5s53.5 -41.5 95.5 -41.5zM135 725h96l70 -158h-75z" />
    <glyph glyph-name="oacute" unicode="&#xf3;" horiz-adv-x="496" 
d="M456 284v-66c0 -70 -17.667 -125.167 -53 -165.5s-87 -60.5 -155 -60.5c-65.333 0 -116.333 20 -153 60s-55 95.333 -55 166v66c0 70.667 18.333 125.667 55 165s87.667 59 153 59c66 0 117.167 -19.5 153.5 -58.5s54.5 -94.167 54.5 -165.5zM248 64
c40 0 71.333 14.333 94 43s34 65.667 34 111v66c0 48 -11.167 85.333 -33.5 112s-53.833 40 -94.5 40s-72.167 -13.5 -94.5 -40.5s-33.5 -64.167 -33.5 -111.5v-66c0 -47.333 10.833 -84.833 32.5 -112.5s53.5 -41.5 95.5 -41.5zM270 567h-75l70 158h96z" />
    <glyph glyph-name="ocircumflex" unicode="&#xf4;" horiz-adv-x="496" 
d="M456 284v-66c0 -70 -17.667 -125.167 -53 -165.5s-87 -60.5 -155 -60.5c-65.333 0 -116.333 20 -153 60s-55 95.333 -55 166v66c0 70.667 18.333 125.667 55 165s87.667 59 153 59c66 0 117.167 -19.5 153.5 -58.5s54.5 -94.167 54.5 -165.5zM248 64
c40 0 71.333 14.333 94 43s34 65.667 34 111v66c0 48 -11.167 85.333 -33.5 112s-53.833 40 -94.5 40s-72.167 -13.5 -94.5 -40.5s-33.5 -64.167 -33.5 -111.5v-66c0 -47.333 10.833 -84.833 32.5 -112.5s53.5 -41.5 95.5 -41.5zM94 558l108 142h92l108 -142h-82l-72 97
l-72 -97h-82z" />
    <glyph glyph-name="otilde" unicode="&#xf5;" horiz-adv-x="496" 
d="M456 284v-66c0 -70 -17.667 -125.167 -53 -165.5s-87 -60.5 -155 -60.5c-65.333 0 -116.333 20 -153 60s-55 95.333 -55 166v66c0 70.667 18.333 125.667 55 165s87.667 59 153 59c66 0 117.167 -19.5 153.5 -58.5s54.5 -94.167 54.5 -165.5zM248 64
c40 0 71.333 14.333 94 43s34 65.667 34 111v66c0 48 -11.167 85.333 -33.5 112s-53.833 40 -94.5 40s-72.167 -13.5 -94.5 -40.5s-33.5 -64.167 -33.5 -111.5v-66c0 -47.333 10.833 -84.833 32.5 -112.5s53.5 -41.5 95.5 -41.5zM306 589
c-15.333 0 -34.998 4.33301 -58.998 13c-24.667 9.33301 -43.334 14 -56.001 14c-22 0 -41.667 -8.66699 -59 -26l-47 44c29.333 33.333 64.666 50 105.999 50c12.667 0 32 -4.66699 58 -14c24 -8.66699 43.333 -13 58 -13c20.667 0 39.667 8.66699 57 26l47 -44
c-29.333 -33.333 -64.333 -50 -105 -50z" />
    <glyph glyph-name="odieresis" unicode="&#xf6;" horiz-adv-x="496" 
d="M456 284v-66c0 -70 -17.667 -125.167 -53 -165.5s-87 -60.5 -155 -60.5c-65.333 0 -116.333 20 -153 60s-55 95.333 -55 166v66c0 70.667 18.333 125.667 55 165s87.667 59 153 59c66 0 117.167 -19.5 153.5 -58.5s54.5 -94.167 54.5 -165.5zM248 64
c40 0 71.333 14.333 94 43s34 65.667 34 111v66c0 48 -11.167 85.333 -33.5 112s-53.833 40 -94.5 40s-72.167 -13.5 -94.5 -40.5s-33.5 -64.167 -33.5 -111.5v-66c0 -47.333 10.833 -84.833 32.5 -112.5s53.5 -41.5 95.5 -41.5zM188 600h-90v90h90v-90zM398 600h-90v90h90
v-90z" />
    <glyph glyph-name="divide" unicode="&#xf7;" 
d="M444 318h-389v72h389v-72zM293 149h-90v90h90v-90zM293 469h-90v90h90v-90z" />
    <glyph glyph-name="oslash" unicode="&#xf8;" horiz-adv-x="496" 
d="M175 2l-36 -81h-77l51 114c-48.667 38.667 -73 99.667 -73 183v66c0 70.667 18.333 125.667 55 165s87.667 59 153 59c28 0 52 -3.33301 72 -10l38 84h77l-52 -116c48.667 -38 73 -98.667 73 -182v-66c0 -70 -17.667 -125.167 -53 -165.5s-87 -60.5 -155 -60.5
c-24.667 0 -49 3.33301 -73 10zM120 284v-66.001c0 -45.333 9 -80.666 27 -105.999l143 318c-13.333 4 -27.333 6 -42 6c-40.667 0 -72.167 -13.5 -94.5 -40.5s-33.5 -64.167 -33.5 -111.5zM248 63.999c40 0 71.333 14.333 94 43s34 65.667 34 111v66
c0 44 -9.33301 78.667 -28 104l-143 -319c16.667 -3.33301 31 -5 43 -5z" />
    <glyph glyph-name="ugrave" unicode="&#xf9;" horiz-adv-x="526" 
d="M381 500l80 0.000976562v-500h-80v49c-14 -20.667 -31 -35.334 -51 -44.001s-47.667 -13 -83 -13c-58 0 -102.833 16.167 -134.5 48.5s-47.5 81.5 -47.5 147.5v312h80v-311c0 -82 38 -123 114 -123c36 0 65.333 11.333 88 34s34 52 34 88v312zM167 725.001h96l70 -158
h-75z" />
    <glyph glyph-name="uacute" unicode="&#xfa;" horiz-adv-x="526" 
d="M381 500l80 0.000976562v-500h-80v49c-14 -20.667 -31 -35.334 -51 -44.001s-47.667 -13 -83 -13c-58 0 -102.833 16.167 -134.5 48.5s-47.5 81.5 -47.5 147.5v312h80v-311c0 -82 38 -123 114 -123c36 0 65.333 11.333 88 34s34 52 34 88v312zM294 567.001h-75l70 158h96
z" />
    <glyph glyph-name="ucircumflex" unicode="&#xfb;" horiz-adv-x="526" 
d="M381 500l80 0.000976562v-500h-80v49c-14 -20.667 -31 -35.334 -51 -44.001s-47.667 -13 -83 -13c-58 0 -102.833 16.167 -134.5 48.5s-47.5 81.5 -47.5 147.5v312h80v-311c0 -82 38 -123 114 -123c36 0 65.333 11.333 88 34s34 52 34 88v312zM109 558.001l108 142h92
l108 -142h-82l-72 97l-72 -97h-82z" />
    <glyph glyph-name="udieresis" unicode="&#xfc;" horiz-adv-x="526" 
d="M381 500l80 0.000976562v-500h-80v49c-14 -20.667 -31 -35.334 -51 -44.001s-47.667 -13 -83 -13c-58 0 -102.833 16.167 -134.5 48.5s-47.5 81.5 -47.5 147.5v312h80v-311c0 -82 38 -123 114 -123c36 0 65.333 11.333 88 34s34 52 34 88v312zM203 600.001h-90v90h90v-90
zM413 600.001h-90v90h90v-90z" />
    <glyph glyph-name="yacute" unicode="&#xfd;" horiz-adv-x="466" 
d="M199 -12l2.00098 7l-196 505h86l149 -388l131 388h85l-176 -516l-20 -55c-14.667 -37.333 -30.334 -63 -47.001 -77c-32 -28 -79 -42 -141 -42v78c36 0 62.333 6.33301 79 19c18 12 34 39 48 81zM268.001 567h-75l70 158h96z" />
    <glyph glyph-name="thorn" unicode="&#xfe;" horiz-adv-x="521" 
d="M145 690v-240c28 38.667 73.333 58 136 58s111.667 -19.5 147 -58.5s53 -94.167 53 -165.5v-66c0 -69.333 -17.333 -124.333 -52 -165s-84 -61 -148 -61c-62.667 0 -108 19.333 -136 58v-240h-80v880h80zM273 64c40 0 71.333 14.333 94 43s34 65.667 34 111v66
c0 48 -11.167 85.333 -33.5 112s-53.833 40 -94.5 40c-40 0 -71.333 -12.833 -94 -38.5s-34 -61.167 -34 -106.5v-73c0 -47.333 10.833 -84.833 32.5 -112.5s53.5 -41.5 95.5 -41.5z" />
    <glyph glyph-name="ydieresis" unicode="&#xff;" horiz-adv-x="466" 
d="M199 -12l2.00098 7l-196 505h86l149 -388l131 388h85l-176 -516l-20 -55c-14.667 -37.333 -30.334 -63 -47.001 -77c-32 -28 -79 -42 -141 -42v78c36 0 62.333 6.33301 79 19c18 12 34 39 48 81zM177.001 600h-90v90h90v-90zM387.001 600h-90v90h90v-90z" />
    <glyph glyph-name="Amacron" unicode="&#x100;" horiz-adv-x="580" 
d="M154 158l-53 -158h-91l240 690h80l240 -690h-91l-53 158h-272zM399 236l-109 324l-109 -324h218zM445 768h-309v72h309v-72z" />
    <glyph glyph-name="amacron" unicode="&#x101;" horiz-adv-x="491" 
d="M40 146c0 95.333 62.3311 143.002 186.998 143.002h119v58c0 33.333 -8.16699 56.166 -24.5 68.499s-45.166 18.5 -86.499 18.5c-34.667 0 -60 -3.33301 -76 -10s-30.667 -20.334 -44 -41.001l-60 42c18 30 40.833 51.333 68.5 64s65.167 19 112.5 19
c66.667 0 115 -12.333 145 -37s45 -66 45 -124v-347h-80v49c-13.333 -22 -29.166 -37 -47.499 -45s-44.833 -12 -79.5 -12c-57.333 0 -101.5 13.5 -132.5 40.5s-46.5 64.833 -46.5 113.5zM345.998 192.002v29h-119c-37.333 0 -64.5 -6.16699 -81.5 -18.5
s-25.5 -31.833 -25.5 -58.5c0 -52 33 -78 99 -78c42 0 73.667 8 95 24c21.333 17.333 32 51.333 32 102zM371.998 600.002h-269v72h269v-72z" />
    <glyph glyph-name="Abreve" unicode="&#x102;" horiz-adv-x="580" 
d="M154 158l-53 -158h-91l240 690h80l240 -690h-91l-53 158h-272zM399 236l-109 324l-109 -324h218zM397 880h78.001c0 -48 -16.333 -85.333 -49 -112s-77.667 -40 -135 -40s-102.5 13.333 -135.5 40s-49.5 64 -49.5 112h78c5.33301 -49.333 41 -74 107 -74
c65.333 0 100.666 24.667 105.999 74z" />
    <glyph glyph-name="abreve" unicode="&#x103;" horiz-adv-x="491" 
d="M40 146c0 95.333 62.3311 143.002 186.998 143.002h119v58c0 33.333 -8.16699 56.166 -24.5 68.499s-45.166 18.5 -86.499 18.5c-34.667 0 -60 -3.33301 -76 -10s-30.667 -20.334 -44 -41.001l-60 42c18 30 40.833 51.333 68.5 64s65.167 19 112.5 19
c66.667 0 115 -12.333 145 -37s45 -66 45 -124v-347h-80v49c-13.333 -22 -29.166 -37 -47.499 -45s-44.833 -12 -79.5 -12c-57.333 0 -101.5 13.5 -132.5 40.5s-46.5 64.833 -46.5 113.5zM345.998 192.002v29h-119c-37.333 0 -64.5 -6.16699 -81.5 -18.5
s-25.5 -31.833 -25.5 -58.5c0 -52 33 -78 99 -78c42 0 73.667 8 95 24c21.333 17.333 32 51.333 32 102zM321.998 690.002l65 0.000976562c-2.66699 -78.667 -48 -118 -136 -118s-133.333 39.333 -136 118h66c2 -20.667 8.5 -35.834 19.5 -45.501s27.833 -14.5 50.5 -14.5
c43.333 0 67 20 71 60z" />
    <glyph glyph-name="Aogonek" unicode="&#x104;" horiz-adv-x="580" 
d="M154 158l-53 -158h-91l240 690h80l240 -690c-24 -14 -40.833 -26 -50.5 -36s-14.5 -20.667 -14.5 -32c0 -18.667 15 -28 45 -28c11.333 0 18.333 0.333008 21 1l12 -52c-8 -2 -22.667 -3 -44 -3c-30 0 -54.833 6.5 -74.5 19.5s-29.5 31.833 -29.5 56.5c0 30 14 56 42 78
l-51 154h-272zM399 236l-109 324l-109 -324h218z" />
    <glyph glyph-name="aogonek" unicode="&#x105;" horiz-adv-x="491" 
d="M40 146c0 95.333 62.3311 143.002 186.998 143.002h119v58c0 33.333 -8.16699 56.166 -24.5 68.499s-45.166 18.5 -86.499 18.5c-34.667 0 -60 -3.33301 -76 -10s-30.667 -20.334 -44 -41.001l-60 42c18 30 40.833 51.333 68.5 64s65.167 19 112.5 19
c66.667 0 115 -12.333 145 -37s45 -66 45 -124v-347c-24 -14 -40.833 -26 -50.5 -36s-14.5 -20.667 -14.5 -32c0 -18.667 15 -28 45 -28c3.33301 0 10.333 0.666992 21 2l12 -53c-8 -2 -22.667 -3 -44 -3c-30 0 -54.833 6.5 -74.5 19.5s-29.5 31.833 -29.5 56.5
c0 33.333 18.333 62.333 55 87v36c-13.333 -22 -29.166 -37 -47.499 -45s-44.833 -12 -79.5 -12c-57.333 0 -101.5 13.5 -132.5 40.5s-46.5 64.833 -46.5 113.5zM345.998 192.002v29h-119c-37.333 0 -64.5 -6.16699 -81.5 -18.5s-25.5 -31.833 -25.5 -58.5
c0 -52 33 -78 99 -78c42 0 73.667 8 95 24c21.333 17.333 32 51.333 32 102z" />
    <glyph glyph-name="Cacute" unicode="&#x106;" horiz-adv-x="578" 
d="M548 475h-83.9971c-11.333 51.333 -30.333 88.333 -57 111s-62.334 34 -107.001 34c-55.333 0 -96.5 -19 -123.5 -57s-40.5 -98 -40.5 -180v-76c0 -82 13.5 -142 40.5 -180s68.167 -57 123.5 -57c45.333 0 81.166 11.667 107.499 35s45.166 60 56.499 110h83
c-10 -74 -36.333 -129.667 -79 -167s-98.667 -56 -168 -56c-166.667 0 -250 105 -250 315v76c0 210 83.333 315 250 315c70 0 126.167 -18.833 168.5 -56.5s68.833 -93.167 79.5 -166.5zM283.003 747h-77l80 129h100z" />
    <glyph glyph-name="cacute" unicode="&#x107;" horiz-adv-x="444" 
d="M367 120l61.998 -44c-30 -56 -87.667 -84 -173 -84c-67.333 0 -120.166 20.167 -158.499 60.5s-57.5 95.5 -57.5 165.5v66c0 70.667 19 125.667 57 165s91 59 159 59c78.667 0 136.334 -26 173.001 -78l-63 -44c-23.333 33.333 -60 50 -110 50
c-42.667 0 -76 -13.5 -100 -40.5s-36 -64.167 -36 -111.5v-66c0 -47.333 11.5 -84.833 34.5 -112.5s56.833 -41.5 101.5 -41.5c54.667 0 91.667 18.667 111 56zM277.998 567h-75l70 158h96z" />
    <glyph glyph-name="Ccircumflex" unicode="&#x108;" horiz-adv-x="578" 
d="M548 475h-83.9971c-11.333 51.333 -30.333 88.333 -57 111s-62.334 34 -107.001 34c-55.333 0 -96.5 -19 -123.5 -57s-40.5 -98 -40.5 -180v-76c0 -82 13.5 -142 40.5 -180s68.167 -57 123.5 -57c45.333 0 81.166 11.667 107.499 35s45.166 60 56.499 110h83
c-10 -74 -36.333 -129.667 -79 -167s-98.667 -56 -168 -56c-166.667 0 -250 105 -250 315v76c0 210 83.333 315 250 315c70 0 126.167 -18.833 168.5 -56.5s68.833 -93.167 79.5 -166.5zM116.003 737l138 142h92l138 -142h-97l-87 91l-87 -91h-97z" />
    <glyph glyph-name="ccircumflex" unicode="&#x109;" horiz-adv-x="444" 
d="M367 120l61.998 -44c-30 -56 -87.667 -84 -173 -84c-67.333 0 -120.166 20.167 -158.499 60.5s-57.5 95.5 -57.5 165.5v66c0 70.667 19 125.667 57 165s91 59 159 59c78.667 0 136.334 -26 173.001 -78l-63 -44c-23.333 33.333 -60 50 -110 50
c-42.667 0 -76 -13.5 -100 -40.5s-36 -64.167 -36 -111.5v-66c0 -47.333 11.5 -84.833 34.5 -112.5s56.833 -41.5 101.5 -41.5c54.667 0 91.667 18.667 111 56zM97.998 558l108 142h92l108 -142h-82l-72 97l-72 -97h-82z" />
    <glyph glyph-name="Cdotaccent" unicode="&#x10a;" horiz-adv-x="578" 
d="M548 475h-83.9971c-11.333 51.333 -30.333 88.333 -57 111s-62.334 34 -107.001 34c-55.333 0 -96.5 -19 -123.5 -57s-40.5 -98 -40.5 -180v-76c0 -82 13.5 -142 40.5 -180s68.167 -57 123.5 -57c45.333 0 81.166 11.667 107.499 35s45.166 60 56.499 110h83
c-10 -74 -36.333 -129.667 -79 -167s-98.667 -56 -168 -56c-166.667 0 -250 105 -250 315v76c0 210 83.333 315 250 315c70 0 126.167 -18.833 168.5 -56.5s68.833 -93.167 79.5 -166.5zM344.003 779h-90v90h90v-90z" />
    <glyph glyph-name="cdotaccent" unicode="&#x10b;" horiz-adv-x="444" 
d="M367 120l61.998 -44c-30 -56 -87.667 -84 -173 -84c-67.333 0 -120.166 20.167 -158.499 60.5s-57.5 95.5 -57.5 165.5v66c0 70.667 19 125.667 57 165s91 59 159 59c78.667 0 136.334 -26 173.001 -78l-63 -44c-23.333 33.333 -60 50 -110 50
c-42.667 0 -76 -13.5 -100 -40.5s-36 -64.167 -36 -111.5v-66c0 -47.333 11.5 -84.833 34.5 -112.5s56.833 -41.5 101.5 -41.5c54.667 0 91.667 18.667 111 56zM278.998 600h-90v90h90v-90z" />
    <glyph glyph-name="Ccaron" unicode="&#x10c;" horiz-adv-x="578" 
d="M548 475h-83.9971c-11.333 51.333 -30.333 88.333 -57 111s-62.334 34 -107.001 34c-55.333 0 -96.5 -19 -123.5 -57s-40.5 -98 -40.5 -180v-76c0 -82 13.5 -142 40.5 -180s68.167 -57 123.5 -57c45.333 0 81.166 11.667 107.499 35s45.166 60 56.499 110h83
c-10 -74 -36.333 -129.667 -79 -167s-98.667 -56 -168 -56c-166.667 0 -250 105 -250 315v76c0 210 83.333 315 250 315c70 0 126.167 -18.833 168.5 -56.5s68.833 -93.167 79.5 -166.5zM484.003 879l-138 -142h-92l-138 142h97l87 -91l87 91h97z" />
    <glyph glyph-name="ccaron" unicode="&#x10d;" horiz-adv-x="444" 
d="M367 120l61.998 -44c-30 -56 -87.667 -84 -173 -84c-67.333 0 -120.166 20.167 -158.499 60.5s-57.5 95.5 -57.5 165.5v66c0 70.667 19 125.667 57 165s91 59 159 59c78.667 0 136.334 -26 173.001 -78l-63 -44c-23.333 33.333 -60 50 -110 50
c-42.667 0 -76 -13.5 -100 -40.5s-36 -64.167 -36 -111.5v-66c0 -47.333 11.5 -84.833 34.5 -112.5s56.833 -41.5 101.5 -41.5c54.667 0 91.667 18.667 111 56zM405.998 700l-108 -142h-92l-108 142h82l72 -97l72 97h82z" />
    <glyph glyph-name="Dcaron" unicode="&#x10e;" horiz-adv-x="605" 
d="M305 0h-220v690h220c166.667 0 250 -103 250 -309v-72c0 -206 -83.333 -309 -250 -309zM171 78l134 0.00195312c56 0 97.333 18.167 124 54.5s40 95.166 40 176.499v72c0 81.333 -13.333 140.166 -40 176.499s-68 54.5 -124 54.5h-134v-534zM460 879.002l-138 -142h-92
l-138 142h97l87 -91l87 91h97z" />
    <glyph glyph-name="dcaron" unicode="&#x10f;" horiz-adv-x="576" 
d="M376 450v240h80v-690h-80v44c-26.667 -34.667 -72 -52 -136 -52s-113.333 20.333 -148 61s-52 95.667 -52 165v66c0 70.667 17.667 125.667 53 165s84.333 59 147 59s108 -19.333 136 -58zM248 64c41.333 0 73 13.168 95 39.501s33 62.166 33 107.499v73
c0 47.333 -11.167 84.5 -33.5 111.5s-53.833 40.5 -94.5 40.5s-72.167 -13.333 -94.5 -40s-33.5 -64 -33.5 -112v-66c0 -45.333 11.333 -82.333 34 -111s54 -43 94 -43zM500 690.001h96v-96l-96 -83v179z" />
    <glyph glyph-name="Dcroat" unicode="&#x110;" horiz-adv-x="623" 
d="M323 0h-220v318h-113v78h113v294h220c166.667 0 250 -103 250 -309v-72c0 -206 -83.333 -309 -250 -309zM189 78l134 0.00195312c56 0 97.333 18.167 124 54.5s40 95.166 40 176.499v72c0 81.333 -13.333 140.166 -40 176.499s-68 54.5 -124 54.5h-134v-216h170v-78h-170
v-240z" />
    <glyph glyph-name="dslash" unicode="&#x111;" horiz-adv-x="554" 
d="M213 630h163v60h80v-60h96v-72h-96v-558h-80v44c-26.667 -34.667 -72 -52 -136 -52s-113.333 20.333 -148 61s-52 95.667 -52 165v66c0 70.667 17.667 125.667 53 165s84.333 59 147 59s108 -19.333 136 -58v108h-163v72zM248 64c41.333 0 73 13.168 95 39.501
s33 62.166 33 107.499v73c0 47.333 -11.167 84.5 -33.5 111.5s-53.833 40.5 -94.5 40.5s-72.167 -13.333 -94.5 -40s-33.5 -64 -33.5 -112v-66c0 -45.333 11.333 -82.333 34 -111s54 -43 94 -43z" />
    <glyph glyph-name="Emacron" unicode="&#x112;" horiz-adv-x="541" 
d="M85 0v690h416v-78h-330v-216h300v-78h-300v-240h330v-78h-416zM448 768h-309v72h309v-72z" />
    <glyph glyph-name="emacron" unicode="&#x113;" horiz-adv-x="488" 
d="M367 120l62.001 -44c-17.333 -30 -39.833 -51.5 -67.5 -64.5s-63.5 -19.5 -107.5 -19.5c-66.667 0 -119 20.167 -157 60.5s-57 95.5 -57 165.5v66c0 72 17 127.333 51 166s83 58 147 58c65.333 0 114.666 -19.167 147.999 -57.5s50 -93.833 50 -166.5v-52h-316v-14
c0 -46.667 11 -84 33 -112s53.667 -42 95 -42c58 0 97.667 18.667 119 56zM238.001 436c-73.333 0 -112.667 -44.667 -118 -134h235c-4 89.333 -43 134 -117 134zM373 600h-269v72h269v-72z" />
    <glyph glyph-name="Edotaccent" unicode="&#x116;" horiz-adv-x="541" 
d="M85 0v690h416v-78h-330v-216h300v-78h-300v-240h330v-78h-416zM338 779h-90v90h90v-90z" />
    <glyph glyph-name="edotaccent" unicode="&#x117;" horiz-adv-x="488" 
d="M367 120l62.001 -44c-17.333 -30 -39.833 -51.5 -67.5 -64.5s-63.5 -19.5 -107.5 -19.5c-66.667 0 -119 20.167 -157 60.5s-57 95.5 -57 165.5v66c0 72 17 127.333 51 166s83 58 147 58c65.333 0 114.666 -19.167 147.999 -57.5s50 -93.833 50 -166.5v-52h-316v-14
c0 -46.667 11 -84 33 -112s53.667 -42 95 -42c58 0 97.667 18.667 119 56zM238.001 436c-73.333 0 -112.667 -44.667 -118 -134h235c-4 89.333 -43 134 -117 134zM283 600h-90v90h90v-90z" />
    <glyph glyph-name="Eogonek" unicode="&#x118;" horiz-adv-x="541" 
d="M85 0v689.999h416v-78h-330v-216h300v-78h-300v-240h330v-78h-117c-24 -14 -40.833 -26 -50.5 -36s-14.5 -20.667 -14.5 -32c0 -18.667 15 -28 45 -28c11.333 0 18.333 0.333008 21 1l12 -52c-8 -2 -22.667 -3 -44 -3c-30 0 -54.833 6.5 -74.5 19.5
s-29.5 31.833 -29.5 56.5c0 28.667 12.333 53.334 37 74.001h-201z" />
    <glyph glyph-name="eogonek" unicode="&#x119;" horiz-adv-x="488" 
d="M367 120l62.002 -44.001c-24.667 -43.333 -62.334 -69.666 -113.001 -78.999c-40 -22.667 -60 -44.334 -60 -65.001c0 -18.667 15 -28 45 -28c3.33301 0 10.333 0.666992 21 2l12 -53c-8 -2 -22.667 -3 -44 -3c-30 0 -54.833 6.5 -74.5 19.5s-29.5 31.833 -29.5 56.5
c0 24 10.667 46.667 32 68c-56 6.66699 -99.667 29.834 -131 69.501s-47 91.167 -47 154.5v66c0 72 17 127.333 51 166s83 58 147 58c65.333 0 114.666 -19.167 147.999 -57.5s50 -93.833 50 -166.5v-52h-316v-14c0 -46.667 11 -84 33 -112s53.667 -42 95 -42
c58 0 97.667 18.667 119 56zM238.002 435.999c-73.333 0 -112.667 -44.667 -118 -134h235c-4 89.333 -43 134 -117 134z" />
    <glyph glyph-name="Ecaron" unicode="&#x11a;" horiz-adv-x="541" 
d="M85 0v690h416v-78h-330v-216h300v-78h-300v-240h330v-78h-416zM477 879l-138 -142h-92l-138 142h97l87 -91l87 91h97z" />
    <glyph glyph-name="ecaron" unicode="&#x11b;" horiz-adv-x="488" 
d="M367 120l62.001 -44c-17.333 -30 -39.833 -51.5 -67.5 -64.5s-63.5 -19.5 -107.5 -19.5c-66.667 0 -119 20.167 -157 60.5s-57 95.5 -57 165.5v66c0 72 17 127.333 51 166s83 58 147 58c65.333 0 114.666 -19.167 147.999 -57.5s50 -93.833 50 -166.5v-52h-316v-14
c0 -46.667 11 -84 33 -112s53.667 -42 95 -42c58 0 97.667 18.667 119 56zM238.001 436c-73.333 0 -112.667 -44.667 -118 -134h235c-4 89.333 -43 134 -117 134zM399 700l-108 -142h-92l-108 142h82l72 -97l72 97h82z" />
    <glyph glyph-name="Gcircumflex" unicode="&#x11c;" horiz-adv-x="604" 
d="M303 269l-0.00195312 77.999h251v-40c0 -105.333 -21.833 -184.166 -65.5 -236.499s-106.5 -78.5 -188.5 -78.5c-166.667 0 -250 105 -250 315v76c0 210 83.333 315 250 315c69.333 0 125.333 -18.833 168 -56.5s69.334 -93.167 80.001 -166.5h-84
c-20 96.667 -74.667 145 -164 145c-55.333 0 -96.5 -19 -123.5 -57s-40.5 -98 -40.5 -180v-76c0 -82 13.5 -142 40.5 -180s68.167 -57 123.5 -57c102.667 0 158.334 66.333 167.001 199h-164zM115.998 736.999l138 142h92l138 -142h-97l-87 91l-87 -91h-97z" />
    <glyph glyph-name="gcircumflex" unicode="&#x11d;" horiz-adv-x="521" 
d="M376 450v50h80v-490c0 -67.333 -18.5 -118.5 -55.5 -153.5s-89.833 -52.5 -158.5 -52.5c-44 0 -79.833 6.5 -107.5 19.5s-50.167 34.5 -67.5 64.5l62 44c21.333 -37.333 61 -56 119 -56c85.333 0 128 44.667 128 134v34c-26.667 -34.667 -72 -52 -136 -52
s-113.333 20.333 -148 61s-52 95.667 -52 165v66c0 70.667 17.667 125.667 53 165s84.333 59 147 59s108 -19.333 136 -58zM248 64c42 0 73.833 13.833 95.5 41.5s32.5 65.167 32.5 112.5v66c0 47.333 -11.167 84.5 -33.5 111.5s-53.833 40.5 -94.5 40.5
s-72.167 -13.333 -94.5 -40s-33.5 -64 -33.5 -112v-66c0 -45.333 11.333 -82.333 34 -111s54 -43 94 -43zM120 558l108 142h92l108 -142h-82l-72 97l-72 -97h-82z" />
    <glyph glyph-name="Gbreve" unicode="&#x11e;" horiz-adv-x="604" 
d="M303 269l-0.00195312 77.999h251v-40c0 -105.333 -21.833 -184.166 -65.5 -236.499s-106.5 -78.5 -188.5 -78.5c-166.667 0 -250 105 -250 315v76c0 210 83.333 315 250 315c69.333 0 125.333 -18.833 168 -56.5s69.334 -93.167 80.001 -166.5h-84
c-20 96.667 -74.667 145 -164 145c-55.333 0 -96.5 -19 -123.5 -57s-40.5 -98 -40.5 -180v-76c0 -82 13.5 -142 40.5 -180s68.167 -57 123.5 -57c102.667 0 158.334 66.333 167.001 199h-164zM405.998 879.999h78.001c0 -48 -16.333 -85.333 -49 -112s-77.667 -40 -135 -40
s-102.5 13.333 -135.5 40s-49.5 64 -49.5 112h78c5.33301 -49.333 41 -74 107 -74c65.333 0 100.666 24.667 105.999 74z" />
    <glyph glyph-name="gbreve" unicode="&#x11f;" horiz-adv-x="521" 
d="M376 450v50h80v-490c0 -67.333 -18.5 -118.5 -55.5 -153.5s-89.833 -52.5 -158.5 -52.5c-44 0 -79.833 6.5 -107.5 19.5s-50.167 34.5 -67.5 64.5l62 44c21.333 -37.333 61 -56 119 -56c85.333 0 128 44.667 128 134v34c-26.667 -34.667 -72 -52 -136 -52
s-113.333 20.333 -148 61s-52 95.667 -52 165v66c0 70.667 17.667 125.667 53 165s84.333 59 147 59s108 -19.333 136 -58zM248 64c42 0 73.833 13.833 95.5 41.5s32.5 65.167 32.5 112.5v66c0 47.333 -11.167 84.5 -33.5 111.5s-53.833 40.5 -94.5 40.5
s-72.167 -13.333 -94.5 -40s-33.5 -64 -33.5 -112v-66c0 -45.333 11.333 -82.333 34 -111s54 -43 94 -43zM352 690l65 0.000976562c-2.66699 -78.667 -48 -118 -136 -118s-133.333 39.333 -136 118h66c2 -20.667 8.5 -35.834 19.5 -45.501s27.833 -14.5 50.5 -14.5
c43.333 0 67 20 71 60z" />
    <glyph glyph-name="Gdotaccent" unicode="&#x120;" horiz-adv-x="604" 
d="M303 269l-0.00195312 77.999h251v-40c0 -105.333 -21.833 -184.166 -65.5 -236.499s-106.5 -78.5 -188.5 -78.5c-166.667 0 -250 105 -250 315v76c0 210 83.333 315 250 315c69.333 0 125.333 -18.833 168 -56.5s69.334 -93.167 80.001 -166.5h-84
c-20 96.667 -74.667 145 -164 145c-55.333 0 -96.5 -19 -123.5 -57s-40.5 -98 -40.5 -180v-76c0 -82 13.5 -142 40.5 -180s68.167 -57 123.5 -57c102.667 0 158.334 66.333 167.001 199h-164zM346.998 778.999h-90v90h90v-90z" />
    <glyph glyph-name="gdotaccent" unicode="&#x121;" horiz-adv-x="521" 
d="M376 450v50h80v-490c0 -67.333 -18.5 -118.5 -55.5 -153.5s-89.833 -52.5 -158.5 -52.5c-44 0 -79.833 6.5 -107.5 19.5s-50.167 34.5 -67.5 64.5l62 44c21.333 -37.333 61 -56 119 -56c85.333 0 128 44.667 128 134v34c-26.667 -34.667 -72 -52 -136 -52
s-113.333 20.333 -148 61s-52 95.667 -52 165v66c0 70.667 17.667 125.667 53 165s84.333 59 147 59s108 -19.333 136 -58zM248 64c42 0 73.833 13.833 95.5 41.5s32.5 65.167 32.5 112.5v66c0 47.333 -11.167 84.5 -33.5 111.5s-53.833 40.5 -94.5 40.5
s-72.167 -13.333 -94.5 -40s-33.5 -64 -33.5 -112v-66c0 -45.333 11.333 -82.333 34 -111s54 -43 94 -43zM284 600h-90v90h90v-90z" />
    <glyph glyph-name="Gcommaaccent" unicode="&#x122;" horiz-adv-x="604" 
d="M303 269l-0.00195312 77.999h251v-40c0 -105.333 -21.833 -184.166 -65.5 -236.499s-106.5 -78.5 -188.5 -78.5c-166.667 0 -250 105 -250 315v76c0 210 83.333 315 250 315c69.333 0 125.333 -18.833 168 -56.5s69.334 -93.167 80.001 -166.5h-84
c-20 96.667 -74.667 145 -164 145c-55.333 0 -96.5 -19 -123.5 -57s-40.5 -98 -40.5 -180v-76c0 -82 13.5 -142 40.5 -180s68.167 -57 123.5 -57c102.667 0 158.334 66.333 167.001 199h-164zM253.998 -64.001h96v-96l-96 -83v179z" />
    <glyph glyph-name="gcommaaccent" unicode="&#x123;" horiz-adv-x="521" 
d="M376 450v50h80v-490c0 -67.333 -18.5 -118.5 -55.5 -153.5s-89.833 -52.5 -158.5 -52.5c-44 0 -79.833 6.5 -107.5 19.5s-50.167 34.5 -67.5 64.5l62 44c21.333 -37.333 61 -56 119 -56c85.333 0 128 44.667 128 134v34c-26.667 -34.667 -72 -52 -136 -52
s-113.333 20.333 -148 61s-52 95.667 -52 165v66c0 70.667 17.667 125.667 53 165s84.333 59 147 59s108 -19.333 136 -58zM248 64c42 0 73.833 13.833 95.5 41.5s32.5 65.167 32.5 112.5v66c0 47.333 -11.167 84.5 -33.5 111.5s-53.833 40.5 -94.5 40.5
s-72.167 -13.333 -94.5 -40s-33.5 -64 -33.5 -112v-66c0 -45.333 11.333 -82.333 34 -111s54 -43 94 -43zM308 593h-96v96l96 83v-179z" />
    <glyph glyph-name="Hcircumflex" unicode="&#x124;" horiz-adv-x="638" 
d="M85 690h86v-294h296v294h86v-690h-86v318h-296v-318h-86v690zM135 737l138 142h92l138 -142h-97l-87 91l-87 -91h-97z" />
    <glyph glyph-name="hcircumflex" unicode="&#x125;" horiz-adv-x="526" 
d="M145 0l-80 -0.000976562v690h80v-239c14 20.667 31 35.334 51 44.001s47.667 13 83 13c58 0 102.833 -16.167 134.5 -48.5s47.5 -81.5 47.5 -147.5v-312h-80v311c0 82 -38 123 -114 123c-36 0 -65.333 -11.333 -88 -34s-34 -52 -34 -88v-312zM-49 723.999l108 142h92
l108 -142h-82l-72 97l-72 -97h-82z" />
    <glyph glyph-name="Hbar" unicode="&#x126;" horiz-adv-x="648" 
d="M90 690h86v-144h296v144h86v-144h100v-78h-100v-468h-86v318h-296v-318h-86v468h-100v78h100v144zM176 468v-72h296v72h-296z" />
    <glyph glyph-name="hbar" unicode="&#x127;" horiz-adv-x="535" 
d="M74 558l-94 -0.000976562v72h94v60h80v-60h165v-72h-165v-107c14 20.667 31 35.334 51 44.001s47.667 13 83 13c58 0 102.833 -16.167 134.5 -48.5s47.5 -81.5 47.5 -147.5v-312h-80v311c0 82 -38 123 -114 123c-36 0 -65.333 -11.333 -88 -34s-34 -52 -34 -88v-312h-80
v558z" />
    <glyph glyph-name="Imacron" unicode="&#x12a;" horiz-adv-x="276" 
d="M95 690h86v-690h-86v690zM293 768h-309v72h309v-72z" />
    <glyph glyph-name="imacron" unicode="&#x12b;" horiz-adv-x="230" 
d="M155 0h-80v500h80v-500zM250 600h-269v72h269v-72z" />
    <glyph glyph-name="Iogonek" unicode="&#x12e;" horiz-adv-x="276" 
d="M95 690h86v-690c-24 -14 -40.833 -26 -50.5 -36s-14.5 -20.667 -14.5 -32c0 -18.667 15 -28 45 -28c11.333 0 18.333 0.333008 21 1l12 -52c-8 -2 -22.667 -3 -44 -3c-30 0 -54.833 6.5 -74.5 19.5s-29.5 31.833 -29.5 56.5c0 32 16.333 60 49 84v680z" />
    <glyph glyph-name="iogonek" unicode="&#x12f;" horiz-adv-x="240" 
d="M80 500h80v-500c-24 -14 -40.833 -26 -50.5 -36s-14.5 -20.667 -14.5 -32c0 -18.667 15 -28 45 -28c3.33301 0 10.333 0.666992 21 2l12 -53c-8 -2 -22.667 -3 -44 -3c-30 0 -54.833 6.5 -74.5 19.5s-29.5 31.833 -29.5 56.5c0 33.333 18.333 62.333 55 87v487zM165 600
h-90v90h90v-90z" />
    <glyph glyph-name="Idot" unicode="&#x130;" horiz-adv-x="276" 
d="M95 690h86v-690h-86v690zM183 779h-90v90h90v-90z" />
    <glyph glyph-name="dotlessi" unicode="&#x131;" horiz-adv-x="230" 
d="M155 0h-80v500h80v-500z" />
    <glyph glyph-name="Jcircumflex" unicode="&#x134;" horiz-adv-x="505" 
d="M5 78l74.001 42c25.333 -33.333 61.666 -50 108.999 -50c50.667 0 87.667 16.5 111 49.5s35 87.833 35 164.5v406h86v-406c0 -194.667 -77.333 -292 -232 -292c-86 0 -147 28.667 -183 86zM205.001 737l138 142h92l138 -142h-97l-87 91l-87 -91h-97z" />
    <glyph glyph-name="jcircumflex" unicode="&#x135;" horiz-adv-x="235" 
d="M85 500h80.001v-536c0 -54.667 -12.333 -94 -37 -118s-67.334 -36 -128.001 -36v74c40.667 0 65 10.333 73 31c8 15.333 12 38.333 12 69v516zM-30.999 558l108 142h92l108 -142h-82l-72 97l-72 -97h-82z" />
    <glyph glyph-name="Kcommaaccent" unicode="&#x136;" horiz-adv-x="638" 
d="M355 413l278 -413h-103l-232 344l-127 -156v-188h-86v690h86v-371l300 371h111zM270 -64h96v-96l-96 -83v179z" />
    <glyph glyph-name="kcommaaccent" unicode="&#x137;" horiz-adv-x="487" 
d="M145 296l202 204h104l-216 -221l247 -279h-104l-202 218l-31 -33v-185h-80v690h80v-394zM204 -64h96v-96l-96 -83v179z" />
    <glyph glyph-name="Lacute" unicode="&#x139;" horiz-adv-x="501" 
d="M85 690h86v-612h330v-78h-416v690zM171 747h-77l80 129h100z" />
    <glyph glyph-name="lacute" unicode="&#x13a;" horiz-adv-x="274" 
d="M65 154v536h80v-516c0 -28 3.66699 -51.333 11 -70c10.667 -20 35.334 -30 74.001 -30v-74c-60.667 0 -103.334 12 -128.001 36s-37 63.333 -37 118zM142 718h-75l70 158h96z" />
    <glyph glyph-name="Lcommaaccent" unicode="&#x13b;" horiz-adv-x="501" 
d="M85 690h86v-612h330v-78h-416v690zM245 -64h96v-96l-96 -83v179z" />
    <glyph glyph-name="lcommaaccent" unicode="&#x13c;" horiz-adv-x="274" 
d="M65 154v536h80v-516c0 -28 3.66699 -51.333 11 -70c10.667 -20 35.334 -30 74.001 -30v-74c-60.667 0 -103.334 12 -128.001 36s-37 63.333 -37 118zM106 -64h96v-96l-96 -83v179z" />
    <glyph glyph-name="Lcaron" unicode="&#x13d;" horiz-adv-x="501" 
d="M85 690h86v-612h330v-78h-416v690zM303 740h86v-185l-86 -74v259z" />
    <glyph glyph-name="lcaron" unicode="&#x13e;" horiz-adv-x="288" 
d="M65 154v536h80v-516c0 -28 3.66699 -51.333 11 -70c10.667 -20 35.334 -30 74.001 -30v-74c-60.667 0 -103.334 12 -128.001 36s-37 63.333 -37 118zM222 690h96v-96l-96 -83v179z" />
    <glyph glyph-name="Ldot" unicode="&#x13f;" horiz-adv-x="501" 
d="M85 690h86v-612h330v-78h-416v690zM423 350h-90v90h90v-90z" />
    <glyph glyph-name="ldot" unicode="&#x140;" horiz-adv-x="316" 
d="M65 154v536h80v-516c0 -28 3.66699 -51.333 11 -70c10.667 -20 35.334 -30 74.001 -30v-74c-60.667 0 -103.334 12 -128.001 36s-37 63.333 -37 118zM313 344h-90v90h90v-90z" />
    <glyph glyph-name="Lslash" unicode="&#x141;" horiz-adv-x="521" 
d="M105 690h86v-245l135 108l45 -56l-180 -144v-275h330v-78h-416v284l-70 -56l-45 56l115 92v314z" />
    <glyph glyph-name="lslash" unicode="&#x142;" horiz-adv-x="285" 
d="M95 281l-65 -45l-40 60l105 72v322h80v-267l88 61l40 -59l-128 -89v-162c0 -28 3.66699 -51.333 11 -70c10.667 -20 35.334 -30 74.001 -30v-74c-60.667 0 -103.334 12 -128.001 36s-37 63.333 -37 118v127z" />
    <glyph glyph-name="Nacute" unicode="&#x143;" horiz-adv-x="638" 
d="M467 163v527h86v-690h-84l-298 522v-522h-86v690h82zM345 747h-77l80 129h100z" />
    <glyph glyph-name="nacute" unicode="&#x144;" horiz-adv-x="526" 
d="M145 0l-80 -0.000976562v500h80v-49c14 20.667 31 35.334 51 44.001s47.667 13 83 13c58 0 102.833 -16.167 134.5 -48.5s47.5 -81.5 47.5 -147.5v-312h-80v311c0 82 -38 123 -114 123c-36 0 -65.333 -11.333 -88 -34s-34 -52 -34 -88v-312zM286 566.999h-75l70 158h96z
" />
    <glyph glyph-name="Ncommaaccent" unicode="&#x145;" horiz-adv-x="638" 
d="M467 163v527h86v-690h-84l-298 522v-522h-86v690h82zM271 -64h96v-96l-96 -83v179z" />
    <glyph glyph-name="ncommaaccent" unicode="&#x146;" horiz-adv-x="526" 
d="M145 0l-80 -0.000976562v500h80v-49c14 20.667 31 35.334 51 44.001s47.667 13 83 13c58 0 102.833 -16.167 134.5 -48.5s47.5 -81.5 47.5 -147.5v-312h-80v311c0 82 -38 123 -114 123c-36 0 -65.333 -11.333 -88 -34s-34 -52 -34 -88v-312zM215 -64.001h96v-96l-96 -83
v179z" />
    <glyph glyph-name="Ncaron" unicode="&#x147;" horiz-adv-x="638" 
d="M467 163v527h86v-690h-84l-298 522v-522h-86v690h82zM503 879l-138 -142h-92l-138 142h97l87 -91l87 91h97z" />
    <glyph glyph-name="ncaron" unicode="&#x148;" horiz-adv-x="526" 
d="M145 0l-80 -0.000976562v500h80v-49c14 20.667 31 35.334 51 44.001s47.667 13 83 13c58 0 102.833 -16.167 134.5 -48.5s47.5 -81.5 47.5 -147.5v-312h-80v311c0 82 -38 123 -114 123c-36 0 -65.333 -11.333 -88 -34s-34 -52 -34 -88v-312zM418 699.999l-108 -142h-92
l-108 142h82l72 -97l72 97h82z" />
    <glyph glyph-name="Omacron" unicode="&#x14c;" horiz-adv-x="600" 
d="M550 383v-76c0 -210 -83.333 -315 -250 -315s-250 105 -250 315v76c0 210 83.333 315 250 315s250 -105 250 -315zM136 383v-76c0 -82 13.5 -142 40.5 -180s68.167 -57 123.5 -57s96.5 19 123.5 57s40.5 98 40.5 180v76c0 82 -13.5 142 -40.5 180s-68.167 57 -123.5 57
s-96.5 -19 -123.5 -57s-40.5 -98 -40.5 -180zM455 768h-309v72h309v-72z" />
    <glyph glyph-name="omacron" unicode="&#x14d;" horiz-adv-x="496" 
d="M456 284v-66c0 -70 -17.667 -125.167 -53 -165.5s-87 -60.5 -155 -60.5c-65.333 0 -116.333 20 -153 60s-55 95.333 -55 166v66c0 70.667 18.333 125.667 55 165s87.667 59 153 59c66 0 117.167 -19.5 153.5 -58.5s54.5 -94.167 54.5 -165.5zM248 64
c40 0 71.333 14.333 94 43s34 65.667 34 111v66c0 48 -11.167 85.333 -33.5 112s-53.833 40 -94.5 40s-72.167 -13.5 -94.5 -40.5s-33.5 -64.167 -33.5 -111.5v-66c0 -47.333 10.833 -84.833 32.5 -112.5s53.5 -41.5 95.5 -41.5zM383 600h-269v72h269v-72z" />
    <glyph glyph-name="Ohungarumlaut" unicode="&#x150;" horiz-adv-x="600" 
d="M550 383v-76c0 -210 -83.333 -315 -250 -315s-250 105 -250 315v76c0 210 83.333 315 250 315s250 -105 250 -315zM136 383v-76c0 -82 13.5 -142 40.5 -180s68.167 -57 123.5 -57s96.5 19 123.5 57s40.5 98 40.5 180v76c0 82 -13.5 142 -40.5 180s-68.167 57 -123.5 57
s-96.5 -19 -123.5 -57s-40.5 -98 -40.5 -180zM237 747h-77l80 129h100zM407 747h-77l90 129h100z" />
    <glyph glyph-name="ohungarumlaut" unicode="&#x151;" horiz-adv-x="496" 
d="M456 284v-66c0 -70 -17.667 -125.167 -53 -165.5s-87 -60.5 -155 -60.5c-65.333 0 -116.333 20 -153 60s-55 95.333 -55 166v66c0 70.667 18.333 125.667 55 165s87.667 59 153 59c66 0 117.167 -19.5 153.5 -58.5s54.5 -94.167 54.5 -165.5zM248 64
c40 0 71.333 14.333 94 43s34 65.667 34 111v66c0 48 -11.167 85.333 -33.5 112s-53.833 40 -94.5 40s-72.167 -13.5 -94.5 -40.5s-33.5 -64.167 -33.5 -111.5v-66c0 -47.333 10.833 -84.833 32.5 -112.5s53.5 -41.5 95.5 -41.5zM205 567h-75l70 158h96zM359 567h-75l90 158
h96z" />
    <glyph glyph-name="OE" unicode="&#x152;" horiz-adv-x="920" 
d="M464 690h416v-78h-330v-216h300v-78h-300v-240h330v-78h-416v64c-33.333 -48 -88 -72 -164 -72c-166.667 0 -250 105 -250 315v76c0 210 83.333 315 250 315c75.333 0 130 -24 164 -72v64zM136 383v-76c0 -82 13.5 -142 40.5 -180s68.167 -57 123.5 -57s96.5 19 123.5 57
s40.5 98 40.5 180v76c0 82 -13.5 142 -40.5 180s-68.167 57 -123.5 57s-96.5 -19 -123.5 -57s-40.5 -98 -40.5 -180z" />
    <glyph glyph-name="oe" unicode="&#x153;" horiz-adv-x="824" 
d="M703 120l62.001 -44c-17.333 -30 -39.833 -51.5 -67.5 -64.5s-63.5 -19.5 -107.5 -19.5c-83.333 0 -141 31.667 -173 95c-30 -63.333 -86.333 -95 -169 -95c-65.333 0 -116.333 20 -153 60s-55 95.333 -55 166v66c0 70.667 18.333 125.667 55 165s87.667 59 153 59
c80 0 135.667 -30 167 -90c28 60 81 90 159 90c65.333 0 114.666 -19.333 147.999 -58s50 -94.667 50 -168v-52h-316v-12c0 -46.667 11 -84 33 -112s53.667 -42 95 -42c58 0 97.667 18.667 119 56zM248.001 64c40 0 71.333 14.333 94 43s34 65.667 34 111v66
c0 48 -11.167 85.333 -33.5 112s-53.833 40 -94.5 40s-72.167 -13.5 -94.5 -40.5s-33.5 -64.167 -33.5 -111.5v-66c0 -47.333 10.833 -84.833 32.5 -112.5s53.5 -41.5 95.5 -41.5zM574.001 436c-74 0 -113.333 -45.333 -118 -136h235c-4 90.667 -43 136 -117 136z" />
    <glyph glyph-name="Racute" unicode="&#x154;" horiz-adv-x="604" 
d="M420 306l154 -306h-96l-144 291h-163v-291h-86v690h220c81.333 0 143.5 -17 186.5 -51s64.5 -83.667 64.5 -149c0 -96 -45.333 -157.333 -136 -184zM171 612v-243h134c58.667 0 100.834 9.5 126.501 28.5s38.5 49.833 38.5 92.5c0 43.333 -12.833 74.5 -38.5 93.5
s-67.834 28.5 -126.501 28.5h-134zM301 747h-77l80 129h100z" />
    <glyph glyph-name="racute" unicode="&#x155;" horiz-adv-x="394" 
d="M404 440l-68 -48c-20 28 -48 42 -84 42c-32 0 -57.833 -11.167 -77.5 -33.5s-29.5 -51.5 -29.5 -87.5v-313h-80v500h80v-49c23.333 38 62 57 116 57c63.333 0 111 -22.667 143 -68zM223 567h-75l70 158h96z" />
    <glyph glyph-name="Rcommaaccent" unicode="&#x156;" horiz-adv-x="604" 
d="M420 306l154 -306h-96l-144 291h-163v-291h-86v690h220c81.333 0 143.5 -17 186.5 -51s64.5 -83.667 64.5 -149c0 -96 -45.333 -157.333 -136 -184zM171 612v-243h134c58.667 0 100.834 9.5 126.501 28.5s38.5 49.833 38.5 92.5c0 43.333 -12.833 74.5 -38.5 93.5
s-67.834 28.5 -126.501 28.5h-134zM247 -64h96v-96l-96 -83v179z" />
    <glyph glyph-name="rcommaaccent" unicode="&#x157;" horiz-adv-x="394" 
d="M404 440l-68 -48c-20 28 -48 42 -84 42c-32 0 -57.833 -11.167 -77.5 -33.5s-29.5 -51.5 -29.5 -87.5v-313h-80v500h80v-49c23.333 38 62 57 116 57c63.333 0 111 -22.667 143 -68zM60 -64h96v-96l-96 -83v179z" />
    <glyph glyph-name="Rcaron" unicode="&#x158;" horiz-adv-x="604" 
d="M420 306l154 -306h-96l-144 291h-163v-291h-86v690h220c81.333 0 143.5 -17 186.5 -51s64.5 -83.667 64.5 -149c0 -96 -45.333 -157.333 -136 -184zM171 612v-243h134c58.667 0 100.834 9.5 126.501 28.5s38.5 49.833 38.5 92.5c0 43.333 -12.833 74.5 -38.5 93.5
s-67.834 28.5 -126.501 28.5h-134zM484 879l-138 -142h-92l-138 142h97l87 -91l87 91h97z" />
    <glyph glyph-name="rcaron" unicode="&#x159;" horiz-adv-x="394" 
d="M404 440l-68 -48c-20 28 -48 42 -84 42c-32 0 -57.833 -11.167 -77.5 -33.5s-29.5 -51.5 -29.5 -87.5v-313h-80v500h80v-49c23.333 38 62 57 116 57c63.333 0 111 -22.667 143 -68zM385 700l-108 -142h-92l-108 142h82l72 -97l72 97h82z" />
    <glyph glyph-name="Sacute" unicode="&#x15a;" horiz-adv-x="571" 
d="M511 585l-67 -47.9971c-22.667 29.333 -46.167 50.5 -70.5 63.5s-55.5 19.5 -93.5 19.5c-42 0 -74.833 -9.16699 -98.5 -27.5s-35.5 -45.166 -35.5 -80.499c0 -37.333 12.667 -65.333 38 -84s67 -33.334 125 -44.001c74 -12.667 128.167 -34.334 162.5 -65.001
s51.5 -75.334 51.5 -134.001c0 -24 -4.16699 -46.833 -12.5 -68.5s-21.166 -42.167 -38.499 -61.5s-41.5 -34.666 -72.5 -45.999s-67.167 -17 -108.5 -17c-112 0 -194 37.667 -246 113l71 49c25.333 -30.667 50.666 -52.334 75.999 -65.001s58.333 -19 99 -19
c97.333 0 146 37 146 111c0 36 -12.167 64.167 -36.5 84.5s-66.5 35.166 -126.5 44.499c-142.667 22 -214 89.333 -214 202c0 56 19.167 101 57.5 135s93.5 51 165.5 51c102.667 0 178.667 -37.667 228 -113zM301 747.003h-77l80 129h100z" />
    <glyph glyph-name="sacute" unicode="&#x15b;" horiz-adv-x="466" 
d="M406 425l-59.9971 -42.002c-14 18.667 -30 31.834 -48 39.501s-43.333 11.5 -76 11.5c-30 0 -53.667 -5.83301 -71 -17.5s-26 -28.167 -26 -49.5c0 -47.333 38.667 -73.666 116 -78.999c51.333 -4 92.666 -15.333 123.999 -34c37.333 -20.667 56 -59 56 -115
c0 -46.667 -16 -82.834 -48 -108.501s-78.667 -38.5 -140 -38.5c-88.667 0 -153 27.667 -193 83l59 42c14 -18 31.167 -31 51.5 -39s48.166 -12 83.499 -12c33.333 0 59.5 6.16699 78.5 18.5s28.5 29.833 28.5 52.5c0 26.667 -9.33301 45.834 -28 57.501
s-52.334 19.167 -101.001 22.5c-111.333 8 -167 57.667 -167 149c0 43.333 15.667 77.833 47 103.5s75.333 38.5 132 38.5c86 0 146.667 -27.667 182 -83zM247.003 566.998h-75l70 158h96z" />
    <glyph glyph-name="Scircumflex" unicode="&#x15c;" horiz-adv-x="571" 
d="M511 585l-67 -47.9971c-22.667 29.333 -46.167 50.5 -70.5 63.5s-55.5 19.5 -93.5 19.5c-42 0 -74.833 -9.16699 -98.5 -27.5s-35.5 -45.166 -35.5 -80.499c0 -37.333 12.667 -65.333 38 -84s67 -33.334 125 -44.001c74 -12.667 128.167 -34.334 162.5 -65.001
s51.5 -75.334 51.5 -134.001c0 -24 -4.16699 -46.833 -12.5 -68.5s-21.166 -42.167 -38.499 -61.5s-41.5 -34.666 -72.5 -45.999s-67.167 -17 -108.5 -17c-112 0 -194 37.667 -246 113l71 49c25.333 -30.667 50.666 -52.334 75.999 -65.001s58.333 -19 99 -19
c97.333 0 146 37 146 111c0 36 -12.167 64.167 -36.5 84.5s-66.5 35.166 -126.5 44.499c-142.667 22 -214 89.333 -214 202c0 56 19.167 101 57.5 135s93.5 51 165.5 51c102.667 0 178.667 -37.667 228 -113zM104 737.003l138 142h92l138 -142h-97l-87 91l-87 -91h-97z" />
    <glyph glyph-name="scircumflex" unicode="&#x15d;" horiz-adv-x="466" 
d="M406 425l-59.9971 -42.002c-14 18.667 -30 31.834 -48 39.501s-43.333 11.5 -76 11.5c-30 0 -53.667 -5.83301 -71 -17.5s-26 -28.167 -26 -49.5c0 -47.333 38.667 -73.666 116 -78.999c51.333 -4 92.666 -15.333 123.999 -34c37.333 -20.667 56 -59 56 -115
c0 -46.667 -16 -82.834 -48 -108.501s-78.667 -38.5 -140 -38.5c-88.667 0 -153 27.667 -193 83l59 42c14 -18 31.167 -31 51.5 -39s48.166 -12 83.499 -12c33.333 0 59.5 6.16699 78.5 18.5s28.5 29.833 28.5 52.5c0 26.667 -9.33301 45.834 -28 57.501
s-52.334 19.167 -101.001 22.5c-111.333 8 -167 57.667 -167 149c0 43.333 15.667 77.833 47 103.5s75.333 38.5 132 38.5c86 0 146.667 -27.667 182 -83zM76.0029 557.998l108 142h92l108 -142h-82l-72 97l-72 -97h-82z" />
    <glyph glyph-name="Scedilla" unicode="&#x15e;" horiz-adv-x="571" 
d="M248 -69l12 62.0039c-96 6.66699 -167.667 44 -215 112l71 49c25.333 -30.667 50.666 -52.334 75.999 -65.001s58.333 -19 99 -19c97.333 0 146 37 146 111c0 36 -12.167 64.167 -36.5 84.5s-66.5 35.166 -126.5 44.499c-142.667 22 -214 89.333 -214 202
c0 56 19.167 101 57.5 135s93.5 51 165.5 51c102.667 0 178.667 -37.667 228 -113l-67 -48c-22.667 29.333 -46.167 50.5 -70.5 63.5s-55.5 19.5 -93.5 19.5c-42 0 -74.833 -9.16699 -98.5 -27.5s-35.5 -45.166 -35.5 -80.499c0 -37.333 12.667 -65.333 38 -84
s67 -33.334 125 -44.001c74 -12.667 128.167 -34.334 162.5 -65.001s51.5 -75.334 51.5 -134.001c0 -50 -17 -93.333 -51 -130c-34.667 -37.333 -87 -58 -157 -62l-4 -16c41.333 -11.333 62 -36 62 -74c0 -25.333 -10.167 -45.333 -30.5 -60s-47.166 -22 -80.499 -22
c-16.667 0 -29 1 -37 3l12 52c2.66699 -0.666992 9 -1 19 -1c31.333 0 47 9.33301 47 28s-18.333 28 -55 28z" />
    <glyph glyph-name="scedilla" unicode="&#x15f;" horiz-adv-x="466" 
d="M197 -69l13.001 61.9971c-76 2.66699 -132.667 30 -170 82l59 42c14 -18 31.167 -31 51.5 -39s48.166 -12 83.499 -12c33.333 0 59.5 6.16699 78.5 18.5s28.5 29.833 28.5 52.5c0 26.667 -9.33301 45.834 -28 57.501s-52.334 19.167 -101.001 22.5
c-111.333 8 -167 57.667 -167 149c0 43.333 15.667 77.833 47 103.5s75.333 38.5 132 38.5c86 0 146.667 -27.667 182 -83l-60 -42c-14 18.667 -30 31.834 -48 39.501s-43.333 11.5 -76 11.5c-30 0 -53.667 -5.83301 -71 -17.5s-26 -28.167 -26 -49.5
c0 -47.333 38.667 -73.666 116 -78.999c51.333 -4 92.666 -15.333 123.999 -34c37.333 -20.667 56 -59 56 -115c0 -42 -13.167 -75.667 -39.5 -101s-65.166 -40 -116.499 -44l-5 -17c41.333 -11.333 62 -36 62 -74c0 -25.333 -10.167 -45.333 -30.5 -60
s-47.166 -22 -80.499 -22c-16.667 0 -29 1 -37 3l12 52c2.66699 -0.666992 9 -1 19 -1c31.333 0 47 9.33301 47 28s-18.333 28 -55 28z" />
    <glyph glyph-name="Scaron" unicode="&#x160;" horiz-adv-x="571" 
d="M511 585l-67 -47.9971c-22.667 29.333 -46.167 50.5 -70.5 63.5s-55.5 19.5 -93.5 19.5c-42 0 -74.833 -9.16699 -98.5 -27.5s-35.5 -45.166 -35.5 -80.499c0 -37.333 12.667 -65.333 38 -84s67 -33.334 125 -44.001c74 -12.667 128.167 -34.334 162.5 -65.001
s51.5 -75.334 51.5 -134.001c0 -24 -4.16699 -46.833 -12.5 -68.5s-21.166 -42.167 -38.499 -61.5s-41.5 -34.666 -72.5 -45.999s-67.167 -17 -108.5 -17c-112 0 -194 37.667 -246 113l71 49c25.333 -30.667 50.666 -52.334 75.999 -65.001s58.333 -19 99 -19
c97.333 0 146 37 146 111c0 36 -12.167 64.167 -36.5 84.5s-66.5 35.166 -126.5 44.499c-142.667 22 -214 89.333 -214 202c0 56 19.167 101 57.5 135s93.5 51 165.5 51c102.667 0 178.667 -37.667 228 -113zM463 879.003l-138 -142h-92l-138 142h97l87 -91l87 91h97z" />
    <glyph glyph-name="scaron" unicode="&#x161;" horiz-adv-x="466" 
d="M406 425l-59.9971 -42.002c-14 18.667 -30 31.834 -48 39.501s-43.333 11.5 -76 11.5c-30 0 -53.667 -5.83301 -71 -17.5s-26 -28.167 -26 -49.5c0 -47.333 38.667 -73.666 116 -78.999c51.333 -4 92.666 -15.333 123.999 -34c37.333 -20.667 56 -59 56 -115
c0 -46.667 -16 -82.834 -48 -108.501s-78.667 -38.5 -140 -38.5c-88.667 0 -153 27.667 -193 83l59 42c14 -18 31.167 -31 51.5 -39s48.166 -12 83.499 -12c33.333 0 59.5 6.16699 78.5 18.5s28.5 29.833 28.5 52.5c0 26.667 -9.33301 45.834 -28 57.501
s-52.334 19.167 -101.001 22.5c-111.333 8 -167 57.667 -167 149c0 43.333 15.667 77.833 47 103.5s75.333 38.5 132 38.5c86 0 146.667 -27.667 182 -83zM386.003 699.998l-108 -142h-92l-108 142h82l72 -97l72 97h82z" />
    <glyph glyph-name="Tcedilla" unicode="&#x162;" horiz-adv-x="516" 
d="M217 -69l13.999 69h-16v612h-210v78h506v-78h-210v-612h-15l-6 -23c41.333 -11.333 62 -36 62 -74c0 -25.333 -10.167 -45.333 -30.5 -60s-47.166 -22 -80.499 -22c-16.667 0 -29 1 -37 3l12 52c2.66699 -0.666992 9 -1 19 -1c31.333 0 47 9.33301 47 28
s-18.333 28 -55 28z" />
    <glyph glyph-name="tcedilla" unicode="&#x163;" horiz-adv-x="315" 
d="M158 -69l15 76.001c-32 8 -54.667 23.667 -68 47s-20 56.666 -20 99.999v274h-64v72h64v110h80v-110h115v-72h-115v-254c0 -38.667 4.66699 -64.667 14 -78s29.666 -20 60.999 -20h40v-76h-53l-6 -23c41.333 -11.333 62 -36 62 -74c0 -25.333 -10.167 -45.333 -30.5 -60
s-47.166 -22 -80.499 -22c-16.667 0 -29 1 -37 3l12 52c2.66699 -0.666992 9 -1 19 -1c31.333 0 47 9.33301 47 28s-18.333 28 -55 28z" />
    <glyph glyph-name="Tcaron" unicode="&#x164;" horiz-adv-x="516" 
d="M5 612v78h506v-78h-210v-612h-86v612h-210zM442 879l-138 -142h-92l-138 142h97l87 -91l87 91h97z" />
    <glyph glyph-name="tcaron" unicode="&#x165;" horiz-adv-x="371" 
d="M85 428h-63.999v72h64v110h80v-110h115v-72h-115v-254c0 -38.667 4.66699 -64.667 14 -78s29.666 -20 60.999 -20h40v-76h-43c-56.667 -0 -96.167 11.833 -118.5 35.5s-33.5 63.167 -33.5 118.5v274zM295.001 690h96v-96l-96 -83v179z" />
    <glyph glyph-name="Umacron" unicode="&#x16a;" horiz-adv-x="670" 
d="M499 280v409.999h86v-409c0 -96.667 -21.5 -169 -64.5 -217s-104.833 -72 -185.5 -72s-142.5 23.833 -185.5 71.5s-64.5 119.834 -64.5 216.501v410h86v-410c0 -72.667 13.5 -125.834 40.5 -159.501s68.167 -50.5 123.5 -50.5s96.5 16.833 123.5 50.5
s40.5 86.834 40.5 159.501zM489 767.999h-309v72h309v-72z" />
    <glyph glyph-name="umacron" unicode="&#x16b;" horiz-adv-x="526" 
d="M381 500l80 0.000976562v-500h-80v49c-14 -20.667 -31 -35.334 -51 -44.001s-47.667 -13 -83 -13c-58 0 -102.833 16.167 -134.5 48.5s-47.5 81.5 -47.5 147.5v312h80v-311c0 -82 38 -123 114 -123c36 0 65.333 11.333 88 34s34 52 34 88v312zM398 600.001h-269v72h269
v-72z" />
    <glyph glyph-name="Ubreve" unicode="&#x16c;" horiz-adv-x="670" 
d="M499 280v409.999h86v-409c0 -96.667 -21.5 -169 -64.5 -217s-104.833 -72 -185.5 -72s-142.5 23.833 -185.5 71.5s-64.5 119.834 -64.5 216.501v410h86v-410c0 -72.667 13.5 -125.834 40.5 -159.501s68.167 -50.5 123.5 -50.5s96.5 16.833 123.5 50.5
s40.5 86.834 40.5 159.501zM442 879.999h78.001c0 -48 -16.333 -85.333 -49 -112s-77.667 -40 -135 -40s-102.5 13.333 -135.5 40s-49.5 64 -49.5 112h78c5.33301 -49.333 41 -74 107 -74c65.333 0 100.666 24.667 105.999 74z" />
    <glyph glyph-name="ubreve" unicode="&#x16d;" horiz-adv-x="526" 
d="M381 500l80 0.000976562v-500h-80v49c-14 -20.667 -31 -35.334 -51 -44.001s-47.667 -13 -83 -13c-58 0 -102.833 16.167 -134.5 48.5s-47.5 81.5 -47.5 147.5v312h80v-311c0 -82 38 -123 114 -123c36 0 65.333 11.333 88 34s34 52 34 88v312zM334 690.001
l65 0.000976562c-2.66699 -78.667 -48 -118 -136 -118s-133.333 39.333 -136 118h66c2 -20.667 8.5 -35.834 19.5 -45.501s27.833 -14.5 50.5 -14.5c43.333 0 67 20 71 60z" />
    <glyph glyph-name="Uring" unicode="&#x16e;" horiz-adv-x="670" 
d="M499 280v409.999h86v-409c0 -96.667 -21.5 -169 -64.5 -217s-104.833 -72 -185.5 -72s-142.5 23.833 -185.5 71.5s-64.5 119.834 -64.5 216.501v410h86v-410c0 -72.667 13.5 -125.834 40.5 -159.501s68.167 -50.5 123.5 -50.5s96.5 16.833 123.5 50.5
s40.5 86.834 40.5 159.501zM226 799.999c0 29.333 10.333 53.166 31 71.499s46.667 27.5 78 27.5c32 0 58.333 -9.16699 79 -27.5s31 -42.166 31 -71.499s-10.333 -53 -31 -71s-47 -27 -79 -27c-31.333 0 -57.333 9 -78 27s-31 41.667 -31 71zM278 799.999
c0 -14 5.33105 -25.333 15.998 -34s24.334 -13 41.001 -13s30.334 4.33301 41.001 13s16 20 16 34c2 19.333 -7 33.166 -27 41.499s-40 8.33301 -60 0s-29 -22.166 -27 -41.499z" />
    <glyph glyph-name="uring" unicode="&#x16f;" horiz-adv-x="526" 
d="M381 500l80 0.000976562v-500h-80v49c-14 -20.667 -31 -35.334 -51 -44.001s-47.667 -13 -83 -13c-58 0 -102.833 16.167 -134.5 48.5s-47.5 81.5 -47.5 147.5v312h80v-311c0 -82 38 -123 114 -123c36 0 65.333 11.333 88 34s34 52 34 88v312zM155 646.001
c0 30.667 10.667 56.667 32 78s47 32 77 32c30.667 0 56.667 -10.667 78 -32s32 -47.333 32 -78c0 -30 -10.667 -55.667 -32 -77s-47.333 -32 -78 -32c-30 0 -55.667 10.667 -77 32s-32 47 -32 77zM207 646.001c0 -15.333 5.66699 -28.666 17 -39.999s24.666 -17 39.999 -17
c16 0 29.5 5.66699 40.5 17s16.5 24.666 16.5 39.999c0 16 -5.5 29.5 -16.5 40.5s-24.5 16.5 -40.5 16.5c-15.333 0 -28.666 -5.5 -39.999 -16.5s-17 -24.5 -17 -40.5z" />
    <glyph glyph-name="Uhungarumlaut" unicode="&#x170;" horiz-adv-x="670" 
d="M499 280v409.999h86v-409c0 -96.667 -21.5 -169 -64.5 -217s-104.833 -72 -185.5 -72s-142.5 23.833 -185.5 71.5s-64.5 119.834 -64.5 216.501v410h86v-410c0 -72.667 13.5 -125.834 40.5 -159.501s68.167 -50.5 123.5 -50.5s96.5 16.833 123.5 50.5
s40.5 86.834 40.5 159.501zM280 746.999h-77l80 129h100zM450 746.999h-77l90 129h100z" />
    <glyph glyph-name="uhungarumlaut" unicode="&#x171;" horiz-adv-x="526" 
d="M381 500l80 0.000976562v-500h-80v49c-14 -20.667 -31 -35.334 -51 -44.001s-47.667 -13 -83 -13c-58 0 -102.833 16.167 -134.5 48.5s-47.5 81.5 -47.5 147.5v312h80v-311c0 -82 38 -123 114 -123c36 0 65.333 11.333 88 34s34 52 34 88v312zM220 567.001h-75l70 158h96
zM374 567.001h-75l90 158h96z" />
    <glyph glyph-name="Uogonek" unicode="&#x172;" horiz-adv-x="670" 
d="M499 280v409.999h86v-409c0 -171.333 -67 -266.333 -201 -285c-36.667 -22.667 -55 -43.667 -55 -63c0 -18.667 15 -28 45 -28c11.333 0 18.333 0.333008 21 1l12 -52c-8 -2 -22.667 -3 -44 -3c-30 0 -54.833 6.5 -74.5 19.5s-29.5 31.833 -29.5 56.5
s10 47.334 30 68.001c-136 16 -204 111 -204 285v410h86v-410c0 -72.667 13.5 -125.834 40.5 -159.501s68.167 -50.5 123.5 -50.5s96.5 16.833 123.5 50.5s40.5 86.834 40.5 159.501z" />
    <glyph glyph-name="uogonek" unicode="&#x173;" horiz-adv-x="526" 
d="M381 500l80 0.000976562v-500c-24 -14 -40.833 -26 -50.5 -36s-14.5 -20.667 -14.5 -32c0 -18.667 15 -28 45 -28c3.33301 0 10.333 0.666992 21 2l12 -53c-8 -2 -22.667 -3 -44 -3c-30 0 -54.833 6.5 -74.5 19.5s-29.5 31.833 -29.5 56.5c0 33.333 18.333 62.333 55 87
v36c-14 -20.667 -31 -35.334 -51 -44.001s-47.667 -13 -83 -13c-58 0 -102.833 16.167 -134.5 48.5s-47.5 81.5 -47.5 147.5v312h80v-311c0 -82 38 -123 114 -123c36 0 65.333 11.333 88 34s34 52 34 88v312z" />
    <glyph glyph-name="Ydieresis" unicode="&#x178;" horiz-adv-x="556" 
d="M235 296l-215 394h101l157 -300l157 300h101l-215 -394v-296h-86v296zM218 779h-90v90h90v-90zM428 779h-90v90h90v-90z" />
    <glyph glyph-name="Zacute" unicode="&#x179;" horiz-adv-x="519" 
d="M30 612v78h449v-58l-338 -554h348v-78h-459v58l337 554h-337zM279 747h-77l80 129h100z" />
    <glyph glyph-name="zacute" unicode="&#x17a;" horiz-adv-x="450" 
d="M41 0v62l264 366h-264v72h369v-62l-262 -366h262v-72h-369zM258 567h-75l70 158h96z" />
    <glyph glyph-name="Zdotaccent" unicode="&#x17b;" horiz-adv-x="519" 
d="M30 612v78h449v-58l-338 -554h348v-78h-459v58l337 554h-337zM303 779h-90v90h90v-90z" />
    <glyph glyph-name="zdotaccent" unicode="&#x17c;" horiz-adv-x="450" 
d="M41 0v62l264 366h-264v72h369v-62l-262 -366h262v-72h-369zM276 600h-90v90h90v-90z" />
    <glyph glyph-name="Zcaron" unicode="&#x17d;" horiz-adv-x="519" 
d="M30 612v78h449v-58l-338 -554h348v-78h-459v58l337 554h-337zM454 879l-138 -142h-92l-138 142h97l87 -91l87 91h97z" />
    <glyph glyph-name="zcaron" unicode="&#x17e;" horiz-adv-x="450" 
d="M41 0v62l264 366h-264v72h369v-62l-262 -366h262v-72h-369zM388 700l-108 -142h-92l-108 142h82l72 -97l72 97h82z" />
    <glyph glyph-name="uni018F" unicode="&#x18f;" horiz-adv-x="604" 
d="M50 307l-0.000976562 40.001h418v36c0 82 -13.5 142 -40.5 180s-68.167 57 -123.5 57c-89.333 0 -144 -48.333 -164 -145h-84c10.667 73.333 37.334 128.833 80.001 166.5s98.667 56.5 168 56.5c166.667 0 250 -105 250 -315v-76c0 -210 -83.333 -315 -250 -315
c-82 0 -144.833 26.167 -188.5 78.5s-65.5 131.166 -65.5 236.499zM303.999 70.001c50.667 0 89.3311 15.833 115.998 47.5s42.334 82.167 47.001 151.5h-330c4.66699 -68.667 20.834 -119 48.501 -151s67.167 -48 118.5 -48z" />
    <glyph glyph-name="florin" unicode="&#x192;" 
d="M137 422l0.000976562 77.999h64v36c0 55.333 11.167 94.833 33.5 118.5s61.833 35.5 118.5 35.5h23v-78h-20c-30.667 0 -50.667 -6.66699 -60 -20c-8 -13.333 -12 -38.666 -12 -75.999v-16h92v-78h-92v-458c0 -54 -12.833 -93.167 -38.5 -117.5
s-68.834 -36.5 -129.501 -36.5v78c40.667 0 65 9.66699 73 29c8 14.667 12 37 12 67v438h-64z" />
    <glyph glyph-name="uni01DD" unicode="&#x1dd;" horiz-adv-x="488" 
d="M121 380l-62.001 44c17.333 30 39.833 51.5 67.5 64.5s63.5 19.5 107.5 19.5c66.667 0 119 -20.167 157 -60.5s57 -95.5 57 -165.5v-66c0 -72 -17 -127.333 -51 -166s-83 -58 -147 -58c-65.333 0 -114.666 19.167 -147.999 57.5s-50 93.833 -50 166.5v52h316v14
c0 46.667 -11 84 -33 112s-53.667 42 -95 42c-58 0 -97.667 -18.667 -119 -56zM249.999 64c73.333 0 112.667 44.667 118 134h-235c4 -89.333 43 -134 117 -134z" />
    <glyph glyph-name="Scommaaccent" unicode="&#x218;" horiz-adv-x="571" 
d="M511 585l-67 -47.9971c-22.667 29.333 -46.167 50.5 -70.5 63.5s-55.5 19.5 -93.5 19.5c-42 0 -74.833 -9.16699 -98.5 -27.5s-35.5 -45.166 -35.5 -80.499c0 -37.333 12.667 -65.333 38 -84s67 -33.334 125 -44.001c74 -12.667 128.167 -34.334 162.5 -65.001
s51.5 -75.334 51.5 -134.001c0 -24 -4.16699 -46.833 -12.5 -68.5s-21.166 -42.167 -38.499 -61.5s-41.5 -34.666 -72.5 -45.999s-67.167 -17 -108.5 -17c-112 0 -194 37.667 -246 113l71 49c25.333 -30.667 50.666 -52.334 75.999 -65.001s58.333 -19 99 -19
c97.333 0 146 37 146 111c0 36 -12.167 64.167 -36.5 84.5s-66.5 35.166 -126.5 44.499c-142.667 22 -214 89.333 -214 202c0 56 19.167 101 57.5 135s93.5 51 165.5 51c102.667 0 178.667 -37.667 228 -113zM253 -63.9971h96v-96l-96 -83v179z" />
    <glyph glyph-name="scommaaccent" unicode="&#x219;" horiz-adv-x="466" 
d="M406 425l-59.9971 -42.002c-14 18.667 -30 31.834 -48 39.501s-43.333 11.5 -76 11.5c-30 0 -53.667 -5.83301 -71 -17.5s-26 -28.167 -26 -49.5c0 -47.333 38.667 -73.666 116 -78.999c51.333 -4 92.666 -15.333 123.999 -34c37.333 -20.667 56 -59 56 -115
c0 -46.667 -16 -82.834 -48 -108.501s-78.667 -38.5 -140 -38.5c-88.667 0 -153 27.667 -193 83l59 42c14 -18 31.167 -31 51.5 -39s48.166 -12 83.499 -12c33.333 0 59.5 6.16699 78.5 18.5s28.5 29.833 28.5 52.5c0 26.667 -9.33301 45.834 -28 57.501
s-52.334 19.167 -101.001 22.5c-111.333 8 -167 57.667 -167 149c0 43.333 15.667 77.833 47 103.5s75.333 38.5 132 38.5c86 0 146.667 -27.667 182 -83zM187.003 -64.002h96v-96l-96 -83v179z" />
    <glyph glyph-name="Tcommaaccent" unicode="&#x21a;" horiz-adv-x="516" 
d="M5 612v78h506v-78h-210v-612h-86v612h-210zM210 -64h96v-96l-96 -83v179z" />
    <glyph glyph-name="tcommaaccent" unicode="&#x21b;" horiz-adv-x="315" 
d="M85 428h-63.999v72h64v110h80v-110h115v-72h-115v-254c0 -38.667 4.66699 -64.667 14 -78s29.666 -20 60.999 -20h40v-76h-43c-56.667 -0 -96.167 11.833 -118.5 35.5s-33.5 63.167 -33.5 118.5v274zM137.001 -64h96v-96l-96 -83v179z" />
    <glyph glyph-name="uni0237" unicode="&#x237;" horiz-adv-x="235" 
d="M85 500h80.001v-536c0 -54.667 -12.333 -94 -37 -118s-67.334 -36 -128.001 -36v74c40.667 0 65 10.333 73 31c8 15.333 12 38.333 12 69v516z" />
    <glyph glyph-name="uni0259" unicode="&#x259;" horiz-adv-x="488" 
d="M121 380l-62.001 44c17.333 30 39.833 51.5 67.5 64.5s63.5 19.5 107.5 19.5c66.667 0 119 -20.167 157 -60.5s57 -95.5 57 -165.5v-66c0 -72 -17 -127.333 -51 -166s-83 -58 -147 -58c-65.333 0 -114.666 19.167 -147.999 57.5s-50 93.833 -50 166.5v52h316v14
c0 46.667 -11 84 -33 112s-53.667 42 -95 42c-58 0 -97.667 -18.667 -119 -56zM249.999 64c73.333 0 112.667 44.667 118 134h-235c4 -89.333 43 -134 117 -134z" />
    <glyph glyph-name="afii57929" unicode="&#x2bc;" horiz-adv-x="151" 
d="M35 500h96v-146l-96 -83v229z" />
    <glyph glyph-name="circumflex" unicode="&#x2c6;" horiz-adv-x="407" 
d="M49 558l108 142h92l108 -142h-82l-72 97l-72 -97h-82z" />
    <glyph glyph-name="caron" unicode="&#x2c7;" horiz-adv-x="407" 
d="M357 700l-108 -142h-92l-108 142h82l72 -97l72 97h82z" />
    <glyph glyph-name="breve" unicode="&#x2d8;" horiz-adv-x="399" 
d="M270 690l65 0.000976562c-2.66699 -78.667 -48 -118 -136 -118s-133.333 39.333 -136 118h66c2 -20.667 8.5 -35.834 19.5 -45.501s27.833 -14.5 50.5 -14.5c43.333 0 67 20 71 60z" />
    <glyph glyph-name="dotaccent" unicode="&#x2d9;" horiz-adv-x="299" 
d="M194 600h-90v90h90v-90z" />
    <glyph glyph-name="ring" unicode="&#x2da;" horiz-adv-x="373" 
d="M77 646c0 30.667 10.667 56.667 32 78s47 32 77 32c30.667 0 56.667 -10.667 78 -32s32 -47.333 32 -78c0 -30 -10.667 -55.667 -32 -77s-47.333 -32 -78 -32c-30 0 -55.667 10.667 -77 32s-32 47 -32 77zM129 646c0 -15.333 5.66699 -28.666 17 -39.999
s24.666 -17 39.999 -17c16 0 29.5 5.66699 40.5 17s16.5 24.666 16.5 39.999c0 16 -5.5 29.5 -16.5 40.5s-24.5 16.5 -40.5 16.5c-15.333 0 -28.666 -5.5 -39.999 -16.5s-17 -24.5 -17 -40.5z" />
    <glyph glyph-name="ogonek" unicode="&#x2db;" horiz-adv-x="333" 
d="M216 52l11 -52c-24 -14 -40.833 -26 -50.5 -36s-14.5 -20.667 -14.5 -32c0 -18.667 15 -28 45 -28c3.33301 0 10.333 0.666992 21 2l12 -53c-8 -2 -22.667 -3 -44 -3c-30 0 -54.833 6.5 -74.5 19.5s-29.5 31.833 -29.5 56.5c0 25.333 9.66699 47.5 29 66.5
s51 38.833 95 59.5z" />
    <glyph glyph-name="tilde" unicode="&#x2dc;" horiz-adv-x="420" 
d="M268 589c-15.333 0 -34.998 4.33301 -58.998 13c-24.667 9.33301 -43.334 14 -56.001 14c-22 0 -41.667 -8.66699 -59 -26l-47 44c29.333 33.333 64.666 50 105.999 50c12.667 0 32 -4.66699 58 -14c24 -8.66699 43.333 -13 58 -13c20.667 0 39.667 8.66699 57 26l47 -44
c-29.333 -33.333 -64.333 -50 -105 -50z" />
    <glyph glyph-name="hungarumlaut" unicode="&#x2dd;" horiz-adv-x="453" 
d="M131 567h-75l70 158h96zM285 567h-75l90 158h96z" />
    <glyph glyph-name="acutecomb" unicode="&#x301;" horiz-adv-x="0" 
d="M-226 567h-75l70 158h96z" />
    <glyph glyph-name="uni0394" unicode="&#x2206;" horiz-adv-x="531" 
d="M315 690l196 -690h-491l195 690h100zM132 78h266l-133 497z" />
    <glyph glyph-name="uni0394" unicode="&#x394;" horiz-adv-x="531" 
d="M315 690l196 -690h-491l195 690h100zM132 78h266l-133 497z" />
    <glyph glyph-name="uni03A9" unicode="&#x2126;" horiz-adv-x="620" 
d="M486 78h74v-78h-184v78c19.333 11.333 35.333 24 48 38c14 14.667 25.833 39 35.5 73s14.5 74 14.5 120v74c0 82 -13.5 142 -40.5 180s-68.167 57 -123.5 57s-96.5 -19 -123.5 -57s-40.5 -98 -40.5 -180v-74c0 -74 10.333 -129 31 -165c18 -28.667 40.333 -50.667 67 -66
v-78h-184v78h74c-49.333 51.333 -74 128.333 -74 231v74c0 210 83.333 315 250 315s250 -105 250 -315v-74c0 -102.667 -24.667 -179.667 -74 -231z" />
    <glyph glyph-name="uni03A9" unicode="&#x3a9;" horiz-adv-x="620" 
d="M486 78h74v-78h-184v78c19.333 11.333 35.333 24 48 38c14 14.667 25.833 39 35.5 73s14.5 74 14.5 120v74c0 82 -13.5 142 -40.5 180s-68.167 57 -123.5 57s-96.5 -19 -123.5 -57s-40.5 -98 -40.5 -180v-74c0 -74 10.333 -129 31 -165c18 -28.667 40.333 -50.667 67 -66
v-78h-184v78h74c-49.333 51.333 -74 128.333 -74 231v74c0 210 83.333 315 250 315s250 -105 250 -315v-74c0 -102.667 -24.667 -179.667 -74 -231z" />
    <glyph glyph-name="pi" unicode="&#x3c0;" horiz-adv-x="581" 
d="M391 154v274h-236v-428h-80v428h-85v72h566v-72h-85v-254c0 -28 3.66699 -51.333 11 -70c10.667 -20 35.334 -30 74.001 -30v-74c-60.667 0 -103.334 12 -128.001 36s-37 63.333 -37 118z" />
    <glyph glyph-name="afii10023" unicode="&#x401;" horiz-adv-x="541" 
d="M85 0v690h416v-78h-330v-216h300v-78h-300v-240h330v-78h-416zM229 779h-90v90h90v-90zM439 779h-90v90h90v-90z" />
    <glyph glyph-name="afii10051" unicode="&#x402;" horiz-adv-x="727" 
d="M5 612l-0.000976562 78h506v-78h-210v-227c13.333 12.667 34.166 23.667 62.499 33s58.833 14 91.5 14c82.667 0 141.334 -18.5 176.001 -55.5s52 -97.833 52 -182.5v-27c0 -57.333 -12.667 -100.666 -38 -129.999c-8.66699 -10.667 -21.667 -19 -39 -25
c-22 -8 -50 -12 -84 -12h-31v78h31c26.667 0 45.834 7.66699 57.501 23s17.5 38.666 17.5 69.999v23c0 58.667 -12.167 100 -36.5 124s-64.166 36 -119.499 36c-66.667 0 -113.334 -20.333 -140.001 -61v-293h-86v612h-210z" />
    <glyph glyph-name="afii10052" unicode="&#x403;" horiz-adv-x="481" 
d="M85 690h396v-78h-310v-612h-86v690zM313 747h-77l80 129h100z" />
    <glyph glyph-name="afii10053" unicode="&#x404;" horiz-adv-x="578" 
d="M548 475l-83.9971 0.000976562c-11.333 51.333 -30.333 88.333 -57 111s-62.334 34 -107.001 34c-55.333 0 -96.5 -18.833 -123.5 -56.5s-40.5 -96.834 -40.5 -177.501h261v-78h-261c0 -82.667 13.5 -143 40.5 -181s68.167 -57 123.5 -57
c45.333 0 81.166 11.667 107.499 35s45.166 60 56.499 110h83c-10 -74 -36.333 -129.667 -79 -167s-98.667 -56 -168 -56c-166.667 0 -250 105 -250 315v76c0 210 83.333 315 250 315c70 0 126.167 -18.833 168.5 -56.5s68.833 -93.167 79.5 -166.5z" />
    <glyph glyph-name="afii10054" unicode="&#x405;" horiz-adv-x="571" 
d="M511 585l-67 -47.9971c-22.667 29.333 -46.167 50.5 -70.5 63.5s-55.5 19.5 -93.5 19.5c-42 0 -74.833 -9.16699 -98.5 -27.5s-35.5 -45.166 -35.5 -80.499c0 -37.333 12.667 -65.333 38 -84s67 -33.334 125 -44.001c74 -12.667 128.167 -34.334 162.5 -65.001
s51.5 -75.334 51.5 -134.001c0 -24 -4.16699 -46.833 -12.5 -68.5s-21.166 -42.167 -38.499 -61.5s-41.5 -34.666 -72.5 -45.999s-67.167 -17 -108.5 -17c-112 0 -194 37.667 -246 113l71 49c25.333 -30.667 50.666 -52.334 75.999 -65.001s58.333 -19 99 -19
c97.333 0 146 37 146 111c0 36 -12.167 64.167 -36.5 84.5s-66.5 35.166 -126.5 44.499c-142.667 22 -214 89.333 -214 202c0 56 19.167 101 57.5 135s93.5 51 165.5 51c102.667 0 178.667 -37.667 228 -113z" />
    <glyph glyph-name="afii10055" unicode="&#x406;" horiz-adv-x="276" 
d="M95 690h86v-690h-86v690zM184 779h-90v90h90v-90z" />
    <glyph glyph-name="afii10056" unicode="&#x407;" horiz-adv-x="276" 
d="M95 690h86v-690h-86v690zM78 779h-90v90h90v-90zM288 779h-90v90h90v-90z" />
    <glyph glyph-name="afii10057" unicode="&#x408;" horiz-adv-x="505" 
d="M5 78l74.001 42c25.333 -33.333 61.666 -50 108.999 -50c50.667 0 87.667 16.5 111 49.5s35 87.833 35 164.5v406h86v-406c0 -194.667 -77.333 -292 -232 -292c-86 0 -147 28.667 -183 86z" />
    <glyph glyph-name="afii10058" unicode="&#x409;" horiz-adv-x="983" 
d="M144 530l0.000976562 160h414v-273h147c80.667 0 140.667 -20.667 180 -62c38.667 -40.667 58 -89.667 58 -147s-19.333 -106.333 -58 -147s-98.667 -61 -180 -61h-233v612h-242v-82c0 -208 -12 -342.667 -36 -404c-14 -38 -34.333 -66.833 -61 -86.5
s-64.334 -35.5 -113.001 -47.5v97c48 11.333 79.333 37.333 94 78c20 55.333 30 176.333 30 363zM705.001 339h-147v-261h147c49.333 0 87 11.667 113 35s39 55 39 95c0 40.667 -13 72.667 -39 96s-63.667 35 -113 35z" />
    <glyph glyph-name="afii10059" unicode="&#x40a;" horiz-adv-x="978" 
d="M85 690h86v-294h296v294h86v-273h147c80.667 0 140.667 -20.667 180 -62c38.667 -40.667 58 -89.667 58 -147s-19.333 -106.333 -58 -147s-98.667 -61 -180 -61h-233v318h-296v-318h-86v690zM700 339h-147v-261h147c49.333 0 87 11.667 113 35s39 55 39 95
c0 40.667 -13 72.667 -39 96s-63.667 35 -113 35z" />
    <glyph glyph-name="afii10060" unicode="&#x40b;" horiz-adv-x="727" 
d="M683 0h-86v194c0 58.667 -12.167 100 -36.5 124s-64.166 36 -119.499 36c-66.667 0 -113.334 -20.333 -140.001 -61v-293h-86v612h-210v78h506v-78h-210v-227c13.333 12.667 34.166 23.667 62.499 33s58.833 14 91.5 14c82.667 0 141.334 -18.5 176.001 -55.5
s52 -97.833 52 -182.5v-194z" />
    <glyph glyph-name="afii10061" unicode="&#x40c;" horiz-adv-x="603" 
d="M342 350l251 -350h-105l-220 308h-97v-308h-86v690h86v-304h95l190 304h96zM322 747h-77l80 129h100z" />
    <glyph glyph-name="afii10062" unicode="&#x40e;" horiz-adv-x="582" 
d="M306 263l172 427h90l-235 -574c-20 -48 -43.667 -80.667 -71 -98s-69.666 -26 -126.999 -26v79c37.333 0 63.666 4.33301 78.999 13c17.333 9.33301 32.333 30.333 45 63l3 8l-237 535h94zM391 879h81c0 -94.667 -58 -142 -174 -142c-116.667 0 -175 47.333 -175 142h82
c0 -53.333 31 -80 93 -80s93 26.667 93 80z" />
    <glyph glyph-name="afii10145" unicode="&#x40f;" horiz-adv-x="638" 
d="M362 0v-130h-86v130h-191v690h86v-612h296v612h86v-690h-191z" />
    <glyph glyph-name="afii10017" unicode="&#x410;" horiz-adv-x="580" 
d="M154 158l-53 -158h-91l240 690h80l240 -690h-91l-53 158h-272zM399 236l-109 324l-109 -324h218z" />
    <glyph glyph-name="afii10018" unicode="&#x411;" horiz-adv-x="596" 
d="M85 690h427v-78h-341v-195h147c80.667 0 140.667 -20.667 180 -62c38.667 -40.667 58 -89.667 58 -147s-19.333 -106.333 -58 -147s-98.667 -61 -180 -61h-233v690zM318 339h-147v-261h147c49.333 0 87 11.667 113 35s39 55 39 95c0 40.667 -13 72.667 -39 96
s-63.667 35 -113 35z" />
    <glyph glyph-name="afii10019" unicode="&#x412;" horiz-adv-x="596" 
d="M85 0l-0.000976562 690h211c158.667 0 238 -58.667 238 -176c0 -36 -10.667 -68.667 -32 -98s-48.666 -48 -81.999 -56c43.333 -8 76.833 -26 100.5 -54s35.5 -64 35.5 -108c0 -56 -19.333 -103 -58 -141c-38 -38 -98 -57 -180 -57h-233zM301.999 319h-131.001v-241h147
c101.333 0 152 40 152 120c0 41.333 -13.667 71.833 -41 91.5s-69.666 29.5 -126.999 29.5zM295.998 613l-125 -0.000976562v-216h140c45.333 0 79.5 10.333 102.5 31s34.5 49.334 34.5 86.001c0 34 -11.5 59 -34.5 75s-62.167 24 -117.5 24z" />
    <glyph glyph-name="afii10020" unicode="&#x413;" horiz-adv-x="481" 
d="M85 690h396v-78h-310v-612h-86v690z" />
    <glyph glyph-name="afii10021" unicode="&#x414;" horiz-adv-x="666" 
d="M96 0v-130h-86v208h30c30 17.333 54.333 57 73 119c22 70 33 181.667 33 335v158h414v-612h86v-208h-86v130h-464zM190 156c-10 -32.667 -23.333 -58.667 -40 -78h324v534h-242v-80c0 -168 -14 -293.333 -42 -376z" />
    <glyph glyph-name="afii10022" unicode="&#x415;" horiz-adv-x="541" 
d="M85 0v690h416v-78h-330v-216h300v-78h-300v-240h330v-78h-416z" />
    <glyph glyph-name="afii10024" unicode="&#x416;" horiz-adv-x="868" 
d="M300 308l-187 -308h-103l212 349l-171 341h94l150 -304h96v304h86v-304h95l151 304h94l-172 -341l213 -349h-103l-187 308h-91v-308h-86v308h-91z" />
    <glyph glyph-name="afii10025" unicode="&#x417;" horiz-adv-x="558" 
d="M264 319h-52.9971v78h62c45.333 0 79.5 10.333 102.5 31s34.5 49.667 34.5 87c0 33.333 -10.333 59.333 -31 78s-51.667 28 -93 28c-40.667 0 -73.334 -8.5 -98.001 -25.5s-43 -44.167 -55 -81.5h-80c8 56.667 34 101.334 78 134.001c44.667 33.333 94.667 50 150 50
c68.667 0 121.667 -16 159 -48s56 -77 56 -135c0 -72.667 -38 -123.334 -114 -152.001c40 -9.33301 72.667 -29.333 98 -60s38 -66 38 -106c0 -56 -18.667 -104.333 -56 -145c-37.333 -40 -95 -60 -173 -60c-134.667 0 -217.334 65.333 -248.001 196h85
c16.667 -42.667 37.167 -73 61.5 -91s58.166 -27 101.499 -27c45.333 0 80.5 11.333 105.5 34s37.5 53.667 37.5 93c0 81.333 -56 122 -168 122z" />
    <glyph glyph-name="afii10026" unicode="&#x418;" horiz-adv-x="656" 
d="M85 0v690h86v-519l328 519h72v-690h-86v514l-326 -514h-74z" />
    <glyph glyph-name="afii10027" unicode="&#x419;" horiz-adv-x="656" 
d="M85 0v690h86v-519l328 519h72v-690h-86v514l-326 -514h-74zM432 879h81c0 -94.667 -58 -142 -174 -142c-116.667 0 -175 47.333 -175 142h82c0 -53.333 31 -80 93 -80s93 26.667 93 80z" />
    <glyph glyph-name="afii10028" unicode="&#x41a;" horiz-adv-x="603" 
d="M342 350l251 -350h-105l-220 308h-97v-308h-86v690h86v-304h95l190 304h96z" />
    <glyph glyph-name="afii10029" unicode="&#x41b;" horiz-adv-x="643" 
d="M144 530l0.000976562 160h414v-690h-86v612h-242v-82c0 -208 -12 -342.667 -36 -404c-14 -38 -34.333 -66.833 -61 -86.5s-64.334 -35.5 -113.001 -47.5v97c48 11.333 79.333 37.333 94 78c20 55.333 30 176.333 30 363z" />
    <glyph glyph-name="afii10030" unicode="&#x41c;" horiz-adv-x="752" 
d="M85 690h84l207 -430l206 430h85v-690h-86v506l-168 -362h-77l-165 359v-503h-86v690z" />
    <glyph glyph-name="afii10031" unicode="&#x41d;" horiz-adv-x="638" 
d="M85 690h86v-294h296v294h86v-690h-86v318h-296v-318h-86v690z" />
    <glyph glyph-name="afii10032" unicode="&#x41e;" horiz-adv-x="600" 
d="M550 383v-76c0 -210 -83.333 -315 -250 -315s-250 105 -250 315v76c0 210 83.333 315 250 315s250 -105 250 -315zM136 383v-76c0 -82 13.5 -142 40.5 -180s68.167 -57 123.5 -57s96.5 19 123.5 57s40.5 98 40.5 180v76c0 82 -13.5 142 -40.5 180s-68.167 57 -123.5 57
s-96.5 -19 -123.5 -57s-40.5 -98 -40.5 -180z" />
    <glyph glyph-name="afii10033" unicode="&#x41f;" horiz-adv-x="638" 
d="M85 0v690h468v-690h-86v612h-296v-612h-86z" />
    <glyph glyph-name="afii10034" unicode="&#x420;" horiz-adv-x="588" 
d="M305 263l-134 0.000976562v-263h-86v690h220c79.333 0 141 -18.833 185 -56.5s66 -90.167 66 -157.5c0 -66.667 -22 -118.834 -66 -156.501s-105.667 -56.5 -185 -56.5zM171 612.001v-271h134c110 0 165 45 165 135c0 90.667 -55 136 -165 136h-134z" />
    <glyph glyph-name="afii10035" unicode="&#x421;" horiz-adv-x="578" 
d="M548 475h-83.9971c-11.333 51.333 -30.333 88.333 -57 111s-62.334 34 -107.001 34c-55.333 0 -96.5 -19 -123.5 -57s-40.5 -98 -40.5 -180v-76c0 -82 13.5 -142 40.5 -180s68.167 -57 123.5 -57c45.333 0 81.166 11.667 107.499 35s45.166 60 56.499 110h83
c-10 -74 -36.333 -129.667 -79 -167s-98.667 -56 -168 -56c-166.667 0 -250 105 -250 315v76c0 210 83.333 315 250 315c70 0 126.167 -18.833 168.5 -56.5s68.833 -93.167 79.5 -166.5z" />
    <glyph glyph-name="afii10036" unicode="&#x422;" horiz-adv-x="516" 
d="M5 612v78h506v-78h-210v-612h-86v612h-210z" />
    <glyph glyph-name="afii10037" unicode="&#x423;" horiz-adv-x="582" 
d="M306 263l172 427h90l-235 -574c-20 -48 -43.667 -80.667 -71 -98s-69.666 -26 -126.999 -26v79c37.333 0 63.666 4.33301 78.999 13c17.333 9.33301 32.333 30.333 45 63l3 8l-237 535h94z" />
    <glyph glyph-name="afii10038" unicode="&#x424;" horiz-adv-x="746" 
d="M330 636v54h86v-54c186.667 0 280 -91.667 280 -275v-32c0 -183.333 -93.333 -275 -280 -275v-54h-86v54c-186.667 0 -280 91.667 -280 275v32c0 183.333 93.333 275 280 275zM416 558v-426c60 0 107.333 14.333 142 43s52 80 52 154v32c0 74 -17.333 125.333 -52 154
s-82 43 -142 43zM330 132v426c-60 0 -107.333 -14.333 -142 -43s-52 -80 -52 -154v-32c0 -74 17.333 -125.333 52 -154s82 -43 142 -43z" />
    <glyph glyph-name="afii10039" unicode="&#x425;" horiz-adv-x="552" 
d="M276 271l-161 -271h-95l206 356l-185 334h95l140 -256l140 256h95l-186 -334l207 -356h-95z" />
    <glyph glyph-name="afii10040" unicode="&#x426;" horiz-adv-x="649" 
d="M85 690h86v-612h296v612h86v-612h86v-208h-86v130h-468v690z" />
    <glyph glyph-name="afii10041" unicode="&#x427;" horiz-adv-x="588" 
d="M35 690h85.998v-194c0 -61.333 11.333 -103.333 34 -126s63.334 -34 122.001 -34c73.333 0 120 20.333 140 61v293h86v-690h-86v299c-27.333 -27.333 -78.666 -41 -153.999 -41c-87.333 0 -147.333 18.333 -180 55c-32 36.667 -48 97.667 -48 183v194z" />
    <glyph glyph-name="afii10042" unicode="&#x428;" horiz-adv-x="860" 
d="M85 690h86v-612h216v612h86v-612h216v612h86v-690h-690v690z" />
    <glyph glyph-name="afii10043" unicode="&#x429;" horiz-adv-x="871" 
d="M85 690h86v-612h216v612h86v-612h216v612h86v-612h86v-208h-86v130h-690v690z" />
    <glyph glyph-name="afii10044" unicode="&#x42a;" horiz-adv-x="644" 
d="M-20 612v78h239v-273h147c80.667 0 140.667 -20.667 180 -62c38.667 -40.667 58 -89.667 58 -147s-19.333 -106.333 -58 -147s-98.667 -61 -180 -61h-233v612h-153zM366 339h-147v-261h147c49.333 0 87 11.667 113 35s39 55 39 95c0 40.667 -13 72.667 -39 96
s-63.667 35 -113 35z" />
    <glyph glyph-name="afii10045" unicode="&#x42b;" horiz-adv-x="776" 
d="M85 0v690h86v-273h117c80.667 0 140.667 -20.667 180 -62c38.667 -40.667 58 -89.667 58 -147s-19.333 -106.333 -58 -147s-98.667 -61 -180 -61h-203zM288 339h-117v-261h117c49.333 0 87 11.667 113 35s39 55 39 95c0 40.667 -13 72.667 -39 96s-63.667 35 -113 35z
M605 690h86v-690h-86v690z" />
    <glyph glyph-name="afii10046" unicode="&#x42c;" horiz-adv-x="596" 
d="M85 0v690h86v-273h147c80.667 0 140.667 -20.667 180 -62c38.667 -40.667 58 -89.667 58 -147s-19.333 -106.333 -58 -147s-98.667 -61 -180 -61h-233zM318 339h-147v-261h147c49.333 0 87 11.667 113 35s39 55 39 95c0 40.667 -13 72.667 -39 96s-63.667 35 -113 35z
" />
    <glyph glyph-name="afii10047" unicode="&#x42d;" horiz-adv-x="578" 
d="M442 308l-260.997 -0.000976562v78h261c-0.666992 80.667 -14.5 139.834 -41.5 177.501s-67.833 56.5 -122.5 56.5c-44.667 0 -80.334 -11.333 -107.001 -34s-45.667 -59.667 -57 -111h-84c10.667 73.333 37.167 128.833 79.5 166.5s98.5 56.5 168.5 56.5
c166.667 0 250 -105 250 -315v-76c0 -210 -83.333 -315 -250 -315c-69.333 0 -125.333 18.667 -168 56s-69 93 -79 167h83c11.333 -50 30.166 -86.667 56.499 -110s62.166 -35 107.499 -35c55.333 0 96.5 19 123.5 57s40.5 98.333 40.5 181z" />
    <glyph glyph-name="afii10048" unicode="&#x42e;" horiz-adv-x="788" 
d="M738 383v-76c0 -210 -76.667 -315 -230 -315s-230 105 -230 315v11h-107v-318h-86v690h86v-294h107c3.33301 201.333 80 302 230 302c153.333 0 230 -105 230 -315zM364 383v-76c0 -83.333 11.5 -143.666 34.5 -180.999s59.5 -56 109.5 -56s86.5 18.667 109.5 56
s34.5 97.666 34.5 180.999v76c0 83.333 -11.5 143.666 -34.5 180.999s-59.5 56 -109.5 56s-86.5 -18.667 -109.5 -56s-34.5 -97.666 -34.5 -180.999z" />
    <glyph glyph-name="afii10049" unicode="&#x42f;" horiz-adv-x="604" 
d="M286 291l-170 -291h-96l178 302c-100 24 -150 86.667 -150 188c0 65.333 21.5 115 64.5 149s105.167 51 186.5 51h220v-690h-86v291h-147zM299 369h134v243h-134c-58.667 0 -100.834 -9.5 -126.501 -28.5s-38.5 -50.167 -38.5 -93.5c0 -42.667 12.833 -73.5 38.5 -92.5
s67.834 -28.5 126.501 -28.5z" />
    <glyph glyph-name="afii10065" unicode="&#x430;" horiz-adv-x="491" 
d="M40 146c0 95.333 62.3311 143.002 186.998 143.002h119v58c0 33.333 -8.16699 56.166 -24.5 68.499s-45.166 18.5 -86.499 18.5c-34.667 0 -60 -3.33301 -76 -10s-30.667 -20.334 -44 -41.001l-60 42c18 30 40.833 51.333 68.5 64s65.167 19 112.5 19
c66.667 0 115 -12.333 145 -37s45 -66 45 -124v-347h-80v49c-13.333 -22 -29.166 -37 -47.499 -45s-44.833 -12 -79.5 -12c-57.333 0 -101.5 13.5 -132.5 40.5s-46.5 64.833 -46.5 113.5zM345.998 192.002v29h-119c-37.333 0 -64.5 -6.16699 -81.5 -18.5
s-25.5 -31.833 -25.5 -58.5c0 -52 33 -78 99 -78c42 0 73.667 8 95 24c21.333 17.333 32 51.333 32 102z" />
    <glyph glyph-name="afii10066" unicode="&#x431;" horiz-adv-x="497" 
d="M398 722l44.999 -57c-15.333 -26 -44.333 -41 -87 -45l-95 -7c-52.667 -4 -89.667 -25.667 -111 -65c-10.667 -22 -18.667 -55 -24 -99c32 39.333 75.667 59 131 59c62 0 110.667 -19.833 146 -59.5s53 -94.5 53 -164.5v-66c0 -70 -17.667 -125.167 -53 -165.5
s-87 -60.5 -155 -60.5c-65.333 0 -116.333 20 -153 60s-55 95.333 -55 166v64c0 145.333 14.667 248 44 308c30 60 84 93 162 99l99 8c22.667 2 40.334 10.333 53.001 25zM247.999 64c40 0 71.333 14.333 94 43s34 65.667 34 111v66c0 48 -11.167 85.333 -33.5 112
s-53.833 40 -94.5 40s-72.167 -13.5 -94.5 -40.5s-33.5 -64.167 -33.5 -111.5v-66c0 -47.333 10.833 -84.833 32.5 -112.5s53.5 -41.5 95.5 -41.5z" />
    <glyph glyph-name="afii10067" unicode="&#x432;" horiz-adv-x="492" 
d="M65 0l0.000976562 500.001h185c56 0 99.667 -11.333 131 -34s47 -54.667 47 -96c0 -21.333 -6 -40.833 -18 -58.5s-27.333 -30.834 -46 -39.501c27.333 -8.66699 49.666 -24.5 66.999 -47.5s26 -50.167 26 -81.5c0 -42 -15.667 -76.333 -47 -103s-76 -40 -134 -40h-211z
M245.001 226.001h-100v-154h112c73.333 0 110 26 110 78c0 28 -9.33301 47.667 -28 59s-50 17 -94 17zM227.001 428.001h-82v-130h93c66.667 0 100 22 100 66c0 21.333 -8.5 37.333 -25.5 48s-45.5 16 -85.5 16z" />
    <glyph glyph-name="afii10068" unicode="&#x433;" horiz-adv-x="359" 
d="M65 500h304v-72h-224v-428h-80v500z" />
    <glyph glyph-name="afii10069" unicode="&#x434;" horiz-adv-x="536" 
d="M97 0v-117h-80v189h39c12 10 25.333 32 40 66c16 41.333 24 120.333 24 237v125h326v-428h70v-189h-80v117h-339zM163 90l-10 -18.001h213v356h-166v-67c0 -131.333 -12.333 -221.666 -37 -270.999z" />
    <glyph glyph-name="afii10070" unicode="&#x435;" horiz-adv-x="488" 
d="M367 120l62.001 -44c-17.333 -30 -39.833 -51.5 -67.5 -64.5s-63.5 -19.5 -107.5 -19.5c-66.667 0 -119 20.167 -157 60.5s-57 95.5 -57 165.5v66c0 72 17 127.333 51 166s83 58 147 58c65.333 0 114.666 -19.167 147.999 -57.5s50 -93.833 50 -166.5v-52h-316v-14
c0 -46.667 11 -84 33 -112s53.667 -42 95 -42c58 0 97.667 18.667 119 56zM238.001 436c-73.333 0 -112.667 -44.667 -118 -134h235c-4 89.333 -43 134 -117 134z" />
    <glyph glyph-name="afii10072" unicode="&#x436;" horiz-adv-x="666" 
d="M433 286l115 214h87l-132 -243l153 -257h-94l-126 216h-63v-216h-80v216h-63l-126 -216h-94l153 257l-132 243h87l115 -214h60v214h80v-214h60z" />
    <glyph glyph-name="afii10073" unicode="&#x437;" horiz-adv-x="448" 
d="M184 226h-43v72h46c69.333 0 104 24.333 104 73c0 20 -7.5 35.833 -22.5 47.5s-37.167 17.5 -66.5 17.5c-41.333 0 -77.666 -16.667 -108.999 -50l-63 44c38.667 52 97.667 78 177 78c51.333 0 93.166 -12 125.499 -36s48.5 -54.333 48.5 -91
c0 -51.333 -24.667 -88.666 -74 -111.999c28 -8.66699 50.5 -24.334 67.5 -47.001s25.5 -49.667 25.5 -81c0 -40.667 -16 -75.667 -48 -105c-31.333 -29.333 -78 -44 -140 -44c-93.333 0 -156.333 28 -189 84l62 44c24 -37.333 65.333 -56 124 -56
c30.667 0 55.167 7.5 73.5 22.5s27.5 35.5 27.5 61.5c0 52 -42 78 -126 78z" />
    <glyph glyph-name="afii10074" unicode="&#x438;" horiz-adv-x="536" 
d="M65 500h80v-361l249 361h77v-500h-80v368l-251 -368h-75v500z" />
    <glyph glyph-name="afii10075" unicode="&#x439;" horiz-adv-x="536" 
d="M65 500h80v-361l249 361h77v-500h-80v368l-251 -368h-75v500zM333 690h71c0 -78.667 -45.333 -118 -136 -118s-136 39.333 -136 118h71c0 -41.333 21.667 -62 65 -62s65 20.667 65 62z" />
    <glyph glyph-name="afii10076" unicode="&#x43a;" horiz-adv-x="469" 
d="M205 286l144 214h94l-164 -242l180 -258h-97l-151 216h-66v-216h-80v500h80v-214h60z" />
    <glyph glyph-name="afii10077" unicode="&#x43b;" horiz-adv-x="510" 
d="M109 299l0.000976562 201h336v-500h-80v428h-176v-157c0 -80 -8.66699 -141 -26 -183c-24.667 -60.667 -72.334 -94 -143.001 -100v80c36.667 10 61 33 73 69c10.667 30 16 84 16 162z" />
    <glyph glyph-name="afii10078" unicode="&#x43c;" horiz-adv-x="636" 
d="M65 500h78l175 -312l175 312h78v-500h-80v348l-143 -253h-67l-136 250v-345h-80v500z" />
    <glyph glyph-name="afii10079" unicode="&#x43d;" horiz-adv-x="526" 
d="M65 500h80v-210h236v210h80v-500h-80v218h-236v-218h-80v500z" />
    <glyph glyph-name="afii10080" unicode="&#x43e;" horiz-adv-x="496" 
d="M456 284v-66c0 -70 -17.667 -125.167 -53 -165.5s-87 -60.5 -155 -60.5c-65.333 0 -116.333 20 -153 60s-55 95.333 -55 166v66c0 70.667 18.333 125.667 55 165s87.667 59 153 59c66 0 117.167 -19.5 153.5 -58.5s54.5 -94.167 54.5 -165.5zM248 64
c40 0 71.333 14.333 94 43s34 65.667 34 111v66c0 48 -11.167 85.333 -33.5 112s-53.833 40 -94.5 40s-72.167 -13.5 -94.5 -40.5s-33.5 -64.167 -33.5 -111.5v-66c0 -47.333 10.833 -84.833 32.5 -112.5s53.5 -41.5 95.5 -41.5z" />
    <glyph glyph-name="afii10081" unicode="&#x43f;" horiz-adv-x="526" 
d="M65 0v500h396v-500h-80v428h-236v-428h-80z" />
    <glyph glyph-name="afii10082" unicode="&#x440;" horiz-adv-x="521" 
d="M145 500v-50c28 38.667 73.333 58 136 58s111.667 -19.5 147 -58.5s53 -94.167 53 -165.5v-66c0 -69.333 -17.333 -124.333 -52 -165s-84 -61 -148 -61c-62.667 0 -108 19.333 -136 58v-240h-80v690h80zM273 64c40 0 71.333 14.333 94 43s34 65.667 34 111v66
c0 48 -11.167 85.333 -33.5 112s-53.833 40 -94.5 40c-40 0 -71.333 -12.833 -94 -38.5s-34 -61.167 -34 -106.5v-73c0 -47.333 10.833 -84.833 32.5 -112.5s53.5 -41.5 95.5 -41.5z" />
    <glyph glyph-name="afii10083" unicode="&#x441;" horiz-adv-x="444" 
d="M367 120l61.998 -44c-30 -56 -87.667 -84 -173 -84c-67.333 0 -120.166 20.167 -158.499 60.5s-57.5 95.5 -57.5 165.5v66c0 70.667 19 125.667 57 165s91 59 159 59c78.667 0 136.334 -26 173.001 -78l-63 -44c-23.333 33.333 -60 50 -110 50
c-42.667 0 -76 -13.5 -100 -40.5s-36 -64.167 -36 -111.5v-66c0 -47.333 11.5 -84.833 34.5 -112.5s56.833 -41.5 101.5 -41.5c54.667 0 91.667 18.667 111 56z" />
    <glyph glyph-name="afii10084" unicode="&#x442;" horiz-adv-x="407" 
d="M0 428v72h407v-72h-164v-428h-80v428h-163z" />
    <glyph glyph-name="afii10085" unicode="&#x443;" horiz-adv-x="466" 
d="M199 -12l2.00098 7l-196 505h86l149 -388l131 388h85l-176 -516l-20 -55c-14.667 -37.333 -30.334 -63 -47.001 -77c-32 -28 -79 -42 -141 -42v78c36 0 62.333 6.33301 79 19c18 12 34 39 48 81z" />
    <glyph glyph-name="afii10086" unicode="&#x444;" horiz-adv-x="648" 
d="M284 690h80v-182c78.667 0 139 -19.167 181 -57.5s63 -93.833 63 -166.5v-66c0 -72 -21.167 -127.667 -63.5 -167s-102.5 -59 -180.5 -59v-182h-80v182c-78 0 -138.167 19.667 -180.5 59s-63.5 95 -63.5 167v66c0 72.667 21 128.167 63 166.5s102.333 57.5 181 57.5v182z
M528 218v66c0 101.333 -54.667 152 -164 152v-372c109.333 0 164 51.333 164 154zM120 284v-66c0 -102.667 54.667 -154 164 -154v372c-109.333 0 -164 -50.667 -164 -152z" />
    <glyph glyph-name="afii10087" unicode="&#x445;" horiz-adv-x="478" 
d="M286 256l182 -256h-94l-135 186l-135 -186h-94l182 256l-162 244h94l115 -177l115 177h94z" />
    <glyph glyph-name="afii10088" unicode="&#x446;" horiz-adv-x="551" 
d="M531 72v-189h-80v117h-386v500h80v-428h236v428h80v-428h70z" />
    <glyph glyph-name="afii10089" unicode="&#x447;" horiz-adv-x="482" 
d="M45 500h79.999v-120c0 -43.333 9.33301 -74 28 -92s46.667 -27 84 -27c50 0 83.333 16 100 48v191h80v-500h-80v217c-22.667 -20.667 -58 -31 -106 -31c-63.333 0 -110.166 14.833 -140.499 44.5s-45.5 79.5 -45.5 149.5v120z" />
    <glyph glyph-name="afii10090" unicode="&#x448;" horiz-adv-x="710" 
d="M645 500v-500h-580v500h80v-428h170v428h80v-428h170v428h80z" />
    <glyph glyph-name="afii10091" unicode="&#x449;" horiz-adv-x="735" 
d="M715 72v-189h-80v117h-570v500h80v-428h170v428h80v-428h170v428h80v-428h70z" />
    <glyph glyph-name="afii10092" unicode="&#x44a;" horiz-adv-x="534" 
d="M-20 428v72h217v-192h103c70.667 0 123.167 -12.333 157.5 -37s51.5 -62.667 51.5 -114c0 -48.667 -15.167 -87 -45.5 -115s-75.5 -42 -135.5 -42h-211v428h-137zM297 236l-100 0.000976562v-164h112c73.333 0 110 28.667 110 86c0 27.333 -9.5 47.166 -28.5 59.499
s-50.167 18.5 -93.5 18.5z" />
    <glyph glyph-name="afii10093" unicode="&#x44b;" horiz-adv-x="639" 
d="M65 0v500h80v-192h73c70.667 0 123.167 -12.333 157.5 -37s51.5 -62.667 51.5 -114c0 -48.667 -15.167 -87 -45.5 -115s-75.5 -42 -135.5 -42h-181zM494 0v500h80v-500h-80zM215 236l-70 0.000976562v-164h82c73.333 0 110 28.667 110 86
c0 27.333 -9.5 47.166 -28.5 59.499s-50.167 18.5 -93.5 18.5z" />
    <glyph glyph-name="afii10094" unicode="&#x44c;" horiz-adv-x="482" 
d="M65 0v500h80v-192h103c70.667 0 123.167 -12.333 157.5 -37s51.5 -62.667 51.5 -114c0 -48.667 -15.167 -87 -45.5 -115s-75.5 -42 -135.5 -42h-211zM245 236l-100 0.000976562v-164h112c73.333 0 110 28.667 110 86c0 27.333 -9.5 47.166 -28.5 59.499
s-50.167 18.5 -93.5 18.5z" />
    <glyph glyph-name="afii10095" unicode="&#x44d;" horiz-adv-x="459" 
d="M339 218h-197.001v72h197c-1.33301 46 -13.833 81.833 -37.5 107.5s-56.5 38.5 -98.5 38.5c-50 0 -86.667 -16.667 -110 -50l-63 44c37.333 52 95 78 173 78c68 0 121 -19.667 159 -59s57 -94.333 57 -165v-66c0 -70 -19.167 -125.167 -57.5 -165.5
s-91.166 -60.5 -158.499 -60.5c-85.333 0 -143 28 -173 84l62 44c19.333 -37.333 56.333 -56 111 -56c44.667 0 78.5 13.833 101.5 41.5s34.5 65.167 34.5 112.5z" />
    <glyph glyph-name="afii10096" unicode="&#x44e;" horiz-adv-x="665" 
d="M625 284l-0.000976562 -66c0 -71.333 -16 -126.833 -48 -166.5s-80 -59.5 -144 -59.5c-61.333 0 -108.666 19.833 -141.999 59.5s-50 95.167 -50 166.5h-96v-218h-80v500h80v-210h96c1.33301 70 18.333 123.833 51 161.5s79.667 56.5 141 56.5
c62 0 109.5 -19.333 142.5 -58s49.5 -94 49.5 -166zM432.999 64c36.667 0 64.5 13.833 83.5 41.5s28.5 65.167 28.5 112.5v66c0 101.333 -37.333 152 -112 152c-36.667 0 -64.5 -13.167 -83.5 -39.5s-28.5 -63.833 -28.5 -112.5v-66c0 -102.667 37.333 -154 112 -154z" />
    <glyph glyph-name="afii10097" unicode="&#x44f;" 
d="M435 500v-500.001h-80v192h-105l-125 -192h-90l133 203c-76.667 20.667 -115 70.334 -115 149.001c0 44 16 79.667 48 107s79.333 41 142 41h192zM265 263.999h90v164h-102c-73.333 0 -110 -26 -110 -78c0 -30 9.66699 -51.833 29 -65.5s50.333 -20.5 93 -20.5z" />
    <glyph glyph-name="afii10071" unicode="&#x451;" horiz-adv-x="488" 
d="M367 120l62.001 -44c-17.333 -30 -39.833 -51.5 -67.5 -64.5s-63.5 -19.5 -107.5 -19.5c-66.667 0 -119 20.167 -157 60.5s-57 95.5 -57 165.5v66c0 72 17 127.333 51 166s83 58 147 58c65.333 0 114.666 -19.167 147.999 -57.5s50 -93.833 50 -166.5v-52h-316v-14
c0 -46.667 11 -84 33 -112s53.667 -42 95 -42c58 0 97.667 18.667 119 56zM238.001 436c-73.333 0 -112.667 -44.667 -118 -134h235c-4 89.333 -43 134 -117 134zM175 600h-90v90h90v-90zM385 600h-90v90h90v-90z" />
    <glyph glyph-name="afii10099" unicode="&#x452;" horiz-adv-x="526" 
d="M65 558l-94.001 -0.000976562v72h94v60h80v-60h165v-72h-165v-139c14 20.667 31 35.334 51 44.001s47.667 13 83 13c58 0 102.833 -16.167 134.5 -48.5s47.5 -81.5 47.5 -147.5v-324c0 -50.667 -11.167 -87.667 -33.5 -111s-58.166 -35 -107.499 -35h-14v72h14
c21.333 0 36.833 5.5 46.5 16.5s14.5 30.167 14.5 57.5v323c0 82 -38 123 -114 123c-36 0 -65.333 -11.333 -88 -34s-34 -52 -34 -88v-280h-80v558z" />
    <glyph glyph-name="afii10100" unicode="&#x453;" horiz-adv-x="359" 
d="M65 500h304v-72h-224v-428h-80v500zM235 567h-75l70 158h96z" />
    <glyph glyph-name="afii10101" unicode="&#x454;" horiz-adv-x="459" 
d="M110 290h196.998v-72h-197c0 -47.333 11.5 -84.833 34.5 -112.5s56.833 -41.5 101.5 -41.5c54.667 0 91.667 18.667 111 56l62 -44c-30 -56 -87.667 -84 -173 -84c-67.333 0 -120.166 20.167 -158.499 60.5s-57.5 95.5 -57.5 165.5v66c0 70.667 19 125.667 57 165
s91 59 159 59c78.667 0 136.334 -26 173.001 -78l-63 -44c-23.333 33.333 -60 50 -110 50c-42 0 -74.833 -12.833 -98.5 -38.5s-36.167 -61.5 -37.5 -107.5z" />
    <glyph glyph-name="afii10102" unicode="&#x455;" horiz-adv-x="466" 
d="M406 425l-59.9971 -42.002c-14 18.667 -30 31.834 -48 39.501s-43.333 11.5 -76 11.5c-30 0 -53.667 -5.83301 -71 -17.5s-26 -28.167 -26 -49.5c0 -47.333 38.667 -73.666 116 -78.999c51.333 -4 92.666 -15.333 123.999 -34c37.333 -20.667 56 -59 56 -115
c0 -46.667 -16 -82.834 -48 -108.501s-78.667 -38.5 -140 -38.5c-88.667 0 -153 27.667 -193 83l59 42c14 -18 31.167 -31 51.5 -39s48.166 -12 83.499 -12c33.333 0 59.5 6.16699 78.5 18.5s28.5 29.833 28.5 52.5c0 26.667 -9.33301 45.834 -28 57.501
s-52.334 19.167 -101.001 22.5c-111.333 8 -167 57.667 -167 149c0 43.333 15.667 77.833 47 103.5s75.333 38.5 132 38.5c86 0 146.667 -27.667 182 -83z" />
    <glyph glyph-name="afii10103" unicode="&#x456;" horiz-adv-x="240" 
d="M160 0h-80v500h80v-500zM165 600h-90v90h90v-90z" />
    <glyph glyph-name="afii10104" unicode="&#x457;" horiz-adv-x="230" 
d="M155 0h-80v500h80v-500zM55 600h-90v90h90v-90zM265 600h-90v90h90v-90z" />
    <glyph glyph-name="afii10105" unicode="&#x458;" horiz-adv-x="235" 
d="M85 500h80.001v-536c0 -54.667 -12.333 -94 -37 -118s-67.334 -36 -128.001 -36v74c40.667 0 65 10.333 73 31c8 15.333 12 38.333 12 69v516zM170.001 600h-90v90h90v-90z" />
    <glyph glyph-name="afii10106" unicode="&#x459;" horiz-adv-x="782" 
d="M109 299l0.000976562 201h336v-192h103c70.667 0 123.167 -12.333 157.5 -37s51.5 -62.667 51.5 -114c0 -48.667 -15.167 -87 -45.5 -115s-75.5 -42 -135.5 -42h-211v428h-176v-157c0 -80 -8.66699 -141 -26 -183c-24.667 -60.667 -72.334 -94 -143.001 -100v80
c36.667 10 61 33 73 69c10.667 30 16 84 16 162zM545.001 236l-100 0.000976562v-164h112c73.333 0 110 28.667 110 86c0 27.333 -9.5 47.166 -28.5 59.499s-50.167 18.5 -93.5 18.5z" />
    <glyph glyph-name="afii10107" unicode="&#x45a;" horiz-adv-x="798" 
d="M65 500h80v-210h236v210h80v-192h103c70.667 0 123.167 -12.333 157.5 -37s51.5 -62.667 51.5 -114c0 -48.667 -15.167 -87 -45.5 -115s-75.5 -42 -135.5 -42h-211v218h-236v-218h-80v500zM561 236l-100 0.000976562v-164h112c73.333 0 110 28.667 110 86
c0 27.333 -9.5 47.166 -28.5 59.499s-50.167 18.5 -93.5 18.5z" />
    <glyph glyph-name="afii10108" unicode="&#x45b;" horiz-adv-x="526" 
d="M65 558l-94 -0.000976562v72h94v60h80v-60h165v-72h-165v-139c14 20.667 31 35.334 51 44.001s47.667 13 83 13c58 0 102.833 -16.167 134.5 -48.5s47.5 -81.5 47.5 -147.5v-280h-80v279c0 82 -38 123 -114 123c-36 0 -65.333 -11.333 -88 -34s-34 -52 -34 -88v-280h-80
v558z" />
    <glyph glyph-name="afii10109" unicode="&#x45c;" horiz-adv-x="469" 
d="M205 286l144 214h94l-164 -242l180 -258h-97l-151 216h-66v-216h-80v500h80v-214h60zM270 567h-75l70 158h96z" />
    <glyph glyph-name="afii10110" unicode="&#x45e;" horiz-adv-x="466" 
d="M199 -12l2.00098 7l-196 505h86l149 -388l131 388h85l-176 -516l-20 -55c-14.667 -37.333 -30.334 -63 -47.001 -77c-32 -28 -79 -42 -141 -42v78c36 0 62.333 6.33301 79 19c18 12 34 39 48 81zM303.001 690h71c0 -78.667 -45.333 -118 -136 -118s-136 39.333 -136 118
h71c0 -41.333 21.667 -62 65 -62s65 20.667 65 62z" />
    <glyph glyph-name="afii10193" unicode="&#x45f;" horiz-adv-x="526" 
d="M303 0v-117h-80v117h-158v500h80v-428h236v428h80v-500h-158z" />
    <glyph glyph-name="afii10146" unicode="&#x462;" horiz-adv-x="596" 
d="M85 606v84h86v-84h188v-78h-188v-111h147c80.667 0 140.667 -20.667 180 -62c38.667 -40.667 58 -89.667 58 -147s-19.333 -106.333 -58 -147s-98.667 -61 -180 -61h-233v528h-95v78h95zM318 339h-147v-261h147c49.333 0 87 11.667 113 35s39 55 39 95
c0 40.667 -13 72.667 -39 96s-63.667 35 -113 35z" />
    <glyph glyph-name="afii10194" unicode="&#x463;" horiz-adv-x="482" 
d="M65 428h-94v72h94v190h80v-190h165v-72h-165v-120h103c70.667 0 123.167 -12.333 157.5 -37s51.5 -62.667 51.5 -114c0 -48.667 -15.167 -87 -45.5 -115s-75.5 -42 -135.5 -42h-211v428zM245 236l-100 0.000976562v-164h112c73.333 0 110 28.667 110 86
c0 27.333 -9.5 47.166 -28.5 59.499s-50.167 18.5 -93.5 18.5z" />
    <glyph glyph-name="afii10147" unicode="&#x472;" horiz-adv-x="600" 
d="M550 383v-76c0 -210 -83.333 -315 -250 -315s-250 105 -250 315v76c0 210 83.333 315 250 315s250 -105 250 -315zM464 307v11h-328v-11c0 -82 13.5 -142 40.5 -180s68.167 -57 123.5 -57s96.5 19 123.5 57s40.5 98 40.5 180zM136 396h328
c-1.33301 77.333 -15.5 134 -42.5 170s-67.5 54 -121.5 54s-94.5 -18 -121.5 -54s-41.167 -92.667 -42.5 -170z" />
    <glyph glyph-name="afii10195" unicode="&#x473;" horiz-adv-x="496" 
d="M456 284v-66c0 -70 -17.667 -125.167 -53 -165.5s-87 -60.5 -155 -60.5c-65.333 0 -116.333 20 -153 60s-55 95.333 -55 166v66c0 70.667 18.333 125.667 55 165s87.667 59 153 59c66 0 117.167 -19.5 153.5 -58.5s54.5 -94.167 54.5 -165.5zM248 64
c40 0 71.333 14.333 94 43s34 65.667 34 111h-256c0 -47.333 10.833 -84.833 32.5 -112.5s53.5 -41.5 95.5 -41.5zM248 436c-39.333 0 -70.168 -12.833 -92.501 -38.5s-34.166 -61.5 -35.499 -107.5h256c-1.33301 46.667 -13 82.667 -35 108s-53 38 -93 38z" />
    <glyph glyph-name="afii10148" unicode="&#x474;" horiz-adv-x="601" 
d="M260 0l-250 689.999h95l194 -549l153 428c16.667 46.667 38.167 79.834 64.5 99.501s63.833 29.5 112.5 29.5v-78c-24 0 -42.667 -5.5 -56 -16.5s-25 -29.833 -35 -56.5l-197 -547h-81z" />
    <glyph glyph-name="afii10196" unicode="&#x475;" horiz-adv-x="503" 
d="M513 508l0.00195312 -71.999c-18.667 0 -32.5 -4.33301 -41.5 -13s-18.5 -25.334 -28.5 -50.001l-149 -373h-80l-204 500h90l152 -398l121 317c13.333 34.667 29.666 58.167 48.999 70.5s49.666 18.5 90.999 18.5z" />
    <glyph glyph-name="afii10050" unicode="&#x490;" horiz-adv-x="481" 
d="M85 690h310v108h86v-186h-310v-612h-86v690z" />
    <glyph glyph-name="afii10098" unicode="&#x491;" horiz-adv-x="359" 
d="M65 500h224v93h80v-165h-224v-428h-80v500z" />
    <glyph glyph-name="uni0492" unicode="&#x492;" horiz-adv-x="489" 
d="M93 690h396v-78h-310v-216h180v-78h-180v-318h-86v318h-103v78h103v294z" />
    <glyph glyph-name="uni0493" unicode="&#x493;" horiz-adv-x="384" 
d="M90 500h304v-72h-224v-138h127v-72h-127v-218h-80v218h-100v72h100v210z" />
    <glyph glyph-name="uni0496" unicode="&#x496;" horiz-adv-x="897" 
d="M300 308l-187 -308h-103l212 349l-171 341h94l150 -304h96v304h86v-304h95l151 304h94l-172 -341l165 -271h77v-208h-86v130h-46l-187 308h-91v-308h-86v308h-91z" />
    <glyph glyph-name="uni0497" unicode="&#x497;" horiz-adv-x="693" 
d="M433 286l115 214h87l-132 -243l110 -185h70v-189h-80v117h-41l-126 216h-63v-216h-80v216h-63l-126 -216h-94l153 257l-132 243h87l115 -214h60v214h80v-214h60z" />
    <glyph glyph-name="uni0498" unicode="&#x498;" horiz-adv-x="558" 
d="M330 -6l0.000976562 -123.998h-86v125c-108 13.333 -175.667 77.666 -203 192.999h85c16.667 -42.667 37.167 -73 61.5 -91s58.166 -27 101.499 -27c45.333 0 80.5 11.333 105.5 34s37.5 53.667 37.5 93c0 81.333 -56 122 -168 122h-53v78h62
c45.333 0 79.5 10.333 102.5 31s34.5 49.667 34.5 87c0 33.333 -10.333 59.333 -31 78s-51.667 28 -93 28c-40.667 0 -73.334 -8.5 -98.001 -25.5s-43 -44.167 -55 -81.5h-80c8 56.667 34 101.334 78 134.001c44.667 33.333 94.667 50 150 50c68.667 0 121.667 -16 159 -48
s56 -77 56 -135c0 -72.667 -38 -123.334 -114 -152.001c40 -9.33301 72.667 -29.333 98 -60s38 -66 38 -106c0 -51.333 -15.333 -96.333 -46 -135c-31.333 -38.667 -78.666 -61.334 -141.999 -68.001z" />
    <glyph glyph-name="uni0499" unicode="&#x499;" horiz-adv-x="448" 
d="M254 -5v-112h-80v111c-72 6 -122.333 33.333 -151 82l62 44c24 -37.333 65.333 -56 124 -56c30.667 0 55.167 7.5 73.5 22.5s27.5 35.5 27.5 61.5c0 52 -42 78 -126 78h-43v72h46c69.333 0 104 24.333 104 73c0 20 -7.5 35.833 -22.5 47.5s-37.167 17.5 -66.5 17.5
c-41.333 0 -77.666 -16.667 -108.999 -50l-63 44c38.667 52 97.667 78 177 78c51.333 0 93.166 -12 125.499 -36s48.5 -54.333 48.5 -91c0 -51.333 -24.667 -88.666 -74 -111.999c28 -8.66699 50.5 -24.334 67.5 -47.001s25.5 -49.667 25.5 -81
c0 -37.333 -12.667 -69.5 -38 -96.5s-61.333 -43.5 -108 -49.5z" />
    <glyph glyph-name="uni049A" unicode="&#x49a;" horiz-adv-x="622" 
d="M612 78v-208h-86v130h-38l-220 308h-97v-308h-86v690h86v-304h95l190 304h96l-210 -340l195 -272h75z" />
    <glyph glyph-name="uni049B" unicode="&#x49b;" horiz-adv-x="489" 
d="M205 286l144 214h94l-164 -242l130 -186h70v-189h-80v117h-37l-151 216h-66v-216h-80v500h80v-214h60z" />
    <glyph glyph-name="uni049C" unicode="&#x49c;" horiz-adv-x="651" 
d="M390 350l251 -350h-105l-220 308h-27v-116h-78v116h-40v-308h-86v690h86v-304h40v125h78v-125h25l190 304h96z" />
    <glyph glyph-name="uni049D" unicode="&#x49d;" horiz-adv-x="509" 
d="M245 286l144 214h94l-164 -242l180 -258h-97l-151 216h-12v-108h-72v108h-22v-216h-80v500h80v-214h22v109h72v-109h6z" />
    <glyph glyph-name="uni04A0" unicode="&#x4a0;" horiz-adv-x="651" 
d="M390 350l251 -350h-105l-220 308h-97v-308h-86v612h-153v78h239v-304h95l190 304h96z" />
    <glyph glyph-name="uni04A1" unicode="&#x4a1;" horiz-adv-x="521" 
d="M257 286l144 214h94l-164 -242l180 -258h-97l-151 216h-66v-216h-80v428h-137v72h217v-214h60z" />
    <glyph glyph-name="uni04A2" unicode="&#x4a2;" horiz-adv-x="649" 
d="M85 690h86v-294h296v294h86v-612h86v-208h-86v130h-86v318h-296v-318h-86v690z" />
    <glyph glyph-name="uni04A3" unicode="&#x4a3;" horiz-adv-x="551" 
d="M65 500h80v-210h236v210h80v-428h70v-189h-80v117h-70v218h-236v-218h-80v500z" />
    <glyph glyph-name="uni04AA" unicode="&#x4aa;" horiz-adv-x="578" 
d="M343 -5l0.00292969 -125h-86v125c-138 16.667 -207 120.667 -207 312v76c0 210 83.333 315 250 315c70 0 126.167 -18.833 168.5 -56.5s68.833 -93.167 79.5 -166.5h-84c-11.333 51.333 -30.333 88.333 -57 111s-62.334 34 -107.001 34c-55.333 0 -96.5 -19 -123.5 -57
s-40.5 -98 -40.5 -180v-76c0 -82 13.5 -142 40.5 -180s68.167 -57 123.5 -57c45.333 0 81.166 11.667 107.499 35s45.166 60 56.499 110h83c-18.667 -132.667 -86.667 -206 -204 -220z" />
    <glyph glyph-name="uni04AB" unicode="&#x4ab;" horiz-adv-x="444" 
d="M296 -5l-0.000976562 -111.999h-80v112c-56 7.33301 -99.333 30.666 -130 69.999s-46 90.333 -46 153v66c0 70.667 19 125.667 57 165s91 59 159 59c78.667 0 136.334 -26 173.001 -78l-63 -44c-23.333 33.333 -60 50 -110 50c-42.667 0 -76 -13.5 -100 -40.5
s-36 -64.167 -36 -111.5v-66c0 -47.333 11.5 -84.833 34.5 -112.5s56.833 -41.5 101.5 -41.5c54.667 0 91.667 18.667 111 56l62 -44c-24.667 -46.667 -69 -73.667 -133 -81z" />
    <glyph glyph-name="uni04AE" unicode="&#x4ae;" horiz-adv-x="556" 
d="M235 296l-215 394h101l157 -300l157 300h101l-215 -394v-296h-86v296z" />
    <glyph glyph-name="uni04AF" unicode="&#x4af;" horiz-adv-x="504" 
d="M252 102l152 398h90l-200 -500v-190h-80v190l-204 500h90z" />
    <glyph glyph-name="uni04B0" unicode="&#x4b0;" horiz-adv-x="556" 
d="M235 296l-215 394h101l157 -300l157 300h101l-215 -394h142v-78h-142v-218h-86v218h-141v78h141z" />
    <glyph glyph-name="uni04B1" unicode="&#x4b1;" horiz-adv-x="504" 
d="M252 102l152 398h90l-200 -500h112v-72h-112v-118h-80v118h-115v72h115l-204 500h90z" />
    <glyph glyph-name="uni04B2" unicode="&#x4b2;" horiz-adv-x="572" 
d="M276 271l-161 -271h-95l206 356l-185 334h95l140 -256l140 256h95l-186 -334l161 -278h76v-208h-86v130h-39z" />
    <glyph glyph-name="uni04B3" unicode="&#x4b3;" horiz-adv-x="497" 
d="M487 72v-189h-80v117h-33l-135 186l-135 -186h-94l182 256l-162 244h94l115 -177l115 177h94l-162 -244l131 -184h70z" />
    <glyph glyph-name="uni04B6" unicode="&#x4b6;" horiz-adv-x="599" 
d="M35 690h85.998v-194c0 -61.333 11.333 -103.333 34 -126s63.334 -34 122.001 -34c73.333 0 120 20.333 140 61v293h86v-612h86v-208h-86v130h-86v299c-27.333 -27.333 -78.666 -41 -153.999 -41c-87.333 0 -147.333 18.333 -180 55c-32 36.667 -48 97.667 -48 183v194z
" />
    <glyph glyph-name="uni04B7" unicode="&#x4b7;" horiz-adv-x="512" 
d="M50 500h80v-120c0 -43.333 9.33301 -74 28 -92s46.667 -27 84 -27c49.333 0 82.666 16 99.999 48v191h80v-428h70v-189h-80v117h-70v217c-22.667 -20.667 -58 -31 -106 -31c-63.333 0 -110.166 14.833 -140.499 44.5s-45.5 79.5 -45.5 149.5v120z" />
    <glyph glyph-name="uni04B8" unicode="&#x4b8;" horiz-adv-x="588" 
d="M232 461h77.998v-124c54.667 5.33301 90.334 25.333 107.001 60v293h86v-690h-86v299c-22 -22 -57.667 -35 -107 -39v-118h-78v117c-75.333 4 -127 24.333 -155 61c-28 37.333 -42 96 -42 176v194h86v-194c0 -52.667 8.33301 -91 25 -115s45.334 -38.333 86.001 -43v123z
" />
    <glyph glyph-name="uni04B9" unicode="&#x4b9;" horiz-adv-x="487" 
d="M50 500l80 0.000976562v-120c0 -66.667 24 -105.334 72 -116.001v111h72v-112c30.667 4.66699 53.334 20 68.001 46v191h80v-500h-80v217c-14.667 -13.333 -37.334 -22.666 -68.001 -27.999v-101h-72v99c-51.333 4.66699 -89.5 22.167 -114.5 52.5
s-37.5 77.166 -37.5 140.499v120z" />
    <glyph glyph-name="uni04BA" unicode="&#x4ba;" horiz-adv-x="588" 
d="M553 0l-86 0.000976562v270c0 60 -11.667 101.667 -35 125s-63.666 35 -120.999 35c-73.333 0 -120 -20.333 -140 -61v-369h-86v690h86v-223c27.333 27.333 78.666 41 153.999 41c87.333 0 147 -18.667 179 -56c32.667 -36.667 49 -97.334 49 -182.001v-270z" />
    <glyph glyph-name="uni04BB" unicode="&#x4bb;" horiz-adv-x="526" 
d="M145 0l-80 -0.000976562v690h80v-239c14 20.667 31 35.334 51 44.001s47.667 13 83 13c58 0 102.833 -16.167 134.5 -48.5s47.5 -81.5 47.5 -147.5v-312h-80v311c0 82 -38 123 -114 123c-36 0 -65.333 -11.333 -88 -34s-34 -52 -34 -88v-312z" />
    <glyph glyph-name="uni04D8" unicode="&#x4d8;" horiz-adv-x="604" 
d="M50 307l-0.000976562 40.001h418v36c0 82 -13.5 142 -40.5 180s-68.167 57 -123.5 57c-89.333 0 -144 -48.333 -164 -145h-84c10.667 73.333 37.334 128.833 80.001 166.5s98.667 56.5 168 56.5c166.667 0 250 -105 250 -315v-76c0 -210 -83.333 -315 -250 -315
c-82 0 -144.833 26.167 -188.5 78.5s-65.5 131.166 -65.5 236.499zM303.999 70.001c50.667 0 89.3311 15.833 115.998 47.5s42.334 82.167 47.001 151.5h-330c4.66699 -68.667 20.834 -119 48.501 -151s67.167 -48 118.5 -48z" />
    <glyph glyph-name="afii10846" unicode="&#x4d9;" horiz-adv-x="488" 
d="M121 380l-62.001 44c17.333 30 39.833 51.5 67.5 64.5s63.5 19.5 107.5 19.5c66.667 0 119 -20.167 157 -60.5s57 -95.5 57 -165.5v-66c0 -72 -17 -127.333 -51 -166s-83 -58 -147 -58c-65.333 0 -114.666 19.167 -147.999 57.5s-50 93.833 -50 166.5v52h316v14
c0 46.667 -11 84 -33 112s-53.667 42 -95 42c-58 0 -97.667 -18.667 -119 -56zM249.999 64c73.333 0 112.667 44.667 118 134h-235c4 -89.333 43 -134 117 -134z" />
    <glyph glyph-name="uni04E2" unicode="&#x4e2;" horiz-adv-x="656" 
d="M85 0v690h86v-519l328 519h72v-690h-86v514l-326 -514h-74zM483 768h-309v72h309v-72z" />
    <glyph glyph-name="uni04E3" unicode="&#x4e3;" horiz-adv-x="536" 
d="M65 500h80v-361l249 361h77v-500h-80v368l-251 -368h-75v500zM403 600h-269v72h269v-72z" />
    <glyph glyph-name="uni04E8" unicode="&#x4e8;" horiz-adv-x="600" 
d="M550 383v-76c0 -210 -83.333 -315 -250 -315s-250 105 -250 315v76c0 210 83.333 315 250 315s250 -105 250 -315zM464 307v11h-328v-11c0 -82 13.5 -142 40.5 -180s68.167 -57 123.5 -57s96.5 19 123.5 57s40.5 98 40.5 180zM136 396h328
c-1.33301 77.333 -15.5 134 -42.5 170s-67.5 54 -121.5 54s-94.5 -18 -121.5 -54s-41.167 -92.667 -42.5 -170z" />
    <glyph glyph-name="uni04E9" unicode="&#x4e9;" horiz-adv-x="496" 
d="M456 284v-66c0 -70 -17.667 -125.167 -53 -165.5s-87 -60.5 -155 -60.5c-65.333 0 -116.333 20 -153 60s-55 95.333 -55 166v66c0 70.667 18.333 125.667 55 165s87.667 59 153 59c66 0 117.167 -19.5 153.5 -58.5s54.5 -94.167 54.5 -165.5zM248 64
c40 0 71.333 14.333 94 43s34 65.667 34 111h-256c0 -47.333 10.833 -84.833 32.5 -112.5s53.5 -41.5 95.5 -41.5zM248 436c-39.333 0 -70.168 -12.833 -92.501 -38.5s-34.166 -61.5 -35.499 -107.5h256c-1.33301 46.667 -13 82.667 -35 108s-53 38 -93 38z" />
    <glyph glyph-name="uni04EE" unicode="&#x4ee;" horiz-adv-x="582" 
d="M306 263l172 427h90l-235 -574c-20 -48 -43.667 -80.667 -71 -98s-69.666 -26 -126.999 -26v79c37.333 0 63.666 4.33301 78.999 13c17.333 9.33301 32.333 30.333 45 63l3 8l-237 535h94zM455 768h-309v72h309v-72z" />
    <glyph glyph-name="uni04EF" unicode="&#x4ef;" horiz-adv-x="466" 
d="M199 -12l2.00098 7l-196 505h86l149 -388l131 388h85l-176 -516l-20 -55c-14.667 -37.333 -30.334 -63 -47.001 -77c-32 -28 -79 -42 -141 -42v78c36 0 62.333 6.33301 79 19c18 12 34 39 48 81zM366.001 600h-269v72h269v-72z" />
    <glyph glyph-name="uni1E9E" unicode="&#x1e9e;" horiz-adv-x="604" 
d="M524 636l-117 -190.999c42 -4.66699 72 -18.167 90 -40.5s27 -56.5 27 -102.5v-162c0 -56 -11.667 -93.667 -35 -113c-23.333 -18 -63.333 -27 -120 -27h-70v78h70c24.667 0 42.334 5 53.001 15s16 27.667 16 53v150c0 28.667 -5 48.5 -15 59.5s-28 16.5 -54 16.5h-70v63
l104 167c-24 12 -55.333 18 -94 18c-48.667 0 -83.834 -9.83301 -105.501 -29.5s-32.5 -52.834 -32.5 -99.501v-491h-86v499c0 64 18.833 113.167 56.5 147.5s93.5 51.5 167.5 51.5c40.667 0 80.5 -6.16699 119.5 -18.5s70.833 -26.833 95.5 -43.5z" />
    <glyph glyph-name="uni2010" unicode="&#x2010;" horiz-adv-x="319" 
d="M289 253h-259v72h259v-72z" />
    <glyph glyph-name="uni2011" unicode="&#x2011;" horiz-adv-x="319" 
d="M289 253h-259v72h259v-72z" />
    <glyph glyph-name="figuredash" unicode="&#x2012;" 
d="M441 313h-382v72h382v-72z" />
    <glyph glyph-name="endash" unicode="&#x2013;" horiz-adv-x="509" 
d="M449 253h-389v72h389v-72z" />
    <glyph glyph-name="emdash" unicode="&#x2014;" horiz-adv-x="679" 
d="M659 253h-639v72h639v-72z" />
    <glyph glyph-name="quoteleft" unicode="&#x2018;" horiz-adv-x="216" 
d="M156 534h-96v176l96 83v-259z" />
    <glyph glyph-name="quoteright" unicode="&#x2019;" horiz-adv-x="222" 
d="M60 740h86v-185l-86 -74v259z" />
    <glyph glyph-name="quotesinglbase" unicode="&#x201a;" horiz-adv-x="216" 
d="M60 96h96v-176l-96 -83v259z" />
    <glyph glyph-name="quotedblleft" unicode="&#x201c;" horiz-adv-x="386" 
d="M156 534h-96v176l96 83v-259zM322 534h-96v176l96 83v-259z" />
    <glyph glyph-name="quotedblright" unicode="&#x201d;" horiz-adv-x="386" 
d="M226 740h96v-176l-96 -83v259zM60 740h96v-176l-96 -83v259z" />
    <glyph glyph-name="quotedblbase" unicode="&#x201e;" horiz-adv-x="382" 
d="M226 96h96v-176l-96 -83v259zM60 96h96v-176l-96 -83v259z" />
    <glyph glyph-name="dagger" unicode="&#x2020;" horiz-adv-x="526" 
d="M20 422v78h200v190h86v-190h200v-78h-200v-612h-86v612h-200z" />
    <glyph glyph-name="daggerdbl" unicode="&#x2021;" horiz-adv-x="526" 
d="M20 422v78h200v190h86v-190h200v-78h-200v-344h200v-78h-200v-190h-86v190h-200v78h200v344h-200z" />
    <glyph glyph-name="bullet" unicode="&#x2022;" horiz-adv-x="298" 
d="M89 281c-16 16.667 -24 36.667 -24 60s8 43 24 59c16.667 16.667 36.667 25 60 25s43 -8.33301 59 -25c16.667 -16 25 -35.667 25 -59s-8.33301 -43.333 -25 -60c-16 -16 -35.667 -24 -59 -24s-43.333 8 -60 24z" />
    <glyph glyph-name="ellipsis" unicode="&#x2026;" horiz-adv-x="788" 
d="M60 116h116v-116h-116v116zM612 116h116v-116h-116v116zM336 116h116v-116h-116v116z" />
    <glyph glyph-name="perthousand" unicode="&#x2030;" horiz-adv-x="1045" 
d="M125 0l386 690h83l-385 -690h-84zM705 192v-43c0 -48.667 -12.333 -87 -37 -115s-60.667 -42 -108 -42c-45.333 0 -80.5 14 -105.5 42s-37.5 66.333 -37.5 115v43c0 48.667 12.667 86.667 38 114s60.333 41 105 41c46 0 81.667 -13.5 107 -40.5s38 -65.167 38 -114.5z
M560 52c26.667 0 47 8.66797 61 26.001s21 41.333 21 72v40c0 64 -27.333 96 -82 96c-25.333 0 -44.833 -8.33301 -58.5 -25s-20.5 -40.334 -20.5 -71.001v-40c0 -65.333 26.333 -98 79 -98zM313 543.001v-43c0 -48.667 -12.333 -87 -37 -115s-60.667 -42 -108 -42
c-45.333 0 -80.5 14 -105.5 42s-37.5 66.333 -37.5 115v43c0 48.667 12.667 86.667 38 114s60.333 41 105 41c46 0 81.667 -13.5 107 -40.5s38 -65.167 38 -114.5zM168 403.001c26.667 0 47 8.66797 61 26.001s21 41.333 21 72v40c0 64 -27.333 96 -82 96
c-25.333 0 -44.833 -8.33301 -58.5 -25s-20.5 -40.334 -20.5 -71.001v-40c0 -65.333 26.333 -98 79 -98zM1025 192.002v-43c0 -48.667 -12.333 -87 -37 -115s-60.667 -42 -108 -42c-45.333 0 -80.5 14 -105.5 42s-37.5 66.333 -37.5 115v43c0 48.667 12.667 86.667 38 114
s60.333 41 105 41c46 0 81.667 -13.5 107 -40.5s38 -65.167 38 -114.5zM880 52.002c26.667 0 47 8.66797 61 26.001s21 41.333 21 72v40c0 64 -27.333 96 -82 96c-25.333 0 -44.833 -8.33301 -58.5 -25s-20.5 -40.334 -20.5 -71.001v-40c0 -65.333 26.333 -98 79 -98z" />
    <glyph glyph-name="guilsinglleft" unicode="&#x2039;" horiz-adv-x="330" 
d="M262 52l-232 231l232 231v-102l-130 -129l130 -129v-102z" />
    <glyph glyph-name="guilsinglright" unicode="&#x203a;" horiz-adv-x="330" 
d="M58 412v102l232 -231l-232 -231v102l130 129z" />
    <glyph glyph-name="fraction" unicode="&#x2044;" horiz-adv-x="566" 
d="M1 0l475 690h79l-474 -690h-80z" />
    <glyph glyph-name="uni2074" unicode="&#x2074;" horiz-adv-x="339" 
d="M48 478l131 212h64l-123 -205h85v56h54v-56h39v-50h-39v-61h-54v61h-157v43z" />
    <glyph glyph-name="Euro" unicode="&#x20ac;" 
d="M8 231l0.000976562 78h65v72h-65v78h68c16 159.333 85 239 207 239c119.333 0 185.333 -74.333 198 -223h-84c-6.66699 53.333 -18.667 90.833 -36 112.5s-43.333 32.5 -78 32.5c-38 0 -66.5 -12.167 -85.5 -36.5s-30.833 -65.833 -35.5 -124.5h142v-78h-145v-72h145v-78
h-142c11.333 -107.333 51.666 -161 120.999 -161c34.667 0 60.667 11.167 78 33.5s29.333 59.5 36 111.5h83c-8 -75.333 -28.167 -131.333 -60.5 -168s-77.833 -55 -136.5 -55s-105.667 20.167 -141 60.5s-57.333 99.833 -66 178.5h-68z" />
    <glyph glyph-name="uni20B4" unicode="&#x20b4;" 
d="M50 236l-46 -0.000976562v80h493v-80h-357c-7.33301 -16 -11 -34.333 -11 -55c0 -34 10.5 -61 31.5 -81s52.5 -30 94.5 -30c32.667 0 58.334 6.33301 77.001 19c21.333 14.667 44 36.334 68 65.001l69 -47c-31.333 -40 -63 -69.333 -95 -88
c-30.667 -18 -70.334 -27 -119.001 -27c-70 0 -123 19.333 -159 58c-35.333 39.333 -53 84.333 -53 135c0 20 2.33301 37 7 51zM497 375.999l-492.999 0.00195312v80h352c9.33301 15.333 14 34 14 56c0 35.333 -9.83301 62.166 -29.5 80.499s-47.834 27.5 -84.501 27.5
c-30 0 -54.333 -6 -73 -18s-39.667 -33.333 -63 -64l-65 47c49.333 75.333 115.333 113 198 113c66 0 116.333 -17 151 -51s52 -79 52 -135c0 -20.667 -3 -39.334 -9 -56.001h50v-80z" />
    <glyph glyph-name="uni20B8" unicode="&#x20b8;" 
d="M7 482v78h486v-78h-200v-482h-86v482h-200zM7 612v78h486v-78h-486z" />
    <glyph glyph-name="uni20BD" unicode="&#x20bd;" 
d="M98 263l-90 0.000976562v78h90v349h140c79.333 0 141 -18.833 185 -56.5s66 -90.167 66 -157.5c0 -66.667 -22 -118.834 -66 -156.501s-105.667 -56.5 -185 -56.5h-54v-52h117v-78h-117v-133h-86v133h-90v78h90v52zM184 612.001v-271h54c110 0 165 45 165 135
c0 90.667 -55 136 -165 136h-54z" />
    <glyph glyph-name="afii61352" unicode="&#x2116;" horiz-adv-x="948" 
d="M918 536v-45c0 -50.667 -12.833 -90.5 -38.5 -119.5s-63.167 -43.5 -112.5 -43.5c-47.333 0 -84.166 14.5 -110.499 43.5s-39.5 68.833 -39.5 119.5v45c0 51.333 13.167 91.166 39.5 119.499s63.166 42.5 110.499 42.5c48 0 85.167 -14.167 111.5 -42.5
s39.5 -68.166 39.5 -119.499zM767 400c24.667 0 44 8.66699 58 26s21 40.333 21 69v37c0 30 -6.83301 53.167 -20.5 69.5s-33.167 24.5 -58.5 24.5c-24.667 0 -44 -8.33301 -58 -25s-21 -39.667 -21 -69v-37c0 -29.333 6.66699 -52.5 20 -69.5s33 -25.5 59 -25.5zM897 213
h-259v72h259v-72zM467 163v527h86v-690h-84l-298 522v-522h-86v690h82z" />
    <glyph glyph-name="trademark" unicode="&#x2122;" horiz-adv-x="882" 
d="M412 690h65l150 -260l150 260h65v-417h-71v278l-115 -198h-64l-109 198v-278h-71v417zM30 624v66h338v-66h-134v-351h-71v351h-133z" />
    <glyph glyph-name="uni2190" unicode="&#x2190;" horiz-adv-x="875" 
d="M209 222l314 -314h-110l-353 353l353 353h110l-314 -314h606v-78h-606z" />
    <glyph glyph-name="uni2191" unicode="&#x2191;" horiz-adv-x="826" 
d="M413 639l353 -353v-110l-314 314v-606h-78v606l-314 -314v110z" />
    <glyph glyph-name="uni2192" unicode="&#x2192;" horiz-adv-x="875" 
d="M815 261l-353 -353h-110l314 314h-606v78h606l-314 314h110z" />
    <glyph glyph-name="uni2193" unicode="&#x2193;" horiz-adv-x="826" 
d="M413 -117l-353 353v110l314 -314v606h78v-606l314 314v-110z" />
    <glyph glyph-name="uni2196" unicode="&#x2196;" horiz-adv-x="698" 
d="M137 367v-445l-77 78v500h500l78 -77h-445l428 -429l-55 -55z" />
    <glyph glyph-name="uni2197" unicode="&#x2197;" horiz-adv-x="698" 
d="M638 500v-500l-77 -78v445l-429 -428l-55 55l428 429h-445l78 77h500z" />
    <glyph glyph-name="uni2198" unicode="&#x2198;" horiz-adv-x="698" 
d="M561 133v445l77 -78v-500h-500l-78 77h445l-428 429l55 55z" />
    <glyph glyph-name="uni2199" unicode="&#x2199;" horiz-adv-x="698" 
d="M60 0v500l77 78v-445l429 428l55 -55l-428 -429h445l-78 -77h-500z" />
    <glyph glyph-name="uni21A3" unicode="&#x21a3;" horiz-adv-x="1252" 
d="M168 375l39 39l94 -94h794l-55 55l39 39l133 -133l-133 -133l-39 39l55 55h-794l-94 -94l-39 39l94 94zM40 375l39 39l133 -133l-133 -133l-39 39l94 94z" />
    <glyph glyph-name="partialdiff" unicode="&#x2202;" 
d="M456 474l-0.00195312 -256c0 -70 -17.667 -125.167 -53 -165.5s-87 -60.5 -155 -60.5c-65.333 0 -116.333 20 -153 60s-55 95.333 -55 166v66c0 70.667 18.333 125.667 55 165s87.667 59 153 59c56 0 98.667 -14.333 128 -43v9c0 48 -11.5 85.333 -34.5 112
s-56.167 40 -99.5 40c-37.333 0 -76.333 -15 -117 -45l-44 58c20.667 18 45.834 32.333 75.501 43s58.5 16 86.5 16c68.667 0 121.334 -19.5 158.001 -58.5s55 -94.167 55 -165.5zM247.998 64c40 0 71.333 14.333 94 43s34 65.667 34 111v66c0 48 -11.167 85.333 -33.5 112
s-53.833 40 -94.5 40s-72.167 -13.5 -94.5 -40.5s-33.5 -64.167 -33.5 -111.5v-66c0 -47.333 10.833 -84.833 32.5 -112.5s53.5 -41.5 95.5 -41.5z" />
    <glyph glyph-name="product" unicode="&#x220f;" horiz-adv-x="638" 
d="M85 -190v880h468v-880h-86v802h-296v-802h-86z" />
    <glyph glyph-name="summation" unicode="&#x2211;" horiz-adv-x="519" 
d="M30 690h449v-78h-338l196 -321v-83l-196 -320h338v-78h-449v58l232 382l-232 382v58z" />
    <glyph glyph-name="minus" unicode="&#x2212;" 
d="M444 318h-389v72h389v-72z" />
    <glyph glyph-name="uni2215" unicode="&#x2215;" horiz-adv-x="485" 
d="M460 812l-336 -928h-77l336 928h77z" />
    <glyph glyph-name="radical" unicode="&#x221a;" horiz-adv-x="653" 
d="M22 422v78h171l151 -356l124 546h251v-78h-186l-143 -612h-78l-182 422h-108z" />
    <glyph glyph-name="infinity" unicode="&#x221e;" horiz-adv-x="768" 
d="M383 284c-57.333 -77.333 -116.333 -115.997 -177 -115.997c-52 0 -94.667 16.667 -128 50c-32 33.333 -48 74.666 -48 123.999s16 90.666 48 123.999c33.333 33.333 76 50 128 50c32.667 0 65 -10.333 97 -31s60.667 -48.334 86 -83.001c56 76 113.667 114 173 114
c52.667 0 95 -16.667 127 -50c32.667 -32.667 49 -74 49 -124s-16.333 -91.333 -49 -124c-32 -33.333 -74.333 -50 -127 -50c-62 0 -121.667 38.667 -179 116zM570 247.003c26.667 0 49.166 8.83301 67.499 26.5s27.5 40.5 27.5 68.5s-9.33301 50.667 -28 68
s-42.334 26 -71.001 26c-19.333 0 -36.666 -4.33301 -51.999 -13c-17.333 -10 -29.666 -19.333 -36.999 -28c-14.667 -16 -29 -33 -43 -51c26.667 -35.333 50 -60.333 70 -75s42 -22 66 -22zM199.999 247.003c28.667 0 52.3311 7.33398 70.998 22.001c20 16 43 40.667 69 74
c-27.333 33.333 -51.166 57.166 -71.499 71.499s-43.166 21.5 -68.499 21.5c-27.333 0 -50.333 -8.83301 -69 -26.5s-28 -40.167 -28 -67.5c0 -28 9.33301 -50.833 28 -68.5s41.667 -26.5 69 -26.5z" />
    <glyph glyph-name="integral" unicode="&#x222b;" horiz-adv-x="286" 
d="M80 -10v546c0 54 12.167 93.167 36.5 117.5s64.833 36.5 121.5 36.5h23v-82h-20c-31.333 0 -51.666 -6.66699 -60.999 -20s-14 -39.333 -14 -78v-546c0 -54 -12.167 -93.167 -36.5 -117.5s-64.833 -36.5 -121.5 -36.5h-23v82h20c31.333 0 51.666 6.66699 60.999 20
s14 39.333 14 78z" />
    <glyph glyph-name="approxequal" unicode="&#x2248;" 
d="M419 465l36.999 -54c-38.667 -34.667 -75 -52 -109 -52c-22 0 -56 8.66699 -102 26c-44.667 18 -76.334 27 -95.001 27c-20 0 -43.333 -11.333 -70 -34l-37 54c37.333 34.667 73.333 52 108 52c22 0 56 -9 102 -27c46.667 -17.333 78.334 -26 95.001 -26
c22.667 0 46.334 11.333 71.001 34zM418.999 306l36.999 -54c-38.667 -34.667 -75 -52 -109 -52c-22 0 -56 8.66699 -102 26c-44.667 18 -76.334 27 -95.001 27c-20 0 -43.333 -11.333 -70 -34l-37 54c37.333 34.667 73.333 52 108 52c22 0 56 -9 102 -27
c46.667 -17.333 78.334 -26 95.001 -26c22.667 0 46.334 11.333 71.001 34z" />
    <glyph glyph-name="notequal" unicode="&#x2260;" 
d="M235 400h-180v72h211l77 178l66 -28l-65 -150h100v-72h-131l-39 -92h170v-72h-201l-74 -172l-66 28l62 144h-110v72h141z" />
    <glyph glyph-name="lessequal" unicode="&#x2264;" 
d="M366 170l-232 231l232 231v-102l-130 -129l130 -129v-102zM366 -22l-232 231v100l232 -229v-102z" />
    <glyph glyph-name="greaterequal" unicode="&#x2265;" 
d="M134 530v102l232 -231l-232 -231v102l130 129zM134 80l232 229v-100l-232 -231v102z" />
    <glyph glyph-name="uni231A" unicode="&#x231a;" horiz-adv-x="666" 
d="M446 -205h-260.999v235c-38.667 22.667 -69.167 53.667 -91.5 93s-33.5 81.666 -33.5 126.999s11.167 87.5 33.5 126.5s52.833 69.833 91.5 92.5v235h261v-234c32.667 -20 59.667 -45.667 81 -77s35 -65.666 41 -102.999h38v-80h-38
c-12.667 -78.667 -53.334 -138.667 -122.001 -180v-235zM167.001 398c-41.333 -41.333 -62 -90.666 -62 -147.999c0 -58 20.667 -107.667 62 -149s91 -62 149 -62c57.333 0 106.666 20.667 147.999 62s62 91 62 149c0 57.333 -20.667 106.666 -62 147.999
s-90.666 62 -147.999 62c-58 0 -107.667 -20.667 -149 -62zM488.001 337l-6 -19l-166 -93l-133 75l-6 20l20 5l119 -70l153 87z" />
    <glyph glyph-name="uni23F2" unicode="&#x23f2;" horiz-adv-x="1072" 
d="M199 5c-92.667 92.667 -138.999 204.999 -138.999 336.999c0 131.333 46.333 243.333 139 336c93.333 93.333 205.666 140 336.999 140c130.667 0 242.667 -46.667 336 -140s140 -205.333 140 -336c0 -131.333 -46.667 -243.666 -140 -336.999
c-92.667 -92.667 -204.667 -139 -336 -139c-132 0 -244.333 46.333 -337 139zM237.001 639.999c-82 -82 -123 -181.333 -123 -298c0 -116 41 -215.667 123 -299c82.667 -82 182.334 -123 299.001 -123s216 41 298 123c82 83.333 123 183 123 299c0 116.667 -41 216 -123 298
s-181.333 123 -298 123s-216.334 -41 -299.001 -123zM881.001 543.999l-10 -36l-335 -192l-248 142l-10 35l36 10l222 -129l309 179zM802.001 317.999v46h126v-46h-126zM559.001 -50.001h-46v126h46v-126zM145.001 317.999v46h126v-46h-126zM559.001 606.999h-46v126h46
v-126z" />
    <glyph glyph-name="uni2550" unicode="&#x2550;" horiz-adv-x="2158" 
d="M0 387h2158v-78h-2158v78zM0 259h2158v-78h-2158v78z" />
    <glyph glyph-name="lozenge" unicode="&#x25ca;" horiz-adv-x="551" 
d="M30 296l199 291h95l197 -291l-197 -296h-95zM420 296l-145 221l-145 -221l145 -226z" />
    <glyph glyph-name="uni261D" unicode="&#x261d;" horiz-adv-x="705" 
d="M645 249l0.00292969 -276.997h-370l-215 292c5.33301 5.33301 15 11.666 29 18.999c41.333 20 79.666 11.667 114.999 -25l71 -74v450c0 40.667 16.667 61 50 61s50 -19.333 50 -58v-229h36c19.333 0 33.166 -4.33301 41.499 -13s12.5 -22.334 12.5 -41.001h36
c19.333 0 33.166 -4.33301 41.499 -13s12.5 -22.334 12.5 -41.001h34c20 0 34.333 -4 43 -12s13 -21 13 -39zM645.003 -242.997h-370v161h370v-161zM584.003 -141.997c-7.33301 7.33301 -15.999 9.16797 -25.999 5.50098s-16.5 -9.83398 -19.5 -18.501
s-0.833008 -17.667 6.5 -27c8 -8 17 -10.167 27 -6.5s16.167 10.167 18.5 19.5s0.166016 18.333 -6.50098 27z" />
    <glyph glyph-name="uni261E" unicode="&#x261e;" horiz-adv-x="1061" 
d="M555 51l-276.999 -0.00195312v370l292 215c6 -6 12.333 -16 19 -30c20.667 -41.333 12.334 -79.333 -24.999 -114l-74 -71h450c40.667 0 61 -16.667 61 -50s-19.333 -50 -58 -50h-229v-36c0 -19.333 -4.33301 -33.166 -13 -41.499s-22.334 -12.5 -41.001 -12.5v-36
c0 -19.333 -4.33301 -33.166 -13 -41.499s-22.334 -12.5 -41.001 -12.5v-34c0 -20 -4 -34.333 -12 -43s-21 -13 -39 -13zM60.001 50.998v370h164v-370h-164zM161.001 110.998c8 8 10.333 17.166 7 27.499s-9.5 16.833 -18.5 19.5s-18.167 0.333984 -27.5 -6.99902
c-8 -8 -10.167 -17 -6.5 -27s10.167 -16.167 19.5 -18.5s18 -0.5 26 5.5z" />
    <glyph glyph-name="uni26F3" unicode="&#x26f3;" horiz-adv-x="674" 
d="M60 513c0 76.667 27 142.001 81 196.001s119.333 81 196 81s142 -27 196 -81s81 -119.333 81 -196c0 -57.333 -27.333 -129.333 -82 -216l-195 -307l-197 309c-53.333 85.333 -80 156.666 -80 213.999zM258 591.001c-21.333 -21.333 -32 -47.333 -32 -78
s10.667 -56.667 32 -78c22.667 -21.333 49 -32 79 -32c30.667 0 56.667 10.667 78 32s32 47.333 32 78s-10.667 56.667 -32 78s-47.333 32 -78 32c-30 0 -56.333 -10.667 -79 -32z" />
    <glyph glyph-name="uni2709" unicode="&#x2709;" horiz-adv-x="1236" 
d="M60 518v60h1116v-60l-558 -334zM60 37v444l338 -201zM810 263l366 -263h-1116l366 263l192 -114zM1176 37l-338 243l338 201v-444z" />
    <glyph glyph-name="uniF040" unicode="&#xf040;" horiz-adv-x="3054" 
d="M1580 375l39 39l94 -94h1341v-78h-1341l-94 -94l-39 39l94 94zM1341 242h-1341v78h1341l94 94l39 -39l-94 -94l94 -94l-39 -39z" />
    <glyph glyph-name="uniF041" unicode="&#xf041;" horiz-adv-x="2855" 
d="M1417 180l139 242l68 -39l-37 -63h1268v-78h-1313l-58 -101zM1312 320l59 102l68 -39l-140 -242l-67 39l35 62h-1267v78h1312z" />
    <glyph glyph-name="uniF042" unicode="&#xf042;" horiz-adv-x="2825" 
d="M2825 242h-1361v78h1361v-78zM0 320h1241v-78h-1241v78z" />
    <glyph glyph-name="uniF043" unicode="&#xf043;" horiz-adv-x="705" 
d="M275 -28l-214.998 292.002l8 6c8.66699 8 19.167 14.333 31.5 19s28.5 5.16699 48.5 1.5s38.667 -14.5 56 -32.5l71 -74v450c0 40.667 16.667 61 50 61s50 -19.333 50 -58v-229h36c19.333 0 33.166 -4.33301 41.499 -13s12.5 -22.334 12.5 -41.001h36
c19.333 0 33.166 -4.33301 41.499 -13s12.5 -22.334 12.5 -41.001h34c20 0 34.333 -4 43 -12s13 -21 13 -39v-277h-370zM275.002 -81.998h370v-161h-370v161zM545.002 -141.998c-8 -8 -10.167 -17.168 -6.5 -27.501s10.167 -16.833 19.5 -19.5s18 -0.333984 26 6.99902
c12.667 12.667 12.667 25.334 0 38.001s-25.667 13.334 -39 2.00098zM83.002 605.001v55h158v-55h-158zM409.002 605.001v55h158v-55h-158zM352.002 725.001h-55v158h55v-158z" />
    <glyph glyph-name="uniF044" unicode="&#xf044;" horiz-adv-x="931" 
d="M177 126l3.00098 10.0039c6 19.333 18.833 36.666 38.5 51.999s46.834 19.666 81.501 12.999l201 -45v478c0 40.667 16.667 61 50 61s50 -19.333 50 -58v-229h36c19.333 0 33.166 -4.33301 41.499 -13s12.5 -22.334 12.5 -41.001h36c19.333 0 33.166 -4.33301 41.499 -13
s12.5 -22.334 12.5 -41.001h34c20 0 34.333 -4 43 -12s13 -21 13 -39v-277h-370zM501.001 -81.9961h370v-161h-370v161zM553.001 759.004v55h158v-158h-55v103h-103zM218.001 70.0039v-55h-158v158h55v-103h103zM771.001 -141.996c-8 -8 -10.167 -17.168 -6.5 -27.501
s10.167 -16.833 19.5 -19.5s18 -0.333984 26 6.99902c12.667 12.667 12.667 25.334 0 38.001s-25.667 13.334 -39 2.00098z" />
    <glyph glyph-name="uniF045" unicode="&#xf045;" horiz-adv-x="903" 
d="M370 665l503.003 0.00292969v-55h-498v-202h36c19.333 0 33.166 -4.33301 41.499 -13s12.5 -22.334 12.5 -41.001h36c19.333 0 33.166 -4.33301 41.499 -13s12.5 -22.334 12.5 -41.001h34c20 0 34.333 -4 43 -12s13 -21 13 -39v-277h-370l-215 292
c5.33301 5.33301 15 11.666 29 18.999c41.333 20 79.666 11.667 114.999 -25l71 -74v450c0 40.667 16.667 61 50 61c23.333 0 38.333 -10 45 -30zM645.003 -242.997h-370v161h370v-161zM199.003 525.003l-112 112l112 112l39 -39l-73 -73l73 -73zM584.003 -141.997
c-7.33301 7.33301 -15.999 9.16797 -25.999 5.50098s-16.5 -9.83398 -19.5 -18.501s-0.833008 -17.667 6.5 -27c8 -8 17 -10.167 27 -6.5s16.167 10.167 18.5 19.5s0.166016 18.333 -6.50098 27z" />
    <glyph glyph-name="uniF046" unicode="&#xf046;" horiz-adv-x="952" 
d="M892 249l0.000976562 -276.999h-370l-215 292c5.33301 5.33301 15 11.666 29 18.999c41.333 20 79.666 11.667 114.999 -25l71 -74v426h-492v55h497c7.33301 20 22.333 30 45 30c33.333 0 50 -19.333 50 -58v-229h36c36 0 54 -18 54 -54h36c36 0 54 -18 54 -54h34
c20 0 34.333 -4 43 -12s13 -21 13 -39zM892.001 -242.999h-370v161h370v-161zM704.001 749.001l112 -112l-112 -112l-39 39l73 73l-73 73zM831.001 -141.999c-7.33301 7.33301 -15.999 9.16797 -25.999 5.50098s-16.5 -9.83398 -19.5 -18.501s-0.833008 -17.667 6.5 -27
c8 -8 17 -10.167 27 -6.5s16.167 10.167 18.5 19.5s0.166016 18.333 -6.50098 27z" />
    <glyph glyph-name="uniF047" unicode="&#xf047;" horiz-adv-x="1010" 
d="M872 514l-6 -3.99609v-634h-55v603l-137 -79l17 -31c18 -32 11.667 -56.333 -19 -73l18 -32c18 -30.667 11.333 -55 -20 -73l17 -30c19.333 -32 13.666 -56.667 -17.001 -74l-239 -139l-185 321l145 332l5 -2c3.33301 -1.33301 7.83301 -3.33301 13.5 -6
s11.334 -6.33398 17.001 -11.001s11.5 -10.334 17.5 -17.001s10.667 -14.334 14 -23.001s5.33301 -18.834 6 -30.501s-1.33301 -24.5 -6 -38.5l-29 -99l391 226c35.333 19.333 61.333 15 78 -13c16.667 -28.667 8 -53 -26 -73zM245 -158.996l-185 321l140 81l184 -321z
M765 651.004l-39 39l112 112l112 -112l-39 -39l-73 73zM295 -26.9961c-7.33301 7.33301 -15.999 9.16797 -25.999 5.50098s-16.5 -9.83398 -19.5 -18.501s-0.833008 -17.667 6.5 -27c8 -8 17 -10.167 27 -6.5s16.167 10.167 18.5 19.5s0.166016 18.333 -6.50098 27z" />
    <glyph glyph-name="uniF048" unicode="&#xf048;" horiz-adv-x="1145" 
d="M485 0l-240 137l186 321l360 40c2 -11.333 2.33301 -23 1 -35c-2.66699 -46 -28.667 -75 -78 -87l-100 -24l332 -192v603h55v-635l4 -2c34 -20 43 -44.667 27 -74c-16.667 -28.667 -42 -33.334 -76 -14.001l-198 115l-18 -30c-18.667 -32 -43 -39 -73 -21l-18 -31
c-18 -30.667 -42.667 -37 -74 -19l-17 -30c-18.667 -31.333 -43 -38.666 -73 -21.999zM60 245l185 320l140 -80l-186 -320zM1085 -51l-112 -112l-112 112l39 39l73 -73l73 73zM191 293c-7.33301 8 -15.999 10.333 -25.999 7s-16.5 -9.5 -19.5 -18.5
s-0.833008 -18.167 6.5 -27.5c8 -8 17.167 -10.167 27.5 -6.5s16.666 10.167 18.999 19.5s-0.166992 18 -7.5 26z" />
    <glyph glyph-name="uniF400" unicode="&#xf400;" horiz-adv-x="0" 
d="M-226 567h-75l70 158h96z" />
    <glyph glyph-name="uniF401" unicode="&#xf401;" horiz-adv-x="0" 
d="M-267 747h-77l80 129h100z" />
    <glyph glyph-name="uniF406" unicode="&#xf406;" horiz-adv-x="503" 
d="M358 880h78.001c0 -48 -16.333 -85.333 -49 -112s-77.667 -40 -135 -40s-102.5 13.333 -135.5 40s-49.5 64 -49.5 112h78c5.33301 -49.333 41 -74 107 -74c65.333 0 100.666 24.667 105.999 74z" />
    <glyph glyph-name="uniF407" unicode="&#xf407;" horiz-adv-x="413" 
d="M155 -69l18.999 94l57 -3l-13 -45c41.333 -11.333 62 -36 62 -74c0 -25.333 -10.167 -45.333 -30.5 -60s-47.166 -22 -80.499 -22c-16.667 0 -29 1 -37 3l12 52c2.66699 -0.666992 9 -1 19 -1c31.333 0 47 9.33301 47 28s-18.333 28 -55 28z" />
    <glyph glyph-name="uniF408" unicode="&#xf408;" horiz-adv-x="503" 
d="M67 737l138 142h92l138 -142h-97l-87 91l-87 -91h-97z" />
    <glyph glyph-name="uniF409" unicode="&#xf409;" horiz-adv-x="367" 
d="M135 -64h96v-96l-96 -83v179z" />
    <glyph glyph-name="uniF40A" unicode="&#xf40a;" horiz-adv-x="161" 
d="M50 690h96v-136l-96 -83v219z" />
    <glyph glyph-name="uniF40B" unicode="&#xf40b;" horiz-adv-x="364" 
d="M227 779h-90v90h90v-90z" />
    <glyph glyph-name="uniF40C" unicode="&#xf40c;" horiz-adv-x="429" 
d="M105 800c0 29.333 10.333 53.166 31 71.499s46.667 27.5 78 27.5c32 0 58.333 -9.16699 79 -27.5s31 -42.166 31 -71.499s-10.333 -53 -31 -71s-47 -27 -79 -27c-31.333 0 -57.333 9 -78 27s-31 41.667 -31 71zM157 800c0 -14 5.33105 -25.333 15.998 -34
s24.334 -13 41.001 -13s30.334 4.33301 41.001 13s16 20 16 34c2 19.333 -7 33.166 -27 41.499s-40 8.33301 -60 0s-29 -22.166 -27 -41.499z" />
    <glyph glyph-name="uniF40D" unicode="&#xf40d;" horiz-adv-x="484" 
d="M300 762c-15.333 0 -34.998 4.33301 -58.998 13c-24.667 9.33301 -43.334 14 -56.001 14c-22 0 -41.667 -8.66699 -59 -26l-47 49c29.333 33.333 64.666 50 105.999 50c12.667 0 32 -4.66699 58 -14c24 -8.66699 43.333 -13 58 -13c20.667 0 39.667 8.66699 57 26l47 -49
c-29.333 -33.333 -64.333 -50 -105 -50z" />
    <glyph glyph-name="uniF40E" unicode="&#xf40e;" horiz-adv-x="403" 
d="M236 45l26 -45c-24 -14 -40.833 -26 -50.5 -36s-14.5 -20.667 -14.5 -32c0 -18.667 15 -28 45 -28c11.333 0 18.333 0.333008 21 1l12 -52c-8 -2 -22.667 -3 -44 -3c-30 0 -54.833 6.5 -74.5 19.5s-29.5 31.833 -29.5 56.5c0 24 8.83301 45.167 26.5 63.5
s45.167 36.833 82.5 55.5z" />
    <glyph glyph-name="dollar.fitted" unicode="&#xf5f5;" horiz-adv-x="571" 
d="M318 -7l-0.000976562 -109.002h-74v111c-89.333 9.33301 -155.666 46 -198.999 110l71 49c20.667 -24.667 40.5 -43.167 59.5 -55.5s41.833 -20.833 68.5 -25.5v242c-122.667 26.667 -184 92.334 -184 197.001c0 50 15.667 91.667 47 125s77 53 137 59v116h74v-115
c84 -6.66699 148.333 -44 193 -112l-67 -48c-36 46.667 -78 73.334 -126 80.001v-235c70 -12.667 121.667 -34.167 155 -64.5s50 -74.5 50 -132.5c0 -48.667 -17 -91.667 -51 -129c-32.667 -36.667 -84 -57.667 -154 -63zM436.999 180.998c0 31.333 -9 56.667 -27 76
s-48.667 34 -92 44v-230c79.333 7.33301 119 44 119 110zM145.999 511.999c0 -55.333 32.667 -93 98 -113v218c-65.333 -12 -98 -47 -98 -105z" />
    <glyph glyph-name="Euro.fitted" unicode="&#xf5f6;" horiz-adv-x="615" 
d="M5 231l0.00292969 78h82v72h-82v78h86c20 159.333 102 239 246 239c70 0 126.167 -18.833 168.5 -56.5s68.833 -93.167 79.5 -166.5h-84c-11.333 51.333 -30.333 88.333 -57 111s-62.334 34 -107.001 34c-46.667 0 -83 -13 -109 -39s-42.667 -66.667 -50 -122h193v-78
h-198v-72h198v-78h-193c7.33301 -55.333 24 -96 50 -122s62.333 -39 109 -39c45.333 0 81.166 11.667 107.499 35s45.166 60 56.499 110h83c-10 -74 -36.333 -129.667 -79 -167s-98.667 -56 -168 -56c-144 0 -226 79.667 -246 239h-86z" />
    <glyph glyph-name="cent.fitted" unicode="&#xf5f7;" horiz-adv-x="444" 
d="M367 120l62 -44c-25.333 -48 -71 -75.333 -137 -82v-110h-74v111c-56 6.66699 -99.667 29.834 -131 69.501s-47 90.834 -47 153.501v66c0 63.333 15.667 114.166 47 152.499s75 61.166 131 68.499v117h74v-117c60 -6.66699 105.667 -31.667 137 -75l-63 -44
c-23.333 33.333 -60 50 -110 50c-42.667 0 -76 -13.5 -100 -40.5s-36 -64.167 -36 -111.5v-66c0 -47.333 11.5 -84.833 34.5 -112.5s56.833 -41.5 101.5 -41.5c54.667 0 91.667 18.667 111 56z" />
    <glyph glyph-name="sterling.fitted" unicode="&#xf5f8;" horiz-adv-x="499" 
d="M462 0h-437v78h71v240h-71v78h71v10c0 194.667 70 292 210 292c79.333 0 137 -28.667 173 -86l-74 -42c-25.333 33.333 -58.333 50 -99 50c-44 0 -75.667 -16.5 -95 -49.5s-29 -87.833 -29 -164.5v-10h156v-78h-156v-240h280v-78z" />
    <glyph glyph-name="yen.fitted" unicode="&#xf5f9;" horiz-adv-x="556" 
d="M95 146v78h140v72h-140v78h97l-172 316h101l157 -300l157 300h101l-173 -316h98v-78h-140v-72h140v-78h-140v-146h-86v146h-140z" />
    <glyph glyph-name="florin.fitted" unicode="&#xf5fa;" horiz-adv-x="306" 
d="M42 422l0.000976562 77.999h64v36c0 55.333 11.167 94.833 33.5 118.5s61.833 35.5 118.5 35.5h23v-78h-20c-30.667 0 -50.667 -6.66699 -60 -20c-8 -13.333 -12 -38.666 -12 -75.999v-16h92v-78h-92v-458c0 -54 -12.833 -93.167 -38.5 -117.5
s-68.834 -36.5 -129.501 -36.5v78c40.667 0 65 9.66699 73 29c8 14.667 12 37 12 67v438h-64z" />
    <glyph glyph-name="uni20B4.fitted" unicode="&#xf5fb;" horiz-adv-x="583" 
d="M91 236l-46.001 -0.000976562v80h493v-80h-357c-7.33301 -16 -11 -34.333 -11 -55c0 -34 10.5 -61 31.5 -81s52.5 -30 94.5 -30c32.667 0 58.334 6.33301 77.001 19c21.333 14.667 44 36.334 68 65.001l69 -47c-31.333 -40 -63 -69.333 -95 -88
c-31.333 -18 -71 -27 -119 -27c-70 0 -123 19.333 -159 58c-35.333 39.333 -53 84.333 -53 135c0 20 2.33301 37 7 51zM537.999 375.999l-492.999 0.00195312v80h352c9.33301 15.333 14 34 14 56c0 35.333 -9.83301 62.166 -29.5 80.499s-47.834 27.5 -84.501 27.5
c-30 0 -54.333 -6 -73 -18s-39.667 -33.333 -63 -64l-65 47c49.333 75.333 115.333 113 198 113c66 0 116.333 -17 151 -51s52 -79 52 -135c0 -20.667 -3 -39.334 -9 -56.001h50v-80z" />
    <glyph glyph-name="uni20BD.fitted" unicode="&#xf5fc;" 
d="M98 263l-90 0.000976562v78h90v349h140c79.333 0 141 -18.833 185 -56.5s66 -90.167 66 -157.5c0 -66.667 -22 -118.834 -66 -156.501s-105.667 -56.5 -185 -56.5h-54v-52h117v-78h-117v-133h-86v133h-90v78h90v52zM184 612.001v-271h54c110 0 165 45 165 135
c0 90.667 -55 136 -165 136h-54z" />
    <glyph glyph-name="uni20B8.fitted" unicode="&#xf5fd;" horiz-adv-x="516" 
d="M5 482v78h506v-78h-210v-482h-86v482h-210zM5 612v78h506v-78h-506z" />
    <glyph glyph-name="currency.fitted" unicode="&#xf5fe;" horiz-adv-x="531" 
d="M66 366c0 40 10.667 76.668 32 110.001l-68 68l57 57l67 -68c34.667 22.667 71.667 34 111 34c40.667 0 77.334 -11.333 110.001 -34l69 69l57 -57l-69 -69c22.667 -32.667 34 -69.334 34 -110.001c0 -39.333 -11.333 -76.333 -34 -111l69 -68l-57 -57l-69 68
c-33.333 -21.333 -70 -32 -110 -32c-40.667 0 -77.334 11 -110.001 33l-68 -68l-57 57l68 68c-21.333 31.333 -32 68 -32 110zM184 449.001c-21.333 -23.333 -32 -51 -32 -83s10.667 -59.667 32 -83c22 -22.667 49 -34 81 -34s59 11.333 81 34c22.667 23.333 34 51 34 83
s-11.333 59.667 -34 83c-22 23.333 -49 35 -81 35s-59 -11.667 -81 -35z" />
    <glyph glyph-name="uniF639" unicode="&#xf639;" horiz-adv-x="516" 
d="M456 499v-308c0 -60.667 -19.333 -109 -58 -145s-85.334 -54 -140.001 -54s-101.334 18 -140.001 54s-58 84.667 -58 146v306c0 61.333 19.333 110 58 146s85.334 54 140.001 54s101.334 -18 140.001 -54s58 -84.333 58 -145zM370 191v308
c0 35.333 -10.667 64.333 -32 87s-48 34 -80 34c-32.667 0 -59.667 -11.333 -81 -34s-32 -51.667 -32 -87v-308c0 -35.333 10.667 -64.333 32 -87s48.333 -34 81 -34c32 0 58.667 11.333 80 34s32 51.667 32 87z" />
    <glyph glyph-name="uniF63A" unicode="&#xf63a;" horiz-adv-x="497" 
d="M148 78l292 -0.00195312v-78h-405v72l243 287c52 60.667 78 112 78 154c0 32.667 -10.833 58.834 -32.5 78.501s-48.167 29.5 -79.5 29.5c-32.667 0 -59.5 -9.66699 -80.5 -29s-31.833 -45.666 -32.5 -78.999h-85c0 55.333 19 100 57 134s85 51 141 51
c57.333 0 104.333 -17.333 141 -52c38 -34 57 -79.667 57 -137c0 -23.333 -5.66699 -48.333 -17 -75c-11.333 -26 -22.333 -45.667 -33 -59l-45 -56l-9 -11z" />
    <glyph glyph-name="uniF63B" unicode="&#xf63b;" horiz-adv-x="489" 
d="M223 317l-43.002 0.000976562v78h43c86.667 0 130 40.667 130 122c0 28.667 -10.667 53.167 -32 73.5s-48 30.5 -80 30.5c-31.333 0 -57.666 -9.33301 -78.999 -28s-32.666 -42.334 -33.999 -71.001h-84c0 52.667 19.333 95 58 127c38.667 32.667 85 49 139 49
c58 0 105.333 -17.333 142 -52c37.333 -34 56 -77.667 56 -131c0 -34 -9.16699 -64.833 -27.5 -92.5s-43.5 -49.167 -75.5 -64.5c75.333 -31.333 113 -88 113 -170c0 -54 -18.667 -100.333 -56 -139c-36.667 -38 -85 -57 -145 -57c-63.333 0 -113.833 16.5 -151.5 49.5
s-58.167 76.833 -61.5 131.5h84c4.66699 -31.333 18 -56.333 40 -75s51.667 -28 89 -28c32.667 0 60 11.167 82 33.5s33 49.833 33 82.5c0 42 -12 74.333 -36 97s-58.667 34 -104 34z" />
    <glyph glyph-name="uniF63C" unicode="&#xf63c;" 
d="M20 175l243 515h85l-228 -500h199v203h86v-203h63v-78h-63v-112h-86v112h-299v63z" />
    <glyph glyph-name="uniF63D" unicode="&#xf63d;" horiz-adv-x="485" 
d="M243 382c-41.333 0 -73.998 -16.999 -97.998 -50.999h-79v359h350v-86h-267v-181c26.667 30 63.334 45 110.001 45c61.333 0 107.666 -21.833 138.999 -65.5s47 -106.167 47 -187.5c0 -70 -17.667 -124.667 -53 -164s-85 -59 -149 -59
c-52.667 0 -97.334 16.333 -134.001 49c-36.667 33.333 -56.334 73.666 -59.001 120.999h84c6.66699 -29.333 19.5 -52 38.5 -68s42.5 -24 70.5 -24c77.333 0 116 48.333 116 145c0 111.333 -38.667 167 -116 167z" />
    <glyph glyph-name="uniF63E" unicode="&#xf63e;" horiz-adv-x="478" 
d="M229 690l96 0.000976562l-133 -304c15.333 9.33301 37 14 65 14c54 0 97.667 -19 131 -57c33.333 -38.667 50 -87 50 -145c0 -60.667 -18.667 -110.334 -56 -149.001c-37.333 -38 -85 -57 -143 -57s-105.667 18.667 -143 56s-56 86 -56 146c0 32.667 15.667 86 47 160z
M239 326.001c-34 0 -61.333 -11.667 -82 -35s-31 -54.333 -31 -93s10.333 -69.667 31 -93s48 -35 82 -35s61.333 11.667 82 35s31 54.333 31 93s-10.5 69.667 -31.5 93s-48.167 35 -81.5 35z" />
    <glyph glyph-name="uniF63F" unicode="&#xf63f;" horiz-adv-x="428" 
d="M98 612v-121h-78v199h388v-78l-219 -612h-91l220 612h-220z" />
    <glyph glyph-name="uniF640" unicode="&#xf640;" horiz-adv-x="496" 
d="M40 194c0 36.667 10.1699 69.999 30.5029 99.999s45.166 51.333 74.499 64c-28.667 14 -51.667 34.667 -69 62s-26 56.666 -26 87.999c0 56.667 19.333 102.334 58 137.001c39.333 35.333 86 53 140 53c53.333 0 99.666 -17.667 138.999 -53s59 -81 59 -137
c0 -31.333 -8.83301 -60.666 -26.5 -87.999s-40.834 -48 -69.501 -62c30 -12 55.167 -33.167 75.5 -63.5s30.5 -63.833 30.5 -100.5c0 -59.333 -20.667 -108 -62 -146c-41.333 -37.333 -90 -56 -146 -56s-104.667 18.667 -146 56c-41.333 38 -62 86.667 -62 146z
M126.003 193.999c0 -34.667 11.665 -63.998 34.998 -87.998s52.333 -36 87 -36s63.334 12 86.001 36c24 25.333 36 54.666 36 87.999c0 35.333 -12.667 64.666 -38 87.999s-53.333 35 -84 35c-31.333 0 -59.666 -11.667 -84.999 -35c-24.667 -22.667 -37 -52 -37 -88z
M248.001 394.001c30.667 0 57 11 79 33c22 23.333 33 50.333 33 81s-11 57 -33 79s-48.333 33 -79 33c-31.333 0 -58 -10.833 -80 -32.5s-33 -48.167 -33 -79.5c0 -30.667 11 -57.667 33 -81c22 -22 48.667 -33 80 -33z" />
    </font>
</defs>
</svg>
