<svg width="50" height="60" viewBox="0 0 50 60" fill="none" xmlns="http://www.w3.org/2000/svg">
<path d="M3.01478 22.0561C-2.05768 30.8584 1.16698 44.2164 6.77629 52.3158C9.57622 56.3651 12.411 59.9999 16.2937 59.9999C16.3668 59.9999 16.4402 59.9985 16.5154 59.9956C18.3396 59.9228 19.6578 59.3612 20.9324 58.8184C22.3633 58.2086 23.8432 57.5781 26.1646 57.5781C28.3729 57.5781 29.7823 58.1881 31.1451 58.7779C32.4884 59.359 33.8719 59.9602 35.9162 59.9218C40.2897 59.8404 42.975 55.9182 45.3441 52.458C47.8163 48.8452 49.0564 45.3375 49.4748 43.997L49.4918 43.9437C49.5714 43.7055 49.4589 43.4454 49.2305 43.3406C49.2242 43.3376 49.201 43.328 49.1945 43.3252C48.4244 43.0103 41.6686 40.0132 41.5975 31.8446C41.5316 25.208 46.6657 21.6936 47.6953 21.0566L47.7433 21.0267C47.8548 20.9549 47.9326 20.841 47.9589 20.7107C47.9853 20.5807 47.9577 20.4454 47.883 20.336C44.3392 15.15 38.9078 14.3684 36.721 14.2744C36.4037 14.2427 36.0762 14.2268 35.7472 14.2268C33.1788 14.2268 30.7185 15.1968 28.7418 15.9762C27.3773 16.5143 26.1988 16.9789 25.3859 16.9789C24.4725 16.9789 23.2873 16.5086 21.9148 15.9641C20.0794 15.2356 17.999 14.4102 15.7967 14.4102C15.7442 14.4102 15.6925 14.4107 15.6415 14.4117C10.5209 14.4871 5.68232 17.4166 3.01478 22.0561Z" fill="#292929"/>
<path d="M36.7255 0.000377987C33.6246 0.126673 29.9048 2.03546 27.6814 4.63966C25.7919 6.82857 23.9461 10.4781 24.4324 14.1568C24.4629 14.387 24.6502 14.5646 24.8817 14.5825C25.091 14.5989 25.3046 14.6071 25.5175 14.6073C28.5496 14.6073 31.8205 12.9299 34.0542 10.2289C36.4052 7.37684 37.594 3.71664 37.2344 0.438083C37.2061 0.181165 36.9801 -0.0096548 36.7255 0.000377987Z" fill="#292929"/>
</svg>
