<svg width="12" height="11" viewBox="0 0 12 11" fill="none" xmlns="http://www.w3.org/2000/svg">
<path d="M9.72855 5.22325C10.9584 4.11762 11.0591 2.22434 9.9535 0.994475C8.93945 -0.133508 7.24214 -0.325133 6.00213 0.548395C4.65038 -0.405591 2.78123 -0.0831339 1.82725 1.26859C0.951885 2.50892 1.14273 4.20799 2.27144 5.22322C0.868992 5.96251 -0.00631885 7.42 3.43521e-05 9.00534V10.291C3.43521e-05 10.5277 0.191911 10.7196 0.428612 10.7196H11.5714C11.8081 10.7196 12 10.5277 12 10.291V9.00534C12.0063 7.42 11.131 5.96251 9.72855 5.22325ZM7.71426 0.862539C8.89605 0.861234 9.85516 1.81821 9.85649 3C9.85742 3.84285 9.36353 4.60772 8.59497 4.95365C8.56197 4.96864 8.52897 4.98235 8.49555 4.99652C8.38978 5.03918 8.2807 5.07313 8.1694 5.09809C8.14798 5.10281 8.12654 5.10538 8.10469 5.10967C7.98034 5.1335 7.85415 5.14626 7.72754 5.14781C7.67054 5.14781 7.61311 5.14352 7.55611 5.1384C7.53468 5.1384 7.51324 5.1384 7.49182 5.1341C7.24824 5.10543 7.01129 5.03559 6.79111 4.92754C6.78297 4.92367 6.77353 4.9241 6.76539 4.92068C6.72253 4.90011 6.67969 4.88211 6.64154 4.85896C6.64498 4.85466 6.64712 4.84997 6.65053 4.84567C6.84706 4.59315 7.00199 4.3109 7.10952 4.00954L7.12281 3.97353C7.1717 3.82959 7.20967 3.68218 7.23638 3.53252C7.24025 3.51067 7.24324 3.48965 7.24668 3.4661C7.27147 3.31375 7.2845 3.15974 7.28568 3.00538C7.28445 2.85132 7.27142 2.69759 7.24668 2.54551C7.24324 2.52324 7.24025 2.50265 7.23638 2.47909C7.20967 2.32945 7.1717 2.18202 7.12281 2.03808L7.10952 2.00207C7.00199 1.70071 6.84703 1.41846 6.65053 1.16594C6.64709 1.16164 6.64496 1.15695 6.64154 1.15265C6.96714 0.962709 7.33731 0.862565 7.71426 0.862539ZM2.14287 3.0054C2.13983 1.82501 3.09425 0.865653 4.27464 0.862615C4.82794 0.861183 5.36026 1.0744 5.75958 1.45741C5.78444 1.48141 5.80887 1.50539 5.83285 1.53025C5.90646 1.60737 5.97433 1.68974 6.03601 1.77667C6.05487 1.80324 6.07202 1.83154 6.08957 1.85896C6.14946 1.95115 6.20204 2.04788 6.24684 2.14825C6.25757 2.17268 6.2657 2.19754 6.27512 2.22195C6.32029 2.33297 6.35585 2.44768 6.38141 2.5648C6.38443 2.57765 6.38528 2.59051 6.38784 2.60379C6.44213 2.8699 6.44213 3.14424 6.38784 3.41035C6.38528 3.42363 6.3844 3.43649 6.38141 3.44935C6.35588 3.56647 6.32032 3.68118 6.27512 3.7922C6.2657 3.81663 6.25754 3.84149 6.24684 3.8659C6.20199 3.96612 6.14941 4.0627 6.08957 4.15476C6.07199 4.18218 6.05487 4.21048 6.03601 4.23705C5.97436 4.32401 5.90646 4.40635 5.83285 4.48346C5.80885 4.50833 5.78441 4.53233 5.75958 4.55631C5.58606 4.72167 5.386 4.8567 5.16773 4.95574C5.13302 4.97158 5.09787 4.98617 5.06231 4.9986C4.959 5.03961 4.8527 5.07256 4.74432 5.09716C4.71733 5.10317 4.68945 5.10658 4.66203 5.1113C4.54567 5.13297 4.42767 5.14485 4.30932 5.14688H4.26218C4.14383 5.14488 4.02583 5.13297 3.90947 5.1113C3.88204 5.10658 3.85417 5.10317 3.82718 5.09716C3.71879 5.07256 3.61247 5.03961 3.50919 4.9986C3.47361 4.98446 3.43847 4.9699 3.40377 4.95574C2.63702 4.60955 2.14385 3.84666 2.14287 3.0054ZM7.71426 9.8625H0.857165V9.00537C0.850887 7.55309 1.7659 6.25646 3.13628 5.77568C3.87195 6.08196 4.69945 6.08196 5.43514 5.77568C5.57822 5.82796 5.71767 5.88966 5.85257 5.9604C5.94171 6.00625 6.024 6.05853 6.10971 6.11124C6.16543 6.14595 6.22198 6.17982 6.27557 6.21797C6.35829 6.27668 6.43628 6.34053 6.513 6.4061C6.56229 6.44897 6.61113 6.49181 6.65741 6.53467C6.72813 6.60152 6.79455 6.67223 6.85841 6.74468C6.90426 6.79696 6.94883 6.8501 6.99127 6.90497C7.04742 6.97696 7.10098 7.05069 7.1507 7.12652C7.19357 7.19081 7.23171 7.25766 7.26941 7.32453C7.31227 7.39823 7.3517 7.47196 7.38768 7.54867C7.42369 7.62539 7.45541 7.70939 7.48624 7.79125C7.51324 7.86239 7.54197 7.9331 7.56424 8.00553C7.59425 8.10494 7.61524 8.2078 7.63624 8.31066C7.64909 8.3715 7.66582 8.43109 7.67523 8.49279C7.70062 8.66247 7.71365 8.83378 7.71423 9.00537V9.8625H7.71426ZM11.1428 9.8625H8.57141V9.00537C8.57141 8.87122 8.5637 8.73835 8.5517 8.6068C8.54826 8.56822 8.54228 8.53008 8.53799 8.49151C8.52641 8.39679 8.51313 8.30295 8.49512 8.20993C8.48741 8.17023 8.47928 8.13035 8.47069 8.09035C8.45012 7.99493 8.42627 7.90036 8.39912 7.80664C8.39013 7.77578 8.38197 7.74449 8.37255 7.71408C8.25255 7.33045 8.07865 6.96584 7.85614 6.6311L7.83941 6.60667C7.76571 6.49723 7.68699 6.39139 7.60326 6.28911L7.60028 6.28524C7.51457 6.17897 7.42156 6.07566 7.32385 5.97795C7.32942 5.97795 7.33542 5.97795 7.34143 5.97795C7.46236 5.99384 7.58415 6.00243 7.70615 6.00366H7.72972C7.84263 6.00268 7.95535 5.99538 8.06745 5.98182C8.10258 5.97752 8.13731 5.97109 8.17244 5.96552C8.2636 5.95153 8.35359 5.93338 8.44244 5.9111C8.46773 5.90467 8.49344 5.89867 8.51916 5.89139C8.63575 5.85967 8.75026 5.82073 8.862 5.77482C10.2334 6.25513 11.1492 7.55234 11.1429 9.00539V9.8625H11.1428Z" fill="#BF4342"/>
</svg>
