<svg width="50" height="50" viewBox="0 0 50 50" fill="none" xmlns="http://www.w3.org/2000/svg">
<circle cx="25" cy="25" r="25" fill="#F0F0F0"/>
<path fill-rule="evenodd" clip-rule="evenodd" d="M18.3333 33C18.3333 33 17 33 17 31.6667C17 30.3333 18.3333 26.3333 25 26.3333C31.6667 26.3333 33 30.3333 33 31.6667C33 33 31.6667 33 31.6667 33H18.3333ZM25 25C26.0609 25 27.0783 24.5786 27.8284 23.8284C28.5786 23.0783 29 22.0609 29 21C29 19.9391 28.5786 18.9217 27.8284 18.1716C27.0783 17.4214 26.0609 17 25 17C23.9391 17 22.9217 17.4214 22.1716 18.1716C21.4214 18.9217 21 19.9391 21 21C21 22.0609 21.4214 23.0783 22.1716 23.8284C22.9217 24.5786 23.9391 25 25 25Z" fill="#505050"/>
</svg>
