<svg width="60" height="48" viewBox="0 0 60 48" fill="none" xmlns="http://www.w3.org/2000/svg">
<path d="M58.9337 5.12453C58.1563 4.20555 57.0676 3.64422 55.868 3.54403L13.6154 0.0159941C12.4156 -0.0842009 11.2491 0.288805 10.33 1.06611C9.41469 1.84036 8.85419 2.92352 8.75083 4.11731L7.90075 12.0926H4.50643C2.02159 12.0926 0 14.1142 0 16.599V43.0484C0 45.5332 2.02159 47.5548 4.50643 47.5548H46.9062C49.3912 47.5548 51.4128 45.5332 51.4128 43.0484V38.7578L52.9173 38.8834C53.0442 38.894 53.1705 38.8992 53.2956 38.8992C55.6122 38.8992 57.587 37.1169 57.7832 34.7676L59.9841 8.40998C60.0841 7.21034 59.7111 6.04363 58.9337 5.12453ZM4.50643 14.4363H46.9062C48.0987 14.4363 49.069 15.4065 49.069 16.599V19.0091H2.34374V16.599C2.34374 15.4065 3.31393 14.4363 4.50643 14.4363ZM2.34374 21.3528H49.069V26.2148H2.34374V21.3528ZM46.9062 45.2111H4.50643C3.31393 45.2111 2.34374 44.2409 2.34374 43.0484V28.5585H49.069V43.0484C49.069 44.2409 48.0987 45.2111 46.9062 45.2111ZM57.6484 8.21487L55.4475 34.5725C55.3483 35.7609 54.3005 36.6474 53.1123 36.5478L51.4128 36.4059V16.599C51.4128 14.1142 49.3912 12.0926 46.9062 12.0926H10.2579L11.0827 4.35356C11.0837 4.34465 11.0845 4.33586 11.0852 4.32684C11.1844 3.13844 12.2316 2.25204 13.4204 2.35165L55.6731 5.87968C56.2488 5.92773 56.7714 6.19714 57.1444 6.63823C57.5174 7.07933 57.6965 7.63913 57.6484 8.21487Z" fill="#292929"/>
<path d="M44.1651 32.0427H32.8867C32.2395 32.0427 31.7148 32.5674 31.7148 33.2146V40.5727C31.7148 41.2199 32.2395 41.7446 32.8867 41.7446H44.1651C44.8123 41.7446 45.3369 41.2199 45.3369 40.5727V33.2146C45.3369 32.5674 44.8123 32.0427 44.1651 32.0427ZM42.9932 39.4008H34.0586V34.3865H42.9932V39.4008Z" fill="#292929"/>
</svg>
