<svg width="30" height="27" viewBox="0 0 30 27" fill="none" xmlns="http://www.w3.org/2000/svg">
<path d="M9.72653 17.5783H25.6056C25.9988 17.5783 26.3438 17.3183 26.4502 16.9406L29.966 4.63576C30.0416 4.37049 29.9898 4.08553 29.8234 3.86512C29.6568 3.64539 29.3977 3.51561 29.1212 3.51561H7.6975L7.06922 0.688475C6.97996 0.285873 6.62291 0 6.21092 0H0.878904C0.393218 0 0 0.393218 0 0.878904C0 1.36482 0.393218 1.75781 0.878904 1.75781H5.50551L8.6794 16.04C7.74557 16.446 7.08982 17.3755 7.08982 18.4572C7.08982 19.9111 8.27268 21.0939 9.72653 21.0939H25.6056C26.0915 21.0939 26.4845 20.7009 26.4845 20.215C26.4845 19.7293 26.0915 19.3361 25.6056 19.3361H9.72653C9.24245 19.3361 8.84763 18.9422 8.84763 18.4572C8.84763 17.9722 9.24245 17.5783 9.72653 17.5783Z" fill="#292929"/>
<path d="M8.84766 23.7306C8.84766 25.1847 10.0305 26.3673 11.4846 26.3673C12.9384 26.3673 14.1213 25.1847 14.1213 23.7306C14.1213 22.2767 12.9384 21.0939 11.4846 21.0939C10.0305 21.0939 8.84766 22.2767 8.84766 23.7306Z" fill="#292929"/>
<path d="M21.2109 23.7306C21.2109 25.1847 22.3938 26.3673 23.8476 26.3673C25.3017 26.3673 26.4844 25.1847 26.4844 23.7306C26.4844 22.2767 25.3017 21.0939 23.8476 21.0939C22.3938 21.0939 21.2109 22.2767 21.2109 23.7306Z" fill="#292929"/>
</svg>
