<svg width="11" height="10" viewBox="0 0 11 10" fill="none" xmlns="http://www.w3.org/2000/svg">
<mask id="mask0" mask-type="alpha" maskUnits="userSpaceOnUse" x="0" y="0" width="11" height="10">
<path d="M5.50071 0C2.46322 0 0.00142569 2.07812 0.00142569 4.64286C0.00142569 5.70536 0.428909 6.67857 1.1378 7.46205C0.817726 8.34152 0.151797 9.08705 0.141056 9.09598C-0.000722465 9.25223 -0.0393893 9.47991 0.0422407 9.67634C0.123871 9.87277 0.310761 10 0.516984 10C1.8381 10 2.87996 9.42634 3.50507 8.96652C4.12589 9.16964 4.79612 9.28571 5.50071 9.28571C8.53821 9.28571 11 7.20759 11 4.64286C11 2.07812 8.53821 0 5.50071 0ZM5.50071 8.21429C4.92716 8.21429 4.36004 8.12277 3.81656 7.9442L3.32892 7.78348L2.91003 8.09152C2.60285 8.31696 2.18181 8.5692 1.67484 8.73884C1.83166 8.46875 1.98418 8.16518 2.10233 7.84152L2.33003 7.21429L1.88751 6.72768C1.49869 6.29688 1.03254 5.58482 1.03254 4.64286C1.03254 2.67411 3.03677 1.07143 5.50071 1.07143C7.96465 1.07143 9.96888 2.67411 9.96888 4.64286C9.96888 6.61161 7.96465 8.21429 5.50071 8.21429Z" fill="white"/>
</mask>
<g mask="url(#mask0)">
<path d="M5.50071 0C2.46322 0 0.00142569 2.07812 0.00142569 4.64286C0.00142569 5.70536 0.428909 6.67857 1.1378 7.46205C0.817726 8.34152 0.151797 9.08705 0.141056 9.09598C-0.000722465 9.25223 -0.0393893 9.47991 0.0422407 9.67634C0.123871 9.87277 0.310761 10 0.516984 10C1.8381 10 2.87996 9.42634 3.50507 8.96652C4.12589 9.16964 4.79612 9.28571 5.50071 9.28571C8.53821 9.28571 11 7.20759 11 4.64286C11 2.07812 8.53821 0 5.50071 0ZM5.50071 8.21429C4.92716 8.21429 4.36004 8.12277 3.81656 7.9442L3.32892 7.78348L2.91003 8.09152C2.60285 8.31696 2.18181 8.5692 1.67484 8.73884C1.83166 8.46875 1.98418 8.16518 2.10233 7.84152L2.33003 7.21429L1.88751 6.72768C1.49869 6.29688 1.03254 5.58482 1.03254 4.64286C1.03254 2.67411 3.03677 1.07143 5.50071 1.07143C7.96465 1.07143 9.96888 2.67411 9.96888 4.64286C9.96888 6.61161 7.96465 8.21429 5.50071 8.21429Z" fill="#BF4342"/>
</g>
</svg>
