<svg width="6" height="6" viewBox="0 0 6 6" fill="none" xmlns="http://www.w3.org/2000/svg">
<path d="M3.48985 2.98349L5.91985 0.553486C5.97446 0.489718 6.00299 0.407693 5.99975 0.323801C5.99651 0.239909 5.96173 0.160329 5.90237 0.100965C5.843 0.0415997 5.76342 0.00682207 5.67953 0.00358169C5.59564 0.000341302 5.51362 0.0288768 5.44985 0.0834856L3.01985 2.51349L0.589848 0.0801522C0.526081 0.0255434 0.444056 -0.00299179 0.360164 0.000248595C0.276271 0.00348898 0.196692 0.0382663 0.137327 0.0976311C0.0779622 0.156996 0.0431845 0.236576 0.0399441 0.320468C0.0367037 0.40436 0.0652393 0.486385 0.119848 0.550152L2.54985 2.98349L0.116515 5.41349C0.0816207 5.44337 0.0532806 5.48014 0.0332729 5.5215C0.0132651 5.56285 0.00202156 5.60789 0.000248393 5.6538C-0.00152477 5.69971 0.00621054 5.74549 0.0229687 5.78826C0.0397269 5.83104 0.0651463 5.86988 0.0976313 5.90237C0.130116 5.93485 0.168965 5.96027 0.21174 5.97703C0.254515 5.99379 0.300293 6.00152 0.346199 5.99975C0.392106 5.99798 0.43715 5.98674 0.478505 5.96673C0.51986 5.94672 0.556632 5.91838 0.586515 5.88349L3.01985 3.45349L5.44985 5.88349C5.51362 5.93809 5.59564 5.96663 5.67953 5.96339C5.76342 5.96015 5.843 5.92537 5.90237 5.86601C5.96173 5.80664 5.99651 5.72706 5.99975 5.64317C6.00299 5.55928 5.97446 5.47725 5.91985 5.41349L3.48985 2.98349Z" fill="#C4C4C4"/>
</svg>
