<svg width="28" height="28" viewBox="0 0 28 28" fill="none" xmlns="http://www.w3.org/2000/svg">
<g filter="url(#filter0_d_4_260)">
<circle cx="14" cy="14.0001" r="10" fill="white"/>
</g>
<path d="M14.4898 13.9836L16.9198 11.5536C16.9745 11.4898 17.003 11.4078 16.9998 11.3239C16.9965 11.24 16.9617 11.1605 16.9024 11.1011C16.843 11.0417 16.7634 11.0069 16.6795 11.0037C16.5956 11.0005 16.5136 11.029 16.4498 11.0836L14.0198 13.5136L11.5898 11.0803C11.5261 11.0257 11.4441 10.9971 11.3602 11.0004C11.2763 11.0036 11.1967 11.0384 11.1373 11.0978C11.078 11.1571 11.0432 11.2367 11.0399 11.3206C11.0367 11.4045 11.0652 11.4865 11.1198 11.5503L13.5498 13.9836L11.1165 16.4136C11.0816 16.4435 11.0533 16.4803 11.0333 16.5216C11.0133 16.563 11.002 16.608 11.0002 16.6539C10.9985 16.6998 11.0062 16.7456 11.023 16.7884C11.0397 16.8312 11.0651 16.87 11.0976 16.9025C11.1301 16.935 11.169 16.9604 11.2117 16.9772C11.2545 16.9939 11.3003 17.0016 11.3462 16.9999C11.3921 16.9981 11.4371 16.9869 11.4785 16.9668C11.5199 16.9468 11.5566 16.9185 11.5865 16.8836L14.0198 14.4536L16.4498 16.8836C16.5136 16.9382 16.5956 16.9668 16.6795 16.9635C16.7634 16.9603 16.843 16.9255 16.9024 16.8661C16.9617 16.8068 16.9965 16.7272 16.9998 16.6433C17.003 16.5594 16.9745 16.4774 16.9198 16.4136L14.4898 13.9836Z" fill="#C4C4C4"/>
<defs>
<filter id="filter0_d_4_260" x="0" y="0.00012207" width="28" height="28" filterUnits="userSpaceOnUse" color-interpolation-filters="sRGB">
<feFlood flood-opacity="0" result="BackgroundImageFix"/>
<feColorMatrix in="SourceAlpha" type="matrix" values="0 0 0 0 0 0 0 0 0 0 0 0 0 0 0 0 0 0 127 0" result="hardAlpha"/>
<feOffset/>
<feGaussianBlur stdDeviation="2"/>
<feColorMatrix type="matrix" values="0 0 0 0 0 0 0 0 0 0 0 0 0 0 0 0 0 0 0.25 0"/>
<feBlend mode="normal" in2="BackgroundImageFix" result="effect1_dropShadow_4_260"/>
<feBlend mode="normal" in="SourceGraphic" in2="effect1_dropShadow_4_260" result="shape"/>
</filter>
</defs>
</svg>
