<svg width="20" height="21" viewBox="0 0 20 21" fill="none" xmlns="http://www.w3.org/2000/svg">
<path d="M11.6328 9.95093L19.7328 1.84606C19.9149 1.63338 20.01 1.35979 19.9992 1.07999C19.9884 0.800177 19.8724 0.534752 19.6746 0.336751C19.4767 0.138749 19.2114 0.0227539 18.9318 0.0119461C18.6521 0.00113836 18.3787 0.0963139 18.1662 0.278453L10.0662 8.38332L1.96616 0.267335C1.7536 0.0851958 1.48019 -0.00997862 1.20055 0.000829148C0.920905 0.0116369 0.65564 0.127631 0.457757 0.325633C0.259874 0.523634 0.143948 0.789059 0.133147 1.06887C0.122346 1.34868 0.217464 1.62226 0.399494 1.83494L8.49949 9.95093L0.388382 18.0558C0.272069 18.1555 0.177602 18.2781 0.11091 18.416C0.044217 18.554 0.00673853 18.7042 0.000827977 18.8573C-0.00508257 19.0104 0.0207018 19.1631 0.0765624 19.3058C0.132423 19.4485 0.217154 19.578 0.325438 19.6864C0.433721 19.7947 0.563218 19.8795 0.705801 19.9354C0.848384 19.9913 1.00098 20.0171 1.154 20.0112C1.30702 20.0053 1.45717 19.9678 1.59502 19.901C1.73287 19.8343 1.85544 19.7398 1.95505 19.6234L10.0662 11.5185L18.1662 19.6234C18.3787 19.8055 18.6521 19.9007 18.9318 19.8899C19.2114 19.8791 19.4767 19.7631 19.6746 19.5651C19.8724 19.3671 19.9884 19.1017 19.9992 18.8219C20.01 18.5421 19.9149 18.2685 19.7328 18.0558L11.6328 9.95093Z" fill="white"/>
</svg>
