<svg width="10" height="10" viewBox="0 0 10 10" fill="none" xmlns="http://www.w3.org/2000/svg">
<path d="M5 0.612183C2.24313 0.612183 0 2.43468 0 4.67468C0 5.81906 0.5825 6.89218 1.6075 7.65968C1.3 8.11281 0.84375 8.59593 0.2375 8.74656C0.0925 8.78281 -0.006875 8.91593 0.000625 9.06531C0.008125 9.21468 0.119375 9.33781 0.2675 9.35906C0.29 9.36218 0.475625 9.38781 0.780625 9.38781C1.415 9.38781 2.56438 9.27656 3.82688 8.62281C4.20125 8.69843 4.595 8.73718 5 8.73718C7.75687 8.73718 10 6.91468 10 4.67468C10 2.43468 7.75687 0.612183 5 0.612183ZM5 8.11218C4.59938 8.11218 4.2125 8.07093 3.85 7.98843C3.77687 7.97093 3.69937 7.98218 3.6325 8.01843C2.855 8.43718 2.115 8.62531 1.53625 8.70593C1.815 8.44718 2.07187 8.12156 2.30062 7.73343C2.38563 7.58968 2.34188 7.40468 2.20313 7.31343C1.2 6.65656 0.625 5.69468 0.625 4.67468C0.625 2.77906 2.58813 1.23718 5 1.23718C7.41187 1.23718 9.375 2.77906 9.375 4.67468C9.375 6.57031 7.41187 8.11218 5 8.11218Z" fill="#BF4342"/>
</svg>
