<svg width="60" height="60" viewBox="0 0 60 60" fill="none" xmlns="http://www.w3.org/2000/svg">
<path d="M13.2973 36.2587L11.2088 44.0554L3.57527 44.2169C1.29398 39.9856 0 35.1445 0 30C0 25.0252 1.20984 20.334 3.35438 16.2032H3.35602L10.152 17.4492L13.129 24.2043C12.5059 26.0209 12.1663 27.9709 12.1663 30C12.1665 32.2022 12.5654 34.3121 13.2973 36.2587Z" fill="#FBBB00"/>
<path d="M59.4755 24.3956C59.82 26.2104 59.9996 28.0846 59.9996 30C59.9996 32.1478 59.7738 34.2429 59.3436 36.2638C57.8832 43.1407 54.0673 49.1456 48.7811 53.3951L48.7794 53.3934L40.2196 52.9567L39.0081 45.394C42.5157 43.3369 45.257 40.1176 46.701 36.2638H30.6592V24.3956H46.935H59.4755Z" fill="#518EF8"/>
<path d="M48.7796 53.3935L48.7812 53.3951C43.6401 57.5275 37.1092 60 29.9999 60C18.5752 60 8.64227 53.6144 3.5752 44.2171L13.2972 36.2589C15.8307 43.0204 22.3532 47.8336 29.9999 47.8336C33.2867 47.8336 36.3659 46.9451 39.0081 45.394L48.7796 53.3935Z" fill="#28B446"/>
<path d="M49.149 6.90656L39.4303 14.8631C36.6957 13.1538 33.4632 12.1664 30.0001 12.1664C22.1803 12.1664 15.5358 17.2004 13.1292 24.2044L3.35613 16.2033H3.35449C8.34738 6.57692 18.4056 0 30.0001 0C37.2792 0 43.9534 2.59289 49.149 6.90656Z" fill="#F14336"/>
</svg>
