<svg width="50" height="50" viewBox="0 0 50 50" fill="none" xmlns="http://www.w3.org/2000/svg">
<path d="M25 50C38.8 50 50 38.8 50 25C50 11.2 38.8 0 25 0C11.2 0 0 11.2 0 25C0 38.8 11.2 50 25 50ZM33.9229 23.2146H37.5021V19.6375H41.0812V23.2167H44.6292V26.7958H41.0812V30.375H37.5021V26.7958H33.9229V23.2146ZM17.8729 12.4979C21.0271 12.4979 23.9312 13.6083 26.2417 15.7542L22.8542 19.0417C21.5229 17.7396 19.7 17.1167 17.8729 17.1167C13.5479 17.1167 10.0896 20.6958 10.0896 24.9896C10.0896 29.2833 13.5375 32.8625 17.8729 32.8625C21.1583 32.8625 24.4146 30.9375 24.9396 27.4896H17.8729V23.1958H29.6583C29.7896 23.8812 29.85 24.5667 29.85 25.2812C29.85 32.4188 25.0604 37.4979 17.8729 37.4979V37.5C10.9375 37.5 5.37083 31.9042 5.37083 24.9979C5.37083 18.0917 10.9375 12.4979 17.8729 12.4979Z" fill="#292929"/>
</svg>
