<svg width="60" height="60" viewBox="0 0 60 60" fill="none" xmlns="http://www.w3.org/2000/svg">
<path d="M13.2973 36.2587L11.2088 44.0554L3.57527 44.2169C1.29398 39.9856 0 35.1445 0 30C0 25.0252 1.20984 20.334 3.35438 16.2032H3.35602L10.152 17.4492L13.129 24.2043C12.5059 26.0209 12.1663 27.9709 12.1663 30C12.1665 32.2022 12.5654 34.3121 13.2973 36.2587Z" fill="#FBBB00"/>
<path d="M59.4764 24.3956C59.821 26.2104 60.0006 28.0846 60.0006 30C60.0006 32.1478 59.7748 34.2429 59.3446 36.2638C57.8842 43.1407 54.0682 49.1456 48.782 53.3951L48.7804 53.3934L40.2205 52.9567L39.0091 45.394C42.5167 43.3369 45.258 40.1176 46.702 36.2638H30.6602V24.3956H46.936H59.4764Z" fill="#518EF8"/>
<path d="M48.7786 53.3935L48.7802 53.3951C43.6391 57.5275 37.1082 60 29.9989 60C18.5742 60 8.64129 53.6144 3.57422 44.2171L13.2962 36.2589C15.8297 43.0204 22.3522 47.8336 29.9989 47.8336C33.2857 47.8336 36.3649 46.9451 39.0071 45.394L48.7786 53.3935Z" fill="#28B446"/>
<path d="M49.15 6.90656L39.4313 14.8631C36.6967 13.1538 33.4642 12.1664 30.0011 12.1664C22.1813 12.1664 15.5368 17.2004 13.1302 24.2044L3.35711 16.2033H3.35547C8.34836 6.57692 18.4066 0 30.0011 0C37.2802 0 43.9544 2.59289 49.15 6.90656Z" fill="#F14336"/>
</svg>
