<svg width="10" height="11" viewBox="0 0 10 11" fill="none" xmlns="http://www.w3.org/2000/svg">
<path d="M4.83398 0C3.23471 0 1.93359 1.30112 1.93359 2.90039C1.93359 4.49967 3.23471 5.80078 4.83398 5.80078C6.43326 5.80078 7.73438 4.49967 7.73438 2.90039C7.73438 1.30112 6.43326 0 4.83398 0Z" fill="white"/>
<path d="M8.44263 7.6956C7.64857 6.88933 6.5959 6.44531 5.47852 6.44531H4.18945C3.07209 6.44531 2.0194 6.88933 1.22534 7.6956C0.435166 8.49791 0 9.55696 0 10.6777C0 10.8557 0.144289 11 0.322266 11H9.3457C9.52368 11 9.66797 10.8557 9.66797 10.6777C9.66797 9.55696 9.2328 8.49791 8.44263 7.6956Z" fill="white"/>
</svg>
