<svg width="27" height="20" viewBox="0 0 27 20" fill="none" xmlns="http://www.w3.org/2000/svg">
<g clip-path="url(#clip0_515:693)">
<path d="M5.48614 19.815V18.5025C5.48614 17.9993 5.17805 17.6712 4.64989 17.6712C4.38581 17.6712 4.09973 17.7587 3.90167 18.0431C3.74762 17.8025 3.52756 17.6712 3.19746 17.6712C2.9774 17.6712 2.75733 17.7368 2.58128 17.9775V17.7149H2.11914V19.815H2.58128V18.6556C2.58128 18.2837 2.77934 18.1087 3.08743 18.1087C3.39552 18.1087 3.54957 18.3056 3.54957 18.6556V19.815H4.0117V18.6556C4.0117 18.2837 4.23177 18.1087 4.51785 18.1087C4.82594 18.1087 4.97999 18.3056 4.97999 18.6556V19.815H5.48614ZM12.3302 17.7149H11.582V17.0805H11.1198V17.7149H10.7017V18.1306H11.1198V19.0931C11.1198 19.5744 11.3179 19.8588 11.846 19.8588C12.0441 19.8588 12.2642 19.7932 12.4182 19.7057L12.2862 19.3119C12.1541 19.3994 12.0001 19.4213 11.89 19.4213C11.67 19.4213 11.582 19.29 11.582 19.0713V18.1306H12.3302V17.7149ZM16.2473 17.6712C15.9833 17.6712 15.8072 17.8025 15.6972 17.9775V17.7149H15.235V19.815H15.6972V18.6337C15.6972 18.2837 15.8512 18.0868 16.1373 18.0868C16.2253 18.0868 16.3354 18.1087 16.4234 18.1306L16.5554 17.6931C16.4674 17.6712 16.3354 17.6712 16.2473 17.6712ZM10.3276 17.89C10.1075 17.7368 9.79942 17.6712 9.46932 17.6712C8.94117 17.6712 8.58906 17.9337 8.58906 18.3493C8.58906 18.6994 8.85314 18.8962 9.31528 18.9619L9.53534 18.9837C9.77742 19.0275 9.90946 19.0931 9.90946 19.2025C9.90946 19.3556 9.7334 19.465 9.42531 19.465C9.11722 19.465 8.87515 19.3556 8.7211 19.2463L8.50104 19.5963C8.74311 19.7713 9.07321 19.8588 9.4033 19.8588C10.0195 19.8588 10.3716 19.5744 10.3716 19.1806C10.3716 18.8087 10.0855 18.6119 9.64538 18.5462L9.42531 18.5244C9.22725 18.5025 9.07321 18.4587 9.07321 18.3275C9.07321 18.1743 9.22725 18.0868 9.46932 18.0868C9.7334 18.0868 9.99748 18.1962 10.1295 18.2618L10.3276 17.89ZM22.6072 17.6712C22.3431 17.6712 22.1671 17.8025 22.0571 17.9775V17.7149H21.5949V19.815H22.0571V18.6337C22.0571 18.2837 22.2111 18.0868 22.4972 18.0868C22.5852 18.0868 22.6953 18.1087 22.7833 18.1306L22.9153 17.6931C22.8273 17.6712 22.6953 17.6712 22.6072 17.6712ZM16.7095 18.765C16.7095 19.3994 17.1496 19.8588 17.8318 19.8588C18.1399 19.8588 18.36 19.7932 18.58 19.6181L18.36 19.2463C18.1839 19.3775 18.0079 19.4431 17.8098 19.4431C17.4357 19.4431 17.1716 19.1806 17.1716 18.765C17.1716 18.3712 17.4357 18.1087 17.8098 18.0868C18.0079 18.0868 18.1839 18.1525 18.36 18.2837L18.58 17.9118C18.36 17.7368 18.1399 17.6712 17.8318 17.6712C17.1496 17.6712 16.7095 18.1306 16.7095 18.765ZM20.9787 18.765V17.7149H20.5166V17.9775C20.3626 17.7806 20.1425 17.6712 19.8564 17.6712C19.2622 17.6712 18.8001 18.1306 18.8001 18.765C18.8001 19.3994 19.2622 19.8588 19.8564 19.8588C20.1645 19.8588 20.3846 19.7494 20.5166 19.5525V19.815H20.9787V18.765ZM19.2842 18.765C19.2842 18.3931 19.5263 18.0868 19.9224 18.0868C20.2965 18.0868 20.5606 18.3712 20.5606 18.765C20.5606 19.1369 20.2965 19.4431 19.9224 19.4431C19.5263 19.4213 19.2842 19.1369 19.2842 18.765ZM13.7606 17.6712C13.1444 17.6712 12.7043 18.1087 12.7043 18.765C12.7043 19.4213 13.1444 19.8588 13.7826 19.8588C14.0907 19.8588 14.3988 19.7713 14.6409 19.5744L14.4208 19.2463C14.2447 19.3775 14.0247 19.465 13.8046 19.465C13.5185 19.465 13.2324 19.3338 13.1664 18.9619H14.7289V18.7869C14.7509 18.1087 14.3548 17.6712 13.7606 17.6712ZM13.7606 18.065C14.0467 18.065 14.2447 18.24 14.2888 18.5681H13.1884C13.2324 18.2837 13.4305 18.065 13.7606 18.065ZM25.226 18.765V16.8837H24.7639V17.9775C24.6098 17.7806 24.3898 17.6712 24.1037 17.6712C23.5095 17.6712 23.0474 18.1306 23.0474 18.765C23.0474 19.3994 23.5095 19.8588 24.1037 19.8588C24.4118 19.8588 24.6318 19.7494 24.7639 19.5525V19.815H25.226V18.765ZM23.5315 18.765C23.5315 18.3931 23.7736 18.0868 24.1697 18.0868C24.5438 18.0868 24.8079 18.3712 24.8079 18.765C24.8079 19.1369 24.5438 19.4431 24.1697 19.4431C23.7736 19.4213 23.5315 19.1369 23.5315 18.765ZM8.08291 18.765V17.7149H7.62078V17.9775C7.46673 17.7806 7.24666 17.6712 6.96058 17.6712C6.3664 17.6712 5.90427 18.1306 5.90427 18.765C5.90427 19.3994 6.3664 19.8588 6.96058 19.8588C7.26867 19.8588 7.48874 19.7494 7.62078 19.5525V19.815H8.08291V18.765ZM6.3664 18.765C6.3664 18.3931 6.60847 18.0868 7.00459 18.0868C7.3787 18.0868 7.64278 18.3712 7.64278 18.765C7.64278 19.1369 7.3787 19.4431 7.00459 19.4431C6.60847 19.4213 6.3664 19.1369 6.3664 18.765Z" fill="black"/>
<path d="M17.1059 1.76746H10.1738V14.1492H17.1059V1.76746Z" fill="#FF5F00"/>
<path d="M10.6132 7.95831C10.6132 5.44259 11.8016 3.21125 13.6281 1.76745C12.2857 0.717407 10.5912 0.0830078 8.74267 0.0830078C4.36337 0.0830078 0.820312 3.60502 0.820312 7.95831C0.820312 12.3116 4.36337 15.8336 8.74267 15.8336C10.5912 15.8336 12.2857 15.1992 13.6281 14.1492C11.8016 12.7272 10.6132 10.474 10.6132 7.95831Z" fill="#EB001B"/>
<path d="M26.4582 7.95831C26.4582 12.3116 22.9151 15.8336 18.5358 15.8336C16.6873 15.8336 14.9928 15.1992 13.6504 14.1492C15.4989 12.7054 16.6653 10.474 16.6653 7.95831C16.6653 5.44259 15.4769 3.21125 13.6504 1.76745C14.9928 0.717407 16.6873 0.0830078 18.5358 0.0830078C22.9151 0.0830078 26.4582 3.62689 26.4582 7.95831Z" fill="#F79E1B"/>
</g>
<defs>
<clipPath id="clip0_515:693">
<rect width="25.663" height="19.8305" fill="white" transform="translate(0.820312 0.0830078)"/>
</clipPath>
</defs>
</svg>
