<svg width="40" height="12" viewBox="0 0 40 12" fill="none" xmlns="http://www.w3.org/2000/svg">
<g clip-path="url(#clip0_515:700)">
<path fill-rule="evenodd" clip-rule="evenodd" d="M11.1836 0.16565V0.170489C11.1789 0.170489 9.68 0.16565 9.2803 1.62225C8.91391 2.95787 7.88136 6.64534 7.85282 6.74696H7.56732C7.56732 6.74696 6.51098 2.97723 6.13983 1.61741C5.74013 0.16081 4.23652 0.16565 4.23652 0.16565H0.810547V11.2474H4.23652V4.66611H4.37926H4.52201L6.52049 11.2474H8.89964L10.8981 4.67095H11.1836V11.2474H14.6096V0.16565H11.1836Z" fill="#4DB45E"/>
<path fill-rule="evenodd" clip-rule="evenodd" d="M23.6992 0.165649C23.6992 0.165649 22.6952 0.257594 22.2241 1.32706L19.7974 6.74696H19.5119V0.165649H16.0859V11.2474H19.3216C19.3216 11.2474 20.3732 11.1506 20.8442 10.086L23.2234 4.66611H23.5089V11.2474H26.9348V0.165649H23.6992Z" fill="#4DB45E"/>
<path fill-rule="evenodd" clip-rule="evenodd" d="M28.457 5.19849V11.2475H31.883V7.71487H35.5945C37.2123 7.71487 38.5827 6.66476 39.0918 5.19849H28.457Z" fill="#4DB45E"/>
<path fill-rule="evenodd" clip-rule="evenodd" d="M35.5946 0.165649H27.9766C28.3572 2.27554 29.9132 3.96926 31.9259 4.52093C32.3827 4.64675 32.8633 4.7145 33.3582 4.7145H39.2299C39.2822 4.46286 39.306 4.20638 39.306 3.94023C39.306 1.85453 37.6454 0.165649 35.5946 0.165649Z" fill="url(#paint0_linear_515:700)"/>
</g>
<defs>
<linearGradient id="paint0_linear_515:700" x1="27.9775" y1="2.44007" x2="39.306" y2="2.44007" gradientUnits="userSpaceOnUse">
<stop offset="0.3" stop-color="#00B4E6"/>
<stop offset="1" stop-color="#088CCB"/>
</linearGradient>
<clipPath id="clip0_515:700">
<rect width="38.4946" height="11.0818" fill="white" transform="translate(0.810547 0.165649)"/>
</clipPath>
</defs>
</svg>
