<svg width="12" height="10" viewBox="0 0 12 10" fill="none" xmlns="http://www.w3.org/2000/svg">
<path fill-rule="evenodd" clip-rule="evenodd" d="M11.25 10C11.25 10 12 10 12 9.16669C12 8.33335 11.25 5.83335 8.25 5.83335C5.25 5.83335 4.5 8.33335 4.5 9.16669C4.5 10 5.25 10 5.25 10H11.25ZM5.25375 9.21336V9.21169V9.21336ZM5.2665 9.16669H11.2335C11.237 9.16623 11.2405 9.16568 11.244 9.16502L11.25 9.16336C11.2485 8.94336 11.1248 8.30502 10.68 7.73002C10.266 7.19085 9.5385 6.66668 8.25 6.66668C6.96225 6.66668 6.23475 7.19168 5.82 7.73002C5.37525 8.30502 5.25075 8.94419 5.25 9.16336C5.25549 9.16453 5.26099 9.16564 5.2665 9.16669ZM11.2463 9.21336V9.21169V9.21336ZM8.25 4.16668C8.64782 4.16668 9.02936 3.99108 9.31066 3.67852C9.59196 3.36596 9.75 2.94203 9.75 2.50001C9.75 2.05798 9.59196 1.63405 9.31066 1.32149C9.02936 1.00893 8.64782 0.833335 8.25 0.833335C7.85218 0.833335 7.47064 1.00893 7.18934 1.32149C6.90804 1.63405 6.75 2.05798 6.75 2.50001C6.75 2.94203 6.90804 3.36596 7.18934 3.67852C7.47064 3.99108 7.85218 4.16668 8.25 4.16668ZM10.5 2.50001C10.5 2.82831 10.4418 3.1534 10.3287 3.45672C10.2157 3.76003 10.0499 4.03563 9.84099 4.26778C9.63206 4.49992 9.38402 4.68407 9.11104 4.80971C8.83806 4.93535 8.54547 5.00001 8.25 5.00001C7.95453 5.00001 7.66194 4.93535 7.38896 4.80971C7.11598 4.68407 6.86794 4.49992 6.65901 4.26778C6.45008 4.03563 6.28434 3.76003 6.17127 3.45672C6.0582 3.1534 6 2.82831 6 2.50001C6 1.83696 6.23705 1.20108 6.65901 0.732235C7.08097 0.263393 7.65326 0 8.25 0C8.84674 0 9.41903 0.263393 9.84099 0.732235C10.2629 1.20108 10.5 1.83696 10.5 2.50001ZM5.202 6.06668C4.90199 5.96171 4.59273 5.89271 4.2795 5.86085C4.1035 5.84225 3.92679 5.83307 3.75 5.83335C0.75 5.83335 0 8.33335 0 9.16669C0 9.72252 0.24975 10 0.75 10H3.912C3.80082 9.73987 3.74537 9.45464 3.75 9.16669C3.75 8.32502 4.03275 7.46502 4.5675 6.74668C4.74975 6.50168 4.962 6.27252 5.202 6.06668ZM3.69 6.66668C2.439 6.68335 1.72875 7.20002 1.32 7.73002C0.87225 8.30835 0.75 8.94919 0.75 9.16669H3C3 8.29585 3.24225 7.42835 3.69 6.66668ZM1.125 2.91667C1.125 2.25363 1.36205 1.61774 1.78401 1.1489C2.20597 0.680061 2.77826 0.416668 3.375 0.416668C3.97174 0.416668 4.54403 0.680061 4.96599 1.1489C5.38795 1.61774 5.625 2.25363 5.625 2.91667C5.625 3.57972 5.38795 4.2156 4.96599 4.68445C4.54403 5.15329 3.97174 5.41668 3.375 5.41668C2.77826 5.41668 2.20597 5.15329 1.78401 4.68445C1.36205 4.2156 1.125 3.57972 1.125 2.91667ZM3.375 1.25C2.97718 1.25 2.59564 1.4256 2.31434 1.73816C2.03304 2.05072 1.875 2.47465 1.875 2.91667C1.875 3.3587 2.03304 3.78263 2.31434 4.09519C2.59564 4.40775 2.97718 4.58334 3.375 4.58334C3.77282 4.58334 4.15436 4.40775 4.43566 4.09519C4.71696 3.78263 4.875 3.3587 4.875 2.91667C4.875 2.47465 4.71696 2.05072 4.43566 1.73816C4.15436 1.4256 3.77282 1.25 3.375 1.25Z" fill="#BF4342"/>
</svg>
