<svg width="20" height="20" viewBox="0 0 20 20" fill="none" xmlns="http://www.w3.org/2000/svg">
<path d="M18.2143 8.20303H12.1429C11.9456 8.20303 11.7857 8.04334 11.7857 7.84638V1.78327C11.7857 0.798465 10.9862 0 10 0C9.01385 0 8.21429 0.798465 8.21429 1.78327V7.84638C8.21429 8.04334 8.05437 8.20303 7.85714 8.20303H1.78571C0.799561 8.20303 0 9.0015 0 9.9863C0 10.9711 0.799561 11.7696 1.78571 11.7696H7.85714C8.05437 11.7696 8.21429 11.9293 8.21429 12.1262V18.1893C8.21429 19.1741 9.01385 19.9726 10 19.9726C10.9862 19.9726 11.7857 19.1741 11.7857 18.1893V12.1262C11.7857 11.9293 11.9456 11.7696 12.1429 11.7696H18.2143C19.2004 11.7696 20 10.9711 20 9.9863C20 9.0015 19.2004 8.20303 18.2143 8.20303Z" fill="#292929"/>
</svg>
