<svg width="37" height="50" viewBox="0 0 37 50" fill="none" xmlns="http://www.w3.org/2000/svg">
<path d="M18.4702 0C8.28553 0 0 8.28553 0 18.4702C0 21.8231 1.50369 25.4292 1.56671 25.5813C2.05237 26.734 3.01065 28.5246 3.70165 29.5741L16.3657 48.7625C16.884 49.5491 17.651 50 18.4702 50C19.2894 50 20.0565 49.5491 20.5747 48.7636L33.2399 29.5741C33.932 28.5246 34.8892 26.734 35.3748 25.5813C35.4378 25.4302 36.9405 21.8242 36.9405 18.4702C36.9405 8.28553 28.6549 0 18.4702 0ZM33.3714 24.7382C32.9379 25.7714 32.0458 27.437 31.4255 28.3779L18.7603 47.5674C18.5104 47.9465 18.4311 47.9465 18.1812 47.5674L5.51608 28.3779C4.8957 27.437 4.00369 25.7703 3.57019 24.7371C3.55172 24.6925 2.17297 21.3733 2.17297 18.4702C2.17297 9.48392 9.48392 2.17297 18.4702 2.17297C27.4565 2.17297 34.7675 9.48392 34.7675 18.4702C34.7675 21.3777 33.3855 24.7056 33.3714 24.7382Z" fill="#292929"/>
<path d="M18.4698 8.69287C13.0775 8.69287 8.69141 13.0801 8.69141 18.4712C8.69141 23.8624 13.0775 28.2496 18.4698 28.2496C23.862 28.2496 28.2481 23.8624 28.2481 18.4712C28.2481 13.0801 23.862 8.69287 18.4698 8.69287ZM18.4698 26.0766C14.277 26.0766 10.8644 22.6651 10.8644 18.4712C10.8644 14.2774 14.277 10.8658 18.4698 10.8658C22.6625 10.8658 26.0751 14.2774 26.0751 18.4712C26.0751 22.6651 22.6625 26.0766 18.4698 26.0766Z" fill="#292929"/>
</svg>
