<svg width="60" height="60" viewBox="0 0 60 60" fill="none" xmlns="http://www.w3.org/2000/svg">
<path d="M59.5167 21.027C58.8049 15.4752 56.812 10.4217 53.3244 6.72058C49.6232 3.23295 44.5697 1.24002 39.018 0.52826C33.6798 -0.183501 30.0498 0.0300274 30.0498 0.0300274C30.0498 0.0300274 26.4198 -0.112325 21.0816 0.52826C15.5299 1.24002 10.4764 3.23295 6.77521 6.72058C3.28758 10.4217 1.29465 15.4752 0.582886 21.027C-0.128875 26.3652 0.0134771 29.9952 0.0134771 29.9952C0.0134771 29.9952 -0.128875 33.6251 0.51171 38.9634C1.22347 44.5144 3.2164 49.5686 6.70403 53.2698C10.4052 56.7574 15.4587 58.7496 21.0104 59.4614C26.3486 60.1731 29.9786 59.9603 29.9786 59.9603C29.9786 59.9603 33.6086 60.1019 38.9468 59.4614C44.4985 58.7496 49.552 56.7574 53.2532 53.2698C56.7408 49.5693 58.7338 44.5144 59.4455 38.9634C60.1573 33.6251 59.9438 29.9952 59.9438 29.9952C59.9438 29.9952 60.2285 26.3652 59.5167 21.027Z" fill="#1E4BC6"/>
<path d="M11.0459 21.2406H16.4553C17.3094 21.2406 18.0212 21.383 18.7329 21.6677C19.4447 21.9524 20.0141 22.3794 20.5123 22.8777C21.0106 23.3759 21.4376 23.9453 21.7223 24.6571C22.007 25.3688 22.1494 26.0806 22.1494 26.8635C22.1494 27.6465 22.007 28.3582 21.7223 29.07C21.4376 29.7817 21.0106 30.3519 20.5123 30.8494C20.0141 31.3469 19.3735 31.7754 18.7329 32.0587C18.0923 32.3434 17.3094 32.4871 16.4553 32.4871H14.0353V36.9705H11.1171V21.2406H11.0459ZM13.9641 23.946V29.7113H16.2418C16.6688 29.7113 17.0959 29.6401 17.4517 29.4977C17.8076 29.3554 18.0923 29.1419 18.377 28.8572C18.6617 28.5725 18.8041 28.2877 18.9464 27.9319C19.0888 27.576 19.16 27.2201 19.16 26.793C19.16 26.366 19.0888 26.0101 18.9464 25.6542C18.8041 25.2984 18.5906 25.0136 18.377 24.7289C18.0923 24.4442 17.8076 24.2307 17.4517 24.0884C17.0959 23.946 16.6688 23.8748 16.2418 23.8748H13.9641V23.946ZM28.9111 36.9705C28.1282 36.9705 27.4164 36.8289 26.6335 36.5435C25.9217 36.2588 25.2099 35.8317 24.6405 35.3342C24.0711 34.7641 23.5729 34.1235 23.217 33.3405C22.8611 32.5576 22.6476 31.6323 22.6476 30.6358C22.6476 29.6394 22.79 28.7141 23.1458 27.9312C23.5017 27.1482 23.9999 26.5076 24.5694 25.9382C25.1388 25.3688 25.8505 25.0129 26.5623 24.7282C27.3452 24.4435 28.057 24.3012 28.9111 24.3012C29.7652 24.3012 30.5482 24.4435 31.1887 24.7282C31.9005 25.0129 32.4699 25.44 32.9681 25.9382V24.3012H35.8864V36.9698H32.9681V35.1904C32.5411 35.7605 31.9005 36.1869 31.1887 36.5428C30.477 36.8289 29.7652 36.9705 28.9111 36.9705ZM29.4093 34.3377C29.9787 34.3377 30.477 34.2665 30.904 34.053C31.3311 33.8395 31.7581 33.626 32.114 33.2701C32.4699 32.9142 32.6834 32.5583 32.897 32.1313C33.1105 31.7028 33.1817 31.2053 33.1817 30.7077C33.1817 30.2088 33.1105 29.7106 32.897 29.2842C32.6834 28.8572 32.4699 28.4301 32.114 28.1454C31.7581 27.7895 31.4023 27.576 30.904 27.3625C30.4058 27.0778 29.9076 27.0066 29.4093 27.0066C28.9111 27.0066 28.4129 27.0778 27.9146 27.2913C27.4164 27.5048 27.0605 27.7183 26.7046 28.0742C26.3488 28.4301 26.0641 28.786 25.9217 29.213C25.7082 29.6401 25.637 30.1383 25.637 30.6366C25.637 31.1348 25.7082 31.6323 25.9217 32.0594C26.1352 32.4878 26.4199 32.9142 26.7046 33.2701C27.0605 33.626 27.4876 33.8388 27.9146 34.053C28.3417 34.1947 28.8399 34.3377 29.4093 34.3377ZM39.9434 24.3723L43.5022 32.9847L46.7763 24.3723H49.8369L42.3634 42.7358H39.374L42.0075 36.4018L36.8828 24.3723H39.9434Z" fill="white"/>
</svg>
