<svg width="14" height="14" viewBox="0 0 14 14" fill="none" xmlns="http://www.w3.org/2000/svg">
<path d="M13.8289 13.005L9.84773 9.02377C10.6189 8.0712 11.0832 6.86079 11.0832 5.54248C11.0832 2.48701 8.59706 0.000854492 5.54159 0.000854492C2.48612 0.000854492 0 2.48698 0 5.54245C0 8.59792 2.48615 11.0841 5.54162 11.0841C6.85993 11.0841 8.07035 10.6198 9.02291 9.84859L13.0041 13.8298C13.1179 13.9435 13.2672 14.0007 13.4165 14.0007C13.5659 14.0007 13.7152 13.9435 13.829 13.8298C14.057 13.6017 14.057 13.2331 13.8289 13.005ZM5.54162 9.91741C3.12897 9.91741 1.16666 7.9551 1.16666 5.54245C1.16666 3.1298 3.12897 1.16749 5.54162 1.16749C7.95427 1.16749 9.91658 3.1298 9.91658 5.54245C9.91658 7.9551 7.95425 9.91741 5.54162 9.91741Z" fill="white"/>
</svg>
