<svg width="11" height="10" viewBox="0 0 11 10" fill="none" xmlns="http://www.w3.org/2000/svg">
<path fill-rule="evenodd" clip-rule="evenodd" d="M2.05669 0.685599V3.82976L6.85589 8.62895L10 5.48479L5.20085 0.685599H2.05669ZM1.37109 0.685599C1.37109 0.503767 1.44333 0.329382 1.5719 0.200807C1.70048 0.0722325 1.87486 0 2.05669 0H5.20085C5.38267 3.88305e-05 5.55702 0.0722968 5.68557 0.20088L10.4848 5.00007C10.6133 5.12864 10.6855 5.303 10.6855 5.48479C10.6855 5.66659 10.6133 5.84094 10.4848 5.96951L7.3406 9.11367C7.21204 9.2422 7.03768 9.3144 6.85589 9.3144C6.67409 9.3144 6.49974 9.2422 6.37117 9.11367L1.57197 4.31447C1.44339 4.18593 1.37113 4.01157 1.37109 3.82976V0.685599Z" fill="#BF4342"/>
<path fill-rule="evenodd" clip-rule="evenodd" d="M3.77059 2.74241C3.8615 2.74241 3.94869 2.7063 4.01298 2.64201C4.07727 2.57772 4.11339 2.49053 4.11339 2.39961C4.11339 2.3087 4.07727 2.22151 4.01298 2.15722C3.94869 2.09293 3.8615 2.05681 3.77059 2.05681C3.67967 2.05681 3.59248 2.09293 3.52819 2.15722C3.4639 2.22151 3.42779 2.3087 3.42779 2.39961C3.42779 2.49053 3.4639 2.57772 3.52819 2.64201C3.59248 2.7063 3.67967 2.74241 3.77059 2.74241ZM3.77059 3.42801C4.04333 3.42801 4.30491 3.31966 4.49777 3.1268C4.69064 2.93394 4.79898 2.67236 4.79898 2.39961C4.79898 2.12687 4.69064 1.86529 4.49777 1.67243C4.30491 1.47956 4.04333 1.37122 3.77059 1.37122C3.49784 1.37122 3.23626 1.47956 3.0434 1.67243C2.85054 1.86529 2.74219 2.12687 2.74219 2.39961C2.74219 2.67236 2.85054 2.93394 3.0434 3.1268C3.23626 3.31966 3.49784 3.42801 3.77059 3.42801Z" fill="#BF4342"/>
<path d="M0.685599 4.1725C0.685638 4.35432 0.757896 4.52868 0.886479 4.65722L5.99899 9.76973L5.96951 9.79921C5.84094 9.92774 5.66659 9.99995 5.48479 9.99995C5.303 9.99995 5.12864 9.92774 5.00007 9.79921L0.200881 5.00002C0.0722969 4.87148 3.88305e-05 4.69712 0 4.5153L0 1.37115C0 1.18931 0.0722326 1.01493 0.200807 0.886354C0.329382 0.757779 0.503767 0.685547 0.685599 0.685547V4.1725Z" fill="#BF4342"/>
</svg>
