<svg width="10" height="10" viewBox="0 0 10 10" fill="none" xmlns="http://www.w3.org/2000/svg">
<path fill-rule="evenodd" clip-rule="evenodd" d="M5 9.375C6.16032 9.375 7.27312 8.91406 8.09359 8.09359C8.91406 7.27312 9.375 6.16032 9.375 5C9.375 3.83968 8.91406 2.72688 8.09359 1.90641C7.27312 1.08594 6.16032 0.625 5 0.625C3.83968 0.625 2.72688 1.08594 1.90641 1.90641C1.08594 2.72688 0.625 3.83968 0.625 5C0.625 6.16032 1.08594 7.27312 1.90641 8.09359C2.72688 8.91406 3.83968 9.375 5 9.375ZM10 5C10 6.32608 9.47322 7.59785 8.53553 8.53553C7.59785 9.47322 6.32608 10 5 10C3.67392 10 2.40215 9.47322 1.46447 8.53553C0.526784 7.59785 0 6.32608 0 5C0 3.67392 0.526784 2.40215 1.46447 1.46447C2.40215 0.526784 3.67392 0 5 0C6.32608 0 7.59785 0.526784 8.53553 1.46447C9.47322 2.40215 10 3.67392 10 5Z" fill="#BF4342"/>
<path fill-rule="evenodd" clip-rule="evenodd" d="M4.6875 1.875C4.77038 1.875 4.84987 1.90792 4.90847 1.96653C4.96708 2.02513 5 2.10462 5 2.1875V5.44375L7.03 6.60375C7.09987 6.6459 7.15048 6.71371 7.17102 6.79268C7.19156 6.87165 7.18039 6.95553 7.1399 7.02637C7.09942 7.09722 7.03283 7.14943 6.95437 7.17183C6.8759 7.19423 6.79179 7.18505 6.72 7.14625L4.5325 5.89625C4.48467 5.86893 4.44491 5.82945 4.41725 5.78182C4.38959 5.73418 4.37502 5.68008 4.375 5.625V2.1875C4.375 2.10462 4.40792 2.02513 4.46653 1.96653C4.52513 1.90792 4.60462 1.875 4.6875 1.875Z" fill="#BF4342"/>
</svg>
