<svg width="42" height="14" viewBox="0 0 42 14" fill="none" xmlns="http://www.w3.org/2000/svg">
<g clip-path="url(#clip0_515:688)">
<path d="M26.9135 0.141357C23.6662 0.141357 21.3852 1.86805 21.3651 4.33704C21.3445 6.16612 22.9963 7.186 24.2387 7.79391C25.5204 8.41537 25.9485 8.81474 25.9443 9.37073C25.9316 10.2229 24.9187 10.6112 23.9775 10.6112C22.6653 10.6112 21.9658 10.4195 20.8905 9.94655L20.4642 9.74386L20.0049 12.5895C20.7727 12.9436 22.1904 13.2504 23.6642 13.2665C27.1101 13.2665 29.3521 11.5596 29.3788 8.9241C29.3923 7.4734 28.5156 6.37547 26.6199 5.46896C25.4755 4.87958 24.7679 4.48877 24.7784 3.89157C24.7793 3.36388 25.3722 2.79835 26.6592 2.79835C27.7341 2.78025 28.5072 3.02703 29.1159 3.28696L29.4086 3.43306L29.8552 0.676483C29.2066 0.420215 28.183 0.14143 26.9133 0.14143L26.9135 0.141357ZM16.7196 0.363132L14.6658 13.0785H17.9472L20.0022 0.362987H16.72L16.7196 0.363132ZM11.9122 0.375469L8.699 9.04139L8.35645 7.28052C7.55626 5.12128 5.82399 2.85633 3.80664 1.93839L6.74594 13.0663L10.2206 13.0647L15.3878 0.375565H11.9122V0.375469ZM35.7384 0.376292C34.9522 0.376292 34.363 0.600441 34.016 1.43167L29.1432 13.0827H32.5908C32.5908 13.0827 33.1545 11.5144 33.282 11.1711C33.6582 11.1711 37.0067 11.1783 37.4844 11.1783C37.586 11.6217 37.8841 13.0825 37.8841 13.0825H40.9325L38.2745 0.376299H35.7385L35.7384 0.376292ZM35.9704 3.80434L36.1891 4.90052C36.1891 4.90052 36.8199 7.9344 36.9515 8.56982H34.2265C34.4991 7.84019 35.5341 5.01564 35.5341 5.01564C35.514 5.05019 35.8034 4.28017 35.9703 3.8043L35.9704 3.80434Z" fill="#004CA8"/>
<path d="M5.71964 0.368803H0.425372L0.394531 0.587609C4.51073 1.64054 7.22634 4.22621 8.35707 7.28385L7.20651 1.43981C7.00874 0.636105 6.43267 0.397157 5.71963 0.368774" fill="#FFA600"/>
</g>
<defs>
<clipPath id="clip0_515:688">
<rect width="40.8276" height="13.4148" fill="white" transform="translate(0.248047 -0.000976562)"/>
</clipPath>
</defs>
</svg>
