<svg width="22" height="13" viewBox="0 0 22 13" fill="none" xmlns="http://www.w3.org/2000/svg">
<path d="M21.4956 0.880356C21.6493 0.372459 21.4956 0 20.7688 0H18.3611C17.7485 0 17.4685 0.322215 17.3148 0.676105C17.3148 0.676105 16.0907 3.64594 14.356 5.57158C13.7961 6.13191 13.5403 6.30886 13.2351 6.30886C13.0825 6.30886 12.8607 6.13191 12.8607 5.62401V0.880356C12.8607 0.270879 12.6839 0 12.1734 0H8.39007C8.00801 0 7.77745 0.281802 7.77745 0.550496C7.77745 1.12721 8.64478 1.26046 8.73371 2.88573V6.41153C8.73371 7.18375 8.59428 7.32465 8.28687 7.32465C7.47114 7.32465 5.48615 4.34389 4.30812 0.931692C4.07866 0.268694 3.84701 0.00109269 3.23219 0.00109269H0.825613C0.137236 0.00109269 0 0.323307 0 0.677197C0 1.31289 0.815732 4.45858 3.7998 8.61897C5.78917 11.4599 8.58989 13 11.1414 13C12.6707 13 12.8596 12.6581 12.8596 12.0683V9.92094C12.8596 9.23719 13.0056 9.09956 13.4898 9.09956C13.8455 9.09956 14.4581 9.27869 15.8865 10.6473C17.5179 12.2704 17.788 12.9989 18.7047 12.9989H21.1113C21.7986 12.9989 22.1422 12.657 21.9446 11.982C21.7283 11.3103 20.9488 10.3327 19.9146 9.17602C19.3525 8.5163 18.5126 7.80633 18.2568 7.45135C17.9 6.9937 18.0032 6.79163 18.2568 6.38531C18.2579 6.38641 21.1904 2.27735 21.4956 0.880356Z" fill="white"/>
</svg>
