<svg width="60" height="60" viewBox="0 0 60 60" fill="none" xmlns="http://www.w3.org/2000/svg">
<path d="M29.9994 59.9389C46.5342 59.9389 59.9383 46.5348 59.9383 30C59.9383 13.4653 46.5342 0.0611572 29.9994 0.0611572C13.4646 0.0611572 0.0605469 13.4653 0.0605469 30C0.0605469 46.5348 13.4646 59.9389 29.9994 59.9389Z" fill="#FC3F1D"/>
<path d="M40.8326 48.7945H34.2604V16.289H31.3326C25.966 16.289 23.1549 18.9723 23.1549 22.9778C23.1549 27.5223 25.0938 29.6278 29.1049 32.3112L32.4104 34.539L22.9104 48.789H15.8438L24.3938 36.0667C19.4771 32.5556 16.7104 29.1278 16.7104 23.3445C16.7104 16.1167 21.7493 11.2001 31.2882 11.2001H40.7882V48.7834H40.8326V48.7945Z" fill="white"/>
</svg>
