<?xml version="1.0" standalone="no"?>
<!DOCTYPE svg PUBLIC "-//W3C//DTD SVG 1.1//EN" "http://www.w3.org/Graphics/SVG/1.1/DTD/svg11.dtd" >
<svg>
<metadata>
Created by FontForge 20090914 at Tue Jul 27 13:37:24 2021
 By www-data
Copyright &#194;&#169; 2014 ParaType Inc., ParaType Ltd. All rights reserved.
</metadata>
<defs>
<font id="DIN2014-DemiBold" horiz-adv-x="519" >
  <font-face 
    font-family="DIN 2014"
    font-weight="600"
    font-stretch="normal"
    units-per-em="1000"
    panose-1="2 11 6 4 2 2 2 2 2 4"
    ascent="779"
    descent="-221"
    x-height="500"
    cap-height="690"
    bbox="-360 -273.001 3054 1007"
    underline-thickness="50"
    underline-position="-200"
    unicode-range="U+0020-U+1F4F1"
  />
<missing-glyph horiz-adv-x="250" 
 />
    <glyph glyph-name="afii10017.var.accented" unicode="&#x410;`" horiz-adv-x="595" 
d="M173 143l-47 -143h-124l240 690h110l240 -690h-123l-47 143h-249zM389 243l-92 279l-92 -279h184zM352 744h-103l80 129h126z" />
    <glyph glyph-name="afii10022.var.accented" unicode="&#x415;`" horiz-adv-x="533" 
d="M76 0v690h423v-101h-307v-182h277v-100h-277v-207h307v-100h-423zM324 744h-103l80 129h126z" />
    <glyph glyph-name="afii10026.var.accented" unicode="&#x418;`" horiz-adv-x="667" 
d="M76 0v690h116v-471l305 471h95v-690h-116v466l-304 -466h-96zM374 744h-103l80 129h126z" />
    <glyph glyph-name="afii10032.var.accented" unicode="&#x41e;`" horiz-adv-x="613" 
d="M565 389v-88c0 -102.667 -22.667 -180 -68 -232s-109 -78 -191 -78s-145.5 26 -190.5 78s-67.5 129.333 -67.5 232v88c0 102.667 22.5 180 67.5 232s108.5 78 190.5 78s145.667 -26 191 -78s68 -129.333 68 -232zM164 389v-88c0 -72 11.667 -124.833 35 -158.5
s59 -50.5 107 -50.5s83.833 16.833 107.5 50.5s35.5 86.5 35.5 158.5v88c0 72 -11.833 124.833 -35.5 158.5s-59.5 50.5 -107.5 50.5s-83.667 -16.833 -107 -50.5s-35 -86.5 -35 -158.5zM336 744h-103l80 129h126z" />
    <glyph glyph-name="afii10037.var.accented" unicode="&#x423;`" horiz-adv-x="580" 
d="M309 308l145.001 381.999h120l-222 -561c-21.333 -53.333 -48 -89.666 -80 -108.999c-32.667 -19.333 -81.334 -29 -146.001 -29v103c38 0 65.667 4 83 12c18 9.33301 32.333 27.333 43 54l-236 530h127zM347.001 743.999h-103l80 129h126z" />
    <glyph glyph-name="afii10045.var.accented" unicode="&#x42b;`" horiz-adv-x="798" 
d="M76 0v690h116v-262h105c84.667 0 147.334 -20.333 188.001 -61c41.333 -41.333 62 -92.333 62 -153c0 -61.333 -21 -112.333 -63 -153c-40.667 -40.667 -105.334 -61 -194.001 -61h-214zM607 690h116v-690h-116v690zM293 328h-101v-228h101
c45.333 0 79.666 10 102.999 30s35 48 35 84s-11.667 64 -35 84s-57.666 30 -102.999 30zM428 744h-103l80 129h126z" />
    <glyph glyph-name="afii10047.var.accented" unicode="&#x42d;`" horiz-adv-x="587" 
d="M422 297h-231v100h231c-0.666992 134 -48 201 -142 201c-74.667 0 -120.667 -40.667 -138 -122h-112c10.667 73.333 37.5 128.833 80.5 166.5s99.5 56.5 169.5 56.5c82 0 145.5 -26 190.5 -78s67.5 -129.333 67.5 -232v-88c0 -102.667 -22.5 -180 -67.5 -232
s-108.5 -78 -190.5 -78c-145.333 0 -228.333 74.333 -249 223h111c9.33301 -42 25 -72.833 47 -92.5s52.333 -29.5 91 -29.5c94 0 141.333 68.333 142 205zM320 744h-103l80 129h126z" />
    <glyph glyph-name="afii10048.var.accented" unicode="&#x42e;`" horiz-adv-x="818" 
d="M770 384v-78c0 -210 -80.333 -315 -241 -315c-161.333 0 -242 105.333 -242 316h-95v-307h-116v690h116v-283h95c6 194.667 86.667 292 242 292c160.667 0 241 -105 241 -315zM403 380v-70c0 -76.667 9.83301 -132.167 29.5 -166.5s51.834 -51.5 96.501 -51.5
c44 0 75.833 17.167 95.5 51.5s29.5 89.833 29.5 166.5v70c0 76 -9.83301 131.333 -29.5 166s-51.5 52 -95.5 52c-44.667 0 -76.834 -17.333 -96.501 -52s-29.5 -90 -29.5 -166zM371 744h-103l80 129h126z" />
    <glyph glyph-name="afii10049.var.accented" unicode="&#x42f;`" horiz-adv-x="610" 
d="M299 280l-155 -280h-128l168 294c-93.333 28 -140 91.667 -140 191c0 66.667 22.167 117.5 66.5 152.5s107.5 52.5 189.5 52.5h234v-690h-116v280h-119zM306 380l112 -0.000976562v209h-112c-51.333 0 -88.5 -8 -111.5 -24s-34.5 -42.667 -34.5 -80
s11.167 -64.166 33.5 -80.499s59.833 -24.5 112.5 -24.5zM357 743.999h-103l80 129h126z" />
    <glyph glyph-name="afii10023.var.accented" unicode="&#x401;`" horiz-adv-x="533" 
d="M76 0v690h423v-101h-307v-182h277v-100h-277v-207h307v-100h-423zM238 764h-108v105h108v-105zM445 764h-109v105h109v-105zM338 878h-103l80 129h126z" />
    <glyph glyph-name="afii10065.var.accented" unicode="&#x430;`" horiz-adv-x="488" 
d="M32 147c0 49.333 16.1689 86.334 48.502 111.001s78.166 37 137.499 37h108v42c0 31.333 -7 52.5 -21 63.5s-40 16.5 -78 16.5c-29.333 0 -51.333 -3 -66 -9s-27.667 -18 -39 -36l-77 54c18 29.333 41.667 50.5 71 63.5s68.666 19.5 117.999 19.5
c68.667 0 118.667 -13.167 150 -39.5s47 -70.833 47 -133.5v-336h-105v46c-12 -20 -26.833 -34.167 -44.5 -42.5s-41.5 -12.5 -71.5 -12.5c-56 0 -99.667 13.667 -131 41s-47 65.666 -47 114.999zM326.002 189.001v24h-100c-59.333 0 -89 -22 -89 -66
c0 -43.333 28.333 -65 85 -65c36.667 0 63.167 7.83301 79.5 23.5s24.5 43.5 24.5 83.5zM280.002 567.001h-101l70 158h122z" />
    <glyph glyph-name="afii10070.var.accented" unicode="&#x435;`" horiz-adv-x="487" 
d="M354 132l80.001 -56c-32.667 -56.667 -92.334 -85 -179.001 -85c-69.333 0 -123.166 20.333 -161.499 61s-57.5 95.667 -57.5 165v68c0 73.333 17.333 129 52 167s85 57 151 57c134.667 0 202 -76.667 202 -230v-55h-299v-2c0 -43.333 9 -77.333 27 -102
s45.333 -37 82 -37c27.333 0 48.666 3.83301 63.999 11.5s28.333 20.167 39 37.5zM239.001 416c-58.667 0 -90.667 -36.667 -96 -110h191c-4 73.333 -35.667 110 -95 110zM287.001 567h-101l70 158h122z" />
    <glyph glyph-name="afii10074.var.accented" unicode="&#x438;`" horiz-adv-x="534" 
d="M57 500h107v-312l216 312h96v-500h-106v321l-219 -321h-94v500zM311 567h-101l70 158h122z" />
    <glyph glyph-name="afii10080.var.accented" unicode="&#x43e;`" horiz-adv-x="497" 
d="M461 282v-63c0 -71.333 -18 -127.166 -54 -167.499s-88.667 -60.5 -158 -60.5c-68 0 -120.5 20.167 -157.5 60.5s-55.5 96.166 -55.5 167.499v63c0 73.333 18.5 129.5 55.5 168.5s89.5 58.5 157.5 58.5s120.333 -19.5 157 -58.5s55 -95.167 55 -168.5zM249 83
c35.333 0 61.833 12.333 79.5 37s26.5 58.667 26.5 102v58c0 90.667 -35.333 136 -106 136c-71.333 0 -107 -45.333 -107 -136v-58c0 -92.667 35.667 -139 107 -139zM287 567h-101l70 158h122z" />
    <glyph glyph-name="afii10085.var.accented" unicode="&#x443;`" horiz-adv-x="473" 
d="M196 -6l-191.001 506h113l127 -352l114 352h110l-176 -520c-14 -42.667 -29.333 -76.667 -46 -102c-31.333 -45.333 -89.333 -68 -174 -68v98c36.667 0 63.334 5.33301 80.001 16s31 34 43 70zM291.999 567h-101l70 158h122z" />
    <glyph glyph-name="afii10093.var.accented" unicode="&#x44b;`" horiz-adv-x="651" 
d="M57 0v500h107v-181h62c140 0 210 -52.667 210 -158c0 -51.333 -16.5 -91 -49.5 -119s-80.5 -42 -142.5 -42h-187zM487 0v500h106v-500h-106zM219 227h-55v-135h67c59.333 0 89 23.333 89 70c0 22 -8 38.333 -24 49s-41.667 16 -77 16zM354 567h-101l70 158h122z" />
    <glyph glyph-name="afii10095.var.accented" unicode="&#x44d;`" horiz-adv-x="454" 
d="M312 210h-175.001v87h175c-1.33301 38 -11.666 67.333 -30.999 88s-47 31 -83 31c-42.667 0 -74.334 -15 -95.001 -45l-81 57c40 54 97.667 81 173 81c72 0 127.167 -19.333 165.5 -58s57.5 -94 57.5 -166v-68c0 -70.667 -19.333 -126 -58 -166s-93.667 -60 -165 -60
c-84 0 -142 28.333 -174 85l79 56c18.667 -32.667 51.334 -49 98.001 -49c75.333 0 113.333 42.333 114 127zM252.999 567h-101l70 158h122z" />
    <glyph glyph-name="afii10096.var.accented" unicode="&#x44e;`" horiz-adv-x="679" 
d="M643 285l-0.00195312 -68c0 -70.667 -17 -126 -51 -166s-83.333 -60 -148 -60c-62 0 -110.5 19 -145.5 57s-52.833 91.667 -53.5 161h-81v-209h-107v500h107v-199h81c2.66699 67.333 21.334 118.833 56.001 154.5s82.334 53.5 143.001 53.5
c64 0 113.167 -19.333 147.5 -58s51.5 -94 51.5 -166zM443.998 83c62 0 93 46 93 138v60c0 90 -31 135 -93 135c-61.333 0 -92 -45 -92 -135v-60c0 -92 30.667 -138 92 -138zM316.998 567h-101l70 158h122z" />
    <glyph glyph-name="afii10097.var.accented" unicode="&#x44f;`" horiz-adv-x="500" 
d="M442 500l0.000976562 -500h-106v184h-82l-113 -184h-115l124 201c-68 24.667 -102 73.667 -102 147c0 46 16.667 82.833 50 110.5s82.666 41.5 147.999 41.5h196zM263.001 275h72.999v133h-82c-60 0 -90 -21.333 -90 -64c0 -24 7.83301 -41.5 23.5 -52.5
s40.834 -16.5 75.501 -16.5zM315 567h-101l70 158h122z" />
    <glyph glyph-name="afii10071.var.accented" unicode="&#x451;`" horiz-adv-x="487" 
d="M354 132l80.001 -56c-32.667 -56.667 -92.334 -85 -179.001 -85c-69.333 0 -123.166 20.333 -161.499 61s-57.5 95.667 -57.5 165v68c0 73.333 17.333 129 52 167s85 57 151 57c134.667 0 202 -76.667 202 -230v-55h-299v-2c0 -43.333 9 -77.333 27 -102
s45.333 -37 82 -37c27.333 0 48.666 3.83301 63.999 11.5s28.333 20.167 39 37.5zM239.001 416c-58.667 0 -90.667 -36.667 -96 -110h191c-4 73.333 -35.667 110 -95 110zM282.001 717h-101l70 158h122zM187.001 585h-109v105h109v-105zM393.001 585h-108v105h108v-105z" />
    <glyph glyph-name="fi" unicode="fi" horiz-adv-x="481" 
d="M17 408v91.999h64v31c0 58.667 12.167 99.834 36.5 123.501s66.5 35.5 126.5 35.5h31v-96h-23c-26 0 -43.333 -6 -52 -18s-13 -33.667 -13 -65v-11h244v-500h-106v408h-138v-408h-106v408h-64z" />
    <glyph glyph-name="fl" unicode="fl" horiz-adv-x="534" 
d="M325 157v436.999h-73c-26 0 -43.333 -6 -52 -18s-13 -33.667 -13 -65v-11h88v-92h-88v-408h-106v408h-64v92h64v31c0 58.667 12.167 99.834 36.5 123.501s66.5 35.5 126.5 35.5h188v-508c0 -31.333 5.33301 -53.833 16 -67.5s30.667 -20.5 60 -20.5v-94
c-66 -0 -113 11.833 -141 35.5s-42 64.167 -42 121.5z" />
    <glyph glyph-name=".notdef" horiz-adv-x="250" 
 />
    <glyph glyph-name="space" unicode=" " horiz-adv-x="250" 
 />
    <glyph glyph-name="exclam" unicode="!" horiz-adv-x="235" 
d="M63 690h109v-501h-109v501zM177 0h-119v118h119v-118z" />
    <glyph glyph-name="quotedbl" unicode="&#x22;" horiz-adv-x="344" 
d="M40 690h105v-177h-105v177zM200 690h104v-177h-104v177z" />
    <glyph glyph-name="numbersign" unicode="#" horiz-adv-x="611" 
d="M36 401v97h116l36 192h110l-36 -192h120l36 192h110l-36 -192h92v-97h-110l-20 -106h93v-97h-111l-37 -198h-109l36 198h-120l-36 -198h-111l37 198h-97v97h115l20 106h-98zM364 401h-120l-20 -106h120z" />
    <glyph glyph-name="dollar" unicode="$" horiz-adv-x="522" 
d="M498 583l-88 -63.001c-28.667 40 -61.667 64.333 -99 73v-202c69.333 -16.667 119.333 -40.167 150 -70.5s46 -73.833 46 -130.5c0 -52 -16.5 -95.833 -49.5 -131.5s-80.5 -57.167 -142.5 -64.5v-110h-97v110c-88 10 -155.667 47.667 -203 113l91 63
c33.333 -41.333 71.666 -66 114.999 -74l1 6v201c-126.667 32 -190 99.667 -190 203c0 52 15.833 94.833 47.5 128.5s77.834 54.167 138.501 61.5v116h97v-117c81.333 -11.333 142.333 -48.666 183 -111.999zM391 184.999c0 22.667 -6 41.333 -18 56s-32.667 27.667 -62 39
v-177v-7c53.333 11.333 80 41 80 89zM148 506.998c0 -42 24.667 -72.667 74 -92v179c-49.333 -11.333 -74 -40.333 -74 -87z" />
    <glyph glyph-name="percent" unicode="%" horiz-adv-x="744" 
d="M124 0l386 690h106l-385 -690h-107zM724 196v-52c0 -48.667 -12.5 -86.334 -37.5 -113.001s-62.167 -40 -111.5 -40c-46.667 0 -82.667 13.333 -108 40s-38 64.334 -38 113.001v52c0 48.667 12.833 86.167 38.5 112.5s61.5 39.5 107.5 39.5
c48 0 84.833 -13.167 110.5 -39.5s38.5 -63.833 38.5 -112.5zM576 66c42 0 63 26.333 63 79v49c0 52 -21 78 -63 78c-40.667 0 -61 -26 -61 -78v-49c0 -52.667 20.333 -79 61 -79zM319 547l-0.00195312 -52c0 -48.667 -12.5 -86.334 -37.5 -113.001s-62.167 -40 -111.5 -40
c-47.333 0 -83.666 13.333 -108.999 40s-38 64.334 -38 113.001v52c0 48.667 12.833 86.167 38.5 112.5s61.834 39.5 108.501 39.5c48 0 84.833 -13.167 110.5 -39.5s38.5 -63.833 38.5 -112.5zM169.998 417c42 0 63 26.333 63 79v49c0 52 -21 78 -63 78
c-40 0 -60 -26 -60 -78v-49c0 -52.667 20 -79 60 -79z" />
    <glyph glyph-name="ampersand" unicode="&#x26;" horiz-adv-x="660" 
d="M39 184c0 74 39.332 141.332 117.999 201.999c-45.333 55.333 -68 107.333 -68 156c0 47.333 16.667 85.333 50 114s77 43 131 43c58 0 102.333 -13.667 133 -41c30 -26.667 45 -58.667 45 -96c0 -36.667 -15.667 -70.667 -47 -102c-18 -18 -32.667 -31.333 -44 -40
l-55 -41l154 -170c14 33.333 21 71 21 113h108c0 -73.333 -18 -138.666 -54 -195.999l115 -126h-139l-46 50c-52.667 -39.333 -116.667 -59 -192 -59c-71.333 0 -127.666 19 -168.999 57c-40.667 38 -61 83.333 -61 136zM271.999 91.999c46.667 0 86.333 11.333 119 34
l-172 190c-45.333 -40 -68 -80 -68 -120c0 -32 11.167 -57.333 33.5 -76s51.5 -28 87.5 -28zM201.998 541.999c0 -26.667 14.001 -58.667 42.001 -96c34 23.333 58.333 43 73 59s22 32.667 22 50c0 15.333 -6.16699 28.333 -18.5 39s-28.833 16 -49.5 16
s-37.334 -6 -50.001 -18s-19 -28.667 -19 -50z" />
    <glyph glyph-name="quotesingle" unicode="'" horiz-adv-x="185" 
d="M40 690h105v-177h-105v177z" />
    <glyph glyph-name="parenleft" unicode="(" horiz-adv-x="317" 
d="M298 -33l-61 -83.002c-68 44.667 -113.667 87 -137 127c-22.667 39.333 -34 88.333 -34 147v380c0 58.667 11.333 107.334 34 146.001c23.333 39.333 69 82 137 128l61 -84c-50 -36.667 -83.333 -68.334 -100 -95.001c-17.333 -27.333 -26 -66.666 -26 -117.999v-334
c0 -51.333 8.66699 -90.666 26 -117.999c16.667 -26 50 -58 100 -96z" />
    <glyph glyph-name="parenright" unicode=")" horiz-adv-x="317" 
d="M87 -116l-60.999 83.001c50 38 83.333 70 100 96c17.333 27.333 26 66.666 26 117.999v334c0 51.333 -8.66699 90.666 -26 117.999c-16.667 26.667 -50 58.334 -100 95.001l61 84c67.333 -45.333 112.666 -88 135.999 -128c23.333 -39.333 35 -88 35 -146v-380
c0 -57.333 -11.667 -106.333 -35 -147c-24 -40.667 -69.333 -83 -136 -127z" />
    <glyph glyph-name="asterisk" unicode="*" horiz-adv-x="421" 
d="M166 690h83l-5 -110l93 59l42 -72l-96 -52l96 -51l-42 -71l-93 57l5 -109h-83l3 108l-92 -57l-42 72l97 51l-96 52l41 72l92 -58z" />
    <glyph glyph-name="plus" unicode="+" horiz-adv-x="522" 
d="M204 308h-147v92h147v149h93v-149h149v-92h-149v-148h-93v148z" />
    <glyph glyph-name="comma" unicode="," horiz-adv-x="238" 
d="M60 138h118v-190l-118 -101v291z" />
    <glyph glyph-name="hyphen" unicode="-" horiz-adv-x="319" 
d="M289 242h-259v94h259v-94z" />
    <glyph glyph-name="period" unicode="." horiz-adv-x="258" 
d="M60 138h138v-138h-138v138z" />
    <glyph glyph-name="slash" unicode="/" horiz-adv-x="485" 
d="M481 812l-336 -928h-98l336 928h98z" />
    <glyph glyph-name="zero" unicode="0" horiz-adv-x="522" 
d="M478 488v-286c0 -68 -21 -120.333 -63 -157c-40.667 -36 -92 -54 -154 -54c-61.333 0 -113 18 -155 54c-41.333 37.333 -62 89.666 -62 156.999v285c0 69.333 20.667 122 62 158s93 54 155 54s113.667 -18 155 -54c41.333 -35.333 62 -87.666 62 -156.999zM362 209v272
c0 36.667 -9 65.334 -27 86.001s-42.667 31 -74 31c-32 0 -57 -10.333 -75 -31s-27 -49.334 -27 -86.001v-272c0 -36.667 9 -65.334 27 -86.001s43 -31 75 -31c31.333 0 56 10.333 74 31s27 49.334 27 86.001z" />
    <glyph glyph-name="one" unicode="1" horiz-adv-x="522" 
d="M231 690h109v-690h-116v565l-99 -68v117z" />
    <glyph glyph-name="two" unicode="2" horiz-adv-x="522" 
d="M200 100l262 0.000976562v-100h-417v82l237 278c46.667 53.333 70 101.666 70 144.999c0 29.333 -9.16699 52.5 -27.5 69.5s-41.833 25.5 -70.5 25.5s-51.834 -8.5 -69.501 -25.5s-27.167 -40.167 -28.5 -69.5h-106c0 57.333 20 104 60 140s89.333 54 148 54
c60.667 0 110.334 -18.333 149.001 -55c40 -37.333 60 -84.333 60 -141c0 -42 -12.333 -81.667 -37 -119c-8.66699 -13.333 -19 -28 -31 -44l-36 -45z" />
    <glyph glyph-name="three" unicode="3" horiz-adv-x="522" 
d="M238 306l-48.001 0.00390625v100h48c36 0 63.5 9 82.5 27s28.5 43.333 28.5 76c0 26 -9.33301 47.667 -28 65s-42 26 -70 26c-27.333 0 -49.833 -8 -67.5 -24s-27.834 -36.333 -30.501 -61h-106c0.666992 54 21.334 98 62.001 132c40.667 34.667 89.334 52 146.001 52
c60.667 0 110.334 -18 149.001 -54c40 -36 60 -80.333 60 -133c0 -34.667 -8.66699 -65.334 -26 -92.001s-41.333 -47.334 -72 -62.001c72 -32 108 -87.667 108 -167c0 -56.667 -19 -104.334 -57 -143.001c-38 -38 -89.333 -57 -154 -57c-66.667 0 -120 17.167 -160 51.5
s-61.667 80.166 -65 137.499h106c4 -27.333 15.667 -48.833 35 -64.5s45.666 -23.5 78.999 -23.5c30 0 54.333 9.5 73 28.5s28 43.5 28 73.5c0 36 -10.333 63.667 -31 83s-50.667 29 -90 29z" />
    <glyph glyph-name="four" unicode="4" horiz-adv-x="522" 
d="M14 186l239 504h123l-221 -485h162v188h116v-188h63v-101h-63v-104h-116v104h-303v82z" />
    <glyph glyph-name="five" unicode="5" horiz-adv-x="522" 
d="M261 367c-36 0 -63.999 -17.001 -83.999 -51.001h-105v374h374v-109h-261v-146c26.667 26.667 62 40 106 40c58 0 102.833 -21.5 134.5 -64.5s47.5 -104.5 47.5 -184.5c0 -76 -17.833 -134.167 -53.5 -174.5s-87.834 -60.5 -156.501 -60.5
c-57.333 0 -105.333 16.333 -144 49s-60.667 76.334 -66 131.001h114c12.667 -52.667 44 -79 94 -79c64 0 96 43.333 96 130c0 96.667 -32 145 -96 145z" />
    <glyph glyph-name="six" unicode="6" horiz-adv-x="522" 
d="M240 690h125.999l-140 -293c16.667 8.66699 38.667 13 66 13c54 0 98.333 -19.333 133 -58c35.333 -39.333 53 -88 53 -146c0 -67.333 -20.333 -120 -61 -158c-40 -38 -92 -57 -156 -57c-63.333 0 -115.666 18.667 -156.999 56c-40.667 38 -61 90.333 -61 157
c0 38 18.667 98.333 56 181zM158.999 203c0 -34 8.99902 -61 26.999 -81s43 -30 75 -30c31.333 0 56 10 74 30s27 47 27 81s-9 61 -27 81s-42.667 30 -74 30s-56.166 -10 -74.499 -30s-27.5 -47 -27.5 -81z" />
    <glyph glyph-name="seven" unicode="7" horiz-adv-x="522" 
d="M162 589v-113h-100v214h406v-89l-207 -601h-121l208 589h-186z" />
    <glyph glyph-name="eight" unicode="8" horiz-adv-x="522" 
d="M38 193c0 36.667 10.002 70.167 30.002 100.5s44.667 51.833 74 64.5c-28 14 -50.667 34.667 -68 62s-26 57 -26 89c0 56.667 21 102.667 63 138c41.333 34.667 91.333 52 150 52c59.333 0 109.333 -17.333 150 -52c42 -35.333 63 -81.333 63 -138
c0 -32 -8.66699 -61.667 -26 -89s-40 -48 -68 -62c30 -12.667 54.833 -34.167 74.5 -64.5s29.5 -63.833 29.5 -100.5c0 -60.667 -21.667 -109.667 -65 -147c-42.667 -36.667 -95.334 -55 -158.001 -55s-115.334 18.333 -158.001 55c-43.333 37.333 -65 86.333 -65 147z
M154.002 200c0 -30.667 10.167 -56.501 30.5 -77.501s45.833 -31.5 76.5 -31.5c30 0 55.5 10.667 76.5 32s31.5 47 31.5 77c0 32 -11.333 58 -34 78c-22 20 -46.667 30 -74 30c-28.667 0 -53.667 -10.167 -75 -30.5s-32 -46.166 -32 -77.499zM359.002 500.999
c0 26.667 -9.5 49.5 -28.5 68.5s-42.167 28.5 -69.5 28.5s-50.5 -9.33301 -69.5 -28s-28.5 -41.667 -28.5 -69s9.5 -50.666 28.5 -69.999s42.167 -29 69.5 -29s50.5 9.66699 69.5 29s28.5 42.666 28.5 69.999z" />
    <glyph glyph-name="nine" unicode="9" horiz-adv-x="522" 
d="M283 0h-125.998l139 293c-17.333 -9.33301 -39.333 -14 -66 -14c-54.667 0 -99.334 19.333 -134.001 58s-52 87.667 -52 147c0 67.333 20.333 120 61 158s92.667 57 156 57s115.666 -18.667 156.999 -56c40.667 -36.667 61 -89 61 -157c0 -38 -18.667 -98.333 -56 -181z
M363.002 487c0 34 -9 61 -27 81s-43 30 -75 30c-31.333 0 -56 -10 -74 -30s-27 -47 -27 -81s9 -61 27 -81s42.667 -30 74 -30c32 0 57 10 75 30s27 47 27 81z" />
    <glyph glyph-name="colon" unicode=":" horiz-adv-x="233" 
d="M60 500h118v-119h-118v119zM60 118h118v-118h-118v118z" />
    <glyph glyph-name="semicolon" unicode=";" horiz-adv-x="233" 
d="M60 118h118v-182l-118 -102v284zM60 500h118v-119h-118v119z" />
    <glyph glyph-name="less" unicode="&#x3c;" horiz-adv-x="522" 
d="M411 580v-120l-208 -112l208 -111v-120l-325 183v97z" />
    <glyph glyph-name="equal" unicode="=" horiz-adv-x="522" 
d="M456 377h-389v99h389v-99zM456 206h-389v98h389v-98z" />
    <glyph glyph-name="greater" unicode="&#x3e;" horiz-adv-x="522" 
d="M108 237l208 111l-208 112v120l325 -183v-97l-325 -183v120z" />
    <glyph glyph-name="question" unicode="?" horiz-adv-x="486" 
d="M291 223l-0.000976562 -34h-102v72c0 36.667 11.333 65.334 34 86.001l47 43c26 24.667 44.167 45.667 54.5 63s15.5 36.666 15.5 57.999c0 26.667 -8.66699 48 -26 64s-39.333 24 -66 24c-27.333 0 -49.666 -7.66699 -66.999 -23s-26.333 -36 -27 -62h-111
c0 57.333 19.333 102.333 58 135c39.333 33.333 88.333 50 147 50c60 0 109.333 -17 148 -51c40 -33.333 60 -80 60 -140c0 -34 -8.5 -65.667 -25.5 -95s-42.5 -60 -76.5 -92l-31 -30c-21.333 -20 -32 -42.667 -32 -68zM298.999 0h-118v118h118v-118z" />
    <glyph glyph-name="at" unicode="@" horiz-adv-x="898" 
d="M525 484l106 -0.00292969v-250c0 -56 19 -84 57 -84c47.333 0 71 45 71 135c0 108.667 -32.333 188.334 -97 239.001c-58.667 46 -129.667 69 -213 69c-52.667 0 -99.5 -9.33301 -140.5 -28s-73.167 -43.5 -96.5 -74.5s-40.833 -64.667 -52.5 -101
s-17.5 -74.166 -17.5 -113.499c0 -101.333 29.667 -179.666 89 -234.999c59.333 -54 133.666 -81 222.999 -81c79.333 0 153 17 221 51l39 -76c-23.333 -18.667 -59 -34.5 -107 -47.5s-100.667 -19.5 -158 -19.5c-109.333 0 -204.333 34.333 -285 103
c-39.333 33.333 -70.5 76.666 -93.5 129.999s-34.5 111.666 -34.5 174.999c0 84 19.667 157.667 59 221c38.667 62 88.5 108.833 149.5 140.5s129.167 47.5 204.5 47.5c119.333 0 218.333 -36 297 -108c79.333 -71.333 119 -168.666 119 -291.999
c0 -71.333 -15.167 -127 -45.5 -167s-73.833 -60 -130.5 -60c-60.667 0 -103.334 22.333 -128.001 67c-20.667 -44.667 -64 -67 -130 -67c-53.333 0 -94.666 17 -123.999 51s-44 80.333 -44 139v52c0 60.667 14.833 107.334 44.5 140.001s70.834 49 123.501 49
c38 0 69.333 -9 94 -27v22zM446 149.997c28 0 48.167 7.83203 60.5 23.499s18.5 39.834 18.5 72.501v50c0 35.333 -6.33301 61 -19 77s-32.667 24 -60 24c-50.667 0 -76 -33.667 -76 -101v-41c0 -70 25.333 -105 76 -105z" />
    <glyph glyph-name="A" unicode="A" horiz-adv-x="595" 
d="M173 143l-47 -143h-124l240 690h110l240 -690h-123l-47 143h-249zM389 243l-92 279l-92 -279h184z" />
    <glyph glyph-name="B" unicode="B" horiz-adv-x="602" 
d="M76 0v689.998h222c163.333 0 245 -59.667 245 -179c0 -35.333 -9.16699 -66.333 -27.5 -93s-42.833 -45.667 -73.5 -57c82 -23.333 123 -77.666 123 -162.999c0 -57.333 -20 -104.666 -60 -141.999c-39.333 -37.333 -101 -56 -185 -56h-244zM299 307.998h-107.001v-208
h121c90.667 0 136 34.667 136 104c0 36 -12.167 62.333 -36.5 79s-62.166 25 -113.499 25zM289.999 589.998h-98v-182h113c81.333 0 122 32 122 96c0 30.667 -10.167 52.667 -30.5 66s-55.833 20 -106.5 20z" />
    <glyph glyph-name="C" unicode="C" horiz-adv-x="587" 
d="M557 476h-112.001c-17.333 81.333 -63.666 122 -138.999 122c-48 0 -83.667 -16.833 -107 -50.5s-35 -86.5 -35 -158.5v-88c0 -139.333 47.333 -209 142 -209c39.333 0 70 9.83301 92 29.5s37.667 50.5 47 92.5h111c-22 -148.667 -105.333 -223 -250 -223
c-82 0 -145.5 26 -190.5 78s-67.5 129.333 -67.5 232v88c0 102.667 22.5 180 67.5 232s108.5 78 190.5 78c70 0 126.5 -18.833 169.5 -56.5s70.167 -93.167 81.5 -166.5z" />
    <glyph glyph-name="D" unicode="D" horiz-adv-x="616" 
d="M309 0h-233v690h233c172.667 0 259 -101.333 259 -304v-82c0 -202.667 -86.333 -304 -259 -304zM192 100l117 -0.000976562c49.333 0 85.5 16.333 108.5 49s34.5 84.334 34.5 155.001v82c0 70.667 -11.5 122.167 -34.5 154.5s-59.167 48.5 -108.5 48.5h-117v-489z" />
    <glyph glyph-name="E" unicode="E" horiz-adv-x="533" 
d="M76 0v690h423v-101h-307v-182h277v-100h-277v-207h307v-100h-423z" />
    <glyph glyph-name="F" unicode="F" horiz-adv-x="525" 
d="M76 0v690h423v-101h-307v-198h277v-100h-277v-291h-116z" />
    <glyph glyph-name="G" unicode="G" horiz-adv-x="608" 
d="M309 253l-0.000976562 100.999h251v-53c0 -104 -21.833 -181.667 -65.5 -233s-106.5 -77 -188.5 -77s-145.5 26 -190.5 78s-67.5 129.333 -67.5 232v83c0 104.667 22.5 183.334 67.5 236.001s108.5 79 190.5 79c70 0 126.667 -19.167 170 -57.5s70.333 -93.5 81 -165.5
h-112c-17.333 81.333 -63.666 122 -138.999 122c-48 0 -83.667 -16.833 -107 -50.5s-35 -86.5 -35 -158.5v-88c0 -72 11.667 -124.833 35 -158.5s59 -50.5 107 -50.5c44 0 77.333 13.167 100 39.5s36 66.833 40 121.5h-137z" />
    <glyph glyph-name="H" unicode="H" horiz-adv-x="648" 
d="M76 690h116v-283h264v283h116v-690h-116v307h-264v-307h-116v690z" />
    <glyph glyph-name="I" unicode="I" horiz-adv-x="287" 
d="M86 690h116v-690h-116v690z" />
    <glyph glyph-name="J" unicode="J" horiz-adv-x="509" 
d="M-3 87l97 55c25.333 -33.333 59 -50 101 -50c42.667 0 73.667 13.833 93 41.5s29 74.167 29 139.5v417h116v-417c0 -188 -77.667 -282 -233 -282c-92 0 -159.667 32 -203 96z" />
    <glyph glyph-name="K" unicode="K" horiz-adv-x="642" 
d="M370 412l263 -412h-139l-200 315l-102 -131v-184h-116v690h116v-333l254 333h142z" />
    <glyph glyph-name="L" unicode="L" horiz-adv-x="503" 
d="M76 690h116v-590h307v-100h-423v690z" />
    <glyph glyph-name="M" unicode="M" horiz-adv-x="771" 
d="M76 690h110l199 -400l199 400h111v-690h-112v462l-158 -329h-82l-155 326v-459h-112v690z" />
    <glyph glyph-name="N" unicode="N" horiz-adv-x="648" 
d="M460 215v475h112v-690h-103l-281 469v-469h-112v690h100z" />
    <glyph glyph-name="O" unicode="O" horiz-adv-x="613" 
d="M565 389v-88c0 -102.667 -22.667 -180 -68 -232s-109 -78 -191 -78s-145.5 26 -190.5 78s-67.5 129.333 -67.5 232v88c0 102.667 22.5 180 67.5 232s108.5 78 190.5 78s145.667 -26 191 -78s68 -129.333 68 -232zM164 389v-88c0 -72 11.667 -124.833 35 -158.5
s59 -50.5 107 -50.5s83.833 16.833 107.5 50.5s35.5 86.5 35.5 158.5v88c0 72 -11.833 124.833 -35.5 158.5s-59.5 50.5 -107.5 50.5s-83.667 -16.833 -107 -50.5s-35 -86.5 -35 -158.5z" />
    <glyph glyph-name="P" unicode="P" horiz-adv-x="589" 
d="M311 252h-119v-252h-116v690h235c80.667 0 143.167 -18.833 187.5 -56.5s66.5 -91.5 66.5 -161.5s-22.333 -124.167 -67 -162.5s-107 -57.5 -187 -57.5zM192 589v-237h107c100 0 150 40 150 120c0 78 -50 117 -150 117h-107z" />
    <glyph glyph-name="Q" unicode="Q" horiz-adv-x="617" 
d="M565 389v-88c0 -73.333 -11.333 -133 -34 -179l93 -83l-65 -74l-88 78c-40.667 -34.667 -95.667 -52 -165 -52c-82 0 -145.5 26 -190.5 78s-67.5 129.333 -67.5 232v88c0 102.667 22.5 180 67.5 232s108.5 78 190.5 78s145.667 -26 191 -78s68 -129.333 68 -232zM164 389
v-88c0 -72 11.667 -124.833 35 -158.5s59 -50.5 107 -50.5c32.667 0 60 8 82 24l-88 79l67 75l72 -65c6.66699 24 10 56 10 96v88c0 72 -11.833 124.833 -35.5 158.5s-59.5 50.5 -107.5 50.5s-83.667 -16.833 -107 -50.5s-35 -86.5 -35 -158.5z" />
    <glyph glyph-name="R" unicode="R" horiz-adv-x="611" 
d="M440 299l147 -299h-128l-133 280h-134v-280h-116v690h235c81.333 0 144 -17.667 188 -53s66 -86.333 66 -153c0 -93.333 -41.667 -155 -125 -185zM192 589v-208.999h111c51.333 0 88.5 8 111.5 24s34.5 42.667 34.5 80s-11.5 64.166 -34.5 80.499
s-60.167 24.5 -111.5 24.5h-111z" />
    <glyph glyph-name="S" unicode="S" horiz-adv-x="573" 
d="M523 586l-88.002 -63c-19.333 26.667 -40.166 45.834 -62.499 57.501s-51.166 17.5 -86.499 17.5c-36 0 -63.833 -7.83301 -83.5 -23.5s-29.5 -37.834 -29.5 -66.501c0 -30.667 11.333 -54.167 34 -70.5s60.667 -30.5 114 -42.5c74.667 -16.667 128.5 -40.5 161.5 -71.5
s49.5 -75.833 49.5 -134.5c0 -56 -19.667 -103 -59 -141s-98 -57 -176 -57c-116 0 -202 37.667 -258 113l91 63c22.667 -26.667 46 -45.834 70 -57.501s54.333 -17.5 91 -17.5c83.333 0 125 30.667 125 92c0 29.333 -11.167 52.833 -33.5 70.5s-61.5 32.5 -117.5 44.5
c-138.667 28.667 -208 98.334 -208 209.001c0 58 19.667 104.333 59 139s96.333 52 171 52c108 0 186.667 -37.667 236 -113z" />
    <glyph glyph-name="T" unicode="T" horiz-adv-x="527" 
d="M7 589v101h513v-101h-198v-589h-116v589h-199z" />
    <glyph glyph-name="U" unicode="U" horiz-adv-x="668" 
d="M476 279v411h116v-410c0 -96 -22.5 -168.167 -67.5 -216.5s-108.5 -72.5 -190.5 -72.5s-145.5 24 -190.5 72s-67.5 120 -67.5 216v411h116v-411c0 -64.667 11.5 -112 34.5 -142s58.833 -45 107.5 -45s84.5 15 107.5 45s34.5 77.333 34.5 142z" />
    <glyph glyph-name="V" unicode="V" horiz-adv-x="608" 
d="M251 0l-245 690h127l170 -505l172 505h127l-245 -690h-106z" />
    <glyph glyph-name="W" unicode="W" horiz-adv-x="868" 
d="M584 0l-151 502l-150 -502h-112l-163 690h124l106 -493l141 493h107l144 -496l106 496h124l-163 -690h-113z" />
    <glyph glyph-name="X" unicode="X" horiz-adv-x="574" 
d="M287 251l-144 -251h-127l199 356l-178 334h127l123 -236l124 236h126l-179 -334l200 -356h-126z" />
    <glyph glyph-name="Y" unicode="Y" horiz-adv-x="571" 
d="M227 288l-215 402h135l138 -276l139 276h134l-215 -402v-288h-116v288z" />
    <glyph glyph-name="Z" unicode="Z" 
d="M30 589v101h453v-77l-305 -513h315v-100h-463v77l305 512h-305z" />
    <glyph glyph-name="bracketleft" unicode="[" horiz-adv-x="335" 
d="M294 -102h-224v894h224v-92h-118v-710h118v-92z" />
    <glyph glyph-name="backslash" unicode="\" horiz-adv-x="485" 
d="M371 -116l-336 928h98l336 -928h-98z" />
    <glyph glyph-name="bracketright" unicode="]" horiz-adv-x="335" 
d="M41 701v91h224v-894h-224v91h118v712h-118z" />
    <glyph glyph-name="asciicircum" unicode="^" horiz-adv-x="522" 
d="M35 437l174 253h103l176 -253h-120l-107 156l-103 -156h-123z" />
    <glyph glyph-name="underscore" unicode="_" horiz-adv-x="526" 
d="M0 -163v85h526v-85h-526z" />
    <glyph glyph-name="grave" unicode="`" horiz-adv-x="329" 
d="M68 725h122l70 -158h-101z" />
    <glyph glyph-name="a" unicode="a" horiz-adv-x="488" 
d="M32 147c0 49.333 16.1689 86.334 48.502 111.001s78.166 37 137.499 37h108v42c0 31.333 -7 52.5 -21 63.5s-40 16.5 -78 16.5c-29.333 0 -51.333 -3 -66 -9s-27.667 -18 -39 -36l-77 54c18 29.333 41.667 50.5 71 63.5s68.666 19.5 117.999 19.5
c68.667 0 118.667 -13.167 150 -39.5s47 -70.833 47 -133.5v-336h-105v46c-12 -20 -26.833 -34.167 -44.5 -42.5s-41.5 -12.5 -71.5 -12.5c-56 0 -99.667 13.667 -131 41s-47 65.666 -47 114.999zM326.002 189.001v24h-100c-59.333 0 -89 -22 -89 -66
c0 -43.333 28.333 -65 85 -65c36.667 0 63.167 7.83301 79.5 23.5s24.5 43.5 24.5 83.5z" />
    <glyph glyph-name="b" unicode="b" horiz-adv-x="515" 
d="M57 690l103 0.000976562v-229c26 32 66 48 120 48c62.667 0 111.5 -19.833 146.5 -59.5s52.5 -95.5 52.5 -167.5v-63c0 -70.667 -17.333 -126.334 -52 -167.001s-83.667 -61 -147 -61c-54.667 0 -94.667 15 -120 45v-36h-103v690zM266 83.001
c35.333 0 61.833 12.333 79.5 37s26.5 58.667 26.5 102v58c0 90.667 -35.333 136 -106 136c-34 0 -60 -11.167 -78 -33.5s-27.333 -54.5 -28 -96.5v-64c0 -92.667 35.333 -139 106 -139z" />
    <glyph glyph-name="c" unicode="c" horiz-adv-x="445" 
d="M353 132l80.999 -56c-32 -56.667 -91.333 -85 -178 -85c-68.667 0 -122.5 20.333 -161.5 61s-58.5 95.667 -58.5 165v68c0 72 19.5 127.333 58.5 166s94.167 58 165.5 58c81.333 0 139.333 -27 174 -81l-82 -57c-21.333 30 -52.666 45 -93.999 45
c-77.333 0 -116 -45.333 -116 -136v-58c0 -92.667 38.667 -139 116 -139c45.333 0 77 16.333 95 49z" />
    <glyph glyph-name="d" unicode="d" 
d="M355 465v225h106v-690h-106v35c-28 -29.333 -68 -44 -120 -44c-63.333 0 -112.333 20.333 -147 61s-52 95.667 -52 165v68c0 70.667 17.667 125.667 53 165s84 59 146 59c52 0 92 -14.667 120 -44zM249 83c70.667 0 106 46.333 106 139v64
c0 41.333 -9.16699 73.333 -27.5 96s-44.5 34 -78.5 34c-71.333 0 -107 -45.333 -107 -136v-58c0 -43.333 9 -77.333 27 -102s44.667 -37 80 -37z" />
    <glyph glyph-name="e" unicode="e" horiz-adv-x="487" 
d="M354 132l80.001 -56c-32.667 -56.667 -92.334 -85 -179.001 -85c-69.333 0 -123.166 20.333 -161.499 61s-57.5 95.667 -57.5 165v68c0 73.333 17.333 129 52 167s85 57 151 57c134.667 0 202 -76.667 202 -230v-55h-299v-2c0 -43.333 9 -77.333 27 -102
s45.333 -37 82 -37c27.333 0 48.666 3.83301 63.999 11.5s28.333 20.167 39 37.5zM239.001 416c-58.667 0 -90.667 -36.667 -96 -110h191c-4 73.333 -35.667 110 -95 110z" />
    <glyph glyph-name="f" unicode="f" horiz-adv-x="294" 
d="M17 408v91.999h64v31c0 58.667 12.167 99.834 36.5 123.501s66.5 35.5 126.5 35.5h31v-96h-23c-26 0 -43.333 -6 -52 -18s-13 -33.667 -13 -65v-11h88v-92h-88v-408h-106v408h-64z" />
    <glyph glyph-name="g" unicode="g" 
d="M355 465v35.001h106v-490c0 -137.333 -72.667 -206 -218 -206c-46.667 0 -84.5 6.66699 -113.5 20s-53.167 35.666 -72.5 66.999l75 54c22 -33.333 58 -50 108 -50c40 0 69.167 9 87.5 27s27.5 47.333 27.5 88v23c-27.333 -28 -67.333 -42 -120 -42
c-63.333 0 -112.333 20.333 -147 61s-52 95.667 -52 165v68c0 70.667 17.667 125.667 53 165s84 59 146 59c52 0 92 -14.667 120 -44zM249 83.001c70.667 0 106 46.333 106 139v58c0 90.667 -35.333 136 -106 136c-71.333 0 -107 -45.333 -107 -136v-58
c0 -43.333 9 -77.333 27 -102s44.667 -37 80 -37z" />
    <glyph glyph-name="h" unicode="h" horiz-adv-x="526" 
d="M164 0h-107v690h107v-233c24 34.667 64.667 52 122 52s102 -16.167 134 -48.5s48 -81.5 48 -147.5v-313h-106v301c0 75.333 -31.667 113 -95 113c-32 0 -57.167 -10.167 -75.5 -30.5s-27.5 -47.5 -27.5 -81.5v-302z" />
    <glyph glyph-name="i" unicode="i" horiz-adv-x="251" 
d="M179 0h-107v500h107v-500zM184 581h-117v109h117v-109z" />
    <glyph glyph-name="j" unicode="j" horiz-adv-x="244" 
d="M75 500h106.001v-531c0 -58 -13.833 -99 -41.5 -123s-74.167 -36 -139.5 -36v94c29.333 0 49.166 6.5 59.499 19.5s15.5 34.5 15.5 64.5v512zM186.001 581h-116v109h116v-109z" />
    <glyph glyph-name="k" unicode="k" horiz-adv-x="495" 
d="M164 305l167 195h131l-191 -215l221 -285h-129l-165 202l-34 -38v-164h-107v690h107v-385z" />
    <glyph glyph-name="l" unicode="l" horiz-adv-x="282" 
d="M57 157v533h107v-508c0 -31.333 5.33301 -53.833 16 -67.5s30.667 -20.5 60 -20.5v-94c-66 -0 -113 11.833 -141 35.5s-42 64.167 -42 121.5z" />
    <glyph glyph-name="m" unicode="m" horiz-adv-x="798" 
d="M164 0h-107.002v500h105v-45c24 36 63 54 117 54c64.667 0 112.334 -24 143.001 -72c34.667 48 83.334 72 146.001 72c54.667 0 97.167 -16.833 127.5 -50.5s45.5 -82.167 45.5 -145.5v-313h-107v301c0 75.333 -29.667 113 -89 113c-27.333 0 -49.5 -9.66699 -66.5 -29
s-25.833 -45.333 -26.5 -78v-307h-106v301c0 75.333 -29.333 113 -88 113c-28 0 -50.667 -10.167 -68 -30.5s-26 -47.5 -26 -81.5v-302z" />
    <glyph glyph-name="n" unicode="n" horiz-adv-x="526" 
d="M164 0h-107v500h105v-45c26.667 36 68 54 124 54c57.333 0 102 -16.167 134 -48.5s48 -81.5 48 -147.5v-313h-106v301c0 75.333 -31.667 113 -95 113c-32 0 -57.167 -10.167 -75.5 -30.5s-27.5 -47.5 -27.5 -81.5v-302z" />
    <glyph glyph-name="o" unicode="o" horiz-adv-x="497" 
d="M461 282v-63c0 -71.333 -18 -127.166 -54 -167.499s-88.667 -60.5 -158 -60.5c-68 0 -120.5 20.167 -157.5 60.5s-55.5 96.166 -55.5 167.499v63c0 73.333 18.5 129.5 55.5 168.5s89.5 58.5 157.5 58.5s120.333 -19.5 157 -58.5s55 -95.167 55 -168.5zM249 83
c35.333 0 61.833 12.333 79.5 37s26.5 58.667 26.5 102v58c0 90.667 -35.333 136 -106 136c-71.333 0 -107 -45.333 -107 -136v-58c0 -92.667 35.667 -139 107 -139z" />
    <glyph glyph-name="p" unicode="p" 
d="M482 285l-0.00195312 -68c0 -69.333 -17.167 -124.333 -51.5 -165s-82.833 -61 -145.5 -61c-55.333 0 -95.666 13.667 -120.999 41v-222h-107v690h107v-40c26.667 32.667 67.334 49 122.001 49c60.667 0 108.5 -19.833 143.5 -59.5s52.5 -94.5 52.5 -164.5zM269.998 83
c35.333 0 61.833 12.333 79.5 37s26.5 58.667 26.5 102v58c0 90.667 -35.333 136 -106 136c-70 0 -105.333 -43.333 -106 -130v-64c0 -92.667 35.333 -139 106 -139z" />
    <glyph glyph-name="q" unicode="q" 
d="M355 465v35h106v-690h-106v224c-26.667 -28.667 -66.667 -43 -120 -43c-63.333 0 -112.333 20.333 -147 61s-52 95.667 -52 165v68c0 70.667 17.667 125.667 53 165s84 59 146 59c52 0 92 -14.667 120 -44zM249 83c35.333 0 61.833 11.167 79.5 33.5s26.5 53.5 26.5 93.5
v70c0 90.667 -35.333 136 -106 136c-71.333 0 -107 -45.333 -107 -136v-58c0 -43.333 9 -77.333 27 -102s44.667 -37 80 -37z" />
    <glyph glyph-name="r" unicode="r" horiz-adv-x="403" 
d="M413 435l-84.999 -60c-18 26 -42 39 -72 39c-28 0 -50.333 -9.83301 -67 -29.5s-25 -47.167 -25 -82.5v-302h-107v500h105v-45c22.667 36 60 54 112 54c61.333 0 107.666 -24.667 138.999 -74z" />
    <glyph glyph-name="s" unicode="s" horiz-adv-x="465" 
d="M413 426l-78.998 -57.001c-12.667 16.667 -27 28.334 -43 35.001s-38 10 -66 10c-52 0 -78 -17 -78 -51c0 -18.667 7.5 -32.667 22.5 -42s39.167 -16 72.5 -20c61.333 -6.66699 107.166 -22.5 137.499 -47.5s45.5 -61.833 45.5 -110.5c0 -48 -16.5 -85.333 -49.5 -112
s-80.5 -40 -142.5 -40c-92.667 0 -159.667 27.667 -201 83l81 58c23.333 -31.333 63 -47 119 -47c27.333 0 48.666 4.83301 63.999 14.5s23 23.167 23 40.5c0 19.333 -7.16699 33.333 -21.5 42s-41.833 15.667 -82.5 21c-116.667 14.667 -175 67 -175 157
c0 46 16.333 82.333 49 109s78.667 40 138 40c88.667 0 150.667 -27.667 186 -83z" />
    <glyph glyph-name="t" unicode="t" horiz-adv-x="324" 
d="M81 408l-64 -0.000976562v92h64v110h106v-110h106v-92h-106v-229c0 -31.333 4.33301 -53 13 -65s26 -18 52 -18h41v-96h-49c-60 0 -102.167 11.833 -126.5 35.5s-36.5 64.834 -36.5 123.501v249z" />
    <glyph glyph-name="u" unicode="u" horiz-adv-x="526" 
d="M362 500h105.998v-500h-105v45c-12.667 -19.333 -28.167 -33.166 -46.5 -41.499s-43.833 -12.5 -76.5 -12.5c-57.333 0 -102.166 16.333 -134.499 49s-48.5 82 -48.5 148v312h107v-301c0 -40.667 8 -69.834 24 -87.501s40 -26.5 72 -26.5c32.667 0 57.834 10 75.501 30
s26.5 47.667 26.5 83v302z" />
    <glyph glyph-name="v" unicode="v" horiz-adv-x="504" 
d="M252 143l129 357h119l-195 -500h-102l-199 500h118z" />
    <glyph glyph-name="w" unicode="w" horiz-adv-x="716" 
d="M480 0l-122 340l-122 -340h-89l-141 500h111l84 -315l112 315h82l119 -317l84 317h112l-142 -500h-88z" />
    <glyph glyph-name="x" unicode="x" horiz-adv-x="485" 
d="M304 256l173 -256h-121l-114 167l-114 -167h-120l172 256l-156 244h121l97 -158l98 158h120z" />
    <glyph glyph-name="y" unicode="y" horiz-adv-x="473" 
d="M196 -6l-191.001 506h113l127 -352l114 352h110l-176 -520c-14 -42.667 -29.333 -76.667 -46 -102c-31.333 -45.333 -89.333 -68 -174 -68v98c36.667 0 63.334 5.33301 80.001 16s31 34 43 70z" />
    <glyph glyph-name="z" unicode="z" horiz-adv-x="449" 
d="M35 0v77l239 331h-238v92h377v-77l-237 -331h241v-92h-382z" />
    <glyph glyph-name="braceleft" unicode="{" horiz-adv-x="323" 
d="M206 616v-200c0 -20 -3.5 -35.333 -10.5 -46s-18.5 -18.667 -34.5 -24c30 -10 45 -33.333 45 -70v-200c0 -32 5.16699 -53.167 15.5 -63.5s29.5 -15.5 57.5 -15.5h18v-92h-33c-55.333 0 -96.666 10.667 -123.999 32c-26.667 20.667 -40 61.667 -40 123v187
c0 18.667 -3.83301 32 -11.5 40s-20.5 12 -38.5 12h-19v94h19c18 0 30.833 4 38.5 12s11.5 21.333 11.5 40v187c0 61.333 13.333 102.333 40 123c27.333 21.333 68.666 32 123.999 32h33v-92h-18c-28 0 -47.167 -5.16699 -57.5 -15.5s-15.5 -31.5 -15.5 -63.5z" />
    <glyph glyph-name="bar" unicode="|" horiz-adv-x="274" 
d="M85 812h100v-928h-100v928z" />
    <glyph glyph-name="braceright" unicode="}" horiz-adv-x="317" 
d="M121 416v200c0 32 -5.16699 53.167 -15.5 63.5s-29.166 15.5 -56.499 15.5h-18v92h33c55.333 0 96.666 -10.667 123.999 -32c26.667 -20.667 40 -61.667 40 -123v-187c0 -18.667 3.83301 -32 11.5 -40s20.5 -12 38.5 -12h19v-94h-19c-18 0 -30.833 -4 -38.5 -12
s-11.5 -21.333 -11.5 -40v-187c0 -61.333 -13.333 -102.333 -40 -123c-27.333 -21.333 -68.666 -32 -123.999 -32h-33v92h18c27.333 0 46.166 5.16699 56.499 15.5s15.5 31.5 15.5 63.5v200c0 36.667 15 60 45 70c-16 5.33301 -27.5 13.333 -34.5 24s-10.5 26 -10.5 46z" />
    <glyph glyph-name="asciitilde" unicode="~" horiz-adv-x="522" 
d="M345 267c-31.333 0 -62.665 7.33301 -93.998 22c-32.667 15.333 -57.667 23 -75 23c-38 0 -69 -15.333 -93 -46l-73 59c43.333 53.333 98.666 80 165.999 80c30 0 61.333 -7.66699 94 -23c31.333 -14.667 56.333 -22 75 -22c37.333 0 68.666 15.667 93.999 47l72 -59
c-44 -54 -99.333 -81 -166 -81z" />
    <glyph glyph-name="uni00A0" unicode="&#xa0;" horiz-adv-x="250" 
 />
    <glyph glyph-name="exclamdown" unicode="&#xa1;" horiz-adv-x="235" 
d="M172 -190h-109v501h109v-501zM58 500h119v-118h-119v118z" />
    <glyph glyph-name="cent" unicode="&#xa2;" horiz-adv-x="522" 
d="M389 134l81.001 -57c-27.333 -46 -71 -73 -131 -81v-112h-96v113c-54 8.66699 -96 32.667 -126 72s-45 89.333 -45 150v64c0 62 14.667 111.833 44 149.5s71.666 61.167 126.999 70.5v119h96v-118c58 -8.66699 101.667 -34.667 131 -78l-82 -57
c-20.667 30.667 -52 46 -94 46c-77.333 0 -116 -45.667 -116 -137v-54c0 -92.667 38.667 -139 116 -139c45.333 0 77 16.333 95 49z" />
    <glyph glyph-name="sterling" unicode="&#xa3;" horiz-adv-x="522" 
d="M481 0l-456.001 0.000976562v100h72v195h-72v101h72v22c0 187.333 71.667 281 215 281c85.333 0 148.333 -32 189 -96l-96 -55c-25.333 33.333 -55.333 50 -90 50c-35.333 0 -61.166 -13.833 -77.499 -41.5s-24.5 -73.834 -24.5 -138.501v-22h142v-101h-142v-195h268
v-100z" />
    <glyph glyph-name="currency" unicode="&#xa4;" horiz-adv-x="522" 
d="M62 366c0 37.333 8.66699 70.668 26 100.001l-73 74l72 72l72 -73c30.667 18.667 64.667 28 102 28c36.667 0 70.334 -9.33301 101.001 -28l74 74l72 -72l-74 -74c18.667 -30.667 28 -64.334 28 -101.001c0 -37.333 -9.33301 -71.333 -28 -102l74 -73l-72 -72l-74 74
c-32 -18 -65.667 -27 -101 -27c-36.667 0 -70.334 9 -101.001 27l-73 -73l-72 72l73 73c-17.333 31.333 -26 65 -26 101zM261 261.002c29.333 0 53.833 10.167 73.5 30.5s29.5 45.166 29.5 74.499c0 30 -9.83301 55.167 -29.5 75.5s-44.167 30.5 -73.5 30.5
c-28 0 -51.833 -10.333 -71.5 -31s-29.5 -45.667 -29.5 -75s9.66699 -54.166 29 -74.499s43.333 -30.5 72 -30.5z" />
    <glyph glyph-name="yen" unicode="&#xa5;" horiz-adv-x="522" 
d="M59 131v97h138v60h-138v97h84l-120 305h128l104 -301l115 301h129l-132 -305h84v-97h-138v-60h138v-97h-138v-131h-116v131h-138z" />
    <glyph glyph-name="brokenbar" unicode="&#xa6;" horiz-adv-x="258" 
d="M74 243h116v-243h-116v243zM74 690h116v-243h-116v243z" />
    <glyph glyph-name="section" unicode="&#xa7;" horiz-adv-x="518" 
d="M75 -40l108.999 0.00195312c2 -18.667 7.83301 -32.5 17.5 -41.5s25.5 -13.5 47.5 -13.5c46 0 69 18 69 54c0 18 -7.16699 33.5 -21.5 46.5s-38.166 24.833 -71.499 35.5c-54 17.333 -95.667 38.333 -125 63c-36 30 -54 78.667 -54 146c0 76 31.667 129.667 95 161
c-46 31.333 -69 73.666 -69 126.999c0 46 16.167 83 48.5 111s75.833 42 130.5 42c114.667 0 172.334 -50.333 173.001 -151h-109c-2 19.333 -7.66699 33.333 -17 42s-25.333 13 -48 13c-45.333 0 -68 -18 -68 -54c0 -18.667 7 -34.334 21 -47.001s38.667 -24.667 74 -36
c55.333 -18.667 96 -39.334 122 -62.001c36 -30 54 -78.667 54 -146c0 -76 -31.667 -129.667 -95 -161c46 -31.333 69 -73.666 69 -126.999c0 -46 -16.167 -83 -48.5 -111s-75.833 -42 -130.5 -42c-114.667 0 -172.334 50.333 -173.001 151zM343.999 250.002
c0 28.667 -8.33301 51.5 -25 68.5s-39.667 25.5 -69 25.5c-30 0 -53.333 -8.33301 -70 -25s-25 -39.667 -25 -69c0 -31.333 8.33301 -55 25 -71s40 -24 70 -24c29.333 0 52.333 8.33301 69 25s25 40 25 70z" />
    <glyph glyph-name="dieresis" unicode="&#xa8;" horiz-adv-x="420" 
d="M161 585h-109v105h109v-105zM367 585h-108v105h108v-105z" />
    <glyph glyph-name="copyright" unicode="&#xa9;" horiz-adv-x="967" 
d="M169 -62c-85.333 85.333 -128 189.333 -128 312s42.667 226.667 128 312c86.667 85.333 190.667 128 312 128c122 0 225.667 -42.667 311 -128c86 -85.333 129 -189.333 129 -312s-43 -226.667 -129 -312c-85.333 -85.333 -189 -128 -311 -128
c-121.333 0 -225.333 42.667 -312 128zM818 250c0 95.333 -32.668 176.666 -98.001 243.999s-145 101 -239 101c-94.667 0 -174.667 -33.667 -240 -101s-98 -148.666 -98 -243.999c0 -96 32.667 -177.667 98 -245s145.333 -101 240 -101s174.334 33.333 239.001 100
c65.333 67.333 98 149.333 98 246zM583.999 132l81 -56c-32 -56.667 -91.333 -85 -178 -85c-68.667 0 -122.5 20.333 -161.5 61s-58.5 95.667 -58.5 165v68c0 72 19.5 127.333 58.5 166s94.167 58 165.5 58c80.667 0 138.667 -27 174 -81l-82 -57c-20.667 30 -52 45 -94 45
c-77.333 0 -116 -45.333 -116 -136v-58c0 -92.667 38.667 -139 116 -139c45.333 0 77 16.333 95 49z" />
    <glyph glyph-name="ordfeminine" unicode="&#xaa;" horiz-adv-x="316" 
d="M20 466c0 64 39.668 95.999 119.001 95.999h67v21c0 18.667 -4.5 31.5 -13.5 38.5s-24.5 10.5 -46.5 10.5c-18 0 -31.667 -2.33301 -41 -7s-18 -13.667 -26 -27l-52 36c22 38.667 63.333 58 124 58c43.333 0 75.333 -8 96 -24s31 -41.667 31 -77v-217h-72v26
c-14 -20 -39 -30 -75 -30c-34.667 0 -61.834 8.33301 -81.501 25s-29.5 40.334 -29.5 71.001zM206.001 491.999l0.000976562 13.001h-59c-36 0 -54 -13 -54 -39c0 -24.667 16.667 -37 50 -37c21.333 0 37.166 4.66699 47.499 14s15.5 25.666 15.5 48.999z" />
    <glyph glyph-name="guillemotleft" unicode="&#xab;" 
d="M262 52l-232 231l232 231v-125l-108 -106l108 -107v-124zM471 52l-232 231l232 231v-125l-107 -106l107 -107v-124z" />
    <glyph glyph-name="logicalnot" unicode="&#xac;" 
d="M472 403v-227h-105v130h-336v97h441z" />
    <glyph glyph-name="uni00AD" unicode="&#xad;" horiz-adv-x="319" 
d="M289 242h-259v94h259v-94z" />
    <glyph glyph-name="registered" unicode="&#xae;" horiz-adv-x="558" 
d="M277 759c71.333 0 132 -25.333 182 -76c50.667 -50 76 -110.667 76 -182s-25.333 -132.333 -76 -183c-50 -50 -110.667 -75 -182 -75c-70.667 0 -131.334 25.333 -182.001 76c-50 51.333 -75 112 -75 182s25 130.667 75 182c50.667 50.667 111.334 76 182.001 76z
M142 636c-37.333 -37.333 -56 -82.333 -56 -135s18.667 -97.667 56 -135s82.333 -56 135 -56s97.667 18.667 135 56s56 82.333 56 135s-18.667 97.667 -56 135s-82.333 56 -135 56s-97.667 -18.667 -135 -56zM233 467v-93.001h-60v261h109c32 0 56.667 -7.66699 74 -23
s26 -34.666 26 -57.999c0 -37.333 -17.333 -63 -52 -77l65 -103h-69l-56 93h-37zM233 583.999v-66h37c18 0 30.833 2.66699 38.5 8s11.5 14.333 11.5 27c0 20.667 -15 31 -45 31h-42z" />
    <glyph glyph-name="overscore" unicode="&#xaf;" horiz-adv-x="402" 
d="M339 585h-277v94h277v-94z" />
    <glyph glyph-name="degree" unicode="&#xb0;" horiz-adv-x="308" 
d="M56 461c-26.667 26.667 -40 59.332 -40 97.999s13.333 71.334 40 98.001s59.334 40 98.001 40c38 0 70.333 -13.333 97 -40c27.333 -27.333 41 -60 41 -98s-13.667 -70.667 -41 -98c-26.667 -26.667 -59 -40 -97 -40c-38.667 0 -71.334 13.333 -98.001 40zM96 558.998
c0 -17.333 5.5 -31.668 16.5 -43.001s24.833 -17 41.5 -17c16 0 29.5 5.83301 40.5 17.5s16.5 25.834 16.5 42.501s-5.5 30.667 -16.5 42s-24.5 17 -40.5 17c-16.667 0 -30.5 -5.66699 -41.5 -17s-16.5 -25.333 -16.5 -42z" />
    <glyph glyph-name="plusminus" unicode="&#xb1;" horiz-adv-x="503" 
d="M205 348h-148v92h148v149h93v-149h148v-92h-148v-115h-93v115zM446 114h-389v93h389v-93z" />
    <glyph glyph-name="twosuperior" unicode="&#xb2;" horiz-adv-x="278" 
d="M131 434h124.001v-60h-221v57l105 95c25.333 22 38 43 38 63c0 11.333 -3.5 20.5 -10.5 27.5s-15.5 10.5 -25.5 10.5c-11.333 0 -20.833 -3.5 -28.5 -10.5s-11.834 -16.5 -12.501 -28.5h-69c0 31.333 10.667 56.666 32 75.999s47.666 29 78.999 29
c32.667 0 58.834 -8.66699 78.501 -26s29.5 -41.666 29.5 -72.999c0 -34.667 -19.667 -69.667 -59 -105z" />
    <glyph glyph-name="threesuperior" unicode="&#xb3;" horiz-adv-x="301" 
d="M130 509l-16.001 -0.00195312v55h16c32 0 48 12 48 36c0 10 -3.33301 17.667 -10 23s-15 8 -25 8c-23.333 0 -36.666 -10.667 -39.999 -32h-71c0 27.333 10.667 49.833 32 67.5s48 26.5 80 26.5s57.333 -7.66699 76 -23s28 -36.666 28 -63.999
c0 -31.333 -15.667 -54 -47 -68c35.333 -11.333 53 -35.333 53 -72c0 -30 -10 -53.333 -30 -70s-46.667 -25 -80 -25c-34 0 -61.5 8.83301 -82.5 26.5s-32.167 40.834 -33.5 69.501h72c2.66699 -22 17 -33 43 -33s39 12.333 39 37c0 25.333 -17.333 38 -52 38z" />
    <glyph glyph-name="acute" unicode="&#xb4;" horiz-adv-x="384" 
d="M197 567h-101l70 158h122z" />
    <glyph glyph-name="mu" unicode="&#x3bc;" horiz-adv-x="510" 
d="M157 12l0.00195312 -149h-106v637h106v-306c0 -39.333 8.33301 -67.333 25 -84s40.667 -25 72 -25c32 0 56.833 10.167 74.5 30.5s26.5 47.833 26.5 82.5v302h99v-500h-98v45c-22.667 -36 -61.334 -54 -116.001 -54c-34.667 0 -62.334 7 -83.001 21z" />
    <glyph glyph-name="mu" unicode="&#xb5;" horiz-adv-x="510" 
d="M157 12l0.00195312 -149h-106v637h106v-306c0 -39.333 8.33301 -67.333 25 -84s40.667 -25 72 -25c32 0 56.833 10.167 74.5 30.5s26.5 47.833 26.5 82.5v302h99v-500h-98v45c-22.667 -36 -61.334 -54 -116.001 -54c-34.667 0 -62.334 7 -83.001 21z" />
    <glyph glyph-name="paragraph" unicode="&#xb6;" horiz-adv-x="628" 
d="M235 690l305 -0.000976562v-880h-112v779h-81v-779h-112v500c-53.333 0 -98.333 18.333 -135 55s-55 81.667 -55 135c0 52.667 18.333 97.334 55 134.001c37.333 37.333 82.333 56 135 56z" />
    <glyph glyph-name="middot" unicode="&#xb7;" horiz-adv-x="216" 
d="M45 411h126v-126h-126v126z" />
    <glyph glyph-name="cedilla" unicode="&#xb8;" horiz-adv-x="347" 
d="M118 -71l19 96l71 -3l-12 -44c37.333 -14 56 -38.667 56 -74c0 -25.333 -10.5 -45.5 -31.5 -60.5s-48.833 -22.5 -83.5 -22.5c-20 0 -34 1 -42 3l14 59c2.66699 -0.666992 9 -1 19 -1c26 0 39 8 39 24c0 15.333 -16.333 23 -49 23z" />
    <glyph glyph-name="onesuperior" unicode="&#xb9;" horiz-adv-x="277" 
d="M131 690h69v-316h-73v237l-57 -39v75z" />
    <glyph glyph-name="ordmasculine" unicode="&#xba;" horiz-adv-x="344" 
d="M305 555v-45c0 -43.333 -12 -77.333 -36 -102s-57.667 -37 -101 -37c-42 0 -75.167 12.333 -99.5 37s-36.5 58.667 -36.5 102v45c0 44 12.167 78 36.5 102s57.5 36 99.5 36c42.667 0 76.167 -12 100.5 -36s36.5 -58 36.5 -102zM168 437c20 0 35.667 6.5 47 19.5
s17 30.833 17 53.5v44c0 48 -21.333 72 -64 72c-42 0 -63 -24 -63 -72v-44c0 -48.667 21 -73 63 -73z" />
    <glyph glyph-name="guillemotright" unicode="&#xbb;" 
d="M257 389v125l232 -231l-232 -231v124l107 107zM47 389v125l232 -231l-232 -231v124l108 107z" />
    <glyph glyph-name="onequarter" unicode="&#xbc;" horiz-adv-x="634" 
d="M121 690h69v-316h-73v237l-57 -39v75zM318 108l131 208h85l-123 -201h67v50h72v-50h39v-62h-39v-53h-72v53h-160v55zM11 0l475 690h106l-474 -690h-107z" />
    <glyph glyph-name="onehalf" unicode="&#xbd;" horiz-adv-x="630" 
d="M121 690h69v-316h-73v237l-57 -39v75zM466 60h124.002v-60h-221v57l105 95c25.333 22 38 43 38 63c0 11.333 -3.33301 20.5 -10 27.5s-15.334 10.5 -26.001 10.5c-11.333 0 -20.833 -3.5 -28.5 -10.5s-11.834 -16.5 -12.501 -28.5h-69c0 31.333 10.667 56.666 32 75.999
s47.666 29 78.999 29c32.667 0 58.834 -8.66699 78.501 -26s29.5 -41.666 29.5 -72.999c0 -34.667 -19.667 -69.667 -59 -105zM11.002 0l475 690h106l-474 -690h-107z" />
    <glyph glyph-name="threequarters" unicode="&#xbe;" horiz-adv-x="619" 
d="M119 509l-16.001 -0.00195312v55h16c32 0 48 12 48 36c0 10 -3.33301 17.667 -10 23s-15 8 -25 8c-23.333 0 -36.666 -10.667 -39.999 -32h-71c0 27.333 10.667 49.833 32 67.5s48 26.5 80 26.5s57.333 -7.66699 76 -23s28 -36.666 28 -63.999
c0 -31.333 -15.667 -54 -47 -68c35.333 -11.333 53 -35.333 53 -72c0 -30 -10 -53.333 -30 -70s-46.667 -25 -80 -25c-34 0 -61.5 8.83301 -82.5 26.5s-32.167 40.834 -33.5 69.501h72c2.66699 -22 17 -33 43 -33s39 12.333 39 37c0 25.333 -17.333 38 -52 38z
M317.999 107.998l131 208h85l-123 -201h67v50h72v-50h39v-62h-39v-53h-72v53h-160v55zM10.999 -0.00195312l475 690h106l-474 -690h-107z" />
    <glyph glyph-name="questiondown" unicode="&#xbf;" horiz-adv-x="486" 
d="M208 277l0.000976562 34h102v-72c0 -36.667 -11.333 -65.334 -34 -86.001l-47 -43c-26 -24.667 -44.167 -45.667 -54.5 -63s-15.5 -36.666 -15.5 -57.999c0 -26.667 8.66699 -48 26 -64s39.333 -24 66 -24c27.333 0 49.666 7.66699 66.999 23s26.333 36 27 62h111
c0 -56.667 -19.667 -101.667 -59 -135s-88 -50 -146 -50c-59.333 0 -109 17 -149 51c-39.333 33.333 -59 80 -59 140c0 34 8.5 65.667 25.5 95s42.5 60 76.5 92l31 30c21.333 20 32 42.667 32 68zM318.001 382h-118v118h118v-118z" />
    <glyph glyph-name="Agrave" unicode="&#xc0;" horiz-adv-x="595" 
d="M173 143l-47 -143h-124l240 690h110l240 -690h-123l-47 143h-249zM389 243l-92 279l-92 -279h184zM137 873h127l80 -129h-104z" />
    <glyph glyph-name="Aacute" unicode="&#xc1;" horiz-adv-x="595" 
d="M173 143l-47 -143h-124l240 690h110l240 -690h-123l-47 143h-249zM389 243l-92 279l-92 -279h184zM352 744h-103l80 129h126z" />
    <glyph glyph-name="Acircumflex" unicode="&#xc2;" horiz-adv-x="595" 
d="M173 143l-47 -143h-124l240 690h110l240 -690h-123l-47 143h-249zM389 243l-92 279l-92 -279h184zM109 738l138 142h100l138 -142h-117l-71 75l-71 -75h-117z" />
    <glyph glyph-name="Atilde" unicode="&#xc3;" horiz-adv-x="595" 
d="M173 143l-47 -143h-124l240 690h110l240 -690h-123l-47 143h-249zM389 243l-92 279l-92 -279h184zM358 744c-15.333 0 -36 4.66699 -62 14s-44.333 14 -55 14c-20.667 0 -39 -8.66699 -55 -26l-59 60c32 37.333 69.667 56 113 56c14 0 34 -4.66699 60 -14
s44.667 -14 56 -14c20 0 38 8.66699 54 26l58 -60c-31.333 -37.333 -68 -56 -110 -56z" />
    <glyph glyph-name="Adieresis" unicode="&#xc4;" horiz-adv-x="595" 
d="M173 143l-47 -143h-124l240 690h110l240 -690h-123l-47 143h-249zM389 243l-92 279l-92 -279h184zM248 764h-108v105h108v-105zM455 764h-109v105h109v-105z" />
    <glyph glyph-name="Aring" unicode="&#xc5;" horiz-adv-x="595" 
d="M173 143l-47 -143h-124l228 655c-30.667 18 -46 45.333 -46 82c0 29.333 10.667 53.166 32 71.499s48.333 27.5 81 27.5c34 0 61.5 -9 82.5 -27s31.5 -42 31.5 -72c0 -35.333 -15.667 -62.666 -47 -81.999l228 -655h-123l-47 143h-249zM389 243l-92 279l-92 -279h184z
M251 737c0 -12 4.16699 -21.333 12.5 -28s19.5 -10 33.5 -10c30.667 0 46 12.667 46 38s-15.333 38 -46 38s-46 -12.667 -46 -38z" />
    <glyph glyph-name="AE" unicode="&#xc6;" horiz-adv-x="878" 
d="M218 147l-82 -147h-134l391 690h450v-101h-307v-182h277v-100h-277v-207h307v-100h-423v147h-202zM420 510l-147 -263h147v263z" />
    <glyph glyph-name="Ccedilla" unicode="&#xc7;" horiz-adv-x="587" 
d="M264 -71l12 63c-72.667 6 -128.834 35 -168.501 87s-59.5 126 -59.5 222v88c0 102.667 22.5 180 67.5 232s108.5 78 190.5 78c70 0 126.5 -18.833 169.5 -56.5s70.167 -93.167 81.5 -166.5h-112c-17.333 81.333 -63.666 122 -138.999 122
c-48 0 -83.667 -16.833 -107 -50.5s-35 -86.5 -35 -158.5v-88c0 -139.333 47.333 -209 142 -209c39.333 0 70 9.83301 92 29.5s37.667 50.5 47 92.5h111c-20 -134 -90 -207.667 -210 -221l-4 -15c37.333 -14 56 -38.667 56 -74c0 -25.333 -10.5 -45.5 -31.5 -60.5
s-48.833 -22.5 -83.5 -22.5c-20 0 -34 1 -42 3l14 59c2.66699 -0.666992 9 -1 19 -1c26 0 39 8 39 24c0 15.333 -16.333 23 -49 23z" />
    <glyph glyph-name="Egrave" unicode="&#xc8;" horiz-adv-x="533" 
d="M76 0v690h423v-101h-307v-182h277v-100h-277v-207h307v-100h-423zM155 873h127l80 -129h-104z" />
    <glyph glyph-name="Eacute" unicode="&#xc9;" horiz-adv-x="533" 
d="M76 0v690h423v-101h-307v-182h277v-100h-277v-207h307v-100h-423zM324 744h-103l80 129h126z" />
    <glyph glyph-name="Ecircumflex" unicode="&#xca;" horiz-adv-x="533" 
d="M76 0v690h423v-101h-307v-182h277v-100h-277v-207h307v-100h-423zM99 738l138 142h100l138 -142h-117l-71 75l-71 -75h-117z" />
    <glyph glyph-name="Edieresis" unicode="&#xcb;" horiz-adv-x="533" 
d="M76 0v690h423v-101h-307v-182h277v-100h-277v-207h307v-100h-423zM238 764h-108v105h108v-105zM445 764h-109v105h109v-105z" />
    <glyph glyph-name="Igrave" unicode="&#xcc;" horiz-adv-x="287" 
d="M86 690h116v-690h-116v690zM-4 873h127l80 -129h-104z" />
    <glyph glyph-name="Iacute" unicode="&#xcd;" horiz-adv-x="287" 
d="M86 690h116v-690h-116v690zM189 744h-103l80 129h126z" />
    <glyph glyph-name="Icircumflex" unicode="&#xce;" horiz-adv-x="287" 
d="M86 690h116v-690h-116v690zM-44 738l138 142h100l138 -142h-117l-71 75l-71 -75h-117z" />
    <glyph glyph-name="Idieresis" unicode="&#xcf;" horiz-adv-x="287" 
d="M86 690h116v-690h-116v690zM94 764h-108v105h108v-105zM301 764h-109v105h109v-105z" />
    <glyph glyph-name="Eth" unicode="&#xd0;" horiz-adv-x="620" 
d="M313 0h-233v307h-90v100h90v283h233c172.667 0 259 -101.333 259 -304v-82c0 -202.667 -86.333 -304 -259 -304zM196 100l117 -0.000976562c49.333 0 85.5 16.333 108.5 49s34.5 84.334 34.5 155.001v82c0 70.667 -11.5 122.167 -34.5 154.5s-59.167 48.5 -108.5 48.5
h-117v-182h155v-100h-155v-207z" />
    <glyph glyph-name="Ntilde" unicode="&#xd1;" horiz-adv-x="648" 
d="M460 215v475h112v-690h-103l-281 469v-469h-112v690h100zM384 744c-15.333 0 -36 4.66699 -62 14s-44.333 14 -55 14c-20.667 0 -39 -8.66699 -55 -26l-59 60c32 37.333 69.667 56 113 56c14 0 34 -4.66699 60 -14s44.667 -14 56 -14c20 0 38 8.66699 54 26l58 -60
c-31.333 -37.333 -68 -56 -110 -56z" />
    <glyph glyph-name="Ograve" unicode="&#xd2;" horiz-adv-x="613" 
d="M565 389v-88c0 -102.667 -22.667 -180 -68 -232s-109 -78 -191 -78s-145.5 26 -190.5 78s-67.5 129.333 -67.5 232v88c0 102.667 22.5 180 67.5 232s108.5 78 190.5 78s145.667 -26 191 -78s68 -129.333 68 -232zM164 389v-88c0 -72 11.667 -124.833 35 -158.5
s59 -50.5 107 -50.5s83.833 16.833 107.5 50.5s35.5 86.5 35.5 158.5v88c0 72 -11.833 124.833 -35.5 158.5s-59.5 50.5 -107.5 50.5s-83.667 -16.833 -107 -50.5s-35 -86.5 -35 -158.5zM171 873h127l80 -129h-104z" />
    <glyph glyph-name="Oacute" unicode="&#xd3;" horiz-adv-x="613" 
d="M565 389v-88c0 -102.667 -22.667 -180 -68 -232s-109 -78 -191 -78s-145.5 26 -190.5 78s-67.5 129.333 -67.5 232v88c0 102.667 22.5 180 67.5 232s108.5 78 190.5 78s145.667 -26 191 -78s68 -129.333 68 -232zM164 389v-88c0 -72 11.667 -124.833 35 -158.5
s59 -50.5 107 -50.5s83.833 16.833 107.5 50.5s35.5 86.5 35.5 158.5v88c0 72 -11.833 124.833 -35.5 158.5s-59.5 50.5 -107.5 50.5s-83.667 -16.833 -107 -50.5s-35 -86.5 -35 -158.5zM336 744h-103l80 129h126z" />
    <glyph glyph-name="Ocircumflex" unicode="&#xd4;" horiz-adv-x="613" 
d="M565 389v-88c0 -102.667 -22.667 -180 -68 -232s-109 -78 -191 -78s-145.5 26 -190.5 78s-67.5 129.333 -67.5 232v88c0 102.667 22.5 180 67.5 232s108.5 78 190.5 78s145.667 -26 191 -78s68 -129.333 68 -232zM164 389v-88c0 -72 11.667 -124.833 35 -158.5
s59 -50.5 107 -50.5s83.833 16.833 107.5 50.5s35.5 86.5 35.5 158.5v88c0 72 -11.833 124.833 -35.5 158.5s-59.5 50.5 -107.5 50.5s-83.667 -16.833 -107 -50.5s-35 -86.5 -35 -158.5zM118 738l138 142h100l138 -142h-117l-71 75l-71 -75h-117z" />
    <glyph glyph-name="Otilde" unicode="&#xd5;" horiz-adv-x="613" 
d="M565 389v-88c0 -102.667 -22.667 -180 -68 -232s-109 -78 -191 -78s-145.5 26 -190.5 78s-67.5 129.333 -67.5 232v88c0 102.667 22.5 180 67.5 232s108.5 78 190.5 78s145.667 -26 191 -78s68 -129.333 68 -232zM164 389v-88c0 -72 11.667 -124.833 35 -158.5
s59 -50.5 107 -50.5s83.833 16.833 107.5 50.5s35.5 86.5 35.5 158.5v88c0 72 -11.833 124.833 -35.5 158.5s-59.5 50.5 -107.5 50.5s-83.667 -16.833 -107 -50.5s-35 -86.5 -35 -158.5zM366 744c-15.333 0 -36 4.66699 -62 14s-44.333 14 -55 14
c-20.667 0 -39 -8.66699 -55 -26l-59 60c32 37.333 69.667 56 113 56c14 0 34 -4.66699 60 -14s44.667 -14 56 -14c20 0 38 8.66699 54 26l58 -60c-31.333 -37.333 -68 -56 -110 -56z" />
    <glyph glyph-name="Odieresis" unicode="&#xd6;" horiz-adv-x="613" 
d="M565 389v-88c0 -102.667 -22.667 -180 -68 -232s-109 -78 -191 -78s-145.5 26 -190.5 78s-67.5 129.333 -67.5 232v88c0 102.667 22.5 180 67.5 232s108.5 78 190.5 78s145.667 -26 191 -78s68 -129.333 68 -232zM164 389v-88c0 -72 11.667 -124.833 35 -158.5
s59 -50.5 107 -50.5s83.833 16.833 107.5 50.5s35.5 86.5 35.5 158.5v88c0 72 -11.833 124.833 -35.5 158.5s-59.5 50.5 -107.5 50.5s-83.667 -16.833 -107 -50.5s-35 -86.5 -35 -158.5zM257 764h-108v105h108v-105zM464 764h-109v105h109v-105z" />
    <glyph glyph-name="multiply" unicode="&#xd7;" horiz-adv-x="535" 
d="M270 288l-121 -121l-66 66l121 121l-121 122l65 65l122 -122l122 122l65 -65l-122 -122l122 -121l-66 -66z" />
    <glyph glyph-name="Oslash" unicode="&#xd8;" horiz-adv-x="613" 
d="M233 -1l-41 -115.001h-98l55 153c-67.333 49.333 -101 137.333 -101 264v88c0 102.667 22.5 180 67.5 232s108.5 78 190.5 78c30.667 0 57 -3.33301 79 -10l45 123h98l-59 -164c64 -51.333 96 -137.666 96 -258.999v-88c0 -102.667 -22.667 -180 -68 -232
s-109 -78 -191 -78c-22 0 -46.333 2.66699 -73 8zM164 388.999l0.000976562 -88c0 -65.333 9.33301 -114.333 28 -147l158 438c-12.667 4 -27.334 6 -44.001 6c-48 0 -83.667 -16.833 -107 -50.5s-35 -86.5 -35 -158.5zM449.001 300.999v88c0 59.333 -8 105.333 -24 138
l-157 -431c10 -2.66699 22.667 -4 38 -4c48 0 83.833 16.833 107.5 50.5s35.5 86.5 35.5 158.5z" />
    <glyph glyph-name="Ugrave" unicode="&#xd9;" horiz-adv-x="668" 
d="M476 279v411h116v-410c0 -96 -22.5 -168.167 -67.5 -216.5s-108.5 -72.5 -190.5 -72.5s-145.5 24 -190.5 72s-67.5 120 -67.5 216v411h116v-411c0 -64.667 11.5 -112 34.5 -142s58.833 -45 107.5 -45s84.5 15 107.5 45s34.5 77.333 34.5 142zM195 873h127l80 -129h-104z
" />
    <glyph glyph-name="Uacute" unicode="&#xda;" horiz-adv-x="668" 
d="M476 279v411h116v-410c0 -96 -22.5 -168.167 -67.5 -216.5s-108.5 -72.5 -190.5 -72.5s-145.5 24 -190.5 72s-67.5 120 -67.5 216v411h116v-411c0 -64.667 11.5 -112 34.5 -142s58.833 -45 107.5 -45s84.5 15 107.5 45s34.5 77.333 34.5 142zM368 744h-103l80 129h126z
" />
    <glyph glyph-name="Ucircumflex" unicode="&#xdb;" horiz-adv-x="668" 
d="M476 279v411h116v-410c0 -96 -22.5 -168.167 -67.5 -216.5s-108.5 -72.5 -190.5 -72.5s-145.5 24 -190.5 72s-67.5 120 -67.5 216v411h116v-411c0 -64.667 11.5 -112 34.5 -142s58.833 -45 107.5 -45s84.5 15 107.5 45s34.5 77.333 34.5 142zM146 738l138 142h100
l138 -142h-117l-71 75l-71 -75h-117z" />
    <glyph glyph-name="Udieresis" unicode="&#xdc;" horiz-adv-x="668" 
d="M476 279v411h116v-410c0 -96 -22.5 -168.167 -67.5 -216.5s-108.5 -72.5 -190.5 -72.5s-145.5 24 -190.5 72s-67.5 120 -67.5 216v411h116v-411c0 -64.667 11.5 -112 34.5 -142s58.833 -45 107.5 -45s84.5 15 107.5 45s34.5 77.333 34.5 142zM285 764h-108v105h108v-105z
M492 764h-109v105h109v-105z" />
    <glyph glyph-name="Yacute" unicode="&#xdd;" horiz-adv-x="571" 
d="M227 288l-215 402h135l138 -276l139 276h134l-215 -402v-288h-116v288zM328 744h-103l80 129h126z" />
    <glyph glyph-name="Thorn" unicode="&#xde;" horiz-adv-x="589" 
d="M311 139h-119v-139h-116v690h116v-113h119c80.667 0 143.167 -18.833 187.5 -56.5s66.5 -91.167 66.5 -160.5c0 -70 -22.333 -124.333 -67 -163s-107 -58 -187 -58zM192 477v-237h107c100 0 150 40 150 120c0 78 -50 117 -150 117h-107z" />
    <glyph glyph-name="germandbls" unicode="&#xdf;" 
d="M462 564c0 -46 -20.332 -78.333 -60.999 -97c22.667 -8 38.5 -20.833 47.5 -38.5s13.5 -43.167 13.5 -76.5v-212c0 -57.333 -11 -95 -33 -113c-20.667 -18 -58.667 -27 -114 -27h-53v91h36c20.667 0 35.5 4.66699 44.5 14s13.5 25 13.5 47v198
c0 24.667 -4.16699 42 -12.5 52s-23.5 15 -45.5 15h-36v87h36c38.667 0 58 17.333 58 52c0 37.333 -29 56 -87 56c-36.667 0 -63.334 -9.83301 -80.001 -29.5s-25 -50.167 -25 -91.5v-491h-107v499c0 133.333 70.667 200 212 200c63.333 0 111.333 -12.5 144 -37.5
s49 -57.5 49 -97.5z" />
    <glyph glyph-name="agrave" unicode="&#xe0;" horiz-adv-x="488" 
d="M32 147c0 49.333 16.1689 86.334 48.502 111.001s78.166 37 137.499 37h108v42c0 31.333 -7 52.5 -21 63.5s-40 16.5 -78 16.5c-29.333 0 -51.333 -3 -66 -9s-27.667 -18 -39 -36l-77 54c18 29.333 41.667 50.5 71 63.5s68.666 19.5 117.999 19.5
c68.667 0 118.667 -13.167 150 -39.5s47 -70.833 47 -133.5v-336h-105v46c-12 -20 -26.833 -34.167 -44.5 -42.5s-41.5 -12.5 -71.5 -12.5c-56 0 -99.667 13.667 -131 41s-47 65.666 -47 114.999zM326.002 189.001v24h-100c-59.333 0 -89 -22 -89 -66
c0 -43.333 28.333 -65 85 -65c36.667 0 63.167 7.83301 79.5 23.5s24.5 43.5 24.5 83.5zM122.002 725.001h122l70 -158h-101z" />
    <glyph glyph-name="aacute" unicode="&#xe1;" horiz-adv-x="488" 
d="M32 147c0 49.333 16.1689 86.334 48.502 111.001s78.166 37 137.499 37h108v42c0 31.333 -7 52.5 -21 63.5s-40 16.5 -78 16.5c-29.333 0 -51.333 -3 -66 -9s-27.667 -18 -39 -36l-77 54c18 29.333 41.667 50.5 71 63.5s68.666 19.5 117.999 19.5
c68.667 0 118.667 -13.167 150 -39.5s47 -70.833 47 -133.5v-336h-105v46c-12 -20 -26.833 -34.167 -44.5 -42.5s-41.5 -12.5 -71.5 -12.5c-56 0 -99.667 13.667 -131 41s-47 65.666 -47 114.999zM326.002 189.001v24h-100c-59.333 0 -89 -22 -89 -66
c0 -43.333 28.333 -65 85 -65c36.667 0 63.167 7.83301 79.5 23.5s24.5 43.5 24.5 83.5zM280.002 567.001h-101l70 158h122z" />
    <glyph glyph-name="acircumflex" unicode="&#xe2;" horiz-adv-x="488" 
d="M32 147c0 49.333 16.1689 86.334 48.502 111.001s78.166 37 137.499 37h108v42c0 31.333 -7 52.5 -21 63.5s-40 16.5 -78 16.5c-29.333 0 -51.333 -3 -66 -9s-27.667 -18 -39 -36l-77 54c18 29.333 41.667 50.5 71 63.5s68.666 19.5 117.999 19.5
c68.667 0 118.667 -13.167 150 -39.5s47 -70.833 47 -133.5v-336h-105v46c-12 -20 -26.833 -34.167 -44.5 -42.5s-41.5 -12.5 -71.5 -12.5c-56 0 -99.667 13.667 -131 41s-47 65.666 -47 114.999zM326.002 189.001v24h-100c-59.333 0 -89 -22 -89 -66
c0 -43.333 28.333 -65 85 -65c36.667 0 63.167 7.83301 79.5 23.5s24.5 43.5 24.5 83.5zM86.002 558.001l108 142h100l108 -142h-102l-56 77l-56 -77h-102z" />
    <glyph glyph-name="atilde" unicode="&#xe3;" horiz-adv-x="488" 
d="M32 147c0 49.333 16.1689 86.334 48.502 111.001s78.166 37 137.499 37h108v42c0 31.333 -7 52.5 -21 63.5s-40 16.5 -78 16.5c-29.333 0 -51.333 -3 -66 -9s-27.667 -18 -39 -36l-77 54c18 29.333 41.667 50.5 71 63.5s68.666 19.5 117.999 19.5
c68.667 0 118.667 -13.167 150 -39.5s47 -70.833 47 -133.5v-336h-105v46c-12 -20 -26.833 -34.167 -44.5 -42.5s-41.5 -12.5 -71.5 -12.5c-56 0 -99.667 13.667 -131 41s-47 65.666 -47 114.999zM326.002 189.001v24h-100c-59.333 0 -89 -22 -89 -66
c0 -43.333 28.333 -65 85 -65c36.667 0 63.167 7.83301 79.5 23.5s24.5 43.5 24.5 83.5zM307.002 572.001c-15.333 0 -35.999 4.66699 -61.999 14s-44 14 -54 14c-20.667 0 -39.334 -9 -56.001 -27l-58 59c31.333 37.333 68.666 56 111.999 56c15.333 0 35.333 -5 60 -15
c26 -9.33301 45 -14 57 -14c18.667 0 36.334 9 53.001 27l58 -58c-29.333 -37.333 -66 -56 -110 -56z" />
    <glyph glyph-name="adieresis" unicode="&#xe4;" horiz-adv-x="488" 
d="M32 147c0 49.333 16.1689 86.334 48.502 111.001s78.166 37 137.499 37h108v42c0 31.333 -7 52.5 -21 63.5s-40 16.5 -78 16.5c-29.333 0 -51.333 -3 -66 -9s-27.667 -18 -39 -36l-77 54c18 29.333 41.667 50.5 71 63.5s68.666 19.5 117.999 19.5
c68.667 0 118.667 -13.167 150 -39.5s47 -70.833 47 -133.5v-336h-105v46c-12 -20 -26.833 -34.167 -44.5 -42.5s-41.5 -12.5 -71.5 -12.5c-56 0 -99.667 13.667 -131 41s-47 65.666 -47 114.999zM326.002 189.001v24h-100c-59.333 0 -89 -22 -89 -66
c0 -43.333 28.333 -65 85 -65c36.667 0 63.167 7.83301 79.5 23.5s24.5 43.5 24.5 83.5zM188.002 585.001h-109v105h109v-105zM394.002 585.001h-108v105h108v-105z" />
    <glyph glyph-name="aring" unicode="&#xe5;" horiz-adv-x="488" 
d="M32 147c0 49.333 16.1689 86.334 48.502 111.001s78.166 37 137.499 37h108v42c0 31.333 -7 52.5 -21 63.5s-40 16.5 -78 16.5c-29.333 0 -51.333 -3 -66 -9s-27.667 -18 -39 -36l-77 54c18 29.333 41.667 50.5 71 63.5s68.666 19.5 117.999 19.5
c68.667 0 118.667 -13.167 150 -39.5s47 -70.833 47 -133.5v-336h-105v46c-12 -20 -26.833 -34.167 -44.5 -42.5s-41.5 -12.5 -71.5 -12.5c-56 0 -99.667 13.667 -131 41s-47 65.666 -47 114.999zM326.002 189.001v24h-100c-59.333 0 -89 -22 -89 -66
c0 -43.333 28.333 -65 85 -65c36.667 0 63.167 7.83301 79.5 23.5s24.5 43.5 24.5 83.5zM161.002 568.001c-22 21.333 -33 47.333 -33 78s11 56.667 33 78c22.667 21.333 50.667 32 84 32s61.333 -10.667 84 -32c22 -21.333 33 -47.333 33 -78s-11 -56.667 -33 -78
c-21.333 -20.667 -49.333 -31 -84 -31s-62.667 10.333 -84 31zM212.002 681.001c-8.66699 -8.66699 -13 -20.334 -13 -35.001s4.33301 -26.667 13 -36s19.667 -14 33 -14s24.333 4.66699 33 14s13 21.333 13 36s-4.33301 26.334 -13 35.001
c-8.66699 9.33301 -19.667 14 -33 14s-24.333 -4.66699 -33 -14z" />
    <glyph glyph-name="ae" unicode="&#xe6;" horiz-adv-x="775" 
d="M642 132l80.002 -56.001c-32.667 -56.667 -92.334 -85 -179.001 -85c-78 0 -133.333 26.333 -166 79c-34.667 -52.667 -90.334 -79 -167.001 -79c-56 0 -99.667 13.5 -131 40.5s-47 64.833 -47 113.5c0 100 62.667 150 188 150h106v40c0 30.667 -6.83301 52 -20.5 64
s-39.167 18 -76.5 18c-30 0 -52.667 -3.16699 -68 -9.5s-28.333 -18.166 -39 -35.499l-77 52c34 56.667 97.667 85 191 85c74 0 125 -19 153 -57c31.333 38 77.333 57 138 57c131.333 0 199 -73.333 203 -220v-67h-299v-2c0 -44 9.5 -77.833 28.5 -101.5
s46.167 -35.5 81.5 -35.5c26 0 46.667 3.66699 62 11s28.333 20 39 38zM326.002 188.999v24h-100c-59.333 0 -89 -22 -89 -66c0 -43.333 28.333 -65 85 -65c36 0 62.333 7.83301 79 23.5s25 43.5 25 83.5zM431.002 303.999h191c-2.66699 74.667 -34 112 -94 112
s-92.333 -37.333 -97 -112z" />
    <glyph glyph-name="ccedilla" unicode="&#xe7;" horiz-adv-x="445" 
d="M208 -71l11.999 63.999c-58 6.66699 -103.167 29.834 -135.5 69.501s-48.5 91.167 -48.5 154.5v68c0 72 19.5 127.333 58.5 166s94.167 58 165.5 58c81.333 0 139.333 -27 174 -81l-82 -57c-21.333 30 -52.666 45 -93.999 45c-77.333 0 -116 -45.333 -116 -136v-58
c0 -92.667 38.667 -139 116 -139c45.333 0 77 16.333 95 49l81 -56c-28 -49.333 -76 -77 -144 -83l-4 -15c37.333 -14 56 -38.667 56 -74c0 -25.333 -10.5 -45.5 -31.5 -60.5s-48.833 -22.5 -83.5 -22.5c-20 0 -34 1 -42 3l14 59c2.66699 -0.666992 9 -1 19 -1
c26 0 39 8 39 24c0 15.333 -16.333 23 -49 23z" />
    <glyph glyph-name="egrave" unicode="&#xe8;" horiz-adv-x="487" 
d="M354 132l80.001 -56c-32.667 -56.667 -92.334 -85 -179.001 -85c-69.333 0 -123.166 20.333 -161.499 61s-57.5 95.667 -57.5 165v68c0 73.333 17.333 129 52 167s85 57 151 57c134.667 0 202 -76.667 202 -230v-55h-299v-2c0 -43.333 9 -77.333 27 -102
s45.333 -37 82 -37c27.333 0 48.666 3.83301 63.999 11.5s28.333 20.167 39 37.5zM239.001 416c-58.667 0 -90.667 -36.667 -96 -110h191c-4 73.333 -35.667 110 -95 110zM122.001 725h122l70 -158h-101z" />
    <glyph glyph-name="eacute" unicode="&#xe9;" horiz-adv-x="487" 
d="M354 132l80.001 -56c-32.667 -56.667 -92.334 -85 -179.001 -85c-69.333 0 -123.166 20.333 -161.499 61s-57.5 95.667 -57.5 165v68c0 73.333 17.333 129 52 167s85 57 151 57c134.667 0 202 -76.667 202 -230v-55h-299v-2c0 -43.333 9 -77.333 27 -102
s45.333 -37 82 -37c27.333 0 48.666 3.83301 63.999 11.5s28.333 20.167 39 37.5zM239.001 416c-58.667 0 -90.667 -36.667 -96 -110h191c-4 73.333 -35.667 110 -95 110zM276.001 567h-101l70 158h122z" />
    <glyph glyph-name="ecircumflex" unicode="&#xea;" horiz-adv-x="487" 
d="M354 132l80.001 -56c-32.667 -56.667 -92.334 -85 -179.001 -85c-69.333 0 -123.166 20.333 -161.499 61s-57.5 95.667 -57.5 165v68c0 73.333 17.333 129 52 167s85 57 151 57c134.667 0 202 -76.667 202 -230v-55h-299v-2c0 -43.333 9 -77.333 27 -102
s45.333 -37 82 -37c27.333 0 48.666 3.83301 63.999 11.5s28.333 20.167 39 37.5zM239.001 416c-58.667 0 -90.667 -36.667 -96 -110h191c-4 73.333 -35.667 110 -95 110zM81.001 558l108 142h100l108 -142h-102l-56 77l-56 -77h-102z" />
    <glyph glyph-name="edieresis" unicode="&#xeb;" horiz-adv-x="487" 
d="M354 132l80.001 -56c-32.667 -56.667 -92.334 -85 -179.001 -85c-69.333 0 -123.166 20.333 -161.499 61s-57.5 95.667 -57.5 165v68c0 73.333 17.333 129 52 167s85 57 151 57c134.667 0 202 -76.667 202 -230v-55h-299v-2c0 -43.333 9 -77.333 27 -102
s45.333 -37 82 -37c27.333 0 48.666 3.83301 63.999 11.5s28.333 20.167 39 37.5zM239.001 416c-58.667 0 -90.667 -36.667 -96 -110h191c-4 73.333 -35.667 110 -95 110zM190.001 585h-109v105h109v-105zM396.001 585h-108v105h108v-105z" />
    <glyph glyph-name="igrave" unicode="&#xec;" horiz-adv-x="251" 
d="M179 0h-107v500h107v-500zM-18 725h122l70 -158h-101z" />
    <glyph glyph-name="iacute" unicode="&#xed;" horiz-adv-x="251" 
d="M179 0h-107v500h107v-500zM169 567h-101l70 158h122z" />
    <glyph glyph-name="icircumflex" unicode="&#xee;" horiz-adv-x="251" 
d="M179 0h-107v500h107v-500zM-37 558l108 142h100l108 -142h-102l-56 77l-56 -77h-102z" />
    <glyph glyph-name="idieresis" unicode="&#xef;" horiz-adv-x="251" 
d="M179 0h-107v500h107v-500zM72 585h-109v105h109v-105zM278 585h-108v105h108v-105z" />
    <glyph glyph-name="eth" unicode="&#xf0;" horiz-adv-x="501" 
d="M237 527l-69.0039 37l26 46l-55 22l41 76l55 -23l31 55l67 -38l-27 -49c58.667 -28.667 99.334 -61 122.001 -97c22 -34.667 33 -90 33 -166v-171c0 -71.333 -18 -127.166 -54 -167.499s-88.667 -60.5 -158 -60.5c-68 0 -120.5 20.167 -157.5 60.5
s-55.5 96.166 -55.5 167.499v63c0 72.667 18.333 128.667 55 168s88.334 59 155.001 59c50.667 0 90.334 -13.667 119.001 -41c-4 26.667 -13.167 48 -27.5 64s-38.166 31.667 -71.499 47zM248.996 83c35.333 0 61.833 12.333 79.5 37s26.5 58.667 26.5 102v58
c0 90.667 -35.333 136 -106 136c-71.333 0 -107 -45.333 -107 -136v-58c0 -92.667 35.667 -139 107 -139z" />
    <glyph glyph-name="ntilde" unicode="&#xf1;" horiz-adv-x="526" 
d="M164 0h-107v500h105v-45c26.667 36 68 54 124 54c57.333 0 102 -16.167 134 -48.5s48 -81.5 48 -147.5v-313h-106v301c0 75.333 -31.667 113 -95 113c-32 0 -57.167 -10.167 -75.5 -30.5s-27.5 -47.5 -27.5 -81.5v-302zM323 572c-15.333 0 -35.999 4.66699 -61.999 14
s-44 14 -54 14c-20.667 0 -39.334 -9 -56.001 -27l-58 59c31.333 37.333 68.666 56 111.999 56c15.333 0 35.333 -5 60 -15c26 -9.33301 45 -14 57 -14c18.667 0 36.334 9 53.001 27l58 -58c-29.333 -37.333 -66 -56 -110 -56z" />
    <glyph glyph-name="ograve" unicode="&#xf2;" horiz-adv-x="497" 
d="M461 282v-63c0 -71.333 -18 -127.166 -54 -167.499s-88.667 -60.5 -158 -60.5c-68 0 -120.5 20.167 -157.5 60.5s-55.5 96.166 -55.5 167.499v63c0 73.333 18.5 129.5 55.5 168.5s89.5 58.5 157.5 58.5s120.333 -19.5 157 -58.5s55 -95.167 55 -168.5zM249 83
c35.333 0 61.833 12.333 79.5 37s26.5 58.667 26.5 102v58c0 90.667 -35.333 136 -106 136c-71.333 0 -107 -45.333 -107 -136v-58c0 -92.667 35.667 -139 107 -139zM130 725h122l70 -158h-101z" />
    <glyph glyph-name="oacute" unicode="&#xf3;" horiz-adv-x="497" 
d="M461 282v-63c0 -71.333 -18 -127.166 -54 -167.499s-88.667 -60.5 -158 -60.5c-68 0 -120.5 20.167 -157.5 60.5s-55.5 96.166 -55.5 167.499v63c0 73.333 18.5 129.5 55.5 168.5s89.5 58.5 157.5 58.5s120.333 -19.5 157 -58.5s55 -95.167 55 -168.5zM249 83
c35.333 0 61.833 12.333 79.5 37s26.5 58.667 26.5 102v58c0 90.667 -35.333 136 -106 136c-71.333 0 -107 -45.333 -107 -136v-58c0 -92.667 35.667 -139 107 -139zM287 567h-101l70 158h122z" />
    <glyph glyph-name="ocircumflex" unicode="&#xf4;" horiz-adv-x="497" 
d="M461 282v-63c0 -71.333 -18 -127.166 -54 -167.499s-88.667 -60.5 -158 -60.5c-68 0 -120.5 20.167 -157.5 60.5s-55.5 96.166 -55.5 167.499v63c0 73.333 18.5 129.5 55.5 168.5s89.5 58.5 157.5 58.5s120.333 -19.5 157 -58.5s55 -95.167 55 -168.5zM249 83
c35.333 0 61.833 12.333 79.5 37s26.5 58.667 26.5 102v58c0 90.667 -35.333 136 -106 136c-71.333 0 -107 -45.333 -107 -136v-58c0 -92.667 35.667 -139 107 -139zM91 558l108 142h100l108 -142h-102l-56 77l-56 -77h-102z" />
    <glyph glyph-name="otilde" unicode="&#xf5;" horiz-adv-x="497" 
d="M461 282v-63c0 -71.333 -18 -127.166 -54 -167.499s-88.667 -60.5 -158 -60.5c-68 0 -120.5 20.167 -157.5 60.5s-55.5 96.166 -55.5 167.499v63c0 73.333 18.5 129.5 55.5 168.5s89.5 58.5 157.5 58.5s120.333 -19.5 157 -58.5s55 -95.167 55 -168.5zM249 83
c35.333 0 61.833 12.333 79.5 37s26.5 58.667 26.5 102v58c0 90.667 -35.333 136 -106 136c-71.333 0 -107 -45.333 -107 -136v-58c0 -92.667 35.667 -139 107 -139zM309 572c-15.333 0 -35.999 4.66699 -61.999 14s-44 14 -54 14c-20.667 0 -39.334 -9 -56.001 -27l-58 59
c31.333 37.333 68.666 56 111.999 56c15.333 0 35.333 -5 60 -15c26 -9.33301 45 -14 57 -14c18.667 0 36.334 9 53.001 27l58 -58c-29.333 -37.333 -66 -56 -110 -56z" />
    <glyph glyph-name="odieresis" unicode="&#xf6;" horiz-adv-x="497" 
d="M461 282v-63c0 -71.333 -18 -127.166 -54 -167.499s-88.667 -60.5 -158 -60.5c-68 0 -120.5 20.167 -157.5 60.5s-55.5 96.166 -55.5 167.499v63c0 73.333 18.5 129.5 55.5 168.5s89.5 58.5 157.5 58.5s120.333 -19.5 157 -58.5s55 -95.167 55 -168.5zM249 83
c35.333 0 61.833 12.333 79.5 37s26.5 58.667 26.5 102v58c0 90.667 -35.333 136 -106 136c-71.333 0 -107 -45.333 -107 -136v-58c0 -92.667 35.667 -139 107 -139zM200 585h-109v105h109v-105zM406 585h-108v105h108v-105z" />
    <glyph glyph-name="divide" unicode="&#xf7;" horiz-adv-x="503" 
d="M446 307h-389v94h389v-94zM304 464h-107v107h107v-107zM304 138h-107v106h107v-106z" />
    <glyph glyph-name="oslash" unicode="&#xf8;" horiz-adv-x="497" 
d="M175 0l-35 -79h-77l50 111c-51.333 39.333 -77 101.666 -77 186.999v63c0 73.333 18.5 129.5 55.5 168.5s89.5 58.5 157.5 58.5c24.667 0 49 -3.33301 73 -10l37 83h77l-51 -113c50.667 -38.667 76 -101 76 -187v-63c0 -71.333 -18 -127.166 -54 -167.499
s-88.667 -60.5 -158 -60.5c-27.333 0 -52 3 -74 9zM142 280v-58c0 -34.667 5.66699 -64 17 -88l124 277c-12 3.33301 -23.333 5 -34 5c-71.333 0 -107 -45.333 -107 -136zM249 83c35.333 0 61.833 12.333 79.5 37s26.5 58.667 26.5 102v58c0 32 -5.66699 60 -17 84
l-124 -277c8 -2.66699 19.667 -4 35 -4z" />
    <glyph glyph-name="ugrave" unicode="&#xf9;" horiz-adv-x="526" 
d="M362 500h105.998v-500h-105v45c-12.667 -19.333 -28.167 -33.166 -46.5 -41.499s-43.833 -12.5 -76.5 -12.5c-57.333 0 -102.166 16.333 -134.499 49s-48.5 82 -48.5 148v312h107v-301c0 -40.667 8 -69.834 24 -87.501s40 -26.5 72 -26.5c32.667 0 57.834 10 75.501 30
s26.5 47.667 26.5 83v302zM150.998 725h122l70 -158h-101z" />
    <glyph glyph-name="uacute" unicode="&#xfa;" horiz-adv-x="526" 
d="M362 500h105.998v-500h-105v45c-12.667 -19.333 -28.167 -33.166 -46.5 -41.499s-43.833 -12.5 -76.5 -12.5c-57.333 0 -102.166 16.333 -134.499 49s-48.5 82 -48.5 148v312h107v-301c0 -40.667 8 -69.834 24 -87.501s40 -26.5 72 -26.5c32.667 0 57.834 10 75.501 30
s26.5 47.667 26.5 83v302zM306.998 567h-101l70 158h122z" />
    <glyph glyph-name="ucircumflex" unicode="&#xfb;" horiz-adv-x="526" 
d="M362 500h105.998v-500h-105v45c-12.667 -19.333 -28.167 -33.166 -46.5 -41.499s-43.833 -12.5 -76.5 -12.5c-57.333 0 -102.166 16.333 -134.499 49s-48.5 82 -48.5 148v312h107v-301c0 -40.667 8 -69.834 24 -87.501s40 -26.5 72 -26.5c32.667 0 57.834 10 75.501 30
s26.5 47.667 26.5 83v302zM104.998 558l108 142h100l108 -142h-102l-56 77l-56 -77h-102z" />
    <glyph glyph-name="udieresis" unicode="&#xfc;" horiz-adv-x="526" 
d="M362 500h105.998v-500h-105v45c-12.667 -19.333 -28.167 -33.166 -46.5 -41.499s-43.833 -12.5 -76.5 -12.5c-57.333 0 -102.166 16.333 -134.499 49s-48.5 82 -48.5 148v312h107v-301c0 -40.667 8 -69.834 24 -87.501s40 -26.5 72 -26.5c32.667 0 57.834 10 75.501 30
s26.5 47.667 26.5 83v302zM213.998 585h-109v105h109v-105zM419.998 585h-108v105h108v-105z" />
    <glyph glyph-name="yacute" unicode="&#xfd;" horiz-adv-x="473" 
d="M196 -6l-191.001 506h113l127 -352l114 352h110l-176 -520c-14 -42.667 -29.333 -76.667 -46 -102c-31.333 -45.333 -89.333 -68 -174 -68v98c36.667 0 63.334 5.33301 80.001 16s31 34 43 70zM290.999 567h-101l70 158h122z" />
    <glyph glyph-name="thorn" unicode="&#xfe;" 
d="M482 285l-0.00195312 -68c0 -69.333 -17.167 -124.333 -51.5 -165s-82.833 -61 -145.5 -61c-55.333 0 -95.666 13.667 -120.999 41v-222h-107v880h107v-230c26.667 32.667 67.334 49 122.001 49c60.667 0 108.5 -19.833 143.5 -59.5s52.5 -94.5 52.5 -164.5zM269.998 83
c35.333 0 61.833 12.333 79.5 37s26.5 58.667 26.5 102v58c0 90.667 -35.333 136 -106 136c-70 0 -105.333 -43.333 -106 -130v-64c0 -92.667 35.333 -139 106 -139z" />
    <glyph glyph-name="ydieresis" unicode="&#xff;" horiz-adv-x="473" 
d="M196 -6l-191.001 506h113l127 -352l114 352h110l-176 -520c-14 -42.667 -29.333 -76.667 -46 -102c-31.333 -45.333 -89.333 -68 -174 -68v98c36.667 0 63.334 5.33301 80.001 16s31 34 43 70zM193.999 585h-109v105h109v-105zM399.999 585h-108v105h108v-105z" />
    <glyph glyph-name="Amacron" unicode="&#x100;" horiz-adv-x="595" 
d="M173 143l-47 -143h-124l240 690h110l240 -690h-123l-47 143h-249zM389 243l-92 279l-92 -279h184zM456 755h-317v94h317v-94z" />
    <glyph glyph-name="amacron" unicode="&#x101;" horiz-adv-x="488" 
d="M32 147c0 49.333 16.1689 86.334 48.502 111.001s78.166 37 137.499 37h108v42c0 31.333 -7 52.5 -21 63.5s-40 16.5 -78 16.5c-29.333 0 -51.333 -3 -66 -9s-27.667 -18 -39 -36l-77 54c18 29.333 41.667 50.5 71 63.5s68.666 19.5 117.999 19.5
c68.667 0 118.667 -13.167 150 -39.5s47 -70.833 47 -133.5v-336h-105v46c-12 -20 -26.833 -34.167 -44.5 -42.5s-41.5 -12.5 -71.5 -12.5c-56 0 -99.667 13.667 -131 41s-47 65.666 -47 114.999zM326.002 189.001v24h-100c-59.333 0 -89 -22 -89 -66
c0 -43.333 28.333 -65 85 -65c36.667 0 63.167 7.83301 79.5 23.5s24.5 43.5 24.5 83.5zM380.002 585.001h-277v94h277v-94z" />
    <glyph glyph-name="Abreve" unicode="&#x102;" horiz-adv-x="595" 
d="M173 143l-47 -143h-124l240 690h110l240 -690h-123l-47 143h-249zM389 243l-92 279l-92 -279h184zM389 879h96.998c0 -48 -17 -85.333 -51 -112s-79.667 -40 -137 -40s-103.166 13.333 -137.499 40s-51.5 64 -51.5 112h97c6.66699 -42 37.334 -63 92.001 -63s85 21 91 63
z" />
    <glyph glyph-name="abreve" unicode="&#x103;" horiz-adv-x="488" 
d="M32 147c0 49.333 16.1689 86.334 48.502 111.001s78.166 37 137.499 37h108v42c0 31.333 -7 52.5 -21 63.5s-40 16.5 -78 16.5c-29.333 0 -51.333 -3 -66 -9s-27.667 -18 -39 -36l-77 54c18 29.333 41.667 50.5 71 63.5s68.666 19.5 117.999 19.5
c68.667 0 118.667 -13.167 150 -39.5s47 -70.833 47 -133.5v-336h-105v46c-12 -20 -26.833 -34.167 -44.5 -42.5s-41.5 -12.5 -71.5 -12.5c-56 0 -99.667 13.667 -131 41s-47 65.666 -47 114.999zM326.002 189.001v24h-100c-59.333 0 -89 -22 -89 -66
c0 -43.333 28.333 -65 85 -65c36.667 0 63.167 7.83301 79.5 23.5s24.5 43.5 24.5 83.5zM315.002 690.001h80c-1.33301 -40.667 -14.5 -71.834 -39.5 -93.501s-59.5 -32.5 -103.5 -32.5c-44.667 0 -79.5 10.833 -104.5 32.5s-38.167 52.834 -39.5 93.501h81
c4 -37.333 25 -56 63 -56s59 18.667 63 56z" />
    <glyph glyph-name="Aogonek" unicode="&#x104;" horiz-adv-x="595" 
d="M173 143l-47.001 -143h-124l240 690h110l240 -690c-20 -16 -33.833 -28.333 -41.5 -37s-11.5 -17.667 -11.5 -27c0 -16.667 11.667 -25 35 -25c2.66699 0 9.33398 0.666992 20.001 2l13 -59c-6 -2.66699 -21.333 -4 -46 -4c-30.667 0 -56.167 6.5 -76.5 19.5
s-30.5 31.833 -30.5 56.5c0 28 11.667 52.667 35 74h-20l-47 143h-249zM388.999 243l-92 279l-92 -279h184z" />
    <glyph glyph-name="aogonek" unicode="&#x105;" horiz-adv-x="493" 
d="M32 147c0 49.333 16.168 86.333 48.501 111s78.166 37 137.499 37h108v42c0 31.333 -7 52.5 -21 63.5s-40 16.5 -78 16.5c-29.333 0 -51.333 -3 -66 -9s-27.667 -18 -39 -36l-77 54c18 29.333 41.667 50.5 71 63.5s68.666 19.5 117.999 19.5
c68.667 0 118.667 -13.167 150 -39.5s47 -70.833 47 -133.5v-336c-20 -14.667 -34 -26.5 -42 -35.5s-12 -18.5 -12 -28.5c0 -16.667 11.667 -25 35 -25c2.66699 0 9.33398 0.666992 20.001 2l14 -59c-6 -2.66699 -21.667 -4 -47 -4c-30.667 0 -56.167 6.5 -76.5 19.5
s-30.5 31.833 -30.5 56.5c0 26.667 11.333 51.334 34 74.001v46c-12 -20 -26.833 -34.167 -44.5 -42.5s-41.5 -12.5 -71.5 -12.5c-56 0 -99.667 13.667 -131 41s-47 65.666 -47 114.999zM326.001 189v24h-100c-59.333 0 -89 -22 -89 -66c0 -43.333 28.333 -65 85 -65
c36.667 0 63.167 7.83301 79.5 23.5s24.5 43.5 24.5 83.5z" />
    <glyph glyph-name="Cacute" unicode="&#x106;" horiz-adv-x="587" 
d="M557 476h-112.001c-17.333 81.333 -63.666 122 -138.999 122c-48 0 -83.667 -16.833 -107 -50.5s-35 -86.5 -35 -158.5v-88c0 -139.333 47.333 -209 142 -209c39.333 0 70 9.83301 92 29.5s37.667 50.5 47 92.5h111c-22 -148.667 -105.333 -223 -250 -223
c-82 0 -145.5 26 -190.5 78s-67.5 129.333 -67.5 232v88c0 102.667 22.5 180 67.5 232s108.5 78 190.5 78c70 0 126.5 -18.833 169.5 -56.5s70.167 -93.167 81.5 -166.5zM316.999 744h-103l80 129h126z" />
    <glyph glyph-name="cacute" unicode="&#x107;" horiz-adv-x="445" 
d="M353 132l80.999 -56c-32 -56.667 -91.333 -85 -178 -85c-68.667 0 -122.5 20.333 -161.5 61s-58.5 95.667 -58.5 165v68c0 72 19.5 127.333 58.5 166s94.167 58 165.5 58c81.333 0 139.333 -27 174 -81l-82 -57c-21.333 30 -52.666 45 -93.999 45
c-77.333 0 -116 -45.333 -116 -136v-58c0 -92.667 38.667 -139 116 -139c45.333 0 77 16.333 95 49zM292.999 567h-101l70 158h122z" />
    <glyph glyph-name="Ccircumflex" unicode="&#x108;" horiz-adv-x="587" 
d="M557 476h-112.001c-17.333 81.333 -63.666 122 -138.999 122c-48 0 -83.667 -16.833 -107 -50.5s-35 -86.5 -35 -158.5v-88c0 -139.333 47.333 -209 142 -209c39.333 0 70 9.83301 92 29.5s37.667 50.5 47 92.5h111c-22 -148.667 -105.333 -223 -250 -223
c-82 0 -145.5 26 -190.5 78s-67.5 129.333 -67.5 232v88c0 102.667 22.5 180 67.5 232s108.5 78 190.5 78c70 0 126.5 -18.833 169.5 -56.5s70.167 -93.167 81.5 -166.5zM116.999 738l138 142h100l138 -142h-117l-71 75l-71 -75h-117z" />
    <glyph glyph-name="ccircumflex" unicode="&#x109;" horiz-adv-x="445" 
d="M353 132l80.999 -56c-32 -56.667 -91.333 -85 -178 -85c-68.667 0 -122.5 20.333 -161.5 61s-58.5 95.667 -58.5 165v68c0 72 19.5 127.333 58.5 166s94.167 58 165.5 58c81.333 0 139.333 -27 174 -81l-82 -57c-21.333 30 -52.666 45 -93.999 45
c-77.333 0 -116 -45.333 -116 -136v-58c0 -92.667 38.667 -139 116 -139c45.333 0 77 16.333 95 49zM97.999 558l108 142h100l108 -142h-102l-56 77l-56 -77h-102z" />
    <glyph glyph-name="Cdotaccent" unicode="&#x10a;" horiz-adv-x="587" 
d="M557 476h-112.001c-17.333 81.333 -63.666 122 -138.999 122c-48 0 -83.667 -16.833 -107 -50.5s-35 -86.5 -35 -158.5v-88c0 -139.333 47.333 -209 142 -209c39.333 0 70 9.83301 92 29.5s37.667 50.5 47 92.5h111c-22 -148.667 -105.333 -223 -250 -223
c-82 0 -145.5 26 -190.5 78s-67.5 129.333 -67.5 232v88c0 102.667 22.5 180 67.5 232s108.5 78 190.5 78c70 0 126.5 -18.833 169.5 -56.5s70.167 -93.167 81.5 -166.5zM362.999 768h-118v101h118v-101z" />
    <glyph glyph-name="cdotaccent" unicode="&#x10b;" horiz-adv-x="445" 
d="M353 132l80.999 -56c-32 -56.667 -91.333 -85 -178 -85c-68.667 0 -122.5 20.333 -161.5 61s-58.5 95.667 -58.5 165v68c0 72 19.5 127.333 58.5 166s94.167 58 165.5 58c81.333 0 139.333 -27 174 -81l-82 -57c-21.333 30 -52.666 45 -93.999 45
c-77.333 0 -116 -45.333 -116 -136v-58c0 -92.667 38.667 -139 116 -139c45.333 0 77 16.333 95 49zM300.999 581h-116v109h116v-109z" />
    <glyph glyph-name="Ccaron" unicode="&#x10c;" horiz-adv-x="587" 
d="M557 476h-112.001c-17.333 81.333 -63.666 122 -138.999 122c-48 0 -83.667 -16.833 -107 -50.5s-35 -86.5 -35 -158.5v-88c0 -139.333 47.333 -209 142 -209c39.333 0 70 9.83301 92 29.5s37.667 50.5 47 92.5h111c-22 -148.667 -105.333 -223 -250 -223
c-82 0 -145.5 26 -190.5 78s-67.5 129.333 -67.5 232v88c0 102.667 22.5 180 67.5 232s108.5 78 190.5 78c70 0 126.5 -18.833 169.5 -56.5s70.167 -93.167 81.5 -166.5zM490.999 880l-138 -142h-100l-138 142h117l71 -75l71 75h117z" />
    <glyph glyph-name="ccaron" unicode="&#x10d;" horiz-adv-x="445" 
d="M353 132l80.999 -56c-32 -56.667 -91.333 -85 -178 -85c-68.667 0 -122.5 20.333 -161.5 61s-58.5 95.667 -58.5 165v68c0 72 19.5 127.333 58.5 166s94.167 58 165.5 58c81.333 0 139.333 -27 174 -81l-82 -57c-21.333 30 -52.666 45 -93.999 45
c-77.333 0 -116 -45.333 -116 -136v-58c0 -92.667 38.667 -139 116 -139c45.333 0 77 16.333 95 49zM410.999 700l-108 -142h-100l-108 142h102l56 -77l56 77h102z" />
    <glyph glyph-name="Dcaron" unicode="&#x10e;" horiz-adv-x="616" 
d="M309 0h-233v690h233c172.667 0 259 -101.333 259 -304v-82c0 -202.667 -86.333 -304 -259 -304zM192 100l117 -0.000976562c49.333 0 85.5 16.333 108.5 49s34.5 84.334 34.5 155.001v82c0 70.667 -11.5 122.167 -34.5 154.5s-59.167 48.5 -108.5 48.5h-117v-489z
M470 879.999l-138 -142h-100l-138 142h117l71 -75l71 75h117z" />
    <glyph glyph-name="dcaron" unicode="&#x10f;" horiz-adv-x="555" 
d="M355 465v225h106v-690h-106v35c-28 -29.333 -68 -44 -120 -44c-63.333 0 -112.333 20.333 -147 61s-52 95.667 -52 165v68c0 70.667 17.667 125.667 53 165s84 59 146 59c52 0 92 -14.667 120 -44zM249 83c70.667 0 106 46.333 106 139v64
c0 41.333 -9.16699 73.333 -27.5 96s-44.5 34 -78.5 34c-71.333 0 -107 -45.333 -107 -136v-58c0 -43.333 9 -77.333 27 -102s44.667 -37 80 -37zM499 689h119v-114l-119 -102v216z" />
    <glyph glyph-name="Dcroat" unicode="&#x110;" horiz-adv-x="630" 
d="M323 0h-233v307h-100v100h100v283h233c172.667 0 259 -101.333 259 -304v-82c0 -202.667 -86.333 -304 -259 -304zM206 100l117 -0.000976562c49.333 0 85.5 16.333 108.5 49s34.5 84.334 34.5 155.001v82c0 70.667 -11.5 122.167 -34.5 154.5s-59.167 48.5 -108.5 48.5
h-117v-182h153v-100h-153v-207z" />
    <glyph glyph-name="dslash" unicode="&#x111;" horiz-adv-x="541" 
d="M214 637h141v53h106v-53h84v-90h-84v-547h-106v35c-28 -29.333 -68 -44 -120 -44c-63.333 0 -112.333 20.333 -147 61s-52 95.667 -52 165v68c0 70.667 17.667 125.667 53 165s84 59 146 59c52 0 92 -14.667 120 -44v82h-141v90zM249 83c70.667 0 106 46.333 106 139v64
c0 41.333 -9.16699 73.333 -27.5 96s-44.5 34 -78.5 34c-71.333 0 -107 -45.333 -107 -136v-58c0 -43.333 9 -77.333 27 -102s44.667 -37 80 -37z" />
    <glyph glyph-name="Emacron" unicode="&#x112;" horiz-adv-x="533" 
d="M76 0v690h423v-101h-307v-182h277v-100h-277v-207h307v-100h-423zM446 755h-317v94h317v-94z" />
    <glyph glyph-name="emacron" unicode="&#x113;" horiz-adv-x="487" 
d="M354 132l80.001 -56c-32.667 -56.667 -92.334 -85 -179.001 -85c-69.333 0 -123.166 20.333 -161.499 61s-57.5 95.667 -57.5 165v68c0 73.333 17.333 129 52 167s85 57 151 57c134.667 0 202 -76.667 202 -230v-55h-299v-2c0 -43.333 9 -77.333 27 -102
s45.333 -37 82 -37c27.333 0 48.666 3.83301 63.999 11.5s28.333 20.167 39 37.5zM239.001 416c-58.667 0 -90.667 -36.667 -96 -110h191c-4 73.333 -35.667 110 -95 110zM378.001 585h-277v94h277v-94z" />
    <glyph glyph-name="Edotaccent" unicode="&#x116;" horiz-adv-x="533" 
d="M76 0v690h423v-101h-307v-182h277v-100h-277v-207h307v-100h-423zM346 768h-118v101h118v-101z" />
    <glyph glyph-name="edotaccent" unicode="&#x117;" horiz-adv-x="487" 
d="M354 132l80.001 -56c-32.667 -56.667 -92.334 -85 -179.001 -85c-69.333 0 -123.166 20.333 -161.499 61s-57.5 95.667 -57.5 165v68c0 73.333 17.333 129 52 167s85 57 151 57c134.667 0 202 -76.667 202 -230v-55h-299v-2c0 -43.333 9 -77.333 27 -102
s45.333 -37 82 -37c27.333 0 48.666 3.83301 63.999 11.5s28.333 20.167 39 37.5zM239.001 416c-58.667 0 -90.667 -36.667 -96 -110h191c-4 73.333 -35.667 110 -95 110zM296.001 581h-116v109h116v-109z" />
    <glyph glyph-name="Eogonek" unicode="&#x118;" horiz-adv-x="533" 
d="M76 0l-0.000976562 690h423v-101h-307v-182h277v-100h-277v-207h307v-100h-113c-20 -14.667 -34 -26.5 -42 -35.5s-12 -18.5 -12 -28.5c0 -16.667 11.667 -25 35 -25c2.66699 0 9.33398 0.666992 20.001 2l14 -59c-6 -2.66699 -21.667 -4 -47 -4
c-30.667 0 -56.167 6.5 -76.5 19.5s-30.5 31.833 -30.5 56.5c0 27.333 12 52 36 74h-207z" />
    <glyph glyph-name="eogonek" unicode="&#x119;" horiz-adv-x="487" 
d="M354 132l80 -56c-24.667 -44 -64 -70.667 -118 -80c-32 -24 -48 -44 -48 -60c0 -16.667 11.667 -25 35 -25c2.66699 0 9.33398 0.666992 20.001 2l14 -59c-6 -2.66699 -21.667 -4 -47 -4c-30.667 0 -56.167 6.5 -76.5 19.5s-30.5 31.833 -30.5 56.5
c0 24 9.66699 46.667 29 68c-56 8 -99.333 31.833 -130 71.5s-46 90.167 -46 151.5v68c0 73.333 17.333 129 52 167s85 57 151 57c134.667 0 202 -76.667 202 -230v-55h-299v-2c0 -43.333 9 -77.333 27 -102s45.333 -37 82 -37c27.333 0 48.666 3.83301 63.999 11.5
s28.333 20.167 39 37.5zM239 416c-58.667 0 -90.667 -36.667 -96 -110h191c-4 73.333 -35.667 110 -95 110z" />
    <glyph glyph-name="Ecaron" unicode="&#x11a;" horiz-adv-x="533" 
d="M76 0v690h423v-101h-307v-182h277v-100h-277v-207h307v-100h-423zM475 880l-138 -142h-100l-138 142h117l71 -75l71 75h117z" />
    <glyph glyph-name="ecaron" unicode="&#x11b;" horiz-adv-x="487" 
d="M354 132l80.001 -56c-32.667 -56.667 -92.334 -85 -179.001 -85c-69.333 0 -123.166 20.333 -161.499 61s-57.5 95.667 -57.5 165v68c0 73.333 17.333 129 52 167s85 57 151 57c134.667 0 202 -76.667 202 -230v-55h-299v-2c0 -43.333 9 -77.333 27 -102
s45.333 -37 82 -37c27.333 0 48.666 3.83301 63.999 11.5s28.333 20.167 39 37.5zM239.001 416c-58.667 0 -90.667 -36.667 -96 -110h191c-4 73.333 -35.667 110 -95 110zM401.001 700l-108 -142h-100l-108 142h102l56 -77l56 77h102z" />
    <glyph glyph-name="Gcircumflex" unicode="&#x11c;" horiz-adv-x="608" 
d="M309 253l-0.000976562 100.999h251v-53c0 -104 -21.833 -181.667 -65.5 -233s-106.5 -77 -188.5 -77s-145.5 26 -190.5 78s-67.5 129.333 -67.5 232v83c0 104.667 22.5 183.334 67.5 236.001s108.5 79 190.5 79c70 0 126.667 -19.167 170 -57.5s70.333 -93.5 81 -165.5
h-112c-17.333 81.333 -63.666 122 -138.999 122c-48 0 -83.667 -16.833 -107 -50.5s-35 -86.5 -35 -158.5v-88c0 -72 11.667 -124.833 35 -158.5s59 -50.5 107 -50.5c44 0 77.333 13.167 100 39.5s36 66.833 40 121.5h-137zM114.999 737.999l138 142h100l138 -142h-117
l-71 75l-71 -75h-117z" />
    <glyph glyph-name="gcircumflex" unicode="&#x11d;" 
d="M355 465v35.001h106v-490c0 -137.333 -72.667 -206 -218 -206c-46.667 0 -84.5 6.66699 -113.5 20s-53.167 35.666 -72.5 66.999l75 54c22 -33.333 58 -50 108 -50c40 0 69.167 9 87.5 27s27.5 47.333 27.5 88v23c-27.333 -28 -67.333 -42 -120 -42
c-63.333 0 -112.333 20.333 -147 61s-52 95.667 -52 165v68c0 70.667 17.667 125.667 53 165s84 59 146 59c52 0 92 -14.667 120 -44zM249 83.001c70.667 0 106 46.333 106 139v58c0 90.667 -35.333 136 -106 136c-71.333 0 -107 -45.333 -107 -136v-58
c0 -43.333 9 -77.333 27 -102s44.667 -37 80 -37zM121 558.001l108 142h100l108 -142h-102l-56 77l-56 -77h-102z" />
    <glyph glyph-name="Gbreve" unicode="&#x11e;" horiz-adv-x="608" 
d="M309 253l-0.000976562 100.999h251v-53c0 -104 -21.833 -181.667 -65.5 -233s-106.5 -77 -188.5 -77s-145.5 26 -190.5 78s-67.5 129.333 -67.5 232v83c0 104.667 22.5 183.334 67.5 236.001s108.5 79 190.5 79c70 0 126.667 -19.167 170 -57.5s70.333 -93.5 81 -165.5
h-112c-17.333 81.333 -63.666 122 -138.999 122c-48 0 -83.667 -16.833 -107 -50.5s-35 -86.5 -35 -158.5v-88c0 -72 11.667 -124.833 35 -158.5s59 -50.5 107 -50.5c44 0 77.333 13.167 100 39.5s36 66.833 40 121.5h-137zM393.999 878.999h96.999
c0 -48 -17 -85.333 -51 -112s-79.667 -40 -137 -40s-103.166 13.333 -137.499 40s-51.5 64 -51.5 112h97c7.33301 -42 38 -63 92 -63c54.667 0 85 21 91 63z" />
    <glyph glyph-name="gbreve" unicode="&#x11f;" 
d="M355 465v35.001h106v-490c0 -137.333 -72.667 -206 -218 -206c-46.667 0 -84.5 6.66699 -113.5 20s-53.167 35.666 -72.5 66.999l75 54c22 -33.333 58 -50 108 -50c40 0 69.167 9 87.5 27s27.5 47.333 27.5 88v23c-27.333 -28 -67.333 -42 -120 -42
c-63.333 0 -112.333 20.333 -147 61s-52 95.667 -52 165v68c0 70.667 17.667 125.667 53 165s84 59 146 59c52 0 92 -14.667 120 -44zM249 83.001c70.667 0 106 46.333 106 139v58c0 90.667 -35.333 136 -106 136c-71.333 0 -107 -45.333 -107 -136v-58
c0 -43.333 9 -77.333 27 -102s44.667 -37 80 -37zM345 690.001h80c-1.33301 -40.667 -14.5 -71.834 -39.5 -93.501s-59.5 -32.5 -103.5 -32.5c-44.667 0 -79.5 10.833 -104.5 32.5s-38.167 52.834 -39.5 93.501h81c4 -37.333 25 -56 63 -56s59 18.667 63 56z" />
    <glyph glyph-name="Gdotaccent" unicode="&#x120;" horiz-adv-x="608" 
d="M309 253l-0.000976562 100.999h251v-53c0 -104 -21.833 -181.667 -65.5 -233s-106.5 -77 -188.5 -77s-145.5 26 -190.5 78s-67.5 129.333 -67.5 232v83c0 104.667 22.5 183.334 67.5 236.001s108.5 79 190.5 79c70 0 126.667 -19.167 170 -57.5s70.333 -93.5 81 -165.5
h-112c-17.333 81.333 -63.666 122 -138.999 122c-48 0 -83.667 -16.833 -107 -50.5s-35 -86.5 -35 -158.5v-88c0 -72 11.667 -124.833 35 -158.5s59 -50.5 107 -50.5c44 0 77.333 13.167 100 39.5s36 66.833 40 121.5h-137zM364.999 767.999h-118v101h118v-101z" />
    <glyph glyph-name="gdotaccent" unicode="&#x121;" 
d="M355 465v35.001h106v-490c0 -137.333 -72.667 -206 -218 -206c-46.667 0 -84.5 6.66699 -113.5 20s-53.167 35.666 -72.5 66.999l75 54c22 -33.333 58 -50 108 -50c40 0 69.167 9 87.5 27s27.5 47.333 27.5 88v23c-27.333 -28 -67.333 -42 -120 -42
c-63.333 0 -112.333 20.333 -147 61s-52 95.667 -52 165v68c0 70.667 17.667 125.667 53 165s84 59 146 59c52 0 92 -14.667 120 -44zM249 83.001c70.667 0 106 46.333 106 139v58c0 90.667 -35.333 136 -106 136c-71.333 0 -107 -45.333 -107 -136v-58
c0 -43.333 9 -77.333 27 -102s44.667 -37 80 -37zM318 581.001h-116v109h116v-109z" />
    <glyph glyph-name="Gcommaaccent" unicode="&#x122;" horiz-adv-x="608" 
d="M309 253l-0.000976562 100.999h251v-53c0 -104 -21.833 -181.667 -65.5 -233s-106.5 -77 -188.5 -77s-145.5 26 -190.5 78s-67.5 129.333 -67.5 232v83c0 104.667 22.5 183.334 67.5 236.001s108.5 79 190.5 79c70 0 126.667 -19.167 170 -57.5s70.333 -93.5 81 -165.5
h-112c-17.333 81.333 -63.666 122 -138.999 122c-48 0 -83.667 -16.833 -107 -50.5s-35 -86.5 -35 -158.5v-88c0 -72 11.667 -124.833 35 -158.5s59 -50.5 107 -50.5c44 0 77.333 13.167 100 39.5s36 66.833 40 121.5h-137zM244.999 -57.001h119v-114l-119 -102v216z" />
    <glyph glyph-name="gcommaaccent" unicode="&#x123;" 
d="M355 465v35.001h106v-490c0 -137.333 -72.667 -206 -218 -206c-46.667 0 -84.5 6.66699 -113.5 20s-53.167 35.666 -72.5 66.999l75 54c22 -33.333 58 -50 108 -50c40 0 69.167 9 87.5 27s27.5 47.333 27.5 88v23c-27.333 -28 -67.333 -42 -120 -42
c-63.333 0 -112.333 20.333 -147 61s-52 95.667 -52 165v68c0 70.667 17.667 125.667 53 165s84 59 146 59c52 0 92 -14.667 120 -44zM249 83.001c70.667 0 106 46.333 106 139v58c0 90.667 -35.333 136 -106 136c-71.333 0 -107 -45.333 -107 -136v-58
c0 -43.333 9 -77.333 27 -102s44.667 -37 80 -37zM318 565.001h-119v114l119 102v-216z" />
    <glyph glyph-name="Hcircumflex" unicode="&#x124;" horiz-adv-x="648" 
d="M76 690h116v-283h264v283h116v-690h-116v307h-264v-307h-116v690zM136 738l138 142h100l138 -142h-117l-71 75l-71 -75h-117z" />
    <glyph glyph-name="hcircumflex" unicode="&#x125;" horiz-adv-x="526" 
d="M164 0h-107v690h107v-233c24 34.667 64.667 52 122 52s102 -16.167 134 -48.5s48 -81.5 48 -147.5v-313h-106v301c0 75.333 -31.667 113 -95 113c-32 0 -57.167 -10.167 -75.5 -30.5s-27.5 -47.5 -27.5 -81.5v-302zM-47 724l108 142h100l108 -142h-102l-56 77l-56 -77
h-102z" />
    <glyph glyph-name="Hbar" unicode="&#x126;" horiz-adv-x="661" 
d="M83 690h116v-118h264v118h116v-118h92v-104h-92v-468h-116v307h-264v-307h-116v468h-93v104h93v118zM199 468v-61h264v61h-264z" />
    <glyph glyph-name="hbar" unicode="&#x127;" horiz-adv-x="532" 
d="M63 547h-86v90h86v53h107v-53h146v-90h-146v-90c24 34.667 64.667 52 122 52s102 -16.167 134 -48.5s48 -81.5 48 -147.5v-313h-106v301c0 75.333 -31.667 113 -95 113c-32 0 -57.167 -10.167 -75.5 -30.5s-27.5 -47.5 -27.5 -81.5v-302h-107v547z" />
    <glyph glyph-name="Imacron" unicode="&#x12a;" horiz-adv-x="287" 
d="M86 690h116v-690h-116v690zM303 755h-317v94h317v-94z" />
    <glyph glyph-name="imacron" unicode="&#x12b;" horiz-adv-x="251" 
d="M179 0h-107v500h107v-500zM260 585h-277v94h277v-94z" />
    <glyph glyph-name="Iogonek" unicode="&#x12e;" horiz-adv-x="287" 
d="M86 690h115.999v-690c-20 -14.667 -34 -26.5 -42 -35.5s-12 -18.5 -12 -28.5c0 -16.667 11.667 -25 35 -25c2.66699 0 9.33398 0.666992 20.001 2l14 -59c-6 -2.66699 -21.667 -4 -47 -4c-30.667 0 -56.167 6.5 -76.5 19.5s-30.5 31.833 -30.5 56.5c0 27.333 12 52 36 74
h-13v690z" />
    <glyph glyph-name="iogonek" unicode="&#x12f;" horiz-adv-x="251" 
d="M72 0l-0.000976562 500h107v-500c-20 -14.667 -34 -26.5 -42 -35.5s-12 -18.5 -12 -28.5c0 -16.667 11.667 -25 35 -25c2.66699 0 9.33398 0.666992 20.001 2l14 -59c-6 -2.66699 -21.667 -4 -47 -4c-29.333 0 -54.333 6.33301 -75 19c-21.333 12 -32 31 -32 57
s10.667 50.667 32 74zM183.999 581h-117v109h117v-109z" />
    <glyph glyph-name="Idot" unicode="&#x130;" horiz-adv-x="287" 
d="M86 690h116v-690h-116v690zM203 768h-118v101h118v-101z" />
    <glyph glyph-name="dotlessi" unicode="&#x131;" horiz-adv-x="251" 
d="M179 0h-107v500h107v-500z" />
    <glyph glyph-name="Jcircumflex" unicode="&#x134;" horiz-adv-x="509" 
d="M-3 87l97 55c25.333 -33.333 59 -50 101 -50c42.667 0 73.667 13.833 93 41.5s29 74.167 29 139.5v417h116v-417c0 -188 -77.667 -282 -233 -282c-92 0 -159.667 32 -203 96zM194 738l138 142h100l138 -142h-117l-71 75l-71 -75h-117z" />
    <glyph glyph-name="jcircumflex" unicode="&#x135;" horiz-adv-x="244" 
d="M75 500h106.001v-531c0 -58 -13.833 -99 -41.5 -123s-74.167 -36 -139.5 -36v94c29.333 0 49.166 6.5 59.499 19.5s15.5 34.5 15.5 64.5v512zM-32.999 558l108 142h100l108 -142h-102l-56 77l-56 -77h-102z" />
    <glyph glyph-name="Kcommaaccent" unicode="&#x136;" horiz-adv-x="642" 
d="M370 412l263 -412h-139l-200 315l-102 -131v-184h-116v690h116v-333l254 333h142zM262 -57h119v-114l-119 -102v216z" />
    <glyph glyph-name="kcommaaccent" unicode="&#x137;" horiz-adv-x="495" 
d="M164 305l167 195h131l-191 -215l221 -285h-129l-165 202l-34 -38v-164h-107v690h107v-385zM197 -57h119v-114l-119 -102v216z" />
    <glyph glyph-name="Lacute" unicode="&#x139;" horiz-adv-x="503" 
d="M76 690h116v-590h307v-100h-423v690zM191 744h-103l80 129h126z" />
    <glyph glyph-name="lacute" unicode="&#x13a;" horiz-adv-x="282" 
d="M57 157v533h107v-508c0 -31.333 5.33301 -53.833 16 -67.5s30.667 -20.5 60 -20.5v-94c-66 -0 -113 11.833 -141 35.5s-42 64.167 -42 121.5zM163 734h-101l70 158h122z" />
    <glyph glyph-name="Lcommaaccent" unicode="&#x13b;" horiz-adv-x="503" 
d="M76 690h116v-590h307v-100h-423v690zM228 -57h119v-114l-119 -102v216z" />
    <glyph glyph-name="lcommaaccent" unicode="&#x13c;" horiz-adv-x="282" 
d="M57 157v533h107v-508c0 -31.333 5.33301 -53.833 16 -67.5s30.667 -20.5 60 -20.5v-94c-66 -0 -113 11.833 -141 35.5s-42 64.167 -42 121.5zM94 -57h119v-114l-119 -102v216z" />
    <glyph glyph-name="Lcaron" unicode="&#x13d;" horiz-adv-x="503" 
d="M76 690h116v-590h307v-100h-423v690zM305 721h113v-174l-113 -96v270z" />
    <glyph glyph-name="lcaron" unicode="&#x13e;" horiz-adv-x="284" 
d="M57 157v533h107v-508c0 -31.333 5.33301 -53.833 16 -67.5s30.667 -20.5 60 -20.5v-94c-66 -0 -113 11.833 -141 35.5s-42 64.167 -42 121.5zM222 689h119v-114l-119 -102v216z" />
    <glyph glyph-name="Ldot" unicode="&#x13f;" horiz-adv-x="503" 
d="M76 690h116v-590h307v-100h-423v690zM448 341h-116v109h116v-109z" />
    <glyph glyph-name="ldot" unicode="&#x140;" horiz-adv-x="344" 
d="M57 157v533h107v-508c0 -31.333 5.33301 -53.833 16 -67.5s30.667 -20.5 60 -20.5v-94c-66 -0 -113 11.833 -141 35.5s-42 64.167 -42 121.5zM345 352h-118v101h118v-101z" />
    <glyph glyph-name="Lslash" unicode="&#x141;" horiz-adv-x="530" 
d="M103 690h116v-216l112 90l59 -75l-171 -137v-252h307v-100h-423v259l-63 -50l-59 75l122 97v309z" />
    <glyph glyph-name="lslash" unicode="&#x142;" horiz-adv-x="290" 
d="M87 275l-57 -39l-40 60l97 67v327h107v-254l69 48l40 -59l-109 -76v-167c0 -31.333 5.33301 -53.833 16 -67.5s30.667 -20.5 60 -20.5v-94c-66 -0 -113 11.833 -141 35.5s-42 64.167 -42 121.5v118z" />
    <glyph glyph-name="Nacute" unicode="&#x143;" horiz-adv-x="648" 
d="M460 215v475h112v-690h-103l-281 469v-469h-112v690h100zM368 744h-103l80 129h126z" />
    <glyph glyph-name="nacute" unicode="&#x144;" horiz-adv-x="526" 
d="M164 0h-107v500h105v-45c26.667 36 68 54 124 54c57.333 0 102 -16.167 134 -48.5s48 -81.5 48 -147.5v-313h-106v301c0 75.333 -31.667 113 -95 113c-32 0 -57.167 -10.167 -75.5 -30.5s-27.5 -47.5 -27.5 -81.5v-302zM301 567h-101l70 158h122z" />
    <glyph glyph-name="Ncommaaccent" unicode="&#x145;" horiz-adv-x="648" 
d="M460 215v475h112v-690h-103l-281 469v-469h-112v690h100zM267 -57h119v-114l-119 -102v216z" />
    <glyph glyph-name="ncommaaccent" unicode="&#x146;" horiz-adv-x="526" 
d="M164 0h-107v500h105v-45c26.667 36 68 54 124 54c57.333 0 102 -16.167 134 -48.5s48 -81.5 48 -147.5v-313h-106v301c0 75.333 -31.667 113 -95 113c-32 0 -57.167 -10.167 -75.5 -30.5s-27.5 -47.5 -27.5 -81.5v-302zM205 -57h119v-114l-119 -102v216z" />
    <glyph glyph-name="Ncaron" unicode="&#x147;" horiz-adv-x="648" 
d="M460 215v475h112v-690h-103l-281 469v-469h-112v690h100zM512 880l-138 -142h-100l-138 142h117l71 -75l71 75h117z" />
    <glyph glyph-name="ncaron" unicode="&#x148;" horiz-adv-x="526" 
d="M164 0h-107v500h105v-45c26.667 36 68 54 124 54c57.333 0 102 -16.167 134 -48.5s48 -81.5 48 -147.5v-313h-106v301c0 75.333 -31.667 113 -95 113c-32 0 -57.167 -10.167 -75.5 -30.5s-27.5 -47.5 -27.5 -81.5v-302zM422 700l-108 -142h-100l-108 142h102l56 -77
l56 77h102z" />
    <glyph glyph-name="Omacron" unicode="&#x14c;" horiz-adv-x="613" 
d="M565 389v-88c0 -102.667 -22.667 -180 -68 -232s-109 -78 -191 -78s-145.5 26 -190.5 78s-67.5 129.333 -67.5 232v88c0 102.667 22.5 180 67.5 232s108.5 78 190.5 78s145.667 -26 191 -78s68 -129.333 68 -232zM164 389v-88c0 -72 11.667 -124.833 35 -158.5
s59 -50.5 107 -50.5s83.833 16.833 107.5 50.5s35.5 86.5 35.5 158.5v88c0 72 -11.833 124.833 -35.5 158.5s-59.5 50.5 -107.5 50.5s-83.667 -16.833 -107 -50.5s-35 -86.5 -35 -158.5zM465 755h-317v94h317v-94z" />
    <glyph glyph-name="omacron" unicode="&#x14d;" horiz-adv-x="497" 
d="M461 282v-63c0 -71.333 -18 -127.166 -54 -167.499s-88.667 -60.5 -158 -60.5c-68 0 -120.5 20.167 -157.5 60.5s-55.5 96.166 -55.5 167.499v63c0 73.333 18.5 129.5 55.5 168.5s89.5 58.5 157.5 58.5s120.333 -19.5 157 -58.5s55 -95.167 55 -168.5zM249 83
c35.333 0 61.833 12.333 79.5 37s26.5 58.667 26.5 102v58c0 90.667 -35.333 136 -106 136c-71.333 0 -107 -45.333 -107 -136v-58c0 -92.667 35.667 -139 107 -139zM388 585h-277v94h277v-94z" />
    <glyph glyph-name="Ohungarumlaut" unicode="&#x150;" horiz-adv-x="613" 
d="M565 389v-88c0 -102.667 -22.667 -180 -68 -232s-109 -78 -191 -78s-145.5 26 -190.5 78s-67.5 129.333 -67.5 232v88c0 102.667 22.5 180 67.5 232s108.5 78 190.5 78s145.667 -26 191 -78s68 -129.333 68 -232zM164 389v-88c0 -72 11.667 -124.833 35 -158.5
s59 -50.5 107 -50.5s83.833 16.833 107.5 50.5s35.5 86.5 35.5 158.5v88c0 72 -11.833 124.833 -35.5 158.5s-59.5 50.5 -107.5 50.5s-83.667 -16.833 -107 -50.5s-35 -86.5 -35 -158.5zM247 744h-104l80 129h127zM435 744h-103l90 129h126z" />
    <glyph glyph-name="ohungarumlaut" unicode="&#x151;" horiz-adv-x="497" 
d="M461 282v-63c0 -71.333 -18 -127.166 -54 -167.499s-88.667 -60.5 -158 -60.5c-68 0 -120.5 20.167 -157.5 60.5s-55.5 96.166 -55.5 167.499v63c0 73.333 18.5 129.5 55.5 168.5s89.5 58.5 157.5 58.5s120.333 -19.5 157 -58.5s55 -95.167 55 -168.5zM249 83
c35.333 0 61.833 12.333 79.5 37s26.5 58.667 26.5 102v58c0 90.667 -35.333 136 -106 136c-71.333 0 -107 -45.333 -107 -136v-58c0 -92.667 35.667 -139 107 -139zM209 567h-101l70 158h122zM374 567h-101l90 158h122z" />
    <glyph glyph-name="OE" unicode="&#x152;" horiz-adv-x="906" 
d="M449 690h423v-101h-307v-182h277v-100h-277v-207h307v-100h-423v39c-32.667 -32 -80.334 -48 -143.001 -48c-82 0 -145.5 26 -190.5 78s-67.5 129.333 -67.5 232v88c0 102.667 22.5 180 67.5 232s108.5 78 190.5 78c62.667 0 110.334 -16 143.001 -48v39zM164 389v-88
c0 -72 11.667 -124.833 35 -158.5s59 -50.5 107 -50.5c95.333 0 143 66 143 198v99c0 72 -11.833 124.833 -35.5 158.5s-59.5 50.5 -107.5 50.5s-83.667 -16.833 -107 -50.5s-35 -86.5 -35 -158.5z" />
    <glyph glyph-name="oe" unicode="&#x153;" horiz-adv-x="806" 
d="M673 132l79.999 -56c-18 -30 -41 -51.667 -69 -65s-65.333 -20 -112 -20c-72.667 0 -126.667 25.667 -162 77c-32 -51.333 -85.667 -77 -161 -77c-67.333 0 -119.666 20 -156.999 60s-56 95.333 -56 166v68c0 71.333 18.5 126.5 55.5 165.5s89.5 58.5 157.5 58.5
c73.333 0 126.333 -24.333 159 -73c32 48.667 82.667 73 152 73c65.333 0 115 -19.667 149 -59s51 -96 51 -170v-58h-299v-5c0 -42 9.5 -74.833 28.5 -98.5s45.833 -35.5 80.5 -35.5c48 0 82.333 16.333 103 49zM248.999 83c34.667 0 61 12 79 36s27 56.667 27 98v68
c0 42 -9.16699 74.333 -27.5 97s-44.5 34 -78.5 34c-34.667 0 -61.167 -11.333 -79.5 -34s-27.5 -55 -27.5 -97v-68c0 -89.333 35.667 -134 107 -134zM556.999 416c-59.333 0 -91 -37.333 -95 -112h191c-2.66699 74.667 -34.667 112 -96 112z" />
    <glyph glyph-name="Racute" unicode="&#x154;" horiz-adv-x="611" 
d="M440 299l147 -299h-128l-133 280h-134v-280h-116v690h235c81.333 0 144 -17.667 188 -53s66 -86.333 66 -153c0 -93.333 -41.667 -155 -125 -185zM192 589v-208.999h111c51.333 0 88.5 8 111.5 24s34.5 42.667 34.5 80s-11.5 64.166 -34.5 80.499
s-60.167 24.5 -111.5 24.5h-111zM318 744.001h-103l80 129h126z" />
    <glyph glyph-name="racute" unicode="&#x155;" horiz-adv-x="403" 
d="M413 435l-84.999 -60c-18 26 -42 39 -72 39c-28 0 -50.333 -9.83301 -67 -29.5s-25 -47.167 -25 -82.5v-302h-107v500h105v-45c22.667 36 60 54 112 54c61.333 0 107.666 -24.667 138.999 -74zM243.001 567h-101l70 158h122z" />
    <glyph glyph-name="Rcommaaccent" unicode="&#x156;" horiz-adv-x="611" 
d="M440 299l147 -299h-128l-133 280h-134v-280h-116v690h235c81.333 0 144 -17.667 188 -53s66 -86.333 66 -153c0 -93.333 -41.667 -155 -125 -185zM192 589v-208.999h111c51.333 0 88.5 8 111.5 24s34.5 42.667 34.5 80s-11.5 64.166 -34.5 80.499
s-60.167 24.5 -111.5 24.5h-111zM250 -56.999h119v-114l-119 -102v216z" />
    <glyph glyph-name="rcommaaccent" unicode="&#x157;" horiz-adv-x="403" 
d="M413 435l-84.999 -60c-18 26 -42 39 -72 39c-28 0 -50.333 -9.83301 -67 -29.5s-25 -47.167 -25 -82.5v-302h-107v500h105v-45c22.667 36 60 54 112 54c61.333 0 107.666 -24.667 138.999 -74zM52.001 -57h119v-114l-119 -102v216z" />
    <glyph glyph-name="Rcaron" unicode="&#x158;" horiz-adv-x="611" 
d="M440 299l147 -299h-128l-133 280h-134v-280h-116v690h235c81.333 0 144 -17.667 188 -53s66 -86.333 66 -153c0 -93.333 -41.667 -155 -125 -185zM192 589v-208.999h111c51.333 0 88.5 8 111.5 24s34.5 42.667 34.5 80s-11.5 64.166 -34.5 80.499
s-60.167 24.5 -111.5 24.5h-111zM489 880.001l-138 -142h-100l-138 142h117l71 -75l71 75h117z" />
    <glyph glyph-name="rcaron" unicode="&#x159;" horiz-adv-x="403" 
d="M413 435l-84.999 -60c-18 26 -42 39 -72 39c-28 0 -50.333 -9.83301 -67 -29.5s-25 -47.167 -25 -82.5v-302h-107v500h105v-45c22.667 36 60 54 112 54c61.333 0 107.666 -24.667 138.999 -74zM389.001 700l-108 -142h-100l-108 142h102l56 -77l56 77h102z" />
    <glyph glyph-name="Sacute" unicode="&#x15a;" horiz-adv-x="573" 
d="M523 586l-88.002 -63c-19.333 26.667 -40.166 45.834 -62.499 57.501s-51.166 17.5 -86.499 17.5c-36 0 -63.833 -7.83301 -83.5 -23.5s-29.5 -37.834 -29.5 -66.501c0 -30.667 11.333 -54.167 34 -70.5s60.667 -30.5 114 -42.5c74.667 -16.667 128.5 -40.5 161.5 -71.5
s49.5 -75.833 49.5 -134.5c0 -56 -19.667 -103 -59 -141s-98 -57 -176 -57c-116 0 -202 37.667 -258 113l91 63c22.667 -26.667 46 -45.834 70 -57.501s54.333 -17.5 91 -17.5c83.333 0 125 30.667 125 92c0 29.333 -11.167 52.833 -33.5 70.5s-61.5 32.5 -117.5 44.5
c-138.667 28.667 -208 98.334 -208 209.001c0 58 19.667 104.333 59 139s96.333 52 171 52c108 0 186.667 -37.667 236 -113zM321.998 744h-103l80 129h126z" />
    <glyph glyph-name="sacute" unicode="&#x15b;" horiz-adv-x="465" 
d="M413 426l-78.998 -57.001c-12.667 16.667 -27 28.334 -43 35.001s-38 10 -66 10c-52 0 -78 -17 -78 -51c0 -18.667 7.5 -32.667 22.5 -42s39.167 -16 72.5 -20c61.333 -6.66699 107.166 -22.5 137.499 -47.5s45.5 -61.833 45.5 -110.5c0 -48 -16.5 -85.333 -49.5 -112
s-80.5 -40 -142.5 -40c-92.667 0 -159.667 27.667 -201 83l81 58c23.333 -31.333 63 -47 119 -47c27.333 0 48.666 4.83301 63.999 14.5s23 23.167 23 40.5c0 19.333 -7.16699 33.333 -21.5 42s-41.833 15.667 -82.5 21c-116.667 14.667 -175 67 -175 157
c0 46 16.333 82.333 49 109s78.667 40 138 40c88.667 0 150.667 -27.667 186 -83zM263.002 566.999h-101l70 158h122z" />
    <glyph glyph-name="Scircumflex" unicode="&#x15c;" horiz-adv-x="573" 
d="M523 586l-88.002 -63c-19.333 26.667 -40.166 45.834 -62.499 57.501s-51.166 17.5 -86.499 17.5c-36 0 -63.833 -7.83301 -83.5 -23.5s-29.5 -37.834 -29.5 -66.501c0 -30.667 11.333 -54.167 34 -70.5s60.667 -30.5 114 -42.5c74.667 -16.667 128.5 -40.5 161.5 -71.5
s49.5 -75.833 49.5 -134.5c0 -56 -19.667 -103 -59 -141s-98 -57 -176 -57c-116 0 -202 37.667 -258 113l91 63c22.667 -26.667 46 -45.834 70 -57.501s54.333 -17.5 91 -17.5c83.333 0 125 30.667 125 92c0 29.333 -11.167 52.833 -33.5 70.5s-61.5 32.5 -117.5 44.5
c-138.667 28.667 -208 98.334 -208 209.001c0 58 19.667 104.333 59 139s96.333 52 171 52c108 0 186.667 -37.667 236 -113zM102.998 738l138 142h100l138 -142h-117l-71 75l-71 -75h-117z" />
    <glyph glyph-name="scircumflex" unicode="&#x15d;" horiz-adv-x="465" 
d="M413 426l-78.998 -57.001c-12.667 16.667 -27 28.334 -43 35.001s-38 10 -66 10c-52 0 -78 -17 -78 -51c0 -18.667 7.5 -32.667 22.5 -42s39.167 -16 72.5 -20c61.333 -6.66699 107.166 -22.5 137.499 -47.5s45.5 -61.833 45.5 -110.5c0 -48 -16.5 -85.333 -49.5 -112
s-80.5 -40 -142.5 -40c-92.667 0 -159.667 27.667 -201 83l81 58c23.333 -31.333 63 -47 119 -47c27.333 0 48.666 4.83301 63.999 14.5s23 23.167 23 40.5c0 19.333 -7.16699 33.333 -21.5 42s-41.833 15.667 -82.5 21c-116.667 14.667 -175 67 -175 157
c0 46 16.333 82.333 49 109s78.667 40 138 40c88.667 0 150.667 -27.667 186 -83zM72.002 557.999l108 142h100l108 -142h-102l-56 77l-56 -77h-102z" />
    <glyph glyph-name="Scedilla" unicode="&#x15e;" horiz-adv-x="573" 
d="M244 -71l11.998 64c-96 7.33301 -168.333 44.333 -217 111l91 63c22.667 -26.667 46 -45.834 70 -57.501s54.333 -17.5 91 -17.5c83.333 0 125 30.667 125 92c0 29.333 -11.167 52.833 -33.5 70.5s-61.5 32.5 -117.5 44.5c-138.667 28.667 -208 98.334 -208 209.001
c0 58 19.667 104.333 59 139s96.333 52 171 52c108 0 186.667 -37.667 236 -113l-88 -63c-19.333 26.667 -40.166 45.834 -62.499 57.501s-51.166 17.5 -86.499 17.5c-36 0 -63.833 -7.83301 -83.5 -23.5s-29.5 -37.834 -29.5 -66.501c0 -30.667 11.333 -54.167 34 -70.5
s60.667 -30.5 114 -42.5c74.667 -16.667 128.5 -40.5 161.5 -71.5s49.5 -75.833 49.5 -134.5c0 -54.667 -17.833 -100 -53.5 -136s-86.5 -56.333 -152.5 -61l-4 -14c37.333 -14 56 -38.667 56 -74c0 -25.333 -10.5 -45.5 -31.5 -60.5s-48.833 -22.5 -83.5 -22.5
c-20 0 -34 1 -42 3l14 59c2.66699 -0.666992 9 -1 19 -1c26 0 39 8 39 24c0 15.333 -16.333 23 -49 23z" />
    <glyph glyph-name="scedilla" unicode="&#x15f;" horiz-adv-x="465" 
d="M189 -71l12.002 62.999c-76 4.66699 -132.333 32 -169 82l81 58c23.333 -31.333 63 -47 119 -47c27.333 0 48.666 4.83301 63.999 14.5s23 23.167 23 40.5c0 19.333 -7.16699 33.333 -21.5 42s-41.833 15.667 -82.5 21c-116.667 14.667 -175 67 -175 157
c0 46 16.333 82.333 49 109s78.667 40 138 40c88.667 0 150.667 -27.667 186 -83l-79 -57c-12.667 16.667 -27 28.334 -43 35.001s-38 10 -66 10c-52 0 -78 -17 -78 -51c0 -18.667 7.5 -32.667 22.5 -42s39.167 -16 72.5 -20c61.333 -6.66699 107.166 -22.5 137.499 -47.5
s45.5 -61.833 45.5 -110.5c0 -42.667 -13.167 -77 -39.5 -103s-64.5 -41.667 -114.5 -47l-4 -15c37.333 -14 56 -38.667 56 -74c0 -25.333 -10.5 -45.5 -31.5 -60.5s-48.833 -22.5 -83.5 -22.5c-20 0 -34 1 -42 3l14 59c2.66699 -0.666992 9 -1 19 -1c26 0 39 8 39 24
c0 15.333 -16.333 23 -49 23z" />
    <glyph glyph-name="Scaron" unicode="&#x160;" horiz-adv-x="573" 
d="M523 586l-88.002 -63c-19.333 26.667 -40.166 45.834 -62.499 57.501s-51.166 17.5 -86.499 17.5c-36 0 -63.833 -7.83301 -83.5 -23.5s-29.5 -37.834 -29.5 -66.501c0 -30.667 11.333 -54.167 34 -70.5s60.667 -30.5 114 -42.5c74.667 -16.667 128.5 -40.5 161.5 -71.5
s49.5 -75.833 49.5 -134.5c0 -56 -19.667 -103 -59 -141s-98 -57 -176 -57c-116 0 -202 37.667 -258 113l91 63c22.667 -26.667 46 -45.834 70 -57.501s54.333 -17.5 91 -17.5c83.333 0 125 30.667 125 92c0 29.333 -11.167 52.833 -33.5 70.5s-61.5 32.5 -117.5 44.5
c-138.667 28.667 -208 98.334 -208 209.001c0 58 19.667 104.333 59 139s96.333 52 171 52c108 0 186.667 -37.667 236 -113zM471.998 880l-138 -142h-100l-138 142h117l71 -75l71 75h117z" />
    <glyph glyph-name="scaron" unicode="&#x161;" horiz-adv-x="465" 
d="M413 426l-78.998 -57.001c-12.667 16.667 -27 28.334 -43 35.001s-38 10 -66 10c-52 0 -78 -17 -78 -51c0 -18.667 7.5 -32.667 22.5 -42s39.167 -16 72.5 -20c61.333 -6.66699 107.166 -22.5 137.499 -47.5s45.5 -61.833 45.5 -110.5c0 -48 -16.5 -85.333 -49.5 -112
s-80.5 -40 -142.5 -40c-92.667 0 -159.667 27.667 -201 83l81 58c23.333 -31.333 63 -47 119 -47c27.333 0 48.666 4.83301 63.999 14.5s23 23.167 23 40.5c0 19.333 -7.16699 33.333 -21.5 42s-41.833 15.667 -82.5 21c-116.667 14.667 -175 67 -175 157
c0 46 16.333 82.333 49 109s78.667 40 138 40c88.667 0 150.667 -27.667 186 -83zM388.002 699.999l-108 -142h-100l-108 142h102l56 -77l56 77h102z" />
    <glyph glyph-name="Tcedilla" unicode="&#x162;" horiz-adv-x="527" 
d="M214 -71l14 71h-22v589h-199v101h513v-101h-198v-589h-24l-6 -22c37.333 -14 56 -38.667 56 -74c0 -25.333 -10.5 -45.5 -31.5 -60.5s-48.833 -22.5 -83.5 -22.5c-20 0 -34 1 -42 3l14 59c2.66699 -0.666992 9 -1 19 -1c26 0 39 8 39 24c0 15.333 -16.333 23 -49 23z" />
    <glyph glyph-name="tcedilla" unicode="&#x163;" horiz-adv-x="324" 
d="M157 -71l15 78c-32.667 8 -56 23.833 -70 47.5s-21 58.5 -21 104.5v249h-64v92h64v110h106v-110h106v-92h-106v-229c0 -31.333 4.33301 -53 13 -65s26 -18 52 -18h41v-96h-52l-6 -22c37.333 -14 56 -38.667 56 -74c0 -25.333 -10.5 -45.5 -31.5 -60.5
s-48.833 -22.5 -83.5 -22.5c-20 0 -34 1 -42 3l14 59c2.66699 -0.666992 9 -1 19 -1c26 0 39 8 39 24c0 15.333 -16.333 23 -49 23z" />
    <glyph glyph-name="Tcaron" unicode="&#x164;" horiz-adv-x="527" 
d="M7 589v101h513v-101h-198v-589h-116v589h-199zM451 880l-138 -142h-100l-138 142h117l71 -75l71 75h117z" />
    <glyph glyph-name="tcaron" unicode="&#x165;" horiz-adv-x="369" 
d="M81 408l-64 -0.000976562v92h64v110h106v-110h106v-92h-106v-229c0 -31.333 4.33301 -53 13 -65s26 -18 52 -18h41v-96h-49c-60 0 -102.167 11.833 -126.5 35.5s-36.5 64.834 -36.5 123.501v249zM310 688.999h119v-114l-119 -102v216z" />
    <glyph glyph-name="Umacron" unicode="&#x16a;" horiz-adv-x="668" 
d="M476 279v411h116v-410c0 -96 -22.5 -168.167 -67.5 -216.5s-108.5 -72.5 -190.5 -72.5s-145.5 24 -190.5 72s-67.5 120 -67.5 216v411h116v-411c0 -64.667 11.5 -112 34.5 -142s58.833 -45 107.5 -45s84.5 15 107.5 45s34.5 77.333 34.5 142zM492 755h-317v94h317v-94z
" />
    <glyph glyph-name="umacron" unicode="&#x16b;" horiz-adv-x="526" 
d="M362 500h105.998v-500h-105v45c-12.667 -19.333 -28.167 -33.166 -46.5 -41.499s-43.833 -12.5 -76.5 -12.5c-57.333 0 -102.166 16.333 -134.499 49s-48.5 82 -48.5 148v312h107v-301c0 -40.667 8 -69.834 24 -87.501s40 -26.5 72 -26.5c32.667 0 57.834 10 75.501 30
s26.5 47.667 26.5 83v302zM401.998 585h-277v94h277v-94z" />
    <glyph glyph-name="Ubreve" unicode="&#x16c;" horiz-adv-x="668" 
d="M476 279v411h116v-410c0 -96 -22.5 -168.167 -67.5 -216.5s-108.5 -72.5 -190.5 -72.5s-145.5 24 -190.5 72s-67.5 120 -67.5 216v411h116v-411c0 -64.667 11.5 -112 34.5 -142s58.833 -45 107.5 -45s84.5 15 107.5 45s34.5 77.333 34.5 142zM426 879h96.999
c0 -48 -17 -85.333 -51 -112s-79.667 -40 -137 -40s-103.166 13.333 -137.499 40s-51.5 64 -51.5 112h97c7.33301 -42 38 -63 92 -63c54.667 0 85 21 91 63z" />
    <glyph glyph-name="ubreve" unicode="&#x16d;" horiz-adv-x="526" 
d="M362 500h105.998v-500h-105v45c-12.667 -19.333 -28.167 -33.166 -46.5 -41.499s-43.833 -12.5 -76.5 -12.5c-57.333 0 -102.166 16.333 -134.499 49s-48.5 82 -48.5 148v312h107v-301c0 -40.667 8 -69.834 24 -87.501s40 -26.5 72 -26.5c32.667 0 57.834 10 75.501 30
s26.5 47.667 26.5 83v302zM325.998 690h80c-1.33301 -40.667 -14.5 -71.834 -39.5 -93.501s-59.5 -32.5 -103.5 -32.5c-44.667 0 -79.5 10.833 -104.5 32.5s-38.167 52.834 -39.5 93.501h81c4 -37.333 25 -56 63 -56s59 18.667 63 56z" />
    <glyph glyph-name="Uring" unicode="&#x16e;" horiz-adv-x="668" 
d="M476 279v411h116v-410c0 -96 -22.5 -168.167 -67.5 -216.5s-108.5 -72.5 -190.5 -72.5s-145.5 24 -190.5 72s-67.5 120 -67.5 216v411h116v-411c0 -64.667 11.5 -112 34.5 -142s58.833 -45 107.5 -45s84.5 15 107.5 45s34.5 77.333 34.5 142zM221 800
c0 29.333 10.667 53.167 32 71.5s48.333 27.5 81 27.5c34 0 61.5 -9 82.5 -27s31.5 -42 31.5 -72c0 -29.333 -10.5 -53 -31.5 -71s-48.5 -27 -82.5 -27c-32.667 0 -59.667 9 -81 27s-32 41.667 -32 71zM288 800.001c0 -12 4.16699 -21.333 12.5 -28s19.5 -10 33.5 -10
c30.667 0 46 12.667 46 38s-15.333 38 -46 38s-46 -12.667 -46 -38z" />
    <glyph glyph-name="uring" unicode="&#x16f;" horiz-adv-x="526" 
d="M362 500h105.998v-500h-105v45c-12.667 -19.333 -28.167 -33.166 -46.5 -41.499s-43.833 -12.5 -76.5 -12.5c-57.333 0 -102.166 16.333 -134.499 49s-48.5 82 -48.5 148v312h107v-301c0 -40.667 8 -69.834 24 -87.501s40 -26.5 72 -26.5c32.667 0 57.834 10 75.501 30
s26.5 47.667 26.5 83v302zM179.998 568c-22 21.333 -33 47.333 -33 78s11 56.667 33 78c22.667 21.333 50.667 32 84 32s61.333 -10.667 84 -32c22 -21.333 33 -47.333 33 -78s-11 -56.667 -33 -78c-21.333 -20.667 -49.333 -31 -84 -31s-62.667 10.333 -84 31zM230.998 681
c-8.66699 -8.66699 -13 -20.334 -13 -35.001s4.33301 -26.667 13 -36s19.667 -14 33 -14s24.333 4.66699 33 14s13 21.333 13 36s-4.33301 26.334 -13 35.001c-8.66699 9.33301 -19.667 14 -33 14s-24.333 -4.66699 -33 -14z" />
    <glyph glyph-name="Uhungarumlaut" unicode="&#x170;" horiz-adv-x="668" 
d="M476 279v411h116v-410c0 -96 -22.5 -168.167 -67.5 -216.5s-108.5 -72.5 -190.5 -72.5s-145.5 24 -190.5 72s-67.5 120 -67.5 216v411h116v-411c0 -64.667 11.5 -112 34.5 -142s58.833 -45 107.5 -45s84.5 15 107.5 45s34.5 77.333 34.5 142zM282 744h-104l80 129h127z
M470 744h-103l90 129h126z" />
    <glyph glyph-name="uhungarumlaut" unicode="&#x171;" horiz-adv-x="526" 
d="M362 500h105.998v-500h-105v45c-12.667 -19.333 -28.167 -33.166 -46.5 -41.499s-43.833 -12.5 -76.5 -12.5c-57.333 0 -102.166 16.333 -134.499 49s-48.5 82 -48.5 148v312h107v-301c0 -40.667 8 -69.834 24 -87.501s40 -26.5 72 -26.5c32.667 0 57.834 10 75.501 30
s26.5 47.667 26.5 83v302zM226.998 567h-101l70 158h122zM391.998 567h-101l90 158h122z" />
    <glyph glyph-name="Uogonek" unicode="&#x172;" horiz-adv-x="668" 
d="M476 279l-0.000976562 410.999h116v-410c0 -85.333 -18 -152 -54 -200s-86.667 -76.333 -152 -85c-30 -23.333 -45 -42.666 -45 -57.999c0 -16.667 11.667 -25 35 -25c2.66699 0 9.33398 0.666992 20.001 2l14 -59c-6 -2.66699 -21.667 -4 -47 -4
c-30.667 0 -56.167 6.5 -76.5 19.5s-30.5 31.833 -30.5 56.5c0 25.333 9.66699 47.666 29 66.999c-67.333 8.66699 -119 36.834 -155 84.501s-54 114.5 -54 200.5v411h116v-411c0 -64.667 11.5 -112 34.5 -142s58.833 -45 107.5 -45s84.5 15 107.5 45s34.5 77.333 34.5 142z
" />
    <glyph glyph-name="uogonek" unicode="&#x173;" horiz-adv-x="526" 
d="M362 500h105.997v-497l1 -3c-20 -14.667 -34 -26.5 -42 -35.5s-12 -18.5 -12 -28.5c0 -16.667 11.667 -25 35 -25c2.66699 0 9.33398 0.666992 20.001 2l14 -59c-6 -2.66699 -21.667 -4 -47 -4c-29.333 0 -54.333 6.33301 -75 19c-21.333 12 -32 31 -32 57
s11 50.667 33 74v45c-12.667 -19.333 -28.167 -33.166 -46.5 -41.499s-43.833 -12.5 -76.5 -12.5c-57.333 0 -102.166 16.333 -134.499 49s-48.5 82 -48.5 148v312h107v-301c0 -40.667 8 -69.834 24 -87.501s40 -26.5 72 -26.5c32.667 0 57.834 10 75.501 30
s26.5 47.667 26.5 83v302z" />
    <glyph glyph-name="Ydieresis" unicode="&#x178;" horiz-adv-x="571" 
d="M227 288l-215 402h135l138 -276l139 276h134l-215 -402v-288h-116v288zM236 764h-108v105h108v-105zM443 764h-109v105h109v-105z" />
    <glyph glyph-name="Zacute" unicode="&#x179;" 
d="M30 589v101h453v-77l-305 -513h315v-100h-463v77l305 512h-305zM297 744h-103l80 129h126z" />
    <glyph glyph-name="zacute" unicode="&#x17a;" horiz-adv-x="449" 
d="M35 0v77l239 331h-238v92h377v-77l-237 -331h241v-92h-382zM273 567h-101l70 158h122z" />
    <glyph glyph-name="Zdotaccent" unicode="&#x17b;" 
d="M30 589v101h453v-77l-305 -513h315v-100h-463v77l305 512h-305zM321 768h-118v101h118v-101z" />
    <glyph glyph-name="zdotaccent" unicode="&#x17c;" horiz-adv-x="449" 
d="M35 0v77l239 331h-238v92h377v-77l-237 -331h241v-92h-382zM289 581h-116v109h116v-109z" />
    <glyph glyph-name="Zcaron" unicode="&#x17d;" 
d="M30 589v101h453v-77l-305 -513h315v-100h-463v77l305 512h-305zM455 880l-138 -142h-100l-138 142h117l71 -75l71 75h117z" />
    <glyph glyph-name="zcaron" unicode="&#x17e;" horiz-adv-x="449" 
d="M35 0v77l239 331h-238v92h377v-77l-237 -331h241v-92h-382zM392 700l-108 -142h-100l-108 142h102l56 -77l56 77h102z" />
    <glyph glyph-name="uni018F" unicode="&#x18f;" horiz-adv-x="603" 
d="M48 301l-0.000976562 57.999h396v30c0 72 -11.667 124.833 -35 158.5s-59 50.5 -107 50.5c-76 0 -122 -40.667 -138 -122h-112c10.667 72 37.5 127.167 80.5 165.5s99.5 57.5 169.5 57.5c82.667 0 146.334 -26.167 191.001 -78.5s67 -131.166 67 -236.499v-83
c0 -102.667 -22.5 -180 -67.5 -232s-108.5 -78 -190.5 -78c-81.333 0 -144 25.833 -188 77.5s-66 129.167 -66 232.5zM301.999 91.999c43.333 0 76.332 13.167 98.999 39.5s36.334 68.5 41.001 126.5h-281c6.66699 -110.667 53.667 -166 141 -166z" />
    <glyph glyph-name="florin" unicode="&#x192;" horiz-adv-x="522" 
d="M128 399v101h64v31c0 58 12.833 99 38.5 123s68.834 36 129.501 36h31v-101h-21c-26 0 -43.333 -5.66699 -52 -17s-13 -32 -13 -62v-10h86v-101h-86v-430c0 -57.333 -14.667 -98.166 -44 -122.499s-77.333 -36.5 -144 -36.5v101c29.333 0 49.166 6.16699 59.499 18.5
s15.5 33.166 15.5 62.499v407h-64z" />
    <glyph glyph-name="uni01DD" unicode="&#x1dd;" horiz-adv-x="487" 
d="M133 368l-80.001 56c32.667 56.667 92.334 85 179.001 85c69.333 0 123.166 -20.333 161.499 -61s57.5 -95.667 57.5 -165v-68c0 -73.333 -17.333 -129 -52 -167s-85 -57 -151 -57c-134.667 0 -202 76.667 -202 230v55h299v2c0 43.333 -9 77.333 -27 102
s-45.333 37 -82 37c-27.333 0 -48.666 -3.83301 -63.999 -11.5s-28.333 -20.167 -39 -37.5zM247.999 84c58.667 0 90.667 36.667 96 110h-191c4 -73.333 35.667 -110 95 -110z" />
    <glyph glyph-name="Scommaaccent" unicode="&#x218;" horiz-adv-x="573" 
d="M523 586l-88.002 -63c-19.333 26.667 -40.166 45.834 -62.499 57.501s-51.166 17.5 -86.499 17.5c-36 0 -63.833 -7.83301 -83.5 -23.5s-29.5 -37.834 -29.5 -66.501c0 -30.667 11.333 -54.167 34 -70.5s60.667 -30.5 114 -42.5c74.667 -16.667 128.5 -40.5 161.5 -71.5
s49.5 -75.833 49.5 -134.5c0 -56 -19.667 -103 -59 -141s-98 -57 -176 -57c-116 0 -202 37.667 -258 113l91 63c22.667 -26.667 46 -45.834 70 -57.501s54.333 -17.5 91 -17.5c83.333 0 125 30.667 125 92c0 29.333 -11.167 52.833 -33.5 70.5s-61.5 32.5 -117.5 44.5
c-138.667 28.667 -208 98.334 -208 209.001c0 58 19.667 104.333 59 139s96.333 52 171 52c108 0 186.667 -37.667 236 -113zM242.998 -57h118v-114l-118 -102v216z" />
    <glyph glyph-name="scommaaccent" unicode="&#x219;" horiz-adv-x="465" 
d="M413 426l-78.998 -57.001c-12.667 16.667 -27 28.334 -43 35.001s-38 10 -66 10c-52 0 -78 -17 -78 -51c0 -18.667 7.5 -32.667 22.5 -42s39.167 -16 72.5 -20c61.333 -6.66699 107.166 -22.5 137.499 -47.5s45.5 -61.833 45.5 -110.5c0 -48 -16.5 -85.333 -49.5 -112
s-80.5 -40 -142.5 -40c-92.667 0 -159.667 27.667 -201 83l81 58c23.333 -31.333 63 -47 119 -47c27.333 0 48.666 4.83301 63.999 14.5s23 23.167 23 40.5c0 19.333 -7.16699 33.333 -21.5 42s-41.833 15.667 -82.5 21c-116.667 14.667 -175 67 -175 157
c0 46 16.333 82.333 49 109s78.667 40 138 40c88.667 0 150.667 -27.667 186 -83zM177.002 -57.001h119v-114l-119 -102v216z" />
    <glyph glyph-name="Tcommaaccent" unicode="&#x21a;" horiz-adv-x="527" 
d="M7 589v101h513v-101h-198v-589h-116v589h-199zM204 -57h119v-114l-119 -102v216z" />
    <glyph glyph-name="tcommaaccent" unicode="&#x21b;" horiz-adv-x="324" 
d="M81 408l-64 -0.000976562v92h64v110h106v-110h106v-92h-106v-229c0 -31.333 4.33301 -53 13 -65s26 -18 52 -18h41v-96h-49c-60 0 -102.167 11.833 -126.5 35.5s-36.5 64.834 -36.5 123.501v249zM131 -57.001h119v-114l-119 -102v216z" />
    <glyph glyph-name="uni0237" unicode="&#x237;" horiz-adv-x="244" 
d="M75 500h106.001v-531c0 -58 -13.833 -99 -41.5 -123s-74.167 -36 -139.5 -36v94c29.333 0 49.166 6.5 59.499 19.5s15.5 34.5 15.5 64.5v512z" />
    <glyph glyph-name="uni0259" unicode="&#x259;" horiz-adv-x="487" 
d="M133 368l-80.001 56c32.667 56.667 92.334 85 179.001 85c69.333 0 123.166 -20.333 161.499 -61s57.5 -95.667 57.5 -165v-68c0 -73.333 -17.333 -129 -52 -167s-85 -57 -151 -57c-134.667 0 -202 76.667 -202 230v55h299v2c0 43.333 -9 77.333 -27 102
s-45.333 37 -82 37c-27.333 0 -48.666 -3.83301 -63.999 -11.5s-28.333 -20.167 -39 -37.5zM247.999 84c58.667 0 90.667 36.667 96 110h-191c4 -73.333 35.667 -110 95 -110z" />
    <glyph glyph-name="afii57929" unicode="&#x2bc;" horiz-adv-x="170" 
d="M35 500h118v-146l-118 -102v248z" />
    <glyph glyph-name="circumflex" unicode="&#x2c6;" horiz-adv-x="411" 
d="M47 558l108 142h100l108 -142h-102l-56 77l-56 -77h-102z" />
    <glyph glyph-name="caron" unicode="&#x2c7;" horiz-adv-x="411" 
d="M363 700l-108 -142h-100l-108 142h102l56 -77l56 77h102z" />
    <glyph glyph-name="breve" unicode="&#x2d8;" horiz-adv-x="406" 
d="M266 690h80c-1.33301 -40.667 -14.5 -71.834 -39.5 -93.501s-59.5 -32.5 -103.5 -32.5c-44.667 0 -79.5 10.833 -104.5 32.5s-38.167 52.834 -39.5 93.501h81c4 -37.333 25 -56 63 -56s59 18.667 63 56z" />
    <glyph glyph-name="dotaccent" unicode="&#x2d9;" horiz-adv-x="315" 
d="M215 581h-116v109h116v-109z" />
    <glyph glyph-name="ring" unicode="&#x2da;" horiz-adv-x="380" 
d="M106 568c-22 21.333 -33 47.333 -33 78s11 56.667 33 78c22.667 21.333 50.667 32 84 32s61.333 -10.667 84 -32c22 -21.333 33 -47.333 33 -78s-11 -56.667 -33 -78c-21.333 -20.667 -49.333 -31 -84 -31s-62.667 10.333 -84 31zM157 681
c-8.66699 -8.66699 -13 -20.334 -13 -35.001s4.33301 -26.667 13 -36s19.667 -14 33 -14s24.333 4.66699 33 14s13 21.333 13 36s-4.33301 26.334 -13 35.001c-8.66699 9.33301 -19.667 14 -33 14s-24.333 -4.66699 -33 -14z" />
    <glyph glyph-name="ogonek" unicode="&#x2db;" horiz-adv-x="339" 
d="M216 54l14.999 -54c-20 -14.667 -34 -26.5 -42 -35.5s-12 -18.5 -12 -28.5c0 -16.667 11.667 -25 35 -25c2.66699 0 9.33398 0.666992 20.001 2l14 -59c-6 -2.66699 -21.667 -4 -47 -4c-30.667 0 -56.167 6.5 -76.5 19.5s-30.5 31.833 -30.5 56.5
c0 26 9.83301 48.833 29.5 68.5s51.167 39.5 94.5 59.5z" />
    <glyph glyph-name="tilde" unicode="&#x2dc;" horiz-adv-x="429" 
d="M274 572c-15.333 0 -35.999 4.66699 -61.999 14s-44 14 -54 14c-20 0 -38.667 -9 -56 -27l-58 59c31.333 37.333 68.666 56 111.999 56c14.667 0 34.667 -5 60 -15c26 -9.33301 45 -14 57 -14c18 0 35.667 9 53 27l58 -58c-29.333 -37.333 -66 -56 -110 -56z" />
    <glyph glyph-name="hungarumlaut" unicode="&#x2dd;" horiz-adv-x="482" 
d="M153 567h-101l70 158h122zM318 567h-101l90 158h122z" />
    <glyph glyph-name="acutecomb" unicode="&#x301;" horiz-adv-x="0" 
d="M-190 567h-101l70 158h122z" />
    <glyph glyph-name="uni0394" unicode="&#x2206;" horiz-adv-x="564" 
d="M344 690l200 -690h-524l199 690h125zM167 100h229l-115 437z" />
    <glyph glyph-name="uni0394" unicode="&#x394;" horiz-adv-x="564" 
d="M344 690l200 -690h-524l199 690h125zM167 100h229l-115 437z" />
    <glyph glyph-name="uni03A9" unicode="&#x2126;" horiz-adv-x="625" 
d="M502 100l69.002 0.000976562v-100h-200v100c28 16 49 38.333 63 67c14 29.333 21 75 21 137v85c0 72 -11.667 124.833 -35 158.5s-59 50.5 -107 50.5s-83.833 -16.833 -107.5 -50.5s-35.5 -86.5 -35.5 -158.5v-85c0 -62.667 7 -108.334 21 -137.001
c15.333 -30 36.333 -52.333 63 -67v-100h-200v100h69c-24.667 24.667 -42.334 52.5 -53.001 83.5s-16 71.167 -16 120.5v85c0 102.667 22.667 180 68 232s109 78 191 78s145.5 -26 190.5 -78s67.5 -129.333 67.5 -232v-85c0 -49.333 -5.33301 -89.5 -16 -120.5
s-28.334 -58.833 -53.001 -83.5z" />
    <glyph glyph-name="uni03A9" unicode="&#x3a9;" horiz-adv-x="625" 
d="M502 100l69.002 0.000976562v-100h-200v100c28 16 49 38.333 63 67c14 29.333 21 75 21 137v85c0 72 -11.667 124.833 -35 158.5s-59 50.5 -107 50.5s-83.833 -16.833 -107.5 -50.5s-35.5 -86.5 -35.5 -158.5v-85c0 -62.667 7 -108.334 21 -137.001
c15.333 -30 36.333 -52.333 63 -67v-100h-200v100h69c-24.667 24.667 -42.334 52.5 -53.001 83.5s-16 71.167 -16 120.5v85c0 102.667 22.667 180 68 232s109 78 191 78s145.5 -26 190.5 -78s67.5 -129.333 67.5 -232v-85c0 -49.333 -5.33301 -89.5 -16 -120.5
s-28.334 -58.833 -53.001 -83.5z" />
    <glyph glyph-name="pi" unicode="&#x3c0;" horiz-adv-x="572" 
d="M362 157v251h-192v-408h-103v408h-79v92h557v-92h-76v-226c0 -31.333 5.33301 -53.833 16 -67.5s30.667 -20.5 60 -20.5v-94c-66 -0 -113 11.833 -141 35.5s-42 64.167 -42 121.5z" />
    <glyph glyph-name="afii10023" unicode="&#x401;" horiz-adv-x="533" 
d="M76 0v690h423v-101h-307v-182h277v-100h-277v-207h307v-100h-423zM236 764h-108v105h108v-105zM443 764h-109v105h109v-105z" />
    <glyph glyph-name="afii10051" unicode="&#x402;" horiz-adv-x="727" 
d="M1 589l0.000976562 101h514v-101h-199v-204c13.333 12.667 34 23.667 62 33s57.333 14 88 14c78 0 134.333 -18 169 -54s52 -93 52 -171v-46c0 -55.333 -13.667 -96.666 -41 -123.999c-10.667 -10.667 -25.334 -19 -44.001 -25c-26 -8 -58.333 -12 -97 -12h-26v97h26
c23.333 0 40.166 6.16699 50.499 18.5s15.5 31.833 15.5 58.5v28c0 47.333 -10.167 80.666 -30.5 99.999s-53.166 29 -98.499 29c-57.333 0 -99.333 -19 -126 -57v-274h-116v589h-199z" />
    <glyph glyph-name="afii10052" unicode="&#x403;" horiz-adv-x="487" 
d="M76 690h411v-101h-295v-589h-116v690zM321 744h-103l80 129h126z" />
    <glyph glyph-name="afii10053" unicode="&#x404;" horiz-adv-x="582" 
d="M555 476h-112.001c-17.333 81.333 -63.666 122 -138.999 122c-94 0 -141.333 -67 -142 -201h232v-100h-232c0.666992 -136.667 48 -205 142 -205c39.333 0 70 9.83301 92 29.5s37.667 50.5 47 92.5h111c-22 -148.667 -105.333 -223 -250 -223c-82 0 -145.5 26 -190.5 78
s-67.5 129.333 -67.5 232v88c0 102.667 22.5 180 67.5 232s108.5 78 190.5 78c70 0 126.5 -18.833 169.5 -56.5s70.167 -93.167 81.5 -166.5z" />
    <glyph glyph-name="afii10054" unicode="&#x405;" horiz-adv-x="573" 
d="M523 586l-88.002 -63c-19.333 26.667 -40.166 45.834 -62.499 57.501s-51.166 17.5 -86.499 17.5c-36 0 -63.833 -7.83301 -83.5 -23.5s-29.5 -37.834 -29.5 -66.501c0 -30.667 11.333 -54.167 34 -70.5s60.667 -30.5 114 -42.5c74.667 -16.667 128.5 -40.5 161.5 -71.5
s49.5 -75.833 49.5 -134.5c0 -56 -19.667 -103 -59 -141s-98 -57 -176 -57c-116 0 -202 37.667 -258 113l91 63c22.667 -26.667 46 -45.834 70 -57.501s54.333 -17.5 91 -17.5c83.333 0 125 30.667 125 92c0 29.333 -11.167 52.833 -33.5 70.5s-61.5 32.5 -117.5 44.5
c-138.667 28.667 -208 98.334 -208 209.001c0 58 19.667 104.333 59 139s96.333 52 171 52c108 0 186.667 -37.667 236 -113z" />
    <glyph glyph-name="afii10055" unicode="&#x406;" horiz-adv-x="287" 
d="M86 690h116v-690h-116v690zM203 768h-118v101h118v-101z" />
    <glyph glyph-name="afii10056" unicode="&#x407;" horiz-adv-x="287" 
d="M86 690h116v-690h-116v690zM94 764h-108v105h108v-105zM301 764h-109v105h109v-105z" />
    <glyph glyph-name="afii10057" unicode="&#x408;" horiz-adv-x="509" 
d="M-3 87l97 55c25.333 -33.333 59 -50 101 -50c42.667 0 73.667 13.833 93 41.5s29 74.167 29 139.5v417h116v-417c0 -188 -77.667 -282 -233 -282c-92 0 -159.667 32 -203 96z" />
    <glyph glyph-name="afii10058" unicode="&#x409;" horiz-adv-x="980" 
d="M133 510v180.001h440v-262h125c84.667 0 147.334 -20.333 188.001 -61s61 -91.667 61 -153s-20.333 -112.333 -61 -153s-103.334 -61 -188.001 -61h-241v589h-208v-79c0 -106 -2.66699 -189 -8 -249c-5.33301 -56 -14.333 -100.333 -27 -133
c-15.333 -39.333 -39 -70 -71 -92s-74.333 -37 -127 -45v125c47.333 9.33301 78 32.666 92 69.999c16.667 43.333 25 151.333 25 324zM694 328.001h-121v-228h121c91.333 0 137 38 137 114c0 36 -11.5 64 -34.5 84s-57.167 30 -102.5 30z" />
    <glyph glyph-name="afii10059" unicode="&#x40a;" horiz-adv-x="978" 
d="M76 690h116v-283h264v283h116v-262h125c84 0 146.333 -20.333 187 -61c41.333 -41.333 62 -92.333 62 -153s-20.667 -111.667 -62 -153c-40.667 -40.667 -103 -61 -187 -61h-241v307h-264v-307h-116v690zM692 328h-120v-228h120c45.333 0 79.666 10 102.999 30
s35 48 35 84s-11.667 64 -35 84s-57.666 30 -102.999 30z" />
    <glyph glyph-name="afii10060" unicode="&#x40b;" horiz-adv-x="733" 
d="M7 589l0.00195312 101.001h513v-101h-198v-204c14 12.667 34.667 23.667 62 33s56.666 14 87.999 14c78 0 134.167 -18 168.5 -54s51.5 -93 51.5 -171v-207h-116v202c0 47.333 -10 80.666 -30 99.999s-53 29 -99 29c-56.667 0 -98.334 -19 -125.001 -57v-274h-116v589
h-199z" />
    <glyph glyph-name="afii10061" unicode="&#x40c;" horiz-adv-x="614" 
d="M368 353l234 -353h-138l-196 297h-76v-297h-116v690h116v-293h73l172 293h128zM341 744h-103l80 129h126z" />
    <glyph glyph-name="afii10062" unicode="&#x40e;" horiz-adv-x="580" 
d="M309 308l145.001 381.999h120l-222 -561c-21.333 -53.333 -48 -89.666 -80 -108.999c-32.667 -19.333 -81.334 -29 -146.001 -29v103c38 0 65.667 4 83 12c18 9.33301 32.333 27.333 43 54l-236 530h127zM373.001 878.999h107c0 -98 -61 -147 -183 -147
c-122.667 0 -184 49 -184 147h108c0 -46.667 25.333 -70 76 -70s76 23.333 76 70z" />
    <glyph glyph-name="afii10145" unicode="&#x40f;" horiz-adv-x="638" 
d="M381 0v-130h-108v130h-197v690h116v-590h270v590h116v-690h-197z" />
    <glyph glyph-name="afii10017" unicode="&#x410;" horiz-adv-x="595" 
d="M173 143l-47 -143h-124l240 690h110l240 -690h-123l-47 143h-249zM389 243l-92 279l-92 -279h184z" />
    <glyph glyph-name="afii10018" unicode="&#x411;" horiz-adv-x="596" 
d="M76 690h442v-101h-326v-161h124c84.667 0 147.334 -20.333 188.001 -61s61 -91.667 61 -153s-20.333 -112.333 -61 -153s-103.334 -61 -188.001 -61h-240v690zM312 328h-120v-228h120c91.333 0 137 38 137 114c0 36 -11.5 64 -34.5 84s-57.167 30 -102.5 30z" />
    <glyph glyph-name="afii10019" unicode="&#x412;" horiz-adv-x="602" 
d="M76 0v689.998h222c163.333 0 245 -59.667 245 -179c0 -35.333 -9.16699 -66.333 -27.5 -93s-42.833 -45.667 -73.5 -57c82 -23.333 123 -77.666 123 -162.999c0 -57.333 -20 -104.666 -60 -141.999c-39.333 -37.333 -101 -56 -185 -56h-244zM299 307.998h-107.001v-208
h121c90.667 0 136 34.667 136 104c0 36 -12.167 62.333 -36.5 79s-62.166 25 -113.499 25zM289.999 589.998h-98v-182h113c81.333 0 122 32 122 96c0 30.667 -10.167 52.667 -30.5 66s-55.833 20 -106.5 20z" />
    <glyph glyph-name="afii10020" unicode="&#x413;" horiz-adv-x="487" 
d="M76 690h411v-101h-295v-589h-116v690z" />
    <glyph glyph-name="afii10021" unicode="&#x414;" horiz-adv-x="683" 
d="M118 0l-0.000976562 -129.999h-108v230h39c22.667 19.333 41.334 52.666 56.001 99.999c21.333 67.333 32 173 32 317v173h440v-590h86v-230h-108v130h-437zM210.999 156.001c-6.66699 -18.667 -16 -37.333 -28 -56h278v489h-208v-72c0 -160.667 -14 -281 -42 -361z" />
    <glyph glyph-name="afii10022" unicode="&#x415;" horiz-adv-x="533" 
d="M76 0v690h423v-101h-307v-182h277v-100h-277v-207h307v-100h-423z" />
    <glyph glyph-name="afii10024" unicode="&#x416;" horiz-adv-x="890" 
d="M316 297l-177 -297h-133l209 349l-172 341h124l145 -293h75v293h116v-293h75l145 293h124l-172 -341l209 -349h-133l-177 297h-71v-297h-116v297h-71z" />
    <glyph glyph-name="afii10025" unicode="&#x417;" horiz-adv-x="577" 
d="M276 308l-64.999 -0.000976562v100h70c81.333 0 122 33 122 99c0 61.333 -37.667 92 -113 92c-36.667 0 -65.5 -7.5 -86.5 -22.5s-37.5 -38.833 -49.5 -71.5h-104c7.33301 59.333 33.666 106.333 78.999 141c47.333 35.333 101.333 53 162 53
c68 0 122.667 -16.333 164 -49c42.667 -32 64 -77.333 64 -136c0 -67.333 -33.667 -117.666 -101 -150.999c38 -12 68 -32.667 90 -62s33 -63.666 33 -102.999c0 -60.667 -21.333 -110.334 -64 -149.001s-103.667 -58 -183 -58c-146 0 -233 68 -261 204h112
c16 -36.667 34.833 -63 56.5 -79s51.5 -24 89.5 -24c89.333 0 134 36.333 134 109c0 71.333 -49.667 107 -149 107z" />
    <glyph glyph-name="afii10026" unicode="&#x418;" horiz-adv-x="667" 
d="M76 0v690h116v-471l305 471h95v-690h-116v466l-304 -466h-96z" />
    <glyph glyph-name="afii10027" unicode="&#x419;" horiz-adv-x="667" 
d="M76 0v690h116v-471l305 471h95v-690h-116v466l-304 -466h-96zM419 879h107c0 -98 -61 -147 -183 -147c-122.667 0 -184 49 -184 147h108c0 -46.667 25.333 -70 76 -70s76 23.333 76 70z" />
    <glyph glyph-name="afii10028" unicode="&#x41a;" horiz-adv-x="614" 
d="M368 353l234 -353h-138l-196 297h-76v-297h-116v690h116v-293h73l172 293h128z" />
    <glyph glyph-name="afii10029" unicode="&#x41b;" horiz-adv-x="649" 
d="M133 510v180.001h440v-690h-116v589h-208v-79c0 -106 -2.66699 -189 -8 -249c-5.33301 -56 -14.333 -100.333 -27 -133c-15.333 -39.333 -39 -70 -71 -92s-74.333 -37 -127 -45v125c47.333 9.33301 78 32.666 92 69.999c16.667 43.333 25 151.333 25 324z" />
    <glyph glyph-name="afii10030" unicode="&#x41c;" horiz-adv-x="771" 
d="M76 690h110l199 -400l199 400h111v-690h-112v462l-158 -329h-82l-155 326v-459h-112v690z" />
    <glyph glyph-name="afii10031" unicode="&#x41d;" horiz-adv-x="648" 
d="M76 690h116v-283h264v283h116v-690h-116v307h-264v-307h-116v690z" />
    <glyph glyph-name="afii10032" unicode="&#x41e;" horiz-adv-x="613" 
d="M565 389v-88c0 -102.667 -22.667 -180 -68 -232s-109 -78 -191 -78s-145.5 26 -190.5 78s-67.5 129.333 -67.5 232v88c0 102.667 22.5 180 67.5 232s108.5 78 190.5 78s145.667 -26 191 -78s68 -129.333 68 -232zM164 389v-88c0 -72 11.667 -124.833 35 -158.5
s59 -50.5 107 -50.5s83.833 16.833 107.5 50.5s35.5 86.5 35.5 158.5v88c0 72 -11.833 124.833 -35.5 158.5s-59.5 50.5 -107.5 50.5s-83.667 -16.833 -107 -50.5s-35 -86.5 -35 -158.5z" />
    <glyph glyph-name="afii10033" unicode="&#x41f;" horiz-adv-x="654" 
d="M76 0v690h502v-690h-116v589h-270v-589h-116z" />
    <glyph glyph-name="afii10034" unicode="&#x420;" horiz-adv-x="589" 
d="M311 252h-119v-252h-116v690h235c80.667 0 143.167 -18.833 187.5 -56.5s66.5 -91.5 66.5 -161.5s-22.333 -124.167 -67 -162.5s-107 -57.5 -187 -57.5zM192 589v-237h107c100 0 150 40 150 120c0 78 -50 117 -150 117h-107z" />
    <glyph glyph-name="afii10035" unicode="&#x421;" horiz-adv-x="587" 
d="M557 476h-112.001c-17.333 81.333 -63.666 122 -138.999 122c-48 0 -83.667 -16.833 -107 -50.5s-35 -86.5 -35 -158.5v-88c0 -139.333 47.333 -209 142 -209c39.333 0 70 9.83301 92 29.5s37.667 50.5 47 92.5h111c-22 -148.667 -105.333 -223 -250 -223
c-82 0 -145.5 26 -190.5 78s-67.5 129.333 -67.5 232v88c0 102.667 22.5 180 67.5 232s108.5 78 190.5 78c70 0 126.5 -18.833 169.5 -56.5s70.167 -93.167 81.5 -166.5z" />
    <glyph glyph-name="afii10036" unicode="&#x422;" horiz-adv-x="527" 
d="M7 589v101h513v-101h-198v-589h-116v589h-199z" />
    <glyph glyph-name="afii10037" unicode="&#x423;" horiz-adv-x="580" 
d="M309 308l145.001 381.999h120l-222 -561c-21.333 -53.333 -48 -89.666 -80 -108.999c-32.667 -19.333 -81.334 -29 -146.001 -29v103c38 0 65.667 4 83 12c18 9.33301 32.333 27.333 43 54l-236 530h127z" />
    <glyph glyph-name="afii10038" unicode="&#x424;" horiz-adv-x="768" 
d="M326 638v52h116v-52c186.667 0 280 -92.333 280 -277v-32c0 -184.667 -93.333 -277 -280 -277v-52h-116v52c-186.667 0 -280 92.333 -280 277v32c0 184.667 93.333 277 280 277zM442 538v-386.002c56 0 97.333 13.333 124 40s40 72.334 40 137.001v32
c0 64.667 -13.333 110.334 -40 137.001s-68 40 -124 40zM162 360.998v-31.998c0 -64.667 13.333 -110.334 40 -137.001s68 -40 124 -40v386c-56 0 -97.333 -13.333 -124 -40s-40 -72.334 -40 -137.001z" />
    <glyph glyph-name="afii10039" unicode="&#x425;" horiz-adv-x="574" 
d="M287 251l-144 -251h-127l199 356l-178 334h127l123 -236l124 236h126l-179 -334l200 -356h-126z" />
    <glyph glyph-name="afii10040" unicode="&#x426;" horiz-adv-x="685" 
d="M76 690h116v-590h270v590h116v-590h94v-230h-109v130h-487v690z" />
    <glyph glyph-name="afii10041" unicode="&#x427;" horiz-adv-x="594" 
d="M27 690l116 -0.000976562v-199c0 -53.333 10 -90.666 30 -111.999s55.333 -32 106 -32c64 0 105 17 123 51v292h116v-690h-116v283c-29.333 -24 -77.333 -36 -144 -36c-86 0 -146 19 -180 57s-51 100.333 -51 187v199z" />
    <glyph glyph-name="afii10042" unicode="&#x428;" horiz-adv-x="902" 
d="M76 690h116v-590h201v590h116v-590h201v590h116v-690h-750v690z" />
    <glyph glyph-name="afii10043" unicode="&#x429;" horiz-adv-x="934" 
d="M76 690h116v-590h201v590h116v-590h201v590h116v-590h93v-230h-108v130h-735v690z" />
    <glyph glyph-name="afii10044" unicode="&#x42a;" horiz-adv-x="651" 
d="M-24 589v101h269v-262h125c84 0 146.333 -20.333 187 -61c41.333 -41.333 62 -92.333 62 -153s-20.667 -111.667 -62 -153c-40.667 -40.667 -103 -61 -187 -61h-241v589h-153zM366 328h-121v-228h121c45.333 0 79.5 10 102.5 30s34.5 48 34.5 84s-11.5 64 -34.5 84
s-57.167 30 -102.5 30z" />
    <glyph glyph-name="afii10045" unicode="&#x42b;" horiz-adv-x="798" 
d="M76 0v690h116v-262h105c84.667 0 147.334 -20.333 188.001 -61c41.333 -41.333 62 -92.333 62 -153c0 -61.333 -21 -112.333 -63 -153c-40.667 -40.667 -105.334 -61 -194.001 -61h-214zM607 690h116v-690h-116v690zM293 328h-101v-228h101
c45.333 0 79.666 10 102.999 30s35 48 35 84s-11.667 64 -35 84s-57.666 30 -102.999 30z" />
    <glyph glyph-name="afii10046" unicode="&#x42c;" horiz-adv-x="598" 
d="M76 0v690h116v-262h124c84.667 0 147.334 -20.333 188.001 -61s61 -91.667 61 -153s-20.333 -112.333 -61 -153s-103.334 -61 -188.001 -61h-240zM312 328h-120v-228h120c91.333 0 137 38 137 114c0 36 -11.5 64 -34.5 84s-57.167 30 -102.5 30z" />
    <glyph glyph-name="afii10047" unicode="&#x42d;" horiz-adv-x="587" 
d="M422 297h-231v100h231c-0.666992 134 -48 201 -142 201c-74.667 0 -120.667 -40.667 -138 -122h-112c10.667 73.333 37.5 128.833 80.5 166.5s99.5 56.5 169.5 56.5c82 0 145.5 -26 190.5 -78s67.5 -129.333 67.5 -232v-88c0 -102.667 -22.5 -180 -67.5 -232
s-108.5 -78 -190.5 -78c-145.333 0 -228.333 74.333 -249 223h111c9.33301 -42 25 -72.833 47 -92.5s52.333 -29.5 91 -29.5c94 0 141.333 68.333 142 205z" />
    <glyph glyph-name="afii10048" unicode="&#x42e;" horiz-adv-x="818" 
d="M770 384v-78c0 -210 -80.333 -315 -241 -315c-161.333 0 -242 105.333 -242 316h-95v-307h-116v690h116v-283h95c6 194.667 86.667 292 242 292c160.667 0 241 -105 241 -315zM403 380v-70c0 -76.667 9.83301 -132.167 29.5 -166.5s51.834 -51.5 96.501 -51.5
c44 0 75.833 17.167 95.5 51.5s29.5 89.833 29.5 166.5v70c0 76 -9.83301 131.333 -29.5 166s-51.5 52 -95.5 52c-44.667 0 -76.834 -17.333 -96.501 -52s-29.5 -90 -29.5 -166z" />
    <glyph glyph-name="afii10049" unicode="&#x42f;" horiz-adv-x="610" 
d="M299 280l-155 -280h-128l168 294c-93.333 28 -140 91.667 -140 191c0 66.667 22.167 117.5 66.5 152.5s107.5 52.5 189.5 52.5h234v-690h-116v280h-119zM306 380l112 -0.000976562v209h-112c-51.333 0 -88.5 -8 -111.5 -24s-34.5 -42.667 -34.5 -80
s11.167 -64.166 33.5 -80.499s59.833 -24.5 112.5 -24.5z" />
    <glyph glyph-name="afii10065" unicode="&#x430;" horiz-adv-x="488" 
d="M32 147c0 49.333 16.1689 86.334 48.502 111.001s78.166 37 137.499 37h108v42c0 31.333 -7 52.5 -21 63.5s-40 16.5 -78 16.5c-29.333 0 -51.333 -3 -66 -9s-27.667 -18 -39 -36l-77 54c18 29.333 41.667 50.5 71 63.5s68.666 19.5 117.999 19.5
c68.667 0 118.667 -13.167 150 -39.5s47 -70.833 47 -133.5v-336h-105v46c-12 -20 -26.833 -34.167 -44.5 -42.5s-41.5 -12.5 -71.5 -12.5c-56 0 -99.667 13.667 -131 41s-47 65.666 -47 114.999zM326.002 189.001v24h-100c-59.333 0 -89 -22 -89 -66
c0 -43.333 28.333 -65 85 -65c36.667 0 63.167 7.83301 79.5 23.5s24.5 43.5 24.5 83.5z" />
    <glyph glyph-name="afii10066" unicode="&#x431;" horiz-adv-x="500" 
d="M401 722l57.001 -70.998c-15.333 -30 -46.333 -46.667 -93 -50l-94 -6c-51.333 -3.33301 -86.333 -21 -105 -53c-8.66699 -14.667 -15.334 -40.334 -20.001 -77.001c31.333 29.333 70.666 44 117.999 44c63.333 0 112.333 -19.333 147 -58s52 -94 52 -166v-68
c0 -70 -18 -125.167 -54 -165.5s-88.667 -60.5 -158 -60.5c-68 0 -120.5 20 -157.5 60s-55.5 95.333 -55.5 166v65c0 145.333 14.667 248 44 308c30.667 61.333 86 94.666 166 99.999l100 7c22.667 0.666992 40.334 9 53.001 25zM251.001 83.002
c35.333 0 61.833 12.333 79.5 37s26.5 58.667 26.5 102v63c0 42 -9 74.333 -27 97s-44.333 34 -79 34c-35.333 0 -62 -11.333 -80 -34s-27 -55 -27 -97v-63c0 -92.667 35.667 -139 107 -139z" />
    <glyph glyph-name="afii10067" unicode="&#x432;" horiz-adv-x="495" 
d="M57 0l-0.000976562 500.002h194c58.667 0 103.667 -11 135 -33s47 -54 47 -96c0 -22.667 -6.16699 -42.667 -18.5 -60s-28.166 -30.333 -47.499 -39c28.667 -8.66699 51.667 -24.334 69 -47.001s26 -49.667 26 -81c0 -42.667 -15.833 -77.334 -47.5 -104.001
s-78.167 -40 -139.5 -40h-218zM243.999 218.002h-79.999v-131h90c61.333 0 92 22 92 66c0 23.333 -7.83301 40 -23.5 50s-41.834 15 -78.501 15zM227 413.002h-63v-111h71c54.667 0 82 18.667 82 56c0 36.667 -30 55 -90 55z" />
    <glyph glyph-name="afii10068" unicode="&#x433;" horiz-adv-x="367" 
d="M57 500h320v-92h-213v-408h-107v500z" />
    <glyph glyph-name="afii10069" unicode="&#x434;" horiz-adv-x="553" 
d="M115 0v-117h-101v209h39c12.667 10 25.667 30.667 39 62c15.333 40 23 114.667 23 224v122h352v-408h68v-209h-100v117h-320zM181 106c-2 -6 -4.66699 -10.667 -8 -14h188v316h-143v-47c0 -120.667 -12.333 -205.667 -37 -255z" />
    <glyph glyph-name="afii10070" unicode="&#x435;" horiz-adv-x="487" 
d="M354 132l80.001 -56c-32.667 -56.667 -92.334 -85 -179.001 -85c-69.333 0 -123.166 20.333 -161.499 61s-57.5 95.667 -57.5 165v68c0 73.333 17.333 129 52 167s85 57 151 57c134.667 0 202 -76.667 202 -230v-55h-299v-2c0 -43.333 9 -77.333 27 -102
s45.333 -37 82 -37c27.333 0 48.666 3.83301 63.999 11.5s28.333 20.167 39 37.5zM239.001 416c-58.667 0 -90.667 -36.667 -96 -110h191c-4 73.333 -35.667 110 -95 110z" />
    <glyph glyph-name="afii10072" unicode="&#x436;" horiz-adv-x="681" 
d="M446 297l97 203h113l-117 -243l138 -257h-121l-107 207h-55v-207h-107v207h-55l-107 -207h-121l138 257l-117 243h113l96 -203h53v203h107v-203h52z" />
    <glyph glyph-name="afii10073" unicode="&#x437;" horiz-adv-x="451" 
d="M183 218l-45.998 0.000976562v84h49c59.333 0 89 21 89 63c0 17.333 -6.5 31 -19.5 41s-31.833 15 -56.5 15c-38 0 -71 -15 -99 -45l-76 54c42.667 52.667 105 79 187 79c55.333 0 99.166 -11.833 131.499 -35.5s48.5 -54.5 48.5 -92.5c0 -52 -24.333 -89.333 -73 -112
c28.667 -10 51.167 -26 67.5 -48s24.5 -48.667 24.5 -80c0 -44.667 -17.167 -80.834 -51.5 -108.501s-82.833 -41.5 -145.5 -41.5c-92.667 0 -157.667 28.667 -195 86l73 55c25.333 -35.333 63.666 -53 114.999 -53c27.333 0 48.833 6.5 64.5 19.5s23.5 30.5 23.5 52.5
c0 44.667 -37 67 -111 67z" />
    <glyph glyph-name="afii10074" unicode="&#x438;" horiz-adv-x="534" 
d="M57 500h107v-312l216 312h96v-500h-106v321l-219 -321h-94v500z" />
    <glyph glyph-name="afii10075" unicode="&#x439;" horiz-adv-x="534" 
d="M57 500h107v-312l216 312h96v-500h-106v321l-219 -321h-94v500zM322 690h89.001c0 -82.667 -48.667 -124 -146 -124c-46.667 0 -82.834 10.333 -108.501 31s-38.5 51.667 -38.5 93h90c0 -38.667 19 -58 57 -58s57 19.333 57 58z" />
    <glyph glyph-name="afii10076" unicode="&#x43a;" horiz-adv-x="482" 
d="M217 297l125 203h120l-149 -242l164 -258h-125l-131 207h-57v-207h-107v500h107v-203h53z" />
    <glyph glyph-name="afii10077" unicode="&#x43b;" horiz-adv-x="515" 
d="M99 319v181.001h359v-500h-107v408h-149v-134c0 -81.333 -9.66699 -144 -29 -188c-28 -60.667 -81.333 -93.334 -160 -98.001v98c35.333 10 59 31.333 71 64c10 28.667 15 85 15 169z" />
    <glyph glyph-name="afii10078" unicode="&#x43c;" horiz-adv-x="636" 
d="M57 500h97l164 -290l164 290h96v-500h-106v298l-119 -214h-77l-112 211v-295h-107v500z" />
    <glyph glyph-name="afii10079" unicode="&#x43d;" horiz-adv-x="520" 
d="M57 500h107v-199h192v199h106v-500h-106v209h-192v-209h-107v500z" />
    <glyph glyph-name="afii10080" unicode="&#x43e;" horiz-adv-x="497" 
d="M461 282v-63c0 -71.333 -18 -127.166 -54 -167.499s-88.667 -60.5 -158 -60.5c-68 0 -120.5 20.167 -157.5 60.5s-55.5 96.166 -55.5 167.499v63c0 73.333 18.5 129.5 55.5 168.5s89.5 58.5 157.5 58.5s120.333 -19.5 157 -58.5s55 -95.167 55 -168.5zM249 83
c35.333 0 61.833 12.333 79.5 37s26.5 58.667 26.5 102v58c0 90.667 -35.333 136 -106 136c-71.333 0 -107 -45.333 -107 -136v-58c0 -92.667 35.667 -139 107 -139z" />
    <glyph glyph-name="afii10081" unicode="&#x43f;" horiz-adv-x="520" 
d="M57 0v500h405v-500h-106v408h-192v-408h-107z" />
    <glyph glyph-name="afii10082" unicode="&#x440;" 
d="M482 285l-0.00195312 -68c0 -69.333 -17.167 -124.333 -51.5 -165s-82.833 -61 -145.5 -61c-55.333 0 -95.666 13.667 -120.999 41v-222h-107v690h107v-40c26.667 32.667 67.334 49 122.001 49c60.667 0 108.5 -19.833 143.5 -59.5s52.5 -94.5 52.5 -164.5zM269.998 83
c35.333 0 61.833 12.333 79.5 37s26.5 58.667 26.5 102v58c0 90.667 -35.333 136 -106 136c-70 0 -105.333 -43.333 -106 -130v-64c0 -92.667 35.333 -139 106 -139z" />
    <glyph glyph-name="afii10083" unicode="&#x441;" horiz-adv-x="445" 
d="M353 132l80.999 -56c-32 -56.667 -91.333 -85 -178 -85c-68.667 0 -122.5 20.333 -161.5 61s-58.5 95.667 -58.5 165v68c0 72 19.5 127.333 58.5 166s94.167 58 165.5 58c81.333 0 139.333 -27 174 -81l-82 -57c-21.333 30 -52.666 45 -93.999 45
c-77.333 0 -116 -45.333 -116 -136v-58c0 -92.667 38.667 -139 116 -139c45.333 0 77 16.333 95 49z" />
    <glyph glyph-name="afii10084" unicode="&#x442;" horiz-adv-x="414" 
d="M0 408v92h414v-92h-154v-408h-106v408h-154z" />
    <glyph glyph-name="afii10085" unicode="&#x443;" horiz-adv-x="473" 
d="M196 -6l-191.001 506h113l127 -352l114 352h110l-176 -520c-14 -42.667 -29.333 -76.667 -46 -102c-31.333 -45.333 -89.333 -68 -174 -68v98c36.667 0 63.334 5.33301 80.001 16s31 34 43 70z" />
    <glyph glyph-name="afii10086" unicode="&#x444;" horiz-adv-x="676" 
d="M285 690h105.999v-181c82 0 143.833 -19 185.5 -57s62.5 -93.667 62.5 -167v-68c0 -72.667 -21 -128.5 -63 -167.5s-103.667 -58.5 -185 -58.5v-181h-106v181c-81.333 0 -143.166 19.5 -185.499 58.5s-63.5 94.833 -63.5 167.5v68c0 73.333 21 129 63 167s104 57 186 57
v181zM141.999 281v-61c0 -91.333 47.667 -137 143 -137v333c-95.333 0 -143 -45 -143 -135zM532.999 220v60.999c0 46.667 -11.667 80.834 -35 102.501s-59 32.5 -107 32.5v-333c49.333 0 85.333 11.333 108 34s34 57 34 103z" />
    <glyph glyph-name="afii10087" unicode="&#x445;" horiz-adv-x="485" 
d="M304 256l173 -256h-121l-114 167l-114 -167h-120l172 256l-156 244h121l97 -158l98 158h120z" />
    <glyph glyph-name="afii10088" unicode="&#x446;" horiz-adv-x="548" 
d="M530 92v-209h-100v117h-373v500h107v-408h192v408h106v-408h68z" />
    <glyph glyph-name="afii10089" unicode="&#x447;" horiz-adv-x="475" 
d="M34 500l106 0.000976562v-134c0 -36.667 7.33301 -62.167 22 -76.5s37 -21.5 67 -21.5c40.667 0 68 13.333 82 40v192h107v-500h-107v200c-20.667 -18 -53.667 -27 -99 -27c-58.667 0 -103 14.167 -133 42.5s-45 75.166 -45 140.499v144z" />
    <glyph glyph-name="afii10090" unicode="&#x448;" horiz-adv-x="730" 
d="M673 500v-500h-616v500h107v-408h148v408h106v-408h148v408h107z" />
    <glyph glyph-name="afii10091" unicode="&#x449;" horiz-adv-x="759" 
d="M740 92v-209h-100v117h-583v500h107v-408h148v408h106v-408h148v408h107v-408h67z" />
    <glyph glyph-name="afii10092" unicode="&#x44a;" horiz-adv-x="540" 
d="M-16 408l0.000976562 92h235v-181h88c140 0 210 -52.667 210 -158c0 -50.667 -16.333 -90.167 -49 -118.5s-80.334 -42.5 -143.001 -42.5h-213v408h-128zM301.001 227h-82v-135h94c58.667 0 88 23.333 88 70c0 22 -7.83301 38.333 -23.5 49s-41.167 16 -76.5 16z" />
    <glyph glyph-name="afii10093" unicode="&#x44b;" horiz-adv-x="651" 
d="M57 0v500h107v-181h62c140 0 210 -52.667 210 -158c0 -51.333 -16.5 -91 -49.5 -119s-80.5 -42 -142.5 -42h-187zM487 0v500h106v-500h-106zM219 227h-55v-135h67c59.333 0 89 23.333 89 70c0 22 -8 38.333 -24 49s-41.667 16 -77 16z" />
    <glyph glyph-name="afii10094" unicode="&#x44c;" horiz-adv-x="485" 
d="M57 0l0.000976562 500h107v-181h88c140 0 210 -52.667 210 -158c0 -50.667 -16.333 -90.167 -49 -118.5s-80.334 -42.5 -143.001 -42.5h-213zM246.001 227h-82v-135h94c58.667 0 88 23.333 88 70c0 22 -7.83301 38.333 -23.5 49s-41.167 16 -76.5 16z" />
    <glyph glyph-name="afii10095" unicode="&#x44d;" horiz-adv-x="454" 
d="M312 210h-175.001v87h175c-1.33301 38 -11.666 67.333 -30.999 88s-47 31 -83 31c-42.667 0 -74.334 -15 -95.001 -45l-81 57c40 54 97.667 81 173 81c72 0 127.167 -19.333 165.5 -58s57.5 -94 57.5 -166v-68c0 -70.667 -19.333 -126 -58 -166s-93.667 -60 -165 -60
c-84 0 -142 28.333 -174 85l79 56c18.667 -32.667 51.334 -49 98.001 -49c75.333 0 113.333 42.333 114 127z" />
    <glyph glyph-name="afii10096" unicode="&#x44e;" horiz-adv-x="679" 
d="M643 285l-0.00195312 -68c0 -70.667 -17 -126 -51 -166s-83.333 -60 -148 -60c-62 0 -110.5 19 -145.5 57s-52.833 91.667 -53.5 161h-81v-209h-107v500h107v-199h81c2.66699 67.333 21.334 118.833 56.001 154.5s82.334 53.5 143.001 53.5
c64 0 113.167 -19.333 147.5 -58s51.5 -94 51.5 -166zM443.998 83c62 0 93 46 93 138v60c0 90 -31 135 -93 135c-61.333 0 -92 -45 -92 -135v-60c0 -92 30.667 -138 92 -138z" />
    <glyph glyph-name="afii10097" unicode="&#x44f;" horiz-adv-x="500" 
d="M442 500l0.000976562 -500h-106v184h-82l-113 -184h-115l124 201c-68 24.667 -102 73.667 -102 147c0 46 16.667 82.833 50 110.5s82.666 41.5 147.999 41.5h196zM263.001 275h72.999v133h-82c-60 0 -90 -21.333 -90 -64c0 -24 7.83301 -41.5 23.5 -52.5
s40.834 -16.5 75.501 -16.5z" />
    <glyph glyph-name="afii10071" unicode="&#x451;" horiz-adv-x="487" 
d="M354 132l80.001 -56c-32.667 -56.667 -92.334 -85 -179.001 -85c-69.333 0 -123.166 20.333 -161.499 61s-57.5 95.667 -57.5 165v68c0 73.333 17.333 129 52 167s85 57 151 57c134.667 0 202 -76.667 202 -230v-55h-299v-2c0 -43.333 9 -77.333 27 -102
s45.333 -37 82 -37c27.333 0 48.666 3.83301 63.999 11.5s28.333 20.167 39 37.5zM239.001 416c-58.667 0 -90.667 -36.667 -96 -110h191c-4 73.333 -35.667 110 -95 110zM187.001 585h-109v105h109v-105zM393.001 585h-108v105h108v-105z" />
    <glyph glyph-name="afii10099" unicode="&#x452;" horiz-adv-x="526" 
d="M65 547l-94.001 -0.00195312v87h94v56h106v-56h150v-87h-150v-122c24 34 64.667 51 122 51c58 0 103 -16.167 135 -48.5s48 -81.5 48 -147.5v-311c0 -55.333 -13.167 -95.666 -39.5 -120.999s-67.166 -38 -122.499 -38h-13v93h12c20 0 34.5 4.83301 43.5 14.5
s13.5 26.834 13.5 51.501v299c0 76 -32 114 -96 114c-32 0 -57.167 -10.167 -75.5 -30.5s-27.5 -47.833 -27.5 -82.5v-269h-106v547z" />
    <glyph glyph-name="afii10100" unicode="&#x453;" horiz-adv-x="367" 
d="M57 500h320v-92h-213v-408h-107v500zM254 567h-101l70 158h122z" />
    <glyph glyph-name="afii10101" unicode="&#x454;" horiz-adv-x="459" 
d="M136 297h174.998v-87h-175c0.666992 -84.667 38.667 -127 114 -127c46.667 0 79.334 16.333 98.001 49l80 -56c-32.667 -56.667 -91 -85 -175 -85c-71.333 0 -126.333 20 -165 60s-58 95.333 -58 166v68c0 72 19.167 127.333 57.5 166s93.5 58 165.5 58
c76.667 0 134.334 -27 173.001 -81l-81 -57c-20.667 30 -52.334 45 -95.001 45c-36 0 -63.667 -10.333 -83 -31s-29.666 -50 -30.999 -88z" />
    <glyph glyph-name="afii10102" unicode="&#x455;" horiz-adv-x="465" 
d="M413 426l-78.998 -57.001c-12.667 16.667 -27 28.334 -43 35.001s-38 10 -66 10c-52 0 -78 -17 -78 -51c0 -18.667 7.5 -32.667 22.5 -42s39.167 -16 72.5 -20c61.333 -6.66699 107.166 -22.5 137.499 -47.5s45.5 -61.833 45.5 -110.5c0 -48 -16.5 -85.333 -49.5 -112
s-80.5 -40 -142.5 -40c-92.667 0 -159.667 27.667 -201 83l81 58c23.333 -31.333 63 -47 119 -47c27.333 0 48.666 4.83301 63.999 14.5s23 23.167 23 40.5c0 19.333 -7.16699 33.333 -21.5 42s-41.833 15.667 -82.5 21c-116.667 14.667 -175 67 -175 157
c0 46 16.333 82.333 49 109s78.667 40 138 40c88.667 0 150.667 -27.667 186 -83z" />
    <glyph glyph-name="afii10103" unicode="&#x456;" horiz-adv-x="251" 
d="M179 0h-107v500h107v-500zM184 581h-117v109h117v-109z" />
    <glyph glyph-name="afii10104" unicode="&#x457;" horiz-adv-x="251" 
d="M179 0h-107v500h107v-500zM72 585h-109v105h109v-105zM278 585h-108v105h108v-105z" />
    <glyph glyph-name="afii10105" unicode="&#x458;" horiz-adv-x="244" 
d="M75 500h106.001v-531c0 -58 -13.833 -99 -41.5 -123s-74.167 -36 -139.5 -36v94c29.333 0 49.166 6.5 59.499 19.5s15.5 34.5 15.5 64.5v512zM186.001 581h-116v109h116v-109z" />
    <glyph glyph-name="afii10106" unicode="&#x459;" horiz-adv-x="779" 
d="M99 319l0.000976562 181.001h359v-181h88c140 0 210 -52.667 210 -158c0 -50.667 -16.333 -90.167 -49 -118.5s-80.334 -42.5 -143.001 -42.5h-213v408h-149v-134c0 -81.333 -9.66699 -144 -29 -188c-28 -60.667 -81.333 -93.334 -160 -98.001v98
c35.333 10 59 31.333 71 64c10 28.667 15 85 15 169zM540.001 227.001h-82v-135h94c58.667 0 88 23.333 88 70c0 22 -7.83301 38.333 -23.5 49s-41.167 16 -76.5 16z" />
    <glyph glyph-name="afii10107" unicode="&#x45a;" horiz-adv-x="784" 
d="M57 500h107v-199h192v199h106v-181h89c140 0 210 -52.667 210 -158c0 -50.667 -16.333 -90.167 -49 -118.5s-80.667 -42.5 -144 -42.5h-212v209h-192v-209h-107v500zM544 227h-82v-135h94c59.333 0 89 23.333 89 70c0 22 -8 38.333 -24 49s-41.667 16 -77 16z" />
    <glyph glyph-name="afii10108" unicode="&#x45b;" horiz-adv-x="526" 
d="M65 547h-94v87h94v56h106v-56h150v-87h-150v-122c24 34 64.667 51 122 51c58 0 103 -16.167 135 -48.5s48 -81.5 48 -147.5v-280h-106v268c0 76 -32 114 -96 114c-32 0 -57.167 -10.167 -75.5 -30.5s-27.5 -47.833 -27.5 -82.5v-269h-106v547z" />
    <glyph glyph-name="afii10109" unicode="&#x45c;" horiz-adv-x="482" 
d="M217 297l125 203h120l-149 -242l164 -258h-125l-131 207h-57v-207h-107v500h107v-203h53zM290 567h-101l70 158h122z" />
    <glyph glyph-name="afii10110" unicode="&#x45e;" horiz-adv-x="473" 
d="M196 -6l-191.001 506h113l127 -352l114 352h110l-176 -520c-14 -42.667 -29.333 -76.667 -46 -102c-31.333 -45.333 -89.333 -68 -174 -68v98c36.667 0 63.334 5.33301 80.001 16s31 34 43 70zM300.999 690h89.001c0 -82.667 -48.667 -124 -146 -124
c-46.667 0 -82.834 10.333 -108.501 31s-38.5 51.667 -38.5 93h90c0 -38.667 19 -58 57 -58s57 19.333 57 58z" />
    <glyph glyph-name="afii10193" unicode="&#x45f;" horiz-adv-x="526" 
d="M304 0v-117h-88v117h-159v500h107v-408h192v408h106v-500h-158z" />
    <glyph glyph-name="afii10146" unicode="&#x462;" horiz-adv-x="598" 
d="M76 613v77h116v-77h167v-101h-167v-84h124c84.667 0 147.334 -20.333 188.001 -61s61 -91.667 61 -153s-20.333 -112.333 -61 -153s-103.334 -61 -188.001 -61h-240v512h-86v101h86zM312 328h-120v-228h120c91.333 0 137 38 137 114c0 36 -11.5 64 -34.5 84
s-57.167 30 -102.5 30z" />
    <glyph glyph-name="afii10194" unicode="&#x463;" horiz-adv-x="485" 
d="M57 413h-85.999v87h86v190h107v-190h157v-87h-157v-94h88c140 0 210 -52.667 210 -158c0 -50.667 -16.333 -90.167 -49 -118.5s-80.334 -42.5 -143.001 -42.5h-213v413zM246.001 227h-82v-135h94c58.667 0 88 23.333 88 70c0 22 -7.83301 38.333 -23.5 49
s-41.167 16 -76.5 16z" />
    <glyph glyph-name="afii10147" unicode="&#x472;" horiz-adv-x="613" 
d="M565 389v-88c0 -102.667 -22.667 -180 -68 -232s-109 -78 -191 -78s-145.5 26 -190.5 78s-67.5 129.333 -67.5 232v88c0 102.667 22.5 180 67.5 232s108.5 78 190.5 78s145.667 -26 191 -78s68 -129.333 68 -232zM449 301v6h-285v-6c0 -72 11.667 -124.833 35 -158.5
s59 -50.5 107 -50.5s83.833 16.833 107.5 50.5s35.5 86.5 35.5 158.5zM164 407h284c-4 127.333 -51.333 191 -142 191s-138 -63.667 -142 -191z" />
    <glyph glyph-name="afii10195" unicode="&#x473;" horiz-adv-x="497" 
d="M461 282v-63c0 -71.333 -18 -127.166 -54 -167.499s-88.667 -60.5 -158 -60.5c-68 0 -120.5 20.167 -157.5 60.5s-55.5 96.166 -55.5 167.499v63c0 73.333 18.5 129.5 55.5 168.5s89.5 58.5 157.5 58.5s120.333 -19.5 157 -58.5s55 -95.167 55 -168.5zM249 83
c33.333 0 58.999 11.168 76.999 33.501s27.667 53.166 29 92.499h-213c2.66699 -84 38.334 -126 107.001 -126zM248.999 416.001c-65.333 0 -101 -38.333 -107 -115h212c-4.66699 76.667 -39.667 115 -105 115z" />
    <glyph glyph-name="afii10148" unicode="&#x474;" horiz-adv-x="610" 
d="M251 0l-245 690h128l170 -504l128 377c17.333 49.333 40 84 68 104c29.333 21.333 73 32 131 32v-99c-24 0 -42 -5.16699 -54 -15.5s-23 -29.5 -33 -57.5l-186 -527h-107z" />
    <glyph glyph-name="afii10196" unicode="&#x475;" horiz-adv-x="502" 
d="M512 509v-91.999c-18.667 0 -32.334 -4.16699 -41.001 -12.5s-18 -24.833 -28 -49.5l-138 -355h-102l-199 500h118l130 -357l97 264c15.333 41.333 34 68.666 56 81.999c22.667 13.333 58.334 20 107.001 20z" />
    <glyph glyph-name="afii10050" unicode="&#x490;" horiz-adv-x="487" 
d="M76 690h308v108h103v-209h-295v-589h-116v690z" />
    <glyph glyph-name="afii10098" unicode="&#x491;" horiz-adv-x="367" 
d="M57 500h224v93h96v-185h-213v-408h-107v500z" />
    <glyph glyph-name="uni0492" unicode="&#x492;" horiz-adv-x="491" 
d="M80 690h411v-101h-295v-182h155v-100h-155v-307h-116v307h-90v100h90v283z" />
    <glyph glyph-name="uni0493" unicode="&#x493;" horiz-adv-x="390" 
d="M80 500h320v-92h-213v-107h116v-92h-116v-209h-107v209h-92v92h92v199z" />
    <glyph glyph-name="uni0496" unicode="&#x496;" horiz-adv-x="933" 
d="M316 297l-177 -297h-133l209 349l-172 341h124l145 -293h75v293h116v-293h75l145 293h124l-172 -341l149 -249h96v-230h-109v130h-60l-177 297h-71v-297h-116v297h-71z" />
    <glyph glyph-name="uni0497" unicode="&#x497;" horiz-adv-x="711" 
d="M446 297l97 203h113l-117 -243l88 -165h74v-209h-101v117h-44l-107 207h-55v-207h-107v207h-55l-107 -207h-121l138 257l-117 243h113l96 -203h53v203h107v-203h52z" />
    <glyph glyph-name="uni0498" unicode="&#x498;" horiz-adv-x="577" 
d="M348 -5l0.000976562 -125.003h-109v125c-112 14.667 -180.667 81.334 -206 200.001h112c16 -36.667 34.833 -63 56.5 -79s51.5 -24 89.5 -24c89.333 0 134 36.333 134 109c0 71.333 -49.667 107 -149 107h-65v100h70c81.333 0 122 33 122 99c0 61.333 -37.667 92 -113 92
c-36.667 0 -65.5 -7.5 -86.5 -22.5s-37.5 -38.833 -49.5 -71.5h-104c7.33301 59.333 33.666 106.333 78.999 141c47.333 35.333 101.333 53 162 53c68 0 122.667 -16.333 164 -49c42.667 -32 64 -77.333 64 -136c0 -67.333 -33.667 -117.666 -101 -150.999
c38 -12 68 -32.667 90 -62s33 -63.666 33 -102.999c0 -53.333 -17 -98.5 -51 -135.5s-81.333 -59.5 -142 -67.5z" />
    <glyph glyph-name="uni0499" unicode="&#x499;" horiz-adv-x="451" 
d="M267 -5l0.00195312 -112.001h-101v111c-68.667 6.66699 -118 34.334 -148 83.001l73 55c25.333 -35.333 63.666 -53 114.999 -53c27.333 0 48.833 6.5 64.5 19.5s23.5 30.5 23.5 52.5c0 44.667 -37 67 -111 67h-46v84h49c59.333 0 89 21 89 63c0 17.333 -6.5 31 -19.5 41
s-31.833 15 -56.5 15c-38 0 -71 -15 -99 -45l-76 54c42.667 52.667 105 79 187 79c55.333 0 99.166 -11.833 131.499 -35.5s48.5 -54.5 48.5 -92.5c0 -52 -24.333 -89.333 -73 -112c28.667 -10 51.167 -26 67.5 -48s24.5 -48.667 24.5 -80c0 -37.333 -12.5 -69 -37.5 -95
s-60.167 -43 -105.5 -51z" />
    <glyph glyph-name="uni049A" unicode="&#x49a;" horiz-adv-x="646" 
d="M632 100v-230h-108v130h-60l-196 297h-76v-297h-116v690h116v-293h73l172 293h128l-197 -337l167 -253h97z" />
    <glyph glyph-name="uni049B" unicode="&#x49b;" horiz-adv-x="507" 
d="M217 297l125 203h120l-149 -242l105 -166h77v-209h-100v117h-43l-131 207h-57v-207h-107v500h107v-203h53z" />
    <glyph glyph-name="uni049C" unicode="&#x49c;" horiz-adv-x="689" 
d="M443 353l234 -353h-138l-196 297h-24v-111h-93v111h-34v-297h-116v690h116v-293h34v119h93v-119h21l172 293h128z" />
    <glyph glyph-name="uni049D" unicode="&#x49d;" horiz-adv-x="542" 
d="M278 297l125 203h119l-149 -242l164 -258h-125l-130 207h-11v-102h-85v102h-22v-207h-107v500h107v-203h22v103h85v-103h7z" />
    <glyph glyph-name="uni04A0" unicode="&#x4a0;" horiz-adv-x="668" 
d="M422 353l234 -353h-138l-196 297h-76v-297h-116v589h-154v101h270v-293h73l172 293h128z" />
    <glyph glyph-name="uni04A1" unicode="&#x4a1;" horiz-adv-x="537" 
d="M272 297l125 203h120l-149 -242l164 -258h-125l-131 207h-57v-207h-107v408h-128v92h235v-203h53z" />
    <glyph glyph-name="uni04A2" unicode="&#x4a2;" horiz-adv-x="679" 
d="M76 690h116v-283h264v283h116v-590h94v-230h-109v130h-101v307h-264v-307h-116v690z" />
    <glyph glyph-name="uni04A3" unicode="&#x4a3;" horiz-adv-x="548" 
d="M57 500h107v-199h192v199h106v-408h68v-209h-100v117h-74v209h-192v-209h-107v500z" />
    <glyph glyph-name="uni04AA" unicode="&#x4aa;" horiz-adv-x="587" 
d="M361 -5l-0.000976562 -125h-109v126c-66 10.667 -116.5 41.5 -151.5 92.5s-52.5 121.833 -52.5 212.5v88c0 102.667 22.5 180 67.5 232s108.5 78 190.5 78c70 0 126.5 -18.833 169.5 -56.5s70.167 -93.167 81.5 -166.5h-112c-17.333 81.333 -63.666 122 -138.999 122
c-48 0 -83.667 -16.833 -107 -50.5s-35 -86.5 -35 -158.5v-88c0 -139.333 47.333 -209 142 -209c39.333 0 70 9.83301 92 29.5s37.667 50.5 47 92.5h111c-18.667 -128 -83.667 -201 -195 -219z" />
    <glyph glyph-name="uni04AB" unicode="&#x4ab;" horiz-adv-x="445" 
d="M308 -5l-0.000976562 -112h-100v112c-54 8.66699 -96.167 32.667 -126.5 72s-45.5 89.333 -45.5 150v68c0 72 19.5 127.333 58.5 166s94.167 58 165.5 58c81.333 0 139.333 -27 174 -81l-82 -57c-21.333 30 -52.666 45 -93.999 45c-77.333 0 -116 -45.333 -116 -136v-58
c0 -92.667 38.667 -139 116 -139c45.333 0 77 16.333 95 49l81 -56c-25.333 -46 -67.333 -73 -126 -81z" />
    <glyph glyph-name="uni04AE" unicode="&#x4ae;" horiz-adv-x="571" 
d="M227 288l-215 402h135l138 -276l139 276h134l-215 -402v-288h-116v288z" />
    <glyph glyph-name="uni04AF" unicode="&#x4af;" horiz-adv-x="504" 
d="M252 143l129 357h119l-193 -495v-195h-106v195l-197 495h118z" />
    <glyph glyph-name="uni04B0" unicode="&#x4b0;" horiz-adv-x="571" 
d="M219 303l-207 387h135l138 -276l139 276h134l-207 -387h127v-100h-135v-203h-116v203h-133v100h125z" />
    <glyph glyph-name="uni04B1" unicode="&#x4b1;" horiz-adv-x="504" 
d="M252 143l129 357h119l-195 -500h105v-92h-105v-98h-102v98h-108v92h108l-199 500h118z" />
    <glyph glyph-name="uni04B2" unicode="&#x4b2;" horiz-adv-x="611" 
d="M287 251l-144 -251h-127l199 356l-178 334h127l123 -236l124 236h126l-179 -334l144 -256h95v-230h-109v130h-56z" />
    <glyph glyph-name="uni04B3" unicode="&#x4b3;" horiz-adv-x="505" 
d="M495 92v-209h-100v117h-39l-114 167l-114 -167h-120l172 256l-156 244h121l97 -158l98 158h120l-156 -244l111 -164h80z" />
    <glyph glyph-name="uni04B6" unicode="&#x4b6;" horiz-adv-x="625" 
d="M27 690l116 -0.000976562v-199c0 -53.333 10 -90.666 30 -111.999s55.333 -32 106 -32c64 0 105 17 123 51v292h116v-590h93v-230h-108v130h-101v283c-29.333 -24 -77.333 -36 -144 -36c-86 0 -146 19 -180 57s-51 100.333 -51 187v199z" />
    <glyph glyph-name="uni04B7" unicode="&#x4b7;" horiz-adv-x="507" 
d="M37 500l106 0.000976562v-134c0 -36.667 7.33301 -62.167 22 -76.5s37 -21.5 67 -21.5c40.667 0 68 13.333 82 40v192h107v-408h68v-209h-101v117h-74v200c-21.333 -18 -54.333 -27 -99 -27c-58.667 0 -103 14.167 -133 42.5s-45 75.166 -45 140.499v144z" />
    <glyph glyph-name="uni04B8" unicode="&#x4b8;" horiz-adv-x="605" 
d="M231 468h100v-117c42 7.33301 69.333 23 82 47v292h116v-690h-116v283c-16.667 -13.333 -44 -23.666 -82 -30.999v-115h-100v110c-75.333 4 -128.333 25 -159 63c-30 38 -45 98.333 -45 181v199h116v-199c0 -44.667 6.66699 -77.834 20 -99.501s36 -35.5 68 -41.5v118z
" />
    <glyph glyph-name="uni04B9" unicode="&#x4b9;" horiz-adv-x="501" 
d="M37 500l105.999 0.000976562v-134c0 -54 18.667 -85.667 56 -95v107h84v-103c25.333 7.33301 43.333 18 54 32v193h106v-500h-106v200c-14 -8.66699 -32 -15.334 -54 -20.001v-96h-84v89c-53.333 2 -93.666 17.5 -120.999 46.5s-41 74.5 -41 136.5v144z" />
    <glyph glyph-name="uni04BA" unicode="&#x4ba;" horiz-adv-x="594" 
d="M566 0l-116.001 0.000976562v264c0 53.333 -10 90.666 -30 111.999s-55 32 -105 32c-64.667 0 -105.667 -17 -123 -51v-357h-116v690h116v-217c28 24 76 36 144 36c86.667 0 146.334 -19 179.001 -57c34 -38 51 -100.333 51 -187v-265z" />
    <glyph glyph-name="uni04BB" unicode="&#x4bb;" horiz-adv-x="526" 
d="M164 0h-107v690h107v-233c24 34.667 64.667 52 122 52s102 -16.167 134 -48.5s48 -81.5 48 -147.5v-313h-106v301c0 75.333 -31.667 113 -95 113c-32 0 -57.167 -10.167 -75.5 -30.5s-27.5 -47.5 -27.5 -81.5v-302z" />
    <glyph glyph-name="uni04D8" unicode="&#x4d8;" horiz-adv-x="603" 
d="M48 301l-0.000976562 57.999h396v30c0 72 -11.667 124.833 -35 158.5s-59 50.5 -107 50.5c-76 0 -122 -40.667 -138 -122h-112c10.667 72 37.5 127.167 80.5 165.5s99.5 57.5 169.5 57.5c82.667 0 146.334 -26.167 191.001 -78.5s67 -131.166 67 -236.499v-83
c0 -102.667 -22.5 -180 -67.5 -232s-108.5 -78 -190.5 -78c-81.333 0 -144 25.833 -188 77.5s-66 129.167 -66 232.5zM301.999 91.999c43.333 0 76.332 13.167 98.999 39.5s36.334 68.5 41.001 126.5h-281c6.66699 -110.667 53.667 -166 141 -166z" />
    <glyph glyph-name="afii10846" unicode="&#x4d9;" horiz-adv-x="487" 
d="M133 368l-80.001 56c32.667 56.667 92.334 85 179.001 85c69.333 0 123.166 -20.333 161.499 -61s57.5 -95.667 57.5 -165v-68c0 -73.333 -17.333 -129 -52 -167s-85 -57 -151 -57c-134.667 0 -202 76.667 -202 230v55h299v2c0 43.333 -9 77.333 -27 102
s-45.333 37 -82 37c-27.333 0 -48.666 -3.83301 -63.999 -11.5s-28.333 -20.167 -39 -37.5zM247.999 84c58.667 0 90.667 36.667 96 110h-191c4 -73.333 35.667 -110 95 -110z" />
    <glyph glyph-name="uni04E2" unicode="&#x4e2;" horiz-adv-x="667" 
d="M76 0v690h116v-471l305 471h95v-690h-116v466l-304 -466h-96zM492 755h-317v94h317v-94z" />
    <glyph glyph-name="uni04E3" unicode="&#x4e3;" horiz-adv-x="534" 
d="M57 500h107v-312l216 312h96v-500h-106v321l-219 -321h-94v500zM406 585h-277v94h277v-94z" />
    <glyph glyph-name="uni04E8" unicode="&#x4e8;" horiz-adv-x="613" 
d="M565 389v-88c0 -102.667 -22.667 -180 -68 -232s-109 -78 -191 -78s-145.5 26 -190.5 78s-67.5 129.333 -67.5 232v88c0 102.667 22.5 180 67.5 232s108.5 78 190.5 78s145.667 -26 191 -78s68 -129.333 68 -232zM449 301v6h-285v-6c0 -72 11.667 -124.833 35 -158.5
s59 -50.5 107 -50.5s83.833 16.833 107.5 50.5s35.5 86.5 35.5 158.5zM164 407h284c-4 127.333 -51.333 191 -142 191s-138 -63.667 -142 -191z" />
    <glyph glyph-name="uni04E9" unicode="&#x4e9;" horiz-adv-x="497" 
d="M461 282v-63c0 -71.333 -18 -127.166 -54 -167.499s-88.667 -60.5 -158 -60.5c-68 0 -120.5 20.167 -157.5 60.5s-55.5 96.166 -55.5 167.499v63c0 73.333 18.5 129.5 55.5 168.5s89.5 58.5 157.5 58.5s120.333 -19.5 157 -58.5s55 -95.167 55 -168.5zM249 83
c33.333 0 58.999 11.168 76.999 33.501s27.667 53.166 29 92.499h-213c2.66699 -84 38.334 -126 107.001 -126zM248.999 416.001c-65.333 0 -101 -38.333 -107 -115h212c-4.66699 76.667 -39.667 115 -105 115z" />
    <glyph glyph-name="uni04EE" unicode="&#x4ee;" horiz-adv-x="580" 
d="M309 308l145.001 381.999h120l-222 -561c-21.333 -53.333 -48 -89.666 -80 -108.999c-32.667 -19.333 -81.334 -29 -146.001 -29v103c38 0 65.667 4 83 12c18 9.33301 32.333 27.333 43 54l-236 530h127zM460.001 754.999h-317v94h317v-94z" />
    <glyph glyph-name="uni04EF" unicode="&#x4ef;" horiz-adv-x="473" 
d="M196 -6l-191.001 506h113l127 -352l114 352h110l-176 -520c-14 -42.667 -29.333 -76.667 -46 -102c-31.333 -45.333 -89.333 -68 -174 -68v98c36.667 0 63.334 5.33301 80.001 16s31 34 43 70zM377.999 585h-277v94h277v-94z" />
    <glyph glyph-name="uni1E9E" unicode="&#x1e9e;" horiz-adv-x="606" 
d="M533 639l-107.002 -184.001c38 -6.66699 65.333 -20.5 82 -41.5s25 -51.833 25 -92.5v-181c0 -56 -11.667 -93.667 -35 -113c-22.667 -18 -61.334 -27 -116.001 -27h-81v100h59c20.667 0 35.334 4.83301 44.001 14.5s13 25.5 13 47.5v140
c0 24.667 -4.16699 41.834 -12.5 51.501s-23.166 14.5 -44.499 14.5h-59v78l83 139c-22 8.66699 -47.667 13 -77 13c-40 0 -69.167 -8.83301 -87.5 -26.5s-27.5 -46.5 -27.5 -86.5v-485h-116v493c0 66 19.333 116.833 58 152.5s96.334 53.5 173.001 53.5
c44 0 88 -6.66699 132 -20c40.667 -12 72 -25.333 94 -40z" />
    <glyph glyph-name="uni2010" unicode="&#x2010;" horiz-adv-x="319" 
d="M289 242h-259v94h259v-94z" />
    <glyph glyph-name="uni2011" unicode="&#x2011;" horiz-adv-x="319" 
d="M289 242h-259v94h259v-94z" />
    <glyph glyph-name="figuredash" unicode="&#x2012;" horiz-adv-x="522" 
d="M460 299h-398v100h398v-100z" />
    <glyph glyph-name="endash" unicode="&#x2013;" horiz-adv-x="509" 
d="M449 239h-389v100h389v-100z" />
    <glyph glyph-name="emdash" unicode="&#x2014;" horiz-adv-x="694" 
d="M674 239h-654v100h654v-100z" />
    <glyph glyph-name="quoteleft" unicode="&#x2018;" horiz-adv-x="231" 
d="M171 534h-119v168l119 102v-270z" />
    <glyph glyph-name="quoteright" unicode="&#x2019;" horiz-adv-x="237" 
d="M52 721h113v-174l-113 -96v270z" />
    <glyph glyph-name="quotesinglbase" unicode="&#x201a;" horiz-adv-x="238" 
d="M60 118h118v-168l-118 -102v270z" />
    <glyph glyph-name="quotedblleft" unicode="&#x201c;" horiz-adv-x="386" 
d="M156 534h-119v168l119 102v-270zM329 534h-118v168l118 102v-270z" />
    <glyph glyph-name="quotedblright" unicode="&#x201d;" horiz-adv-x="386" 
d="M37 721h119v-168l-119 -102v270zM211 721h118v-168l-118 -102v270z" />
    <glyph glyph-name="quotedblbase" unicode="&#x201e;" horiz-adv-x="407" 
d="M233 118h119v-168l-119 -102v270zM60 118h118v-168l-118 -102v270z" />
    <glyph glyph-name="dagger" unicode="&#x2020;" horiz-adv-x="556" 
d="M27 399v101h193v190h116v-190h192v-101h-192v-589h-116v589h-193z" />
    <glyph glyph-name="daggerdbl" unicode="&#x2021;" horiz-adv-x="556" 
d="M27 399v101h193v190h116v-190h192v-101h-192v-299h192v-100h-192v-190h-116v190h-193v100h193v299h-193z" />
    <glyph glyph-name="bullet" unicode="&#x2022;" horiz-adv-x="297" 
d="M77 269c-20 20 -30 44 -30 72s10 52 30 72s44 30 72 30s52 -10 72 -30s30 -44 30 -72s-10 -52 -30 -72s-44 -30 -72 -30s-52 10 -72 30z" />
    <glyph glyph-name="ellipsis" unicode="&#x2026;" horiz-adv-x="840" 
d="M60 138h138v-138h-138v138zM642 138h138v-138h-138v138zM351 138h138v-138h-138v138z" />
    <glyph glyph-name="perthousand" unicode="&#x2030;" horiz-adv-x="1082" 
d="M124 0l386 690h106l-385 -690h-107zM724 196v-52c0 -48.667 -12.5 -86.334 -37.5 -113.001s-62.167 -40 -111.5 -40c-46.667 0 -82.667 13.333 -108 40s-38 64.334 -38 113.001v52c0 48.667 12.833 86.167 38.5 112.5s61.5 39.5 107.5 39.5
c48 0 84.833 -13.167 110.5 -39.5s38.5 -63.833 38.5 -112.5zM576 66c42 0 63 26.333 63 79v49c0 52 -21 78 -63 78c-40.667 0 -61 -26 -61 -78v-49c0 -52.667 20.333 -79 61 -79zM319 547l-0.00195312 -52c0 -48.667 -12.5 -86.334 -37.5 -113.001s-62.167 -40 -111.5 -40
c-47.333 0 -83.666 13.333 -108.999 40s-38 64.334 -38 113.001v52c0 48.667 12.833 86.167 38.5 112.5s61.834 39.5 108.501 39.5c48 0 84.833 -13.167 110.5 -39.5s38.5 -63.833 38.5 -112.5zM169.998 417c42 0 63 26.333 63 79v49c0 52 -21 78 -63 78
c-40 0 -60 -26 -60 -78v-49c0 -52.667 20 -79 60 -79zM1054 196l-0.00195312 -52c0 -48.667 -12.5 -86.334 -37.5 -113.001s-62.167 -40 -111.5 -40c-47.333 0 -83.666 13.333 -108.999 40s-38 64.334 -38 113.001v52c0 48.667 12.833 86.167 38.5 112.5
s61.834 39.5 108.501 39.5c48 0 84.833 -13.167 110.5 -39.5s38.5 -63.833 38.5 -112.5zM904.996 66c42 0 63 26.333 63 79v49c0 52 -21 78 -63 78c-40 0 -60 -26 -60 -78v-49c0 -52.667 20 -79 60 -79z" />
    <glyph glyph-name="guilsinglleft" unicode="&#x2039;" horiz-adv-x="330" 
d="M262 52l-232 231l232 231v-125l-108 -106l108 -107v-124z" />
    <glyph glyph-name="guilsinglright" unicode="&#x203a;" horiz-adv-x="330" 
d="M58 389v125l232 -231l-232 -231v124l107 107z" />
    <glyph glyph-name="fraction" unicode="&#x2044;" horiz-adv-x="566" 
d="M6 0l475 690h106l-474 -690h-107z" />
    <glyph glyph-name="uni2074" unicode="&#x2074;" horiz-adv-x="345" 
d="M31 482l131 208h85l-123 -201h67v50h72v-50h39v-62h-39v-53h-72v53h-160v55z" />
    <glyph glyph-name="Euro" unicode="&#x20ac;" horiz-adv-x="522" 
d="M9 216l-0.000976562 97h67v60h-67v97h71c18 152.667 90.667 229 218 229c124 0 193.333 -74.333 208 -223h-112c-5.33301 44 -15.333 75.333 -30 94s-36.667 28 -66 28c-32 0 -56 -9.83301 -72 -29.5s-26.333 -52.5 -31 -98.5h125v-97h-128v-60h128v-97h-124
c5.33301 -42.667 16.166 -74 32.499 -94s39.5 -30 69.5 -30c28.667 0 50.5 9.66699 65.5 29s25.167 50.333 30.5 93h111c-8 -76 -28.667 -132.167 -62 -168.5s-81.666 -54.5 -144.999 -54.5c-125.333 0 -197.666 75 -216.999 225h-72z" />
    <glyph glyph-name="uni20B4" unicode="&#x20b4;" horiz-adv-x="522" 
d="M51 227l-45.001 -0.00195312v94h511v-94h-346c-6 -11.333 -9 -25.666 -9 -42.999c0 -28.667 9.16699 -51.167 27.5 -67.5s45.833 -24.5 82.5 -24.5c27.333 0 50 5.33301 68 16s38.667 30.334 62 59.001l89 -62c-31.333 -40 -64 -69.333 -98 -88
c-33.333 -17.333 -76 -26 -128 -26c-71.333 0 -125.666 18.667 -162.999 56c-37.333 38.667 -56 84.667 -56 138c0 11.333 1.66699 25.333 5 42zM516.999 369.998l-510.999 -0.00195312v95h343c6.66699 10.667 10 25 10 43c0 28.667 -8.33301 50.834 -25 66.501
s-40.667 23.5 -72 23.5c-25.333 0 -46.833 -5.66699 -64.5 -17s-36.167 -30.666 -55.5 -57.999l-86 63c49.333 75.333 117.666 113 204.999 113c69.333 0 122.5 -17.167 159.5 -51.5s55.167 -79.5 54.5 -135.5c0 -15.333 -2.33301 -31 -7 -47h49v-95z" />
    <glyph glyph-name="uni20B8" unicode="&#x20b8;" horiz-adv-x="522" 
d="M11 439v101h501v-101h-193v-439h-116v439h-192zM11 589v101h501v-101h-501z" />
    <glyph glyph-name="uni20BD" unicode="&#x20bd;" horiz-adv-x="522" 
d="M95 252h-86.001v100h86v338h169c80.667 0 143.334 -18.833 188.001 -56.5s67 -91.5 67 -161.5s-22.5 -124.167 -67.5 -162.5s-107.5 -57.5 -187.5 -57.5h-53v-45h116v-100h-116v-107h-116v107h-86v100h86v45zM210.999 589v-237h42c100 0 150 40 150 120
c0 78 -50 117 -150 117h-42z" />
    <glyph glyph-name="afii61352" unicode="&#x2116;" horiz-adv-x="947" 
d="M923 537v-47c0 -50.667 -13 -90.5 -39 -119.5s-63.667 -43.5 -113 -43.5c-48 0 -85.333 14.5 -112 43.5s-40 68.833 -40 119.5v47c0 51.333 13.333 91.166 40 119.499s64 42.5 112 42.5c48.667 0 86.167 -14.167 112.5 -42.5s39.5 -68.166 39.5 -119.499zM901 187h-259
v98h259v-98zM771 414c19.333 0 34.167 7.16699 44.5 21.5s15.5 33.833 15.5 58.5v39c0 52.667 -20 79 -60 79c-40.667 0 -61 -26.333 -61 -79v-39c0 -53.333 20.333 -80 61 -80zM454.001 215v475h112v-690h-103l-281 469v-469h-112v690h100z" />
    <glyph glyph-name="trademark" unicode="&#x2122;" horiz-adv-x="898" 
d="M409 690h87l135 -235l135 235h88v-417h-94v232l-94 -161h-76l-88 161v-232h-93v417zM27 605v85h345v-85h-126v-332h-94v332h-125z" />
    <glyph glyph-name="uni2190" unicode="&#x2190;" horiz-adv-x="875" 
d="M209 222l314 -314h-110l-353 353l353 353h110l-314 -314h606v-78h-606z" />
    <glyph glyph-name="uni2191" unicode="&#x2191;" horiz-adv-x="826" 
d="M413 639l353 -353v-110l-314 314v-606h-78v606l-314 -314v110z" />
    <glyph glyph-name="uni2192" unicode="&#x2192;" horiz-adv-x="875" 
d="M815 261l-353 -353h-110l314 314h-606v78h606l-314 314h110z" />
    <glyph glyph-name="uni2193" unicode="&#x2193;" horiz-adv-x="826" 
d="M413 -117l-353 353v110l314 -314v606h78v-606l314 314v-110z" />
    <glyph glyph-name="uni2196" unicode="&#x2196;" horiz-adv-x="698" 
d="M137 367v-445l-77 78v500h500l78 -77h-445l428 -429l-55 -55z" />
    <glyph glyph-name="uni2197" unicode="&#x2197;" horiz-adv-x="698" 
d="M638 500v-500l-77 -78v445l-429 -428l-55 55l428 429h-445l78 77h500z" />
    <glyph glyph-name="uni2198" unicode="&#x2198;" horiz-adv-x="698" 
d="M561 133v445l77 -78v-500h-500l-78 77h445l-428 429l55 55z" />
    <glyph glyph-name="uni2199" unicode="&#x2199;" horiz-adv-x="698" 
d="M60 0v500l77 78v-445l429 428l55 -55l-428 -429h445l-78 -77h-500z" />
    <glyph glyph-name="uni21A3" unicode="&#x21a3;" horiz-adv-x="1320" 
d="M187 391l51 51l111 -111h780l-60 60l50 51l161 -161l-161 -161l-50 50l60 61h-780l-111 -111l-51 50l111 111zM40 391l51 51l160 -161l-160 -161l-51 50l110 111z" />
    <glyph glyph-name="partialdiff" unicode="&#x2202;" horiz-adv-x="502" 
d="M461 466l-0.000976562 -247c0 -71.333 -18 -127.166 -54 -167.499s-88.667 -60.5 -158 -60.5c-68 0 -120.5 20.167 -157.5 60.5s-55.5 96.166 -55.5 167.499v63c0 72 18.167 127.833 54.5 167.5s87.5 59.5 153.5 59.5c44.667 0 81.667 -10.667 111 -32
c-0.666992 86.667 -39 130 -115 130c-36 0 -73 -13 -111 -39l-52 69c46.667 41.333 103.334 62 170.001 62c70 0 123.167 -19.833 159.5 -59.5s54.5 -97.5 54.5 -173.5zM248.999 83c35.333 0 61.833 12.333 79.5 37s26.5 58.667 26.5 102v58c0 90.667 -35.333 136 -106 136
c-71.333 0 -107 -45.333 -107 -136v-58c0 -92.667 35.667 -139 107 -139z" />
    <glyph glyph-name="product" unicode="&#x220f;" horiz-adv-x="638" 
d="M70 -190v880h498v-880h-116v779h-266v-779h-116z" />
    <glyph glyph-name="summation" unicode="&#x2211;" 
d="M30 690h460v-100h-312l185 -292v-98l-185 -290h312v-100h-460v83l228 357l-228 357v83z" />
    <glyph glyph-name="minus" unicode="&#x2212;" horiz-adv-x="503" 
d="M446 307h-389v94h389v-94z" />
    <glyph glyph-name="uni2215" unicode="&#x2215;" horiz-adv-x="485" 
d="M481 812l-336 -928h-98l336 928h98z" />
    <glyph glyph-name="radical" unicode="&#x221a;" horiz-adv-x="659" 
d="M14 399v101h194l138 -326l114 516h277v-101h-185l-143 -589h-108l-179 399h-108z" />
    <glyph glyph-name="infinity" unicode="&#x221e;" horiz-adv-x="787" 
d="M392 274c-58.667 -74 -120.334 -111 -185.001 -111c-51.333 0 -93.333 17 -126 51c-32.667 34.667 -49 77.334 -49 128.001c0 51.333 16.333 93.666 49 126.999c32.667 34.667 75.667 52 129 52c68.667 0 131.334 -36.333 188.001 -109c58 72.667 118 109 180 109
c52 0 94.333 -17.333 127 -52c33.333 -34.667 50 -77 50 -127s-16.333 -92.333 -49 -127s-74 -52 -124 -52c-68 0 -131.333 37 -190 111zM580 261c22.667 0 41.668 7.66797 57.001 23.001s23 34.666 23 57.999s-8 42.5 -24 57.5s-36 22.5 -60 22.5c-16 0 -31 -4 -45 -12
c-13.333 -6.66699 -23.833 -13.667 -31.5 -21s-21.167 -22.333 -40.5 -45c23.333 -29.333 44.166 -50.5 62.499 -63.5s37.833 -19.5 58.5 -19.5zM209.001 261.001c22.667 0 43 6.33301 61 19s39 33.667 63 63c-44.667 52.667 -86 79 -124 79c-24 0 -43.833 -7.5 -59.5 -22.5
s-23.5 -34.167 -23.5 -57.5c0 -24 7.83301 -43.5 23.5 -58.5s35.5 -22.5 59.5 -22.5z" />
    <glyph glyph-name="integral" unicode="&#x222b;" horiz-adv-x="299" 
d="M82 -9v540.001c0 58 12.667 99 38 123s68 36 128 36h31v-100h-22c-25.333 0 -42.5 -5.83301 -51.5 -17.5s-13.5 -33.167 -13.5 -64.5v-539c0 -58 -12.667 -99 -38 -123s-68.333 -36 -129 -36h-31v100h23c26 0 43.333 5.66699 52 17s13 32.666 13 63.999z" />
    <glyph glyph-name="approxequal" unicode="&#x2248;" horiz-adv-x="500" 
d="M417 476l41.998 -76c-35.333 -34.667 -72.666 -52 -111.999 -52c-23.333 0 -57 8.66699 -101 26c-42.667 18 -73.667 27 -93 27c-22 0 -45.333 -10.333 -70 -31l-42 77c34.667 34.667 71.334 52 110.001 52c23.333 0 57.333 -9 102 -27c46 -17.333 78 -26 96 -26
c22 0 44.667 10 68 30zM416.998 309l41.998 -75c-35.333 -35.333 -72.666 -53 -111.999 -53c-23.333 0 -57 8.66699 -101 26c-42.667 18 -73.667 27 -93 27c-22 0 -45.333 -10.333 -70 -31l-42 77c34.667 34.667 71.334 52 110.001 52c23.333 0 57.333 -9 102 -27
c46 -17.333 78 -26 96 -26c22 0 44.667 10 68 30z" />
    <glyph glyph-name="notequal" unicode="&#x2260;" horiz-adv-x="500" 
d="M220 377h-165v99h208l72 166l85 -35l-57 -131h81v-99h-124l-31 -73h155v-98h-198l-68 -159l-85 35l53 124h-91v98h134z" />
    <glyph glyph-name="lessequal" unicode="&#x2264;" horiz-adv-x="436" 
d="M337 170l-232 231l232 231v-125l-107 -106l107 -107v-124zM337 -30l-232 231v123l232 -229v-125z" />
    <glyph glyph-name="greaterequal" unicode="&#x2265;" horiz-adv-x="436" 
d="M105 507v125l232 -231l-232 -231v124l108 107zM105 95l232 229v-123l-232 -231v125z" />
    <glyph glyph-name="uni231A" unicode="&#x231a;" horiz-adv-x="666" 
d="M446 -205h-260.999v235c-38.667 22.667 -69.167 53.667 -91.5 93s-33.5 81.666 -33.5 126.999s11.167 87.5 33.5 126.5s52.833 69.833 91.5 92.5v235h261v-234c32.667 -20 59.667 -45.667 81 -77s35 -65.666 41 -102.999h38v-80h-38
c-12.667 -78.667 -53.334 -138.667 -122.001 -180v-235zM167.001 398c-41.333 -41.333 -62 -90.666 -62 -147.999c0 -58 20.667 -107.667 62 -149s91 -62 149 -62c57.333 0 106.666 20.667 147.999 62s62 91 62 149c0 57.333 -20.667 106.666 -62 147.999
s-90.666 62 -147.999 62c-58 0 -107.667 -20.667 -149 -62zM488.001 337l-6 -19l-166 -93l-133 75l-6 20l20 5l119 -70l153 87z" />
    <glyph glyph-name="uni23F2" unicode="&#x23f2;" horiz-adv-x="1072" 
d="M199 5c-92.667 92.667 -138.999 204.999 -138.999 336.999c0 131.333 46.333 243.333 139 336c93.333 93.333 205.666 140 336.999 140c130.667 0 242.667 -46.667 336 -140s140 -205.333 140 -336c0 -131.333 -46.667 -243.666 -140 -336.999
c-92.667 -92.667 -204.667 -139 -336 -139c-132 0 -244.333 46.333 -337 139zM237.001 639.999c-82 -82 -123 -181.333 -123 -298c0 -116 41 -215.667 123 -299c82.667 -82 182.334 -123 299.001 -123s216 41 298 123c82 83.333 123 183 123 299c0 116.667 -41 216 -123 298
s-181.333 123 -298 123s-216.334 -41 -299.001 -123zM881.001 543.999l-10 -36l-335 -192l-248 142l-10 35l36 10l222 -129l309 179zM802.001 317.999v46h126v-46h-126zM559.001 -50.001h-46v126h46v-126zM145.001 317.999v46h126v-46h-126zM559.001 606.999h-46v126h46
v-126z" />
    <glyph glyph-name="uni2550" unicode="&#x2550;" horiz-adv-x="2158" 
d="M0 403h2158v-100h-2158v100zM0 257h2158v-101h-2158v101z" />
    <glyph glyph-name="lozenge" unicode="&#x25ca;" horiz-adv-x="558" 
d="M26 296l195 291h118l193 -291l-193 -296h-118zM405 296l-126 198l-127 -198l127 -204z" />
    <glyph glyph-name="uni261D" unicode="&#x261d;" horiz-adv-x="705" 
d="M645 249l0.00292969 -276.997h-370l-215 292c5.33301 5.33301 15 11.666 29 18.999c41.333 20 79.666 11.667 114.999 -25l71 -74v450c0 40.667 16.667 61 50 61s50 -19.333 50 -58v-229h36c19.333 0 33.166 -4.33301 41.499 -13s12.5 -22.334 12.5 -41.001h36
c19.333 0 33.166 -4.33301 41.499 -13s12.5 -22.334 12.5 -41.001h34c20 0 34.333 -4 43 -12s13 -21 13 -39zM645.003 -242.997h-370v161h370v-161zM584.003 -141.997c-7.33301 7.33301 -15.999 9.16797 -25.999 5.50098s-16.5 -9.83398 -19.5 -18.501
s-0.833008 -17.667 6.5 -27c8 -8 17 -10.167 27 -6.5s16.167 10.167 18.5 19.5s0.166016 18.333 -6.50098 27z" />
    <glyph glyph-name="uni261E" unicode="&#x261e;" horiz-adv-x="1061" 
d="M555 51l-276.999 -0.00195312v370l292 215c6 -6 12.333 -16 19 -30c20.667 -41.333 12.334 -79.333 -24.999 -114l-74 -71h450c40.667 0 61 -16.667 61 -50s-19.333 -50 -58 -50h-229v-36c0 -19.333 -4.33301 -33.166 -13 -41.499s-22.334 -12.5 -41.001 -12.5v-36
c0 -19.333 -4.33301 -33.166 -13 -41.499s-22.334 -12.5 -41.001 -12.5v-34c0 -20 -4 -34.333 -12 -43s-21 -13 -39 -13zM60.001 50.998v370h164v-370h-164zM161.001 110.998c8 8 10.333 17.166 7 27.499s-9.5 16.833 -18.5 19.5s-18.167 0.333984 -27.5 -6.99902
c-8 -8 -10.167 -17 -6.5 -27s10.167 -16.167 19.5 -18.5s18 -0.5 26 5.5z" />
    <glyph glyph-name="uni26F3" unicode="&#x26f3;" horiz-adv-x="674" 
d="M60 513c0 76.667 27 142.001 81 196.001s119.333 81 196 81s142 -27 196 -81s81 -119.333 81 -196c0 -57.333 -27.333 -129.333 -82 -216l-195 -307l-197 309c-53.333 85.333 -80 156.666 -80 213.999zM258 591.001c-21.333 -21.333 -32 -47.333 -32 -78
s10.667 -56.667 32 -78c22.667 -21.333 49 -32 79 -32c30.667 0 56.667 10.667 78 32s32 47.333 32 78s-10.667 56.667 -32 78s-47.333 32 -78 32c-30 0 -56.333 -10.667 -79 -32z" />
    <glyph glyph-name="uni2709" unicode="&#x2709;" horiz-adv-x="1236" 
d="M60 518v60h1116v-60l-558 -334zM60 37v444l338 -201zM810 263l366 -263h-1116l366 263l192 -114zM1176 37l-338 243l338 201v-444z" />
    <glyph glyph-name="uniF040" unicode="&#xf040;" horiz-adv-x="3054" 
d="M1578 394l51 50l113 -113h1312v-100h-1310l-115 -115l-51 50l114 114zM1310 231h-1310v100h1312l113 113l51 -50l-114 -114l114 -114l-51 -50z" />
    <glyph glyph-name="uniF041" unicode="&#xf041;" horiz-adv-x="2855" 
d="M1409 173l149 259l74 -43l-34 -58h1257v-100h-1314l-58 -100zM1314 331l58 101l74 -43l-149 -258l-74 42l33 58h-1256v100h1314z" />
    <glyph glyph-name="uniF042" unicode="&#xf042;" horiz-adv-x="2825" 
d="M2825 231h-1376v100h1376v-100zM0 331h1256v-100h-1256v100z" />
    <glyph glyph-name="uniF043" unicode="&#xf043;" horiz-adv-x="705" 
d="M275 -28l-214.998 292.002l8 6c8.66699 8 19.167 14.333 31.5 19s28.5 5.16699 48.5 1.5s38.667 -14.5 56 -32.5l71 -74v450c0 40.667 16.667 61 50 61s50 -19.333 50 -58v-229h36c19.333 0 33.166 -4.33301 41.499 -13s12.5 -22.334 12.5 -41.001h36
c19.333 0 33.166 -4.33301 41.499 -13s12.5 -22.334 12.5 -41.001h34c20 0 34.333 -4 43 -12s13 -21 13 -39v-277h-370zM275.002 -81.998h370v-161h-370v161zM545.002 -141.998c-8 -8 -10.167 -17.168 -6.5 -27.501s10.167 -16.833 19.5 -19.5s18 -0.333984 26 6.99902
c12.667 12.667 12.667 25.334 0 38.001s-25.667 13.334 -39 2.00098zM83.002 605.001v55h158v-55h-158zM409.002 605.001v55h158v-55h-158zM352.002 725.001h-55v158h55v-158z" />
    <glyph glyph-name="uniF044" unicode="&#xf044;" horiz-adv-x="931" 
d="M177 126l3.00098 10.0039c6 19.333 18.833 36.666 38.5 51.999s46.834 19.666 81.501 12.999l201 -45v478c0 40.667 16.667 61 50 61s50 -19.333 50 -58v-229h36c19.333 0 33.166 -4.33301 41.499 -13s12.5 -22.334 12.5 -41.001h36c19.333 0 33.166 -4.33301 41.499 -13
s12.5 -22.334 12.5 -41.001h34c20 0 34.333 -4 43 -12s13 -21 13 -39v-277h-370zM501.001 -81.9961h370v-161h-370v161zM553.001 759.004v55h158v-158h-55v103h-103zM218.001 70.0039v-55h-158v158h55v-103h103zM771.001 -141.996c-8 -8 -10.167 -17.168 -6.5 -27.501
s10.167 -16.833 19.5 -19.5s18 -0.333984 26 6.99902c12.667 12.667 12.667 25.334 0 38.001s-25.667 13.334 -39 2.00098z" />
    <glyph glyph-name="uniF045" unicode="&#xf045;" horiz-adv-x="903" 
d="M370 665l503.003 0.00292969v-55h-498v-202h36c19.333 0 33.166 -4.33301 41.499 -13s12.5 -22.334 12.5 -41.001h36c19.333 0 33.166 -4.33301 41.499 -13s12.5 -22.334 12.5 -41.001h34c20 0 34.333 -4 43 -12s13 -21 13 -39v-277h-370l-215 292
c5.33301 5.33301 15 11.666 29 18.999c41.333 20 79.666 11.667 114.999 -25l71 -74v450c0 40.667 16.667 61 50 61c23.333 0 38.333 -10 45 -30zM645.003 -242.997h-370v161h370v-161zM199.003 525.003l-112 112l112 112l39 -39l-73 -73l73 -73zM584.003 -141.997
c-7.33301 7.33301 -15.999 9.16797 -25.999 5.50098s-16.5 -9.83398 -19.5 -18.501s-0.833008 -17.667 6.5 -27c8 -8 17 -10.167 27 -6.5s16.167 10.167 18.5 19.5s0.166016 18.333 -6.50098 27z" />
    <glyph glyph-name="uniF046" unicode="&#xf046;" horiz-adv-x="952" 
d="M892 249l0.000976562 -276.999h-370l-215 292c5.33301 5.33301 15 11.666 29 18.999c41.333 20 79.666 11.667 114.999 -25l71 -74v426h-492v55h497c7.33301 20 22.333 30 45 30c33.333 0 50 -19.333 50 -58v-229h36c36 0 54 -18 54 -54h36c36 0 54 -18 54 -54h34
c20 0 34.333 -4 43 -12s13 -21 13 -39zM892.001 -242.999h-370v161h370v-161zM704.001 749.001l112 -112l-112 -112l-39 39l73 73l-73 73zM831.001 -141.999c-7.33301 7.33301 -15.999 9.16797 -25.999 5.50098s-16.5 -9.83398 -19.5 -18.501s-0.833008 -17.667 6.5 -27
c8 -8 17 -10.167 27 -6.5s16.167 10.167 18.5 19.5s0.166016 18.333 -6.50098 27z" />
    <glyph glyph-name="uniF047" unicode="&#xf047;" horiz-adv-x="1010" 
d="M872 514l-6 -3.99609v-634h-55v603l-137 -79l17 -31c18 -32 11.667 -56.333 -19 -73l18 -32c18 -30.667 11.333 -55 -20 -73l17 -30c19.333 -32 13.666 -56.667 -17.001 -74l-239 -139l-185 321l145 332l5 -2c3.33301 -1.33301 7.83301 -3.33301 13.5 -6
s11.334 -6.33398 17.001 -11.001s11.5 -10.334 17.5 -17.001s10.667 -14.334 14 -23.001s5.33301 -18.834 6 -30.501s-1.33301 -24.5 -6 -38.5l-29 -99l391 226c35.333 19.333 61.333 15 78 -13c16.667 -28.667 8 -53 -26 -73zM245 -158.996l-185 321l140 81l184 -321z
M765 651.004l-39 39l112 112l112 -112l-39 -39l-73 73zM295 -26.9961c-7.33301 7.33301 -15.999 9.16797 -25.999 5.50098s-16.5 -9.83398 -19.5 -18.501s-0.833008 -17.667 6.5 -27c8 -8 17 -10.167 27 -6.5s16.167 10.167 18.5 19.5s0.166016 18.333 -6.50098 27z" />
    <glyph glyph-name="uniF048" unicode="&#xf048;" horiz-adv-x="1145" 
d="M485 0l-240 137l186 321l360 40c2 -11.333 2.33301 -23 1 -35c-2.66699 -46 -28.667 -75 -78 -87l-100 -24l332 -192v603h55v-635l4 -2c34 -20 43 -44.667 27 -74c-16.667 -28.667 -42 -33.334 -76 -14.001l-198 115l-18 -30c-18.667 -32 -43 -39 -73 -21l-18 -31
c-18 -30.667 -42.667 -37 -74 -19l-17 -30c-18.667 -31.333 -43 -38.666 -73 -21.999zM60 245l185 320l140 -80l-186 -320zM1085 -51l-112 -112l-112 112l39 39l73 -73l73 73zM191 293c-7.33301 8 -15.999 10.333 -25.999 7s-16.5 -9.5 -19.5 -18.5
s-0.833008 -18.167 6.5 -27.5c8 -8 17.167 -10.167 27.5 -6.5s16.666 10.167 18.999 19.5s-0.166992 18 -7.5 26z" />
    <glyph glyph-name="uniF400" unicode="&#xf400;" horiz-adv-x="0" 
d="M-190 567h-101l70 158h122z" />
    <glyph glyph-name="uniF401" unicode="&#xf401;" horiz-adv-x="0" 
d="M-257 744h-103l80 129h126z" />
    <glyph glyph-name="uniF406" unicode="&#xf406;" horiz-adv-x="512" 
d="M347 879h96.998c0 -48 -17 -85.333 -51 -112s-79.667 -40 -137 -40s-103.166 13.333 -137.499 40s-51.5 64 -51.5 112h97c6.66699 -42 37.334 -63 92.001 -63s85 21 91 63z" />
    <glyph glyph-name="uniF407" unicode="&#xf407;" horiz-adv-x="411" 
d="M150 -71l19 96l71 -3l-12 -44c37.333 -14 56 -38.667 56 -74c0 -25.333 -10.5 -45.5 -31.5 -60.5s-48.833 -22.5 -83.5 -22.5c-20 0 -34 1 -42 3l14 59c2.66699 -0.666992 9 -1 19 -1c26 0 39 8 39 24c0 15.333 -16.333 23 -49 23z" />
    <glyph glyph-name="uniF408" unicode="&#xf408;" horiz-adv-x="512" 
d="M68 738l138 142h100l138 -142h-117l-71 75l-71 -75h-117z" />
    <glyph glyph-name="uniF409" unicode="&#xf409;" horiz-adv-x="383" 
d="M132 -57h118v-114l-118 -102v216z" />
    <glyph glyph-name="uniF40A" unicode="&#xf40a;" horiz-adv-x="185" 
d="M54 690h118v-144l-118 -101v245z" />
    <glyph glyph-name="uniF40B" unicode="&#xf40b;" horiz-adv-x="383" 
d="M250 768h-118v101h118v-101z" />
    <glyph glyph-name="uniF40C" unicode="&#xf40c;" horiz-adv-x="438" 
d="M105 800c0 29.333 10.667 53.167 32 71.5s48.333 27.5 81 27.5c34 0 61.5 -9 82.5 -27s31.5 -42 31.5 -72c0 -29.333 -10.5 -53 -31.5 -71s-48.5 -27 -82.5 -27c-32.667 0 -59.667 9 -81 27s-32 41.667 -32 71zM172 800.001c0 -12 4.16699 -21.333 12.5 -28
s19.5 -10 33.5 -10c30.667 0 46 12.667 46 38s-15.333 38 -46 38s-46 -12.667 -46 -38z" />
    <glyph glyph-name="uniF40D" unicode="&#xf40d;" horiz-adv-x="495" 
d="M308 744c-15.333 0 -36 4.66699 -62 14s-44.333 14 -55 14c-20.667 0 -39 -8.66699 -55 -26l-59 60c32 37.333 69.667 56 113 56c14 0 34 -4.66699 60 -14s44.667 -14 56 -14c20 0 38 8.66699 54 26l58 -60c-31.333 -37.333 -68 -56 -110 -56z" />
    <glyph glyph-name="uniF40E" unicode="&#xf40e;" horiz-adv-x="409" 
d="M236 46l29.999 -46c-20 -14.667 -34 -26.5 -42 -35.5s-12 -18.5 -12 -28.5c0 -16.667 11.667 -25 35 -25c2.66699 0 9.33398 0.666992 20.001 2l14 -59c-6 -2.66699 -21.667 -4 -47 -4c-30.667 0 -56.167 6.5 -76.5 19.5s-30.5 31.833 -30.5 56.5c0 44 36.333 84 109 120
z" />
    <glyph glyph-name="dollar.fitted" unicode="&#xf5f5;" horiz-adv-x="573" 
d="M523 586l-87.999 -62.998c-29.333 39.333 -63.333 63 -102 71v-202c69.333 -16 119.833 -39.667 151.5 -71s47.5 -75.333 47.5 -132c0 -53.333 -16.833 -97.833 -50.5 -133.5s-81.834 -56.5 -144.501 -62.5v-109h-98v111c-87.333 10 -154 46.333 -200 109l91 63
c33.333 -39.333 71 -63 113 -71l1 6v202c-124.667 30.667 -187 98.667 -187 204c0 51.333 15.333 93.666 46 126.999s76 53.666 136 60.999v116h98v-116c82.667 -10 144.667 -46.667 186 -110zM416.001 184.002c0 22.667 -6.33301 41.5 -19 56.5s-34 28.167 -64 39.5v-185
c55.333 10 83 39.667 83 89zM173.001 508.002c0 -41.333 23.667 -71.667 71 -91v176c-47.333 -10 -71 -38.333 -71 -85z" />
    <glyph glyph-name="Euro.fitted" unicode="&#xf5f6;" horiz-adv-x="628" 
d="M7 216l-0.00195312 96.999h82v60h-82v97h88c11.333 76 38.666 133.167 81.999 171.5s100 57.5 170 57.5s126.5 -18.833 169.5 -56.5s70.167 -93.167 81.5 -166.5h-112c-17.333 81.333 -63.666 122 -138.999 122s-120.666 -42.667 -135.999 -128h169v-97h-175v-60h175v-97
h-168c16.667 -82.667 61.667 -124 135 -124c39.333 0 70 9.83301 92 29.5s37.667 50.5 47 92.5h111c-22 -148.667 -105.333 -223 -250 -223c-69.333 0 -125.666 18.833 -168.999 56.5s-71 93.834 -83 168.501h-88z" />
    <glyph glyph-name="cent.fitted" unicode="&#xf5f7;" horiz-adv-x="445" 
d="M353 134l81.001 -57c-27.333 -46 -71 -73 -131 -81v-112h-96v113c-54 8.66699 -96 32.667 -126 72s-45 89.333 -45 150v64c0 62 14.667 111.833 44 149.5s71.666 61.167 126.999 70.5v119h96v-118c58 -8.66699 101.667 -34.667 131 -78l-82 -57
c-20.667 30.667 -52 46 -94 46c-77.333 0 -116 -45.667 -116 -137v-54c0 -92.667 38.667 -139 116 -139c45.333 0 77 16.333 95 49z" />
    <glyph glyph-name="sterling.fitted" unicode="&#xf5f8;" horiz-adv-x="520" 
d="M481 0l-456.001 0.000976562v100h72v195h-72v101h72v22c0 187.333 71.667 281 215 281c85.333 0 148.333 -32 189 -96l-96 -55c-25.333 33.333 -55.333 50 -90 50c-35.333 0 -61.166 -13.833 -77.499 -41.5s-24.5 -73.834 -24.5 -138.501v-22h142v-101h-142v-195h268
v-100z" />
    <glyph glyph-name="yen.fitted" unicode="&#xf5f9;" horiz-adv-x="578" 
d="M89 131v97h142v60h-142v97h90l-163 305h135l138 -276l139 276h134l-163 -305h90v-97h-142v-60h142v-97h-142v-131h-116v131h-142z" />
    <glyph glyph-name="florin.fitted" unicode="&#xf5fa;" horiz-adv-x="316" 
d="M32 399v101h64v31c0 58 12.833 99 38.5 123s68.834 36 129.501 36h30v-101h-20c-26 0 -43.333 -5.66699 -52 -17s-13 -32 -13 -62v-10h85v-101h-85v-430c0 -57.333 -14.667 -98.166 -44 -122.499s-77.333 -36.5 -144 -36.5v101c29.333 0 49.166 6.16699 59.499 18.5
s15.5 33.166 15.5 62.499v407h-64z" />
    <glyph glyph-name="uni20B4.fitted" unicode="&#xf5fb;" horiz-adv-x="590" 
d="M84 227l-45.001 -0.00292969v94h512v-94h-346c-6 -11.333 -9 -25.666 -9 -42.999c0 -28.667 9.16699 -51.167 27.5 -67.5s45.5 -24.5 81.5 -24.5c27.333 0 50 5.33301 68 16s38.667 30.334 62 59.001l90 -62c-33.333 -41.333 -66 -70.666 -98 -87.999
c-33.333 -17.333 -76 -26 -128 -26c-71.333 0 -125.666 18.667 -162.999 56c-37.333 38.667 -56 84.667 -56 138c0 18 1.33301 32 4 42zM550.999 369.997l-512 -0.00195312v95h344c6.66699 12.667 10 27 10 43c0 28.667 -8.5 50.834 -25.5 66.501s-40.833 23.5 -71.5 23.5
c-26.667 0 -48.667 -5.66699 -66 -17s-35.333 -30.666 -54 -57.999l-87 63c49.333 75.333 118 113 206 113c68.667 0 121.5 -17.167 158.5 -51.5s55.5 -79.5 55.5 -135.5c0 -15.333 -2.33301 -31 -7 -47h49v-95z" />
    <glyph glyph-name="uni20BD.fitted" unicode="&#xf5fc;" horiz-adv-x="522" 
d="M95 252h-86.001v100h86v338h169c80.667 0 143.334 -18.833 188.001 -56.5s67 -91.5 67 -161.5s-22.5 -124.167 -67.5 -162.5s-107.5 -57.5 -187.5 -57.5h-53v-45h116v-100h-116v-107h-116v107h-86v100h86v45zM210.999 589v-237h42c100 0 150 40 150 120
c0 78 -50 117 -150 117h-42z" />
    <glyph glyph-name="uni20B8.fitted" unicode="&#xf5fd;" horiz-adv-x="527" 
d="M7 439v101h513v-101h-198v-439h-116v439h-199zM7 589v101h513v-101h-513z" />
    <glyph glyph-name="currency.fitted" unicode="&#xf5fe;" horiz-adv-x="557" 
d="M79 366c0 37.333 8.66602 70.668 25.999 100.001l-73 74l72 72l72 -73c30.667 18.667 64.667 28 102 28c36.667 0 70.334 -9.33301 101.001 -28l74 74l72 -72l-74 -74c18.667 -30.667 28 -64.334 28 -101.001c0 -37.333 -9.33301 -71.333 -28 -102l74 -73l-72 -72l-74 74
c-32 -18 -65.667 -27 -101 -27c-36 0 -69.667 9 -101 27l-73 -73l-72 72l73 73c-17.333 31.333 -26 65 -26 101zM277.999 261.002c29.333 0 53.833 10.167 73.5 30.5s29.5 45.166 29.5 74.499c0 30 -9.83301 55.167 -29.5 75.5s-44.167 30.5 -73.5 30.5
c-28 0 -51.833 -10.333 -71.5 -31s-29.5 -45.667 -29.5 -75s9.66699 -54.166 29 -74.499s43.333 -30.5 72 -30.5z" />
    <glyph glyph-name="uniF639" unicode="&#xf639;" horiz-adv-x="546" 
d="M490 488v-286c0 -68 -21 -120.333 -63 -157c-40.667 -36 -92 -54 -154 -54c-61.333 0 -113 18 -155 54c-41.333 37.333 -62 89.666 -62 156.999v285c0 69.333 20.667 122 62 158s93 54 155 54s113.667 -18 155 -54c41.333 -35.333 62 -87.666 62 -156.999zM374 209v272
c0 36.667 -9 65.334 -27 86.001s-42.667 31 -74 31c-32 0 -57 -10.333 -75 -31s-27 -49.334 -27 -86.001v-272c0 -36.667 9 -65.334 27 -86.001s43 -31 75 -31c31.333 0 56 10.333 74 31s27 49.334 27 86.001z" />
    <glyph glyph-name="uniF63A" unicode="&#xf63a;" horiz-adv-x="507" 
d="M190 100l262 0.000976562v-100h-417v82l237 278c46.667 53.333 70 101.666 70 144.999c0 29.333 -9.16699 52.5 -27.5 69.5s-41.833 25.5 -70.5 25.5s-51.834 -8.5 -69.501 -25.5s-27.167 -40.167 -28.5 -69.5h-106c0 57.333 20 104 60 140s89.333 54 148 54
c60.667 0 110.334 -18.333 149.001 -55c40 -37.333 60 -84.333 60 -141c0 -42 -12.333 -81.667 -37 -119c-8.66699 -13.333 -19 -28 -31 -44l-36 -45z" />
    <glyph glyph-name="uniF63B" unicode="&#xf63b;" horiz-adv-x="502" 
d="M229 306l-48 0.00390625v100h48c36 0 63.5 9 82.5 27s28.5 43.333 28.5 76c0 26 -9.33301 47.667 -28 65s-42 26 -70 26c-27.333 0 -49.833 -8 -67.5 -24s-27.834 -36.333 -30.501 -61h-106c0.666992 54 21.334 98 62.001 132c40.667 34.667 89.334 52 146.001 52
c60 0 109.667 -18 149 -54c40 -36 60 -80.333 60 -133c0 -34.667 -8.66699 -65.334 -26 -92.001s-41.333 -47.334 -72 -62.001c72 -32 108 -87.667 108 -167c0 -56.667 -19 -104.334 -57 -143.001c-38 -38 -89.333 -57 -154 -57c-66.667 0 -120 17.167 -160 51.5
s-61.667 80.166 -65 137.499h106c4 -27.333 15.667 -48.833 35 -64.5s45.666 -23.5 78.999 -23.5c30 0 54.333 9.5 73 28.5s28 43.5 28 73.5c0 36 -10.333 63.667 -31 83s-50.667 29 -90 29z" />
    <glyph glyph-name="uniF63C" unicode="&#xf63c;" horiz-adv-x="525" 
d="M16 186l239 504h123l-221 -485h162v188h116v-188h63v-101h-63v-104h-116v104h-303v82z" />
    <glyph glyph-name="uniF63D" unicode="&#xf63d;" horiz-adv-x="508" 
d="M256 367c-36 0 -63.999 -17.001 -83.999 -51.001h-105v374h374v-109h-261v-146c26.667 26.667 62 40 106 40c58 0 102.833 -21.5 134.5 -64.5s47.5 -104.5 47.5 -184.5c0 -76 -17.833 -134.167 -53.5 -174.5s-87.834 -60.5 -156.501 -60.5
c-57.333 0 -105.333 16.333 -144 49s-60.667 76.334 -66 131.001h114c12.667 -52.667 44 -79 94 -79c64 0 96 43.333 96 130c0 96.667 -32 145 -96 145z" />
    <glyph glyph-name="uniF63E" unicode="&#xf63e;" horiz-adv-x="507" 
d="M233 690h125.999l-140 -293c16.667 8.66699 38.667 13 66 13c54 0 98.333 -19.333 133 -58c35.333 -39.333 53 -88 53 -146c0 -67.333 -20.333 -120 -61 -158c-40 -38 -92 -57 -156 -57c-63.333 0 -115.666 18.667 -156.999 56c-40.667 38 -61 90.333 -61 157
c0 38 18.667 98.333 56 181zM151.999 203c0 -34 8.99902 -61 26.999 -81s43 -30 75 -30c31.333 0 56 10 74 30s27 47 27 81s-9 61 -27 81s-42.667 30 -74 30s-56.166 -10 -74.499 -30s-27.5 -47 -27.5 -81z" />
    <glyph glyph-name="uniF63F" unicode="&#xf63f;" horiz-adv-x="441" 
d="M118 589v-113h-100v214h406v-89l-207 -601h-121l208 589h-186z" />
    <glyph glyph-name="uniF640" unicode="&#xf640;" horiz-adv-x="518" 
d="M36 193c0 36.667 10.002 70.167 30.002 100.5s44.667 51.833 74 64.5c-28 14 -50.667 34.667 -68 62s-26 57 -26 89c0 56.667 21 102.667 63 138c41.333 34.667 91.333 52 150 52c59.333 0 109.333 -17.333 150 -52c42 -35.333 63 -81.333 63 -138
c0 -32 -8.66699 -61.667 -26 -89s-40 -48 -68 -62c30 -12.667 54.833 -34.167 74.5 -64.5s29.5 -63.833 29.5 -100.5c0 -60.667 -21.667 -109.667 -65 -147c-42.667 -36.667 -95.334 -55 -158.001 -55s-115.334 18.333 -158.001 55c-43.333 37.333 -65 86.333 -65 147z
M152.002 200c0 -30.667 10.167 -56.501 30.5 -77.501s45.833 -31.5 76.5 -31.5c30 0 55.5 10.667 76.5 32s31.5 47 31.5 77c0 32 -11.333 58 -34 78c-22 20 -46.667 30 -74 30c-28.667 0 -53.667 -10.167 -75 -30.5s-32 -46.166 -32 -77.499zM357.002 500.999
c0 26.667 -9.5 49.5 -28.5 68.5s-42.167 28.5 -69.5 28.5s-50.5 -9.33301 -69.5 -28s-28.5 -41.667 -28.5 -69s9.5 -50.666 28.5 -69.999s42.167 -29 69.5 -29s50.5 9.66699 69.5 29s28.5 42.666 28.5 69.999z" />
    <glyph glyph-name="uniF641" unicode="&#xf641;" horiz-adv-x="507" 
d="M275 0h-125.998l139 293c-17.333 -9.33301 -39.333 -14 -66 -14c-54.667 0 -99.334 19.333 -134.001 58s-52 87.667 -52 147c0 67.333 20.333 120 61 158s92.667 57 156 57s115.666 -18.667 156.999 -56c40.667 -36.667 61 -89 61 -157c0 -38 -18.667 -98.333 -56 -181z
M355.002 487c0 34 -9 61 -27 81s-43 30 -75 30c-31.333 0 -56 -10 -74 -30s-27 -47 -27 -81s9 -61 27 -81s42.667 -30 74 -30c32 0 57 10 75 30s27 47 27 81z" />
    <glyph glyph-name="uniF6BA" unicode="&#xf6ba;" horiz-adv-x="319" 
d="M289 298h-259v94h259v-94z" />
    <glyph glyph-name="uniF6BB" unicode="&#xf6bb;" horiz-adv-x="509" 
d="M449 295h-389v100h389v-100z" />
    <glyph glyph-name="uniF6BC" unicode="&#xf6bc;" horiz-adv-x="694" 
d="M674 295h-654v100h654v-100z" />
    <glyph glyph-name="uniF6C3" unicode="&#xf6c3;" horiz-adv-x="323" 
d="M102 -57h119v-114l-119 -102v216z" />
    <glyph glyph-name="uniF6C9" unicode="&#xf6c9;" horiz-adv-x="406" 
d="M203 744h-103l80 129h126z" />
    <glyph glyph-name="uniF6CA" unicode="&#xf6ca;" horiz-adv-x="512" 
d="M444 880l-138 -142h-100l-138 142h117l71 -75l71 75h117z" />
    <glyph glyph-name="uniF6CB" unicode="&#xf6cb;" horiz-adv-x="482" 
d="M191 764h-108v105h108v-105zM398 764h-109v105h109v-105z" />
    <glyph glyph-name="uniF6CE" unicode="&#xf6ce;" horiz-adv-x="389" 
d="M91 873h127l80 -129h-104z" />
    <glyph glyph-name="uniF6CF" unicode="&#xf6cf;" horiz-adv-x="572" 
d="M187 744h-104l80 129h127zM375 744h-103l90 129h126z" />
    <glyph glyph-name="uniF6D0" unicode="&#xf6d0;" horiz-adv-x="483" 
d="M400 755h-317v94h317v-94z" />
    <glyph glyph-name="uniF6D1" unicode="&#xf6d1;" horiz-adv-x="472" 
d="M312 879h107c0 -98 -61 -147 -183 -147c-122.667 0 -184 49 -184 147h108c0 -46.667 25.333 -70 76 -70s76 23.333 76 70z" />
    </font>
</defs>
</svg>
